<?xml version="1.0" standalone="no"?>
<!DOCTYPE svg PUBLIC "-//W3C//DTD SVG 1.1//EN" "http://www.w3.org/Graphics/SVG/1.1/DTD/svg11.dtd" >
<svg>
<metadata>
Created by FontForge 20090914 at Tue Jun 23 18:45:39 2020
 By www-data
Copyright (c) Milos Mitrovic, 2016. All rights reserved.
</metadata>
<defs>
<font id="NoirPro-Medium" horiz-adv-x="624" >
  <font-face 
    font-family="NoirPro-Medium"
    font-weight="400"
    font-stretch="normal"
    units-per-em="1000"
    panose-1="0 0 6 0 0 0 0 0 0 0"
    ascent="730"
    descent="-270"
    x-height="496"
    cap-height="672"
    bbox="-168 -304 1136 1120"
    underline-thickness="50"
    underline-position="-100"
    unicode-range="U+0020-U+25CA"
  />
<missing-glyph horiz-adv-x="528" 
d="M433 800v-1056h-335v1056h335zM352 729h-175v-35h69v-39h-70v-35h176v35h-70v39h70v35zM282 593h-106v-110h176v36h-70v74zM246 557v-38h-35v38h35zM352 455h-176v-35h70v-39h-70v-35h106v74h70v35zM352 391h-35v-69h-141v-36h176v105zM352 262h-106v-59h36v25h35v-50
h-106v84h-35v-119h176v119zM352 80h-176v-120h176v120zM317 45v-50h-106v50h106zM352 -64h-176v-35h74l-74 -49v-35h176v35h-108l74 49h34v35z" />
    <glyph glyph-name=".notdef" horiz-adv-x="528" 
d="M433 800v-1056h-335v1056h335zM352 729h-175v-35h69v-39h-70v-35h176v35h-70v39h70v35zM282 593h-106v-110h176v36h-70v74zM246 557v-38h-35v38h35zM352 455h-176v-35h70v-39h-70v-35h106v74h70v35zM352 391h-35v-69h-141v-36h176v105zM352 262h-106v-59h36v25h35v-50
h-106v84h-35v-119h176v119zM352 80h-176v-120h176v120zM317 45v-50h-106v50h106zM352 -64h-176v-35h74l-74 -49v-35h176v35h-108l74 49h34v35z" />
    <glyph glyph-name="space" unicode=" " horiz-adv-x="304" 
 />
    <glyph glyph-name="exclam" unicode="!" horiz-adv-x="288" 
d="M104 192l-32 480h144l-32 -480h-80zM144 -16c-22.667 0 -41.667 7.66699 -57 23s-23 34.333 -23 57s7.66699 41.667 23 57s34.333 23 57 23s41.667 -7.66699 57 -23s23 -34.333 23 -57s-7.66699 -41.667 -23 -57s-34.333 -23 -57 -23z" />
    <glyph glyph-name="quotedbl" unicode="&#x22;" horiz-adv-x="416" 
d="M152 448h-88l-16 224h120zM352 448h-88l-16 224h120z" />
    <glyph glyph-name="numbersign" unicode="#" horiz-adv-x="704" 
d="M656 416h-123l-29 -176h104v-80h-117l-27 -160h-96l27 160h-144l-27 -160h-96l27 160h-107v80h120l29 176h-101v80h115l29 176h96l-29 -176h144l29 176h96l-29 -176h109v-80zM264 240h144l29 176h-144z" />
    <glyph glyph-name="dollar" unicode="$" horiz-adv-x="608" 
d="M576 200c0 -58.667 -20.8311 -108.001 -62.498 -148.001s-100.834 -62.333 -177.501 -67v-65h-48v64c-100.667 4.66699 -186 42 -256 112l64 112c27.333 -31.333 60.666 -55.166 99.999 -71.499s76.666 -24.5 111.999 -24.5c44 0 78.333 7.33301 103 22s37 34 37 58
c0 42.667 -45.333 70.667 -136 84c-92 14 -157.667 37.833 -197 71.5s-59 77.167 -59 130.5c0 55.333 20.667 102.833 62 142.5s98 61.834 170 66.501v65h48v-65c76.667 -3.33301 146 -30.333 208 -81l-54 -110c-49.333 42.667 -108.666 64 -177.999 64
c-37.333 0 -68 -5.83301 -92 -17.5s-36 -30.167 -36 -55.5c0 -22 10 -38.667 30 -50s55.333 -21 106 -29c40.667 -6.66699 75 -14.334 103 -23.001s54.333 -20.5 79 -35.5s43.167 -35 55.5 -60s18.5 -54.833 18.5 -89.5z" />
    <glyph glyph-name="percent" unicode="%" horiz-adv-x="800" 
d="M201 384c-42.667 0 -78.834 14.667 -108.501 44s-44.5 65.333 -44.5 108c0 42 14.833 77.833 44.5 107.5s65.834 44.5 108.501 44.5c42 0 77.667 -14.833 107 -44.5s44 -65.5 44 -107.5c0 -42.667 -14.667 -78.667 -44 -108s-65 -44 -107 -44zM206 0h-80l468 672h80z
M200 464c19.333 0 36.166 7.16699 50.499 21.5s21.5 31.166 21.5 50.499s-7.16699 36.166 -21.5 50.499s-31.166 21.5 -50.499 21.5s-36.166 -7.16699 -50.499 -21.5s-21.5 -31.166 -21.5 -50.499s7.16699 -36.166 21.5 -50.499s31.166 -21.5 50.499 -21.5zM601 -16
c-42.667 0 -78.834 14.667 -108.501 44s-44.5 65.333 -44.5 108c0 42 14.833 77.833 44.5 107.5s65.834 44.5 108.501 44.5c42 0 77.667 -14.833 107 -44.5s44 -65.5 44 -107.5c0 -42.667 -14.667 -78.667 -44 -108s-65 -44 -107 -44zM600 64
c19.333 0 36.166 7.16699 50.499 21.5s21.5 31.166 21.5 50.499s-7.16699 36.166 -21.5 50.499s-31.166 21.5 -50.499 21.5s-36.166 -7.16699 -50.499 -21.5s-21.5 -31.166 -21.5 -50.499s7.16699 -36.166 21.5 -50.499s31.166 -21.5 50.499 -21.5z" />
    <glyph glyph-name="ampersand" unicode="&#x26;" horiz-adv-x="800" 
d="M752 320l-178.002 -160l177 -160h-198l-73 68c-26 -24 -57.5 -44 -94.5 -60s-74.5 -24 -112.5 -24c-67.333 0 -121.666 18.833 -162.999 56.5s-62 87.167 -62 148.5c0 42 12 78.333 36 109s52.333 54.334 85 71.001c-26 27.333 -45.333 51.666 -58 72.999s-19 44 -19 68
c0 54 22 97.167 66 129.5s100 48.5 168 48.5c61.333 0 113.166 -17.5 155.499 -52.5s63.5 -79.5 63.5 -133.5c0 -20 -3.5 -38.5 -10.5 -55.5s-14.167 -30.5 -21.5 -40.5s-19.666 -21 -36.999 -33s-29.166 -19.5 -35.499 -22.5l-38.5 -18.5c-4.66699 -2 -8 -3.66699 -10 -5
l90 -82l89 75h181zM300.998 410c76.667 26.667 115 56.667 115 90c0 19.333 -9.83301 35.5 -29.5 48.5s-41.5 19.5 -65.5 19.5c-28.667 0 -52 -6 -70 -18s-27 -26.333 -27 -43c0 -22.667 25.667 -55 77 -97zM277.998 112c36.667 0 73.333 15.332 110 45.999l-134 130
c-20.667 -8 -38.834 -20.167 -54.501 -36.5s-23.5 -34.166 -23.5 -53.499c0 -24.667 9.33301 -45.167 28 -61.5s43.334 -24.5 74.001 -24.5z" />
    <glyph glyph-name="quotesingle" unicode="'" horiz-adv-x="216" 
d="M152 448h-88l-16 224h120z" />
    <glyph glyph-name="parenleft" unicode="(" horiz-adv-x="336" 
d="M304 720c-85.333 -129.333 -128 -268.002 -128 -416.002s42.667 -286.667 128 -416l-128 -48c-85.333 154.667 -128 309.334 -128 464.001s42.667 309.334 128 464.001z" />
    <glyph glyph-name="parenright" unicode=")" horiz-adv-x="336" 
d="M32 720l128 48.002c85.333 -154.667 128 -309.334 128 -464.001s-42.667 -309.334 -128 -464.001l-128 48c85.333 129.333 128 268 128 416s-42.667 286.667 -128 416z" />
    <glyph glyph-name="asterisk" unicode="*" horiz-adv-x="432" 
d="M252 591l101 45l31 -77l-108 -35l73 -92l-66 -48l-67 96l-64 -96l-68 48l72 92l-108 35l31 77l102 -45l-5 113h82z" />
    <glyph glyph-name="plus" unicode="+" horiz-adv-x="496" 
d="M448 344v-80h-160v-160h-80v160h-160v80h160v160h80v-160h160z" />
    <glyph glyph-name="comma" unicode="," horiz-adv-x="280" 
d="M32 -112l56 240h144l-120 -240h-80z" />
    <glyph glyph-name="hyphen" unicode="-" horiz-adv-x="384" 
d="M336 216h-288v96h288v-96z" />
    <glyph glyph-name="period" unicode="." horiz-adv-x="256" 
d="M128 -16c-22.667 0 -41.667 7.66699 -57 23s-23 34.333 -23 57s7.66699 41.667 23 57s34.333 23 57 23s41.667 -7.66699 57 -23s23 -34.333 23 -57s-7.66699 -41.667 -23 -57s-34.333 -23 -57 -23z" />
    <glyph glyph-name="slash" unicode="/" horiz-adv-x="512" 
d="M144 -80h-96l320 832h96z" />
    <glyph glyph-name="zero" unicode="0" 
d="M312 688c77.333 0 140.667 -34 190 -102s74 -151.333 74 -250s-24.667 -182 -74 -250s-112.666 -102 -189.999 -102c-78 0 -141.5 33.833 -190.5 101.5s-73.5 151.167 -73.5 250.5c0 98.667 24.667 182 74 250s112.666 102 189.999 102zM312.001 112
c37.333 0 69.333 21.833 96 65.5s40 96.5 40 158.5s-13.333 114.833 -40 158.5s-58.667 65.5 -96 65.5s-69.333 -21.833 -96 -65.5s-40 -96.5 -40 -158.5s13.333 -114.833 40 -158.5s58.667 -65.5 96 -65.5z" />
    <glyph glyph-name="one" unicode="1" horiz-adv-x="400" 
d="M64 624l256 64v-688h-128v532l-128 -28v120z" />
    <glyph glyph-name="two" unicode="2" 
d="M64 448c4 68.667 27.332 125.834 69.999 171.501s99.334 68.5 170.001 68.5c70 0 127.5 -20 172.5 -60s67.5 -94.667 67.5 -164c0 -50.667 -16 -99.834 -48 -147.501s-85.333 -110.5 -160 -188.5h240v-128h-528l272 288c64 70 96 126 96 168
c0 32.667 -9.83301 58.167 -29.5 76.5s-47.167 27.5 -82.5 27.5c-34 0 -60.5 -11.833 -79.5 -35.5s-29.833 -54.5 -32.5 -92.5z" />
    <glyph glyph-name="three" unicode="3" horiz-adv-x="608" 
d="M466 355c24.667 -8.66699 46.502 -27.334 65.502 -56.001s28.5 -59 28.5 -91c0 -26.667 -4.5 -52.5 -13.5 -77.5s-23 -48.833 -42 -71.5s-45.833 -40.834 -80.5 -54.501s-74.667 -20.5 -120 -20.5c-76.667 0 -137.167 20 -181.5 60s-69.166 94.667 -74.499 164l128 16
c5.33301 -35.333 18.166 -62.833 38.499 -82.5s52.166 -29.5 95.499 -29.5c30 0 57.833 7.66699 83.5 23s38.5 37 38.5 65c0 61.333 -58.667 92 -176 92v104c12.667 0.666992 25.667 1.83398 39 3.50098s30.333 5.16699 51 10.5s37.5 14.333 50.5 27
s19.5 28.334 19.5 47.001c0 22 -9.66699 40.167 -29 54.5s-45 21.5 -77 21.5c-71.333 0 -110.666 -34.667 -117.999 -104l-128 16c5.33301 64 30.166 116 74.499 156s99.5 60 165.5 60c77.333 0 136.666 -20 177.999 -60s62 -84 62 -132c0 -62 -26 -109 -78 -141z" />
    <glyph glyph-name="four" unicode="4" horiz-adv-x="640" 
d="M512 256h80v-128h-80v-128h-128v128h-336v112l304 432h160v-416zM384 256v264l-179 -264h179z" />
    <glyph glyph-name="five" unicode="5" horiz-adv-x="608" 
d="M335 448c60.667 0 113.335 -19.501 158.002 -58.501s67 -90.5 67 -154.5c0 -78 -23.833 -139.333 -71.5 -184s-109.167 -67 -184.5 -67c-78.667 0 -140 19.833 -184 59.5s-68 91.834 -72 156.501l128 10c3.33301 -28.667 15.666 -52.167 36.999 -70.5
s51.666 -27.5 90.999 -27.5c36.667 0 67.167 10.333 91.5 31s36.5 47.667 36.5 81c0 28.667 -10.5 53.167 -31.5 73.5s-50.5 30.5 -88.5 30.5c-58.667 0 -104 -18.667 -136 -56h-112l64 400h368v-128h-264l-18 -128c28.667 21.333 69 32 121 32z" />
    <glyph glyph-name="six" unicode="6" 
d="M336 468c71.333 0 129.169 -22.3301 173.502 -66.9971s66.5 -98.334 66.5 -161.001c0 -75.333 -24.833 -136.833 -74.5 -184.5s-112.834 -71.5 -189.501 -71.5c-78 0 -141.5 24 -190.5 72s-73.5 111.667 -73.5 191c0 10 0.5 20.333 1.5 31s3.33301 28.667 7 54
s11 50.833 22 76.5s24.667 53.667 41 84s39.333 61.166 69 92.499s63.5 60.333 101.5 87h206l-19 -8c-8 -3.33301 -23.5 -11.5 -46.5 -24.5s-44.833 -27.333 -65.5 -43s-43.167 -36.834 -67.5 -63.501s-44.833 -55 -61.5 -85c23.333 13.333 56.666 20 99.999 20z
M312.003 112.003c39.333 0 71.833 11.167 97.5 33.5s38.5 49.833 38.5 82.5s-12.5 60.167 -37.5 82.5s-57.833 33.5 -98.5 33.5c-39.333 0 -71.833 -11.167 -97.5 -33.5s-38.5 -49.833 -38.5 -82.5s12.833 -60.167 38.5 -82.5s58.167 -33.5 97.5 -33.5z" />
    <glyph glyph-name="seven" unicode="7" horiz-adv-x="560" 
d="M48 672h512l-288 -672h-144l240 544h-320v128z" />
    <glyph glyph-name="eight" unicode="8" 
d="M488 377c58.667 -42.667 88 -98.999 88 -168.999c0 -65.333 -25.5 -119 -76.5 -161s-113.5 -63 -187.5 -63s-136.5 21 -187.5 63s-76.5 95.667 -76.5 161c0 68.667 29 125 87 169c-36.667 31.333 -55 71 -55 119c0 54.667 22.5 100.334 67.5 137.001s99.833 55 164.5 55
c64 0 118.5 -18.333 163.5 -55s67.5 -82.334 67.5 -137.001c0 -46.667 -18.333 -86.334 -55 -119.001zM312 560.001c-28.667 0 -53.167 -7 -73.5 -21s-30.5 -31 -30.5 -51s10.167 -37 30.5 -51s44.833 -21 73.5 -21s53.167 7 73.5 21s30.5 31 30.5 51s-10.167 37 -30.5 51
s-44.833 21 -73.5 21zM312 112.001c37.333 0 69.333 10.167 96 30.5s40 44.833 40 73.5s-13.333 53.167 -40 73.5s-58.667 30.5 -96 30.5s-69.333 -10.167 -96 -30.5s-40 -44.833 -40 -73.5s13.333 -53.167 40 -73.5s58.667 -30.5 96 -30.5z" />
    <glyph glyph-name="nine" unicode="9" 
d="M288 204c-71.333 0 -129.169 22.3311 -173.502 66.998s-66.5 98.334 -66.5 161.001c0 75.333 24.833 136.833 74.5 184.5s112.834 71.5 189.501 71.5c78 0 141.5 -24 190.5 -72s73.5 -111.667 73.5 -191c0 -10 -0.5 -20.333 -1.5 -31s-3.33301 -28.667 -7 -54
s-11 -50.833 -22 -76.5s-24.667 -53.667 -41 -84s-39.333 -61.166 -69 -92.499s-63.5 -60.333 -101.5 -87h-206c4.66699 2 11 5 19 9s23.5 12.833 46.5 26.5s44.833 28.5 65.5 44.5s43.167 37 67.5 63s44.833 53 61.5 81c-23.333 -13.333 -56.666 -20 -99.999 -20z
M311.997 559.998c-39.333 0 -71.833 -11.167 -97.5 -33.5s-38.5 -49.833 -38.5 -82.5s12.5 -60.167 37.5 -82.5s57.833 -33.5 98.5 -33.5c39.333 0 71.833 11.167 97.5 33.5s38.5 49.833 38.5 82.5s-12.833 60.167 -38.5 82.5s-58.167 33.5 -97.5 33.5z" />
    <glyph glyph-name="colon" unicode=":" horiz-adv-x="256" 
d="M128 352c-22.667 0 -41.667 7.66699 -57 23s-23 34.333 -23 57s7.66699 41.667 23 57s34.333 23 57 23s41.667 -7.66699 57 -23s23 -34.333 23 -57s-7.66699 -41.667 -23 -57s-34.333 -23 -57 -23zM128 -16c-22.667 0 -41.667 7.66699 -57 23s-23 34.333 -23 57
s7.66699 41.667 23 57s34.333 23 57 23s41.667 -7.66699 57 -23s23 -34.333 23 -57s-7.66699 -41.667 -23 -57s-34.333 -23 -57 -23z" />
    <glyph glyph-name="semicolon" unicode=";" horiz-adv-x="288" 
d="M160 352c-22.667 0 -41.667 7.66699 -57 23s-23 34.333 -23 57s7.66699 41.667 23 57s34.333 23 57 23s41.667 -7.66699 57 -23s23 -34.333 23 -57s-7.66699 -41.667 -23 -57s-34.333 -23 -57 -23zM32 -112l56 240h144l-120 -240h-80z" />
    <glyph glyph-name="less" unicode="&#x3c;" horiz-adv-x="528" 
d="M480 64l-432 208v64l432 208v-96l-312 -144l312 -144v-96z" />
    <glyph glyph-name="equal" unicode="=" horiz-adv-x="512" 
d="M48 416h416v-80h-416v80zM48 272h416v-80h-416v80z" />
    <glyph glyph-name="greater" unicode="&#x3e;" horiz-adv-x="528" 
d="M48 64v96l312 144l-312 144v96l432 -208v-64z" />
    <glyph glyph-name="question" unicode="?" horiz-adv-x="528" 
d="M256 688c73.333 0 128.999 -19.501 166.999 -58.501s57 -83.5 57 -133.5c0 -37.333 -7.16699 -70.166 -21.5 -98.499s-39.166 -56.166 -74.499 -83.499c-47.333 -36.667 -71.333 -77.334 -72 -122.001h-112c-4 68 12 120.333 48 157c8 8 19.667 18.5 35 31.5
s27.166 23.5 35.499 31.5s16 18.333 23 31s10.5 25.667 10.5 39c0 28 -9.16699 48 -27.5 60s-40.833 18 -67.5 18c-59.333 0 -107.666 -24 -144.999 -72l-64 104c60.667 64 130 96 208 96zM255.999 143.999c22.667 0 41.667 -7.66699 57 -23s23 -34.333 23 -57
s-7.66699 -41.667 -23 -57s-34.333 -23 -57 -23s-41.667 7.66699 -57 23s-23 34.333 -23 57s7.66699 41.667 23 57s34.333 23 57 23z" />
    <glyph glyph-name="at" unicode="@" horiz-adv-x="1074" 
d="M1026 330c0 -74 -20.832 -136.835 -62.499 -188.502s-97.834 -77.5 -168.501 -77.5c-68.667 0 -118.334 29.667 -149.001 89c-14.667 -21.333 -36 -38.833 -64 -52.5s-57 -20.5 -87 -20.5c-62 0 -109.833 21.333 -143.5 64s-48.167 94 -43.5 154
c4.66699 61.333 26.334 112.333 65.001 153s87.667 61 147 61c26.667 0 51.5 -6.33301 74.5 -19s39.5 -27 49.5 -43l4 46h108l-23 -236c-2.66699 -26.667 1.16602 -49.667 11.499 -69s29.833 -29 58.5 -29c27.333 0 53.333 13 78 39s37 68.333 37 127
c0 96.667 -37 178.834 -111 246.501s-161.667 101.5 -263 101.5c-107.333 0 -198.833 -37.667 -274.5 -113s-113.5 -167 -113.5 -275c0 -106.667 37.833 -197.667 113.5 -273s167.167 -113.666 274.5 -114.999c52 -0.666992 102.667 9 152 29l29 -103
c-55.333 -22.667 -115.666 -34 -180.999 -34c-90 0 -173 22.167 -249 66.5s-136.167 104.5 -180.5 180.5s-66.5 159 -66.5 249s22.167 173 66.5 249s104.5 136.167 180.5 180.5s159 66.5 249 66.5c84 0 163 -20.333 237 -61s133.333 -96.167 178 -166.5
s67 -145.833 67 -226.5zM631.001 296.998c1.33301 20 -0.5 39.168 -5.5 57.501s-15.833 34.833 -32.5 49.5s-38.334 22 -65.001 22c-32 0 -59 -12.167 -81 -36.5s-34.667 -54.5 -38 -90.5c-3.33301 -34 3.33398 -64.333 20.001 -91s43.667 -40 81 -40
c35.333 0 63.5 12.167 84.5 36.5s33.167 55.166 36.5 92.499z" />
    <glyph glyph-name="A" unicode="A" horiz-adv-x="672" 
d="M528 0l-50 128h-284l-50 -128h-144l278 672h116l278 -672h-144zM243 256h186l-93 240z" />
    <glyph glyph-name="B" unicode="B" 
d="M479 361c38.667 -10 67.167 -29.3311 85.5 -57.998s27.5 -62.334 27.5 -101.001c0 -59.333 -20.667 -107.833 -62 -145.5s-97.333 -56.5 -168 -56.5h-298v672h240c80.667 0 143.5 -14.333 188.5 -43s67.5 -73 67.5 -133c0 -32 -7.5 -59.833 -22.5 -83.5
s-34.5 -40.834 -58.5 -51.501zM192 544.002l-0.000976562 -128h120c80 0 120 21.333 120 64c0 24.667 -9.66699 41.5 -29 50.5s-49.666 13.5 -90.999 13.5h-120zM327.999 128.002c90.667 0 136 29.333 136 88c0 29.333 -12 51.333 -36 66s-57.333 22 -100 22h-136v-176h136z
" />
    <glyph glyph-name="C" unicode="C" horiz-adv-x="640" 
d="M392 112c66.667 0 122.334 22.999 167.001 68.999l49 -116c-28 -25.333 -61.667 -45.166 -101 -59.499s-78.333 -21.5 -117 -21.5c-98.667 0 -183 34.5 -253 103.5s-105 151.833 -105 248.5s35 179.5 105 248.5s154.333 103.5 253 103.5c38.667 0 77.667 -7 117 -21
s73 -33.667 101 -59l-49 -116c-46.667 45.333 -102.334 68 -167.001 68c-64 0 -118.667 -21.833 -164 -65.5s-68 -96.5 -68 -158.5s22.667 -114.833 68 -158.5s100 -65.5 164 -65.5z" />
    <glyph glyph-name="D" unicode="D" horiz-adv-x="672" 
d="M287 672c111.333 0 198 -31.667 260 -95s93 -143.666 93 -240.999c0 -96.667 -31.5 -176.834 -94.5 -240.501s-149.167 -95.5 -258.5 -95.5h-223v672h223zM310 128c59.333 0 107.833 20 145.5 60s56.5 89.333 56.5 148s-18.833 108 -56.5 148s-86.167 60 -145.5 60h-118
v-416h118z" />
    <glyph glyph-name="E" unicode="E" horiz-adv-x="528" 
d="M480 544h-288v-144h240v-128h-240v-144h288v-128h-416v672h416v-128z" />
    <glyph glyph-name="F" unicode="F" horiz-adv-x="512" 
d="M192 0h-128v672h416v-128h-288v-144h240v-128h-240v-272z" />
    <glyph glyph-name="G" unicode="G" horiz-adv-x="752" 
d="M715 392c3.33301 -21.333 5.00098 -39.999 5.00098 -55.999c0 -98 -32 -181.167 -96 -249.5s-144 -102.5 -240 -102.5c-97.333 0 -180.333 34.333 -249 103s-103 151.667 -103 249s34.333 180.333 103 249s151.667 103 249 103c67.333 0 127.333 -17.333 180 -52
s94 -81.334 124 -140.001l-129 -36c-18 30.667 -42.167 55 -72.5 73s-64.5 27 -102.5 27c-62 0 -114.833 -21.833 -158.5 -65.5s-65.5 -96.5 -65.5 -158.5s21.833 -114.833 65.5 -158.5s96.5 -65.5 158.5 -65.5c48 0 89.667 14 125 42s59.666 64.667 72.999 110h-246v128
h379z" />
    <glyph glyph-name="H" unicode="H" horiz-adv-x="672" 
d="M480 672h128v-672h-128v272h-288v-272h-128v672h128v-272h288v272z" />
    <glyph glyph-name="I" unicode="I" horiz-adv-x="256" 
d="M192 0h-128v672h128v-672z" />
    <glyph glyph-name="J" unicode="J" horiz-adv-x="464" 
d="M288 672h128.001v-416c0 -92.667 -20.667 -161.167 -62 -205.5s-98 -66.5 -170 -66.5c-26.667 0 -55 6 -85 18s-52.333 26.667 -67 44l70 106c21.333 -26.667 48.666 -40 81.999 -40c32.667 0 58.167 11.5 76.5 34.5s27.5 51.5 27.5 85.5v440z" />
    <glyph glyph-name="K" unicode="K" 
d="M304 351l304 -351h-162l-254 294v-294h-128v672h128v-278l238 278h162z" />
    <glyph glyph-name="L" unicode="L" horiz-adv-x="496" 
d="M192 128h272v-128h-400v672h128v-544z" />
    <glyph glyph-name="M" unicode="M" horiz-adv-x="864" 
d="M736 672l96 -672h-136l-56 440l-176 -440h-64l-176 440l-56 -440h-136l96 672h128l176 -432l176 432h128z" />
    <glyph glyph-name="N" unicode="N" horiz-adv-x="720" 
d="M528 672h128v-672h-128l-336 464v-464h-128v672h128l336 -464v464z" />
    <glyph glyph-name="O" unicode="O" horiz-adv-x="768" 
d="M384 688c97.333 0 180.333 -34.333 249 -103s103 -151.667 103 -249s-34.333 -180.333 -103 -249s-151.667 -103 -249 -103s-180.333 34.333 -249 103s-103 151.667 -103 249s34.333 180.333 103 249s151.667 103 249 103zM384 112c62 0 114.833 21.833 158.5 65.5
s65.5 96.5 65.5 158.5s-21.833 114.833 -65.5 158.5s-96.5 65.5 -158.5 65.5s-114.833 -21.833 -158.5 -65.5s-65.5 -96.5 -65.5 -158.5s21.833 -114.833 65.5 -158.5s96.5 -65.5 158.5 -65.5z" />
    <glyph glyph-name="P" unicode="P" horiz-adv-x="592" 
d="M304 672c84.667 0 148.5 -20.333 191.5 -61s64.5 -95 64.5 -163c0 -60.667 -20.333 -113.167 -61 -157.5s-95 -66.5 -163 -66.5h-144v-224h-128v672h240zM320 352c31.333 0 57.833 8.99902 79.5 26.999s32.5 41 32.5 69c0 30.667 -10.5 54.334 -31.5 71.001
s-47.833 25 -80.5 25h-128v-192h128z" />
    <glyph glyph-name="Q" unicode="Q" horiz-adv-x="768" 
d="M752 0h-168l-25 31c-54 -31.333 -112.333 -47 -175 -47c-97.333 0 -180.333 34.333 -249 103s-103 151.667 -103 249s34.333 180.333 103 249s151.667 103 249 103s180.333 -34.333 249 -103s103 -151.667 103 -249c0 -86.667 -28.333 -163 -85 -229zM384 112
c32 0 62.667 6.33301 92 19l-116 141h136l67 -71c30 39.333 45 84.333 45 135c0 62 -21.833 114.833 -65.5 158.5s-96.5 65.5 -158.5 65.5s-114.833 -21.833 -158.5 -65.5s-65.5 -96.5 -65.5 -158.5s21.833 -114.833 65.5 -158.5s96.5 -65.5 158.5 -65.5z" />
    <glyph glyph-name="R" unicode="R" horiz-adv-x="608" 
d="M576 0l-156 0.00195312l-151 224h-77v-224h-128v672h240c84.667 0 148.5 -20.333 191.5 -61s64.5 -95 64.5 -163c0 -48.667 -13.667 -92.834 -41 -132.501s-65 -66.834 -113 -81.501zM192 544.002v-192.001h128c31.333 0 57.833 9 79.5 27s32.5 41 32.5 69
c0 30.667 -10.5 54.334 -31.5 71.001s-47.833 25 -80.5 25h-128z" />
    <glyph glyph-name="S" unicode="S" horiz-adv-x="608" 
d="M320 408c40.667 -6.66699 75 -14.334 103 -23.001s54.333 -20.5 79 -35.5s43.167 -35 55.5 -60s18.5 -54.833 18.5 -89.5c0 -62.667 -23.5 -114.334 -70.5 -155.001s-113.5 -61 -199.5 -61c-108 0 -199.333 37.333 -274 112l64 112
c27.333 -31.333 60.666 -55.166 99.999 -71.499s76.666 -24.5 111.999 -24.5c44 0 78.333 7.33301 103 22s37 34 37 58c0 42.667 -45.333 70.667 -136 84c-92 14 -157.667 37.833 -197 71.5s-59 77.167 -59 130.5c0 58.667 23 108.334 69 149.001s109 61 189 61
c86.667 0 163.334 -27.333 230.001 -82l-54 -110c-49.333 42.667 -108.666 64 -177.999 64c-37.333 0 -68 -5.83301 -92 -17.5s-36 -30.167 -36 -55.5c0 -22 10 -38.667 30 -50s55.333 -21 106 -29z" />
    <glyph glyph-name="T" unicode="T" horiz-adv-x="544" 
d="M32 672h480v-128h-176v-544h-128v544h-176v128z" />
    <glyph glyph-name="U" unicode="U" horiz-adv-x="640" 
d="M464 672h127.998v-384c0 -90.667 -24.167 -164 -72.5 -220s-114.833 -84 -199.5 -84c-86 0 -152.833 28 -200.5 84s-71.5 129.333 -71.5 220v384h128v-400c0 -47.333 13.833 -85.833 41.5 -115.5s61.834 -44.5 102.501 -44.5s74.834 14.833 102.501 44.5
s41.5 68.167 41.5 115.5v400z" />
    <glyph glyph-name="V" unicode="V" horiz-adv-x="640" 
d="M272 0l-272 672h144l176 -448l176 448h144l-272 -672h-96z" />
    <glyph glyph-name="W" unicode="W" horiz-adv-x="992" 
d="M552 672l128 -448l160 448h144l-240 -672h-128l-120 416l-120 -416h-128l-240 672h144l160 -448l128 448h112z" />
    <glyph glyph-name="X" unicode="X" horiz-adv-x="688" 
d="M434 352l238 -352h-160l-168 256l-168 -256h-160l238 352l-223 320h161l152 -236l152 236h161z" />
    <glyph glyph-name="Y" unicode="Y" horiz-adv-x="608" 
d="M456 672h152l-240 -400v-272h-128v272l-240 400h152l152 -272z" />
    <glyph glyph-name="Z" unicode="Z" horiz-adv-x="608" 
d="M560 0h-528l320 544h-304v128h528l-320 -544h304v-128z" />
    <glyph glyph-name="bracketleft" unicode="[" horiz-adv-x="336" 
d="M192 704v-784h80v-128h-208v1040h208v-128h-80z" />
    <glyph glyph-name="backslash" unicode="\" horiz-adv-x="512" 
d="M368 -80l-320 832h96l320 -832h-96z" />
    <glyph glyph-name="bracketright" unicode="]" horiz-adv-x="336" 
d="M144 704h-80v128h208v-1040h-208v128h80v784z" />
    <glyph glyph-name="asciicircum" unicode="^" horiz-adv-x="528" 
d="M48 448l170 256h92l170 -256h-96l-120 184l-120 -184h-96z" />
    <glyph glyph-name="underscore" unicode="_" horiz-adv-x="560" 
d="M528 -128h-496v96h496v-96z" />
    <glyph glyph-name="grave" unicode="`" horiz-adv-x="800" 
d="M488 736h-80l-144 144h144z" />
    <glyph glyph-name="a" unicode="a" 
d="M432 496l128 -0.00195312v-496h-128v53c-40 -46 -90.667 -69 -152 -69c-68.667 0 -127.167 25.833 -175.5 77.5s-72.5 113.834 -72.5 186.501s24.167 134.834 72.5 186.501s106.833 77.5 175.5 77.5c61.333 0 112 -23 152 -69v53zM296 111.998
c37.333 0 69.333 13.333 96 40s40 58.667 40 96s-13.333 69.333 -40 96s-58.667 40 -96 40s-69.333 -13.333 -96 -40s-40 -58.667 -40 -96s13.333 -69.333 40 -96s58.667 -40 96 -40z" />
    <glyph glyph-name="b" unicode="b" 
d="M344 512c68.667 0 127.167 -25.8311 175.5 -77.498s72.5 -113.834 72.5 -186.501s-24.167 -134.834 -72.5 -186.501s-106.833 -77.5 -175.5 -77.5c-61.333 0 -112 23 -152 69v-53h-128v704h128v-261c40 46 90.667 69 152 69zM328 112.002c37.333 0 69.333 13.333 96 40
s40 58.667 40 96s-13.333 69.333 -40 96s-58.667 40 -96 40s-69.333 -13.333 -96 -40s-40 -58.667 -40 -96s13.333 -69.333 40 -96s58.667 -40 96 -40z" />
    <glyph glyph-name="c" unicode="c" horiz-adv-x="512" 
d="M312 112c46.667 0 85.001 15.002 115.001 45.002l53 -114c-40.667 -39.333 -98 -59 -172 -59c-84.667 0 -151.834 25.167 -201.501 75.5s-74.5 113.166 -74.5 188.499s25 138.166 75 188.499s117 75.5 201 75.5c70.667 0 128 -19.667 172 -59l-53 -115
c-30.667 30.667 -69 46 -115 46s-82.833 -13 -110.5 -39s-41.5 -58.333 -41.5 -97s13.833 -71 41.5 -97s64.5 -39 110.5 -39z" />
    <glyph glyph-name="d" unicode="d" 
d="M280 512c61.333 0 112 -23.002 152 -69.002v261h128v-704h-128v53c-40 -46 -90.667 -69 -152 -69c-68.667 0 -127.167 25.833 -175.5 77.5s-72.5 113.834 -72.5 186.501s24.167 134.834 72.5 186.501s106.833 77.5 175.5 77.5zM296 111.998c37.333 0 69.333 13.333 96 40
s40 58.667 40 96s-13.333 69.333 -40 96s-58.667 40 -96 40s-69.333 -13.333 -96 -40s-40 -58.667 -40 -96s13.333 -69.333 40 -96s58.667 -40 96 -40z" />
    <glyph glyph-name="e" unicode="e" horiz-adv-x="560" 
d="M528 248c0 -9.33301 -0.666016 -22.667 -1.99902 -40h-361c9.33301 -34 26.5 -61.167 51.5 -81.5s56.833 -30.5 95.5 -30.5c55.333 0 104.666 15.333 147.999 46l37 -111c-5.33301 -3.33301 -12.833 -7.66602 -22.5 -12.999s-30.667 -12.333 -63 -21
s-66.166 -13 -101.499 -13c-92 0 -161.333 24.667 -208 74s-70 112.666 -70 189.999s22 140.666 66 189.999s107.333 74 190 74c77.333 0 136.666 -23.167 177.999 -69.5s62 -111.166 62 -194.499zM168.001 303.999h224c0 24 -9.83301 46 -29.5 66s-47.167 30 -82.5 30
c-30 0 -56.167 -10.5 -78.5 -31.5s-33.5 -42.5 -33.5 -64.5z" />
    <glyph glyph-name="f" unicode="f" horiz-adv-x="384" 
d="M32 496l64 -0.00195312c1.33301 149.333 54.666 224 159.999 224c28 0 54.667 -5.33301 80 -16v-112c-16 3.33301 -29.833 5.16602 -41.5 5.49902s-21.5 -0.166992 -29.5 -1.5s-14.667 -4.66602 -20 -9.99902s-9.33301 -10.166 -12 -14.499s-4.66699 -11.5 -6 -21.5
s-2.16602 -18.167 -2.49902 -24.5s-0.5 -16.166 -0.5 -29.499h112v-112h-112v-384h-128v384h-64v112z" />
    <glyph glyph-name="g" unicode="g" 
d="M432 496l128.001 -0.00195312v-448c0 -104 -23.5 -183.333 -70.5 -238s-114.167 -82 -201.5 -82c-31.333 0 -62 3.5 -92 10.5s-55.667 16 -77 27s-37 19.667 -47 26s-18 11.833 -24 16.5l60 113c18.667 -16 44 -30.833 76 -44.5s66.667 -20.5 104 -20.5
c43.333 0 78.166 14.5 104.499 43.5s39.5 65.833 39.5 110.5v43c-40 -46 -90.667 -69 -152 -69c-68.667 0 -127.167 25.833 -175.5 77.5s-72.5 113.834 -72.5 186.501s24.167 134.834 72.5 186.501s106.833 77.5 175.5 77.5c61.333 0 112 -23 152 -69v53zM296.001 111.998
c37.333 0 69.333 13.333 96 40s40 58.667 40 96s-13.333 69.333 -40 96s-58.667 40 -96 40s-69.333 -13.333 -96 -40s-40 -58.667 -40 -96s13.333 -69.333 40 -96s58.667 -40 96 -40z" />
    <glyph glyph-name="h" unicode="h" horiz-adv-x="576" 
d="M342 512c58 0 103.499 -19 136.499 -57s49.5 -93.667 49.5 -167v-288h-128v272c0 38.667 -7.66699 67 -23 85s-39.666 27 -72.999 27c-32 0 -58.667 -10.667 -80 -32s-32 -53.333 -32 -96v-256h-128v704h128v-256c36 42.667 86 64 150 64z" />
    <glyph glyph-name="i" unicode="i" horiz-adv-x="256" 
d="M128 560c-24.667 0 -45.5 8.5 -62.5 25.5s-25.5 37.833 -25.5 62.5s8.5 45.5 25.5 62.5s37.833 25.5 62.5 25.5s45.5 -8.5 62.5 -25.5s25.5 -37.833 25.5 -62.5s-8.5 -45.5 -25.5 -62.5s-37.833 -25.5 -62.5 -25.5zM64 0v496h128v-496h-128z" />
    <glyph glyph-name="j" unicode="j" horiz-adv-x="256" 
d="M128 560c-24.667 0 -45.5 8.5 -62.5 25.5s-25.5 37.833 -25.5 62.5s8.5 45.5 25.5 62.5s37.833 25.5 62.5 25.5s45.5 -8.5 62.5 -25.5s25.5 -37.833 25.5 -62.5s-8.5 -45.5 -25.5 -62.5s-37.833 -25.5 -62.5 -25.5zM64 -16v512.002h128v-496
c0 -53.333 -6.5 -98.833 -19.5 -136.5s-30.333 -65.834 -52 -84.501s-43.5 -31.834 -65.5 -39.501s-45.667 -11.5 -71 -11.5l-32 112c34 0 61.167 12.5 81.5 37.5s30.5 60.5 30.5 106.5z" />
    <glyph glyph-name="k" unicode="k" horiz-adv-x="560" 
d="M304 256l256 -256h-160l-208 196v-196h-128v704h128v-396l192 188h160z" />
    <glyph glyph-name="l" unicode="l" horiz-adv-x="256" 
d="M64 704h128v-704h-128v704z" />
    <glyph glyph-name="m" unicode="m" horiz-adv-x="848" 
d="M608 512c58.667 0 105.333 -19.167 140 -57.5s52 -93.833 52 -166.5v-288h-128v272c0 39.333 -5.83301 67.833 -17.5 85.5s-32.5 26.5 -62.5 26.5c-64 0 -96 -42.667 -96 -128v-256h-128v272c0 38.667 -6.33301 67 -19 85s-33 27 -61 27c-64 0 -96 -42.667 -96 -128v-256
h-128v496h128v-48c34 42.667 76.667 64 128 64c62.667 0 109 -22.333 139 -67c40 44.667 89.667 67 149 67z" />
    <glyph glyph-name="n" unicode="n" horiz-adv-x="576" 
d="M342 512c58 0 103.499 -19 136.499 -57s49.5 -93.667 49.5 -167v-288h-128v272c0 38.667 -7.66699 67 -23 85s-39.666 27 -72.999 27c-32 0 -58.667 -10.667 -80 -32s-32 -53.333 -32 -96v-256h-128v496h128v-48c36 42.667 86 64 150 64z" />
    <glyph glyph-name="o" unicode="o" horiz-adv-x="592" 
d="M296 512c73.333 0 135.666 -25.667 186.999 -77s77 -113.666 77 -186.999s-25.667 -135.666 -77 -186.999s-113.666 -77 -186.999 -77s-135.666 25.667 -186.999 77s-77 113.666 -77 186.999s25.667 135.666 77 186.999s113.666 77 186.999 77zM296 112
c37.333 0 69.333 13.333 96 40s40 58.667 40 96s-13.333 69.333 -40 96s-58.667 40 -96 40s-69.333 -13.333 -96 -40s-40 -58.667 -40 -96s13.333 -69.333 40 -96s58.667 -40 96 -40z" />
    <glyph glyph-name="p" unicode="p" 
d="M344 512c68.667 0 127.167 -25.8311 175.5 -77.498s72.5 -113.834 72.5 -186.501s-24.167 -134.834 -72.5 -186.501s-106.833 -77.5 -175.5 -77.5c-61.333 0 -112 23 -152 69v-309h-128v752h128v-53c40 46 90.667 69 152 69zM328 112.002c37.333 0 69.333 13.333 96 40
s40 58.667 40 96s-13.333 69.333 -40 96s-58.667 40 -96 40s-69.333 -13.333 -96 -40s-40 -58.667 -40 -96s13.333 -69.333 40 -96s58.667 -40 96 -40z" />
    <glyph glyph-name="q" unicode="q" 
d="M280 512c61.333 0 112 -23.002 152 -69.002v53h128v-752h-128v309c-40 -46 -90.667 -69 -152 -69c-68.667 0 -127.167 25.833 -175.5 77.5s-72.5 113.834 -72.5 186.501s24.167 134.834 72.5 186.501s106.833 77.5 175.5 77.5zM296 111.998c37.333 0 69.333 13.333 96 40
s40 58.667 40 96s-13.333 69.333 -40 96s-58.667 40 -96 40s-69.333 -13.333 -96 -40s-40 -58.667 -40 -96s13.333 -69.333 40 -96s58.667 -40 96 -40z" />
    <glyph glyph-name="r" unicode="r" horiz-adv-x="432" 
d="M192 391c16 36.667 42.667 65.168 80 85.501s80 32.166 128 35.499v-151c-33.333 8.66699 -65.333 8.66699 -96 0s-57 -26.167 -79 -52.5s-33 -59.833 -33 -100.5v-208h-128v496h128v-105z" />
    <glyph glyph-name="s" unicode="s" horiz-adv-x="512" 
d="M281 316c76.667 -12 129.002 -31.6689 157.002 -59.002s42 -59.666 42 -96.999c0 -52 -19.5 -94.333 -58.5 -127s-92.167 -49 -159.5 -49c-52 0 -98.833 8 -140.5 24s-71.5 32 -89.5 48l42 120c21.333 -20 48.5 -36.5 81.5 -49.5s64.5 -19.833 94.5 -20.5
c68 -1.33301 102 13 102 43c0 10.667 -6.16699 18.667 -18.5 24s-35.5 11 -69.5 17c-44.667 7.33301 -81.834 16.5 -111.501 27.5s-51.834 24 -66.501 39s-24.667 30.5 -30 46.5s-8 35 -8 57c0 41.333 20.333 77 61 107s92.667 45 156 45c66.667 0 131 -16 193 -48l-36 -116
c-14 10 -36 19.333 -66 28s-60.333 13.334 -91 14.001c-59.333 1.33301 -89 -8.66699 -89 -30c0 -16.667 20 -28.667 60 -36c6 -1.33301 15.667 -3 29 -5z" />
    <glyph glyph-name="t" unicode="t" horiz-adv-x="368" 
d="M96 141l0.000976562 243h-64v112h64v176h128v-176h96v-112h-96v-208c0 -35.333 8.16699 -57.333 24.5 -66s40.166 -8 71.499 2v-112c-26.667 -10.667 -58 -16 -94 -16c-44 0 -76.667 14.167 -98 42.5s-32 66.5 -32 114.5z" />
    <glyph glyph-name="u" unicode="u" horiz-adv-x="576" 
d="M234 -16c-58 0 -103.501 19 -136.501 57s-49.5 93.667 -49.5 167v288h128v-272c0 -38.667 7.83301 -67 23.5 -85s39.834 -27 72.501 -27c32 0 58.667 10.667 80 32s32 53.333 32 96v256h128v-496h-128v48c-36 -42.667 -86 -64 -150 -64z" />
    <glyph glyph-name="v" unicode="v" horiz-adv-x="512" 
d="M208 0l-208 496h144l112 -304l112 304h144l-208 -496h-96z" />
    <glyph glyph-name="w" unicode="w" horiz-adv-x="768" 
d="M616 496h144l-168 -496h-116l-92 272l-92 -272h-116l-168 496h144l88 -320l96 320h96l96 -320z" />
    <glyph glyph-name="x" unicode="x" horiz-adv-x="560" 
d="M360 264l184 -264h-160l-104 160l-104 -160h-160l184 264l-168 232h160l88 -140l88 140h160z" />
    <glyph glyph-name="y" unicode="y" horiz-adv-x="528" 
d="M384 496h144l-320 -752h-144l128 292l-192 460h144l120 -292z" />
    <glyph glyph-name="z" unicode="z" horiz-adv-x="496" 
d="M448 0h-416l216 368h-200v128h416l-216 -368h200v-128z" />
    <glyph glyph-name="braceleft" unicode="{" horiz-adv-x="400" 
d="M272 -22c0 -26 6.66699 -48.667 20 -68s33.333 -32 60 -38l-64 -96c-96 32 -144 92.667 -144 182v234c0 26.667 -10.5 50.5 -31.5 71.5s-42.5 34.5 -64.5 40.5c22 6 43.5 19.5 64.5 40.5s31.5 44.833 31.5 71.5v234c0 89.333 48 150 144 182l64 -96
c-26.667 -6 -46.667 -18.667 -60 -38s-20 -42 -20 -68v-180c0 -76 -25 -124.667 -75 -146c50 -21.333 75 -70 75 -146v-180z" />
    <glyph glyph-name="bar" unicode="|" horiz-adv-x="208" 
d="M144 -256h-80v1024h80v-1024z" />
    <glyph glyph-name="braceright" unicode="}" horiz-adv-x="400" 
d="M128 -22v180c0 76 25 124.667 75 146c-50 21.333 -75 70 -75 146v180c0 26 -6.66699 48.667 -20 68s-33.333 32 -60 38l64 96c96 -32 144 -92.667 144 -182v-234c0 -26.667 10.5 -50.5 31.5 -71.5s42.5 -34.5 64.5 -40.5c-22 -6 -43.5 -19.5 -64.5 -40.5
s-31.5 -44.833 -31.5 -71.5v-234c0 -89.333 -48 -150 -144 -182l-64 96c26.667 6 46.667 18.667 60 38s20 42 20 68z" />
    <glyph glyph-name="asciitilde" unicode="~" horiz-adv-x="560" 
d="M441 349l71 -34c-18.667 -34 -39.167 -56.833 -61.5 -68.5s-48.5 -17.5 -78.5 -17.5c-19.333 0 -63 12.333 -131 37c-29.333 12 -53.833 15.333 -73.5 10s-35.834 -21 -48.501 -47l-71 34c18.667 34 39.167 56.833 61.5 68.5s48.5 17.5 78.5 17.5
c17.333 0 61 -12.667 131 -38c29.333 -12 53.833 -15.167 73.5 -9.5s35.834 21.5 48.501 47.5z" />
    <glyph glyph-name="exclamdown" unicode="&#xa1;" horiz-adv-x="288" 
d="M144 512c22.667 0 41.667 -7.66699 57 -23s23 -34.333 23 -57s-7.66699 -41.667 -23 -57s-34.333 -23 -57 -23s-41.667 7.66699 -57 23s-23 34.333 -23 57s7.66699 41.667 23 57s34.333 23 57 23zM104 304h80l32 -480h-144z" />
    <glyph glyph-name="cent" unicode="&#xa2;" horiz-adv-x="512" 
d="M427 157l53 -114.002c-36 -35.333 -86.667 -54.666 -152 -57.999v-65h-48v65c-76.667 6 -137.167 33.5 -181.5 82.5s-66.5 109.167 -66.5 180.5c0 70.667 22.333 130.667 67 180s105 77 181 83v65h48v-65c62 -3.33301 112.667 -22.666 152 -57.999l-53 -115
c-30.667 30.667 -69 46 -115 46s-82.833 -13 -110.5 -39s-41.5 -58.333 -41.5 -97s13.833 -71 41.5 -97s64.5 -39 110.5 -39c46.667 0 85 15 115 45z" />
    <glyph glyph-name="sterling" unicode="&#xa3;" horiz-adv-x="608" 
d="M488 176l87.998 -78c-20.667 -40 -47.5 -69 -80.5 -87s-65.833 -27 -98.5 -27c-6 0 -11.667 0.166992 -17 0.5s-10 0.666016 -14 0.999023s-8.5 1 -13.5 2s-8.66699 1.83301 -11 2.5s-6.16602 2 -11.499 4s-8.66602 3.16699 -9.99902 3.5s-5.33301 1.83301 -12 4.5
s-10.667 4.33398 -12 5.00098c-78 31.333 -129.333 29 -154 -7l-110 112c8 20 24.333 38.667 49 56c30 20.667 44.333 63.334 43 128.001h-92v80h72c-16 48 -24 88 -24 120c0 51.333 22 96.166 66 134.499s102.667 57.5 176 57.5c86 0 160 -26.667 222 -80l-69 -112
c-38 42.667 -83 64 -135 64c-86.667 0 -130 -29 -130 -87c0 -7.33301 1.33301 -16.5 4 -27.5s6.16699 -24.333 10.5 -40s7.16602 -25.5 8.49902 -29.5h167v-80h-149c2.66699 -28 0.333984 -56.167 -6.99902 -84.5s-19 -50.5 -35 -66.5c24.667 3.33301 51.334 1 80.001 -7
s52 -15.333 70 -22s38.667 -6 62 2s45.666 27.333 66.999 58z" />
    <glyph glyph-name="currency" unicode="&#xa4;" horiz-adv-x="526" 
d="M415 320c0 -30.667 -7.66504 -57.667 -22.998 -81l86 -85l-47 -49l-87 85c-24 -14.667 -50.667 -22 -80 -22c-30 0 -57.667 8 -83 24l-86 -87l-47 48l85 87c-14.667 24 -22 50.667 -22 80c0 30 7.66699 56.667 23 80l-86 88l49 47l85 -87c25.333 16 52.666 24 81.999 24
s56.666 -8 81.999 -24l83 87l49 -47l-86 -87c15.333 -23.333 23 -50.333 23 -81zM263.002 248c19.333 0 36.166 7.16699 50.499 21.5s21.5 31.166 21.5 50.499s-7.16699 36.166 -21.5 50.499s-31.166 21.5 -50.499 21.5s-36.166 -7.16699 -50.499 -21.5
s-21.5 -31.166 -21.5 -50.499s7.16699 -36.166 21.5 -50.499s31.166 -21.5 50.499 -21.5z" />
    <glyph glyph-name="yen" unicode="&#xa5;" horiz-adv-x="672" 
d="M640 672l-240 -400h112v-48h-112v-64h112v-48h-112v-112h-128v112h-112v48h112v64h-112v48h112l-240 400h152l152 -272l152 272h152z" />
    <glyph glyph-name="brokenbar" unicode="&#xa6;" horiz-adv-x="208" 
d="M144 416h-80v352h80v-352zM144 -256h-80v352h80v-352z" />
    <glyph glyph-name="section" unicode="&#xa7;" horiz-adv-x="640" 
d="M592 296c0 -50.667 -15 -94 -45 -130c30 -32 45 -74 45 -126c0 -62.667 -23.5 -114.334 -70.5 -155.001s-113.5 -61 -199.5 -61c-108 0 -199.333 37.333 -274 112l64 112c27.333 -31.333 60.666 -55.166 99.999 -71.499s76.666 -24.5 111.999 -24.5
c44 0 78.333 7.33301 103 22s37 34 37 58c0 42.667 -45.333 70.667 -136 84c-92 14 -157.667 37.833 -197 71.5s-59 77.167 -59 130.5c0 50.667 17 94.667 51 132c-34 32 -51 73.333 -51 124c0 58.667 23 108.334 69 149.001s109 61 189 61
c86.667 0 163.334 -27.333 230.001 -82l-54 -110c-49.333 42.667 -108.666 64 -177.999 64c-37.333 0 -68 -5.83301 -92 -17.5s-36 -30.167 -36 -55.5c0 -22 10 -38.667 30 -50s55.333 -21 106 -29c40.667 -6.66699 75 -14.334 103 -23.001s54.333 -20.5 79 -35.5
s43.167 -35 55.5 -60s18.5 -54.833 18.5 -89.5zM200 327c0 -22 10 -38.667 30 -50s55.333 -21 106 -29c35.333 -5.33301 65 -11.666 89 -18.999c26 14 39 33.667 39 59c0 42.667 -45.333 70.667 -136 84c-24.667 3.33301 -51 8.66602 -79 15.999
c-32.667 -12.667 -49 -33 -49 -61z" />
    <glyph glyph-name="dieresis" unicode="&#xa8;" horiz-adv-x="800" 
d="M304 736c-18 0 -33.167 6.16699 -45.5 18.5s-18.5 27.5 -18.5 45.5s6.16699 33.167 18.5 45.5s27.5 18.5 45.5 18.5s33.167 -6.16699 45.5 -18.5s18.5 -27.5 18.5 -45.5s-6.16699 -33.167 -18.5 -45.5s-27.5 -18.5 -45.5 -18.5zM496 736
c-18 0 -33.167 6.16699 -45.5 18.5s-18.5 27.5 -18.5 45.5s6.16699 33.167 18.5 45.5s27.5 18.5 45.5 18.5s33.167 -6.16699 45.5 -18.5s18.5 -27.5 18.5 -45.5s-6.16699 -33.167 -18.5 -45.5s-27.5 -18.5 -45.5 -18.5z" />
    <glyph glyph-name="copyright" unicode="&#xa9;" horiz-adv-x="704" 
d="M352 136c-85.333 0 -157.333 29.5 -216 88.5s-88 130.833 -88 215.5c0 86 29.167 158.167 87.5 216.5s130.5 87.5 216.5 87.5s158.167 -29.167 216.5 -87.5s87.5 -130.5 87.5 -216.5s-29.167 -158.167 -87.5 -216.5s-130.5 -87.5 -216.5 -87.5zM352 192
c69.333 0 128 24 176 72s72 106.667 72 176s-24 128 -72 176s-106.667 72 -176 72s-128 -24 -176 -72s-72 -106.667 -72 -176s24 -128 72 -176s106.667 -72 176 -72zM369 341c29.333 0 53.999 9.99609 73.999 29.9961l22 -51c-27.333 -24 -59.666 -36 -96.999 -36
c-43.333 0 -80.666 15.333 -111.999 46s-47 67.334 -47 110.001s15.667 79.334 47 110.001s68.666 46 111.999 46c38 0 70.333 -11.667 97 -35l-22 -52c-20 20 -44.667 30 -74 30c-28.667 0 -53 -9.66699 -73 -29s-30 -42.666 -30 -69.999s10 -50.666 30 -69.999
s44.333 -29 73 -29z" />
    <glyph glyph-name="ordfeminine" unicode="&#xaa;" horiz-adv-x="360" 
d="M248 672l64 -0.00195312v-248h-64v27c-20 -23.333 -45.333 -35 -76 -35c-34 0 -63.167 12.833 -87.5 38.5s-36.5 56.834 -36.5 93.501s12.167 67.834 36.5 93.501s53.5 38.5 87.5 38.5c30.667 0 56 -11.333 76 -34v26zM180 479.998c18.667 0 34.667 6.66699 48 20
s20 29.333 20 48s-6.66699 34.667 -20 48s-29.333 20 -48 20s-34.667 -6.66699 -48 -20s-20 -29.333 -20 -48s6.66699 -34.667 20 -48s29.333 -20 48 -20z" />
    <glyph glyph-name="guillemotleft" unicode="&#xab;" horiz-adv-x="640" 
d="M320 496l-160 -224l160 -224h-112l-160 224l160 224h112zM560 496l-160 -224l160 -224h-112l-160 224l160 224h112z" />
    <glyph glyph-name="logicalnot" unicode="&#xac;" 
d="M576 344v-232h-80v152h-448v80h528z" />
    <glyph glyph-name="registered" unicode="&#xae;" horiz-adv-x="704" 
d="M352 136c-85.333 0 -157.333 29.5 -216 88.5s-88 130.833 -88 215.5c0 86 29.167 158.167 87.5 216.5s130.5 87.5 216.5 87.5s158.167 -29.167 216.5 -87.5s87.5 -130.5 87.5 -216.5s-29.167 -158.167 -87.5 -216.5s-130.5 -87.5 -216.5 -87.5zM352 192
c69.333 0 128 24 176 72s72 106.667 72 176s-24 128 -72 176s-106.667 72 -176 72s-128 -24 -176 -72s-72 -106.667 -72 -176s24 -128 72 -176s106.667 -72 176 -72zM476 290l-68.999 0.000976562l-68 100h-34v-100h-57v300h107c37.333 0 65.666 -9.16699 84.999 -27.5
s29 -42.5 29 -72.5c0 -22 -6 -41.833 -18 -59.5s-29 -29.834 -51 -36.501zM305.001 533.001v-86h57c14 0 25.833 4 35.5 12s14.5 18.333 14.5 31c0 13.333 -4.66699 23.833 -14 31.5s-21.333 11.5 -36 11.5h-57z" />
    <glyph glyph-name="macron" unicode="&#xaf;" horiz-adv-x="800" 
d="M544 752h-288v64h288v-64z" />
    <glyph glyph-name="degree" unicode="&#xb0;" horiz-adv-x="400" 
d="M201 384c-42.667 0 -78.834 14.667 -108.501 44s-44.5 65.333 -44.5 108c0 42 14.833 77.833 44.5 107.5s65.834 44.5 108.501 44.5c42 0 77.667 -14.833 107 -44.5s44 -65.5 44 -107.5c0 -42.667 -14.667 -78.667 -44 -108s-65 -44 -107 -44zM200 464
c19.333 0 36.166 7.16699 50.499 21.5s21.5 31.166 21.5 50.499s-7.16699 36.166 -21.5 50.499s-31.166 21.5 -50.499 21.5s-36.166 -7.16699 -50.499 -21.5s-21.5 -31.166 -21.5 -50.499s7.16699 -36.166 21.5 -50.499s31.166 -21.5 50.499 -21.5z" />
    <glyph glyph-name="plusminus" unicode="&#xb1;" horiz-adv-x="496" 
d="M448 464v-80h-160v-160h-80v160h-160v80h160v160h80v-160h160zM48 120h400v-80h-400v80z" />
    <glyph glyph-name="uni00B2" unicode="&#xb2;" horiz-adv-x="360" 
d="M56 640c2 34.667 13.6689 63.333 35.002 86s49.666 34 84.999 34s64.166 -9.83301 86.499 -29.5s33.5 -47.167 33.5 -82.5c0 -25.333 -8 -50 -24 -74s-42.667 -55.333 -80 -94h120v-64h-264l136 144c32 34.667 48 62.667 48 84c0 16 -4.83301 28.667 -14.5 38
s-23.5 14 -41.5 14c-34 0 -52.667 -21.333 -56 -64z" />
    <glyph glyph-name="uni00B3" unicode="&#xb3;" horiz-adv-x="352" 
d="M257 594c12.667 -4.66699 23.666 -14.168 32.999 -28.501s14 -29.5 14 -45.5c0 -29.333 -10.333 -55.333 -31 -78s-53 -34 -97 -34c-38 0 -68.167 10 -90.5 30s-34.833 47.333 -37.5 82l64 8c6 -37.333 28.333 -56 67 -56c14.667 0 28.5 3.83301 41.5 11.5
s19.5 18.5 19.5 32.5c0 30.667 -29.333 46 -88 46v52c53.333 3.33301 80 18 80 44c0 11.333 -4.83301 20.5 -14.5 27.5s-22.5 10.5 -38.5 10.5c-35.333 0 -55 -17.333 -59 -52l-64 8c3.33301 32 16 58 38 78s49.333 30 82 30c38.667 0 68.334 -10 89.001 -30s31 -42 31 -66
c0 -31.333 -13 -54.666 -39 -69.999z" />
    <glyph glyph-name="acute" unicode="&#xb4;" horiz-adv-x="800" 
d="M312 736l80 144h144l-144 -144h-80z" />
    <glyph glyph-name="paragraph" unicode="&#xb6;" horiz-adv-x="704" 
d="M656 576l-96 0.000976562v-804h-96v804h-160v-804h-96v566c-46 0 -84.167 16.167 -114.5 48.5s-45.5 72.166 -45.5 119.499c0 46 15.167 85.167 45.5 117.5s68.5 48.5 114.5 48.5h448v-96z" />
    <glyph glyph-name="periodcentered" unicode="&#xb7;" horiz-adv-x="256" 
d="M128 256c-22.667 0 -41.667 7.66699 -57 23s-23 34.333 -23 57s7.66699 41.667 23 57s34.333 23 57 23s41.667 -7.66699 57 -23s23 -34.333 23 -57s-7.66699 -41.667 -23 -57s-34.333 -23 -57 -23z" />
    <glyph glyph-name="cedilla" unicode="&#xb8;" horiz-adv-x="800" 
d="M372 0h84.001l-47 -48c36.667 4 69 -4.5 97 -25.5s42 -49.833 42 -86.5c0 -41.333 -15.167 -75.666 -45.5 -102.999s-68.5 -41 -114.5 -41c-56 0 -98.667 21 -128 63l54 61c14 -34.667 38.333 -52 73 -52c29.333 0 52.166 7.16699 68.499 21.5s24.5 31.5 24.5 51.5
c0 19.333 -7.33301 34.666 -22 45.999s-32.667 17 -54 17c-25.333 0 -46 -5.33301 -62 -16l-34 48z" />
    <glyph glyph-name="uni00B9" unicode="&#xb9;" horiz-adv-x="336" 
d="M96 736l128 32v-344h-64v266l-64 -14v60z" />
    <glyph glyph-name="ordmasculine" unicode="&#xba;" horiz-adv-x="360" 
d="M180 680c36.667 0 67.834 -12.833 93.501 -38.5s38.5 -56.834 38.5 -93.501s-12.833 -67.834 -38.5 -93.501s-56.834 -38.5 -93.501 -38.5s-67.834 12.833 -93.501 38.5s-38.5 56.834 -38.5 93.501s12.833 67.834 38.5 93.501s56.834 38.5 93.501 38.5zM180 480
c18.667 0 34.667 6.66699 48 20s20 29.333 20 48s-6.66699 34.667 -20 48s-29.333 20 -48 20s-34.667 -6.66699 -48 -20s-20 -29.333 -20 -48s6.66699 -34.667 20 -48s29.333 -20 48 -20z" />
    <glyph glyph-name="guillemotright" unicode="&#xbb;" horiz-adv-x="640" 
d="M80 496h112l160 -224l-160 -224h-112l160 224zM320 496h112l160 -224l-160 -224h-112l160 224z" />
    <glyph glyph-name="onequarter" unicode="&#xbc;" horiz-adv-x="900" 
d="M96 648l128 32v-344h-64v266l-64 -14v60zM248 0h-80l468 672h80zM812 128h40v-64h-40v-64h-64v64h-168v56l152 216h80v-208zM748 128v132l-89 -132h89z" />
    <glyph glyph-name="onehalf" unicode="&#xbd;" horiz-adv-x="908" 
d="M96 648l128 32v-344h-64v266l-64 -14v60zM248 0h-80l468 672h80zM604 224c2 34.667 13.6689 63.333 35.002 86s49.666 34 84.999 34s64.166 -9.83301 86.499 -29.5s33.5 -47.167 33.5 -82.5c0 -25.333 -8 -50 -24 -74s-42.667 -55.333 -80 -94h120v-64h-264l136 144
c32 34.667 48 62.667 48 84c0 16 -4.83301 28.667 -14.5 38s-23.5 14 -41.5 14c-34 0 -52.667 -21.333 -56 -64z" />
    <glyph glyph-name="threequarters" unicode="&#xbe;" horiz-adv-x="916" 
d="M257 514c12.667 -4.66699 23.666 -14.168 32.999 -28.501s14 -29.5 14 -45.5c0 -29.333 -10.333 -55.333 -31 -78s-53 -34 -97 -34c-38 0 -68.167 10 -90.5 30s-34.833 47.333 -37.5 82l64 8c6 -37.333 28.333 -56 67 -56c14.667 0 28.5 3.83301 41.5 11.5
s19.5 18.5 19.5 32.5c0 30.667 -29.333 46 -88 46v52c53.333 3.33301 80 18 80 44c0 11.333 -4.83301 20.5 -14.5 27.5s-22.5 10.5 -38.5 10.5c-35.333 0 -55 -17.333 -59 -52l-64 8c3.33301 32 16 58 38 78s49.333 30 82 30c38.667 0 68.334 -10 89.001 -30s31 -42 31 -66
c0 -31.333 -13 -54.666 -39 -69.999zM263.999 -0.000976562h-80l468 672h80zM827.999 127.999h40v-64h-40v-64h-64v64h-168v56l152 216h80v-208zM763.999 127.999v132l-89 -132h89z" />
    <glyph glyph-name="questiondown" unicode="&#xbf;" horiz-adv-x="528" 
d="M272 352c-22.667 0 -41.667 7.66699 -57 23s-23 34.333 -23 57s7.66699 41.667 23 57s34.333 23 57 23s41.667 -7.66699 57 -23s23 -34.333 23 -57s-7.66699 -41.667 -23 -57s-34.333 -23 -57 -23zM272 -192c-73.333 0 -128.999 19.501 -166.999 58.501
s-57 83.5 -57 133.5c0 37.333 7.16699 70.166 21.5 98.499s39.166 56.166 74.499 83.499c47.333 36.667 71.333 77.334 72 122.001h112c4 -68 -12 -120.333 -48 -157c-8 -8 -19.667 -18.5 -35 -31.5s-27.166 -23.5 -35.499 -31.5s-16 -18.333 -23 -31
s-10.5 -25.667 -10.5 -39c0 -28 9.16699 -48 27.5 -60s40.833 -18 67.5 -18c59.333 0 107.666 24 144.999 72l64 -104c-60.667 -64 -130 -96 -208 -96z" />
    <glyph glyph-name="Agrave" unicode="&#xc0;" horiz-adv-x="672" 
d="M400 736h-80l-144 144h144zM528 0l-50 128h-284l-50 -128h-144l278 672h116l278 -672h-144zM243 256h186l-93 240z" />
    <glyph glyph-name="Aacute" unicode="&#xc1;" horiz-adv-x="672" 
d="M272 736l80 144h144l-144 -144h-80zM528 0l-50 128h-284l-50 -128h-144l278 672h116l278 -672h-144zM243 256h186l-93 240z" />
    <glyph glyph-name="Acircumflex" unicode="&#xc2;" horiz-adv-x="672" 
d="M392 736l-56 73l-56 -73h-112l139 144h57l140 -144h-112zM528 0l-50 128h-284l-50 -128h-144l278 672h116l278 -672h-144zM243 256h186l-93 240z" />
    <glyph glyph-name="Atilde" unicode="&#xc3;" horiz-adv-x="672" 
d="M460 841l68 -25c-26 -53.333 -65.333 -80 -118 -80c-20 0 -46 6.33301 -78 19c-28 12.667 -52 18.167 -72 16.5s-36 -13.5 -48 -35.5l-68 25c27.333 52.667 67.333 79 120 79c19.333 0 44 -6 74 -18c28 -13.333 52.333 -19 73 -17s37 14 49 36zM528 0l-50 128h-284
l-50 -128h-144l278 672h116l278 -672h-144zM243 256h186l-93 240z" />
    <glyph glyph-name="Adieresis" unicode="&#xc4;" horiz-adv-x="672" 
d="M240 736c-18 0 -33.167 6.16699 -45.5 18.5s-18.5 27.5 -18.5 45.5s6.16699 33.167 18.5 45.5s27.5 18.5 45.5 18.5s33.167 -6.16699 45.5 -18.5s18.5 -27.5 18.5 -45.5s-6.16699 -33.167 -18.5 -45.5s-27.5 -18.5 -45.5 -18.5zM432 736
c-18 0 -33.167 6.16699 -45.5 18.5s-18.5 27.5 -18.5 45.5s6.16699 33.167 18.5 45.5s27.5 18.5 45.5 18.5s33.167 -6.16699 45.5 -18.5s18.5 -27.5 18.5 -45.5s-6.16699 -33.167 -18.5 -45.5s-27.5 -18.5 -45.5 -18.5zM528 0l-50 128h-284l-50 -128h-144l278 672h116
l278 -672h-144zM243 256h186l-93 240z" />
    <glyph glyph-name="Aring" unicode="&#xc5;" horiz-adv-x="672" 
d="M336 944c33.333 0 61.666 -11.667 84.999 -35s35 -51.666 35 -84.999s-11.667 -61.666 -35 -84.999s-51.666 -35 -84.999 -35s-61.666 11.667 -84.999 35s-35 51.666 -35 84.999s11.667 61.666 35 84.999s51.666 35 84.999 35zM336 768c15.333 0 28.5 5.5 39.5 16.5
s16.5 24.167 16.5 39.5s-5.5 28.5 -16.5 39.5s-24.167 16.5 -39.5 16.5s-28.5 -5.5 -39.5 -16.5s-16.5 -24.167 -16.5 -39.5s5.5 -28.5 16.5 -39.5s24.167 -16.5 39.5 -16.5zM528 0l-50 128h-284l-50 -128h-144l278 672h116l278 -672h-144zM243 256h186l-93 240z" />
    <glyph glyph-name="AE" unicode="&#xc6;" horiz-adv-x="832" 
d="M784 544h-288v-144h240v-128h-240v-144h288v-128h-416v128h-166l-58 -128h-144l312 672h472v-128zM261 256h107v236z" />
    <glyph glyph-name="Ccedilla" unicode="&#xc7;" horiz-adv-x="640" 
d="M608 65c-47.333 -43.333 -106.333 -69.332 -177 -77.999l-34 -35c36.667 4 69 -4.5 97 -25.5s42 -49.833 42 -86.5c0 -41.333 -15.167 -75.666 -45.5 -102.999s-68.5 -41 -114.5 -41c-56 0 -98.667 21 -128 63l54 61c14 -34.667 38.333 -52 73 -52
c29.333 0 52.166 7.16699 68.499 21.5s24.5 31.5 24.5 51.5c0 19.333 -7.33301 34.666 -22 45.999s-32.667 17 -54 17c-25.333 0 -46 -5.33301 -62 -16l-34 48l51 51c-89.333 10.667 -164.166 49.167 -224.499 115.5s-90.5 144.166 -90.5 233.499
c0 96.667 35 179.5 105 248.5s154.333 103.5 253 103.5c38.667 0 77.667 -7 117 -21s73 -33.667 101 -59l-49 -116c-46.667 45.333 -102.334 68 -167.001 68c-64 0 -118.667 -21.833 -164 -65.5s-68 -96.5 -68 -158.5s22.667 -114.833 68 -158.5s100 -65.5 164 -65.5
c66.667 0 122.334 23 167.001 69z" />
    <glyph glyph-name="Egrave" unicode="&#xc8;" horiz-adv-x="528" 
d="M360 736h-80l-144 144h144zM480 544h-288v-144h240v-128h-240v-144h288v-128h-416v672h416v-128z" />
    <glyph glyph-name="Eacute" unicode="&#xc9;" horiz-adv-x="528" 
d="M184 736l80 144h144l-144 -144h-80zM480 544h-288v-144h240v-128h-240v-144h288v-128h-416v672h416v-128z" />
    <glyph glyph-name="Ecircumflex" unicode="&#xca;" horiz-adv-x="528" 
d="M320 736l-56 73l-56 -73h-112l139 144h57l140 -144h-112zM480 544h-288v-144h240v-128h-240v-144h288v-128h-416v672h416v-128z" />
    <glyph glyph-name="Edieresis" unicode="&#xcb;" horiz-adv-x="528" 
d="M168 736c-18 0 -33.167 6.16699 -45.5 18.5s-18.5 27.5 -18.5 45.5s6.16699 33.167 18.5 45.5s27.5 18.5 45.5 18.5s33.167 -6.16699 45.5 -18.5s18.5 -27.5 18.5 -45.5s-6.16699 -33.167 -18.5 -45.5s-27.5 -18.5 -45.5 -18.5zM360 736
c-18 0 -33.167 6.16699 -45.5 18.5s-18.5 27.5 -18.5 45.5s6.16699 33.167 18.5 45.5s27.5 18.5 45.5 18.5s33.167 -6.16699 45.5 -18.5s18.5 -27.5 18.5 -45.5s-6.16699 -33.167 -18.5 -45.5s-27.5 -18.5 -45.5 -18.5zM480 544h-288v-144h240v-128h-240v-144h288v-128h-416
v672h416v-128z" />
    <glyph glyph-name="Igrave" unicode="&#xcc;" horiz-adv-x="256" 
d="M192 736h-80l-144 144h144zM64 0v672h128v-672h-128z" />
    <glyph glyph-name="Iacute" unicode="&#xcd;" horiz-adv-x="256" 
d="M64 736l80 144h144l-144 -144h-80zM192 0h-128v672h128v-672z" />
    <glyph glyph-name="Icircumflex" unicode="&#xce;" horiz-adv-x="256" 
d="M184 736l-56 73l-56 -73h-112l139 144h57l140 -144h-112zM192 0h-128v672h128v-672z" />
    <glyph glyph-name="Idieresis" unicode="&#xcf;" horiz-adv-x="256" 
d="M32 736c-18 0 -33.167 6.16699 -45.5 18.5s-18.5 27.5 -18.5 45.5s6.16699 33.167 18.5 45.5s27.5 18.5 45.5 18.5s33.167 -6.16699 45.5 -18.5s18.5 -27.5 18.5 -45.5s-6.16699 -33.167 -18.5 -45.5s-27.5 -18.5 -45.5 -18.5zM224 736c-18 0 -33.167 6.16699 -45.5 18.5
s-18.5 27.5 -18.5 45.5s6.16699 33.167 18.5 45.5s27.5 18.5 45.5 18.5s33.167 -6.16699 45.5 -18.5s18.5 -27.5 18.5 -45.5s-6.16699 -33.167 -18.5 -45.5s-27.5 -18.5 -45.5 -18.5zM192 0h-128v672h128v-672z" />
    <glyph glyph-name="Eth" unicode="&#xd0;" horiz-adv-x="688" 
d="M303 672c111.333 0 198 -31.667 260 -95s93 -143.666 93 -240.999c0 -96.667 -31.5 -176.834 -94.5 -240.501s-149.167 -95.5 -258.5 -95.5h-223v296h-64v80h64v296h223zM326 128c59.333 0 107.833 20 145.5 60s56.5 89.333 56.5 148s-18.833 108 -56.5 148
s-86.167 60 -145.5 60h-118v-168h64v-80h-64v-168h118z" />
    <glyph glyph-name="Ntilde" unicode="&#xd1;" horiz-adv-x="720" 
d="M484 841l68 -25c-26 -53.333 -65.333 -80 -118 -80c-20 0 -46 6.33301 -78 19c-28 12.667 -52 18.167 -72 16.5s-36 -13.5 -48 -35.5l-68 25c27.333 52.667 67.333 79 120 79c19.333 0 44 -6 74 -18c28 -13.333 52.333 -19 73 -17s37 14 49 36zM528 672h128v-672h-128
l-336 464v-464h-128v672h128l336 -464v464z" />
    <glyph glyph-name="Ograve" unicode="&#xd2;" horiz-adv-x="768" 
d="M448 736h-80l-144 144h144zM384 688c97.333 0 180.333 -34.333 249 -103s103 -151.667 103 -249s-34.333 -180.333 -103 -249s-151.667 -103 -249 -103s-180.333 34.333 -249 103s-103 151.667 -103 249s34.333 180.333 103 249s151.667 103 249 103zM384 112
c62 0 114.833 21.833 158.5 65.5s65.5 96.5 65.5 158.5s-21.833 114.833 -65.5 158.5s-96.5 65.5 -158.5 65.5s-114.833 -21.833 -158.5 -65.5s-65.5 -96.5 -65.5 -158.5s21.833 -114.833 65.5 -158.5s96.5 -65.5 158.5 -65.5z" />
    <glyph glyph-name="Oacute" unicode="&#xd3;" horiz-adv-x="768" 
d="M320 736l80 144h144l-144 -144h-80zM384 688c97.333 0 180.333 -34.333 249 -103s103 -151.667 103 -249s-34.333 -180.333 -103 -249s-151.667 -103 -249 -103s-180.333 34.333 -249 103s-103 151.667 -103 249s34.333 180.333 103 249s151.667 103 249 103zM384 112
c62 0 114.833 21.833 158.5 65.5s65.5 96.5 65.5 158.5s-21.833 114.833 -65.5 158.5s-96.5 65.5 -158.5 65.5s-114.833 -21.833 -158.5 -65.5s-65.5 -96.5 -65.5 -158.5s21.833 -114.833 65.5 -158.5s96.5 -65.5 158.5 -65.5z" />
    <glyph glyph-name="Ocircumflex" unicode="&#xd4;" horiz-adv-x="768" 
d="M440 736l-56 73l-56 -73h-112l139 144h57l140 -144h-112zM384 688c97.333 0 180.333 -34.333 249 -103s103 -151.667 103 -249s-34.333 -180.333 -103 -249s-151.667 -103 -249 -103s-180.333 34.333 -249 103s-103 151.667 -103 249s34.333 180.333 103 249
s151.667 103 249 103zM384 112c62 0 114.833 21.833 158.5 65.5s65.5 96.5 65.5 158.5s-21.833 114.833 -65.5 158.5s-96.5 65.5 -158.5 65.5s-114.833 -21.833 -158.5 -65.5s-65.5 -96.5 -65.5 -158.5s21.833 -114.833 65.5 -158.5s96.5 -65.5 158.5 -65.5z" />
    <glyph glyph-name="Otilde" unicode="&#xd5;" horiz-adv-x="768" 
d="M508 841l68 -25c-26 -53.333 -65.333 -80 -118 -80c-20 0 -46 6.33301 -78 19c-28 12.667 -52 18.167 -72 16.5s-36 -13.5 -48 -35.5l-68 25c27.333 52.667 67.333 79 120 79c19.333 0 44 -6 74 -18c28 -13.333 52.333 -19 73 -17s37 14 49 36zM384 688
c97.333 0 180.333 -34.333 249 -103s103 -151.667 103 -249s-34.333 -180.333 -103 -249s-151.667 -103 -249 -103s-180.333 34.333 -249 103s-103 151.667 -103 249s34.333 180.333 103 249s151.667 103 249 103zM384 112c62 0 114.833 21.833 158.5 65.5
s65.5 96.5 65.5 158.5s-21.833 114.833 -65.5 158.5s-96.5 65.5 -158.5 65.5s-114.833 -21.833 -158.5 -65.5s-65.5 -96.5 -65.5 -158.5s21.833 -114.833 65.5 -158.5s96.5 -65.5 158.5 -65.5z" />
    <glyph glyph-name="Odieresis" unicode="&#xd6;" horiz-adv-x="768" 
d="M288 736c-18 0 -33.167 6.16699 -45.5 18.5s-18.5 27.5 -18.5 45.5s6.16699 33.167 18.5 45.5s27.5 18.5 45.5 18.5s33.167 -6.16699 45.5 -18.5s18.5 -27.5 18.5 -45.5s-6.16699 -33.167 -18.5 -45.5s-27.5 -18.5 -45.5 -18.5zM480 736
c-18 0 -33.167 6.16699 -45.5 18.5s-18.5 27.5 -18.5 45.5s6.16699 33.167 18.5 45.5s27.5 18.5 45.5 18.5s33.167 -6.16699 45.5 -18.5s18.5 -27.5 18.5 -45.5s-6.16699 -33.167 -18.5 -45.5s-27.5 -18.5 -45.5 -18.5zM384 688c97.333 0 180.333 -34.333 249 -103
s103 -151.667 103 -249s-34.333 -180.333 -103 -249s-151.667 -103 -249 -103s-180.333 34.333 -249 103s-103 151.667 -103 249s34.333 180.333 103 249s151.667 103 249 103zM384 112c62 0 114.833 21.833 158.5 65.5s65.5 96.5 65.5 158.5s-21.833 114.833 -65.5 158.5
s-96.5 65.5 -158.5 65.5s-114.833 -21.833 -158.5 -65.5s-65.5 -96.5 -65.5 -158.5s21.833 -114.833 65.5 -158.5s96.5 -65.5 158.5 -65.5z" />
    <glyph glyph-name="multiply" unicode="&#xd7;" horiz-adv-x="456" 
d="M351 484l57 -57l-123 -123l123 -123l-57 -57l-123 123l-123 -123l-57 57l123 123l-123 123l57 57l123 -123z" />
    <glyph glyph-name="Oslash" unicode="&#xd8;" horiz-adv-x="768" 
d="M631 587c70 -68.667 105 -152.334 105 -251.001c0 -97.333 -34.333 -180.333 -103 -249s-151.667 -103 -249 -103c-77.333 0 -147.333 23.333 -210 70l-46 -54h-64l73 85c-70 68.667 -105 152.334 -105 251.001c0 97.333 34.333 180.333 103 249s151.667 103 249 103
c77.333 0 147.333 -23.333 210 -70l46 54h64zM160 336c0 -59.333 20.332 -110.333 60.999 -153l290 338c-37.333 26 -79.666 39 -126.999 39c-62 0 -114.833 -21.833 -158.5 -65.5s-65.5 -96.5 -65.5 -158.5zM383.999 112c62 0 114.834 21.833 158.501 65.5
s65.5 96.5 65.5 158.5c0 59.333 -20.333 110.333 -61 153l-290 -338c37.333 -26 79.666 -39 126.999 -39z" />
    <glyph glyph-name="Ugrave" unicode="&#xd9;" horiz-adv-x="640" 
d="M392 736h-80l-144 144h144zM464 672h127.998v-384c0 -90.667 -24.167 -164 -72.5 -220s-114.833 -84 -199.5 -84c-86 0 -152.833 28 -200.5 84s-71.5 129.333 -71.5 220v384h128v-400c0 -47.333 13.833 -85.833 41.5 -115.5s61.834 -44.5 102.501 -44.5
s74.834 14.833 102.501 44.5s41.5 68.167 41.5 115.5v400z" />
    <glyph glyph-name="Uacute" unicode="&#xda;" horiz-adv-x="640" 
d="M248 736l80 144h144l-144 -144h-80zM464 672h127.998v-384c0 -90.667 -24.167 -164 -72.5 -220s-114.833 -84 -199.5 -84c-86 0 -152.833 28 -200.5 84s-71.5 129.333 -71.5 220v384h128v-400c0 -47.333 13.833 -85.833 41.5 -115.5s61.834 -44.5 102.501 -44.5
s74.834 14.833 102.501 44.5s41.5 68.167 41.5 115.5v400z" />
    <glyph glyph-name="Ucircumflex" unicode="&#xdb;" horiz-adv-x="640" 
d="M376 736l-56 73l-56 -73h-112l139 144h57l140 -144h-112zM464 672h127.998v-384c0 -90.667 -24.167 -164 -72.5 -220s-114.833 -84 -199.5 -84c-86 0 -152.833 28 -200.5 84s-71.5 129.333 -71.5 220v384h128v-400c0 -47.333 13.833 -85.833 41.5 -115.5
s61.834 -44.5 102.501 -44.5s74.834 14.833 102.501 44.5s41.5 68.167 41.5 115.5v400z" />
    <glyph glyph-name="Udieresis" unicode="&#xdc;" horiz-adv-x="640" 
d="M224 736c-18 0 -33.167 6.16699 -45.5 18.5s-18.5 27.5 -18.5 45.5s6.16699 33.167 18.5 45.5s27.5 18.5 45.5 18.5s33.167 -6.16699 45.5 -18.5s18.5 -27.5 18.5 -45.5s-6.16699 -33.167 -18.5 -45.5s-27.5 -18.5 -45.5 -18.5zM416 736
c-18 0 -33.167 6.16699 -45.5 18.5s-18.5 27.5 -18.5 45.5s6.16699 33.167 18.5 45.5s27.5 18.5 45.5 18.5s33.167 -6.16699 45.5 -18.5s18.5 -27.5 18.5 -45.5s-6.16699 -33.167 -18.5 -45.5s-27.5 -18.5 -45.5 -18.5zM464 672h127.998v-384
c0 -90.667 -24.167 -164 -72.5 -220s-114.833 -84 -199.5 -84c-86 0 -152.833 28 -200.5 84s-71.5 129.333 -71.5 220v384h128v-400c0 -47.333 13.833 -85.833 41.5 -115.5s61.834 -44.5 102.501 -44.5s74.834 14.833 102.501 44.5s41.5 68.167 41.5 115.5v400z" />
    <glyph glyph-name="Yacute" unicode="&#xdd;" horiz-adv-x="608" 
d="M240 736l80 144h144l-144 -144h-80zM456 672h152l-240 -400v-272h-128v272l-240 400h152l152 -272z" />
    <glyph glyph-name="Thorn" unicode="&#xde;" horiz-adv-x="592" 
d="M304 576c84.667 0 148.5 -20.333 191.5 -61s64.5 -95 64.5 -163c0 -60.667 -20.333 -113.167 -61 -157.5s-95 -66.5 -163 -66.5h-144v-128h-128v704h128v-128h112zM320 256c31.333 0 57.833 8.99902 79.5 26.999s32.5 41 32.5 69c0 30.667 -10.5 54.334 -31.5 71.001
s-47.833 25 -80.5 25h-128v-192h128z" />
    <glyph glyph-name="germandbls" unicode="&#xdf;" horiz-adv-x="576" 
d="M176 0l0.000976562 511.999c0 26.667 8.5 49.334 25.5 68.001s40.5 28 70.5 28c29.333 0 52.666 -7 69.999 -21s26 -33.667 26 -59c0 -31.333 -13.833 -57.833 -41.5 -79.5s-67.167 -32.5 -118.5 -32.5v-96c138.667 0 208 -38.667 208 -116
c0 -28.667 -8.33301 -51.5 -25 -68.5s-37 -27.167 -61 -30.5s-46.667 -4 -68 -2s-39.333 5.66699 -54 11v-114c26 -10.667 58 -16 96 -16c76 0 135 21.833 177 65.5s63 96.5 63 158.5c0 42.667 -14 81.5 -42 116.5s-62 54.833 -102 59.5c24.667 10 46.834 27.667 66.501 53
s29.5 55.666 29.5 90.999c0 52.667 -17.833 97.834 -53.5 135.501s-92.167 56.5 -169.5 56.5c-10.667 0 -21.834 -0.5 -33.501 -1.5s-30 -5.66699 -55 -14s-46.667 -19.5 -65 -33.5s-34.833 -36.333 -49.5 -67s-22 -66.667 -22 -108v-496h128z" />
    <glyph glyph-name="agrave" unicode="&#xe0;" 
d="M448 560h-80l-144 144h144zM432 496l128 -0.00195312v-496h-128v53c-40 -46 -90.667 -69 -152 -69c-68.667 0 -127.167 25.833 -175.5 77.5s-72.5 113.834 -72.5 186.501s24.167 134.834 72.5 186.501s106.833 77.5 175.5 77.5c61.333 0 112 -23 152 -69v53zM296 111.998
c37.333 0 69.333 13.333 96 40s40 58.667 40 96s-13.333 69.333 -40 96s-58.667 40 -96 40s-69.333 -13.333 -96 -40s-40 -58.667 -40 -96s13.333 -69.333 40 -96s58.667 -40 96 -40z" />
    <glyph glyph-name="aacute" unicode="&#xe1;" 
d="M272 560l80 144h144l-144 -144h-80zM432 496l128 -0.00195312v-496h-128v53c-40 -46 -90.667 -69 -152 -69c-68.667 0 -127.167 25.833 -175.5 77.5s-72.5 113.834 -72.5 186.501s24.167 134.834 72.5 186.501s106.833 77.5 175.5 77.5c61.333 0 112 -23 152 -69v53z
M296 111.998c37.333 0 69.333 13.333 96 40s40 58.667 40 96s-13.333 69.333 -40 96s-58.667 40 -96 40s-69.333 -13.333 -96 -40s-40 -58.667 -40 -96s13.333 -69.333 40 -96s58.667 -40 96 -40z" />
    <glyph glyph-name="acircumflex" unicode="&#xe2;" 
d="M384 560l-56 73l-56 -73h-112l139 144h57l140 -144h-112zM432 496l128 -0.00195312v-496h-128v53c-40 -46 -90.667 -69 -152 -69c-68.667 0 -127.167 25.833 -175.5 77.5s-72.5 113.834 -72.5 186.501s24.167 134.834 72.5 186.501s106.833 77.5 175.5 77.5
c61.333 0 112 -23 152 -69v53zM296 111.998c37.333 0 69.333 13.333 96 40s40 58.667 40 96s-13.333 69.333 -40 96s-58.667 40 -96 40s-69.333 -13.333 -96 -40s-40 -58.667 -40 -96s13.333 -69.333 40 -96s58.667 -40 96 -40z" />
    <glyph glyph-name="atilde" unicode="&#xe3;" 
d="M452 665l68 -25c-26 -53.333 -65.333 -80 -118 -80c-20.667 0 -46.667 6.33301 -78 19c-28 12.667 -52 18.167 -72 16.5s-36 -13.5 -48 -35.5l-68 25c27.333 52.667 67.333 79 120 79c19.333 0 44 -6 74 -18c28 -13.333 52.333 -19 73 -17s37 14 49 36zM432 496
l128 -0.00195312v-496h-128v53c-40 -46 -90.667 -69 -152 -69c-68.667 0 -127.167 25.833 -175.5 77.5s-72.5 113.834 -72.5 186.501s24.167 134.834 72.5 186.501s106.833 77.5 175.5 77.5c61.333 0 112 -23 152 -69v53zM296 111.998c37.333 0 69.333 13.333 96 40
s40 58.667 40 96s-13.333 69.333 -40 96s-58.667 40 -96 40s-69.333 -13.333 -96 -40s-40 -58.667 -40 -96s13.333 -69.333 40 -96s58.667 -40 96 -40z" />
    <glyph glyph-name="adieresis" unicode="&#xe4;" 
d="M232 560c-18 0 -33.167 6.16699 -45.5 18.5s-18.5 27.5 -18.5 45.5s6.16699 33.167 18.5 45.5s27.5 18.5 45.5 18.5s33.167 -6.16699 45.5 -18.5s18.5 -27.5 18.5 -45.5s-6.16699 -33.167 -18.5 -45.5s-27.5 -18.5 -45.5 -18.5zM424 560
c-18 0 -33.167 6.16699 -45.5 18.5s-18.5 27.5 -18.5 45.5s6.16699 33.167 18.5 45.5s27.5 18.5 45.5 18.5s33.167 -6.16699 45.5 -18.5s18.5 -27.5 18.5 -45.5s-6.16699 -33.167 -18.5 -45.5s-27.5 -18.5 -45.5 -18.5zM432 496l128 -0.00195312v-496h-128v53
c-40 -46 -90.667 -69 -152 -69c-68.667 0 -127.167 25.833 -175.5 77.5s-72.5 113.834 -72.5 186.501s24.167 134.834 72.5 186.501s106.833 77.5 175.5 77.5c61.333 0 112 -23 152 -69v53zM296 111.998c37.333 0 69.333 13.333 96 40s40 58.667 40 96
s-13.333 69.333 -40 96s-58.667 40 -96 40s-69.333 -13.333 -96 -40s-40 -58.667 -40 -96s13.333 -69.333 40 -96s58.667 -40 96 -40z" />
    <glyph glyph-name="aring" unicode="&#xe5;" 
d="M336 768c33.333 0 61.666 -11.667 84.999 -35s35 -51.666 35 -84.999s-11.667 -61.666 -35 -84.999s-51.666 -35 -84.999 -35s-61.666 11.667 -84.999 35s-35 51.666 -35 84.999s11.667 61.666 35 84.999s51.666 35 84.999 35zM336 592c15.333 0 28.5 5.5 39.5 16.5
s16.5 24.167 16.5 39.5s-5.5 28.5 -16.5 39.5s-24.167 16.5 -39.5 16.5s-28.5 -5.5 -39.5 -16.5s-16.5 -24.167 -16.5 -39.5s5.5 -28.5 16.5 -39.5s24.167 -16.5 39.5 -16.5zM432 496l128 -0.00195312v-496h-128v53c-40 -46 -90.667 -69 -152 -69
c-68.667 0 -127.167 25.833 -175.5 77.5s-72.5 113.834 -72.5 186.501s24.167 134.834 72.5 186.501s106.833 77.5 175.5 77.5c61.333 0 112 -23 152 -69v53zM296 111.998c37.333 0 69.333 13.333 96 40s40 58.667 40 96s-13.333 69.333 -40 96s-58.667 40 -96 40
s-69.333 -13.333 -96 -40s-40 -58.667 -40 -96s13.333 -69.333 40 -96s58.667 -40 96 -40z" />
    <glyph glyph-name="ae" unicode="&#xe6;" horiz-adv-x="896" 
d="M864 248c0 -9.33301 -0.667969 -22.6689 -2.00098 -40.002h-361c9.33301 -34 26.5 -61.167 51.5 -81.5s56.833 -30.5 95.5 -30.5c55.333 0 104.666 15.333 147.999 46l37 -111c-5.33301 -3.33301 -12.833 -7.66602 -22.5 -12.999s-30.667 -12.333 -63 -21
s-66.166 -13 -101.499 -13c-57.333 0 -107.333 10.667 -150 32v-16h-128v32c-38.667 -32 -90 -48 -154 -48c-54.667 0 -98.667 16.5 -132 49.5s-50 73.5 -50 121.5c0 63.333 29 110 87 140c51.333 26.667 133.666 31.667 246.999 15c0 30 -9.83301 53 -29.5 69
s-46.167 24 -79.5 24c-24.667 0 -49.667 -3.83301 -75 -11.5s-44.666 -15.5 -57.999 -23.5l-19 -11l-44 93c6.66699 4.66699 15.834 10.5 27.501 17.5s35.334 16.167 71.001 27.5s70.5 17 104.5 17c85.333 0 146.333 -20.333 183 -61c44.667 40.667 103.667 61 177 61
c77.333 0 136.666 -23.167 177.999 -69.5s62 -111.166 62 -194.499zM503.999 303.997h224c0 24 -9.83301 46 -29.5 66s-47.167 30 -82.5 30c-30 0 -56.167 -10.5 -78.5 -31.5s-33.5 -42.5 -33.5 -64.5zM367.999 160.997v63l-40 4c-62 6 -106.167 2.33301 -132.5 -11
s-39.5 -32.333 -39.5 -57c0 -19.333 8.5 -34.833 25.5 -46.5s39.5 -17.5 67.5 -17.5c27.333 0 54 6.66699 80 20s39 28.333 39 45z" />
    <glyph glyph-name="ccedilla" unicode="&#xe7;" horiz-adv-x="512" 
d="M480 43c-34 -32.667 -82.999 -52 -146.999 -58l-32 -33c36.667 4 69 -4.5 97 -25.5s42 -49.833 42 -86.5c0 -41.333 -15.167 -75.666 -45.5 -102.999s-68.5 -41 -114.5 -41c-56 0 -98.667 21 -128 63l54 61c14 -34.667 38.333 -52 73 -52
c29.333 0 52.166 7.16699 68.499 21.5s24.5 31.5 24.5 51.5c0 19.333 -7.33301 34.666 -22 45.999s-32.667 17 -54 17c-25.333 0 -46 -5.33301 -62 -16l-34 48l52 52c-68.667 11.333 -122.5 40.833 -161.5 88.5s-58.5 104.834 -58.5 171.501c0 75.333 25 138.166 75 188.499
s117 75.5 201 75.5c70.667 0 128 -19.667 172 -59l-53 -115c-30.667 30.667 -69 46 -115 46s-82.833 -13 -110.5 -39s-41.5 -58.333 -41.5 -97s13.833 -71 41.5 -97s64.5 -39 110.5 -39c46.667 0 85 15 115 45z" />
    <glyph glyph-name="egrave" unicode="&#xe8;" horiz-adv-x="560" 
d="M368 560h-80l-144 144h144zM528 248c0 -9.33301 -0.666016 -22.667 -1.99902 -40h-361c9.33301 -34 26.5 -61.167 51.5 -81.5s56.833 -30.5 95.5 -30.5c55.333 0 104.666 15.333 147.999 46l37 -111c-5.33301 -3.33301 -12.833 -7.66602 -22.5 -12.999
s-30.667 -12.333 -63 -21s-66.166 -13 -101.499 -13c-92 0 -161.333 24.667 -208 74s-70 112.666 -70 189.999s22 140.666 66 189.999s107.333 74 190 74c77.333 0 136.666 -23.167 177.999 -69.5s62 -111.166 62 -194.499zM168.001 303.999h224c0 24 -9.83301 46 -29.5 66
s-47.167 30 -82.5 30c-30 0 -56.167 -10.5 -78.5 -31.5s-33.5 -42.5 -33.5 -64.5z" />
    <glyph glyph-name="eacute" unicode="&#xe9;" horiz-adv-x="560" 
d="M224 560l80 144h144l-144 -144h-80zM528 248c0 -9.33301 -0.666016 -22.667 -1.99902 -40h-361c9.33301 -34 26.5 -61.167 51.5 -81.5s56.833 -30.5 95.5 -30.5c55.333 0 104.666 15.333 147.999 46l37 -111c-5.33301 -3.33301 -12.833 -7.66602 -22.5 -12.999
s-30.667 -12.333 -63 -21s-66.166 -13 -101.499 -13c-92 0 -161.333 24.667 -208 74s-70 112.666 -70 189.999s22 140.666 66 189.999s107.333 74 190 74c77.333 0 136.666 -23.167 177.999 -69.5s62 -111.166 62 -194.499zM168.001 303.999h224c0 24 -9.83301 46 -29.5 66
s-47.167 30 -82.5 30c-30 0 -56.167 -10.5 -78.5 -31.5s-33.5 -42.5 -33.5 -64.5z" />
    <glyph glyph-name="ecircumflex" unicode="&#xea;" horiz-adv-x="560" 
d="M336 560l-56 73l-56 -73h-112l139 144h57l140 -144h-112zM528 248c0 -9.33301 -0.666016 -22.667 -1.99902 -40h-361c9.33301 -34 26.5 -61.167 51.5 -81.5s56.833 -30.5 95.5 -30.5c55.333 0 104.666 15.333 147.999 46l37 -111
c-5.33301 -3.33301 -12.833 -7.66602 -22.5 -12.999s-30.667 -12.333 -63 -21s-66.166 -13 -101.499 -13c-92 0 -161.333 24.667 -208 74s-70 112.666 -70 189.999s22 140.666 66 189.999s107.333 74 190 74c77.333 0 136.666 -23.167 177.999 -69.5
s62 -111.166 62 -194.499zM168.001 303.999h224c0 24 -9.83301 46 -29.5 66s-47.167 30 -82.5 30c-30 0 -56.167 -10.5 -78.5 -31.5s-33.5 -42.5 -33.5 -64.5z" />
    <glyph glyph-name="edieresis" unicode="&#xeb;" horiz-adv-x="560" 
d="M184 560c-18 0 -33.167 6.16699 -45.5 18.5s-18.5 27.5 -18.5 45.5s6.16699 33.167 18.5 45.5s27.5 18.5 45.5 18.5s33.167 -6.16699 45.5 -18.5s18.5 -27.5 18.5 -45.5s-6.16699 -33.167 -18.5 -45.5s-27.5 -18.5 -45.5 -18.5zM376 560
c-18 0 -33.167 6.16699 -45.5 18.5s-18.5 27.5 -18.5 45.5s6.16699 33.167 18.5 45.5s27.5 18.5 45.5 18.5s33.167 -6.16699 45.5 -18.5s18.5 -27.5 18.5 -45.5s-6.16699 -33.167 -18.5 -45.5s-27.5 -18.5 -45.5 -18.5zM528 248c0 -9.33301 -0.666016 -22.667 -1.99902 -40
h-361c9.33301 -34 26.5 -61.167 51.5 -81.5s56.833 -30.5 95.5 -30.5c55.333 0 104.666 15.333 147.999 46l37 -111c-5.33301 -3.33301 -12.833 -7.66602 -22.5 -12.999s-30.667 -12.333 -63 -21s-66.166 -13 -101.499 -13c-92 0 -161.333 24.667 -208 74
s-70 112.666 -70 189.999s22 140.666 66 189.999s107.333 74 190 74c77.333 0 136.666 -23.167 177.999 -69.5s62 -111.166 62 -194.499zM168.001 303.999h224c0 24 -9.83301 46 -29.5 66s-47.167 30 -82.5 30c-30 0 -56.167 -10.5 -78.5 -31.5s-33.5 -42.5 -33.5 -64.5z
" />
    <glyph glyph-name="igrave" unicode="&#xec;" horiz-adv-x="256" 
d="M192 560h-80l-144 144h144zM64 0v496h128v-496h-128z" />
    <glyph glyph-name="iacute" unicode="&#xed;" horiz-adv-x="256" 
d="M64 560l80 144h144l-144 -144h-80zM64 0v496h128v-496h-128z" />
    <glyph glyph-name="icircumflex" unicode="&#xee;" horiz-adv-x="256" 
d="M184 560l-56 73l-56 -73h-112l139 144h57l140 -144h-112zM64 0v496h128v-496h-128z" />
    <glyph glyph-name="idieresis" unicode="&#xef;" horiz-adv-x="256" 
d="M32 560c-18 0 -33.167 6.16699 -45.5 18.5s-18.5 27.5 -18.5 45.5s6.16699 33.167 18.5 45.5s27.5 18.5 45.5 18.5s33.167 -6.16699 45.5 -18.5s18.5 -27.5 18.5 -45.5s-6.16699 -33.167 -18.5 -45.5s-27.5 -18.5 -45.5 -18.5zM224 560c-18 0 -33.167 6.16699 -45.5 18.5
s-18.5 27.5 -18.5 45.5s6.16699 33.167 18.5 45.5s27.5 18.5 45.5 18.5s33.167 -6.16699 45.5 -18.5s18.5 -27.5 18.5 -45.5s-6.16699 -33.167 -18.5 -45.5s-27.5 -18.5 -45.5 -18.5zM64 0v496h128v-496h-128z" />
    <glyph glyph-name="eth" unicode="&#xf0;" horiz-adv-x="592" 
d="M545 337c10 -28 14.998 -57.668 14.998 -89.001c0 -73.333 -25.667 -135.666 -77 -186.999s-113.666 -77 -186.999 -77s-135.666 25.667 -186.999 77s-77 113.666 -77 186.999c0 64 20.333 120.333 61 169s92 78.667 154 90l-58 49l-141 -52v79l77 26l-67 55l102 56
l84 -66l172 59v-80l-102 -34c126 -95.333 203 -182.666 231 -261.999zM295.998 111.999c37.333 0 69.333 13.333 96 40s40 58.667 40 96s-13.333 69.333 -40 96s-58.667 40 -96 40s-69.333 -13.333 -96 -40s-40 -58.667 -40 -96s13.333 -69.333 40 -96s58.667 -40 96 -40z
" />
    <glyph glyph-name="ntilde" unicode="&#xf1;" horiz-adv-x="576" 
d="M412 665l68 -25c-26 -53.333 -65.333 -80 -118 -80c-20 0 -46 6.33301 -78 19c-28 12.667 -52 18.167 -72 16.5s-36 -13.5 -48 -35.5l-68 25c27.333 52.667 67.333 79 120 79c19.333 0 44 -6 74 -18c28 -13.333 52.333 -19 73 -17s37 14 49 36zM342 512
c58 0 103.499 -19 136.499 -57s49.5 -93.667 49.5 -167v-288h-128v272c0 38.667 -7.66699 67 -23 85s-39.666 27 -72.999 27c-32 0 -58.667 -10.667 -80 -32s-32 -53.333 -32 -96v-256h-128v496h128v-48c36 42.667 86 64 150 64z" />
    <glyph glyph-name="ograve" unicode="&#xf2;" horiz-adv-x="592" 
d="M360 560h-80l-144 144h144zM296 512c73.333 0 135.666 -25.667 186.999 -77s77 -113.666 77 -186.999s-25.667 -135.666 -77 -186.999s-113.666 -77 -186.999 -77s-135.666 25.667 -186.999 77s-77 113.666 -77 186.999s25.667 135.666 77 186.999s113.666 77 186.999 77
zM296 112c37.333 0 69.333 13.333 96 40s40 58.667 40 96s-13.333 69.333 -40 96s-58.667 40 -96 40s-69.333 -13.333 -96 -40s-40 -58.667 -40 -96s13.333 -69.333 40 -96s58.667 -40 96 -40z" />
    <glyph glyph-name="oacute" unicode="&#xf3;" horiz-adv-x="592" 
d="M232 560l80 144h144l-144 -144h-80zM296 512c73.333 0 135.666 -25.667 186.999 -77s77 -113.666 77 -186.999s-25.667 -135.666 -77 -186.999s-113.666 -77 -186.999 -77s-135.666 25.667 -186.999 77s-77 113.666 -77 186.999s25.667 135.666 77 186.999
s113.666 77 186.999 77zM296 112c37.333 0 69.333 13.333 96 40s40 58.667 40 96s-13.333 69.333 -40 96s-58.667 40 -96 40s-69.333 -13.333 -96 -40s-40 -58.667 -40 -96s13.333 -69.333 40 -96s58.667 -40 96 -40z" />
    <glyph glyph-name="ocircumflex" unicode="&#xf4;" horiz-adv-x="592" 
d="M352 560l-56 73l-56 -73h-112l139 144h57l140 -144h-112zM296 512c73.333 0 135.666 -25.667 186.999 -77s77 -113.666 77 -186.999s-25.667 -135.666 -77 -186.999s-113.666 -77 -186.999 -77s-135.666 25.667 -186.999 77s-77 113.666 -77 186.999
s25.667 135.666 77 186.999s113.666 77 186.999 77zM296 112c37.333 0 69.333 13.333 96 40s40 58.667 40 96s-13.333 69.333 -40 96s-58.667 40 -96 40s-69.333 -13.333 -96 -40s-40 -58.667 -40 -96s13.333 -69.333 40 -96s58.667 -40 96 -40z" />
    <glyph glyph-name="otilde" unicode="&#xf5;" horiz-adv-x="592" 
d="M420 665l68 -25c-26 -53.333 -65.333 -80 -118 -80c-20 0 -46 6.33301 -78 19c-28 12.667 -52 18.167 -72 16.5s-36 -13.5 -48 -35.5l-68 25c27.333 52.667 67.333 79 120 79c19.333 0 44 -6 74 -18c28 -13.333 52.333 -19 73 -17s37 14 49 36zM296 512
c73.333 0 135.666 -25.667 186.999 -77s77 -113.666 77 -186.999s-25.667 -135.666 -77 -186.999s-113.666 -77 -186.999 -77s-135.666 25.667 -186.999 77s-77 113.666 -77 186.999s25.667 135.666 77 186.999s113.666 77 186.999 77zM296 112
c37.333 0 69.333 13.333 96 40s40 58.667 40 96s-13.333 69.333 -40 96s-58.667 40 -96 40s-69.333 -13.333 -96 -40s-40 -58.667 -40 -96s13.333 -69.333 40 -96s58.667 -40 96 -40z" />
    <glyph glyph-name="odieresis" unicode="&#xf6;" horiz-adv-x="592" 
d="M200 560c-18 0 -33.167 6.16699 -45.5 18.5s-18.5 27.5 -18.5 45.5s6.16699 33.167 18.5 45.5s27.5 18.5 45.5 18.5s33.167 -6.16699 45.5 -18.5s18.5 -27.5 18.5 -45.5s-6.16699 -33.167 -18.5 -45.5s-27.5 -18.5 -45.5 -18.5zM392 560
c-18 0 -33.167 6.16699 -45.5 18.5s-18.5 27.5 -18.5 45.5s6.16699 33.167 18.5 45.5s27.5 18.5 45.5 18.5s33.167 -6.16699 45.5 -18.5s18.5 -27.5 18.5 -45.5s-6.16699 -33.167 -18.5 -45.5s-27.5 -18.5 -45.5 -18.5zM296 512c73.333 0 135.666 -25.667 186.999 -77
s77 -113.666 77 -186.999s-25.667 -135.666 -77 -186.999s-113.666 -77 -186.999 -77s-135.666 25.667 -186.999 77s-77 113.666 -77 186.999s25.667 135.666 77 186.999s113.666 77 186.999 77zM296 112c37.333 0 69.333 13.333 96 40s40 58.667 40 96
s-13.333 69.333 -40 96s-58.667 40 -96 40s-69.333 -13.333 -96 -40s-40 -58.667 -40 -96s13.333 -69.333 40 -96s58.667 -40 96 -40z" />
    <glyph glyph-name="divide" unicode="&#xf7;" horiz-adv-x="496" 
d="M248 416c-22.667 0 -41.667 7.66699 -57 23s-23 34.333 -23 57s7.66699 41.667 23 57s34.333 23 57 23s41.667 -7.66699 57 -23s23 -34.333 23 -57s-7.66699 -41.667 -23 -57s-34.333 -23 -57 -23zM48 344h400v-80h-400v80zM248 32c-22.667 0 -41.667 7.66699 -57 23
s-23 34.333 -23 57s7.66699 41.667 23 57s34.333 23 57 23s41.667 -7.66699 57 -23s23 -34.333 23 -57s-7.66699 -41.667 -23 -57s-34.333 -23 -57 -23z" />
    <glyph glyph-name="oslash" unicode="&#xf8;" horiz-adv-x="592" 
d="M487 430c48.667 -50.667 73 -111.334 73 -182.001c0 -73.333 -25.667 -135.666 -77 -186.999s-113.666 -77 -186.999 -77c-57.333 0 -109 16.667 -155 50l-30 -34h-64l58 66c-48.667 50.667 -73 111.334 -73 182.001c0 73.333 25.667 135.666 77 186.999
s113.666 77 186.999 77c57.333 0 109 -16.667 155 -50l30 34h64zM160 248c0 -32.667 9.99902 -61 29.999 -85l176 202c-21.333 12.667 -44.666 19 -69.999 19c-37.333 0 -69.333 -13.333 -96 -40s-40 -58.667 -40 -96zM295.999 112c37.333 0 69.334 13.333 96.001 40
s40 58.667 40 96c0 32.667 -10 61 -30 85l-176 -202c21.333 -12.667 44.666 -19 69.999 -19z" />
    <glyph glyph-name="ugrave" unicode="&#xf9;" horiz-adv-x="576" 
d="M344 560h-80l-144 144h144zM234 -16c-58 0 -103.501 19 -136.501 57s-49.5 93.667 -49.5 167v288h128v-272c0 -38.667 7.83301 -67 23.5 -85s39.834 -27 72.501 -27c32 0 58.667 10.667 80 32s32 53.333 32 96v256h128v-496h-128v48c-36 -42.667 -86 -64 -150 -64z" />
    <glyph glyph-name="uacute" unicode="&#xfa;" horiz-adv-x="576" 
d="M216 560l80 144h144l-144 -144h-80zM234 -16c-58 0 -103.501 19 -136.501 57s-49.5 93.667 -49.5 167v288h128v-272c0 -38.667 7.83301 -67 23.5 -85s39.834 -27 72.501 -27c32 0 58.667 10.667 80 32s32 53.333 32 96v256h128v-496h-128v48
c-36 -42.667 -86 -64 -150 -64z" />
    <glyph glyph-name="ucircumflex" unicode="&#xfb;" horiz-adv-x="576" 
d="M336 560l-56 73l-56 -73h-112l139 144h57l140 -144h-112zM234 -16c-58 0 -103.501 19 -136.501 57s-49.5 93.667 -49.5 167v288h128v-272c0 -38.667 7.83301 -67 23.5 -85s39.834 -27 72.501 -27c32 0 58.667 10.667 80 32s32 53.333 32 96v256h128v-496h-128v48
c-36 -42.667 -86 -64 -150 -64z" />
    <glyph glyph-name="udieresis" unicode="&#xfc;" horiz-adv-x="576" 
d="M184 560c-18 0 -33.167 6.16699 -45.5 18.5s-18.5 27.5 -18.5 45.5s6.16699 33.167 18.5 45.5s27.5 18.5 45.5 18.5s33.167 -6.16699 45.5 -18.5s18.5 -27.5 18.5 -45.5s-6.16699 -33.167 -18.5 -45.5s-27.5 -18.5 -45.5 -18.5zM376 560
c-18 0 -33.167 6.16699 -45.5 18.5s-18.5 27.5 -18.5 45.5s6.16699 33.167 18.5 45.5s27.5 18.5 45.5 18.5s33.167 -6.16699 45.5 -18.5s18.5 -27.5 18.5 -45.5s-6.16699 -33.167 -18.5 -45.5s-27.5 -18.5 -45.5 -18.5zM234 -16c-58 0 -103.501 19 -136.501 57
s-49.5 93.667 -49.5 167v288h128v-272c0 -38.667 7.83301 -67 23.5 -85s39.834 -27 72.501 -27c32 0 58.667 10.667 80 32s32 53.333 32 96v256h128v-496h-128v48c-36 -42.667 -86 -64 -150 -64z" />
    <glyph glyph-name="yacute" unicode="&#xfd;" horiz-adv-x="528" 
d="M192 560l80 144h144l-144 -144h-80zM384 496h144l-320 -752h-144l128 292l-192 460h144l120 -292z" />
    <glyph glyph-name="thorn" unicode="&#xfe;" 
d="M344 512c68.667 0 127.167 -25.8311 175.5 -77.498s72.5 -113.834 72.5 -186.501s-24.167 -134.834 -72.5 -186.501s-106.833 -77.5 -175.5 -77.5c-61.333 0 -112 23 -152 69v-309h-128v960h128v-261c40 46 90.667 69 152 69zM328 112.002c37.333 0 69.333 13.333 96 40
s40 58.667 40 96s-13.333 69.333 -40 96s-58.667 40 -96 40s-69.333 -13.333 -96 -40s-40 -58.667 -40 -96s13.333 -69.333 40 -96s58.667 -40 96 -40z" />
    <glyph glyph-name="ydieresis" unicode="&#xff;" horiz-adv-x="528" 
d="M168 560c-18 0 -33.167 6.16699 -45.5 18.5s-18.5 27.5 -18.5 45.5s6.16699 33.167 18.5 45.5s27.5 18.5 45.5 18.5s33.167 -6.16699 45.5 -18.5s18.5 -27.5 18.5 -45.5s-6.16699 -33.167 -18.5 -45.5s-27.5 -18.5 -45.5 -18.5zM360 560
c-18 0 -33.167 6.16699 -45.5 18.5s-18.5 27.5 -18.5 45.5s6.16699 33.167 18.5 45.5s27.5 18.5 45.5 18.5s33.167 -6.16699 45.5 -18.5s18.5 -27.5 18.5 -45.5s-6.16699 -33.167 -18.5 -45.5s-27.5 -18.5 -45.5 -18.5zM384 496h144l-320 -752h-144l128 292l-192 460h144
l120 -292z" />
    <glyph glyph-name="Amacron" unicode="&#x100;" horiz-adv-x="672" 
d="M480 752h-288v64h288v-64zM528 0l-50 128h-284l-50 -128h-144l278 672h116l278 -672h-144zM243 256h186l-93 240z" />
    <glyph glyph-name="amacron" unicode="&#x101;" 
d="M472 576h-288v64h288v-64zM432 496l128 -0.00195312v-496h-128v53c-40 -46 -90.667 -69 -152 -69c-68.667 0 -127.167 25.833 -175.5 77.5s-72.5 113.834 -72.5 186.501s24.167 134.834 72.5 186.501s106.833 77.5 175.5 77.5c61.333 0 112 -23 152 -69v53zM296 111.998
c37.333 0 69.333 13.333 96 40s40 58.667 40 96s-13.333 69.333 -40 96s-58.667 40 -96 40s-69.333 -13.333 -96 -40s-40 -58.667 -40 -96s13.333 -69.333 40 -96s58.667 -40 96 -40z" />
    <glyph glyph-name="Abreve" unicode="&#x102;" horiz-adv-x="672" 
d="M412 880h68c0 -40 -14 -74 -42 -102s-62 -42 -102 -42s-74 14 -102 42s-42 62 -42 102h68c0 -21.333 7.33301 -39.333 22 -54s32.667 -22 54 -22s39.333 7.33301 54 22s22 32.667 22 54zM528 0l-50 128h-284l-50 -128h-144l278 672h116l278 -672h-144zM243 256h186
l-93 240z" />
    <glyph glyph-name="abreve" unicode="&#x103;" 
d="M404 704h68c0 -40 -14 -74 -42 -102s-62 -42 -102 -42s-74 14 -102 42s-42 62 -42 102h68c0 -21.333 7.33301 -39.333 22 -54s32.667 -22 54 -22s39.333 7.33301 54 22s22 32.667 22 54zM432 496l128 -0.00195312v-496h-128v53c-40 -46 -90.667 -69 -152 -69
c-68.667 0 -127.167 25.833 -175.5 77.5s-72.5 113.834 -72.5 186.501s24.167 134.834 72.5 186.501s106.833 77.5 175.5 77.5c61.333 0 112 -23 152 -69v53zM296 111.998c37.333 0 69.333 13.333 96 40s40 58.667 40 96s-13.333 69.333 -40 96s-58.667 40 -96 40
s-69.333 -13.333 -96 -40s-40 -58.667 -40 -96s13.333 -69.333 40 -96s58.667 -40 96 -40z" />
    <glyph glyph-name="Aogonek" unicode="&#x104;" horiz-adv-x="672" 
d="M560 -80c0 -27.333 10.168 -46.5 30.501 -57.5s42.166 -9.83301 65.499 3.5l16 -58c-16 -10.667 -35.333 -16 -58 -16c-37.333 0 -66.333 11.5 -87 34.5s-31 52.833 -31 89.5c0 14.667 3.16699 30.5 9.5 47.5s13.833 29.167 22.5 36.5l-50 128h-284l-50 -128h-144
l278 672h116l278 -672h-16c-24 -0 -46 -7.66699 -66 -23s-30 -34.333 -30 -57zM243.001 256h186l-93 240z" />
    <glyph glyph-name="aogonek" unicode="&#x105;" 
d="M560 -134l16.001 -58.002c-16 -10.667 -35.333 -16 -58 -16c-37.333 0 -66.333 11.5 -87 34.5s-31 52.833 -31 89.5c0 14.667 3.16699 30.5 9.5 47.5s13.833 29.167 22.5 36.5v53c-40 -46 -90.667 -69 -152 -69c-68.667 0 -127.167 25.833 -175.5 77.5
s-72.5 113.834 -72.5 186.501s24.167 134.834 72.5 186.501s106.833 77.5 175.5 77.5c61.333 0 112 -23 152 -69v53h128v-496c-24 -0 -46 -7.66699 -66 -23s-30 -34.333 -30 -57c0 -27.333 10.167 -46.5 30.5 -57.5s42.166 -9.83301 65.499 3.5zM296.001 111.998
c37.333 0 69.333 13.333 96 40s40 58.667 40 96s-13.333 69.333 -40 96s-58.667 40 -96 40s-69.333 -13.333 -96 -40s-40 -58.667 -40 -96s13.333 -69.333 40 -96s58.667 -40 96 -40z" />
    <glyph glyph-name="Cacute" unicode="&#x106;" horiz-adv-x="640" 
d="M320 736l80 144h144l-144 -144h-80zM392 112c66.667 0 122.334 22.999 167.001 68.999l49 -116c-28 -25.333 -61.667 -45.166 -101 -59.499s-78.333 -21.5 -117 -21.5c-98.667 0 -183 34.5 -253 103.5s-105 151.833 -105 248.5s35 179.5 105 248.5
s154.333 103.5 253 103.5c38.667 0 77.667 -7 117 -21s73 -33.667 101 -59l-49 -116c-46.667 45.333 -102.334 68 -167.001 68c-64 0 -118.667 -21.833 -164 -65.5s-68 -96.5 -68 -158.5s22.667 -114.833 68 -158.5s100 -65.5 164 -65.5z" />
    <glyph glyph-name="cacute" unicode="&#x107;" horiz-adv-x="512" 
d="M240 560l80 144h144l-144 -144h-80zM312 112c46.667 0 85.001 15.002 115.001 45.002l53 -114c-40.667 -39.333 -98 -59 -172 -59c-84.667 0 -151.834 25.167 -201.501 75.5s-74.5 113.166 -74.5 188.499s25 138.166 75 188.499s117 75.5 201 75.5
c70.667 0 128 -19.667 172 -59l-53 -115c-30.667 30.667 -69 46 -115 46s-82.833 -13 -110.5 -39s-41.5 -58.333 -41.5 -97s13.833 -71 41.5 -97s64.5 -39 110.5 -39z" />
    <glyph glyph-name="Cdotaccent" unicode="&#x10a;" horiz-adv-x="640" 
d="M384 720c-22 0 -40.833 7.83301 -56.5 23.5s-23.5 34.5 -23.5 56.5s7.83301 40.833 23.5 56.5s34.5 23.5 56.5 23.5s40.833 -7.83301 56.5 -23.5s23.5 -34.5 23.5 -56.5s-7.83301 -40.833 -23.5 -56.5s-34.5 -23.5 -56.5 -23.5zM392 112
c66.667 0 122.334 22.999 167.001 68.999l49 -116c-28 -25.333 -61.667 -45.166 -101 -59.499s-78.333 -21.5 -117 -21.5c-98.667 0 -183 34.5 -253 103.5s-105 151.833 -105 248.5s35 179.5 105 248.5s154.333 103.5 253 103.5c38.667 0 77.667 -7 117 -21
s73 -33.667 101 -59l-49 -116c-46.667 45.333 -102.334 68 -167.001 68c-64 0 -118.667 -21.833 -164 -65.5s-68 -96.5 -68 -158.5s22.667 -114.833 68 -158.5s100 -65.5 164 -65.5z" />
    <glyph glyph-name="cdotaccent" unicode="&#x10b;" horiz-adv-x="512" 
d="M304 544c-22 0 -40.833 7.83301 -56.5 23.5s-23.5 34.5 -23.5 56.5s7.83301 40.833 23.5 56.5s34.5 23.5 56.5 23.5s40.833 -7.83301 56.5 -23.5s23.5 -34.5 23.5 -56.5s-7.83301 -40.833 -23.5 -56.5s-34.5 -23.5 -56.5 -23.5zM312 112
c46.667 0 85.001 15.002 115.001 45.002l53 -114c-40.667 -39.333 -98 -59 -172 -59c-84.667 0 -151.834 25.167 -201.501 75.5s-74.5 113.166 -74.5 188.499s25 138.166 75 188.499s117 75.5 201 75.5c70.667 0 128 -19.667 172 -59l-53 -115
c-30.667 30.667 -69 46 -115 46s-82.833 -13 -110.5 -39s-41.5 -58.333 -41.5 -97s13.833 -71 41.5 -97s64.5 -39 110.5 -39z" />
    <glyph glyph-name="Ccaron" unicode="&#x10c;" horiz-adv-x="640" 
d="M432 880h112l-140 -144h-57l-139 144h112l56 -73zM392 112c66.667 0 122.334 22.999 167.001 68.999l49 -116c-28 -25.333 -61.667 -45.166 -101 -59.499s-78.333 -21.5 -117 -21.5c-98.667 0 -183 34.5 -253 103.5s-105 151.833 -105 248.5s35 179.5 105 248.5
s154.333 103.5 253 103.5c38.667 0 77.667 -7 117 -21s73 -33.667 101 -59l-49 -116c-46.667 45.333 -102.334 68 -167.001 68c-64 0 -118.667 -21.833 -164 -65.5s-68 -96.5 -68 -158.5s22.667 -114.833 68 -158.5s100 -65.5 164 -65.5z" />
    <glyph glyph-name="ccaron" unicode="&#x10d;" horiz-adv-x="512" 
d="M352 704h112l-140 -144h-57l-139 144h112l56 -73zM312 112c46.667 0 85.001 15.002 115.001 45.002l53 -114c-40.667 -39.333 -98 -59 -172 -59c-84.667 0 -151.834 25.167 -201.501 75.5s-74.5 113.166 -74.5 188.499s25 138.166 75 188.499s117 75.5 201 75.5
c70.667 0 128 -19.667 172 -59l-53 -115c-30.667 30.667 -69 46 -115 46s-82.833 -13 -110.5 -39s-41.5 -58.333 -41.5 -97s13.833 -71 41.5 -97s64.5 -39 110.5 -39z" />
    <glyph glyph-name="Dcaron" unicode="&#x10e;" horiz-adv-x="672" 
d="M360 880h112l-140 -144h-57l-139 144h112l56 -73zM287 672c111.333 0 198 -31.667 260 -95s93 -143.666 93 -240.999c0 -96.667 -31.5 -176.834 -94.5 -240.501s-149.167 -95.5 -258.5 -95.5h-223v672h223zM310 128c59.333 0 107.833 20 145.5 60s56.5 89.333 56.5 148
s-18.833 108 -56.5 148s-86.167 60 -145.5 60h-118v-416h118z" />
    <glyph glyph-name="dcaron" unicode="&#x10f;" horiz-adv-x="768" 
d="M280 512c61.333 0 112 -23.002 152 -69.002v261h128v-704h-128v53c-40 -46 -90.667 -69 -152 -69c-68.667 0 -127.167 25.833 -175.5 77.5s-72.5 113.834 -72.5 186.501s24.167 134.834 72.5 186.501s106.833 77.5 175.5 77.5zM592 543.998l32 128h112l-80 -128h-64z
M296 111.998c37.333 0 69.333 13.333 96 40s40 58.667 40 96s-13.333 69.333 -40 96s-58.667 40 -96 40s-69.333 -13.333 -96 -40s-40 -58.667 -40 -96s13.333 -69.333 40 -96s58.667 -40 96 -40z" />
    <glyph glyph-name="Dcroat" unicode="&#x110;" horiz-adv-x="688" 
d="M303 672c111.333 0 198 -31.667 260 -95s93 -143.666 93 -240.999c0 -96.667 -31.5 -176.834 -94.5 -240.501s-149.167 -95.5 -258.5 -95.5h-223v296h-64v80h64v296h223zM326 128c59.333 0 107.833 20 145.5 60s56.5 89.333 56.5 148s-18.833 108 -56.5 148
s-86.167 60 -145.5 60h-118v-168h64v-80h-64v-168h118z" />
    <glyph glyph-name="dcroat" unicode="&#x111;" horiz-adv-x="640" 
d="M624 616v-64.002h-64v-552h-128v53c-40 -46 -90.667 -69 -152 -69c-68.667 0 -127.167 25.833 -175.5 77.5s-72.5 113.834 -72.5 186.501s24.167 134.834 72.5 186.501s106.833 77.5 175.5 77.5c61.333 0 112 -23 152 -69v109h-64v64h64v88h128v-88h64zM296 111.998
c37.333 0 69.333 13.333 96 40s40 58.667 40 96s-13.333 69.333 -40 96s-58.667 40 -96 40s-69.333 -13.333 -96 -40s-40 -58.667 -40 -96s13.333 -69.333 40 -96s58.667 -40 96 -40z" />
    <glyph glyph-name="Emacron" unicode="&#x112;" horiz-adv-x="528" 
d="M408 752h-288v64h288v-64zM480 544h-288v-144h240v-128h-240v-144h288v-128h-416v672h416v-128z" />
    <glyph glyph-name="emacron" unicode="&#x113;" horiz-adv-x="560" 
d="M424 576h-288v64h288v-64zM528 248c0 -9.33301 -0.666016 -22.667 -1.99902 -40h-361c9.33301 -34 26.5 -61.167 51.5 -81.5s56.833 -30.5 95.5 -30.5c55.333 0 104.666 15.333 147.999 46l37 -111c-5.33301 -3.33301 -12.833 -7.66602 -22.5 -12.999
s-30.667 -12.333 -63 -21s-66.166 -13 -101.499 -13c-92 0 -161.333 24.667 -208 74s-70 112.666 -70 189.999s22 140.666 66 189.999s107.333 74 190 74c77.333 0 136.666 -23.167 177.999 -69.5s62 -111.166 62 -194.499zM168.001 303.999h224c0 24 -9.83301 46 -29.5 66
s-47.167 30 -82.5 30c-30 0 -56.167 -10.5 -78.5 -31.5s-33.5 -42.5 -33.5 -64.5z" />
    <glyph glyph-name="Edotaccent" unicode="&#x116;" horiz-adv-x="528" 
d="M264 720c-22 0 -40.833 7.83301 -56.5 23.5s-23.5 34.5 -23.5 56.5s7.83301 40.833 23.5 56.5s34.5 23.5 56.5 23.5s40.833 -7.83301 56.5 -23.5s23.5 -34.5 23.5 -56.5s-7.83301 -40.833 -23.5 -56.5s-34.5 -23.5 -56.5 -23.5zM480 544h-288v-144h240v-128h-240v-144
h288v-128h-416v672h416v-128z" />
    <glyph glyph-name="edotaccent" unicode="&#x117;" horiz-adv-x="560" 
d="M288 544c-22 0 -40.833 7.83301 -56.5 23.5s-23.5 34.5 -23.5 56.5s7.83301 40.833 23.5 56.5s34.5 23.5 56.5 23.5s40.833 -7.83301 56.5 -23.5s23.5 -34.5 23.5 -56.5s-7.83301 -40.833 -23.5 -56.5s-34.5 -23.5 -56.5 -23.5zM528 248
c0 -9.33301 -0.666016 -22.667 -1.99902 -40h-361c9.33301 -34 26.5 -61.167 51.5 -81.5s56.833 -30.5 95.5 -30.5c55.333 0 104.666 15.333 147.999 46l37 -111c-5.33301 -3.33301 -12.833 -7.66602 -22.5 -12.999s-30.667 -12.333 -63 -21s-66.166 -13 -101.499 -13
c-92 0 -161.333 24.667 -208 74s-70 112.666 -70 189.999s22 140.666 66 189.999s107.333 74 190 74c77.333 0 136.666 -23.167 177.999 -69.5s62 -111.166 62 -194.499zM168.001 303.999h224c0 24 -9.83301 46 -29.5 66s-47.167 30 -82.5 30
c-30 0 -56.167 -10.5 -78.5 -31.5s-33.5 -42.5 -33.5 -64.5z" />
    <glyph glyph-name="Eogonek" unicode="&#x118;" horiz-adv-x="528" 
d="M480 -134l16.001 -58c-16 -10.667 -35.333 -16 -58 -16c-37.333 0 -66.333 11.5 -87 34.5s-31 52.833 -31 89.5c0 14.667 3.16699 30.5 9.5 47.5s13.833 29.167 22.5 36.5h-288v672h416v-128h-288v-144h240v-128h-240v-144h288v-128c-24 -0 -46 -7.66699 -66 -23
s-30 -34.333 -30 -57c0 -27.333 10.167 -46.5 30.5 -57.5s42.166 -9.83301 65.499 3.5z" />
    <glyph glyph-name="eogonek" unicode="&#x119;" horiz-adv-x="560" 
d="M528 248c0 -9.33301 -0.664062 -22.668 -1.99707 -40.001h-361c9.33301 -34 26.5 -61.167 51.5 -81.5s56.833 -30.5 95.5 -30.5c55.333 0 104.666 15.333 147.999 46l37 -111c-30.667 -21.333 -73.334 -35.666 -128.001 -42.999
c-14.667 -3.33301 -26.167 -11.5 -34.5 -24.5s-12.5 -27.5 -12.5 -43.5c0 -27.333 10.167 -46.5 30.5 -57.5s42.166 -9.83301 65.499 3.5l16 -58c-16 -10.667 -35.333 -16 -58 -16c-37.333 0 -66.333 11.5 -87 34.5s-31 52.833 -31 89.5c0 24.667 6.66699 47.667 20 69
c-81.333 6 -142.666 33.333 -183.999 82s-62 109 -62 181c0 77.333 22 140.666 66 189.999s107.333 74 190 74c77.333 0 136.666 -23.167 177.999 -69.5s62 -111.166 62 -194.499zM168.003 303.998h224c0 24 -9.83301 46 -29.5 66s-47.167 30 -82.5 30
c-30 0 -56.167 -10.5 -78.5 -31.5s-33.5 -42.5 -33.5 -64.5z" />
    <glyph glyph-name="Ecaron" unicode="&#x11a;" horiz-adv-x="528" 
d="M320 880h112l-140 -144h-57l-139 144h112l56 -73zM480 544h-288v-144h240v-128h-240v-144h288v-128h-416v672h416v-128z" />
    <glyph glyph-name="ecaron" unicode="&#x11b;" horiz-adv-x="560" 
d="M336 704h112l-140 -144h-57l-139 144h112l56 -73zM528 248c0 -9.33301 -0.666016 -22.667 -1.99902 -40h-361c9.33301 -34 26.5 -61.167 51.5 -81.5s56.833 -30.5 95.5 -30.5c55.333 0 104.666 15.333 147.999 46l37 -111
c-5.33301 -3.33301 -12.833 -7.66602 -22.5 -12.999s-30.667 -12.333 -63 -21s-66.166 -13 -101.499 -13c-92 0 -161.333 24.667 -208 74s-70 112.666 -70 189.999s22 140.666 66 189.999s107.333 74 190 74c77.333 0 136.666 -23.167 177.999 -69.5
s62 -111.166 62 -194.499zM168.001 303.999h224c0 24 -9.83301 46 -29.5 66s-47.167 30 -82.5 30c-30 0 -56.167 -10.5 -78.5 -31.5s-33.5 -42.5 -33.5 -64.5z" />
    <glyph glyph-name="Gbreve" unicode="&#x11e;" horiz-adv-x="752" 
d="M452 880h68c0 -40 -14 -74 -42 -102s-62 -42 -102 -42s-74 14 -102 42s-42 62 -42 102h68c0 -21.333 7.33301 -39.333 22 -54s32.667 -22 54 -22s39.333 7.33301 54 22s22 32.667 22 54zM715 392c3.33301 -21.333 5.00098 -39.999 5.00098 -55.999
c0 -98 -32 -181.167 -96 -249.5s-144 -102.5 -240 -102.5c-97.333 0 -180.333 34.333 -249 103s-103 151.667 -103 249s34.333 180.333 103 249s151.667 103 249 103c67.333 0 127.333 -17.333 180 -52s94 -81.334 124 -140.001l-129 -36c-18 30.667 -42.167 55 -72.5 73
s-64.5 27 -102.5 27c-62 0 -114.833 -21.833 -158.5 -65.5s-65.5 -96.5 -65.5 -158.5s21.833 -114.833 65.5 -158.5s96.5 -65.5 158.5 -65.5c48 0 89.667 14 125 42s59.666 64.667 72.999 110h-246v128h379z" />
    <glyph glyph-name="gbreve" unicode="&#x11f;" 
d="M404 704h68c0 -40 -14 -74 -42 -102s-62 -42 -102 -42s-74 14 -102 42s-42 62 -42 102h68c0 -21.333 7.33301 -39.333 22 -54s32.667 -22 54 -22s39.333 7.33301 54 22s22 32.667 22 54zM432 496l128.001 -0.00195312v-448c0 -104 -23.5 -183.333 -70.5 -238
s-114.167 -82 -201.5 -82c-31.333 0 -62 3.5 -92 10.5s-55.667 16 -77 27s-37 19.667 -47 26s-18 11.833 -24 16.5l60 113c18.667 -16 44 -30.833 76 -44.5s66.667 -20.5 104 -20.5c43.333 0 78.166 14.5 104.499 43.5s39.5 65.833 39.5 110.5v43
c-40 -46 -90.667 -69 -152 -69c-68.667 0 -127.167 25.833 -175.5 77.5s-72.5 113.834 -72.5 186.501s24.167 134.834 72.5 186.501s106.833 77.5 175.5 77.5c61.333 0 112 -23 152 -69v53zM296.001 111.998c37.333 0 69.333 13.333 96 40s40 58.667 40 96
s-13.333 69.333 -40 96s-58.667 40 -96 40s-69.333 -13.333 -96 -40s-40 -58.667 -40 -96s13.333 -69.333 40 -96s58.667 -40 96 -40z" />
    <glyph glyph-name="Gdotaccent" unicode="&#x120;" horiz-adv-x="752" 
d="M376 720c-22 0 -40.833 7.83301 -56.5 23.5s-23.5 34.5 -23.5 56.5s7.83301 40.833 23.5 56.5s34.5 23.5 56.5 23.5s40.833 -7.83301 56.5 -23.5s23.5 -34.5 23.5 -56.5s-7.83301 -40.833 -23.5 -56.5s-34.5 -23.5 -56.5 -23.5zM715 392
c3.33301 -21.333 5.00098 -39.999 5.00098 -55.999c0 -98 -32 -181.167 -96 -249.5s-144 -102.5 -240 -102.5c-97.333 0 -180.333 34.333 -249 103s-103 151.667 -103 249s34.333 180.333 103 249s151.667 103 249 103c67.333 0 127.333 -17.333 180 -52
s94 -81.334 124 -140.001l-129 -36c-18 30.667 -42.167 55 -72.5 73s-64.5 27 -102.5 27c-62 0 -114.833 -21.833 -158.5 -65.5s-65.5 -96.5 -65.5 -158.5s21.833 -114.833 65.5 -158.5s96.5 -65.5 158.5 -65.5c48 0 89.667 14 125 42s59.666 64.667 72.999 110h-246v128
h379z" />
    <glyph glyph-name="gdotaccent" unicode="&#x121;" 
d="M312 544c-22 0 -40.833 7.83301 -56.5 23.5s-23.5 34.5 -23.5 56.5s7.83301 40.833 23.5 56.5s34.5 23.5 56.5 23.5s40.833 -7.83301 56.5 -23.5s23.5 -34.5 23.5 -56.5s-7.83301 -40.833 -23.5 -56.5s-34.5 -23.5 -56.5 -23.5zM432 496l128.001 -0.00195312v-448
c0 -104 -23.5 -183.333 -70.5 -238s-114.167 -82 -201.5 -82c-31.333 0 -62 3.5 -92 10.5s-55.667 16 -77 27s-37 19.667 -47 26s-18 11.833 -24 16.5l60 113c18.667 -16 44 -30.833 76 -44.5s66.667 -20.5 104 -20.5c43.333 0 78.166 14.5 104.499 43.5
s39.5 65.833 39.5 110.5v43c-40 -46 -90.667 -69 -152 -69c-68.667 0 -127.167 25.833 -175.5 77.5s-72.5 113.834 -72.5 186.501s24.167 134.834 72.5 186.501s106.833 77.5 175.5 77.5c61.333 0 112 -23 152 -69v53zM296.001 111.998c37.333 0 69.333 13.333 96 40
s40 58.667 40 96s-13.333 69.333 -40 96s-58.667 40 -96 40s-69.333 -13.333 -96 -40s-40 -58.667 -40 -96s13.333 -69.333 40 -96s58.667 -40 96 -40z" />
    <glyph glyph-name="Gcommaaccent" unicode="&#x122;" horiz-adv-x="752" 
d="M715 392c3.33301 -21.333 5.00098 -39.999 5.00098 -55.999c0 -98 -32 -181.167 -96 -249.5s-144 -102.5 -240 -102.5c-97.333 0 -180.333 34.333 -249 103s-103 151.667 -103 249s34.333 180.333 103 249s151.667 103 249 103c67.333 0 127.333 -17.333 180 -52
s94 -81.334 124 -140.001l-129 -36c-18 30.667 -42.167 55 -72.5 73s-64.5 27 -102.5 27c-62 0 -114.833 -21.833 -158.5 -65.5s-65.5 -96.5 -65.5 -158.5s21.833 -114.833 65.5 -158.5s96.5 -65.5 158.5 -65.5c48 0 89.667 14 125 42s59.666 64.667 72.999 110h-246v128
h379zM296.001 -191.999l32 128h112l-80 -128h-64z" />
    <glyph glyph-name="gcommaaccent" unicode="&#x123;" 
d="M416 688l-32 -128h-112l80 128h64zM432 496l128.001 -0.00195312v-448c0 -104 -23.5 -183.333 -70.5 -238s-114.167 -82 -201.5 -82c-31.333 0 -62 3.5 -92 10.5s-55.667 16 -77 27s-37 19.667 -47 26s-18 11.833 -24 16.5l60 113c18.667 -16 44 -30.833 76 -44.5
s66.667 -20.5 104 -20.5c43.333 0 78.166 14.5 104.499 43.5s39.5 65.833 39.5 110.5v43c-40 -46 -90.667 -69 -152 -69c-68.667 0 -127.167 25.833 -175.5 77.5s-72.5 113.834 -72.5 186.501s24.167 134.834 72.5 186.501s106.833 77.5 175.5 77.5
c61.333 0 112 -23 152 -69v53zM296.001 111.998c37.333 0 69.333 13.333 96 40s40 58.667 40 96s-13.333 69.333 -40 96s-58.667 40 -96 40s-69.333 -13.333 -96 -40s-40 -58.667 -40 -96s13.333 -69.333 40 -96s58.667 -40 96 -40z" />
    <glyph glyph-name="Hbar" unicode="&#x126;" horiz-adv-x="672" 
d="M656 584v-64h-48v-520h-128v272h-288v-272h-128v520h-48v64h48v88h128v-88h288v88h128v-88h48zM480 400v120h-288v-120h288z" />
    <glyph glyph-name="hbar" unicode="&#x127;" horiz-adv-x="592" 
d="M358 512c58 0 103.499 -19 136.499 -57s49.5 -93.667 49.5 -167v-288h-128v272c0 38.667 -7.66699 67 -23 85s-39.666 27 -72.999 27c-32 0 -58.667 -10.667 -80 -32s-32 -53.333 -32 -96v-256h-128v552h-64v64h64v88h128v-88h64v-64h-64v-104c36 42.667 86 64 150 64z
" />
    <glyph glyph-name="Imacron" unicode="&#x12a;" horiz-adv-x="256" 
d="M272 752h-288v64h288v-64zM192 0h-128v672h128v-672z" />
    <glyph glyph-name="imacron" unicode="&#x12b;" horiz-adv-x="256" 
d="M272 576h-288v64h288v-64zM64 0v496h128v-496h-128z" />
    <glyph glyph-name="Iogonek" unicode="&#x12e;" horiz-adv-x="256" 
d="M192 -134l16.001 -58c-16 -10.667 -35.333 -16 -58 -16c-37.333 0 -66.333 11.5 -87 34.5s-31 52.833 -31 89.5c0 14.667 3.16699 30.5 9.5 47.5s13.833 29.167 22.5 36.5v672h128v-672c-24 -0 -46 -7.66699 -66 -23s-30 -34.333 -30 -57
c0 -27.333 10.167 -46.5 30.5 -57.5s42.166 -9.83301 65.499 3.5z" />
    <glyph glyph-name="iogonek" unicode="&#x12f;" horiz-adv-x="256" 
d="M128 560c-24.667 0 -45.5 8.5 -62.5 25.5s-25.5 37.833 -25.5 62.5s8.5 45.5 25.5 62.5s37.833 25.5 62.5 25.5s45.5 -8.5 62.5 -25.5s25.5 -37.833 25.5 -62.5s-8.5 -45.5 -25.5 -62.5s-37.833 -25.5 -62.5 -25.5zM96 -80c0 -27.333 10.168 -46.5 30.501 -57.5
s42.166 -9.83301 65.499 3.5l16 -58c-16 -10.667 -35.333 -16 -58 -16c-37.333 0 -66.333 11.5 -87 34.5s-31 52.833 -31 89.5c0 14.667 3.16699 30.5 9.5 47.5s13.833 29.167 22.5 36.5v496h128v-496c-24 -0 -46 -7.66699 -66 -23s-30 -34.333 -30 -57z" />
    <glyph glyph-name="Idotaccent" unicode="&#x130;" horiz-adv-x="256" 
d="M128 720c-22 0 -40.833 7.83301 -56.5 23.5s-23.5 34.5 -23.5 56.5s7.83301 40.833 23.5 56.5s34.5 23.5 56.5 23.5s40.833 -7.83301 56.5 -23.5s23.5 -34.5 23.5 -56.5s-7.83301 -40.833 -23.5 -56.5s-34.5 -23.5 -56.5 -23.5zM192 0h-128v672h128v-672z" />
    <glyph glyph-name="dotlessi" unicode="&#x131;" horiz-adv-x="256" 
d="M64 0v496h128v-496h-128z" />
    <glyph glyph-name="IJ" unicode="&#x132;" horiz-adv-x="720" 
d="M192 0h-128v672h128v-672zM544 672h128.001v-416c0 -92.667 -20.667 -161.167 -62 -205.5s-98 -66.5 -170 -66.5c-26.667 0 -55 6 -85 18s-52.333 26.667 -67 44l70 106c21.333 -26.667 48.666 -40 81.999 -40c32.667 0 58.167 11.5 76.5 34.5s27.5 51.5 27.5 85.5v440z
" />
    <glyph glyph-name="ij" unicode="&#x133;" horiz-adv-x="512" 
d="M128 560c-24.667 0 -45.5 8.5 -62.5 25.5s-25.5 37.833 -25.5 62.5s8.5 45.5 25.5 62.5s37.833 25.5 62.5 25.5s45.5 -8.5 62.5 -25.5s25.5 -37.833 25.5 -62.5s-8.5 -45.5 -25.5 -62.5s-37.833 -25.5 -62.5 -25.5zM384 560c-24.667 0 -45.5 8.5 -62.5 25.5
s-25.5 37.833 -25.5 62.5s8.5 45.5 25.5 62.5s37.833 25.5 62.5 25.5s45.5 -8.5 62.5 -25.5s25.5 -37.833 25.5 -62.5s-8.5 -45.5 -25.5 -62.5s-37.833 -25.5 -62.5 -25.5zM64 0v496h128v-496h-128zM320 -16v512.002h128v-496c0 -53.333 -6.5 -98.833 -19.5 -136.5
s-30.333 -65.834 -52 -84.501s-43.5 -31.834 -65.5 -39.501s-45.667 -11.5 -71 -11.5l-32 112c34 0 61.167 12.5 81.5 37.5s30.5 60.5 30.5 106.5z" />
    <glyph glyph-name="Kcommaaccent" unicode="&#x136;" 
d="M304 351l304 -351h-162l-254 294v-294h-128v672h128v-278l238 278h162zM210 -192l32 128h112l-80 -128h-64z" />
    <glyph glyph-name="kcommaaccent" unicode="&#x137;" horiz-adv-x="560" 
d="M304 256l256 -256h-160l-208 196v-196h-128v704h128v-396l192 188h160zM186 -192l32 128h112l-80 -128h-64z" />
    <glyph glyph-name="Lacute" unicode="&#x139;" horiz-adv-x="496" 
d="M64 736l80 144h144l-144 -144h-80zM192 128h272v-128h-400v672h128v-544z" />
    <glyph glyph-name="lacute" unicode="&#x13a;" horiz-adv-x="256" 
d="M64 768l80 144h144l-144 -144h-80zM64 704h128v-704h-128v704z" />
    <glyph glyph-name="Lcommaaccent" unicode="&#x13b;" horiz-adv-x="496" 
d="M192 128h272v-128h-400v672h128v-544zM168 -192l32 128h112l-80 -128h-64z" />
    <glyph glyph-name="lcommaaccent" unicode="&#x13c;" horiz-adv-x="256" 
d="M64 704h128v-704h-128v704zM40 -192l32 128h112l-80 -128h-64z" />
    <glyph glyph-name="Lcaron" unicode="&#x13d;" horiz-adv-x="512" 
d="M192 128h272v-128h-400v672h128v-544zM320 544l32 128h112l-80 -128h-64z" />
    <glyph glyph-name="lcaron" unicode="&#x13e;" horiz-adv-x="384" 
d="M64 704h128v-704h-128v704zM224 544l32 128h112l-80 -128h-64z" />
    <glyph glyph-name="Ldot" unicode="&#x13f;" horiz-adv-x="512" 
d="M192 128h272v-128h-400v672h128v-544zM400 296c-22.667 0 -41.667 7.66699 -57 23s-23 34.333 -23 57s7.66699 41.667 23 57s34.333 23 57 23s41.667 -7.66699 57 -23s23 -34.333 23 -57s-7.66699 -41.667 -23 -57s-34.333 -23 -57 -23z" />
    <glyph glyph-name="ldot" unicode="&#x140;" horiz-adv-x="416" 
d="M64 704h128v-704h-128v704zM320 296c-22.667 0 -41.667 7.66699 -57 23s-23 34.333 -23 57s7.66699 41.667 23 57s34.333 23 57 23s41.667 -7.66699 57 -23s23 -34.333 23 -57s-7.66699 -41.667 -23 -57s-34.333 -23 -57 -23z" />
    <glyph glyph-name="Lslash" unicode="&#x141;" horiz-adv-x="512" 
d="M208 128h272v-128h-400v298l-64 -18v64l64 18v310h128v-275l64 18v-64l-64 -18v-205z" />
    <glyph glyph-name="lslash" unicode="&#x142;" horiz-adv-x="288" 
d="M272 415v-64l-64 -18v-333h-128v298l-64 -18v64l64 18v342h128v-307z" />
    <glyph glyph-name="Nacute" unicode="&#x143;" horiz-adv-x="720" 
d="M288 736l80 144h144l-144 -144h-80zM528 672h128v-672h-128l-336 464v-464h-128v672h128l336 -464v464z" />
    <glyph glyph-name="nacute" unicode="&#x144;" horiz-adv-x="576" 
d="M208 560l80 144h144l-144 -144h-80zM342 512c58 0 103.499 -19 136.499 -57s49.5 -93.667 49.5 -167v-288h-128v272c0 38.667 -7.66699 67 -23 85s-39.666 27 -72.999 27c-32 0 -58.667 -10.667 -80 -32s-32 -53.333 -32 -96v-256h-128v496h128v-48
c36 42.667 86 64 150 64z" />
    <glyph glyph-name="Ncommaaccent" unicode="&#x145;" horiz-adv-x="720" 
d="M528 672h128v-672h-128l-336 464v-464h-128v672h128l336 -464v464zM272 -192l32 128h112l-80 -128h-64z" />
    <glyph glyph-name="ncommaaccent" unicode="&#x146;" horiz-adv-x="576" 
d="M342 512c58 0 103.499 -19 136.499 -57s49.5 -93.667 49.5 -167v-288h-128v272c0 38.667 -7.66699 67 -23 85s-39.666 27 -72.999 27c-32 0 -58.667 -10.667 -80 -32s-32 -53.333 -32 -96v-256h-128v496h128v-48c36 42.667 86 64 150 64zM201.999 -192l32 128h112
l-80 -128h-64z" />
    <glyph glyph-name="Ncaron" unicode="&#x147;" horiz-adv-x="720" 
d="M416 880h112l-140 -144h-57l-139 144h112l56 -73zM528 672h128v-672h-128l-336 464v-464h-128v672h128l336 -464v464z" />
    <glyph glyph-name="ncaron" unicode="&#x148;" horiz-adv-x="576" 
d="M328 704h112l-140 -144h-57l-139 144h112l56 -73zM342 512c58 0 103.499 -19 136.499 -57s49.5 -93.667 49.5 -167v-288h-128v272c0 38.667 -7.66699 67 -23 85s-39.666 27 -72.999 27c-32 0 -58.667 -10.667 -80 -32s-32 -53.333 -32 -96v-256h-128v496h128v-48
c36 42.667 86 64 150 64z" />
    <glyph glyph-name="Eng" unicode="&#x14a;" horiz-adv-x="720" 
d="M528 672l128 0.00195312v-672c0 -53.333 -6.5 -98.833 -19.5 -136.5s-30.333 -65.834 -52 -84.501s-43.5 -31.834 -65.5 -39.501s-45.667 -11.5 -71 -11.5l-32 112c34 0 61.167 12.5 81.5 37.5s30.5 60.5 30.5 106.5v16l-336 464v-464h-128v672h128l336 -464v464z" />
    <glyph glyph-name="eng" unicode="&#x14b;" horiz-adv-x="576" 
d="M342 512c58 0 103.499 -18.998 136.499 -56.998s49.5 -93.667 49.5 -167v-288c0 -53.333 -6.5 -98.833 -19.5 -136.5s-30.333 -65.834 -52 -84.501s-43.5 -31.834 -65.5 -39.501s-45.667 -11.5 -71 -11.5l-32 112c34 0 61.167 12.5 81.5 37.5s30.5 60.5 30.5 106.5v288
c0 38.667 -7.66699 67 -23 85s-39.666 27 -72.999 27c-32 0 -58.667 -10.667 -80 -32s-32 -53.333 -32 -96v-256h-128v496h128v-48c36 42.667 86 64 150 64z" />
    <glyph glyph-name="Omacron" unicode="&#x14c;" horiz-adv-x="768" 
d="M528 752h-288v64h288v-64zM384 688c97.333 0 180.333 -34.333 249 -103s103 -151.667 103 -249s-34.333 -180.333 -103 -249s-151.667 -103 -249 -103s-180.333 34.333 -249 103s-103 151.667 -103 249s34.333 180.333 103 249s151.667 103 249 103zM384 112
c62 0 114.833 21.833 158.5 65.5s65.5 96.5 65.5 158.5s-21.833 114.833 -65.5 158.5s-96.5 65.5 -158.5 65.5s-114.833 -21.833 -158.5 -65.5s-65.5 -96.5 -65.5 -158.5s21.833 -114.833 65.5 -158.5s96.5 -65.5 158.5 -65.5z" />
    <glyph glyph-name="omacron" unicode="&#x14d;" horiz-adv-x="592" 
d="M440 576h-288v64h288v-64zM296 512c73.333 0 135.666 -25.667 186.999 -77s77 -113.666 77 -186.999s-25.667 -135.666 -77 -186.999s-113.666 -77 -186.999 -77s-135.666 25.667 -186.999 77s-77 113.666 -77 186.999s25.667 135.666 77 186.999s113.666 77 186.999 77z
M296 112c37.333 0 69.333 13.333 96 40s40 58.667 40 96s-13.333 69.333 -40 96s-58.667 40 -96 40s-69.333 -13.333 -96 -40s-40 -58.667 -40 -96s13.333 -69.333 40 -96s58.667 -40 96 -40z" />
    <glyph glyph-name="Ohungarumlaut" unicode="&#x150;" horiz-adv-x="768" 
d="M232 736l32 128h120l-80 -128h-72zM456 736l32 128h120l-80 -128h-72zM384 688c97.333 0 180.333 -34.333 249 -103s103 -151.667 103 -249s-34.333 -180.333 -103 -249s-151.667 -103 -249 -103s-180.333 34.333 -249 103s-103 151.667 -103 249s34.333 180.333 103 249
s151.667 103 249 103zM384 112c62 0 114.833 21.833 158.5 65.5s65.5 96.5 65.5 158.5s-21.833 114.833 -65.5 158.5s-96.5 65.5 -158.5 65.5s-114.833 -21.833 -158.5 -65.5s-65.5 -96.5 -65.5 -158.5s21.833 -114.833 65.5 -158.5s96.5 -65.5 158.5 -65.5z" />
    <glyph glyph-name="ohungarumlaut" unicode="&#x151;" horiz-adv-x="592" 
d="M144 560l32 128h120l-80 -128h-72zM368 560l32 128h120l-80 -128h-72zM296 512c73.333 0 135.666 -25.667 186.999 -77s77 -113.666 77 -186.999s-25.667 -135.666 -77 -186.999s-113.666 -77 -186.999 -77s-135.666 25.667 -186.999 77s-77 113.666 -77 186.999
s25.667 135.666 77 186.999s113.666 77 186.999 77zM296 112c37.333 0 69.333 13.333 96 40s40 58.667 40 96s-13.333 69.333 -40 96s-58.667 40 -96 40s-69.333 -13.333 -96 -40s-40 -58.667 -40 -96s13.333 -69.333 40 -96s58.667 -40 96 -40z" />
    <glyph glyph-name="OE" unicode="&#x152;" horiz-adv-x="1072" 
d="M1024 544h-288v-144h240v-128h-240v-144h288v-128h-416v65c-64.667 -54 -139.334 -81 -224.001 -81c-97.333 0 -180.333 34.333 -249 103s-103 151.667 -103 249s34.333 180.333 103 249s151.667 103 249 103c84.667 0 159.334 -27 224.001 -81v65h416v-128zM384 112
c62 0 114.833 21.833 158.5 65.5s65.5 96.5 65.5 158.5s-21.833 114.833 -65.5 158.5s-96.5 65.5 -158.5 65.5s-114.833 -21.833 -158.5 -65.5s-65.5 -96.5 -65.5 -158.5s21.833 -114.833 65.5 -158.5s96.5 -65.5 158.5 -65.5z" />
    <glyph glyph-name="oe" unicode="&#x153;" horiz-adv-x="960" 
d="M928 248c0 -9.33301 -0.666016 -22.667 -1.99902 -40h-361c9.33301 -34 26.5 -61.167 51.5 -81.5s56.833 -30.5 95.5 -30.5c55.333 0 104.666 15.333 147.999 46l37 -111c-5.33301 -3.33301 -12.833 -7.66602 -22.5 -12.999s-30.667 -12.333 -63 -21
s-66.166 -13 -101.499 -13c-97.333 0 -170.333 28.667 -219 86c-52 -57.333 -117 -86 -195 -86c-73.333 0 -135.666 25.667 -186.999 77s-77 113.666 -77 186.999s25.667 135.666 77 186.999s113.666 77 186.999 77c76.667 0 141 -28 193 -84c46 56 112.333 84 199 84
c77.333 0 136.666 -23.167 177.999 -69.5s62 -111.166 62 -194.499zM568.001 303.999h224c0 24 -9.83301 46 -29.5 66s-47.167 30 -82.5 30c-30 0 -56.167 -10.5 -78.5 -31.5s-33.5 -42.5 -33.5 -64.5zM296.001 111.999c37.333 0 69.333 13.333 96 40s40 58.667 40 96
s-13.333 69.333 -40 96s-58.667 40 -96 40s-69.333 -13.333 -96 -40s-40 -58.667 -40 -96s13.333 -69.333 40 -96s58.667 -40 96 -40z" />
    <glyph glyph-name="Racute" unicode="&#x154;" horiz-adv-x="608" 
d="M200 736l80 144h144l-144 -144h-80zM576 0l-156 0.00195312l-151 224h-77v-224h-128v672h240c84.667 0 148.5 -20.333 191.5 -61s64.5 -95 64.5 -163c0 -48.667 -13.667 -92.834 -41 -132.501s-65 -66.834 -113 -81.501zM192 544.002v-192.001h128
c31.333 0 57.833 9 79.5 27s32.5 41 32.5 69c0 30.667 -10.5 54.334 -31.5 71.001s-47.833 25 -80.5 25h-128z" />
    <glyph glyph-name="racute" unicode="&#x155;" horiz-adv-x="432" 
d="M120 560l80 144h144l-144 -144h-80zM192 391c16 36.667 42.667 65.168 80 85.501s80 32.166 128 35.499v-151c-33.333 8.66699 -65.333 8.66699 -96 0s-57 -26.167 -79 -52.5s-33 -59.833 -33 -100.5v-208h-128v496h128v-105z" />
    <glyph glyph-name="Rcommaaccent" unicode="&#x156;" horiz-adv-x="608" 
d="M576 0l-156 0.00195312l-151 224h-77v-224h-128v672h240c84.667 0 148.5 -20.333 191.5 -61s64.5 -95 64.5 -163c0 -48.667 -13.667 -92.834 -41 -132.501s-65 -66.834 -113 -81.501zM192 544.002v-192.001h128c31.333 0 57.833 9 79.5 27s32.5 41 32.5 69
c0 30.667 -10.5 54.334 -31.5 71.001s-47.833 25 -80.5 25h-128zM200 -191.999l32 128h112l-80 -128h-64z" />
    <glyph glyph-name="rcommaaccent" unicode="&#x157;" horiz-adv-x="432" 
d="M192 391c16 36.667 42.667 65.168 80 85.501s80 32.166 128 35.499v-151c-33.333 8.66699 -65.333 8.66699 -96 0s-57 -26.167 -79 -52.5s-33 -59.833 -33 -100.5v-208h-128v496h128v-105zM48 -191.999l32 128h112l-80 -128h-64z" />
    <glyph glyph-name="Rcaron" unicode="&#x158;" horiz-adv-x="608" 
d="M328 880h112l-140 -144h-57l-139 144h112l56 -73zM576 0l-156 0.00195312l-151 224h-77v-224h-128v672h240c84.667 0 148.5 -20.333 191.5 -61s64.5 -95 64.5 -163c0 -48.667 -13.667 -92.834 -41 -132.501s-65 -66.834 -113 -81.501zM192 544.002v-192.001h128
c31.333 0 57.833 9 79.5 27s32.5 41 32.5 69c0 30.667 -10.5 54.334 -31.5 71.001s-47.833 25 -80.5 25h-128z" />
    <glyph glyph-name="rcaron" unicode="&#x159;" horiz-adv-x="432" 
d="M272 704h112l-140 -144h-57l-139 144h112l56 -73zM192 391c16 36.667 42.667 65.168 80 85.501s80 32.166 128 35.499v-151c-33.333 8.66699 -65.333 8.66699 -96 0s-57 -26.167 -79 -52.5s-33 -59.833 -33 -100.5v-208h-128v496h128v-105z" />
    <glyph glyph-name="Sacute" unicode="&#x15a;" horiz-adv-x="608" 
d="M240 736l80 144h144l-144 -144h-80zM320 408c40.667 -6.66699 75 -14.334 103 -23.001s54.333 -20.5 79 -35.5s43.167 -35 55.5 -60s18.5 -54.833 18.5 -89.5c0 -62.667 -23.5 -114.334 -70.5 -155.001s-113.5 -61 -199.5 -61c-108 0 -199.333 37.333 -274 112l64 112
c27.333 -31.333 60.666 -55.166 99.999 -71.499s76.666 -24.5 111.999 -24.5c44 0 78.333 7.33301 103 22s37 34 37 58c0 42.667 -45.333 70.667 -136 84c-92 14 -157.667 37.833 -197 71.5s-59 77.167 -59 130.5c0 58.667 23 108.334 69 149.001s109 61 189 61
c86.667 0 163.334 -27.333 230.001 -82l-54 -110c-49.333 42.667 -108.666 64 -177.999 64c-37.333 0 -68 -5.83301 -92 -17.5s-36 -30.167 -36 -55.5c0 -22 10 -38.667 30 -50s55.333 -21 106 -29z" />
    <glyph glyph-name="sacute" unicode="&#x15b;" horiz-adv-x="512" 
d="M192 560l80 144h144l-144 -144h-80zM281 316c76.667 -12 129.002 -31.6689 157.002 -59.002s42 -59.666 42 -96.999c0 -52 -19.5 -94.333 -58.5 -127s-92.167 -49 -159.5 -49c-52 0 -98.833 8 -140.5 24s-71.5 32 -89.5 48l42 120c21.333 -20 48.5 -36.5 81.5 -49.5
s64.5 -19.833 94.5 -20.5c68 -1.33301 102 13 102 43c0 10.667 -6.16699 18.667 -18.5 24s-35.5 11 -69.5 17c-44.667 7.33301 -81.834 16.5 -111.501 27.5s-51.834 24 -66.501 39s-24.667 30.5 -30 46.5s-8 35 -8 57c0 41.333 20.333 77 61 107s92.667 45 156 45
c66.667 0 131 -16 193 -48l-36 -116c-14 10 -36 19.333 -66 28s-60.333 13.334 -91 14.001c-59.333 1.33301 -89 -8.66699 -89 -30c0 -16.667 20 -28.667 60 -36c6 -1.33301 15.667 -3 29 -5z" />
    <glyph glyph-name="Scedilla" unicode="&#x15e;" horiz-adv-x="608" 
d="M576 200c0 -58 -20.167 -106.833 -60.5 -146.5s-98.166 -62.5 -173.499 -68.5l-33 -33c36.667 4 69 -4.5 97 -25.5s42 -49.833 42 -86.5c0 -41.333 -15.167 -75.666 -45.5 -102.999s-68.5 -41 -114.5 -41c-56 0 -98.667 21 -128 63l54 61c14 -34.667 38.333 -52 73 -52
c29.333 0 52.166 7.16699 68.499 21.5s24.5 31.5 24.5 51.5c0 19.333 -7.33301 34.666 -22 45.999s-32.667 17 -54 17c-25.333 0 -46 -5.33301 -62 -16l-34 48l51 51c-88 9.33301 -163.667 45.666 -227 108.999l64 112c27.333 -31.333 60.666 -55.166 99.999 -71.499
s76.666 -24.5 111.999 -24.5c44 0 78.333 7.33301 103 22s37 34 37 58c0 42.667 -45.333 70.667 -136 84c-92 14 -157.667 37.833 -197 71.5s-59 77.167 -59 130.5c0 58.667 23 108.334 69 149.001s109 61 189 61c86.667 0 163.334 -27.333 230.001 -82l-54 -110
c-49.333 42.667 -108.666 64 -177.999 64c-37.333 0 -68 -5.83301 -92 -17.5s-36 -30.167 -36 -55.5c0 -22 10 -38.667 30 -50s55.333 -21 106 -29c40.667 -6.66699 75 -14.334 103 -23.001s54.333 -20.5 79 -35.5s43.167 -35 55.5 -60s18.5 -54.833 18.5 -89.5z" />
    <glyph glyph-name="scedilla" unicode="&#x15f;" horiz-adv-x="512" 
d="M480 160c0 -46 -15.666 -84.833 -46.999 -116.5s-74.666 -50.834 -129.999 -57.501l-34 -34c36.667 4 69 -4.5 97 -25.5s42 -49.833 42 -86.5c0 -41.333 -15.167 -75.666 -45.5 -102.999s-68.5 -41 -114.5 -41c-56 0 -98.667 21 -128 63l54 61
c14 -34.667 38.333 -52 73 -52c29.333 0 52.166 7.16699 68.499 21.5s24.5 31.5 24.5 51.5c0 19.333 -7.33301 34.666 -22 45.999s-32.667 17 -54 17c-25.333 0 -46 -5.33301 -62 -16l-34 48l50 50c-42 4.66699 -79.667 14.167 -113 28.5s-57.666 28.166 -72.999 41.499
l42 120c21.333 -20 48.5 -36.5 81.5 -49.5s64.5 -19.833 94.5 -20.5c68 -1.33301 102 13 102 43c0 10.667 -6.16699 18.667 -18.5 24s-35.5 11 -69.5 17c-44.667 7.33301 -81.834 16.5 -111.501 27.5s-51.834 24 -66.501 39s-24.667 30.5 -30 46.5s-8 35 -8 57
c0 41.333 20.333 77 61 107s92.667 45 156 45c66.667 0 131 -16 193 -48l-36 -116c-14 10 -36 19.333 -66 28s-60.333 13.334 -91 14.001c-59.333 1.33301 -89 -8.66699 -89 -30c0 -16.667 20 -28.667 60 -36c6 -1.33301 15.667 -3 29 -5l16 -3
c76.667 -12 129 -31.667 157 -59s42 -59.666 42 -96.999z" />
    <glyph glyph-name="Scaron" unicode="&#x160;" horiz-adv-x="608" 
d="M360 880h112l-140 -144h-57l-139 144h112l56 -73zM320 408c40.667 -6.66699 75 -14.334 103 -23.001s54.333 -20.5 79 -35.5s43.167 -35 55.5 -60s18.5 -54.833 18.5 -89.5c0 -62.667 -23.5 -114.334 -70.5 -155.001s-113.5 -61 -199.5 -61
c-108 0 -199.333 37.333 -274 112l64 112c27.333 -31.333 60.666 -55.166 99.999 -71.499s76.666 -24.5 111.999 -24.5c44 0 78.333 7.33301 103 22s37 34 37 58c0 42.667 -45.333 70.667 -136 84c-92 14 -157.667 37.833 -197 71.5s-59 77.167 -59 130.5
c0 58.667 23 108.334 69 149.001s109 61 189 61c86.667 0 163.334 -27.333 230.001 -82l-54 -110c-49.333 42.667 -108.666 64 -177.999 64c-37.333 0 -68 -5.83301 -92 -17.5s-36 -30.167 -36 -55.5c0 -22 10 -38.667 30 -50s55.333 -21 106 -29z" />
    <glyph glyph-name="scaron" unicode="&#x161;" horiz-adv-x="512" 
d="M312 704h112l-140 -144h-57l-139 144h112l56 -73zM281 316c76.667 -12 129.002 -31.6689 157.002 -59.002s42 -59.666 42 -96.999c0 -52 -19.5 -94.333 -58.5 -127s-92.167 -49 -159.5 -49c-52 0 -98.833 8 -140.5 24s-71.5 32 -89.5 48l42 120
c21.333 -20 48.5 -36.5 81.5 -49.5s64.5 -19.833 94.5 -20.5c68 -1.33301 102 13 102 43c0 10.667 -6.16699 18.667 -18.5 24s-35.5 11 -69.5 17c-44.667 7.33301 -81.834 16.5 -111.501 27.5s-51.834 24 -66.501 39s-24.667 30.5 -30 46.5s-8 35 -8 57
c0 41.333 20.333 77 61 107s92.667 45 156 45c66.667 0 131 -16 193 -48l-36 -116c-14 10 -36 19.333 -66 28s-60.333 13.334 -91 14.001c-59.333 1.33301 -89 -8.66699 -89 -30c0 -16.667 20 -28.667 60 -36c6 -1.33301 15.667 -3 29 -5z" />
    <glyph glyph-name="uni0162" unicode="&#x162;" horiz-adv-x="544" 
d="M336 0h-18.999l-48 -48c36.667 4 69 -4.5 97 -25.5s42 -49.833 42 -86.5c0 -41.333 -15.167 -75.666 -45.5 -102.999s-68.5 -41 -114.5 -41c-56 0 -98.667 21 -128 63l54 61c14 -34.667 38.333 -52 73 -52c29.333 0 52.166 7.16699 68.499 21.5s24.5 31.5 24.5 51.5
c0 19.333 -7.33301 34.666 -22 45.999s-32.667 17 -54 17c-25.333 0 -46 -5.33301 -62 -16l-34 48l64 64h-24v544h-176v128h480v-128h-176v-544z" />
    <glyph glyph-name="uni0163" unicode="&#x163;" horiz-adv-x="368" 
d="M197 -48c36.667 4 69.001 -4.5 97.001 -25.5s42 -49.833 42 -86.5c0 -41.333 -15.167 -75.666 -45.5 -102.999s-68.5 -41 -114.5 -41c-56 0 -98.667 21 -128 63l54 61c14 -34.667 38.333 -52 73 -52c29.333 0 52.166 7.16699 68.499 21.5s24.5 31.5 24.5 51.5
c0 19.333 -7.33301 34.666 -22 45.999s-32.667 17 -54 17c-25.333 0 -46 -5.33301 -62 -16l-34 48l64 64c-42.667 23.333 -64 70.333 -64 141v243h-64v112h64v176h128v-176h96v-112h-96v-208c0 -35.333 8.16699 -57.333 24.5 -66s40.166 -8 71.499 2v-112
c-25.333 -10.667 -55.666 -16 -90.999 -16z" />
    <glyph glyph-name="Tcaron" unicode="&#x164;" horiz-adv-x="544" 
d="M328 880h112l-140 -144h-57l-139 144h112l56 -73zM32 672h480v-128h-176v-544h-128v544h-176v128z" />
    <glyph glyph-name="tcaron" unicode="&#x165;" horiz-adv-x="528" 
d="M96 141l0.000976562 243h-64v112h64v176h128v-176h96v-112h-96v-208c0 -35.333 8.16699 -57.333 24.5 -66s40.166 -8 71.499 2v-112c-26.667 -10.667 -58 -16 -94 -16c-44 0 -76.667 14.167 -98 42.5s-32 66.5 -32 114.5zM352.001 544l32 128h112l-80 -128h-64z" />
    <glyph glyph-name="Tbar" unicode="&#x166;" horiz-adv-x="544" 
d="M512 544h-176v-200h64v-64h-64v-280h-128v280h-64v64h64v200h-176v128h480v-128z" />
    <glyph glyph-name="tbar" unicode="&#x167;" horiz-adv-x="368" 
d="M320 384h-95.999v-80h96v-64h-96v-64c0 -35.333 8.16699 -57.333 24.5 -66s40.166 -8 71.499 2v-112c-26.667 -10.667 -58 -16 -94 -16c-44 0 -76.667 14.167 -98 42.5s-32 66.5 -32 114.5v99h-64v64h64v80h-64v112h64v176h128v-176h96v-112z" />
    <glyph glyph-name="Umacron" unicode="&#x16a;" horiz-adv-x="640" 
d="M464 752h-288v64h288v-64zM464 672h127.998v-384c0 -90.667 -24.167 -164 -72.5 -220s-114.833 -84 -199.5 -84c-86 0 -152.833 28 -200.5 84s-71.5 129.333 -71.5 220v384h128v-400c0 -47.333 13.833 -85.833 41.5 -115.5s61.834 -44.5 102.501 -44.5
s74.834 14.833 102.501 44.5s41.5 68.167 41.5 115.5v400z" />
    <glyph glyph-name="umacron" unicode="&#x16b;" horiz-adv-x="576" 
d="M432 576h-288v64h288v-64zM234 -16c-58 0 -103.501 19 -136.501 57s-49.5 93.667 -49.5 167v288h128v-272c0 -38.667 7.83301 -67 23.5 -85s39.834 -27 72.501 -27c32 0 58.667 10.667 80 32s32 53.333 32 96v256h128v-496h-128v48c-36 -42.667 -86 -64 -150 -64z" />
    <glyph glyph-name="Uring" unicode="&#x16e;" horiz-adv-x="640" 
d="M320 944c33.333 0 61.666 -11.667 84.999 -35s35 -51.666 35 -84.999s-11.667 -61.666 -35 -84.999s-51.666 -35 -84.999 -35s-61.666 11.667 -84.999 35s-35 51.666 -35 84.999s11.667 61.666 35 84.999s51.666 35 84.999 35zM320 768c15.333 0 28.5 5.5 39.5 16.5
s16.5 24.167 16.5 39.5s-5.5 28.5 -16.5 39.5s-24.167 16.5 -39.5 16.5s-28.5 -5.5 -39.5 -16.5s-16.5 -24.167 -16.5 -39.5s5.5 -28.5 16.5 -39.5s24.167 -16.5 39.5 -16.5zM464 672h127.998v-384c0 -90.667 -24.167 -164 -72.5 -220s-114.833 -84 -199.5 -84
c-86 0 -152.833 28 -200.5 84s-71.5 129.333 -71.5 220v384h128v-400c0 -47.333 13.833 -85.833 41.5 -115.5s61.834 -44.5 102.501 -44.5s74.834 14.833 102.501 44.5s41.5 68.167 41.5 115.5v400z" />
    <glyph glyph-name="uring" unicode="&#x16f;" horiz-adv-x="576" 
d="M288 768c33.333 0 61.666 -11.667 84.999 -35s35 -51.666 35 -84.999s-11.667 -61.666 -35 -84.999s-51.666 -35 -84.999 -35s-61.666 11.667 -84.999 35s-35 51.666 -35 84.999s11.667 61.666 35 84.999s51.666 35 84.999 35zM288 592c15.333 0 28.5 5.5 39.5 16.5
s16.5 24.167 16.5 39.5s-5.5 28.5 -16.5 39.5s-24.167 16.5 -39.5 16.5s-28.5 -5.5 -39.5 -16.5s-16.5 -24.167 -16.5 -39.5s5.5 -28.5 16.5 -39.5s24.167 -16.5 39.5 -16.5zM234 -16c-58 0 -103.501 19 -136.501 57s-49.5 93.667 -49.5 167v288h128v-272
c0 -38.667 7.83301 -67 23.5 -85s39.834 -27 72.501 -27c32 0 58.667 10.667 80 32s32 53.333 32 96v256h128v-496h-128v48c-36 -42.667 -86 -64 -150 -64z" />
    <glyph glyph-name="Uhungarumlaut" unicode="&#x170;" horiz-adv-x="640" 
d="M160 736l32 128h120l-80 -128h-72zM384 736l32 128h120l-80 -128h-72zM464 672h127.998v-384c0 -90.667 -24.167 -164 -72.5 -220s-114.833 -84 -199.5 -84c-86 0 -152.833 28 -200.5 84s-71.5 129.333 -71.5 220v384h128v-400c0 -47.333 13.833 -85.833 41.5 -115.5
s61.834 -44.5 102.501 -44.5s74.834 14.833 102.501 44.5s41.5 68.167 41.5 115.5v400z" />
    <glyph glyph-name="uhungarumlaut" unicode="&#x171;" horiz-adv-x="576" 
d="M120 560l32 128h120l-80 -128h-72zM344 560l32 128h120l-80 -128h-72zM234 -16c-58 0 -103.501 19 -136.501 57s-49.5 93.667 -49.5 167v288h128v-272c0 -38.667 7.83301 -67 23.5 -85s39.834 -27 72.501 -27c32 0 58.667 10.667 80 32s32 53.333 32 96v256h128v-496
h-128v48c-36 -42.667 -86 -64 -150 -64z" />
    <glyph glyph-name="Uogonek" unicode="&#x172;" horiz-adv-x="640" 
d="M464 672l128 -0.000976562v-384c0 -81.333 -20 -149.166 -60 -203.499s-95.667 -86.833 -167 -97.5c-12.667 -1.33301 -23.334 -8.83301 -32.001 -22.5s-13 -28.5 -13 -44.5c0 -27.333 10.167 -46.5 30.5 -57.5s42.166 -9.83301 65.499 3.5l16 -58
c-16 -10.667 -35.333 -16 -58 -16c-37.333 0 -66.333 11.5 -87 34.5s-31 52.833 -31 89.5c0 26.667 7 50.334 21 71.001c-73.333 9.33301 -129.833 41.166 -169.5 95.499s-59.5 122.833 -59.5 205.5v384h128v-400c0 -47.333 13.833 -85.833 41.5 -115.5
s61.834 -44.5 102.501 -44.5s74.834 14.833 102.501 44.5s41.5 68.167 41.5 115.5v400z" />
    <glyph glyph-name="uogonek" unicode="&#x173;" horiz-adv-x="576" 
d="M512 -134l16 -58c-16 -10.667 -35.333 -16 -58 -16c-37.333 0 -66.333 11.5 -87 34.5s-31 52.833 -31 89.5c0 14.667 3.16699 30.5 9.5 47.5s13.833 29.167 22.5 36.5v48c-36 -42.667 -86 -64 -150 -64c-58 0 -103.5 19 -136.5 57s-49.5 93.667 -49.5 167v288h128v-272
c0 -38.667 7.83301 -67 23.5 -85s39.834 -27 72.501 -27c32 0 58.667 10.667 80 32s32 53.333 32 96v256h128v-496c-24 -0 -46 -7.66699 -66 -23s-30 -34.333 -30 -57c0 -27.333 10.167 -46.5 30.5 -57.5s42.166 -9.83301 65.499 3.5z" />
    <glyph glyph-name="Wcircumflex" unicode="&#x174;" horiz-adv-x="992" 
d="M552 736l-56 73l-56 -73h-112l139 144h57l140 -144h-112zM552 672l128 -448l160 448h144l-240 -672h-128l-120 416l-120 -416h-128l-240 672h144l160 -448l128 448h112z" />
    <glyph glyph-name="wcircumflex" unicode="&#x175;" horiz-adv-x="768" 
d="M440 560l-56 73l-56 -73h-112l139 144h57l140 -144h-112zM616 496h144l-168 -496h-116l-92 272l-92 -272h-116l-168 496h144l88 -320l96 320h96l96 -320z" />
    <glyph glyph-name="Ycircumflex" unicode="&#x176;" horiz-adv-x="608" 
d="M360 736l-56 73l-56 -73h-112l139 144h57l140 -144h-112zM456 672h152l-240 -400v-272h-128v272l-240 400h152l152 -272z" />
    <glyph glyph-name="ycircumflex" unicode="&#x177;" horiz-adv-x="528" 
d="M320 560l-56 73l-56 -73h-112l139 144h57l140 -144h-112zM384 496h144l-320 -752h-144l128 292l-192 460h144l120 -292z" />
    <glyph glyph-name="Ydieresis" unicode="&#x178;" horiz-adv-x="608" 
d="M208 736c-18 0 -33.167 6.16699 -45.5 18.5s-18.5 27.5 -18.5 45.5s6.16699 33.167 18.5 45.5s27.5 18.5 45.5 18.5s33.167 -6.16699 45.5 -18.5s18.5 -27.5 18.5 -45.5s-6.16699 -33.167 -18.5 -45.5s-27.5 -18.5 -45.5 -18.5zM400 736
c-18 0 -33.167 6.16699 -45.5 18.5s-18.5 27.5 -18.5 45.5s6.16699 33.167 18.5 45.5s27.5 18.5 45.5 18.5s33.167 -6.16699 45.5 -18.5s18.5 -27.5 18.5 -45.5s-6.16699 -33.167 -18.5 -45.5s-27.5 -18.5 -45.5 -18.5zM456 672h152l-240 -400v-272h-128v272l-240 400h152
l152 -272z" />
    <glyph glyph-name="Zacute" unicode="&#x179;" horiz-adv-x="608" 
d="M232 736l80 144h144l-144 -144h-80zM560 0h-528l320 544h-304v128h528l-320 -544h304v-128z" />
    <glyph glyph-name="zacute" unicode="&#x17a;" horiz-adv-x="496" 
d="M184 560l80 144h144l-144 -144h-80zM448 0h-416l216 368h-200v128h416l-216 -368h200v-128z" />
    <glyph glyph-name="Zdotaccent" unicode="&#x17b;" horiz-adv-x="608" 
d="M304 720c-22 0 -40.833 7.83301 -56.5 23.5s-23.5 34.5 -23.5 56.5s7.83301 40.833 23.5 56.5s34.5 23.5 56.5 23.5s40.833 -7.83301 56.5 -23.5s23.5 -34.5 23.5 -56.5s-7.83301 -40.833 -23.5 -56.5s-34.5 -23.5 -56.5 -23.5zM560 0h-528l320 544h-304v128h528
l-320 -544h304v-128z" />
    <glyph glyph-name="zdotaccent" unicode="&#x17c;" horiz-adv-x="496" 
d="M248 544c-22 0 -40.833 7.83301 -56.5 23.5s-23.5 34.5 -23.5 56.5s7.83301 40.833 23.5 56.5s34.5 23.5 56.5 23.5s40.833 -7.83301 56.5 -23.5s23.5 -34.5 23.5 -56.5s-7.83301 -40.833 -23.5 -56.5s-34.5 -23.5 -56.5 -23.5zM448 0h-416l216 368h-200v128h416
l-216 -368h200v-128z" />
    <glyph glyph-name="Zcaron" unicode="&#x17d;" horiz-adv-x="608" 
d="M360 880h112l-140 -144h-57l-139 144h112l56 -73zM560 0h-528l320 544h-304v128h528l-320 -544h304v-128z" />
    <glyph glyph-name="zcaron" unicode="&#x17e;" horiz-adv-x="496" 
d="M304 704h112l-140 -144h-57l-139 144h112l56 -73zM448 0h-416l216 368h-200v128h416l-216 -368h200v-128z" />
    <glyph glyph-name="Aringacute" unicode="&#x1fa;" horiz-adv-x="672" 
d="M272 976l80 144h144l-144 -144h-80zM336 944c33.333 0 61.666 -11.667 84.999 -35s35 -51.666 35 -84.999s-11.667 -61.666 -35 -84.999s-51.666 -35 -84.999 -35s-61.666 11.667 -84.999 35s-35 51.666 -35 84.999s11.667 61.666 35 84.999s51.666 35 84.999 35z
M336 768c15.333 0 28.5 5.5 39.5 16.5s16.5 24.167 16.5 39.5s-5.5 28.5 -16.5 39.5s-24.167 16.5 -39.5 16.5s-28.5 -5.5 -39.5 -16.5s-16.5 -24.167 -16.5 -39.5s5.5 -28.5 16.5 -39.5s24.167 -16.5 39.5 -16.5zM528 0l-50 128h-284l-50 -128h-144l278 672h116l278 -672
h-144zM243 256h186l-93 240z" />
    <glyph glyph-name="aringacute" unicode="&#x1fb;" 
d="M272 800l80 144h144l-144 -144h-80zM336 768c33.333 0 61.666 -11.667 84.999 -35s35 -51.666 35 -84.999s-11.667 -61.666 -35 -84.999s-51.666 -35 -84.999 -35s-61.666 11.667 -84.999 35s-35 51.666 -35 84.999s11.667 61.666 35 84.999s51.666 35 84.999 35z
M336 592c15.333 0 28.5 5.5 39.5 16.5s16.5 24.167 16.5 39.5s-5.5 28.5 -16.5 39.5s-24.167 16.5 -39.5 16.5s-28.5 -5.5 -39.5 -16.5s-16.5 -24.167 -16.5 -39.5s5.5 -28.5 16.5 -39.5s24.167 -16.5 39.5 -16.5zM432 496l128 -0.00195312v-496h-128v53
c-40 -46 -90.667 -69 -152 -69c-68.667 0 -127.167 25.833 -175.5 77.5s-72.5 113.834 -72.5 186.501s24.167 134.834 72.5 186.501s106.833 77.5 175.5 77.5c61.333 0 112 -23 152 -69v53zM296 111.998c37.333 0 69.333 13.333 96 40s40 58.667 40 96
s-13.333 69.333 -40 96s-58.667 40 -96 40s-69.333 -13.333 -96 -40s-40 -58.667 -40 -96s13.333 -69.333 40 -96s58.667 -40 96 -40z" />
    <glyph glyph-name="AEacute" unicode="&#x1fc;" horiz-adv-x="832" 
d="M376 736l80 144h144l-144 -144h-80zM784 544h-288v-144h240v-128h-240v-144h288v-128h-416v128h-166l-58 -128h-144l312 672h472v-128zM261 256h107v236z" />
    <glyph glyph-name="aeacute" unicode="&#x1fd;" horiz-adv-x="896" 
d="M376 560l80 144h144l-144 -144h-80zM864 248c0 -9.33301 -0.667969 -22.6689 -2.00098 -40.002h-361c9.33301 -34 26.5 -61.167 51.5 -81.5s56.833 -30.5 95.5 -30.5c55.333 0 104.666 15.333 147.999 46l37 -111c-5.33301 -3.33301 -12.833 -7.66602 -22.5 -12.999
s-30.667 -12.333 -63 -21s-66.166 -13 -101.499 -13c-57.333 0 -107.333 10.667 -150 32v-16h-128v32c-38.667 -32 -90 -48 -154 -48c-54.667 0 -98.667 16.5 -132 49.5s-50 73.5 -50 121.5c0 63.333 29 110 87 140c51.333 26.667 133.666 31.667 246.999 15
c0 30 -9.83301 53 -29.5 69s-46.167 24 -79.5 24c-24.667 0 -49.667 -3.83301 -75 -11.5s-44.666 -15.5 -57.999 -23.5l-19 -11l-44 93c6.66699 4.66699 15.834 10.5 27.501 17.5s35.334 16.167 71.001 27.5s70.5 17 104.5 17c85.333 0 146.333 -20.333 183 -61
c44.667 40.667 103.667 61 177 61c77.333 0 136.666 -23.167 177.999 -69.5s62 -111.166 62 -194.499zM503.999 303.997h224c0 24 -9.83301 46 -29.5 66s-47.167 30 -82.5 30c-30 0 -56.167 -10.5 -78.5 -31.5s-33.5 -42.5 -33.5 -64.5zM367.999 160.997v63l-40 4
c-62 6 -106.167 2.33301 -132.5 -11s-39.5 -32.333 -39.5 -57c0 -19.333 8.5 -34.833 25.5 -46.5s39.5 -17.5 67.5 -17.5c27.333 0 54 6.66699 80 20s39 28.333 39 45z" />
    <glyph glyph-name="Scommaaccent" unicode="&#x218;" horiz-adv-x="608" 
d="M320 408c40.667 -6.66699 75 -14.334 103 -23.001s54.333 -20.5 79 -35.5s43.167 -35 55.5 -60s18.5 -54.833 18.5 -89.5c0 -62.667 -23.5 -114.334 -70.5 -155.001s-113.5 -61 -199.5 -61c-108 0 -199.333 37.333 -274 112l64 112
c27.333 -31.333 60.666 -55.166 99.999 -71.499s76.666 -24.5 111.999 -24.5c44 0 78.333 7.33301 103 22s37 34 37 58c0 42.667 -45.333 70.667 -136 84c-92 14 -157.667 37.833 -197 71.5s-59 77.167 -59 130.5c0 58.667 23 108.334 69 149.001s109 61 189 61
c86.667 0 163.334 -27.333 230.001 -82l-54 -110c-49.333 42.667 -108.666 64 -177.999 64c-37.333 0 -68 -5.83301 -92 -17.5s-36 -30.167 -36 -55.5c0 -22 10 -38.667 30 -50s55.333 -21 106 -29zM224 -192l32 128h112l-80 -128h-64z" />
    <glyph glyph-name="scommaaccent" unicode="&#x219;" horiz-adv-x="512" 
d="M281 316c76.667 -12 129.002 -31.6689 157.002 -59.002s42 -59.666 42 -96.999c0 -52 -19.5 -94.333 -58.5 -127s-92.167 -49 -159.5 -49c-52 0 -98.833 8 -140.5 24s-71.5 32 -89.5 48l42 120c21.333 -20 48.5 -36.5 81.5 -49.5s64.5 -19.833 94.5 -20.5
c68 -1.33301 102 13 102 43c0 10.667 -6.16699 18.667 -18.5 24s-35.5 11 -69.5 17c-44.667 7.33301 -81.834 16.5 -111.501 27.5s-51.834 24 -66.501 39s-24.667 30.5 -30 46.5s-8 35 -8 57c0 41.333 20.333 77 61 107s92.667 45 156 45c66.667 0 131 -16 193 -48l-36 -116
c-14 10 -36 19.333 -66 28s-60.333 13.334 -91 14.001c-59.333 1.33301 -89 -8.66699 -89 -30c0 -16.667 20 -28.667 60 -36c6 -1.33301 15.667 -3 29 -5zM168.002 -192.002l32 128h112l-80 -128h-64z" />
    <glyph glyph-name="uni021A" unicode="&#x21a;" horiz-adv-x="544" 
d="M32 672h480v-128h-176v-544h-128v544h-176v128zM184 -192l32 128h112l-80 -128h-64z" />
    <glyph glyph-name="uni021B" unicode="&#x21b;" horiz-adv-x="368" 
d="M96 141l0.000976562 243h-64v112h64v176h128v-176h96v-112h-96v-208c0 -35.333 8.16699 -57.333 24.5 -66s40.166 -8 71.499 2v-112c-26.667 -10.667 -58 -16 -94 -16c-44 0 -76.667 14.167 -98 42.5s-32 66.5 -32 114.5zM96.001 -192l32 128h112l-80 -128h-64z" />
    <glyph glyph-name="circumflex" unicode="&#x2c6;" horiz-adv-x="800" 
d="M456 736l-56 73l-56 -73h-112l139 144h57l140 -144h-112z" />
    <glyph glyph-name="caron" unicode="&#x2c7;" horiz-adv-x="800" 
d="M456 880h112l-140 -144h-57l-139 144h112l56 -73z" />
    <glyph glyph-name="breve" unicode="&#x2d8;" horiz-adv-x="800" 
d="M476 880h68c0 -40 -14 -74 -42 -102s-62 -42 -102 -42s-74 14 -102 42s-42 62 -42 102h68c0 -21.333 7.33301 -39.333 22 -54s32.667 -22 54 -22s39.333 7.33301 54 22s22 32.667 22 54z" />
    <glyph glyph-name="dotaccent" unicode="&#x2d9;" horiz-adv-x="800" 
d="M400 720c-22 0 -40.833 7.83301 -56.5 23.5s-23.5 34.5 -23.5 56.5s7.83301 40.833 23.5 56.5s34.5 23.5 56.5 23.5s40.833 -7.83301 56.5 -23.5s23.5 -34.5 23.5 -56.5s-7.83301 -40.833 -23.5 -56.5s-34.5 -23.5 -56.5 -23.5z" />
    <glyph glyph-name="ring" unicode="&#x2da;" horiz-adv-x="800" 
d="M400 944c33.333 0 61.666 -11.667 84.999 -35s35 -51.666 35 -84.999s-11.667 -61.666 -35 -84.999s-51.666 -35 -84.999 -35s-61.666 11.667 -84.999 35s-35 51.666 -35 84.999s11.667 61.666 35 84.999s51.666 35 84.999 35zM400 768c15.333 0 28.5 5.5 39.5 16.5
s16.5 24.167 16.5 39.5s-5.5 28.5 -16.5 39.5s-24.167 16.5 -39.5 16.5s-28.5 -5.5 -39.5 -16.5s-16.5 -24.167 -16.5 -39.5s5.5 -28.5 16.5 -39.5s24.167 -16.5 39.5 -16.5z" />
    <glyph glyph-name="ogonek" unicode="&#x2db;" horiz-adv-x="800" 
d="M360 0h128.001c-24 -0 -46 -7.66699 -66 -23s-30 -34.333 -30 -57c0 -27.333 10.167 -46.5 30.5 -57.5s42.166 -9.83301 65.499 3.5l16 -58c-16 -10.667 -35.333 -16 -58 -16c-37.333 0 -66.333 11.5 -87 34.5s-31 52.833 -31 89.5c0 14.667 3.16699 30.5 9.5 47.5
s13.833 29.167 22.5 36.5z" />
    <glyph glyph-name="tilde" unicode="&#x2dc;" horiz-adv-x="800" 
d="M524 841l68 -25c-26 -53.333 -65.333 -80 -118 -80c-20 0 -46 6.33301 -78 19c-28 12.667 -52 18.167 -72 16.5s-36 -13.5 -48 -35.5l-68 25c27.333 52.667 67.333 79 120 79c19.333 0 44 -6 74 -18c28 -13.333 52.333 -19 73 -17s37 14 49 36z" />
    <glyph glyph-name="hungarumlaut" unicode="&#x2dd;" horiz-adv-x="800" 
d="M228 736l32 128h120l-80 -128h-72zM452 736l32 128h120l-80 -128h-72z" />
    <glyph glyph-name="Alphatonos" unicode="&#x386;" horiz-adv-x="672" 
d="M528 0l-50 128h-284l-50 -128h-144l278 672h116l278 -672h-144zM32 544l32 128h112l-80 -128h-64zM243 256h186l-93 240z" />
    <glyph glyph-name="Epsilontonos" unicode="&#x388;" horiz-adv-x="672" 
d="M32 544l32 128h112l-80 -128h-64zM624 544h-288v-144h240v-128h-240v-144h288v-128h-416v672h416v-128z" />
    <glyph glyph-name="Etatonos" unicode="&#x389;" horiz-adv-x="816" 
d="M32 544l32 128h112l-80 -128h-64zM624 672h128v-672h-128v272h-288v-272h-128v672h128v-272h288v272z" />
    <glyph glyph-name="Iotatonos" unicode="&#x38a;" horiz-adv-x="400" 
d="M32 544l32 128h112l-80 -128h-64zM336 0h-128v672h128v-672z" />
    <glyph glyph-name="Omicrontonos" unicode="&#x38c;" horiz-adv-x="848" 
d="M464 688c97.333 0 180.333 -34.333 249 -103s103 -151.667 103 -249s-34.333 -180.333 -103 -249s-151.667 -103 -249 -103s-180.333 34.333 -249 103s-103 151.667 -103 249s34.333 180.333 103 249s151.667 103 249 103zM32 544l32 128h112l-80 -128h-64zM464 112
c62 0 114.833 21.833 158.5 65.5s65.5 96.5 65.5 158.5s-21.833 114.833 -65.5 158.5s-96.5 65.5 -158.5 65.5s-114.833 -21.833 -158.5 -65.5s-65.5 -96.5 -65.5 -158.5s21.833 -114.833 65.5 -158.5s96.5 -65.5 158.5 -65.5z" />
    <glyph glyph-name="Upsilontonos" unicode="&#x38e;" horiz-adv-x="816" 
d="M32 544l32 128h112l-80 -128h-64zM664 672h152l-240 -400v-272h-128v272l-240 400h152l152 -272z" />
    <glyph glyph-name="Omegatonos" unicode="&#x38f;" horiz-adv-x="816" 
d="M768 392c0 -46.667 -11.998 -93.667 -35.998 -141s-56.333 -88.333 -97 -123h133v-128h-288v144c45.333 30 83.333 66.5 114 109.5s46 86.5 46 130.5c0 56.667 -18.833 100.167 -56.5 130.5s-82.834 45.5 -135.501 45.5s-97.834 -15.167 -135.501 -45.5
s-56.5 -73.833 -56.5 -130.5c0 -44 15.333 -87.5 46 -130.5s68.667 -79.5 114 -109.5v-144h-288v128h133c-40.667 34.667 -73 75.667 -97 123s-36 94.333 -36 141c0 82 28.167 151.833 84.5 209.5s134.833 86.5 235.5 86.5s179.167 -28.833 235.5 -86.5
s84.5 -127.5 84.5 -209.5zM32.002 544l32 128h112l-80 -128h-64z" />
    <glyph glyph-name="iotadieresistonos" unicode="&#x390;" horiz-adv-x="288" 
d="M-16 560c-18 0 -33.167 6.16699 -45.5 18.5s-18.5 27.5 -18.5 45.5s6.16699 33.167 18.5 45.5s27.5 18.5 45.5 18.5s33.167 -6.16699 45.5 -18.5s18.5 -27.5 18.5 -45.5s-6.16699 -33.167 -18.5 -45.5s-27.5 -18.5 -45.5 -18.5zM80 560l32 128h112l-80 -128h-64zM304 560
c-18 0 -33.167 6.16699 -45.5 18.5s-18.5 27.5 -18.5 45.5s6.16699 33.167 18.5 45.5s27.5 18.5 45.5 18.5s33.167 -6.16699 45.5 -18.5s18.5 -27.5 18.5 -45.5s-6.16699 -33.167 -18.5 -45.5s-27.5 -18.5 -45.5 -18.5zM192 496v-328c0 -28 4.33301 -45.667 13 -53
s25.667 -8.33301 51 -3v-112c-21.333 -10.667 -46 -16 -74 -16c-78.667 0 -118 57.667 -118 173v339h128z" />
    <glyph glyph-name="Alpha" unicode="&#x391;" horiz-adv-x="672" 
d="M528 0l-50 128h-284l-50 -128h-144l278 672h116l278 -672h-144zM243 256h186l-93 240z" />
    <glyph glyph-name="Beta" unicode="&#x392;" 
d="M479 361c38.667 -10 67.167 -29.3311 85.5 -57.998s27.5 -62.334 27.5 -101.001c0 -59.333 -20.667 -107.833 -62 -145.5s-97.333 -56.5 -168 -56.5h-298v672h240c80.667 0 143.5 -14.333 188.5 -43s67.5 -73 67.5 -133c0 -32 -7.5 -59.833 -22.5 -83.5
s-34.5 -40.834 -58.5 -51.501zM192 544.002l-0.000976562 -128h120c80 0 120 21.333 120 64c0 24.667 -9.66699 41.5 -29 50.5s-49.666 13.5 -90.999 13.5h-120zM327.999 128.002c90.667 0 136 29.333 136 88c0 29.333 -12 51.333 -36 66s-57.333 22 -100 22h-136v-176h136z
" />
    <glyph glyph-name="Gamma" unicode="&#x393;" horiz-adv-x="512" 
d="M480 544h-288v-544h-128v672h416v-128z" />
    <glyph glyph-name="uni0394" unicode="&#x394;" horiz-adv-x="672" 
d="M394 672l278 -672h-672l278 672h116zM194 128h284l-142 368z" />
    <glyph glyph-name="Epsilon" unicode="&#x395;" horiz-adv-x="528" 
d="M480 544h-288v-144h240v-128h-240v-144h288v-128h-416v672h416v-128z" />
    <glyph glyph-name="Zeta" unicode="&#x396;" horiz-adv-x="608" 
d="M560 0h-528l320 544h-304v128h528l-320 -544h304v-128z" />
    <glyph glyph-name="Eta" unicode="&#x397;" horiz-adv-x="672" 
d="M480 672h128v-672h-128v272h-288v-272h-128v672h128v-272h288v272z" />
    <glyph glyph-name="Theta" unicode="&#x398;" horiz-adv-x="768" 
d="M384 688c97.333 0 180.333 -34.333 249 -103s103 -151.667 103 -249s-34.333 -180.333 -103 -249s-151.667 -103 -249 -103s-180.333 34.333 -249 103s-103 151.667 -103 249s34.333 180.333 103 249s151.667 103 249 103zM384 112c62 0 114.833 21.833 158.5 65.5
s65.5 96.5 65.5 158.5s-21.833 114.833 -65.5 158.5s-96.5 65.5 -158.5 65.5s-114.833 -21.833 -158.5 -65.5s-65.5 -96.5 -65.5 -158.5s21.833 -114.833 65.5 -158.5s96.5 -65.5 158.5 -65.5zM208 304v64h352v-64h-352z" />
    <glyph glyph-name="Iota" unicode="&#x399;" horiz-adv-x="256" 
d="M192 0h-128v672h128v-672z" />
    <glyph glyph-name="Kappa" unicode="&#x39a;" 
d="M304 351l304 -351h-162l-254 294v-294h-128v672h128v-278l238 278h162z" />
    <glyph glyph-name="Lambda" unicode="&#x39b;" horiz-adv-x="672" 
d="M528 0l-192 496l-192 -496h-144l278 672h116l278 -672h-144z" />
    <glyph glyph-name="Mu" unicode="&#x39c;" horiz-adv-x="864" 
d="M736 672l96 -672h-136l-56 440l-176 -440h-64l-176 440l-56 -440h-136l96 672h128l176 -432l176 432h128z" />
    <glyph glyph-name="Nu" unicode="&#x39d;" horiz-adv-x="720" 
d="M528 672h128v-672h-128l-336 464v-464h-128v672h128l336 -464v464z" />
    <glyph glyph-name="Xi" unicode="&#x39e;" horiz-adv-x="576" 
d="M48 544v128h480v-128h-480zM96 272v128h384v-128h-384zM48 0v128h480v-128h-480z" />
    <glyph glyph-name="Omicron" unicode="&#x39f;" horiz-adv-x="768" 
d="M384 688c97.333 0 180.333 -34.333 249 -103s103 -151.667 103 -249s-34.333 -180.333 -103 -249s-151.667 -103 -249 -103s-180.333 34.333 -249 103s-103 151.667 -103 249s34.333 180.333 103 249s151.667 103 249 103zM384 112c62 0 114.833 21.833 158.5 65.5
s65.5 96.5 65.5 158.5s-21.833 114.833 -65.5 158.5s-96.5 65.5 -158.5 65.5s-114.833 -21.833 -158.5 -65.5s-65.5 -96.5 -65.5 -158.5s21.833 -114.833 65.5 -158.5s96.5 -65.5 158.5 -65.5z" />
    <glyph glyph-name="Pi" unicode="&#x3a0;" horiz-adv-x="672" 
d="M608 672v-672h-128v544h-288v-544h-128v672h544z" />
    <glyph glyph-name="Rho" unicode="&#x3a1;" horiz-adv-x="592" 
d="M304 672c84.667 0 148.5 -20.333 191.5 -61s64.5 -95 64.5 -163c0 -60.667 -20.333 -113.167 -61 -157.5s-95 -66.5 -163 -66.5h-144v-224h-128v672h240zM320 352c31.333 0 57.833 8.99902 79.5 26.999s32.5 41 32.5 69c0 30.667 -10.5 54.334 -31.5 71.001
s-47.833 25 -80.5 25h-128v-192h128z" />
    <glyph glyph-name="Sigma" unicode="&#x3a3;" horiz-adv-x="608" 
d="M242 544l174 -208l-174 -208h302v-128h-480v128l184 208l-184 208v128h480v-128h-302z" />
    <glyph glyph-name="Tau" unicode="&#x3a4;" horiz-adv-x="544" 
d="M32 672h480v-128h-176v-544h-128v544h-176v128z" />
    <glyph glyph-name="Upsilon" unicode="&#x3a5;" horiz-adv-x="608" 
d="M456 672h152l-240 -400v-272h-128v272l-240 400h152l152 -272z" />
    <glyph glyph-name="Phi" unicode="&#x3a6;" horiz-adv-x="736" 
d="M704 352c0 -79.333 -28.167 -147.166 -84.5 -203.499s-118.833 -84.5 -187.5 -84.5v-64h-128v64c-68.667 0 -131.167 28.167 -187.5 84.5s-84.5 124.166 -84.5 203.499c0 80.667 28.5 148.834 85.5 204.501s119.167 83.5 186.5 83.5v64h128v-64
c67.333 0 129.5 -27.833 186.5 -83.5s85.5 -123.834 85.5 -204.501zM304 188v328c-34.667 0 -67.334 -13.833 -98.001 -41.5s-46 -68.5 -46 -122.5s15.333 -94.833 46 -122.5s63.334 -41.5 98.001 -41.5zM432 188c35.333 0 68.166 13.667 98.499 41s45.5 68.333 45.5 123
c0 54 -15.167 94.833 -45.5 122.5s-63.166 41.5 -98.499 41.5v-328z" />
    <glyph glyph-name="Chi" unicode="&#x3a7;" horiz-adv-x="688" 
d="M434 352l238 -352h-160l-168 256l-168 -256h-160l238 352l-223 320h161l152 -236l152 236h161z" />
    <glyph glyph-name="Psi" unicode="&#x3a8;" horiz-adv-x="800" 
d="M608 672h128.006v-238c0 -50.667 -6.83301 -94.5 -20.5 -131.5s-33.334 -66.667 -59.001 -89s-54 -39.5 -85 -51.5s-66.833 -20.667 -107.5 -26v-136h-128v136c-40.667 5.33301 -76.5 14 -107.5 26s-59.333 29.167 -85 51.5s-45.334 52 -59.001 89
s-20.5 80.833 -20.5 131.5v238h128v-260c0 -26 4.83301 -48.833 14.5 -68.5s22.167 -34.834 37.5 -45.501s30.666 -18.667 45.999 -24s30.666 -8.66602 45.999 -9.99902v408h128v-408c15.333 1.33301 30.666 4.66602 45.999 9.99902s30.666 13.333 45.999 24
s27.833 25.834 37.5 45.501s14.5 42.5 14.5 68.5v260z" />
    <glyph glyph-name="uni03A9" unicode="&#x3a9;" horiz-adv-x="736" 
d="M688 392c0 -46.667 -11.998 -93.667 -35.998 -141s-56.333 -88.333 -97 -123h133v-128h-288v144c45.333 30 83.333 66.5 114 109.5s46 86.5 46 130.5c0 56.667 -18.833 100.167 -56.5 130.5s-82.834 45.5 -135.501 45.5s-97.834 -15.167 -135.501 -45.5
s-56.5 -73.833 -56.5 -130.5c0 -44 15.333 -87.5 46 -130.5s68.667 -79.5 114 -109.5v-144h-288v128h133c-40.667 34.667 -73 75.667 -97 123s-36 94.333 -36 141c0 82 28.167 151.833 84.5 209.5s134.833 86.5 235.5 86.5s179.167 -28.833 235.5 -86.5
s84.5 -127.5 84.5 -209.5z" />
    <glyph glyph-name="Iotadieresis" unicode="&#x3aa;" horiz-adv-x="256" 
d="M32 736c-18 0 -33.167 6.16699 -45.5 18.5s-18.5 27.5 -18.5 45.5s6.16699 33.167 18.5 45.5s27.5 18.5 45.5 18.5s33.167 -6.16699 45.5 -18.5s18.5 -27.5 18.5 -45.5s-6.16699 -33.167 -18.5 -45.5s-27.5 -18.5 -45.5 -18.5zM224 736c-18 0 -33.167 6.16699 -45.5 18.5
s-18.5 27.5 -18.5 45.5s6.16699 33.167 18.5 45.5s27.5 18.5 45.5 18.5s33.167 -6.16699 45.5 -18.5s18.5 -27.5 18.5 -45.5s-6.16699 -33.167 -18.5 -45.5s-27.5 -18.5 -45.5 -18.5zM192 0h-128v672h128v-672z" />
    <glyph glyph-name="Upsilondieresis" unicode="&#x3ab;" horiz-adv-x="608" 
d="M208 736c-18 0 -33.167 6.16699 -45.5 18.5s-18.5 27.5 -18.5 45.5s6.16699 33.167 18.5 45.5s27.5 18.5 45.5 18.5s33.167 -6.16699 45.5 -18.5s18.5 -27.5 18.5 -45.5s-6.16699 -33.167 -18.5 -45.5s-27.5 -18.5 -45.5 -18.5zM400 736
c-18 0 -33.167 6.16699 -45.5 18.5s-18.5 27.5 -18.5 45.5s6.16699 33.167 18.5 45.5s27.5 18.5 45.5 18.5s33.167 -6.16699 45.5 -18.5s18.5 -27.5 18.5 -45.5s-6.16699 -33.167 -18.5 -45.5s-27.5 -18.5 -45.5 -18.5zM456 672h152l-240 -400v-272h-128v272l-240 400h152
l152 -272z" />
    <glyph glyph-name="alphatonos" unicode="&#x3ac;" horiz-adv-x="656" 
d="M288 560l32 128h112l-80 -128h-64zM560 168c0 -28 4.33398 -45.6689 13.001 -53.002s25.667 -8.33301 51 -3v-112c-21.333 -10.667 -46 -16 -74 -16c-50.667 0 -85.334 24.667 -104.001 74c-15.333 -22.667 -37.5 -40.667 -66.5 -54s-62.167 -20 -99.5 -20
c-68.667 0 -127.167 25.833 -175.5 77.5s-72.5 113.834 -72.5 186.501s24.167 134.834 72.5 186.501s106.833 77.5 175.5 77.5c61.333 0 112 -23 152 -69v53h128v-328zM296.001 111.998c37.333 0 69.333 13.333 96 40s40 58.667 40 96s-13.333 69.333 -40 96
s-58.667 40 -96 40s-69.333 -13.333 -96 -40s-40 -58.667 -40 -96s13.333 -69.333 40 -96s58.667 -40 96 -40z" />
    <glyph glyph-name="epsilontonos" unicode="&#x3ad;" horiz-adv-x="512" 
d="M216 560l32 128h112l-80 -128h-64zM292 110c67.333 2.66699 116.669 16 148.002 40l40 -105c-56.667 -40.667 -126.334 -61 -209.001 -61c-66 0 -119.667 14.5 -161 43.5s-62 69.833 -62 122.5c0 24 7 46.667 21 68s32.667 36.666 56 45.999
c-22.667 8.66699 -39.834 21.834 -51.501 39.501s-17.5 37.167 -17.5 58.5c0 48 19.667 85 59 111s92.333 39 159 39c32.667 0 67.5 -5.5 104.5 -16.5s69.5 -26.167 97.5 -45.5l-44 -108c-36.667 26.667 -85.334 41.334 -146.001 44.001c-34 1.33301 -59.5 -2.5 -76.5 -11.5
s-25.5 -20.167 -25.5 -33.5c0 -15.333 14.833 -28 44.5 -38s70.834 -15 123.501 -15v-80c-50 0 -91.833 -4.5 -125.5 -13.5s-50.5 -22.5 -50.5 -40.5c0 -15.333 11.333 -26.833 34 -34.5s50 -10.834 82 -9.50098z" />
    <glyph glyph-name="etatonos" unicode="&#x3ae;" horiz-adv-x="576" 
d="M224 560l32 128h112l-80 -128h-64zM342 512c58 0 103.499 -19 136.499 -57s49.5 -93.667 49.5 -167v-544h-128v528c0 38.667 -7.66699 67 -23 85s-39.666 27 -72.999 27c-32 0 -58.667 -10.667 -80 -32s-32 -53.333 -32 -96v-256h-128v496h128v-48
c36 42.667 86 64 150 64z" />
    <glyph glyph-name="iotatonos" unicode="&#x3af;" horiz-adv-x="288" 
d="M80 560l32 128h112l-80 -128h-64zM192 496v-328c0 -28 4.33301 -45.667 13 -53s25.667 -8.33301 51 -3v-112c-21.333 -10.667 -46 -16 -74 -16c-78.667 0 -118 57.667 -118 173v339h128z" />
    <glyph glyph-name="upsilondieresistonos" unicode="&#x3b0;" horiz-adv-x="576" 
d="M112 560c-18 0 -33.167 6.16699 -45.5 18.5s-18.5 27.5 -18.5 45.5s6.16699 33.167 18.5 45.5s27.5 18.5 45.5 18.5s33.167 -6.16699 45.5 -18.5s18.5 -27.5 18.5 -45.5s-6.16699 -33.167 -18.5 -45.5s-27.5 -18.5 -45.5 -18.5zM208 560l32 128h112l-80 -128h-64z
M432 560c-18 0 -33.167 6.16699 -45.5 18.5s-18.5 27.5 -18.5 45.5s6.16699 33.167 18.5 45.5s27.5 18.5 45.5 18.5s33.167 -6.16699 45.5 -18.5s18.5 -27.5 18.5 -45.5s-6.16699 -33.167 -18.5 -45.5s-27.5 -18.5 -45.5 -18.5zM480 496
c32 -86 48.001 -159.331 48.001 -219.998c0 -90.667 -20 -162 -60 -214s-100 -78 -180 -78c-78 0 -137.5 23.667 -178.5 71s-61.5 111.666 -61.5 192.999v248h128v-258c0 -40.667 10 -71.834 30 -93.501s47.333 -32.5 82 -32.5s62 13.833 82 41.5s30 63.834 30 108.501
c0 43.333 -3.83301 81.666 -11.5 114.999s-19.834 73 -36.501 119h128z" />
    <glyph glyph-name="alpha" unicode="&#x3b1;" horiz-adv-x="656" 
d="M560 168c0 -28 4.33398 -45.6689 13.001 -53.002s25.667 -8.33301 51 -3v-112c-21.333 -10.667 -46 -16 -74 -16c-50.667 0 -85.334 24.667 -104.001 74c-15.333 -22.667 -37.5 -40.667 -66.5 -54s-62.167 -20 -99.5 -20c-68.667 0 -127.167 25.833 -175.5 77.5
s-72.5 113.834 -72.5 186.501s24.167 134.834 72.5 186.501s106.833 77.5 175.5 77.5c61.333 0 112 -23 152 -69v53h128v-328zM296.001 111.998c37.333 0 69.333 13.333 96 40s40 58.667 40 96s-13.333 69.333 -40 96s-58.667 40 -96 40s-69.333 -13.333 -96 -40
s-40 -58.667 -40 -96s13.333 -69.333 40 -96s58.667 -40 96 -40z" />
    <glyph glyph-name="beta" unicode="&#x3b2;" horiz-adv-x="576" 
d="M400 384c40 -4.66699 74 -24.5 102 -59.5s42 -73.833 42 -116.5c0 -62 -21 -114.833 -63 -158.5s-101 -65.5 -177 -65.5c-22.667 0 -46.667 3 -72 9s-44 13.667 -56 23v-272h-128v752c0 41.333 7.33301 77.333 22 108s31.167 53 49.5 67s40 25.167 65 33.5
s43.333 13 55 14s22.834 1.5 33.501 1.5c77.333 0 133.833 -18.833 169.5 -56.5s53.5 -82.834 53.5 -135.501c0 -35.333 -9.83301 -65.666 -29.5 -90.999s-41.834 -43 -66.501 -53zM176 130c24.667 -19.333 55.832 -30.833 93.499 -34.5s71.5 3.83301 101.5 22.5
s45 47.334 45 86.001c0 77.333 -69.333 116 -208 116v96c51.333 0 90.833 10.833 118.5 32.5s41.5 48.167 41.5 79.5c0 25.333 -8.66699 45 -26 59s-40.666 21 -69.999 21c-30 0 -53.5 -9.33301 -70.5 -28s-25.5 -41.334 -25.5 -68.001v-382z" />
    <glyph glyph-name="gamma" unicode="&#x3b3;" horiz-adv-x="512" 
d="M512 496l-192 -458v-294h-128v294l-192 458h144l112 -304l112 304h144z" />
    <glyph glyph-name="delta" unicode="&#x3b4;" horiz-adv-x="592" 
d="M560 248c0 -73.333 -25.668 -135.667 -77.001 -187s-113.666 -77 -186.999 -77s-135.666 25.667 -186.999 77s-77 113.666 -77 186.999c0 48.667 12.167 93.5 36.5 134.5s57.166 72.833 98.499 95.5c-40.667 32 -58.667 71 -54 117c3.33301 32.667 23 61.667 59 87
s82.333 38 139 38c54 0 110.333 -10.667 169 -32l-16 -120c-71.333 24.667 -133.333 32.667 -186 24c-25.333 -4 -38 -12 -38 -24c0.666992 -13.333 18.334 -26 53.001 -38c69.333 -23.333 118.666 -44.666 147.999 -63.999c79.333 -53.333 119 -126 119 -218z
M431.999 247.999c0 74 -49.333 128 -148 162c-3.33301 -1.33301 -7.83301 -3 -13.5 -5s-15.667 -7.33301 -30 -16s-26.833 -18.5 -37.5 -29.5s-20.5 -26.5 -29.5 -46.5s-13.5 -41.667 -13.5 -65c0 -37.333 13.333 -69.333 40 -96s58.667 -40 96 -40s69.333 13.333 96 40
s40 58.667 40 96z" />
    <glyph glyph-name="epsilon" unicode="&#x3b5;" horiz-adv-x="512" 
d="M292 110c67.333 2.66699 116.669 16 148.002 40l40 -105c-56.667 -40.667 -126.334 -61 -209.001 -61c-66 0 -119.667 14.5 -161 43.5s-62 69.833 -62 122.5c0 24 7 46.667 21 68s32.667 36.666 56 45.999c-22.667 8.66699 -39.834 21.834 -51.501 39.501
s-17.5 37.167 -17.5 58.5c0 48 19.667 85 59 111s92.333 39 159 39c32.667 0 67.5 -5.5 104.5 -16.5s69.5 -26.167 97.5 -45.5l-44 -108c-36.667 26.667 -85.334 41.334 -146.001 44.001c-34 1.33301 -59.5 -2.5 -76.5 -11.5s-25.5 -20.167 -25.5 -33.5
c0 -15.333 14.833 -28 44.5 -38s70.834 -15 123.501 -15v-80c-50 0 -91.833 -4.5 -125.5 -13.5s-50.5 -22.5 -50.5 -40.5c0 -15.333 11.333 -26.833 34 -34.5s50 -10.834 82 -9.50098z" />
    <glyph glyph-name="zeta" unicode="&#x3b6;" horiz-adv-x="512" 
d="M480 544c-83.333 -43.333 -154.833 -96.8301 -214.5 -160.497s-89.5 -120.834 -89.5 -171.501c0 -33.333 7.83301 -59 23.5 -77s35.5 -28.833 59.5 -32.5s49.667 -6.83398 77 -9.50098s53 -5.33398 77 -8.00098s43.833 -11.667 59.5 -27s23.5 -38 23.5 -68
c0 -20 -5.33301 -48.667 -16 -86h-112c6.66699 30 6.16699 50.833 -1.5 62.5s-28.5 17.5 -62.5 17.5c-88 0 -152.667 15.333 -194 46s-62 84.667 -62 162c0 62 24.5 125 73.5 189s110.833 118.333 185.5 163h-211v128h384v-128z" />
    <glyph glyph-name="eta" unicode="&#x3b7;" horiz-adv-x="576" 
d="M342 512c58 0 103.499 -19 136.499 -57s49.5 -93.667 49.5 -167v-544h-128v528c0 38.667 -7.66699 67 -23 85s-39.666 27 -72.999 27c-32 0 -58.667 -10.667 -80 -32s-32 -53.333 -32 -96v-256h-128v496h128v-48c36 42.667 86 64 150 64z" />
    <glyph glyph-name="theta" unicode="&#x3b8;" horiz-adv-x="592" 
d="M296 688c76 0 136.333 -33.5 181 -100.5s67 -150.833 67 -251.5s-22.333 -184.5 -67 -251.5s-105 -100.5 -181 -100.5c-76.667 0 -137.167 33.5 -181.5 100.5s-66.5 150.833 -66.5 251.5s22.167 184.5 66.5 251.5s104.833 100.5 181.5 100.5zM296 560
c-33.333 0 -60.6699 -18 -82.0029 -54s-33.666 -82 -36.999 -138h238c-3.33301 56 -15.666 102 -36.999 138s-48.666 54 -81.999 54zM295.996 112c33.333 0 60.6699 18 82.0029 54s33.666 82 36.999 138h-238c3.33301 -56 15.666 -102 36.999 -138s48.666 -54 81.999 -54z
" />
    <glyph glyph-name="iota" unicode="&#x3b9;" horiz-adv-x="288" 
d="M192 496v-328c0 -28 4.33301 -45.667 13 -53s25.667 -8.33301 51 -3v-112c-21.333 -10.667 -46 -16 -74 -16c-78.667 0 -118 57.667 -118 173v339h128z" />
    <glyph glyph-name="kappa" unicode="&#x3ba;" horiz-adv-x="560" 
d="M304 256l256 -256h-160l-208 196v-196h-128v496h128v-188l192 188h160z" />
    <glyph glyph-name="lambda" unicode="&#x3bb;" horiz-adv-x="608" 
d="M457 200c14.667 -37.333 31.6699 -62.999 51.0029 -76.999s42 -17.667 68 -11v-112c-20 -10.667 -42.667 -16 -68 -16c-12.667 0 -24.334 1.16699 -35.001 3.5s-20.667 6.83301 -30 13.5l-24.5 18c-7 5.33301 -14.333 14 -22 26l-18.5 29
c-4.66699 7.33301 -10.334 19 -17.001 35s-11.5 28 -14.5 36l-15 41l-14.5 40l-29 78l-112 -304h-144l191 454l-23 61c-14 37.333 -29.833 61.166 -47.5 71.499s-41.834 12.166 -72.501 5.49902v112c20 10.667 44 16 72 16c12 0 23.333 -1.16699 34 -3.5
s20.667 -6.66602 30 -12.999l24.5 -17c7 -5 14.333 -13.5 22 -25.5s13.667 -21 18 -27s10.166 -17.333 17.499 -34l15 -34c2.66699 -6 7.83398 -19 15.501 -39l14.5 -38z" />
    <glyph glyph-name="uni03BC" unicode="&#x3bc;" horiz-adv-x="592" 
d="M400 496h128.001v-496h-128v48c-36 -42.667 -86 -64 -150 -64c-22 0 -41.333 2.33301 -58 7v-247h-128v752h128v-272c0 -38.667 7.66699 -67 23 -85s39.666 -27 72.999 -27c32 0 58.667 10.667 80 32s32 53.333 32 96v256z" />
    <glyph glyph-name="nu" unicode="&#x3bd;" horiz-adv-x="512" 
d="M208 0l-208 496h144l112 -304l112 304h144l-208 -496h-96z" />
    <glyph glyph-name="xi" unicode="&#x3be;" horiz-adv-x="544" 
d="M176 184c0 -43.333 39.002 -67.334 117.002 -72.001c4.66699 0 16 -0.5 34 -1.5s31.167 -1.66699 39.5 -2s21 -1.66602 38 -3.99902s30 -5.16602 39 -8.49902s19.667 -8 32 -14s21.833 -13 28.5 -21s12.334 -18 17.001 -30s7 -25.667 7 -41
c0 -28 -5.33301 -56.667 -16 -86h-112c6 29.333 3.83301 50 -6.5 62s-34.833 18 -73.5 18c-181.333 0 -272 66 -272 198c0 73.333 41.333 128.666 124 165.999c-74 30 -110 87.333 -108 172c1.33301 61.333 23.833 110 67.5 146s104.5 54 182.5 54
c31.333 0 63.666 -6 96.999 -18s61.666 -27.333 84.999 -46l-48 -104c-44 26.667 -89.333 40 -136 40c-32.667 0 -60.834 -7.83301 -84.501 -23.5s-35.5 -36.5 -35.5 -62.5c0 -70.667 80 -106 240 -106v-112c-70.667 0 -131 -9.16699 -181 -27.5s-75 -43.833 -75 -76.5z" />
    <glyph glyph-name="omicron" unicode="&#x3bf;" horiz-adv-x="592" 
d="M296 512c73.333 0 135.666 -25.667 186.999 -77s77 -113.666 77 -186.999s-25.667 -135.666 -77 -186.999s-113.666 -77 -186.999 -77s-135.666 25.667 -186.999 77s-77 113.666 -77 186.999s25.667 135.666 77 186.999s113.666 77 186.999 77zM296 112
c37.333 0 69.333 13.333 96 40s40 58.667 40 96s-13.333 69.333 -40 96s-58.667 40 -96 40s-69.333 -13.333 -96 -40s-40 -58.667 -40 -96s13.333 -69.333 40 -96s58.667 -40 96 -40z" />
    <glyph glyph-name="pi" unicode="&#x3c0;" 
d="M576 368h-80v-200c0 -28 4.33301 -45.667 13 -53s25.667 -8.33301 51 -3v-112c-21.333 -10.667 -46 -16 -74 -16c-78.667 0 -118 57.667 -118 173v211h-144v-368h-128v368h-64v128h544v-128z" />
    <glyph glyph-name="rho" unicode="&#x3c1;" 
d="M328 512c73.333 0 135.668 -25.666 187.001 -76.999s77 -113.666 77 -186.999c0 -72.667 -25.333 -134.834 -76 -186.501s-110.667 -77.5 -180 -77.5c-58.667 0 -106.667 16.667 -144 50v-290h-128v504c0 73.333 25.667 135.666 77 186.999s113.666 77 186.999 77z
M328.002 112.001c37.333 0 69.333 13.333 96 40s40 58.667 40 96s-13.333 69.333 -40 96s-58.667 40 -96 40s-69.333 -13.333 -96 -40s-40 -58.667 -40 -96s13.333 -69.333 40 -96s58.667 -40 96 -40z" />
    <glyph glyph-name="uni03C2" unicode="&#x3c2;" horiz-adv-x="544" 
d="M312 112c64 -3.33301 107.332 -8.66602 129.999 -15.999c57.333 -17.333 86 -52.666 86 -105.999c0 -28 -5.33301 -56.667 -16 -86h-112c6.66699 30 4.33398 50.833 -6.99902 62.5s-39.666 17.5 -84.999 17.5c-84.667 0 -151.834 25.167 -201.501 75.5
s-74.5 113.166 -74.5 188.499s25 138.166 75 188.499s117 75.5 201 75.5c70.667 0 128 -19.667 172 -59l-53 -115c-30.667 30.667 -69 46 -115 46s-82.833 -13 -110.5 -39s-41.5 -58.333 -41.5 -97c0 -38 13.667 -69.5 41 -94.5s64.333 -38.833 111 -41.5z" />
    <glyph glyph-name="sigma" unicode="&#x3c3;" 
d="M592 496l0.00195312 -127.998h-83c15.333 -14.667 27.666 -34.834 36.999 -60.501s14 -50.834 14 -75.501c0 -67.333 -25.833 -125.5 -77.5 -174.5s-113.834 -73.5 -186.501 -73.5c-73.333 0 -135.666 25 -186.999 75s-77 110.333 -77 181s25.667 131 77 181
s113.666 75 186.999 75h296zM432.002 240.002c0 35.333 -13.333 65.5 -40 90.5s-58.667 37.5 -96 37.5s-69.333 -12.5 -96 -37.5s-40 -55.167 -40 -90.5s13.333 -65.5 40 -90.5s58.667 -37.5 96 -37.5s69.333 12.5 96 37.5s40 55.167 40 90.5z" />
    <glyph glyph-name="tau" unicode="&#x3c4;" horiz-adv-x="480" 
d="M448 368h-144v-200c0 -28 4.33301 -45.667 13 -53s25.667 -8.33301 51 -3v-112c-21.333 -10.667 -46 -16 -74 -16c-78.667 0 -118 57.667 -118 173v211h-144v128h416v-128z" />
    <glyph glyph-name="upsilon" unicode="&#x3c5;" horiz-adv-x="576" 
d="M480 496c32 -86 48.001 -159.331 48.001 -219.998c0 -90.667 -20 -162 -60 -214s-100 -78 -180 -78c-78 0 -137.5 23.667 -178.5 71s-61.5 111.666 -61.5 192.999v248h128v-258c0 -40.667 10 -71.834 30 -93.501s47.333 -32.5 82 -32.5s62 13.833 82 41.5
s30 63.834 30 108.501c0 43.333 -3.83301 81.666 -11.5 114.999s-19.834 73 -36.501 119h128z" />
    <glyph glyph-name="phi" unicode="&#x3c6;" horiz-adv-x="704" 
d="M416 512c76 -8 137.667 -35.5 185 -82.5s71 -107.5 71 -181.5s-23.667 -134.5 -71 -181.5s-109 -74.5 -185 -82.5v-240h-128v240c-76 8 -137.667 35.5 -185 82.5s-71 107.5 -71 181.5s23.667 134.5 71 181.5s109 74.5 185 82.5v192h128v-192zM288 108v280
c-37.333 -4.66699 -68 -19.167 -92 -43.5s-36 -56.5 -36 -96.5s12 -72.167 36 -96.5s54.667 -38.833 92 -43.5zM544 248c0 40 -12 72.167 -36 96.5s-54.667 38.833 -92 43.5v-280c37.333 4.66699 68 19.167 92 43.5s36 56.5 36 96.5z" />
    <glyph glyph-name="chi" unicode="&#x3c7;" horiz-adv-x="560" 
d="M360 264l184 -264h-160l-104 160l-104 -160h-160l184 264l-168 232h160l88 -140l88 140h160z" />
    <glyph glyph-name="psi" unicode="&#x3c8;" horiz-adv-x="736" 
d="M560 496h128v-230c0 -83.333 -23.167 -149.166 -69.5 -197.499s-108.5 -76.5 -186.5 -84.5v-240h-128v240c-78 8 -140.167 36.167 -186.5 84.5s-69.5 114.166 -69.5 197.499v230h128v-234c0 -43.333 12.333 -78.166 37 -104.499s55 -41.5 91 -45.5v384h128v-384
c36 4 66.333 19.167 91 45.5s37 61.166 37 104.499v234z" />
    <glyph glyph-name="omega" unicode="&#x3c9;" horiz-adv-x="768" 
d="M663 496c38 -81.333 57 -162.666 57 -243.999c0 -88 -18.167 -154.667 -54.5 -200s-84.833 -68 -145.5 -68c-56 0 -101.333 23 -136 69c-34.667 -46 -80 -69 -136 -69c-61.333 0 -110 22.667 -146 68s-54 112 -54 200c0 81.333 19 162.666 57 243.999h122
c-34 -89.333 -51 -172.666 -51 -249.999c0 -44.667 7.5 -78.167 22.5 -100.5s34.167 -33.5 57.5 -33.5c42.667 0 64 34 64 102v218h128v-218c0 -68 21.333 -102 64 -102c23.333 0 42.5 11.167 57.5 33.5s22.5 55.833 22.5 100.5c0 77.333 -17 160.666 -51 249.999h122z" />
    <glyph glyph-name="iotadieresis" unicode="&#x3ca;" horiz-adv-x="288" 
d="M32 560c-18 0 -33.167 6.16699 -45.5 18.5s-18.5 27.5 -18.5 45.5s6.16699 33.167 18.5 45.5s27.5 18.5 45.5 18.5s33.167 -6.16699 45.5 -18.5s18.5 -27.5 18.5 -45.5s-6.16699 -33.167 -18.5 -45.5s-27.5 -18.5 -45.5 -18.5zM224 560c-18 0 -33.167 6.16699 -45.5 18.5
s-18.5 27.5 -18.5 45.5s6.16699 33.167 18.5 45.5s27.5 18.5 45.5 18.5s33.167 -6.16699 45.5 -18.5s18.5 -27.5 18.5 -45.5s-6.16699 -33.167 -18.5 -45.5s-27.5 -18.5 -45.5 -18.5zM192 496v-328c0 -28 4.33301 -45.667 13 -53s25.667 -8.33301 51 -3v-112
c-21.333 -10.667 -46 -16 -74 -16c-78.667 0 -118 57.667 -118 173v339h128z" />
    <glyph glyph-name="upsilondieresis" unicode="&#x3cb;" horiz-adv-x="576" 
d="M160 560c-18 0 -33.167 6.16699 -45.5 18.5s-18.5 27.5 -18.5 45.5s6.16699 33.167 18.5 45.5s27.5 18.5 45.5 18.5s33.167 -6.16699 45.5 -18.5s18.5 -27.5 18.5 -45.5s-6.16699 -33.167 -18.5 -45.5s-27.5 -18.5 -45.5 -18.5zM352 560
c-18 0 -33.167 6.16699 -45.5 18.5s-18.5 27.5 -18.5 45.5s6.16699 33.167 18.5 45.5s27.5 18.5 45.5 18.5s33.167 -6.16699 45.5 -18.5s18.5 -27.5 18.5 -45.5s-6.16699 -33.167 -18.5 -45.5s-27.5 -18.5 -45.5 -18.5zM480 496c32 -86 48.001 -159.331 48.001 -219.998
c0 -90.667 -20 -162 -60 -214s-100 -78 -180 -78c-78 0 -137.5 23.667 -178.5 71s-61.5 111.666 -61.5 192.999v248h128v-258c0 -40.667 10 -71.834 30 -93.501s47.333 -32.5 82 -32.5s62 13.833 82 41.5s30 63.834 30 108.501c0 43.333 -3.83301 81.666 -11.5 114.999
s-19.834 73 -36.501 119h128z" />
    <glyph glyph-name="omicrontonos" unicode="&#x3cc;" horiz-adv-x="592" 
d="M248 560l32 128h112l-80 -128h-64zM296 512c73.333 0 135.666 -25.667 186.999 -77s77 -113.666 77 -186.999s-25.667 -135.666 -77 -186.999s-113.666 -77 -186.999 -77s-135.666 25.667 -186.999 77s-77 113.666 -77 186.999s25.667 135.666 77 186.999
s113.666 77 186.999 77zM296 112c37.333 0 69.333 13.333 96 40s40 58.667 40 96s-13.333 69.333 -40 96s-58.667 40 -96 40s-69.333 -13.333 -96 -40s-40 -58.667 -40 -96s13.333 -69.333 40 -96s58.667 -40 96 -40z" />
    <glyph glyph-name="upsilontonos" unicode="&#x3cd;" horiz-adv-x="576" 
d="M208 560l32 128h112l-80 -128h-64zM480 496c32 -86 48.001 -159.331 48.001 -219.998c0 -90.667 -20 -162 -60 -214s-100 -78 -180 -78c-78 0 -137.5 23.667 -178.5 71s-61.5 111.666 -61.5 192.999v248h128v-258c0 -40.667 10 -71.834 30 -93.501s47.333 -32.5 82 -32.5
s62 13.833 82 41.5s30 63.834 30 108.501c0 43.333 -3.83301 81.666 -11.5 114.999s-19.834 73 -36.501 119h128z" />
    <glyph glyph-name="omegatonos" unicode="&#x3ce;" horiz-adv-x="768" 
d="M336 560l32 128h112l-80 -128h-64zM663 496c38 -81.333 57 -162.666 57 -243.999c0 -88 -18.167 -154.667 -54.5 -200s-84.833 -68 -145.5 -68c-56 0 -101.333 23 -136 69c-34.667 -46 -80 -69 -136 -69c-61.333 0 -110 22.667 -146 68s-54 112 -54 200
c0 81.333 19 162.666 57 243.999h122c-34 -89.333 -51 -172.666 -51 -249.999c0 -44.667 7.5 -78.167 22.5 -100.5s34.167 -33.5 57.5 -33.5c42.667 0 64 34 64 102v218h128v-218c0 -68 21.333 -102 64 -102c23.333 0 42.5 11.167 57.5 33.5s22.5 55.833 22.5 100.5
c0 77.333 -17 160.666 -51 249.999h122z" />
    <glyph glyph-name="uni0401" unicode="&#x401;" horiz-adv-x="528" 
d="M168 736c-18 0 -33.167 6.16699 -45.5 18.5s-18.5 27.5 -18.5 45.5s6.16699 33.167 18.5 45.5s27.5 18.5 45.5 18.5s33.167 -6.16699 45.5 -18.5s18.5 -27.5 18.5 -45.5s-6.16699 -33.167 -18.5 -45.5s-27.5 -18.5 -45.5 -18.5zM360 736
c-18 0 -33.167 6.16699 -45.5 18.5s-18.5 27.5 -18.5 45.5s6.16699 33.167 18.5 45.5s27.5 18.5 45.5 18.5s33.167 -6.16699 45.5 -18.5s18.5 -27.5 18.5 -45.5s-6.16699 -33.167 -18.5 -45.5s-27.5 -18.5 -45.5 -18.5zM480 544h-288v-144h240v-128h-240v-144h288v-128h-416
v672h416v-128z" />
    <glyph glyph-name="uni0402" unicode="&#x402;" horiz-adv-x="688" 
d="M440 408c68 0 118.333 -19.3311 151 -57.998s49 -92.667 49 -162v-12c0 -53.333 -6.5 -98.833 -19.5 -136.5s-30.333 -65.834 -52 -84.501s-43.5 -31.834 -65.5 -39.501s-45.667 -11.5 -71 -11.5l-32 112c34 0 61.167 12.5 81.5 37.5s30.5 60.5 30.5 106.5v16
c0 38.667 -7.5 67 -22.5 85s-39.5 27 -73.5 27c-46.667 0 -89.334 -12 -128.001 -36v-252h-128v544h-128v128h448v-128h-192v-180c52.667 29.333 103.334 44 152.001 44z" />
    <glyph glyph-name="uni0403" unicode="&#x403;" horiz-adv-x="512" 
d="M160 736l80 144h144l-144 -144h-80zM480 544h-288v-544h-128v672h416v-128z" />
    <glyph glyph-name="uni0404" unicode="&#x404;" horiz-adv-x="640" 
d="M392 112c66.667 0 122.334 23.001 167.001 69.001l49 -116c-28 -25.333 -61.667 -45.166 -101 -59.499s-78.333 -21.5 -117 -21.5c-98.667 0 -183 34.5 -253 103.5s-105 151.833 -105 248.5s35 179.5 105 248.5s154.333 103.5 253 103.5c38.667 0 77.667 -7 117 -21
s73 -33.667 101 -59l-49 -116c-46.667 45.333 -102.334 68 -167.001 68c-53.333 0 -100.833 -15.833 -142.5 -47.5s-69.167 -71.834 -82.5 -120.501h281v-112h-281c13.333 -48.667 40.833 -88.834 82.5 -120.501s89.167 -47.5 142.5 -47.5z" />
    <glyph glyph-name="uni0405" unicode="&#x405;" horiz-adv-x="608" 
d="M320 408c40.667 -6.66699 75 -14.334 103 -23.001s54.333 -20.5 79 -35.5s43.167 -35 55.5 -60s18.5 -54.833 18.5 -89.5c0 -62.667 -23.5 -114.334 -70.5 -155.001s-113.5 -61 -199.5 -61c-108 0 -199.333 37.333 -274 112l64 112
c27.333 -31.333 60.666 -55.166 99.999 -71.499s76.666 -24.5 111.999 -24.5c44 0 78.333 7.33301 103 22s37 34 37 58c0 42.667 -45.333 70.667 -136 84c-92 14 -157.667 37.833 -197 71.5s-59 77.167 -59 130.5c0 58.667 23 108.334 69 149.001s109 61 189 61
c86.667 0 163.334 -27.333 230.001 -82l-54 -110c-49.333 42.667 -108.666 64 -177.999 64c-37.333 0 -68 -5.83301 -92 -17.5s-36 -30.167 -36 -55.5c0 -22 10 -38.667 30 -50s55.333 -21 106 -29z" />
    <glyph glyph-name="uni0406" unicode="&#x406;" horiz-adv-x="256" 
d="M192 0h-128v672h128v-672z" />
    <glyph glyph-name="uni0407" unicode="&#x407;" horiz-adv-x="256" 
d="M32 736c-18 0 -33.167 6.16699 -45.5 18.5s-18.5 27.5 -18.5 45.5s6.16699 33.167 18.5 45.5s27.5 18.5 45.5 18.5s33.167 -6.16699 45.5 -18.5s18.5 -27.5 18.5 -45.5s-6.16699 -33.167 -18.5 -45.5s-27.5 -18.5 -45.5 -18.5zM224 736c-18 0 -33.167 6.16699 -45.5 18.5
s-18.5 27.5 -18.5 45.5s6.16699 33.167 18.5 45.5s27.5 18.5 45.5 18.5s33.167 -6.16699 45.5 -18.5s18.5 -27.5 18.5 -45.5s-6.16699 -33.167 -18.5 -45.5s-27.5 -18.5 -45.5 -18.5zM192 0h-128v672h128v-672z" />
    <glyph glyph-name="uni0408" unicode="&#x408;" horiz-adv-x="464" 
d="M288 672h128.001v-416c0 -92.667 -20.667 -161.167 -62 -205.5s-98 -66.5 -170 -66.5c-26.667 0 -55 6 -85 18s-52.333 26.667 -67 44l70 106c21.333 -26.667 48.666 -40 81.999 -40c32.667 0 58.167 11.5 76.5 34.5s27.5 51.5 27.5 85.5v440z" />
    <glyph glyph-name="uni0409" unicode="&#x409;" horiz-adv-x="1040" 
d="M768 400c160 0 240 -66.667 240 -200c0 -64.667 -21.167 -114.167 -63.5 -148.5s-106.5 -51.5 -192.5 -51.5h-224v544h-224v-280c0 -78.667 -8 -139 -24 -181s-48.333 -71.667 -97 -89c-36.667 -13.333 -81.667 -14 -135 -2v128c15.333 -5.33301 32 -7.33301 50 -6
s32.333 5.33301 43 12c23.333 14.667 35 45.667 35 93v453h480v-272h112zM768 128c74.667 0 112 24 112 72s-37.333 72 -112 72h-112v-144h112z" />
    <glyph glyph-name="uni040A" unicode="&#x40a;" horiz-adv-x="992" 
d="M720 400c160 0 240 -66.667 240 -200c0 -64.667 -21.167 -114.167 -63.5 -148.5s-106.5 -51.5 -192.5 -51.5h-224v272h-288v-272h-128v672h128v-272h288v272h128v-272h112zM720 128c74.667 0 112 24 112 72s-37.333 72 -112 72h-112v-144h112z" />
    <glyph glyph-name="uni040B" unicode="&#x40b;" horiz-adv-x="688" 
d="M440 408c68 0 118.333 -19.333 151 -58s49 -92.667 49 -162v-188h-128v176c0 38.667 -7.5 67 -22.5 85s-39.5 27 -73.5 27c-46.667 0 -89.334 -12 -128.001 -36v-252h-128v544h-128v128h448v-128h-192v-180c52.667 29.333 103.334 44 152.001 44z" />
    <glyph glyph-name="uni040C" unicode="&#x40c;" 
d="M200 736l80 144h144l-144 -144h-80zM304 351l304 -351h-162l-254 294v-294h-128v672h128v-278l238 278h162z" />
    <glyph glyph-name="uni040E" unicode="&#x40e;" 
d="M396 880h68c0 -40 -14 -74 -42 -102s-62 -42 -102 -42s-74 14 -102 42s-42 62 -42 102h68c0 -21.333 7.33301 -39.333 22 -54s32.667 -22 54 -22s39.333 7.33301 54 22s22 32.667 22 54zM472 672h152l-360 -672h-152l130 244l-226 428h152l152 -290z" />
    <glyph glyph-name="uni040F" unicode="&#x40f;" horiz-adv-x="672" 
d="M480 672h128v-672h-208v-128h-128v128h-208v672h128v-544h288v544z" />
    <glyph glyph-name="uni0410" unicode="&#x410;" horiz-adv-x="672" 
d="M528 0l-50 128h-284l-50 -128h-144l278 672h116l278 -672h-144zM243 256h186l-93 240z" />
    <glyph glyph-name="uni0411" unicode="&#x411;" horiz-adv-x="608" 
d="M336 432c78 0 137.5 -19.1689 178.5 -57.502s61.5 -91.166 61.5 -158.499s-21.333 -120.166 -64 -158.499s-106.667 -57.5 -192 -57.5h-256v672h448v-128h-320v-112h144zM336 127.998c33.333 0 60.333 7.16699 81 21.5s31 36.5 31 66.5c0 27.333 -10.667 48.833 -32 64.5
s-48 23.5 -80 23.5h-144v-176h144z" />
    <glyph glyph-name="uni0412" unicode="&#x412;" 
d="M479 361c38.667 -10 67.167 -29.3311 85.5 -57.998s27.5 -62.334 27.5 -101.001c0 -59.333 -20.667 -107.833 -62 -145.5s-97.333 -56.5 -168 -56.5h-298v672h240c80.667 0 143.5 -14.333 188.5 -43s67.5 -73 67.5 -133c0 -32 -7.5 -59.833 -22.5 -83.5
s-34.5 -40.834 -58.5 -51.501zM192 544.002l-0.000976562 -128h120c80 0 120 21.333 120 64c0 24.667 -9.66699 41.5 -29 50.5s-49.666 13.5 -90.999 13.5h-120zM327.999 128.002c90.667 0 136 29.333 136 88c0 29.333 -12 51.333 -36 66s-57.333 22 -100 22h-136v-176h136z
" />
    <glyph glyph-name="uni0413" unicode="&#x413;" horiz-adv-x="512" 
d="M480 544h-288v-544h-128v672h416v-128z" />
    <glyph glyph-name="uni0414" unicode="&#x414;" horiz-adv-x="768" 
d="M624 128h95.999v-256h-128v128h-432v-128h-128v256c28 8 51.167 20.833 69.5 38.5s33 38.834 44 63.501s19.333 60 25 106s9.33398 93.167 11.001 141.5s2.5 113.166 2.5 194.499h440v-544zM228.999 128l267 0.000976562v416h-192c0 -212.667 -25 -351.334 -75 -416.001z
" />
    <glyph glyph-name="uni0415" unicode="&#x415;" horiz-adv-x="528" 
d="M480 544h-288v-144h240v-128h-240v-144h288v-128h-416v672h416v-128z" />
    <glyph glyph-name="uni0416" unicode="&#x416;" horiz-adv-x="992" 
d="M672 343l304 -343h-162l-254 286v-286h-128v286l-254 -286h-162l304 343l-288 329h162l238 -286v286h128v-286l238 286h162z" />
    <glyph glyph-name="uni0417" unicode="&#x417;" horiz-adv-x="576" 
d="M208 284l-0.000976562 103.999c52.667 0 97.834 8.5 135.501 25.5s56.5 39.833 56.5 68.5c0 27.333 -12.333 47.166 -37 59.499s-51 18.5 -79 18.5c-36.667 0 -68.5 -5.33301 -95.5 -16s-55.167 -26.667 -84.5 -48l-58 104c74 58.667 156 88 246 88
c66 0 121.833 -18.333 167.5 -55s68.5 -85 68.5 -145c0 -62 -28.333 -108 -85 -138c30 -9.33301 54.333 -27.666 73 -54.999s28 -59 28 -95c0 -62 -24.667 -113.5 -74 -154.5s-112.333 -61.5 -189 -61.5c-95.333 0 -178.333 30.667 -249 92l64 106
c52 -46.667 112 -70 180 -70c38 0 70.833 7.83301 98.5 23.5s41.5 36.834 41.5 63.501c0 56.667 -69.333 85 -208 85z" />
    <glyph glyph-name="uni0418" unicode="&#x418;" horiz-adv-x="720" 
d="M192 672v-464l336 464h128v-672h-128v464l-336 -464h-128v672h128z" />
    <glyph glyph-name="uni0419" unicode="&#x419;" horiz-adv-x="720" 
d="M436 880h68c0 -40 -14 -74 -42 -102s-62 -42 -102 -42s-74 14 -102 42s-42 62 -42 102h68c0 -21.333 7.33301 -39.333 22 -54s32.667 -22 54 -22s39.333 7.33301 54 22s22 32.667 22 54zM192 672v-464l336 464h128v-672h-128v464l-336 -464h-128v672h128z" />
    <glyph glyph-name="uni041A" unicode="&#x41a;" 
d="M304 351l304 -351h-162l-254 294v-294h-128v672h128v-278l238 278h162z" />
    <glyph glyph-name="uni041B" unicode="&#x41b;" horiz-adv-x="720" 
d="M656 672v-672h-128v544h-224v-280c0 -78.667 -8 -139 -24 -181s-48.333 -71.667 -97 -89c-36.667 -13.333 -81.667 -14 -135 -2v128c15.333 -5.33301 32 -7.33301 50 -6s32.333 5.33301 43 12c23.333 14.667 35 45.667 35 93v453h480z" />
    <glyph glyph-name="uni041C" unicode="&#x41c;" horiz-adv-x="864" 
d="M736 672l96 -672h-136l-56 440l-176 -440h-64l-176 440l-56 -440h-136l96 672h128l176 -432l176 432h128z" />
    <glyph glyph-name="uni041D" unicode="&#x41d;" horiz-adv-x="672" 
d="M480 672h128v-672h-128v272h-288v-272h-128v672h128v-272h288v272z" />
    <glyph glyph-name="uni041E" unicode="&#x41e;" horiz-adv-x="768" 
d="M384 688c97.333 0 180.333 -34.333 249 -103s103 -151.667 103 -249s-34.333 -180.333 -103 -249s-151.667 -103 -249 -103s-180.333 34.333 -249 103s-103 151.667 -103 249s34.333 180.333 103 249s151.667 103 249 103zM384 112c62 0 114.833 21.833 158.5 65.5
s65.5 96.5 65.5 158.5s-21.833 114.833 -65.5 158.5s-96.5 65.5 -158.5 65.5s-114.833 -21.833 -158.5 -65.5s-65.5 -96.5 -65.5 -158.5s21.833 -114.833 65.5 -158.5s96.5 -65.5 158.5 -65.5z" />
    <glyph glyph-name="uni041F" unicode="&#x41f;" horiz-adv-x="672" 
d="M608 672v-672h-128v544h-288v-544h-128v672h544z" />
    <glyph glyph-name="uni0420" unicode="&#x420;" horiz-adv-x="592" 
d="M304 672c84.667 0 148.5 -20.333 191.5 -61s64.5 -95 64.5 -163c0 -60.667 -20.333 -113.167 -61 -157.5s-95 -66.5 -163 -66.5h-144v-224h-128v672h240zM320 352c31.333 0 57.833 8.99902 79.5 26.999s32.5 41 32.5 69c0 30.667 -10.5 54.334 -31.5 71.001
s-47.833 25 -80.5 25h-128v-192h128z" />
    <glyph glyph-name="uni0421" unicode="&#x421;" horiz-adv-x="640" 
d="M392 112c66.667 0 122.334 22.999 167.001 68.999l49 -116c-28 -25.333 -61.667 -45.166 -101 -59.499s-78.333 -21.5 -117 -21.5c-98.667 0 -183 34.5 -253 103.5s-105 151.833 -105 248.5s35 179.5 105 248.5s154.333 103.5 253 103.5c38.667 0 77.667 -7 117 -21
s73 -33.667 101 -59l-49 -116c-46.667 45.333 -102.334 68 -167.001 68c-64 0 -118.667 -21.833 -164 -65.5s-68 -96.5 -68 -158.5s22.667 -114.833 68 -158.5s100 -65.5 164 -65.5z" />
    <glyph glyph-name="uni0422" unicode="&#x422;" horiz-adv-x="544" 
d="M32 672h480v-128h-176v-544h-128v544h-176v128z" />
    <glyph glyph-name="uni0423" unicode="&#x423;" 
d="M472 672h152l-360 -672h-152l130 244l-226 428h152l152 -290z" />
    <glyph glyph-name="uni0424" unicode="&#x424;" horiz-adv-x="800" 
d="M768 352c0 -82 -29.167 -150.5 -87.5 -205.5s-130.5 -82.5 -216.5 -82.5v-64h-128v64c-86 0 -158.167 27.5 -216.5 82.5s-87.5 123.5 -87.5 205.5c0 83.333 29.5 152.166 88.5 206.499s130.833 81.5 215.5 81.5v64h128v-64c84.667 0 156.5 -27.167 215.5 -81.5
s88.5 -123.166 88.5 -206.499zM336 188v328c-50 0 -91.833 -13.5 -125.5 -40.5s-50.5 -68.167 -50.5 -123.5c0 -56 16.833 -97.333 50.5 -124s75.5 -40 125.5 -40zM464 188c50.667 0 92.667 13.333 126 40s50 68 50 124s-16.667 97.333 -50 124s-75.333 40 -126 40v-328z
" />
    <glyph glyph-name="uni0425" unicode="&#x425;" horiz-adv-x="688" 
d="M434 352l238 -352h-160l-168 256l-168 -256h-160l238 352l-223 320h161l152 -236l152 236h161z" />
    <glyph glyph-name="uni0426" unicode="&#x426;" horiz-adv-x="752" 
d="M608 128h96v-256h-128v128h-512v672h128v-544h288v544h128v-544z" />
    <glyph glyph-name="uni0427" unicode="&#x427;" 
d="M272 216c-66.667 0 -120.668 20.833 -162.001 62.5s-62 100.834 -62 177.501v216h128v-216c0 -37.333 10.833 -65.333 32.5 -84s50.834 -28 87.501 -28c23.333 0 46.333 2.66699 69 8s39.667 10.666 51 15.999l16 8v296h128v-672h-128v252c-54 -24 -107.333 -36 -160 -36
z" />
    <glyph glyph-name="uni0428" unicode="&#x428;" horiz-adv-x="896" 
d="M704 672h128v-672h-768v672h128v-544h192v544h128v-544h192v544z" />
    <glyph glyph-name="uni0429" unicode="&#x429;" horiz-adv-x="976" 
d="M832 128h96v-256h-128v128h-736v672h128v-544h192v544h128v-544h192v544h128v-544z" />
    <glyph glyph-name="uni042A" unicode="&#x42a;" horiz-adv-x="688" 
d="M416 432c78 0 137.5 -19.1689 178.5 -57.502s61.5 -91.166 61.5 -158.499s-21.333 -120.166 -64 -158.499s-106.667 -57.5 -192 -57.5h-240v544h-128v128h256v-240h128zM416 127.998c33.333 0 60.333 7.16699 81 21.5s31 36.5 31 66.5c0 27.333 -10.667 48.833 -32 64.5
s-48 23.5 -80 23.5h-128v-176h128z" />
    <glyph glyph-name="uni042B" unicode="&#x42b;" horiz-adv-x="832" 
d="M320 432c78 0 137.5 -19.1689 178.5 -57.502s61.5 -91.166 61.5 -158.499s-21.333 -120.166 -64 -158.499s-106.667 -57.5 -192 -57.5h-240v672h128v-240h128zM768 -0.00195312h-128v672h128v-672zM320 127.998c33.333 0 60.333 7.16699 81 21.5s31 36.5 31 66.5
c0 27.333 -10.667 48.833 -32 64.5s-48 23.5 -80 23.5h-128v-176h128z" />
    <glyph glyph-name="uni042C" unicode="&#x42c;" horiz-adv-x="592" 
d="M320 432c78 0 137.5 -19.1689 178.5 -57.502s61.5 -91.166 61.5 -158.499s-21.333 -120.166 -64 -158.499s-106.667 -57.5 -192 -57.5h-240v672h128v-240h128zM320 127.998c33.333 0 60.333 7.16699 81 21.5s31 36.5 31 66.5c0 27.333 -10.667 48.833 -32 64.5
s-48 23.5 -80 23.5h-128v-176h128z" />
    <glyph glyph-name="uni042D" unicode="&#x42d;" horiz-adv-x="640" 
d="M248 112c53.333 0 100.833 15.832 142.5 47.499s69.167 71.834 82.5 120.501h-281v112h281c-13.333 48.667 -40.833 88.834 -82.5 120.501s-89.167 47.5 -142.5 47.5c-64.667 0 -120.334 -22.667 -167.001 -68l-49 116c28 25.333 61.667 45 101 59s78.333 21 117 21
c98.667 0 183 -34.5 253 -103.5s105 -151.833 105 -248.5s-35 -179.5 -105 -248.5s-154.333 -103.5 -253 -103.5c-38.667 0 -77.667 7.16699 -117 21.5s-73 34.166 -101 59.499l49 116c44.667 -46 100.334 -69 167.001 -69z" />
    <glyph glyph-name="uni042E" unicode="&#x42e;" horiz-adv-x="1024" 
d="M640 688c97.333 0 180.333 -34.335 249 -103.002s103 -151.667 103 -249s-34.333 -180.333 -103 -249s-151.667 -103 -249 -103c-85.333 0 -160.5 27.333 -225.5 82s-105.167 123.334 -120.5 206.001h-102v-272h-128v672h128v-272h102
c15.333 82.667 55.5 151.334 120.5 206.001s140.167 82 225.5 82zM640 111.998c62 0 114.833 21.833 158.5 65.5s65.5 96.5 65.5 158.5s-21.833 114.833 -65.5 158.5s-96.5 65.5 -158.5 65.5s-114.833 -21.833 -158.5 -65.5s-65.5 -96.5 -65.5 -158.5
s21.833 -114.833 65.5 -158.5s96.5 -65.5 158.5 -65.5z" />
    <glyph glyph-name="uni042F" unicode="&#x42f;" horiz-adv-x="608" 
d="M32 0l170 233.998c-48 14.667 -85.667 41.834 -113 81.501s-41 83.834 -41 132.501c0 68 21.5 122.333 64.5 163s106.833 61 191.5 61h240v-672h-128v224h-77l-151 -224h-156zM416 543.998l-128 0.000976562c-32.667 0 -59.5 -8.33301 -80.5 -25
s-31.5 -40.334 -31.5 -71.001c0 -28 10.833 -51 32.5 -69s48.167 -27 79.5 -27h128v192z" />
    <glyph glyph-name="uni0430" unicode="&#x430;" 
d="M432 496l128 -0.00195312v-496h-128v53c-40 -46 -90.667 -69 -152 -69c-68.667 0 -127.167 25.833 -175.5 77.5s-72.5 113.834 -72.5 186.501s24.167 134.834 72.5 186.501s106.833 77.5 175.5 77.5c61.333 0 112 -23 152 -69v53zM296 111.998
c37.333 0 69.333 13.333 96 40s40 58.667 40 96s-13.333 69.333 -40 96s-58.667 40 -96 40s-69.333 -13.333 -96 -40s-40 -58.667 -40 -96s13.333 -69.333 40 -96s58.667 -40 96 -40z" />
    <glyph glyph-name="uni0431" unicode="&#x431;" horiz-adv-x="592" 
d="M276 510c6.66699 1.33301 13.3301 2.00098 19.9971 2.00098c78.667 0 142.334 -25.667 191.001 -77s73 -113.666 73 -186.999s-25.667 -135.666 -77 -186.999s-113.666 -77 -186.999 -77s-135.666 25.667 -186.999 77s-77 113.666 -77 186.999
c0 127.333 52 232.666 156 315.999l32.5 25.5l30.5 24c5.33301 4.33301 13 11 23 20s17.333 16.5 22 22.5l16 21.5c6 8.33301 11.333 17.166 16 26.499h152c-8 -54.667 -49 -101.667 -123 -141c-37.333 -19.333 -64.333 -37 -81 -53zM295.996 112.001
c37.333 0 69.333 13.333 96 40s40 58.667 40 96s-13.333 69.333 -40 96s-58.667 40 -96 40s-69.333 -13.333 -96 -40s-40 -58.667 -40 -96s13.333 -69.333 40 -96s58.667 -40 96 -40z" />
    <glyph glyph-name="uni0432" unicode="&#x432;" horiz-adv-x="544" 
d="M416 261c25.333 -6.66699 45 -19.333 59 -38s21 -41 21 -67c0 -56 -19.833 -96 -59.5 -120s-97.167 -36 -172.5 -36h-200v496h184c154.667 0 232 -46.667 232 -140c0 -22.667 -5.5 -42.5 -16.5 -59.5s-26.833 -28.833 -47.5 -35.5zM192 368.001v-72h102
c38.667 0 58 12 58 36s-19.333 36 -58 36h-102zM309 128.001c14.667 0 28.167 3.5 40.5 10.5s18.5 16.833 18.5 29.5s-6.16699 22.5 -18.5 29.5s-25.833 10.5 -40.5 10.5h-117v-80h117z" />
    <glyph glyph-name="uni0433" unicode="&#x433;" horiz-adv-x="416" 
d="M192 368v-368h-128v496h320v-128h-192z" />
    <glyph glyph-name="uni0434" unicode="&#x434;" horiz-adv-x="672" 
d="M544 128l80 -0.000976562v-256h-128v128h-336v-128h-128v256c29.333 2.66699 53.833 13.334 73.5 32.001s34.5 45.5 44.5 80.5s16.833 72.5 20.5 112.5s5.5 87.667 5.5 143h368v-368zM225 127.999h191v240h-128c0 -104.667 -21 -184.667 -63 -240z" />
    <glyph glyph-name="uni0435" unicode="&#x435;" horiz-adv-x="560" 
d="M528 248c0 -9.33301 -0.666016 -22.667 -1.99902 -40h-361c9.33301 -34 26.5 -61.167 51.5 -81.5s56.833 -30.5 95.5 -30.5c55.333 0 104.666 15.333 147.999 46l37 -111c-5.33301 -3.33301 -12.833 -7.66602 -22.5 -12.999s-30.667 -12.333 -63 -21
s-66.166 -13 -101.499 -13c-92 0 -161.333 24.667 -208 74s-70 112.666 -70 189.999s22 140.666 66 189.999s107.333 74 190 74c77.333 0 136.666 -23.167 177.999 -69.5s62 -111.166 62 -194.499zM168.001 303.999h224c0 24 -9.83301 46 -29.5 66s-47.167 30 -82.5 30
c-30 0 -56.167 -10.5 -78.5 -31.5s-33.5 -42.5 -33.5 -64.5z" />
    <glyph glyph-name="uni0436" unicode="&#x436;" horiz-adv-x="832" 
d="M584 256l232 -256h-160l-176 196v-196h-128v196l-176 -196h-160l232 256l-216 240h160l160 -188v188h128v-188l160 188h160z" />
    <glyph glyph-name="uni0437" unicode="&#x437;" horiz-adv-x="512" 
d="M220 110c32 -1.33301 59.3359 1.83398 82.0029 9.50098s34 19.167 34 34.5c0 18 -16.833 31.5 -50.5 40.5s-75.5 13.5 -125.5 13.5v80c52.667 0 93.834 5 123.501 15s44.5 22.667 44.5 38c0 13.333 -8.5 24.5 -25.5 33.5s-42.5 12.833 -76.5 11.5
c-60.667 -2.66699 -109.334 -17.334 -146.001 -44.001l-44 108c28 19.333 60.5 34.5 97.5 45.5s71.833 16.5 104.5 16.5c66.667 0 119.667 -13 159 -39s59 -63 59 -111c0 -21.333 -5.83301 -40.833 -17.5 -58.5s-28.834 -30.834 -51.501 -39.501
c23.333 -9.33301 42 -24.666 56 -45.999s21 -44 21 -68c0 -52.667 -20.667 -93.5 -62 -122.5s-95 -43.5 -161 -43.5c-82.667 0 -152.334 20.333 -209.001 61l40 105c31.333 -24 80.666 -37.333 147.999 -40z" />
    <glyph glyph-name="uni0438" unicode="&#x438;" horiz-adv-x="608" 
d="M192 496v-308l224 308h128v-496h-128v308l-224 -308h-128v496h128z" />
    <glyph glyph-name="uni0439" unicode="&#x439;" horiz-adv-x="608" 
d="M380 704h68c0 -40 -14 -74 -42 -102s-62 -42 -102 -42s-74 14 -102 42s-42 62 -42 102h68c0 -21.333 7.33301 -39.333 22 -54s32.667 -22 54 -22s39.333 7.33301 54 22s22 32.667 22 54zM192 496v-308l224 308h128v-496h-128v308l-224 -308h-128v496h128z" />
    <glyph glyph-name="uni043A" unicode="&#x43a;" horiz-adv-x="560" 
d="M304 256l256 -256h-160l-208 196v-196h-128v496h128v-188l192 188h160z" />
    <glyph glyph-name="uni043B" unicode="&#x43b;" horiz-adv-x="608" 
d="M416 0v368h-152v-187c0 -131.333 -44.333 -197 -133 -197c-30.667 0 -58.334 5.33301 -83.001 16v112c30.667 -10 54.334 -11.333 71.001 -4s25 27.333 25 60v328h400v-496h-128z" />
    <glyph glyph-name="uni043C" unicode="&#x43c;" horiz-adv-x="688" 
d="M548 0l-51 284l-97 -284h-112l-97 284l-51 -284h-124l91 496h124l113 -329l113 329h124l91 -496h-124z" />
    <glyph glyph-name="uni043D" unicode="&#x43d;" horiz-adv-x="592" 
d="M400 496h128v-496h-128v184h-208v-184h-128v496h128v-184h208v184z" />
    <glyph glyph-name="uni043E" unicode="&#x43e;" horiz-adv-x="592" 
d="M296 512c73.333 0 135.666 -25.667 186.999 -77s77 -113.666 77 -186.999s-25.667 -135.666 -77 -186.999s-113.666 -77 -186.999 -77s-135.666 25.667 -186.999 77s-77 113.666 -77 186.999s25.667 135.666 77 186.999s113.666 77 186.999 77zM296 112
c37.333 0 69.333 13.333 96 40s40 58.667 40 96s-13.333 69.333 -40 96s-58.667 40 -96 40s-69.333 -13.333 -96 -40s-40 -58.667 -40 -96s13.333 -69.333 40 -96s58.667 -40 96 -40z" />
    <glyph glyph-name="uni043F" unicode="&#x43f;" horiz-adv-x="592" 
d="M528 496v-496h-128v368h-208v-368h-128v496h464z" />
    <glyph glyph-name="uni0440" unicode="&#x440;" 
d="M344 512c68.667 0 127.167 -25.8311 175.5 -77.498s72.5 -113.834 72.5 -186.501s-24.167 -134.834 -72.5 -186.501s-106.833 -77.5 -175.5 -77.5c-61.333 0 -112 23 -152 69v-309h-128v752h128v-53c40 46 90.667 69 152 69zM328 112.002c37.333 0 69.333 13.333 96 40
s40 58.667 40 96s-13.333 69.333 -40 96s-58.667 40 -96 40s-69.333 -13.333 -96 -40s-40 -58.667 -40 -96s13.333 -69.333 40 -96s58.667 -40 96 -40z" />
    <glyph glyph-name="uni0441" unicode="&#x441;" horiz-adv-x="512" 
d="M312 112c46.667 0 85.001 15.002 115.001 45.002l53 -114c-40.667 -39.333 -98 -59 -172 -59c-84.667 0 -151.834 25.167 -201.501 75.5s-74.5 113.166 -74.5 188.499s25 138.166 75 188.499s117 75.5 201 75.5c70.667 0 128 -19.667 172 -59l-53 -115
c-30.667 30.667 -69 46 -115 46s-82.833 -13 -110.5 -39s-41.5 -58.333 -41.5 -97s13.833 -71 41.5 -97s64.5 -39 110.5 -39z" />
    <glyph glyph-name="uni0442" unicode="&#x442;" horiz-adv-x="480" 
d="M32 496h416v-128h-144v-368h-128v368h-144v128z" />
    <glyph glyph-name="uni0443" unicode="&#x443;" horiz-adv-x="528" 
d="M384 496h144l-320 -752h-144l128 292l-192 460h144l120 -292z" />
    <glyph glyph-name="uni0444" unicode="&#x444;" horiz-adv-x="832" 
d="M576 512c65.333 0 119 -25.5 161 -76.5s63 -113.5 63 -187.5s-21 -136.5 -63 -187.5s-95.667 -76.5 -161 -76.5c-35.333 0 -67.333 8 -96 24v-216h-128v216c-28.667 -16 -60.667 -24 -96 -24c-65.333 0 -119 25.5 -161 76.5s-63 113.5 -63 187.5s21 136.5 63 187.5
s95.667 76.5 161 76.5c35.333 0 67.333 -8 96 -24v216h128v-216c28.667 16 60.667 24 96 24zM279 112c19.333 0 36.333 5 51 15s22 23.667 22 41v157c0 19.333 -7.16699 34 -21.5 44s-31.5 15 -51.5 15c-39.333 0 -69 -12.667 -89 -38s-30 -58 -30 -98s10 -72.667 30 -98
s49.667 -38 89 -38zM553 112c39.333 0 69 12.667 89 38s30 58 30 98s-10 72.667 -30 98s-49.667 38 -89 38c-20 0 -37.167 -5 -51.5 -15s-21.5 -24.667 -21.5 -44v-157c0 -17.333 7.33301 -31 22 -41s31.667 -15 51 -15z" />
    <glyph glyph-name="uni0445" unicode="&#x445;" horiz-adv-x="560" 
d="M360 264l184 -264h-160l-104 160l-104 -160h-160l184 264l-168 232h160l88 -140l88 140h160z" />
    <glyph glyph-name="uni0446" unicode="&#x446;" horiz-adv-x="672" 
d="M528 128h96v-256h-128v128h-432v496h128v-368h208v368h128v-368z" />
    <glyph glyph-name="uni0447" unicode="&#x447;" horiz-adv-x="560" 
d="M240 160c-56 0 -101.999 16.5 -137.999 49.5s-54 83.167 -54 150.5v136h128v-118c0 -60 30.667 -90 92 -90c43.333 0 76.666 3.66699 99.999 11v197h128v-496h-128v184c-48 -16 -90.667 -24 -128 -24z" />
    <glyph glyph-name="uni0448" unicode="&#x448;" horiz-adv-x="800" 
d="M608 496h128v-496h-672v496h128v-368h144v368h128v-368h144v368z" />
    <glyph glyph-name="uni0449" unicode="&#x449;" horiz-adv-x="880" 
d="M736 128h96v-256h-128v128h-640v496h128v-368h144v368h128v-368h144v368h128v-368z" />
    <glyph glyph-name="uni044A" unicode="&#x44a;" 
d="M376 336c144 0 216.001 -54.667 216.001 -164c0 -57.333 -18.833 -100.333 -56.5 -129s-90.834 -43 -159.501 -43h-216v368h-128v128h256v-160h88zM405.001 128c16.667 0 30.667 3.5 42 10.5s17 16.833 17 29.5c0 13.333 -5.66699 23.333 -17 30s-25.333 10 -42 10h-117
v-80h117z" />
    <glyph glyph-name="uni044B" unicode="&#x44b;" horiz-adv-x="768" 
d="M64 0l0.000976562 496h128v-160h88c144 0 216 -54.667 216 -164c0 -57.333 -18.833 -100.333 -56.5 -129s-90.834 -43 -159.501 -43h-216zM576.001 0v496h128v-496h-128zM309.001 128c16.667 0 30.667 3.5 42 10.5s17 16.833 17 29.5c0 13.333 -5.66699 23.333 -17 30
s-25.333 10 -42 10h-117v-80h117z" />
    <glyph glyph-name="uni044C" unicode="&#x44c;" horiz-adv-x="528" 
d="M64 0l0.000976562 496h128v-160h88c144 0 216 -54.667 216 -164c0 -57.333 -18.833 -100.333 -56.5 -129s-90.834 -43 -159.501 -43h-216zM309.001 128c16.667 0 30.667 3.5 42 10.5s17 16.833 17 29.5c0 13.333 -5.66699 23.333 -17 30s-25.333 10 -42 10h-117v-80h117z
" />
    <glyph glyph-name="uni044D" unicode="&#x44d;" horiz-adv-x="512" 
d="M200 112c39.333 0 72 9.49805 98 28.498s42.667 44.167 50 75.5h-188v64h188c-7.33301 30.667 -24.166 55.667 -50.499 75s-58.833 29 -97.5 29c-46 0 -84.333 -15.333 -115 -46l-53 115c44 39.333 101.333 59 172 59c84 0 151 -25.167 201 -75.5
s75 -113.166 75 -188.499s-24.833 -138.166 -74.5 -188.499s-116.834 -75.5 -201.501 -75.5c-74 0 -131.333 19.667 -172 59l53 114c30 -30 68.333 -45 115 -45z" />
    <glyph glyph-name="uni044E" unicode="&#x44e;" horiz-adv-x="848" 
d="M552 512c73.333 0 135.666 -25.6689 186.999 -77.002s77 -113.666 77 -186.999s-25.667 -135.666 -77 -186.999s-113.666 -77 -186.999 -77c-62.667 0 -118 19.667 -166 59s-78.667 89 -92 149h-102v-192h-128v496h128v-192h102c13.333 60 44 109.667 92 149
s103.333 59 166 59zM552 111.998c37.333 0 69.333 13.333 96 40s40 58.667 40 96s-13.333 69.333 -40 96s-58.667 40 -96 40s-69.333 -13.333 -96 -40s-40 -58.667 -40 -96s13.333 -69.333 40 -96s58.667 -40 96 -40z" />
    <glyph glyph-name="uni044F" unicode="&#x44f;" horiz-adv-x="544" 
d="M280 496h200v-496h-128v160l-152 -160h-168l168 169c-44 3.33301 -80.333 18.5 -109 45.5s-43 62.167 -43 105.5c0 117.333 77.333 176 232 176zM243 368c-18.667 0 -34.5 -4.16895 -47.5 -12.502s-19.5 -20.166 -19.5 -35.499s6.5 -27.166 19.5 -35.499
s28.833 -12.5 47.5 -12.5h109v96h-109z" />
    <glyph glyph-name="uni0451" unicode="&#x451;" horiz-adv-x="560" 
d="M184 560c-18 0 -33.167 6.16699 -45.5 18.5s-18.5 27.5 -18.5 45.5s6.16699 33.167 18.5 45.5s27.5 18.5 45.5 18.5s33.167 -6.16699 45.5 -18.5s18.5 -27.5 18.5 -45.5s-6.16699 -33.167 -18.5 -45.5s-27.5 -18.5 -45.5 -18.5zM376 560
c-18 0 -33.167 6.16699 -45.5 18.5s-18.5 27.5 -18.5 45.5s6.16699 33.167 18.5 45.5s27.5 18.5 45.5 18.5s33.167 -6.16699 45.5 -18.5s18.5 -27.5 18.5 -45.5s-6.16699 -33.167 -18.5 -45.5s-27.5 -18.5 -45.5 -18.5zM528 248c0 -9.33301 -0.666016 -22.667 -1.99902 -40
h-361c9.33301 -34 26.5 -61.167 51.5 -81.5s56.833 -30.5 95.5 -30.5c55.333 0 104.666 15.333 147.999 46l37 -111c-5.33301 -3.33301 -12.833 -7.66602 -22.5 -12.999s-30.667 -12.333 -63 -21s-66.166 -13 -101.499 -13c-92 0 -161.333 24.667 -208 74
s-70 112.666 -70 189.999s22 140.666 66 189.999s107.333 74 190 74c77.333 0 136.666 -23.167 177.999 -69.5s62 -111.166 62 -194.499zM168.001 303.999h224c0 24 -9.83301 46 -29.5 66s-47.167 30 -82.5 30c-30 0 -56.167 -10.5 -78.5 -31.5s-33.5 -42.5 -33.5 -64.5z
" />
    <glyph glyph-name="uni0452" unicode="&#x452;" horiz-adv-x="592" 
d="M358 512c58 0 103.499 -18.998 136.499 -56.998s49.5 -93.667 49.5 -167v-288c0 -53.333 -6.5 -98.833 -19.5 -136.5s-30.333 -65.834 -52 -84.501s-43.5 -31.834 -65.5 -39.501s-45.667 -11.5 -71 -11.5l-32 112c34 0 61.167 12.5 81.5 37.5s30.5 60.5 30.5 106.5v288
c0 38.667 -7.66699 67 -23 85s-39.666 27 -72.999 27c-32 0 -58.667 -10.667 -80 -32s-32 -53.333 -32 -96v-256h-128v552h-64v64h64v88h128v-88h64v-64h-64v-104c36 42.667 86 64 150 64z" />
    <glyph glyph-name="uni0453" unicode="&#x453;" horiz-adv-x="416" 
d="M128 560l80 144h144l-144 -144h-80zM192 368v-368h-128v496h320v-128h-192z" />
    <glyph glyph-name="uni0454" unicode="&#x454;" horiz-adv-x="512" 
d="M312 112c46.667 0 85 15.002 115 45.002l53 -114c-40.667 -39.333 -98 -59 -172 -59c-84.667 0 -151.834 25.167 -201.501 75.5s-74.5 113.166 -74.5 188.499s25 138.166 75 188.499s117 75.5 201 75.5c70.667 0 128 -19.667 172 -59l-53 -115
c-30.667 30.667 -69 46 -115 46c-38.667 0 -71.167 -9.66699 -97.5 -29s-43.166 -44.333 -50.499 -75h188v-64h-188c7.33301 -31.333 24 -56.5 50 -75.5s58.667 -28.5 98 -28.5z" />
    <glyph glyph-name="uni0455" unicode="&#x455;" horiz-adv-x="512" 
d="M281 316c76.667 -12 129.002 -31.6689 157.002 -59.002s42 -59.666 42 -96.999c0 -52 -19.5 -94.333 -58.5 -127s-92.167 -49 -159.5 -49c-52 0 -98.833 8 -140.5 24s-71.5 32 -89.5 48l42 120c21.333 -20 48.5 -36.5 81.5 -49.5s64.5 -19.833 94.5 -20.5
c68 -1.33301 102 13 102 43c0 10.667 -6.16699 18.667 -18.5 24s-35.5 11 -69.5 17c-44.667 7.33301 -81.834 16.5 -111.501 27.5s-51.834 24 -66.501 39s-24.667 30.5 -30 46.5s-8 35 -8 57c0 41.333 20.333 77 61 107s92.667 45 156 45c66.667 0 131 -16 193 -48l-36 -116
c-14 10 -36 19.333 -66 28s-60.333 13.334 -91 14.001c-59.333 1.33301 -89 -8.66699 -89 -30c0 -16.667 20 -28.667 60 -36c6 -1.33301 15.667 -3 29 -5z" />
    <glyph glyph-name="uni0456" unicode="&#x456;" horiz-adv-x="256" 
d="M128 560c-24.667 0 -45.5 8.5 -62.5 25.5s-25.5 37.833 -25.5 62.5s8.5 45.5 25.5 62.5s37.833 25.5 62.5 25.5s45.5 -8.5 62.5 -25.5s25.5 -37.833 25.5 -62.5s-8.5 -45.5 -25.5 -62.5s-37.833 -25.5 -62.5 -25.5zM64 0v496h128v-496h-128z" />
    <glyph glyph-name="uni0457" unicode="&#x457;" horiz-adv-x="256" 
d="M32 560c-18 0 -33.167 6.16699 -45.5 18.5s-18.5 27.5 -18.5 45.5s6.16699 33.167 18.5 45.5s27.5 18.5 45.5 18.5s33.167 -6.16699 45.5 -18.5s18.5 -27.5 18.5 -45.5s-6.16699 -33.167 -18.5 -45.5s-27.5 -18.5 -45.5 -18.5zM224 560c-18 0 -33.167 6.16699 -45.5 18.5
s-18.5 27.5 -18.5 45.5s6.16699 33.167 18.5 45.5s27.5 18.5 45.5 18.5s33.167 -6.16699 45.5 -18.5s18.5 -27.5 18.5 -45.5s-6.16699 -33.167 -18.5 -45.5s-27.5 -18.5 -45.5 -18.5zM64 0v496h128v-496h-128z" />
    <glyph glyph-name="uni0458" unicode="&#x458;" horiz-adv-x="256" 
d="M128 560c-24.667 0 -45.5 8.5 -62.5 25.5s-25.5 37.833 -25.5 62.5s8.5 45.5 25.5 62.5s37.833 25.5 62.5 25.5s45.5 -8.5 62.5 -25.5s25.5 -37.833 25.5 -62.5s-8.5 -45.5 -25.5 -62.5s-37.833 -25.5 -62.5 -25.5zM64 -16v512.002h128v-496
c0 -53.333 -6.5 -98.833 -19.5 -136.5s-30.333 -65.834 -52 -84.501s-43.5 -31.834 -65.5 -39.501s-45.667 -11.5 -71 -11.5l-32 112c34 0 61.167 12.5 81.5 37.5s30.5 60.5 30.5 106.5z" />
    <glyph glyph-name="uni0459" unicode="&#x459;" horiz-adv-x="864" 
d="M616 328c70.667 0 124.333 -12.5 161 -37.5s55 -65.833 55 -122.5c0 -112 -72 -168 -216 -168h-200v368h-152v-187c0 -131.333 -44.333 -197 -133 -197c-30.667 0 -58.334 5.33301 -83.001 16v112c30.667 -10 54.334 -11.333 71.001 -4s25 27.333 25 60v328h400v-168h72z
M644.999 128c39.333 0 59 12 59 36s-19.667 36 -59 36h-101v-72h101z" />
    <glyph glyph-name="uni045A" unicode="&#x45a;" horiz-adv-x="848" 
d="M600 328c70.667 0 124.333 -12.5 161 -37.5s55 -65.833 55 -122.5c0 -112 -72 -168 -216 -168h-200v200h-208v-200h-128v496h128v-168h208v168h128v-168h72zM628.999 128c39.333 0 59 12 59 36s-19.667 36 -59 36h-101v-72h101z" />
    <glyph glyph-name="uni045B" unicode="&#x45b;" horiz-adv-x="592" 
d="M358 512c58 0 103.499 -19 136.499 -57s49.5 -93.667 49.5 -167v-288h-128v272c0 38.667 -7.66699 67 -23 85s-39.666 27 -72.999 27c-32 0 -58.667 -10.667 -80 -32s-32 -53.333 -32 -96v-256h-128v552h-64v64h64v88h128v-88h64v-64h-64v-104c36 42.667 86 64 150 64z
" />
    <glyph glyph-name="uni045C" unicode="&#x45c;" horiz-adv-x="560" 
d="M192 560l80 144h144l-144 -144h-80zM304 256l256 -256h-160l-208 196v-196h-128v496h128v-188l192 188h160z" />
    <glyph glyph-name="uni045E" unicode="&#x45e;" horiz-adv-x="528" 
d="M340 704h68c0 -40 -14 -74 -42 -102s-62 -42 -102 -42s-74 14 -102 42s-42 62 -42 102h68c0 -21.333 7.33301 -39.333 22 -54s32.667 -22 54 -22s39.333 7.33301 54 22s22 32.667 22 54zM384 496h144l-320 -752h-144l128 292l-192 460h144l120 -292z" />
    <glyph glyph-name="uni045F" unicode="&#x45f;" horiz-adv-x="592" 
d="M400 496h128v-496h-168v-128h-128v128h-168v496h128v-368h208v368z" />
    <glyph glyph-name="uni0462" unicode="&#x462;" 
d="M352 432c78 0 137.5 -19.1689 178.5 -57.502s61.5 -91.166 61.5 -158.499s-21.333 -120.166 -64 -158.499s-106.667 -57.5 -192 -57.5h-240v512h-80v96h80v96h128v-96h160v-96h-160v-80h128zM352 127.998c33.333 0 60.333 7.16699 81 21.5s31 36.5 31 66.5
c0 27.333 -10.667 48.833 -32 64.5s-48 23.5 -80 23.5h-128v-176h128z" />
    <glyph glyph-name="uni0463" unicode="&#x463;" horiz-adv-x="544" 
d="M296 336c144 0 216.001 -54.667 216.001 -164c0 -57.333 -18.833 -100.333 -56.5 -129s-90.834 -43 -159.501 -43h-216v392h-64v64h64v72h128v-72h64v-64h-64v-56h88zM325.001 128c16.667 0 30.667 3.5 42 10.5s17 16.833 17 29.5c0 13.333 -5.66699 23.333 -17 30
s-25.333 10 -42 10h-117v-80h117z" />
    <glyph glyph-name="uni0472" unicode="&#x472;" horiz-adv-x="768" 
d="M384 688c97.333 0 180.333 -34.333 249 -103s103 -151.667 103 -249s-34.333 -180.333 -103 -249s-151.667 -103 -249 -103s-180.333 34.333 -249 103s-103 151.667 -103 249s34.333 180.333 103 249s151.667 103 249 103zM384 560
c-57.333 0 -107.165 -18.999 -149.498 -56.999s-66.833 -85.333 -73.5 -142c31.333 17.333 71.666 26 120.999 26c34 0 69 -6 105 -18c42 -14.667 83.833 -20.834 125.5 -18.501s71.5 14.5 89.5 36.5c-11.333 50 -37.333 91.333 -78 124s-87.334 49 -140.001 49z
M384.001 112.001c57.333 0 106.999 18.666 148.999 55.999s66.333 84 73 140c-30 -16.667 -69 -25 -117 -25c-36 0 -73 6.33301 -111 19c-42 14.667 -83.333 20.834 -124 18.501s-70 -14.5 -88 -36.5c11.333 -50 37.333 -91.167 78 -123.5s87.334 -48.5 140.001 -48.5z" />
    <glyph glyph-name="uni0473" unicode="&#x473;" horiz-adv-x="592" 
d="M296 512c73.333 0 135.666 -25.667 186.999 -77s77 -113.666 77 -186.999s-25.667 -135.666 -77 -186.999s-113.666 -77 -186.999 -77s-135.666 25.667 -186.999 77s-77 113.666 -77 186.999s25.667 135.666 77 186.999s113.666 77 186.999 77zM296 384
c-30 0 -56.999 -9 -80.999 -27s-40.333 -41 -49 -69c16.667 8 36 12 58 12c19.333 0 44 -6 74 -18c28 -13.333 52.667 -19.166 74 -17.499s38 13.5 50 35.5c-10.667 25.333 -27.334 45.666 -50.001 60.999s-48 23 -76 23zM296.001 112c30 0 57 8.99902 81 26.999
s40.333 41 49 69c-16.667 -8 -35.334 -12 -56.001 -12c-20 0 -46 6.33301 -78 19c-28 12.667 -52.333 18 -73 16s-37 -13.667 -49 -35c10.667 -25.333 27.334 -45.666 50.001 -60.999s48 -23 76 -23z" />
    <glyph glyph-name="uni0474" unicode="&#x474;" horiz-adv-x="688" 
d="M556 678c37.333 10 76.001 12 116.001 6v-128c-25.333 2.66699 -46.333 -0.333008 -63 -9s-30.334 -26 -41.001 -52l-200 -495h-96l-272 672h144l176 -448l117 297c18.667 48 36.667 84.333 54 109s39 40.667 65 48z" />
    <glyph glyph-name="uni0475" unicode="&#x475;" horiz-adv-x="560" 
d="M476 512c25.333 0 47.998 -5.33301 67.998 -16v-112c-26 6.66699 -48 3.16699 -66 -10.5s-34.667 -39.5 -50 -77.5l-124 -296h-96l-208 496h144l112 -304l29 78l14.5 40l15 41c3 8 7.83301 20 14.5 36s12.334 27.667 17.001 35l18.5 29c7.66699 12 15 20.667 22 26
l24.5 18c9.33301 6.66699 19.333 11.167 30 13.5s22.334 3.5 35.001 3.5z" />
    <glyph glyph-name="uni0490" unicode="&#x490;" horiz-adv-x="512" 
d="M368 768h112v-224h-288v-544h-128v672h304v96z" />
    <glyph glyph-name="uni0491" unicode="&#x491;" horiz-adv-x="416" 
d="M272 592h112v-224h-192v-368h-128v496h208v96z" />
    <glyph glyph-name="uni0492" unicode="&#x492;" horiz-adv-x="528" 
d="M496 544h-288v-200h96v-64h-96v-280h-128v280h-64v64h64v328h416v-128z" />
    <glyph glyph-name="uni0493" unicode="&#x493;" horiz-adv-x="432" 
d="M400 368h-192v-120h96v-64h-96v-184h-128v184h-64v64h64v248h320v-128z" />
    <glyph glyph-name="uni0496" unicode="&#x496;" horiz-adv-x="992" 
d="M863 128h113v-224h-112v96h-50l-254 286v-286h-128v286l-254 -286h-162l304 343l-288 329h162l238 -286v286h128v-286l238 286h162l-288 -329z" />
    <glyph glyph-name="uni0497" unicode="&#x497;" horiz-adv-x="832" 
d="M700 128h116v-224h-112v96h-48l-176 196v-196h-128v196l-176 -196h-160l232 256l-216 240h160l160 -188v188h128v-188l160 188h160l-216 -240z" />
    <glyph glyph-name="uni049A" unicode="&#x49a;" 
d="M497 128h111v-224h-112v96h-50l-254 294v-294h-128v672h128v-278l238 278h162l-288 -321z" />
    <glyph glyph-name="uni049B" unicode="&#x49b;" horiz-adv-x="576" 
d="M432 128h128v-224h-112v96h-48l-208 196v-196h-128v496h128v-188l192 188h160l-240 -240z" />
    <glyph glyph-name="uni04A2" unicode="&#x4a2;" horiz-adv-x="704" 
d="M608 128h80v-224h-112v96h-96v272h-288v-272h-128v672h128v-272h288v272h128v-544z" />
    <glyph glyph-name="uni04A3" unicode="&#x4a3;" 
d="M528 128h80v-224h-112v96h-96v184h-208v-184h-128v496h128v-184h208v184h128v-368z" />
    <glyph glyph-name="uni04AE" unicode="&#x4ae;" horiz-adv-x="608" 
d="M456 672h152l-240 -400v-272h-128v272l-240 400h152l152 -272z" />
    <glyph glyph-name="uni04AF" unicode="&#x4af;" horiz-adv-x="512" 
d="M512 496l-192 -458v-294h-128v294l-192 458h144l112 -304l112 304h144z" />
    <glyph glyph-name="uni04B0" unicode="&#x4b0;" horiz-adv-x="608" 
d="M368 272v-24h64v-64h-64v-184h-128v184h-64v64h64v24l-240 400h152l152 -272l152 272h152z" />
    <glyph glyph-name="uni04B1" unicode="&#x4b1;" horiz-adv-x="512" 
d="M320 38v-62h80v-64h-80v-168h-128v168h-80v64h80v62l-192 458h144l112 -304l112 304h144z" />
    <glyph glyph-name="uni04B2" unicode="&#x4b2;" horiz-adv-x="704" 
d="M585 128h103v-224h-112v96h-64l-168 256l-168 -256h-160l238 352l-223 320h161l152 -236l152 236h161l-223 -320z" />
    <glyph glyph-name="uni04B3" unicode="&#x4b3;" horiz-adv-x="576" 
d="M455 128h105v-224h-112v96h-64l-104 160l-104 -160h-160l184 264l-168 232h160l88 -140l88 140h160l-168 -232z" />
    <glyph glyph-name="uni04B6" unicode="&#x4b6;" horiz-adv-x="656" 
d="M560 128h79.999v-224h-112v96h-96v252c-54 -24 -107.333 -36 -160 -36c-66.667 0 -120.667 20.833 -162 62.5s-62 100.834 -62 177.501v216h128v-216c0 -37.333 10.833 -65.333 32.5 -84s50.834 -28 87.501 -28c23.333 0 46.333 2.66699 69 8s39.667 10.666 51 15.999
l16 8v296h128v-544z" />
    <glyph glyph-name="uni04B7" unicode="&#x4b7;" horiz-adv-x="592" 
d="M496 128h80.001v-224h-112v96h-96v184c-48 -16 -90.667 -24 -128 -24c-56 0 -102 16.5 -138 49.5s-54 83.167 -54 150.5v136h128v-118c0 -60 30.667 -90 92 -90c43.333 0 76.666 3.66699 99.999 11v197h128v-368z" />
    <glyph glyph-name="uni04BA" unicode="&#x4ba;" 
d="M352 456c66.667 0 120.668 -20.833 162.001 -62.5s62 -100.834 62 -177.501v-216h-128v216c0 37.333 -10.833 65.333 -32.5 84s-50.834 28 -87.501 28c-23.333 0 -46.333 -2.66699 -69 -8s-39.667 -10.666 -51 -15.999l-16 -8v-296h-128v672h128v-252
c54 24 107.333 36 160 36z" />
    <glyph glyph-name="uni04BB" unicode="&#x4bb;" horiz-adv-x="576" 
d="M342 512c58 0 103.499 -19 136.499 -57s49.5 -93.667 49.5 -167v-288h-128v272c0 38.667 -7.66699 67 -23 85s-39.666 27 -72.999 27c-32 0 -58.667 -10.667 -80 -32s-32 -53.333 -32 -96v-256h-128v704h128v-256c36 42.667 86 64 150 64z" />
    <glyph glyph-name="uni04C0" unicode="&#x4c0;" horiz-adv-x="256" 
d="M192 0h-128v672h128v-672z" />
    <glyph glyph-name="uni04CF" unicode="&#x4cf;" horiz-adv-x="256" 
d="M64 0v496h128v-496h-128z" />
    <glyph glyph-name="uni04D8" unicode="&#x4d8;" horiz-adv-x="768" 
d="M32 336c0 13.333 1.33301 32.001 4 56.001h565c-12.667 49.333 -39 89.666 -79 120.999s-86 47 -138 47c-39.333 0 -75.5 -9.33301 -108.5 -28s-59.833 -44 -80.5 -76l-127 35c28.667 59.333 71.5 107 128.5 143s119.5 54 187.5 54c97.333 0 180.333 -34.333 249 -103
s103 -151.667 103 -249s-34.333 -180.333 -103 -249s-151.667 -103 -249 -103s-180.333 34.333 -249 103s-103 151.667 -103 249zM167 280.001c12.667 -49.333 39 -89.666 79 -120.999s86 -47 138 -47s98 15.667 138 47s66.333 71.666 79 120.999h-434z" />
    <glyph glyph-name="uni04D9" unicode="&#x4d9;" horiz-adv-x="560" 
d="M32 248c0 9.33301 0.666016 22.668 1.99902 40.001h361c-5.33301 32 -17.5 58.667 -36.5 80s-45.167 32 -78.5 32c-46.667 0 -80 -18 -100 -54l-117 39c18 34 44.5 63.667 79.5 89s80.833 38 137.5 38c75.333 0 135.5 -25.333 180.5 -76s67.5 -113.334 67.5 -188.001
c0 -77.333 -22 -140.666 -66 -189.999s-107.333 -74 -190 -74c-77.333 0 -136.666 23.167 -177.999 69.5s-62 111.166 -62 194.499zM391.999 192.002h-224c0 -24 9.83301 -46 29.5 -66s47.167 -30 82.5 -30c30 0 56.167 10.5 78.5 31.5s33.5 42.5 33.5 64.5z" />
    <glyph glyph-name="uni04E2" unicode="&#x4e2;" horiz-adv-x="720" 
d="M504 752h-288v64h288v-64zM192 672v-464l336 464h128v-672h-128v464l-336 -464h-128v672h128z" />
    <glyph glyph-name="uni04E3" unicode="&#x4e3;" horiz-adv-x="608" 
d="M448 576h-288v64h288v-64zM192 496v-308l224 308h128v-496h-128v308l-224 -308h-128v496h128z" />
    <glyph glyph-name="uni04E8" unicode="&#x4e8;" horiz-adv-x="768" 
d="M384 688c97.333 0 180.333 -34.333 249 -103s103 -151.667 103 -249s-34.333 -180.333 -103 -249s-151.667 -103 -249 -103s-180.333 34.333 -249 103s-103 151.667 -103 249s34.333 180.333 103 249s151.667 103 249 103zM384 560c-56 0 -105 -18.333 -147 -55
s-67 -82.334 -75 -137.001h444c-8 54.667 -33 100.334 -75 137.001s-91 55 -147 55zM384 112c56 0 105 18.333 147 55s67 82.334 75 137.001h-444c8 -54.667 33 -100.334 75 -137.001s91 -55 147 -55z" />
    <glyph glyph-name="uni04E9" unicode="&#x4e9;" horiz-adv-x="592" 
d="M296 512c73.333 0 135.666 -25.667 186.999 -77s77 -113.666 77 -186.999s-25.667 -135.666 -77 -186.999s-113.666 -77 -186.999 -77s-135.666 25.667 -186.999 77s-77 113.666 -77 186.999s25.667 135.666 77 186.999s113.666 77 186.999 77zM296 384
c-32 0 -60.1689 -9.83301 -84.502 -29.5s-40.166 -44.5 -47.499 -74.5h264c-7.33301 30 -23.166 54.833 -47.499 74.5s-52.5 29.5 -84.5 29.5zM295.998 112c32 0 60.1689 9.83301 84.502 29.5s40.166 44.5 47.499 74.5h-264c7.33301 -30 23.166 -54.833 47.499 -74.5
s52.5 -29.5 84.5 -29.5z" />
    <glyph glyph-name="uni04EE" unicode="&#x4ee;" 
d="M464 752h-288v64h288v-64zM472 672h152l-360 -672h-152l130 244l-226 428h152l152 -290z" />
    <glyph glyph-name="uni04EF" unicode="&#x4ef;" horiz-adv-x="528" 
d="M408 576h-288v64h288v-64zM384 496h144l-320 -752h-144l128 292l-192 460h144l120 -292z" />
    <glyph glyph-name="Wgrave" unicode="&#x1e80;" horiz-adv-x="992" 
d="M576 736h-80l-144 144h144zM552 672l128 -448l160 448h144l-240 -672h-128l-120 416l-120 -416h-128l-240 672h144l160 -448l128 448h112z" />
    <glyph glyph-name="wgrave" unicode="&#x1e81;" horiz-adv-x="768" 
d="M456 560h-80l-144 144h144zM616 496h144l-168 -496h-116l-92 272l-92 -272h-116l-168 496h144l88 -320l96 320h96l96 -320z" />
    <glyph glyph-name="Wacute" unicode="&#x1e82;" horiz-adv-x="992" 
d="M416 736l80 144h144l-144 -144h-80zM552 672l128 -448l160 448h144l-240 -672h-128l-120 416l-120 -416h-128l-240 672h144l160 -448l128 448h112z" />
    <glyph glyph-name="wacute" unicode="&#x1e83;" horiz-adv-x="768" 
d="M312 560l80 144h144l-144 -144h-80zM616 496h144l-168 -496h-116l-92 272l-92 -272h-116l-168 496h144l88 -320l96 320h96l96 -320z" />
    <glyph glyph-name="Wdieresis" unicode="&#x1e84;" horiz-adv-x="992" 
d="M400 736c-18 0 -33.167 6.16699 -45.5 18.5s-18.5 27.5 -18.5 45.5s6.16699 33.167 18.5 45.5s27.5 18.5 45.5 18.5s33.167 -6.16699 45.5 -18.5s18.5 -27.5 18.5 -45.5s-6.16699 -33.167 -18.5 -45.5s-27.5 -18.5 -45.5 -18.5zM592 736
c-18 0 -33.167 6.16699 -45.5 18.5s-18.5 27.5 -18.5 45.5s6.16699 33.167 18.5 45.5s27.5 18.5 45.5 18.5s33.167 -6.16699 45.5 -18.5s18.5 -27.5 18.5 -45.5s-6.16699 -33.167 -18.5 -45.5s-27.5 -18.5 -45.5 -18.5zM552 672l128 -448l160 448h144l-240 -672h-128
l-120 416l-120 -416h-128l-240 672h144l160 -448l128 448h112z" />
    <glyph glyph-name="wdieresis" unicode="&#x1e85;" horiz-adv-x="768" 
d="M288 560c-18 0 -33.167 6.16699 -45.5 18.5s-18.5 27.5 -18.5 45.5s6.16699 33.167 18.5 45.5s27.5 18.5 45.5 18.5s33.167 -6.16699 45.5 -18.5s18.5 -27.5 18.5 -45.5s-6.16699 -33.167 -18.5 -45.5s-27.5 -18.5 -45.5 -18.5zM480 560
c-18 0 -33.167 6.16699 -45.5 18.5s-18.5 27.5 -18.5 45.5s6.16699 33.167 18.5 45.5s27.5 18.5 45.5 18.5s33.167 -6.16699 45.5 -18.5s18.5 -27.5 18.5 -45.5s-6.16699 -33.167 -18.5 -45.5s-27.5 -18.5 -45.5 -18.5zM616 496h144l-168 -496h-116l-92 272l-92 -272h-116
l-168 496h144l88 -320l96 320h96l96 -320z" />
    <glyph glyph-name="Ygrave" unicode="&#x1ef2;" horiz-adv-x="608" 
d="M368 736h-80l-144 144h144zM456 672h152l-240 -400v-272h-128v272l-240 400h152l152 -272z" />
    <glyph glyph-name="ygrave" unicode="&#x1ef3;" horiz-adv-x="528" 
d="M336 560h-80l-144 144h144zM384 496h144l-320 -752h-144l128 292l-192 460h144l120 -292z" />
    <glyph glyph-name="endash" unicode="&#x2013;" horiz-adv-x="512" 
d="M464 216h-416v96h416v-96z" />
    <glyph glyph-name="emdash" unicode="&#x2014;" horiz-adv-x="608" 
d="M560 216h-512v96h512v-96z" />
    <glyph glyph-name="quoteleft" unicode="&#x2018;" horiz-adv-x="256" 
d="M224 672l-48 -208h-144l112 208h80z" />
    <glyph glyph-name="quoteright" unicode="&#x2019;" horiz-adv-x="256" 
d="M32 464l48 208h144l-112 -208h-80z" />
    <glyph glyph-name="quotesinglbase" unicode="&#x201a;" horiz-adv-x="256" 
d="M32 -80l48 208h144l-112 -208h-80z" />
    <glyph glyph-name="quotedblleft" unicode="&#x201c;" horiz-adv-x="496" 
d="M224 672l-48 -208h-144l112 208h80zM464 672l-48 -208h-144l112 208h80z" />
    <glyph glyph-name="quotedblright" unicode="&#x201d;" horiz-adv-x="496" 
d="M32 464l48 208h144l-112 -208h-80zM272 464l48 208h144l-112 -208h-80z" />
    <glyph glyph-name="quotedblbase" unicode="&#x201e;" horiz-adv-x="496" 
d="M32 -80l48 208h144l-112 -208h-80zM272 -80l48 208h144l-112 -208h-80z" />
    <glyph glyph-name="dagger" unicode="&#x2020;" horiz-adv-x="656" 
d="M608 400h-224l-56 -672l-56 672h-224v96h224v272h112v-272h224v-96z" />
    <glyph glyph-name="daggerdbl" unicode="&#x2021;" horiz-adv-x="656" 
d="M608 400h-224v-128h224v-96h-232l-48 -448l-48 448h-232v96h224v128h-224v96h224v272h112v-272h224v-96z" />
    <glyph glyph-name="bullet" unicode="&#x2022;" horiz-adv-x="784" 
d="M392 456c34 0 62.5 -11.5 85.5 -34.5s34.5 -51.5 34.5 -85.5c0 -33.333 -11.5 -61.666 -34.5 -84.999s-51.5 -35 -85.5 -35c-33.333 0 -61.666 11.667 -84.999 35s-35 51.666 -35 84.999c0 34 11.667 62.5 35 85.5s51.666 34.5 84.999 34.5z" />
    <glyph glyph-name="ellipsis" unicode="&#x2026;" horiz-adv-x="800" 
d="M128 -16c-22.667 0 -41.667 7.66699 -57 23s-23 34.333 -23 57s7.66699 41.667 23 57s34.333 23 57 23s41.667 -7.66699 57 -23s23 -34.333 23 -57s-7.66699 -41.667 -23 -57s-34.333 -23 -57 -23zM400 -16c-22.667 0 -41.667 7.66699 -57 23s-23 34.333 -23 57
s7.66699 41.667 23 57s34.333 23 57 23s41.667 -7.66699 57 -23s23 -34.333 23 -57s-7.66699 -41.667 -23 -57s-34.333 -23 -57 -23zM672 -16c-22.667 0 -41.667 7.66699 -57 23s-23 34.333 -23 57s7.66699 41.667 23 57s34.333 23 57 23s41.667 -7.66699 57 -23
s23 -34.333 23 -57s-7.66699 -41.667 -23 -57s-34.333 -23 -57 -23z" />
    </font>
</defs>
</svg>
