<?xml version="1.0" standalone="no"?>
<!DOCTYPE svg PUBLIC "-//W3C//DTD SVG 1.1//EN" "http://www.w3.org/Graphics/SVG/1.1/DTD/svg11.dtd" >
<svg>
<metadata>
Created by FontForge 20090914 at Tue Jun 23 18:46:10 2020
 By www-data
Copyright (c) Milos Mitrovic, 2016. All rights reserved.
</metadata>
<defs>
<font id="NoirPro-Regular" horiz-adv-x="608" >
  <font-face 
    font-family="NoirPro-Regular"
    font-weight="400"
    font-stretch="normal"
    units-per-em="1000"
    panose-1="0 0 5 0 0 0 0 0 0 0"
    ascent="730"
    descent="-270"
    x-height="480"
    cap-height="672"
    bbox="-152 -304 1096 1104"
    underline-thickness="50"
    underline-position="-100"
    unicode-range="U+0020-U+25CA"
  />
<missing-glyph horiz-adv-x="528" 
d="M433 800v-1056h-335v1056h335zM352 729h-175v-35h69v-39h-70v-35h176v35h-70v39h70v35zM282 593h-106v-110h176v36h-70v74zM246 557v-38h-35v38h35zM352 455h-176v-35h70v-39h-70v-35h106v74h70v35zM352 391h-35v-69h-141v-36h176v105zM352 262h-106v-59h36v25h35v-50
h-106v84h-35v-119h176v119zM352 80h-176v-120h176v120zM317 45v-50h-106v50h106zM352 -64h-176v-35h74l-74 -49v-35h176v35h-108l74 49h34v35z" />
    <glyph glyph-name=".notdef" horiz-adv-x="528" 
d="M433 800v-1056h-335v1056h335zM352 729h-175v-35h69v-39h-70v-35h176v35h-70v39h70v35zM282 593h-106v-110h176v36h-70v74zM246 557v-38h-35v38h35zM352 455h-176v-35h70v-39h-70v-35h106v74h70v35zM352 391h-35v-69h-141v-36h176v105zM352 262h-106v-59h36v25h35v-50
h-106v84h-35v-119h176v119zM352 80h-176v-120h176v120zM317 45v-50h-106v50h106zM352 -64h-176v-35h74l-74 -49v-35h176v35h-108l74 49h34v35z" />
    <glyph glyph-name="space" unicode=" " horiz-adv-x="320" 
 />
    <glyph glyph-name="exclam" unicode="!" horiz-adv-x="288" 
d="M112 192l-32 480h128l-32 -480h-64zM144 -8c-20 0 -37 7 -51 21s-21 31 -21 51s7 37 21 51s31 21 51 21c20.667 0 37.834 -7 51.501 -21s20.5 -31 20.5 -51s-6.83301 -37 -20.5 -51s-30.834 -21 -51.501 -21z" />
    <glyph glyph-name="quotedbl" unicode="&#x22;" horiz-adv-x="416" 
d="M144 464h-72l-16 208h104zM344 464h-72l-16 208h104z" />
    <glyph glyph-name="numbersign" unicode="#" horiz-adv-x="688" 
d="M632 416h-123l-29 -176h112v-64h-123l-29 -176h-72l30 176h-157l-29 -176h-75l31 176h-112v64h123l29 176h-112v64h123l32 192h72l-32 -192h157l32 192h72l-32 -192h112v-64zM408 240l29 176h-157l-29 -176h157z" />
    <glyph glyph-name="dollar" unicode="$" horiz-adv-x="592" 
d="M552 197c0 -55.333 -20.165 -101.835 -60.498 -139.502s-94.833 -59.167 -163.5 -64.5v-73h-48v72c-34.667 1.33301 -67.334 7 -98.001 17s-56 22.167 -76 36.5s-34.667 25.5 -44 33.5s-16.666 15.333 -21.999 22l48 86c59.333 -66 130 -99 212 -99
c50 0 88.5 9.33301 115.5 28s40.5 44.334 40.5 77.001c0 50.667 -51 85 -153 103c-88.667 15.333 -150.834 38.5 -186.501 69.5s-53.5 70.833 -53.5 119.5c0 53.333 19 98 57 134s91.333 56 160 60v73h48v-73c78 -5.33301 142.667 -31.666 194 -78.999l-46 -87
c-48.667 47.333 -106.334 71 -173.001 71c-46 0 -81.5 -8.33301 -106.5 -25s-37.5 -40 -37.5 -70c0 -25.333 11.667 -45.166 35 -59.499s62.333 -26.833 117 -37.5c83.333 -16 144.333 -38.833 183 -68.5s58 -71.834 58 -126.501z" />
    <glyph glyph-name="percent" unicode="%" horiz-adv-x="784" 
d="M201 392c-40.667 0 -75 13.833 -103 41.5s-42 61.834 -42 102.501c0 40 14 74 42 102s62.333 42 103 42c40 0 73.833 -14 101.5 -42s41.5 -62 41.5 -102c0 -40.667 -13.833 -74.834 -41.5 -102.501s-61.5 -41.5 -101.5 -41.5zM190 0h-64l468 672h64zM200 456
c21.333 0 40 8 56 24s24 34.667 24 56s-8 40 -24 56s-34.667 24 -56 24s-40 -8 -56 -24s-24 -34.667 -24 -56s8 -40 24 -56s34.667 -24 56 -24zM585 -8c-40.667 0 -75 13.833 -103 41.5s-42 61.834 -42 102.501c0 40 14 74 42 102s62.333 42 103 42
c40 0 73.833 -14 101.5 -42s41.5 -62 41.5 -102c0 -40.667 -13.833 -74.834 -41.5 -102.501s-61.5 -41.5 -101.5 -41.5zM584 56c21.333 0 40 8 56 24s24 34.667 24 56s-8 40 -24 56s-34.667 24 -56 24s-40 -8 -56 -24s-24 -34.667 -24 -56s8 -40 24 -56s34.667 -24 56 -24z
" />
    <glyph glyph-name="ampersand" unicode="&#x26;" horiz-adv-x="737" 
d="M680 320l-152.001 -168.001l153 -152h-135l-81 83c-59.333 -60.667 -125.666 -91 -198.999 -91c-64 0 -115 17.833 -153 53.5s-57 82.834 -57 141.501c0 42 12.167 78.333 36.5 109s54.166 53.667 89.499 69c-56 53.333 -84 102.333 -84 147
c0 45.333 18 84.666 54 117.999s87.333 50 154 50c60.667 0 108.834 -17 144.501 -51s53.5 -75 53.5 -123c0 -25.333 -5.5 -48.5 -16.5 -69.5s-25.333 -38.333 -43 -52s-34.5 -24.667 -50.5 -33s-32.333 -15.166 -49 -20.499l116 -113l94 102h125zM277.999 396.999
c43.333 15.333 75.833 31.6689 97.5 49.002s32.5 37.666 32.5 60.999c0 22 -9.83301 40.333 -29.5 55s-45.5 22 -77.5 22c-35.333 0 -62 -7.33301 -80 -22s-27 -31.334 -27 -50.001c0 -11.333 3.5 -23.333 10.5 -36s14.167 -22.667 21.5 -30s17.333 -16.833 30 -28.5
s20 -18.5 22 -20.5zM267.999 88.002c45.333 0 88.333 20.999 129 62.999l-146 147c-66 -26.667 -99 -64.667 -99 -114c0 -29.333 10.333 -52.666 31 -69.999s49 -26 85 -26z" />
    <glyph glyph-name="quotesingle" unicode="'" horiz-adv-x="216" 
d="M144 464h-72l-16 208h104z" />
    <glyph glyph-name="parenleft" unicode="(" horiz-adv-x="304" 
d="M264 724c-74.667 -119.333 -112 -259.333 -112 -420s37.333 -300.667 112 -420l-80 -44c-38.667 60 -69.667 130.667 -93 212s-35 165.333 -35 252s11.667 170.667 35 252s54.333 152 93 212z" />
    <glyph glyph-name="parenright" unicode=")" horiz-adv-x="304" 
d="M40 724l80 44c38.667 -60 69.667 -130.667 93 -212s35 -165.333 35 -252s-11.667 -170.667 -35 -252s-54.333 -152 -93 -212l-80 44c74.667 119.333 112 259.333 112 420s-37.333 300.667 -112 420z" />
    <glyph glyph-name="asterisk" unicode="*" horiz-adv-x="444" 
d="M253 584l107 48l28 -69l-114 -38l77 -96l-58 -42l-71 100l-68 -100l-60 42l76 96l-114 38l28 69l107 -48l-5 120h72z" />
    <glyph glyph-name="plus" unicode="+" horiz-adv-x="480" 
d="M424 336v-64h-152v-152h-64v152h-152v64h152v152h64v-152h152z" />
    <glyph glyph-name="comma" unicode="," horiz-adv-x="264" 
d="M40 -112l48 224h120l-104 -224h-64z" />
    <glyph glyph-name="hyphen" unicode="-" horiz-adv-x="384" 
d="M328 224h-272v80h272v-80z" />
    <glyph glyph-name="period" unicode="." horiz-adv-x="256" 
d="M128 -8c-20 0 -37 7 -51 21s-21 31 -21 51c0 20.667 7 37.834 21 51.501s31 20.5 51 20.5c20.667 0 37.834 -6.83301 51.501 -20.5s20.5 -30.834 20.5 -51.501c0 -20 -6.83301 -37 -20.5 -51s-30.834 -21 -51.501 -21z" />
    <glyph glyph-name="slash" unicode="/" horiz-adv-x="512" 
d="M136 -80h-80l320 832h80z" />
    <glyph glyph-name="zero" unicode="0" 
d="M304 680c72.667 0 132.167 -33.167 178.5 -99.5s69.5 -147.833 69.5 -244.5s-23.167 -178.167 -69.5 -244.5s-105.833 -99.5 -178.5 -99.5c-73.333 0 -133 33.167 -179 99.5s-69 147.833 -69 244.5s23.167 178.167 69.5 244.5s105.833 99.5 178.5 99.5zM304 88
c42 0 77.833 24.167 107.5 72.5s44.5 106.833 44.5 175.5s-14.833 127.167 -44.5 175.5s-65.5 72.5 -107.5 72.5s-77.833 -24.167 -107.5 -72.5s-44.5 -106.833 -44.5 -175.5s14.833 -127.167 44.5 -175.5s65.5 -72.5 107.5 -72.5z" />
    <glyph glyph-name="one" unicode="1" horiz-adv-x="368" 
d="M72 616l208 72v-688h-96v564l-112 -36v88z" />
    <glyph glyph-name="two" unicode="2" 
d="M71 472c4 57.333 26.1709 106.334 66.5039 147.001s93.166 61 158.499 61c64.667 0 118.167 -20.167 160.5 -60.5s63.5 -92.166 63.5 -155.499c0 -41.333 -11.833 -80.5 -35.5 -117.5s-61.834 -83.167 -114.501 -138.5l-105 -112h287v-96h-496l246 270
c28 30.667 48.5 53.667 61.5 69s26.333 34.666 40 57.999s20.5 43.666 20.5 60.999c0 38 -11.833 68.5 -35.5 91.5s-54.5 34.5 -92.5 34.5c-36.667 0 -66.334 -12.167 -89.001 -36.5s-35.334 -54.833 -38.001 -91.5z" />
    <glyph glyph-name="three" unicode="3" horiz-adv-x="592" 
d="M440 355c26 -8.66699 48.501 -27 67.501 -55s28.5 -58.667 28.5 -92c0 -57.333 -19.833 -107.666 -59.5 -150.999s-99.834 -65 -180.501 -65c-71.333 0 -128 19.667 -170 59s-65.333 91.666 -70 156.999l96 16c11.333 -90.667 61.333 -136 150 -136
c42.667 0 76.334 10.667 101.001 32s37 48 37 80c0 38 -14.833 63.5 -44.5 76.5s-73.5 19.5 -131.5 19.5v96c17.333 0 34 1.5 50 4.5s33 7.66699 51 14s32.333 16.166 43 29.499s16 29.333 16 48c0 24.667 -10.667 46.834 -32 66.501s-51.333 29.5 -90 29.5
c-46.667 0 -79.834 -11.667 -99.501 -35s-31.5 -54.333 -35.5 -93l-96 16c5.33301 60.667 28.833 110.5 70.5 149.5s93.167 58.5 154.5 58.5c71.333 0 126.5 -19.667 165.5 -59s58.5 -81 58.5 -125c0 -62.667 -26.667 -109.667 -80 -141z" />
    <glyph glyph-name="four" unicode="4" 
d="M472 208h80v-96h-80v-112h-96v112h-352l448 576v-480zM376 208v222l-162 -222h162z" />
    <glyph glyph-name="five" unicode="5" horiz-adv-x="592" 
d="M317 448c58.667 0 109.832 -19.833 153.499 -59.5s65.5 -93.5 65.5 -161.5s-23.667 -124.167 -71 -168.5s-103.666 -66.5 -168.999 -66.5s-120.666 20.167 -165.999 60.5s-70 89.5 -74 147.5l100 10c3.33301 -32.667 18 -61.167 44 -85.5s58 -36.5 96 -36.5
c39.333 0 73.166 13.167 101.499 39.5s42.5 58.5 42.5 96.5c0 37.333 -12 68 -36 92s-55 36 -93 36c-27.333 0 -54.166 -7 -80.499 -21s-46.833 -33.667 -61.5 -59h-98l60 400h341v-96h-259l-26 -172c35.333 29.333 78.666 44 129.999 44z" />
    <glyph glyph-name="six" unicode="6" 
d="M323 470c67.333 0 122.333 -22.1689 165 -66.502s64 -97.166 64 -158.499c0 -74.667 -23.167 -135.5 -69.5 -182.5s-105.833 -70.5 -178.5 -70.5c-73.333 0 -133 23.667 -179 71s-69 110.333 -69 189c0 74.667 19.667 150.834 59 228.501s98 141.5 176 191.5h170
c-4.66699 -1.33301 -11.334 -3.83301 -20.001 -7.5s-25 -12 -49 -25s-46.5 -27.5 -67.5 -43.5s-43.667 -37.833 -68 -65.5s-44.166 -57.5 -59.499 -89.5c34.667 19.333 76.667 29 126 29zM304 87.998c44 0 80.333 13.999 109 41.999s43 62.333 43 103
s-13.833 74.334 -41.5 101.001s-64.5 40 -110.5 40c-44 0 -80.333 -13.5 -109 -40.5s-43 -60.5 -43 -100.5c0 -40.667 14.333 -75 43 -103s65 -42 109 -42z" />
    <glyph glyph-name="seven" unicode="7" horiz-adv-x="544" 
d="M56 672h480l-288 -672h-112l248 576h-328v96z" />
    <glyph glyph-name="eight" unicode="8" 
d="M461 369c60.667 -34.667 90.999 -88.667 90.999 -162c0 -63.333 -24 -115 -72 -155s-106.667 -60 -176 -60s-128 20 -176 60s-72 91.667 -72 155c0 72 30 126 90 162c-38.667 27.333 -58 68.333 -58 123c0 53.333 20.833 98 62.5 134s92.834 54 153.501 54
c60 0 111 -18 153 -54s63 -80.667 63 -134s-19.667 -94.333 -59 -123zM303.999 584c-33.333 0 -61.666 -8.66699 -84.999 -26s-35 -38 -35 -62s11.667 -44.667 35 -62s51.666 -26 84.999 -26s61.666 8.66699 84.999 26s35 38 35 62s-11.667 44.667 -35 62
s-51.666 26 -84.999 26zM303.999 88c42 0 77.833 11.167 107.5 33.5s44.5 49.833 44.5 82.5s-14.833 60.167 -44.5 82.5s-65.5 33.5 -107.5 33.5s-77.833 -11.167 -107.5 -33.5s-44.5 -49.833 -44.5 -82.5s14.833 -60.167 44.5 -82.5s65.5 -33.5 107.5 -33.5z" />
    <glyph glyph-name="nine" unicode="9" 
d="M285 202c-67.333 0 -122.333 22.1689 -165 66.502s-64 97.166 -64 158.499c0 74.667 23.167 135.5 69.5 182.5s105.833 70.5 178.5 70.5c73.333 0 133 -23.667 179 -71s69 -110.333 69 -189c0 -74.667 -19.667 -150.834 -59 -228.501s-98 -141.5 -176 -191.5h-170
c4.66699 1.33301 11.334 3.83301 20.001 7.5s25 12 49 25s46.5 27.5 67.5 43.5s43.667 37.833 68 65.5s44.166 57.5 59.499 89.5c-34.667 -19.333 -76.667 -29 -126 -29zM304 584.002c-44 0 -80.333 -13.999 -109 -41.999s-43 -62.333 -43 -103
s13.833 -74.334 41.5 -101.001s64.5 -40 110.5 -40c44 0 80.333 13.5 109 40.5s43 60.5 43 100.5c0 40.667 -14.333 75 -43 103s-65 42 -109 42z" />
    <glyph glyph-name="colon" unicode=":" horiz-adv-x="256" 
d="M128 344c-20 0 -37 7 -51 21s-21 31 -21 51c0 20.667 7 37.834 21 51.501s31 20.5 51 20.5c20.667 0 37.834 -6.83301 51.501 -20.5s20.5 -30.834 20.5 -51.501c0 -20 -6.83301 -37 -20.5 -51s-30.834 -21 -51.501 -21zM128 -8c-20 0 -37 7 -51 21s-21 31 -21 51
s7 37 21 51s31 21 51 21c20.667 0 37.834 -7 51.501 -21s20.5 -31 20.5 -51s-6.83301 -37 -20.5 -51s-30.834 -21 -51.501 -21z" />
    <glyph glyph-name="semicolon" unicode=";" horiz-adv-x="276" 
d="M148 344c-20 0 -37 7 -51 21s-21 31 -21 51c0 20.667 7 37.834 21 51.501s31 20.5 51 20.5c20.667 0 37.834 -6.83301 51.501 -20.5s20.5 -30.834 20.5 -51.501c0 -20 -6.83301 -37 -20.5 -51s-30.834 -21 -51.501 -21zM40 -112l48 224h120l-104 -224h-64z" />
    <glyph glyph-name="less" unicode="&#x3c;" horiz-adv-x="528" 
d="M472 80l-416 192v64l416 192v-80l-320 -144l320 -144v-80z" />
    <glyph glyph-name="equal" unicode="=" horiz-adv-x="512" 
d="M56 408h400v-64h-400v64zM56 264h400v-64h-400v64z" />
    <glyph glyph-name="greater" unicode="&#x3e;" horiz-adv-x="528" 
d="M56 80v80l320 144l-320 144v80l416 -192v-64z" />
    <glyph glyph-name="question" unicode="?" horiz-adv-x="528" 
d="M256 680c70.667 0 124.335 -19.498 161.002 -58.498s55 -83.5 55 -133.5c0 -34 -7.66699 -63.167 -23 -87.5s-39 -49.833 -71 -76.5c-48.667 -40 -73.334 -84 -74.001 -132h-96c-2.66699 59.333 17.666 111.666 60.999 156.999c6 6 20.5 19.333 43.5 40s39.333 38 49 52
s14.5 29.667 14.5 47c0 27.333 -10.5 50.166 -31.5 68.499s-50.167 27.5 -87.5 27.5c-62.667 0 -111 -26 -145 -78l-56 78c58 64 124.667 96 200 96zM256.001 136.002c20.667 0 37.834 -7 51.501 -21s20.5 -31 20.5 -51s-6.83301 -37 -20.5 -51s-30.834 -21 -51.501 -21
c-20 0 -37 7 -51 21s-21 31 -21 51s7 37 21 51s31 21 51 21z" />
    <glyph glyph-name="at" unicode="@" horiz-adv-x="1088" 
d="M1032 330c0 -74 -20.8301 -136.832 -62.4971 -188.499s-97.834 -77.5 -168.501 -77.5c-68 0 -115 29.667 -141 89c-33.333 -47.333 -83 -71 -149 -71c-62.667 0 -112 21.167 -148 63.5s-51.667 93.166 -47 152.499c4.66699 60 27.5 110.333 68.5 151s90.167 61 147.5 61
c27.333 0 53.166 -6.16699 77.499 -18.5s41.166 -26.166 50.499 -41.499l4 46h94l-23 -236c-2.66699 -29.333 2.16602 -53.333 14.499 -72s33.5 -28 63.5 -28c28.667 0 56.334 13.167 83.001 39.5s40 69.5 40 129.5c0 100 -37.833 184.833 -113.5 254.5
s-165.834 104.5 -270.501 104.5c-110.667 0 -205 -38.833 -283 -116.5s-117 -172.167 -117 -283.5c0 -110 39 -203.833 117 -281.5s172.333 -117.167 283 -118.5c60.667 -0.666992 111.667 8.66602 153 27.999l28 -90c-51.333 -22.667 -111.666 -34 -180.999 -34
c-90 0 -173 22.167 -249 66.5s-136.167 104.5 -180.5 180.5s-66.5 159 -66.5 249s22.167 173 66.5 249s104.5 136.167 180.5 180.5s159 66.5 249 66.5c84 0 162.833 -20.333 236.5 -61s132.667 -96.167 177 -166.5s66.5 -145.833 66.5 -226.5zM645.003 297.001
c2.66699 31.333 -5.16797 60.666 -23.501 87.999s-46.833 41 -85.5 41c-32 0 -60.167 -12.167 -84.5 -36.5s-38.166 -54.5 -41.499 -90.5c-3.33301 -33.333 4.5 -63.5 23.5 -90.5s47.167 -40.5 84.5 -40.5c36 0 65.333 12.333 88 37s35.667 55.334 39 92.001z" />
    <glyph glyph-name="A" unicode="A" horiz-adv-x="656" 
d="M544 0l-65 144h-302l-65 -144h-104l320 688l320 -688h-104zM221 240h214l-107 236z" />
    <glyph glyph-name="B" unicode="B" horiz-adv-x="576" 
d="M424 361c37.333 -8.66699 65.334 -28.167 84.001 -58.5s28 -63.833 28 -100.5c0 -59.333 -19.5 -107.833 -58.5 -145.5s-91.5 -56.5 -157.5 -56.5h-248v672h201c73.333 0 130.166 -15 170.499 -45s60.5 -73.667 60.5 -131c0 -32.667 -7.66699 -61.167 -23 -85.5
s-34.333 -40.833 -57 -49.5zM168.001 576v-168h120c80 0 120 28 120 84s-40 84 -120 84h-120zM304.001 96c42.667 0 76 9 100 27s36 45 36 81s-12 63 -36 81s-57.333 27 -100 27h-136v-216h136z" />
    <glyph glyph-name="C" unicode="C" horiz-adv-x="640" 
d="M384 88c70 0 128.334 24.332 175.001 72.999l41 -90c-27.333 -25.333 -59.833 -44.833 -97.5 -58.5s-75.167 -20.5 -112.5 -20.5c-96.667 0 -179.167 33.667 -247.5 101s-102.5 148.333 -102.5 243s34.167 175.667 102.5 243s150.833 101 247.5 101
c38 0 75.667 -6.66699 113 -20s69.666 -32.666 96.999 -57.999l-41 -90c-46.667 48 -105 72 -175 72c-68.667 0 -127.167 -24.167 -175.5 -72.5s-72.5 -106.833 -72.5 -175.5s24.167 -127.167 72.5 -175.5s106.833 -72.5 175.5 -72.5z" />
    <glyph glyph-name="D" unicode="D" horiz-adv-x="656" 
d="M273 672c108 0 192.167 -31.667 252.5 -95s90.5 -143.666 90.5 -240.999c0 -96.667 -30.667 -176.834 -92 -240.501s-145 -95.5 -251 -95.5h-201v672h201zM298 96c64.667 0 117.834 23.1689 159.501 69.502s62.5 103.166 62.5 170.499s-20.833 124.166 -62.5 170.499
s-94.834 69.5 -159.501 69.5h-130v-480h130z" />
    <glyph glyph-name="E" unicode="E" horiz-adv-x="512" 
d="M456 576h-288v-192h240v-96h-240v-192h288v-96h-384v672h384v-96z" />
    <glyph glyph-name="F" unicode="F" horiz-adv-x="496" 
d="M168 0h-96v672h384v-96h-288v-192h240v-96h-240v-288z" />
    <glyph glyph-name="G" unicode="G" horiz-adv-x="752" 
d="M710 367c1.33301 -12 2.00098 -22.334 2.00098 -31.001c0 -96 -31.167 -177.333 -93.5 -244s-140.5 -100 -234.5 -100c-94.667 0 -175.667 33.667 -243 101s-101 148.333 -101 243s33.667 175.667 101 243s148.333 101 243 101c66 0 124.667 -16.833 176 -50.5
s91.666 -79.5 120.999 -137.5l-97 -28c-19.333 36.667 -46.5 65.834 -81.5 87.501s-74.5 32.5 -118.5 32.5c-68.667 0 -127.167 -24.167 -175.5 -72.5s-72.5 -106.833 -72.5 -175.5s24.167 -127.167 72.5 -175.5s106.833 -72.5 175.5 -72.5c59.333 0 109 17.167 149 51.5
s65.667 78.5 77 132.5h-250v96z" />
    <glyph glyph-name="H" unicode="H" horiz-adv-x="656" 
d="M488 672h96v-672h-96v288h-320v-288h-96v672h96v-288h320v288z" />
    <glyph glyph-name="I" unicode="I" horiz-adv-x="240" 
d="M168 0h-96v672h96v-672z" />
    <glyph glyph-name="J" unicode="J" horiz-adv-x="464" 
d="M312 672h96.001v-416c0 -88 -20.333 -154 -61 -198s-95 -66 -163 -66c-28 0 -55.833 6.33301 -83.5 19s-47.834 27 -60.501 43l48 82c22 -32 54 -48 96 -48c43.333 0 75.5 14.167 96.5 42.5s31.5 67.5 31.5 117.5v424z" />
    <glyph glyph-name="K" unicode="K" horiz-adv-x="592" 
d="M256 343l312 -343h-128l-272 296v-296h-96v672h96v-296l256 296h128z" />
    <glyph glyph-name="L" unicode="L" horiz-adv-x="480" 
d="M168 96h272v-96h-368v672h96v-576z" />
    <glyph glyph-name="M" unicode="M" horiz-adv-x="832" 
d="M416 -16l-214 414l-64 -398h-98l114 688l262 -508l262 508l114 -688h-98l-64 398z" />
    <glyph glyph-name="N" unicode="N" horiz-adv-x="704" 
d="M632 -16l-464 476v-460h-96v688l464 -476v460h96v-688z" />
    <glyph glyph-name="O" unicode="O" horiz-adv-x="768" 
d="M384 680c94.667 0 175.667 -33.667 243 -101s101 -148.333 101 -243s-33.667 -175.667 -101 -243s-148.333 -101 -243 -101s-175.667 33.667 -243 101s-101 148.333 -101 243s33.667 175.667 101 243s148.333 101 243 101zM384 88c69.333 0 128 24 176 72
s72 106.667 72 176s-24 128 -72 176s-106.667 72 -176 72s-128 -24 -176 -72s-72 -106.667 -72 -176s24 -128 72 -176s106.667 -72 176 -72z" />
    <glyph glyph-name="P" unicode="P" horiz-adv-x="576" 
d="M280 672c84.667 0 148.5 -19.332 191.5 -57.999s64.5 -91 64.5 -157c0 -64.667 -20.333 -118.334 -61 -161.001s-95.667 -64 -165 -64h-142v-232h-96v672h208zM311 328.001c38 0 69 10.168 93 30.501s36 51.166 36 92.499s-13 72.5 -39 93.5s-58 31.5 -96 31.5h-137v-248
h143z" />
    <glyph glyph-name="Q" unicode="Q" horiz-adv-x="768" 
d="M744 0h-120l-47 51c-58.667 -39.333 -123 -59 -193 -59c-94.667 0 -175.667 33.667 -243 101s-101 148.333 -101 243s33.667 175.667 101 243s148.333 101 243 101s175.667 -33.667 243 -101s101 -148.333 101 -243c0 -87.333 -28.667 -163 -86 -227zM384 88
c46 0 88.667 11.667 128 35l-120 133h112l72 -77c37.333 44.667 56 97 56 157c0 69.333 -24 128 -72 176s-106.667 72 -176 72s-128 -24 -176 -72s-72 -106.667 -72 -176s24 -128 72 -176s106.667 -72 176 -72z" />
    <glyph glyph-name="R" unicode="R" horiz-adv-x="592" 
d="M552 0h-112l-167 232h-105v-232h-96v672h208c84.667 0 148.5 -19.333 191.5 -58s64.5 -91 64.5 -157c0 -52.667 -13.833 -98.5 -41.5 -137.5s-66.167 -65.167 -115.5 -78.5zM168 576v-247.999h143c38 0 69 10.167 93 30.5s36 51.166 36 92.499
c0 42 -11.833 73.333 -35.5 94s-54.167 31 -91.5 31h-145z" />
    <glyph glyph-name="S" unicode="S" horiz-adv-x="592" 
d="M311 392c83.333 -16 144.336 -38.8379 183.003 -68.5049s58 -71.834 58 -126.501c0 -60 -23 -109.167 -69 -147.5s-107.667 -57.5 -185 -57.5c-37.333 0 -72.5 4.83301 -105.5 14.5s-60.333 21.834 -82 36.501s-37.5 26.334 -47.5 35.001s-17.667 16.334 -23 23.001
l48 86c59.333 -66 130 -99 212 -99c50 0 88.5 9.33301 115.5 28s40.5 44.334 40.5 77.001c0 50.667 -51 85 -153 103c-88.667 15.333 -150.834 38.5 -186.501 69.5s-53.5 70.833 -53.5 119.5c0 56.667 21.333 103.334 64 140.001s102 55 178 55
c87.333 0 159.666 -26.667 216.999 -80l-46 -87c-48.667 47.333 -106.334 71 -173.001 71c-46 0 -81.5 -8.33301 -106.5 -25s-37.5 -40 -37.5 -70c0 -25.333 11.667 -45.166 35 -59.499s62.333 -26.833 117 -37.5z" />
    <glyph glyph-name="T" unicode="T" horiz-adv-x="528" 
d="M40 672h448v-96h-176v-576h-96v576h-176v96z" />
    <glyph glyph-name="U" unicode="U" horiz-adv-x="624" 
d="M472 672h96v-376c0 -92.667 -21.5 -166.5 -64.5 -221.5s-106.833 -82.5 -191.5 -82.5c-86.667 0 -151 27.333 -193 82s-63 128.667 -63 222v376h96v-408c0 -52.667 14.167 -95.167 42.5 -127.5s67.5 -48.5 117.5 -48.5c49.333 0 88.333 16.167 117 48.5
s43 74.833 43 127.5v408z" />
    <glyph glyph-name="V" unicode="V" horiz-adv-x="624" 
d="M312 -16l-304 688h104l200 -462l200 462h104z" />
    <glyph glyph-name="W" unicode="W" horiz-adv-x="960" 
d="M840 672h104l-280 -688l-184 464l-184 -464l-280 688h104l176 -442l184 458l184 -458z" />
    <glyph glyph-name="X" unicode="X" horiz-adv-x="656" 
d="M632 0h-116l-188 271l-188 -271h-116l244 347l-228 325h115l173 -250l173 250h115l-228 -325z" />
    <glyph glyph-name="Y" unicode="Y" horiz-adv-x="592" 
d="M476 672h108l-240 -400v-272h-96v272l-240 400h108l180 -308z" />
    <glyph glyph-name="Z" unicode="Z" 
d="M552 0h-512l362 576h-346v96h512l-362 -576h346v-96z" />
    <glyph glyph-name="bracketleft" unicode="[" horiz-adv-x="336" 
d="M168 736v-848h96v-96h-192v1040h192v-96h-96z" />
    <glyph glyph-name="backslash" unicode="\" horiz-adv-x="512" 
d="M376 -80l-320 832h80l320 -832h-80z" />
    <glyph glyph-name="bracketright" unicode="]" horiz-adv-x="336" 
d="M168 736h-96v96h192v-1040h-192v96h96v848z" />
    <glyph glyph-name="asciicircum" unicode="^" horiz-adv-x="544" 
d="M56 448l178 256h76l178 -256h-88l-128 192l-128 -192h-88z" />
    <glyph glyph-name="underscore" unicode="_" horiz-adv-x="560" 
d="M520 -112h-480v80h480v-80z" />
    <glyph glyph-name="grave" unicode="`" horiz-adv-x="816" 
d="M480 736h-64l-128 128h112z" />
    <glyph glyph-name="a" unicode="a" 
d="M440 480h96v-480h-96v70c-40 -52 -93.333 -78 -160 -78c-69.333 0 -126.666 24 -171.999 72s-68 106.667 -68 176s22.667 128 68 176s102.666 72 171.999 72c66.667 0 120 -26 160 -78v70zM288 88c42 0 77.833 14.833 107.5 44.5s44.5 65.5 44.5 107.5
s-14.833 77.833 -44.5 107.5s-65.5 44.5 -107.5 44.5s-77.833 -14.833 -107.5 -44.5s-44.5 -65.5 -44.5 -107.5s14.833 -77.833 44.5 -107.5s65.5 -44.5 107.5 -44.5z" />
    <glyph glyph-name="b" unicode="b" 
d="M168 704v-294c40 52 93.333 78 160 78c69.333 0 126.666 -24 171.999 -72s68 -106.667 68 -176s-22.667 -128 -68 -176s-102.666 -72 -171.999 -72c-66.667 0 -120 26 -160 78v-70h-96v704h96zM320 88c42 0 77.833 14.833 107.5 44.5s44.5 65.5 44.5 107.5
s-14.833 77.833 -44.5 107.5s-65.5 44.5 -107.5 44.5s-77.833 -14.833 -107.5 -44.5s-44.5 -65.5 -44.5 -107.5s14.833 -77.833 44.5 -107.5s65.5 -44.5 107.5 -44.5z" />
    <glyph glyph-name="c" unicode="c" horiz-adv-x="496" 
d="M40 240c0 70.667 23.332 129.667 69.999 177s108.667 71 186 71c66 0 119.333 -18.333 160 -55l-41 -89c-33.333 32 -72.666 48 -117.999 48c-44 0 -81.833 -14.833 -113.5 -44.5s-47.5 -65.167 -47.5 -106.5c0 -42 15.667 -78 47 -108s69.333 -45 114 -45
c46 0 85.333 16.333 118 49l41 -90c-38.667 -36.667 -92 -55 -160 -55c-78 0 -140.167 23.667 -186.5 71s-69.5 106.333 -69.5 177z" />
    <glyph glyph-name="d" unicode="d" 
d="M440 704h96v-704h-96v70c-40 -52 -93.333 -78 -160 -78c-69.333 0 -126.666 24 -171.999 72s-68 106.667 -68 176s22.667 128 68 176s102.666 72 171.999 72c66.667 0 120 -26 160 -78v294zM288 88c42 0 77.833 14.833 107.5 44.5s44.5 65.5 44.5 107.5
s-14.833 77.833 -44.5 107.5s-65.5 44.5 -107.5 44.5s-77.833 -14.833 -107.5 -44.5s-44.5 -65.5 -44.5 -107.5s14.833 -77.833 44.5 -107.5s65.5 -44.5 107.5 -44.5z" />
    <glyph glyph-name="e" unicode="e" horiz-adv-x="544" 
d="M504 238c0 -14.667 -0.99707 -28.667 -2.99707 -42h-363c7.33301 -36 25.166 -63 53.499 -81s62.5 -27 102.5 -27c52 0 100.667 16 146 48l32 -86c-46 -38.667 -106 -58 -180 -58c-80.667 0 -142.834 23.5 -186.501 70.5s-65.5 106.167 -65.5 177.5
c0 70.667 21.833 129.667 65.5 177s101.5 71 173.5 71c65.333 0 119.166 -22.667 161.499 -68s63.5 -106 63.5 -182zM138.003 284l268.001 0.00195312c-1.33301 27.333 -13 52.166 -35 74.499s-54 33.5 -96 33.5c-40.667 0 -73.334 -11.333 -98.001 -34
s-37.667 -47.334 -39 -74.001z" />
    <glyph glyph-name="f" unicode="f" horiz-adv-x="368" 
d="M40 480l64 -0.000976562v58c0 56.667 13.333 99.834 40 129.501s62 44.5 106 44.5c24 0 44.667 -5.33301 62 -16v-94c-14 9.33301 -30 14 -48 14c-42.667 0 -64 -27 -64 -81v-55h112v-96h-112v-384h-96v384h-64v96z" />
    <glyph glyph-name="g" unicode="g" 
d="M440 480l96 -0.000976562v-450c0 -97.333 -22.833 -170.666 -68.5 -219.999s-108.167 -74 -187.5 -74c-80 0 -154.667 26.667 -224 80l48 86c18.667 -14 34 -25 46 -33s30.167 -16.167 54.5 -24.5s49.5 -12.5 75.5 -12.5c50 0 89.167 16 117.5 48s42.5 77.333 42.5 136
v54c-40 -52 -93.333 -78 -160 -78c-69.333 0 -126.666 24 -171.999 72s-68 106.667 -68 176s22.667 128 68 176s102.666 72 171.999 72c66.667 0 120 -26 160 -78v70zM288 87.999c42 0 77.833 14.833 107.5 44.5s44.5 65.5 44.5 107.5s-14.833 77.833 -44.5 107.5
s-65.5 44.5 -107.5 44.5s-77.833 -14.833 -107.5 -44.5s-44.5 -65.5 -44.5 -107.5s14.833 -77.833 44.5 -107.5s65.5 -44.5 107.5 -44.5z" />
    <glyph glyph-name="h" unicode="h" horiz-adv-x="560" 
d="M318 488c60.667 0 106.832 -18.833 138.499 -56.5s47.5 -92.167 47.5 -163.5v-268h-96v268c0 40.667 -8.16699 71.5 -24.5 92.5s-44.166 31.5 -83.499 31.5c-32 0 -62 -11.833 -90 -35.5s-42 -54.5 -42 -92.5v-264h-96v704h96v-280c37.333 42.667 87.333 64 150 64z" />
    <glyph glyph-name="i" unicode="i" horiz-adv-x="240" 
d="M120 560c-20 0 -37 7 -51 21s-21 31 -21 51s7 37 21 51s31 21 51 21s37 -7 51 -21s21 -31 21 -51s-7 -37 -21 -51s-31 -21 -51 -21zM72 0v480h96v-480h-96z" />
    <glyph glyph-name="j" unicode="j" horiz-adv-x="240" 
d="M120 560c-20 0 -37 7 -51 21s-21 31 -21 51s7 37 21 51s31 21 51 21s37 -7 51 -21s21 -31 21 -51s-7 -37 -21 -51s-31 -21 -51 -21zM72 -32l0.00195312 512.001h96v-498c0 -30 -2.33301 -57.167 -7 -81.5s-10.334 -44.5 -17.001 -60.5s-15.667 -30.333 -27 -43
s-21.5 -22.334 -30.5 -29.001s-20.333 -12.5 -34 -17.5s-24.334 -8.16699 -32.001 -9.5l-28.5 -5l-24 88c32.667 6.66699 58.167 20.667 76.5 42s27.5 55.333 27.5 102z" />
    <glyph glyph-name="k" unicode="k" horiz-adv-x="512" 
d="M248 248l256 -248h-128l-208 204v-204h-96v704h96v-420l192 196h128z" />
    <glyph glyph-name="l" unicode="l" horiz-adv-x="240" 
d="M72 704h96v-704h-96v704z" />
    <glyph glyph-name="m" unicode="m" horiz-adv-x="832" 
d="M606 488c53.333 0 95.001 -19 125.001 -57s45 -92.333 45 -163v-268h-96v268c0 82.667 -30.667 124 -92 124c-30.667 0 -57.667 -11.667 -81 -35s-35 -54.333 -35 -93v-264h-96v268c0 82.667 -30.667 124 -92 124c-30.667 0 -57.667 -11.667 -81 -35s-35 -54.333 -35 -93
v-264h-96v480h96v-56c12 13.333 22.333 23.833 31 31.5s22.167 15 40.5 22s39.166 10.5 62.499 10.5c62.667 0 108.667 -25.333 138 -76c25.333 27.333 50.833 46.833 76.5 58.5s55.5 17.5 89.5 17.5z" />
    <glyph glyph-name="n" unicode="n" horiz-adv-x="560" 
d="M318 488c58 0 103.499 -18 136.499 -54s49.5 -88.667 49.5 -158v-276h-96v268c0 40.667 -8.16699 71.5 -24.5 92.5s-44.166 31.5 -83.499 31.5c-32 0 -62 -11.833 -90 -35.5s-42 -54.5 -42 -92.5v-264h-96v480h96v-56c37.333 42.667 87.333 64 150 64z" />
    <glyph glyph-name="o" unicode="o" horiz-adv-x="576" 
d="M288 488c68.667 0 127.167 -24.167 175.5 -72.5s72.5 -106.833 72.5 -175.5s-24.167 -127.167 -72.5 -175.5s-106.833 -72.5 -175.5 -72.5s-127.167 24.167 -175.5 72.5s-72.5 106.833 -72.5 175.5s24.167 127.167 72.5 175.5s106.833 72.5 175.5 72.5zM288 88
c41.333 0 77 15 107 45s45 65.667 45 107s-15 77 -45 107s-65.667 45 -107 45s-77 -15 -107 -45s-45 -65.667 -45 -107s15 -77 45 -107s65.667 -45 107 -45z" />
    <glyph glyph-name="p" unicode="p" 
d="M328 488c69.333 0 126.666 -24 171.999 -72s68 -106.667 68 -176s-22.667 -128 -68 -176s-102.666 -72 -171.999 -72c-66.667 0 -120 26 -160 78v-326h-96v736h96v-70c40 52 93.333 78 160 78zM320 88c42 0 77.833 14.833 107.5 44.5s44.5 65.5 44.5 107.5
s-14.833 77.833 -44.5 107.5s-65.5 44.5 -107.5 44.5s-77.833 -14.833 -107.5 -44.5s-44.5 -65.5 -44.5 -107.5s14.833 -77.833 44.5 -107.5s65.5 -44.5 107.5 -44.5z" />
    <glyph glyph-name="q" unicode="q" 
d="M280 488c66.667 0 120 -26 160 -78v70h96v-736h-96v326c-40 -52 -93.333 -78 -160 -78c-69.333 0 -126.666 24 -171.999 72s-68 106.667 -68 176s22.667 128 68 176s102.666 72 171.999 72zM288 88c42 0 77.833 14.833 107.5 44.5s44.5 65.5 44.5 107.5
s-14.833 77.833 -44.5 107.5s-65.5 44.5 -107.5 44.5s-77.833 -14.833 -107.5 -44.5s-44.5 -65.5 -44.5 -107.5s14.833 -77.833 44.5 -107.5s65.5 -44.5 107.5 -44.5z" />
    <glyph glyph-name="r" unicode="r" horiz-adv-x="400" 
d="M168 377c16.667 34.667 41.667 61.832 75 81.499s72.333 29.5 117 29.5v-105c-28 8.66699 -57.333 7.33398 -88 -3.99902c-69.333 -26.667 -104 -81.667 -104 -165v-214h-96v480h96v-103z" />
    <glyph glyph-name="s" unicode="s" horiz-adv-x="480" 
d="M265 296c116.667 -22.667 174.999 -71.3301 174.999 -145.997c0 -48.667 -16.667 -87.167 -50 -115.5s-80.666 -42.5 -141.999 -42.5c-46.667 0 -89.167 7.66699 -127.5 23s-65.166 30.333 -80.499 45l38 94c18.667 -18.667 44.167 -34.167 76.5 -46.5
s62.5 -18.833 90.5 -19.5c30 -0.666992 54 4 72 14s27 22.333 27 37c0 16.667 -7.66699 29.5 -23 38.5s-39 16.5 -71 22.5c-74.667 13.333 -125.667 31.666 -153 54.999s-41 55.333 -41 96s17.833 73.667 53.5 99s82.834 38 141.501 38c59.333 0 117.333 -15.333 174 -46
l-33 -90c-12.667 9.33301 -32.5 18.166 -59.5 26.499s-54.167 12.833 -81.5 13.5s-50.666 -2.33301 -69.999 -9s-29 -17.667 -29 -33c0 -8 2.5 -14.833 7.5 -20.5s12.667 -10.334 23 -14.001s20.166 -6.66699 29.499 -9s21.666 -4.83301 36.999 -7.5
c7.33301 -1.33301 12.666 -2.33301 15.999 -3z" />
    <glyph glyph-name="t" unicode="t" horiz-adv-x="352" 
d="M104 157v227h-64v96h64v192h96v-192h96v-96h-96v-200c0 -46 6.33301 -73.667 19 -83c19.333 -14.667 45 -14 77 2v-97c-19.333 -9.33301 -43 -14 -71 -14c-80.667 0 -121 55 -121 165z" />
    <glyph glyph-name="u" unicode="u" horiz-adv-x="560" 
d="M242 -8c-58 0 -103.499 18 -136.499 54s-49.5 88.667 -49.5 158v276h96v-268c0 -40.667 8.16699 -71.5 24.5 -92.5s44.166 -31.5 83.499 -31.5c32 0 62 11.833 90 35.5s42 54.5 42 92.5v264h96v-480h-96v56c-37.333 -42.667 -87.333 -64 -150 -64z" />
    <glyph glyph-name="v" unicode="v" horiz-adv-x="480" 
d="M240 -16l-232 496h104l128 -280l128 280h104z" />
    <glyph glyph-name="w" unicode="w" horiz-adv-x="752" 
d="M632 480h104l-208 -496l-152 308l-152 -308l-208 496h104l112 -286l144 302l144 -302z" />
    <glyph glyph-name="x" unicode="x" horiz-adv-x="528" 
d="M321 255l183 -255h-114l-126 181l-126 -181h-114l183 255l-168 225h114l111 -158l111 158h114z" />
    <glyph glyph-name="y" unicode="y" horiz-adv-x="512" 
d="M397 480h107l-325 -736h-105l128 287l-194 449h107l141 -332z" />
    <glyph glyph-name="z" unicode="z" horiz-adv-x="480" 
d="M424 0h-384l236 384h-220v96h384l-238 -384h222v-96z" />
    <glyph glyph-name="braceleft" unicode="{" horiz-adv-x="384" 
d="M248 -30c0 -26 6.66699 -48.667 20 -68s33.333 -32 60 -38l-32 -88c-96 32 -144 92.667 -144 182v234c0 26.667 -10.5 50.5 -31.5 71.5s-42.5 34.5 -64.5 40.5c22 6 43.5 19.5 64.5 40.5s31.5 44.833 31.5 71.5v234c0 89.333 48 150 144 182l32 -88
c-26.667 -6 -46.667 -18.667 -60 -38s-20 -42 -20 -68v-188c0 -78 -22.333 -126.667 -67 -146c44.667 -19.333 67 -68 67 -146v-188z" />
    <glyph glyph-name="bar" unicode="|" horiz-adv-x="208" 
d="M136 -256h-64v1024h64v-1024z" />
    <glyph glyph-name="braceright" unicode="}" horiz-adv-x="384" 
d="M136 -30v188c0 78 22.333 126.667 67 146c-44.667 19.333 -67 68 -67 146v188c0 26 -6.66699 48.667 -20 68s-33.333 32 -60 38l32 88c96 -32 144 -92.667 144 -182v-234c0 -26.667 10.5 -50.5 31.5 -71.5s42.5 -34.5 64.5 -40.5c-22 -6 -43.5 -19.5 -64.5 -40.5
s-31.5 -44.833 -31.5 -71.5v-234c0 -89.333 -48 -150 -144 -182l-32 88c26.667 6 46.667 18.667 60 38s20 42 20 68z" />
    <glyph glyph-name="asciitilde" unicode="~" horiz-adv-x="520" 
d="M404 341l60.0029 -29.001c-16 -30 -33.833 -50 -53.5 -60s-42.834 -15 -69.501 -15c-8 0 -17.667 1.33301 -29 4s-20.833 5.33398 -28.5 8.00098l-33 11.5l-24.5 8.5c-26 10.667 -48 13.667 -66 9s-32.667 -18.334 -44 -41.001l-60 29c16 30 33.833 50 53.5 60
s42.834 15 69.501 15c7.33301 0 16.666 -1.33301 27.999 -4s21.166 -5.5 29.499 -8.5l32.5 -11.5c13.333 -4.66699 21.666 -7.66699 24.999 -9c26 -10 48 -12.667 66 -8s32.667 18.334 44 41.001z" />
    <glyph glyph-name="exclamdown" unicode="&#xa1;" horiz-adv-x="288" 
d="M144 488c20.667 0 37.834 -7 51.501 -21s20.5 -31 20.5 -51s-6.83301 -37 -20.5 -51s-30.834 -21 -51.501 -21c-20 0 -37 7 -51 21s-21 31 -21 51s7 37 21 51s31 21 51 21zM112 288h64l32 -480h-128z" />
    <glyph glyph-name="cent" unicode="&#xa2;" horiz-adv-x="496" 
d="M415 137l40.999 -90.002c-34 -32 -82 -50.333 -144 -55v-72h-48v74c-69.333 6.66699 -124 32.834 -164 78.501s-60 101.5 -60 167.5c0 65.333 20.167 121 60.5 167s94.833 72.333 163.5 79v74h48v-72c60 -3.33301 108 -21.666 144 -54.999l-41 -89
c-33.333 32 -72.666 48 -117.999 48c-44 0 -81.833 -14.833 -113.5 -44.5s-47.5 -65.167 -47.5 -106.5c0 -42 15.667 -78 47 -108s69.333 -45 114 -45c46 0 85.333 16.333 118 49z" />
    <glyph glyph-name="sterling" unicode="&#xa3;" horiz-adv-x="592" 
d="M472 152l80 -45.998c-19.333 -40 -44.5 -69 -75.5 -87s-61.833 -27 -92.5 -27c-6 0 -11.5 0.166992 -16.5 0.5s-9.33301 0.666016 -13 0.999023s-8 1 -13 2s-8.5 1.83301 -10.5 2.5s-5.66699 2 -11 4s-8.5 3.16699 -9.5 3.5s-4.66699 1.83301 -11 4.5
s-10.166 4.33398 -11.499 5.00098c-70 30.667 -118 25.667 -144 -15l-104 112c7.33301 19.333 22.666 38 45.999 56c17.333 13.333 30 28.333 38 45s11.5 32.167 10.5 46.5s-2.5 29.166 -4.5 44.499h-90v64h72c-16 48 -24 88 -24 120c0 52 20.333 97 61 135
s95.334 57 164.001 57c42 0 79.333 -6 112 -18s65 -32.667 97 -62l-50 -80c-43.333 42.667 -93.333 64 -150 64c-38.667 0 -71.334 -9.5 -98.001 -28.5s-40 -49.167 -40 -90.5c0 -12.667 3.83301 -31.5 11.5 -56.5s11.834 -38.5 12.501 -40.5h168v-64h-152
c6.66699 -32.667 5.5 -66.334 -3.5 -101.001s-29.5 -64 -61.5 -88c42 7.33301 73.5 9 94.5 5s44.5 -10.333 70.5 -19s46 -13 60 -13c15.333 0 31.166 5.16699 47.499 15.5s29.833 26.5 40.5 48.5z" />
    <glyph glyph-name="currency" unicode="&#xa4;" horiz-adv-x="510" 
d="M399 320c0 -30 -8.00098 -56.6641 -24.001 -79.9971l79 -78l-39 -41l-80 78c-23.333 -15.333 -49.666 -23 -78.999 -23c-30.667 0 -58 8.33301 -82 25l-79 -80l-39 40l78 80c-15.333 23.333 -23 49.666 -23 78.999s8 55.666 24 78.999l-79 81l41 39l78 -79
c24.667 16 51.667 24 81 24c30 0 57 -8.33301 81 -25l76 80l41 -39l-79 -80c16 -24.667 24 -51.334 24 -80.001zM254.999 400.003c-21.333 0 -40 -8 -56 -24s-24 -34.667 -24 -56s8 -40 24 -56s34.667 -24 56 -24s40 8 56 24s24 34.667 24 56s-8 40 -24 56
s-34.667 24 -56 24z" />
    <glyph glyph-name="yen" unicode="&#xa5;" horiz-adv-x="656" 
d="M616 672l-240 -400h112v-48h-112v-64h112v-48h-112v-112h-96v112h-112v48h112v64h-112v48h112l-240 400h108l180 -308l180 308h108z" />
    <glyph glyph-name="brokenbar" unicode="&#xa6;" horiz-adv-x="208" 
d="M136 416h-64v352h64v-352zM136 -256h-64v352h64v-352z" />
    <glyph glyph-name="section" unicode="&#xa7;" horiz-adv-x="624" 
d="M514 160c36 -30 54.0029 -71.0049 54.0029 -123.005c0 -60 -23 -109.167 -69 -147.5s-107.667 -57.5 -185 -57.5c-37.333 0 -72.5 4.83301 -105.5 14.5s-60.333 21.834 -82 36.501s-37.5 26.334 -47.5 35.001s-17.667 16.334 -23 23.001l48 86
c59.333 -66 130 -99 212 -99c50 0 88.5 9.33301 115.5 28s40.5 44.334 40.5 77.001c0 50.667 -51 85 -153 103c-88.667 15.333 -150.834 38.5 -186.501 69.5s-53.5 70.833 -53.5 119.5c0 54 19 98.667 57 134c-38 30 -57 70.667 -57 122c0 56.667 21.333 103.334 64 140.001
s102 55 178 55c87.333 0 159.666 -26.667 216.999 -80l-46 -87c-48.667 47.333 -106.334 71 -173.001 71c-46 0 -81.5 -8.33301 -106.5 -25s-37.5 -40 -37.5 -70c0 -25.333 11.667 -45.166 35 -59.499s62.333 -26.833 117 -37.5c83.333 -16 144.333 -38.833 183 -68.5
s58 -71.834 58 -126.501c0 -52.667 -18 -97 -54 -133zM175.003 328.995c0 -25.333 11.668 -45.168 35.001 -59.501s62.333 -26.833 117 -37.5c38 -7.33301 70.333 -15.666 97 -24.999c32 19.333 48 46.666 48 81.999c0 50.667 -51 85 -153 103
c-26.667 4 -54.334 10.333 -83.001 19c-40.667 -15.333 -61 -42.666 -61 -81.999z" />
    <glyph glyph-name="dieresis" unicode="&#xa8;" horiz-adv-x="816" 
d="M320 736c-15.333 0 -28.5 5.5 -39.5 16.5s-16.5 24.167 -16.5 39.5c0 16 5.5 29.333 16.5 40s24.167 16 39.5 16c16 0 29.333 -5.33301 40 -16s16 -24 16 -40c0 -15.333 -5.33301 -28.5 -16 -39.5s-24 -16.5 -40 -16.5zM496 736c-15.333 0 -28.5 5.5 -39.5 16.5
s-16.5 24.167 -16.5 39.5c0 16 5.5 29.333 16.5 40s24.167 16 39.5 16c16 0 29.333 -5.33301 40 -16s16 -24 16 -40c0 -15.333 -5.33301 -28.5 -16 -39.5s-24 -16.5 -40 -16.5z" />
    <glyph glyph-name="copyright" unicode="&#xa9;" horiz-adv-x="696" 
d="M348 148c-82 0 -151.167 28.5 -207.5 85.5s-84.5 125.833 -84.5 206.5c0 82.667 28 152 84 208s125.333 84 208 84s152 -28 208 -84s84 -125.333 84 -208s-28 -152 -84 -208s-125.333 -84 -208 -84zM348 192c69.333 0 128 24 176 72s72 106.667 72 176s-24 128 -72 176
s-106.667 72 -176 72s-128 -24 -176 -72s-72 -106.667 -72 -176s24 -128 72 -176s106.667 -72 176 -72zM361 331c32 0 57.667 10.667 77 32l19 -40c-25.333 -23.333 -56.333 -35 -93 -35c-42.667 0 -79.167 14.833 -109.5 44.5s-45.5 65.5 -45.5 107.5
s15.167 77.833 45.5 107.5s66.833 44.5 109.5 44.5c36 0 67 -11.333 93 -34l-19 -40c-19.333 20.667 -45 31 -77 31c-30 0 -55.667 -10.667 -77 -32s-32 -47 -32 -77s10.667 -55.667 32 -77s47 -32 77 -32z" />
    <glyph glyph-name="ordfeminine" unicode="&#xaa;" horiz-adv-x="360" 
d="M256 672h47.999v-240h-48v35c-20 -26 -46.667 -39 -80 -39c-34.667 0 -63.334 12 -86.001 36s-34 53.333 -34 88s11.333 64 34 88s51.334 36 86.001 36s61.334 -13 80.001 -39v35zM179.999 476c21.333 0 39.333 7.33301 54 22s22 32.667 22 54s-7.33301 39.333 -22 54
s-32.667 22 -54 22s-39.333 -7.33301 -54 -22s-22 -32.667 -22 -54s7.33301 -39.333 22 -54s32.667 -22 54 -22z" />
    <glyph glyph-name="guillemotleft" unicode="&#xab;" horiz-adv-x="624" 
d="M304 480l-160 -216l160 -216h-88l-160 216l160 216h88zM536 480l-160 -216l160 -216h-88l-160 216l160 216h88z" />
    <glyph glyph-name="logicalnot" unicode="&#xac;" 
d="M552 336v-224h-64v160h-432v64h496z" />
    <glyph glyph-name="registered" unicode="&#xae;" horiz-adv-x="696" 
d="M348 148c-82 0 -151.167 28.5 -207.5 85.5s-84.5 125.833 -84.5 206.5c0 82.667 28 152 84 208s125.333 84 208 84s152 -28 208 -84s84 -125.333 84 -208s-28 -152 -84 -208s-125.333 -84 -208 -84zM348 192c69.333 0 128 24 176 72s72 106.667 72 176s-24 128 -72 176
s-106.667 72 -176 72s-128 -24 -176 -72s-72 -106.667 -72 -176s24 -128 72 -176s106.667 -72 176 -72zM465 290l-50 -0.00195312l-74 104h-47v-104h-43v300h93c38 0 66.5 -8.66699 85.5 -26s28.5 -40.666 28.5 -69.999c0 -23.333 -6.16699 -43.666 -18.5 -60.999
s-29.5 -29 -51.5 -35zM294 546.998l-0.000976562 -111h64c16.667 0 30.334 4.66699 41.001 14s16 23 16 41c0 37.333 -19 56 -57 56h-64z" />
    <glyph glyph-name="macron" unicode="&#xaf;" horiz-adv-x="816" 
d="M544 752h-272v56h272v-56z" />
    <glyph glyph-name="degree" unicode="&#xb0;" horiz-adv-x="400" 
d="M201 392c-40.667 0 -75 13.833 -103 41.5s-42 61.834 -42 102.501c0 40 14 74 42 102s62.333 42 103 42c40 0 73.833 -14 101.5 -42s41.5 -62 41.5 -102c0 -40.667 -13.833 -74.834 -41.5 -102.501s-61.5 -41.5 -101.5 -41.5zM200 456c21.333 0 40 8 56 24
s24 34.667 24 56s-8 40 -24 56s-34.667 24 -56 24s-40 -8 -56 -24s-24 -34.667 -24 -56s8 -40 24 -56s34.667 -24 56 -24z" />
    <glyph glyph-name="plusminus" unicode="&#xb1;" horiz-adv-x="480" 
d="M424 456v-64h-152v-152h-64v152h-152v64h152v152h64v-152h152zM56 112h368v-64h-368v64z" />
    <glyph glyph-name="uni00B2" unicode="&#xb2;" horiz-adv-x="360" 
d="M64 652c2 28.667 13 53.166 33 73.499s46.333 30.5 79 30.5c32 0 58.667 -10 80 -30s32 -46 32 -78c0 -20.667 -5.83301 -40.167 -17.5 -58.5s-30.834 -41.5 -57.501 -69.5l-52 -56h143v-48h-248l123 135c40.667 44.667 61 76 61 94
c0 18.667 -5.83301 33.834 -17.5 45.501s-27.167 17.5 -46.5 17.5c-18 0 -32.667 -6 -44 -18s-17.666 -27.333 -18.999 -46z" />
    <glyph glyph-name="uni00B3" unicode="&#xb3;" horiz-adv-x="352" 
d="M248 594c13.333 -4.66699 24.667 -14.0029 34 -28.0029s14 -29.333 14 -46c0 -28.667 -9.83301 -53.834 -29.5 -75.501s-49.834 -32.5 -90.501 -32.5c-35.333 0 -63.5 9.83301 -84.5 29.5s-32.833 45.834 -35.5 78.501l48 8c6 -45.333 31 -68 75 -68
c21.333 0 38.166 5.33301 50.499 16s18.5 24 18.5 40c0 18.667 -7.33301 31.334 -22 38.001s-36.667 10 -66 10v48c53.333 2 80 18 80 48c0 12.667 -5.33301 23.834 -16 33.501s-25.667 14.5 -45 14.5c-40.667 0 -63 -21.333 -67 -64l-48 8
c2.66699 30 14.334 54.833 35.001 74.5s46.334 29.5 77.001 29.5c36 0 63.667 -9.66699 83 -29s29 -40.333 29 -63c0 -31.333 -13.333 -54.666 -40 -69.999z" />
    <glyph glyph-name="acute" unicode="&#xb4;" horiz-adv-x="816" 
d="M336 736l80 128h112l-128 -128h-64z" />
    <glyph glyph-name="paragraph" unicode="&#xb6;" horiz-adv-x="688" 
d="M632 592l-96 0.000976562v-820h-80v820h-160v-820h-80v566c-46 0 -84.167 16.167 -114.5 48.5s-45.5 72.166 -45.5 119.499c0 46 15.167 85.167 45.5 117.5s68.5 48.5 114.5 48.5h416v-80z" />
    <glyph glyph-name="periodcentered" unicode="&#xb7;" horiz-adv-x="256" 
d="M128 264c-20 0 -37 7 -51 21s-21 31 -21 51c0 20.667 7 37.834 21 51.501s31 20.5 51 20.5c20.667 0 37.834 -6.83301 51.501 -20.5s20.5 -30.834 20.5 -51.501c0 -20 -6.83301 -37 -20.5 -51s-30.834 -21 -51.501 -21z" />
    <glyph glyph-name="cedilla" unicode="&#xb8;" horiz-adv-x="816" 
d="M382 0h71.999l-45 -48c37.333 8.66699 69.833 1.66699 97.5 -21s41.5 -53 41.5 -91c0 -41.333 -14.333 -75.666 -43 -102.999s-64.667 -41 -108 -41c-52.667 0 -93 21 -121 63l48 45c16.667 -29.333 43.334 -44 80.001 -44c25.333 0 46.333 7.66699 63 23
s25 34.666 25 57.999c0 20 -7 36.833 -21 50.5s-31 20.5 -51 20.5c-24.667 0 -47 -8 -67 -24l-32 48z" />
    <glyph glyph-name="uni00B9" unicode="&#xb9;" horiz-adv-x="328" 
d="M104 732l104 36v-344h-48v282l-56 -18v44z" />
    <glyph glyph-name="ordmasculine" unicode="&#xba;" horiz-adv-x="360" 
d="M180 676c34.667 0 64 -12 88 -36s36 -53.333 36 -88c0 -34 -12 -63.167 -36 -87.5s-53.333 -36.5 -88 -36.5c-34 0 -63.167 12.167 -87.5 36.5s-36.5 53.5 -36.5 87.5c0 34.667 12.167 64 36.5 88s53.5 36 87.5 36zM180 476c20.667 0 38.5 7.5 53.5 22.5
s22.5 32.833 22.5 53.5c0 21.333 -7.33301 39.333 -22 54s-32.667 22 -54 22c-20.667 0 -38.5 -7.5 -53.5 -22.5s-22.5 -32.833 -22.5 -53.5s7.5 -38.5 22.5 -53.5s32.833 -22.5 53.5 -22.5z" />
    <glyph glyph-name="guillemotright" unicode="&#xbb;" horiz-adv-x="624" 
d="M88 480h88l160 -216l-160 -216h-88l160 216zM320 480h88l160 -216l-160 -216h-88l160 216z" />
    <glyph glyph-name="onequarter" unicode="&#xbc;" horiz-adv-x="900" 
d="M104 644l104 36v-344h-48v282l-56 -18v44zM240 0h-64l468 672h64zM804 104h40v-48h-40v-56h-48v56h-176l224 288v-240zM756 104v111l-81 -111h81z" />
    <glyph glyph-name="onehalf" unicode="&#xbd;" horiz-adv-x="916" 
d="M104 644l104 36v-344h-48v282l-56 -18v44zM240 0h-64l468 672h64zM620 236c2 28.667 13 53.166 33 73.499s46.333 30.5 79 30.5c32 0 58.667 -10 80 -30s32 -46 32 -78c0 -20.667 -5.83301 -40.167 -17.5 -58.5s-30.834 -41.5 -57.501 -69.5l-52 -56h143v-48h-248
l123 135c40.667 44.667 61 76 61 94c0 18.667 -5.83301 33.834 -17.5 45.501s-27.167 17.5 -46.5 17.5c-18 0 -32.667 -6 -44 -18s-17.666 -27.333 -18.999 -46z" />
    <glyph glyph-name="threequarters" unicode="&#xbe;" horiz-adv-x="924" 
d="M248 514c13.333 -4.66699 24.667 -14.0029 34 -28.0029s14 -29.333 14 -46c0 -28.667 -9.83301 -53.834 -29.5 -75.501s-49.834 -32.5 -90.501 -32.5c-35.333 0 -63.5 9.83301 -84.5 29.5s-32.833 45.834 -35.5 78.501l48 8c6 -45.333 31 -68 75 -68
c21.333 0 38.166 5.33301 50.499 16s18.5 24 18.5 40c0 18.667 -7.33301 31.334 -22 38.001s-36.667 10 -66 10v48c53.333 2 80 18 80 48c0 12.667 -5.33301 23.834 -16 33.501s-25.667 14.5 -45 14.5c-40.667 0 -63 -21.333 -67 -64l-48 8
c2.66699 30 14.334 54.833 35.001 74.5s46.334 29.5 77.001 29.5c36 0 63.667 -9.66699 83 -29s29 -40.333 29 -63c0 -31.333 -13.333 -54.666 -40 -69.999zM264.001 -0.00292969h-64l468 672h64zM828.001 103.997h40v-48h-40v-56h-48v56h-176l224 288v-240z
M780.001 103.997v111l-81 -111h81z" />
    <glyph glyph-name="questiondown" unicode="&#xbf;" horiz-adv-x="528" 
d="M272 344c-20.667 0 -37.834 7 -51.501 21s-20.5 31 -20.5 51s6.83301 37 20.5 51s30.834 21 51.501 21c20 0 37 -7 51 -21s21 -31 21 -51s-7 -37 -21 -51s-31 -21 -51 -21zM272 -200c-70.667 0 -124.335 19.498 -161.002 58.498s-55 83.5 -55 133.5
c0 34 7.66699 63.167 23 87.5s39 49.833 71 76.5c48.667 40 73.334 84 74.001 132h96c2.66699 -59.333 -17.666 -111.666 -60.999 -156.999c-6 -6 -20.5 -19.333 -43.5 -40s-39.333 -38 -49 -52s-14.5 -29.667 -14.5 -47c0 -27.333 10.5 -50.166 31.5 -68.499
s50.167 -27.5 87.5 -27.5c62.667 0 111 26 145 78l56 -78c-58 -64 -124.667 -96 -200 -96z" />
    <glyph glyph-name="Agrave" unicode="&#xc0;" horiz-adv-x="656" 
d="M376 736h-64l-128 128h112zM544 0l-65 144h-302l-65 -144h-104l320 688l320 -688h-104zM221 240h214l-107 236z" />
    <glyph glyph-name="Aacute" unicode="&#xc1;" horiz-adv-x="656" 
d="M280 736l80 128h112l-128 -128h-64zM544 0l-65 144h-302l-65 -144h-104l320 688l320 -688h-104zM221 240h214l-107 236z" />
    <glyph glyph-name="Acircumflex" unicode="&#xc2;" horiz-adv-x="656" 
d="M381 736l-53 52l-53 -52h-99l152 136l152 -136h-99zM544 0l-65 144h-302l-65 -144h-104l320 688l320 -688h-104zM221 240h214l-107 236z" />
    <glyph glyph-name="Atilde" unicode="&#xc3;" horiz-adv-x="656" 
d="M443 832l60.998 -20.9971c-24.667 -50 -60.667 -75 -108 -75c-17.333 0 -41.333 6 -72 18c-25.333 12 -47.5 17.167 -66.5 15.5s-33.833 -12.834 -44.5 -33.501l-61 23c26.667 48.667 63.334 73 110.001 73c16.667 0 39.334 -5.66699 68.001 -17
c26 -12.667 48.667 -18.334 68 -17.001s34.333 12.666 45 33.999zM543.998 0.00292969l-65 144h-302l-65 -144h-104l320 688l320 -688h-104zM220.998 240.003h214l-107 236z" />
    <glyph glyph-name="Adieresis" unicode="&#xc4;" horiz-adv-x="656" 
d="M240 736c-15.333 0 -28.5 5.5 -39.5 16.5s-16.5 24.167 -16.5 39.5c0 16 5.5 29.333 16.5 40s24.167 16 39.5 16c16 0 29.333 -5.33301 40 -16s16 -24 16 -40c0 -15.333 -5.33301 -28.5 -16 -39.5s-24 -16.5 -40 -16.5zM416 736c-15.333 0 -28.5 5.5 -39.5 16.5
s-16.5 24.167 -16.5 39.5c0 16 5.5 29.333 16.5 40s24.167 16 39.5 16c16 0 29.333 -5.33301 40 -16s16 -24 16 -40c0 -15.333 -5.33301 -28.5 -16 -39.5s-24 -16.5 -40 -16.5zM544 0l-65 144h-302l-65 -144h-104l320 688l320 -688h-104zM221 240h214l-107 236z" />
    <glyph glyph-name="Aring" unicode="&#xc5;" horiz-adv-x="656" 
d="M328 944c30.667 0 57 -11 79 -33s33 -48.333 33 -79s-11 -57 -33 -79s-48.333 -33 -79 -33s-57 11 -79 33s-33 48.333 -33 79s11 57 33 79s48.333 33 79 33zM328 776c15.333 0 28.5 5.5 39.5 16.5s16.5 24.167 16.5 39.5s-5.5 28.5 -16.5 39.5s-24.167 16.5 -39.5 16.5
s-28.5 -5.5 -39.5 -16.5s-16.5 -24.167 -16.5 -39.5s5.5 -28.5 16.5 -39.5s24.167 -16.5 39.5 -16.5zM544 0l-65 144h-302l-65 -144h-104l320 688l320 -688h-104zM221 240h214l-107 236z" />
    <glyph glyph-name="AE" unicode="&#xc6;" horiz-adv-x="800" 
d="M744 576h-288v-192h240v-96h-240v-192h288v-96h-384v144h-174l-74 -144h-104l352 672h384v-96zM236 240h124v240z" />
    <glyph glyph-name="Ccedilla" unicode="&#xc7;" horiz-adv-x="640" 
d="M600 71c-49.333 -45.333 -109.668 -71.334 -181.001 -78.001l-38 -41c37.333 8.66699 69.833 1.66699 97.5 -21s41.5 -53 41.5 -91c0 -41.333 -14.333 -75.666 -43 -102.999s-64.667 -41 -108 -41c-52.667 0 -93 21 -121 63l48 45c16.667 -29.333 43.334 -44 80.001 -44
c25.333 0 46.333 7.66699 63 23s25 34.666 25 57.999c0 20 -7 36.833 -21 50.5s-31 20.5 -51 20.5c-24.667 0 -47 -8 -67 -24l-32 48l56 58c-87.333 10.667 -160.666 48.5 -219.999 113.5s-89 141.167 -89 228.5c0 94.667 34.167 175.667 102.5 243s150.833 101 247.5 101
c38 0 75.667 -6.66699 113 -20s69.666 -32.666 96.999 -57.999l-41 -90c-46.667 48 -105 72 -175 72c-68.667 0 -127.167 -24.167 -175.5 -72.5s-72.5 -106.833 -72.5 -175.5s24.167 -127.167 72.5 -175.5s106.833 -72.5 175.5 -72.5c70 0 128.333 24.333 175 73z" />
    <glyph glyph-name="Egrave" unicode="&#xc8;" horiz-adv-x="512" 
d="M336 736h-64l-128 128h112zM456 576h-288v-192h240v-96h-240v-192h288v-96h-384v672h384v-96z" />
    <glyph glyph-name="Eacute" unicode="&#xc9;" horiz-adv-x="512" 
d="M192 736l80 128h112l-128 -128h-64zM456 576h-288v-192h240v-96h-240v-192h288v-96h-384v672h384v-96z" />
    <glyph glyph-name="Ecircumflex" unicode="&#xca;" horiz-adv-x="512" 
d="M309 736l-53 52l-53 -52h-99l152 136l152 -136h-99zM456 576h-288v-192h240v-96h-240v-192h288v-96h-384v672h384v-96z" />
    <glyph glyph-name="Edieresis" unicode="&#xcb;" horiz-adv-x="512" 
d="M168 736c-15.333 0 -28.5 5.5 -39.5 16.5s-16.5 24.167 -16.5 39.5c0 16 5.5 29.333 16.5 40s24.167 16 39.5 16c16 0 29.333 -5.33301 40 -16s16 -24 16 -40c0 -15.333 -5.33301 -28.5 -16 -39.5s-24 -16.5 -40 -16.5zM344 736c-15.333 0 -28.5 5.5 -39.5 16.5
s-16.5 24.167 -16.5 39.5c0 16 5.5 29.333 16.5 40s24.167 16 39.5 16c16 0 29.333 -5.33301 40 -16s16 -24 16 -40c0 -15.333 -5.33301 -28.5 -16 -39.5s-24 -16.5 -40 -16.5zM456 576h-288v-192h240v-96h-240v-192h288v-96h-384v672h384v-96z" />
    <glyph glyph-name="Igrave" unicode="&#xcc;" horiz-adv-x="240" 
d="M168 736h-64l-128 128h112zM168 0h-96v672h96v-672z" />
    <glyph glyph-name="Iacute" unicode="&#xcd;" horiz-adv-x="240" 
d="M72 736l80 128h112l-128 -128h-64zM168 0h-96v672h96v-672z" />
    <glyph glyph-name="Icircumflex" unicode="&#xce;" horiz-adv-x="240" 
d="M173 736l-53 52l-53 -52h-99l152 136l152 -136h-99zM168 0h-96v672h96v-672z" />
    <glyph glyph-name="Idieresis" unicode="&#xcf;" horiz-adv-x="240" 
d="M32 736c-15.333 0 -28.5 5.5 -39.5 16.5s-16.5 24.167 -16.5 39.5c0 16 5.5 29.333 16.5 40s24.167 16 39.5 16c16 0 29.333 -5.33301 40 -16s16 -24 16 -40c0 -15.333 -5.33301 -28.5 -16 -39.5s-24 -16.5 -40 -16.5zM208 736c-15.333 0 -28.5 5.5 -39.5 16.5
s-16.5 24.167 -16.5 39.5c0 16 5.5 29.333 16.5 40s24.167 16 39.5 16c16 0 29.333 -5.33301 40 -16s16 -24 16 -40c0 -15.333 -5.33301 -28.5 -16 -39.5s-24 -16.5 -40 -16.5zM168 0h-96v672h96v-672z" />
    <glyph glyph-name="Eth" unicode="&#xd0;" horiz-adv-x="672" 
d="M289 672c108 0 192.167 -31.667 252.5 -95s90.5 -143.666 90.5 -240.999c0 -96.667 -30.667 -176.834 -92 -240.501s-145 -95.5 -251 -95.5h-201v304h-64v64h64v304h201zM314 96c64.667 0 117.834 23.1689 159.501 69.502s62.5 103.166 62.5 170.499
s-20.833 124.166 -62.5 170.499s-94.834 69.5 -159.501 69.5h-130v-208h64v-64h-64v-208h130z" />
    <glyph glyph-name="Ntilde" unicode="&#xd1;" horiz-adv-x="704" 
d="M467 832l60.998 -20.9971c-24.667 -50 -60.667 -75 -108 -75c-17.333 0 -41.333 6 -72 18c-25.333 12 -47.5 17.167 -66.5 15.5s-33.833 -12.834 -44.5 -33.501l-61 23c26.667 48.667 63.334 73 110.001 73c16.667 0 39.334 -5.66699 68.001 -17
c26 -12.667 48.667 -18.334 68 -17.001s34.333 12.666 45 33.999zM631.998 -15.9971l-464 476v-460h-96v688l464 -476v460h96v-688z" />
    <glyph glyph-name="Ograve" unicode="&#xd2;" horiz-adv-x="768" 
d="M440 736h-64l-128 128h112zM384 680c94.667 0 175.667 -33.667 243 -101s101 -148.333 101 -243s-33.667 -175.667 -101 -243s-148.333 -101 -243 -101s-175.667 33.667 -243 101s-101 148.333 -101 243s33.667 175.667 101 243s148.333 101 243 101zM384 88
c69.333 0 128 24 176 72s72 106.667 72 176s-24 128 -72 176s-106.667 72 -176 72s-128 -24 -176 -72s-72 -106.667 -72 -176s24 -128 72 -176s106.667 -72 176 -72z" />
    <glyph glyph-name="Oacute" unicode="&#xd3;" horiz-adv-x="768" 
d="M328 736l80 128h112l-128 -128h-64zM384 680c94.667 0 175.667 -33.667 243 -101s101 -148.333 101 -243s-33.667 -175.667 -101 -243s-148.333 -101 -243 -101s-175.667 33.667 -243 101s-101 148.333 -101 243s33.667 175.667 101 243s148.333 101 243 101zM384 88
c69.333 0 128 24 176 72s72 106.667 72 176s-24 128 -72 176s-106.667 72 -176 72s-128 -24 -176 -72s-72 -106.667 -72 -176s24 -128 72 -176s106.667 -72 176 -72z" />
    <glyph glyph-name="Ocircumflex" unicode="&#xd4;" horiz-adv-x="768" 
d="M437 736l-53 52l-53 -52h-99l152 136l152 -136h-99zM384 680c94.667 0 175.667 -33.667 243 -101s101 -148.333 101 -243s-33.667 -175.667 -101 -243s-148.333 -101 -243 -101s-175.667 33.667 -243 101s-101 148.333 -101 243s33.667 175.667 101 243
s148.333 101 243 101zM384 88c69.333 0 128 24 176 72s72 106.667 72 176s-24 128 -72 176s-106.667 72 -176 72s-128 -24 -176 -72s-72 -106.667 -72 -176s24 -128 72 -176s106.667 -72 176 -72z" />
    <glyph glyph-name="Otilde" unicode="&#xd5;" horiz-adv-x="768" 
d="M499 832l60.998 -20.9971c-24.667 -50 -60.667 -75 -108 -75c-17.333 0 -41.333 6 -72 18c-25.333 12 -47.5 17.167 -66.5 15.5s-33.833 -12.834 -44.5 -33.501l-61 23c26.667 48.667 63.334 73 110.001 73c16.667 0 39.334 -5.66699 68.001 -17
c26 -12.667 48.667 -18.334 68 -17.001s34.333 12.666 45 33.999zM383.998 680.003c94.667 0 175.667 -33.667 243 -101s101 -148.333 101 -243s-33.667 -175.667 -101 -243s-148.333 -101 -243 -101s-175.667 33.667 -243 101s-101 148.333 -101 243
s33.667 175.667 101 243s148.333 101 243 101zM383.998 88.0029c69.333 0 128 24 176 72s72 106.667 72 176s-24 128 -72 176s-106.667 72 -176 72s-128 -24 -176 -72s-72 -106.667 -72 -176s24 -128 72 -176s106.667 -72 176 -72z" />
    <glyph glyph-name="Odieresis" unicode="&#xd6;" horiz-adv-x="768" 
d="M296 736c-15.333 0 -28.5 5.5 -39.5 16.5s-16.5 24.167 -16.5 39.5c0 16 5.5 29.333 16.5 40s24.167 16 39.5 16c16 0 29.333 -5.33301 40 -16s16 -24 16 -40c0 -15.333 -5.33301 -28.5 -16 -39.5s-24 -16.5 -40 -16.5zM472 736c-15.333 0 -28.5 5.5 -39.5 16.5
s-16.5 24.167 -16.5 39.5c0 16 5.5 29.333 16.5 40s24.167 16 39.5 16c16 0 29.333 -5.33301 40 -16s16 -24 16 -40c0 -15.333 -5.33301 -28.5 -16 -39.5s-24 -16.5 -40 -16.5zM384 680c94.667 0 175.667 -33.667 243 -101s101 -148.333 101 -243
s-33.667 -175.667 -101 -243s-148.333 -101 -243 -101s-175.667 33.667 -243 101s-101 148.333 -101 243s33.667 175.667 101 243s148.333 101 243 101zM384 88c69.333 0 128 24 176 72s72 106.667 72 176s-24 128 -72 176s-106.667 72 -176 72s-128 -24 -176 -72
s-72 -106.667 -72 -176s24 -128 72 -176s106.667 -72 176 -72z" />
    <glyph glyph-name="multiply" unicode="&#xd7;" horiz-adv-x="438" 
d="M336 467l46 -46l-118 -117l118 -117l-46 -46l-117 118l-117 -118l-46 46l118 117l-118 117l46 46l117 -118z" />
    <glyph glyph-name="Oslash" unicode="&#xd8;" horiz-adv-x="768" 
d="M624 583c69.333 -68 104 -150.333 104 -247c0 -94.667 -33.667 -175.667 -101 -243s-148.333 -101 -243 -101c-77.333 0 -146.333 23 -207 69l-53 -61h-56l76 89c-69.333 68 -104 150.333 -104 247c0 94.667 33.667 175.667 101 243s148.333 101 243 101
c77.333 0 146.333 -23 207 -69l53 61h56zM136 336c0 -68.667 23.666 -126.667 70.999 -174l322 376c-43.333 30.667 -91.666 46 -144.999 46c-69.333 0 -128 -24 -176 -72s-72 -106.667 -72 -176zM383.999 88c69.333 0 128.001 24 176.001 72s72 106.667 72 176
c0 68.667 -23.667 126.667 -71 174l-322 -376c43.333 -30.667 91.666 -46 144.999 -46z" />
    <glyph glyph-name="Ugrave" unicode="&#xd9;" horiz-adv-x="624" 
d="M376 736h-64l-128 128h112zM472 672h96v-376c0 -92.667 -21.5 -166.5 -64.5 -221.5s-106.833 -82.5 -191.5 -82.5c-86.667 0 -151 27.333 -193 82s-63 128.667 -63 222v376h96v-408c0 -52.667 14.167 -95.167 42.5 -127.5s67.5 -48.5 117.5 -48.5
c49.333 0 88.333 16.167 117 48.5s43 74.833 43 127.5v408z" />
    <glyph glyph-name="Uacute" unicode="&#xda;" horiz-adv-x="624" 
d="M248 736l80 128h112l-128 -128h-64zM472 672h96v-376c0 -92.667 -21.5 -166.5 -64.5 -221.5s-106.833 -82.5 -191.5 -82.5c-86.667 0 -151 27.333 -193 82s-63 128.667 -63 222v376h96v-408c0 -52.667 14.167 -95.167 42.5 -127.5s67.5 -48.5 117.5 -48.5
c49.333 0 88.333 16.167 117 48.5s43 74.833 43 127.5v408z" />
    <glyph glyph-name="Ucircumflex" unicode="&#xdb;" horiz-adv-x="624" 
d="M365 736l-53 52l-53 -52h-99l152 136l152 -136h-99zM472 672h96v-376c0 -92.667 -21.5 -166.5 -64.5 -221.5s-106.833 -82.5 -191.5 -82.5c-86.667 0 -151 27.333 -193 82s-63 128.667 -63 222v376h96v-408c0 -52.667 14.167 -95.167 42.5 -127.5s67.5 -48.5 117.5 -48.5
c49.333 0 88.333 16.167 117 48.5s43 74.833 43 127.5v408z" />
    <glyph glyph-name="Udieresis" unicode="&#xdc;" horiz-adv-x="624" 
d="M224 736c-15.333 0 -28.5 5.5 -39.5 16.5s-16.5 24.167 -16.5 39.5c0 16 5.5 29.333 16.5 40s24.167 16 39.5 16c16 0 29.333 -5.33301 40 -16s16 -24 16 -40c0 -15.333 -5.33301 -28.5 -16 -39.5s-24 -16.5 -40 -16.5zM400 736c-15.333 0 -28.5 5.5 -39.5 16.5
s-16.5 24.167 -16.5 39.5c0 16 5.5 29.333 16.5 40s24.167 16 39.5 16c16 0 29.333 -5.33301 40 -16s16 -24 16 -40c0 -15.333 -5.33301 -28.5 -16 -39.5s-24 -16.5 -40 -16.5zM472 672h96v-376c0 -92.667 -21.5 -166.5 -64.5 -221.5s-106.833 -82.5 -191.5 -82.5
c-86.667 0 -151 27.333 -193 82s-63 128.667 -63 222v376h96v-408c0 -52.667 14.167 -95.167 42.5 -127.5s67.5 -48.5 117.5 -48.5c49.333 0 88.333 16.167 117 48.5s43 74.833 43 127.5v408z" />
    <glyph glyph-name="Yacute" unicode="&#xdd;" horiz-adv-x="592" 
d="M248 736l80 128h112l-128 -128h-64zM476 672h108l-240 -400v-272h-96v272l-240 400h108l180 -308z" />
    <glyph glyph-name="Thorn" unicode="&#xde;" horiz-adv-x="576" 
d="M280 572c84.667 0 148.5 -19.332 191.5 -57.999s64.5 -91 64.5 -157c0 -64.667 -20.333 -118.334 -61 -161.001s-95.667 -64 -165 -64h-142v-132h-96v704h96v-132h112zM311 228.001c38 0 69 10.168 93 30.501s36 51.166 36 92.499s-13 72.5 -39 93.5s-58 31.5 -96 31.5
h-137v-248h143z" />
    <glyph glyph-name="germandbls" unicode="&#xdf;" horiz-adv-x="544" 
d="M152 0v503.997c0 32 10.167 58.667 30.5 80s45.5 32 75.5 32c28.667 0 52.834 -7.66699 72.501 -23s29.5 -37 29.5 -65c0 -29.333 -13.333 -54.333 -40 -75c-32.667 -24.667 -78 -37 -136 -37v-96c62.667 0 110.334 -5.33301 143.001 -16c24 -8 43.5 -21.333 58.5 -40
s22.5 -40 22.5 -64c0 -31.333 -8.5 -56 -25.5 -74s-38.667 -29 -65 -33s-50.166 -5.5 -71.499 -4.5s-42 3.5 -62 7.5v-96c28.667 -5.33301 57.667 -8 87 -8c71.333 0 128 21 170 63s63 91.667 63 149c0 42.667 -12.333 81 -37 115s-57.334 55.667 -98.001 65
c21.333 10.667 41.666 29.334 60.999 56.001s29 57.334 29 92.001c0 46.667 -16.5 88.334 -49.5 125.001s-80.833 55 -143.5 55c-10 0 -20.333 -0.5 -31 -1.5s-27.834 -5.66699 -51.501 -14s-44 -19.5 -61 -33.5s-32.333 -36.333 -46 -67s-20.5 -66.667 -20.5 -108v-488h96z
" />
    <glyph glyph-name="agrave" unicode="&#xe0;" 
d="M424 544h-64l-128 128h112zM440 480h96v-480h-96v70c-40 -52 -93.333 -78 -160 -78c-69.333 0 -126.666 24 -171.999 72s-68 106.667 -68 176s22.667 128 68 176s102.666 72 171.999 72c66.667 0 120 -26 160 -78v70zM288 88c42 0 77.833 14.833 107.5 44.5
s44.5 65.5 44.5 107.5s-14.833 77.833 -44.5 107.5s-65.5 44.5 -107.5 44.5s-77.833 -14.833 -107.5 -44.5s-44.5 -65.5 -44.5 -107.5s14.833 -77.833 44.5 -107.5s65.5 -44.5 107.5 -44.5z" />
    <glyph glyph-name="aacute" unicode="&#xe1;" 
d="M264 544l80 128h112l-128 -128h-64zM440 480h96v-480h-96v70c-40 -52 -93.333 -78 -160 -78c-69.333 0 -126.666 24 -171.999 72s-68 106.667 -68 176s22.667 128 68 176s102.666 72 171.999 72c66.667 0 120 -26 160 -78v70zM288 88c42 0 77.833 14.833 107.5 44.5
s44.5 65.5 44.5 107.5s-14.833 77.833 -44.5 107.5s-65.5 44.5 -107.5 44.5s-77.833 -14.833 -107.5 -44.5s-44.5 -65.5 -44.5 -107.5s14.833 -77.833 44.5 -107.5s65.5 -44.5 107.5 -44.5z" />
    <glyph glyph-name="acircumflex" unicode="&#xe2;" 
d="M373 544l-53 52l-53 -52h-99l152 136l152 -136h-99zM440 480h96v-480h-96v70c-40 -52 -93.333 -78 -160 -78c-69.333 0 -126.666 24 -171.999 72s-68 106.667 -68 176s22.667 128 68 176s102.666 72 171.999 72c66.667 0 120 -26 160 -78v70zM288 88
c42 0 77.833 14.833 107.5 44.5s44.5 65.5 44.5 107.5s-14.833 77.833 -44.5 107.5s-65.5 44.5 -107.5 44.5s-77.833 -14.833 -107.5 -44.5s-44.5 -65.5 -44.5 -107.5s14.833 -77.833 44.5 -107.5s65.5 -44.5 107.5 -44.5z" />
    <glyph glyph-name="atilde" unicode="&#xe3;" 
d="M435 640l60.998 -20.9971c-24.667 -50 -60.667 -75 -108 -75c-17.333 0 -41.333 6 -72 18c-25.333 12 -47.5 17.167 -66.5 15.5s-33.833 -12.834 -44.5 -33.501l-61 23c26.667 48.667 63.334 73 110.001 73c16.667 0 39.334 -5.66699 68.001 -17
c26 -12.667 48.667 -18.334 68 -17.001s34.333 12.666 45 33.999zM439.998 480.003h96v-480h-96v70c-40 -52 -93.333 -78 -160 -78c-69.333 0 -126.666 24 -171.999 72s-68 106.667 -68 176s22.667 128 68 176s102.666 72 171.999 72c66.667 0 120 -26 160 -78v70z
M287.998 88.0029c42 0 77.833 14.833 107.5 44.5s44.5 65.5 44.5 107.5s-14.833 77.833 -44.5 107.5s-65.5 44.5 -107.5 44.5s-77.833 -14.833 -107.5 -44.5s-44.5 -65.5 -44.5 -107.5s14.833 -77.833 44.5 -107.5s65.5 -44.5 107.5 -44.5z" />
    <glyph glyph-name="adieresis" unicode="&#xe4;" 
d="M232 544c-15.333 0 -28.5 5.5 -39.5 16.5s-16.5 24.167 -16.5 39.5c0 16 5.5 29.333 16.5 40s24.167 16 39.5 16c16 0 29.333 -5.33301 40 -16s16 -24 16 -40c0 -15.333 -5.33301 -28.5 -16 -39.5s-24 -16.5 -40 -16.5zM408 544c-15.333 0 -28.5 5.5 -39.5 16.5
s-16.5 24.167 -16.5 39.5c0 16 5.5 29.333 16.5 40s24.167 16 39.5 16c16 0 29.333 -5.33301 40 -16s16 -24 16 -40c0 -15.333 -5.33301 -28.5 -16 -39.5s-24 -16.5 -40 -16.5zM440 480h96v-480h-96v70c-40 -52 -93.333 -78 -160 -78c-69.333 0 -126.666 24 -171.999 72
s-68 106.667 -68 176s22.667 128 68 176s102.666 72 171.999 72c66.667 0 120 -26 160 -78v70zM288 88c42 0 77.833 14.833 107.5 44.5s44.5 65.5 44.5 107.5s-14.833 77.833 -44.5 107.5s-65.5 44.5 -107.5 44.5s-77.833 -14.833 -107.5 -44.5s-44.5 -65.5 -44.5 -107.5
s14.833 -77.833 44.5 -107.5s65.5 -44.5 107.5 -44.5z" />
    <glyph glyph-name="aring" unicode="&#xe5;" 
d="M328 736c30.667 0 57 -11 79 -33s33 -48.333 33 -79s-11 -57 -33 -79s-48.333 -33 -79 -33s-57 11 -79 33s-33 48.333 -33 79s11 57 33 79s48.333 33 79 33zM328 568c15.333 0 28.5 5.5 39.5 16.5s16.5 24.167 16.5 39.5s-5.5 28.5 -16.5 39.5s-24.167 16.5 -39.5 16.5
s-28.5 -5.5 -39.5 -16.5s-16.5 -24.167 -16.5 -39.5s5.5 -28.5 16.5 -39.5s24.167 -16.5 39.5 -16.5zM440 480h96v-480h-96v70c-40 -52 -93.333 -78 -160 -78c-69.333 0 -126.666 24 -171.999 72s-68 106.667 -68 176s22.667 128 68 176s102.666 72 171.999 72
c66.667 0 120 -26 160 -78v70zM288 88c42 0 77.833 14.833 107.5 44.5s44.5 65.5 44.5 107.5s-14.833 77.833 -44.5 107.5s-65.5 44.5 -107.5 44.5s-77.833 -14.833 -107.5 -44.5s-44.5 -65.5 -44.5 -107.5s14.833 -77.833 44.5 -107.5s65.5 -44.5 107.5 -44.5z" />
    <glyph glyph-name="ae" unicode="&#xe6;" horiz-adv-x="880" 
d="M840 238c0 -14.667 -0.99707 -28.668 -2.99707 -42.001h-363c7.33301 -36 25.166 -63 53.499 -81s62.5 -27 102.5 -27c52 0 100.667 16 146 48l32 -86c-46 -38.667 -106 -58 -180 -58c-61.333 0 -113.333 15 -156 45v-37h-96v49c-14.667 -18 -37.167 -32 -67.5 -42
s-59.833 -15 -88.5 -15c-54 0 -97.5 14.667 -130.5 44s-49.5 68 -49.5 116c0 59.333 32.333 103.333 97 132c57.333 26 137 28 239 6c0 20.667 -4.33301 38.167 -13 52.5s-20.167 24.833 -34.5 31.5s-28 11.334 -41 14.001s-26.833 4 -41.5 4
c-52.667 0 -99.667 -15 -141 -45l-45 77c10 8 21.833 16 35.5 24s35.667 16.667 66 26s61.166 14 92.499 14c86.667 0 147 -26 181 -78c45.333 52 105.333 78 180 78c65.333 0 119.166 -22.667 161.499 -68s63.5 -106 63.5 -182zM474.003 283.999l268.001 0.00195312
c-1.33301 27.333 -13 52.166 -35 74.499s-54 33.5 -96 33.5c-40.667 0 -73.334 -11.333 -98.001 -34s-37.667 -47.334 -39 -74.001zM376.004 168.001v38.001c-76 16.667 -135 19.167 -177 7.5s-63 -32.834 -63 -63.501c0 -19.333 8.33301 -34.5 25 -45.5s37 -16.5 61 -16.5
c38 0 73.167 7.83301 105.5 23.5s48.5 34.5 48.5 56.5z" />
    <glyph glyph-name="ccedilla" unicode="&#xe7;" horiz-adv-x="496" 
d="M456 47c-32.667 -30.667 -77.002 -48.668 -133.002 -54.001l-38 -41c37.333 8.66699 69.833 1.66699 97.5 -21s41.5 -53 41.5 -91c0 -41.333 -14.333 -75.666 -43 -102.999s-64.667 -41 -108 -41c-52.667 0 -93 21 -121 63l48 45c16.667 -29.333 43.334 -44 80.001 -44
c25.333 0 46.333 7.66699 63 23s25 34.666 25 57.999c0 20 -7 36.833 -21 50.5s-31 20.5 -51 20.5c-24.667 0 -47 -8 -67 -24l-32 48l56 59c-66 8.66699 -118 35.834 -156 81.501s-57 100.167 -57 163.5c0 70.667 23.333 129.667 70 177s108.667 71 186 71
c66 0 119.333 -18.333 160 -55l-41 -89c-33.333 32 -72.666 48 -117.999 48c-44 0 -81.833 -14.833 -113.5 -44.5s-47.5 -65.167 -47.5 -106.5c0 -42 15.667 -78 47 -108s69.333 -45 114 -45c46 0 85.333 16.333 118 49z" />
    <glyph glyph-name="egrave" unicode="&#xe8;" horiz-adv-x="544" 
d="M344 544h-64l-128 128h112zM504 238c0 -14.667 -0.99707 -28.667 -2.99707 -42h-363c7.33301 -36 25.166 -63 53.499 -81s62.5 -27 102.5 -27c52 0 100.667 16 146 48l32 -86c-46 -38.667 -106 -58 -180 -58c-80.667 0 -142.834 23.5 -186.501 70.5
s-65.5 106.167 -65.5 177.5c0 70.667 21.833 129.667 65.5 177s101.5 71 173.5 71c65.333 0 119.166 -22.667 161.499 -68s63.5 -106 63.5 -182zM138.003 284l268.001 0.00195312c-1.33301 27.333 -13 52.166 -35 74.499s-54 33.5 -96 33.5
c-40.667 0 -73.334 -11.333 -98.001 -34s-37.667 -47.334 -39 -74.001z" />
    <glyph glyph-name="eacute" unicode="&#xe9;" horiz-adv-x="544" 
d="M224 544l80 128h112l-128 -128h-64zM504 238c0 -14.667 -0.99707 -28.667 -2.99707 -42h-363c7.33301 -36 25.166 -63 53.499 -81s62.5 -27 102.5 -27c52 0 100.667 16 146 48l32 -86c-46 -38.667 -106 -58 -180 -58c-80.667 0 -142.834 23.5 -186.501 70.5
s-65.5 106.167 -65.5 177.5c0 70.667 21.833 129.667 65.5 177s101.5 71 173.5 71c65.333 0 119.166 -22.667 161.499 -68s63.5 -106 63.5 -182zM138.003 284l268.001 0.00195312c-1.33301 27.333 -13 52.166 -35 74.499s-54 33.5 -96 33.5
c-40.667 0 -73.334 -11.333 -98.001 -34s-37.667 -47.334 -39 -74.001z" />
    <glyph glyph-name="ecircumflex" unicode="&#xea;" horiz-adv-x="544" 
d="M325 544l-53 52l-53 -52h-99l152 136l152 -136h-99zM504 238c0 -14.667 -0.99707 -28.667 -2.99707 -42h-363c7.33301 -36 25.166 -63 53.499 -81s62.5 -27 102.5 -27c52 0 100.667 16 146 48l32 -86c-46 -38.667 -106 -58 -180 -58
c-80.667 0 -142.834 23.5 -186.501 70.5s-65.5 106.167 -65.5 177.5c0 70.667 21.833 129.667 65.5 177s101.5 71 173.5 71c65.333 0 119.166 -22.667 161.499 -68s63.5 -106 63.5 -182zM138.003 284l268.001 0.00195312c-1.33301 27.333 -13 52.166 -35 74.499
s-54 33.5 -96 33.5c-40.667 0 -73.334 -11.333 -98.001 -34s-37.667 -47.334 -39 -74.001z" />
    <glyph glyph-name="edieresis" unicode="&#xeb;" horiz-adv-x="544" 
d="M184 544c-15.333 0 -28.5 5.5 -39.5 16.5s-16.5 24.167 -16.5 39.5c0 16 5.5 29.333 16.5 40s24.167 16 39.5 16c16 0 29.333 -5.33301 40 -16s16 -24 16 -40c0 -15.333 -5.33301 -28.5 -16 -39.5s-24 -16.5 -40 -16.5zM360 544c-15.333 0 -28.5 5.5 -39.5 16.5
s-16.5 24.167 -16.5 39.5c0 16 5.5 29.333 16.5 40s24.167 16 39.5 16c16 0 29.333 -5.33301 40 -16s16 -24 16 -40c0 -15.333 -5.33301 -28.5 -16 -39.5s-24 -16.5 -40 -16.5zM504 238c0 -14.667 -0.99707 -28.667 -2.99707 -42h-363c7.33301 -36 25.166 -63 53.499 -81
s62.5 -27 102.5 -27c52 0 100.667 16 146 48l32 -86c-46 -38.667 -106 -58 -180 -58c-80.667 0 -142.834 23.5 -186.501 70.5s-65.5 106.167 -65.5 177.5c0 70.667 21.833 129.667 65.5 177s101.5 71 173.5 71c65.333 0 119.166 -22.667 161.499 -68s63.5 -106 63.5 -182z
M138.003 284l268.001 0.00195312c-1.33301 27.333 -13 52.166 -35 74.499s-54 33.5 -96 33.5c-40.667 0 -73.334 -11.333 -98.001 -34s-37.667 -47.334 -39 -74.001z" />
    <glyph glyph-name="igrave" unicode="&#xec;" horiz-adv-x="240" 
d="M168 544h-64l-128 128h112zM72 0v480h96v-480h-96z" />
    <glyph glyph-name="iacute" unicode="&#xed;" horiz-adv-x="240" 
d="M72 544l80 128h112l-128 -128h-64zM72 0v480h96v-480h-96z" />
    <glyph glyph-name="icircumflex" unicode="&#xee;" horiz-adv-x="240" 
d="M173 544l-53 52l-53 -52h-99l152 136l152 -136h-99zM72 0v480h96v-480h-96z" />
    <glyph glyph-name="idieresis" unicode="&#xef;" horiz-adv-x="240" 
d="M32 544c-15.333 0 -28.5 5.5 -39.5 16.5s-16.5 24.167 -16.5 39.5c0 16 5.5 29.333 16.5 40s24.167 16 39.5 16c16 0 29.333 -5.33301 40 -16s16 -24 16 -40c0 -15.333 -5.33301 -28.5 -16 -39.5s-24 -16.5 -40 -16.5zM208 544c-15.333 0 -28.5 5.5 -39.5 16.5
s-16.5 24.167 -16.5 39.5c0 16 5.5 29.333 16.5 40s24.167 16 39.5 16c16 0 29.333 -5.33301 40 -16s16 -24 16 -40c0 -15.333 -5.33301 -28.5 -16 -39.5s-24 -16.5 -40 -16.5zM72 0v480h96v-480h-96z" />
    <glyph glyph-name="eth" unicode="&#xf0;" horiz-adv-x="576" 
d="M317 603c146 -126.667 219 -247.667 219 -363c0 -68.667 -24.167 -127.167 -72.5 -175.5s-106.833 -72.5 -175.5 -72.5s-127.167 24.167 -175.5 72.5s-72.5 106.833 -72.5 175.5c0 68 23.667 125.833 71 173.5s106 71.5 176 71.5c14 0 26 -1 36 -3
c-26 30 -58 59.667 -96 89l-171 -60v64l114 40l-80 57l70 48l98 -72l166 57v-65zM288 88c41.333 0 77 15 107 45s45 65.667 45 107s-15 77 -45 107s-65.667 45 -107 45s-77 -15 -107 -45s-45 -65.667 -45 -107s15 -77 45 -107s65.667 -45 107 -45z" />
    <glyph glyph-name="ntilde" unicode="&#xf1;" horiz-adv-x="560" 
d="M395 640l60.998 -20.9971c-24.667 -50 -60.667 -75 -108 -75c-17.333 0 -41.333 6 -72 18c-25.333 12 -47.5 17.167 -66.5 15.5s-33.833 -12.834 -44.5 -33.501l-61 23c26.667 48.667 63.334 73 110.001 73c16.667 0 39.334 -5.66699 68.001 -17
c26 -12.667 48.667 -18.334 68 -17.001s34.333 12.666 45 33.999zM317.998 488.003c58 0 103.499 -18 136.499 -54s49.5 -88.667 49.5 -158v-276h-96v268c0 40.667 -8.16699 71.5 -24.5 92.5s-44.166 31.5 -83.499 31.5c-32 0 -62 -11.833 -90 -35.5s-42 -54.5 -42 -92.5
v-264h-96v480h96v-56c37.333 42.667 87.333 64 150 64z" />
    <glyph glyph-name="ograve" unicode="&#xf2;" horiz-adv-x="576" 
d="M344 544h-64l-128 128h112zM288 488c68.667 0 127.167 -24.167 175.5 -72.5s72.5 -106.833 72.5 -175.5s-24.167 -127.167 -72.5 -175.5s-106.833 -72.5 -175.5 -72.5s-127.167 24.167 -175.5 72.5s-72.5 106.833 -72.5 175.5s24.167 127.167 72.5 175.5
s106.833 72.5 175.5 72.5zM288 88c41.333 0 77 15 107 45s45 65.667 45 107s-15 77 -45 107s-65.667 45 -107 45s-77 -15 -107 -45s-45 -65.667 -45 -107s15 -77 45 -107s65.667 -45 107 -45z" />
    <glyph glyph-name="oacute" unicode="&#xf3;" horiz-adv-x="576" 
d="M232 544l80 128h112l-128 -128h-64zM288 488c68.667 0 127.167 -24.167 175.5 -72.5s72.5 -106.833 72.5 -175.5s-24.167 -127.167 -72.5 -175.5s-106.833 -72.5 -175.5 -72.5s-127.167 24.167 -175.5 72.5s-72.5 106.833 -72.5 175.5s24.167 127.167 72.5 175.5
s106.833 72.5 175.5 72.5zM288 88c41.333 0 77 15 107 45s45 65.667 45 107s-15 77 -45 107s-65.667 45 -107 45s-77 -15 -107 -45s-45 -65.667 -45 -107s15 -77 45 -107s65.667 -45 107 -45z" />
    <glyph glyph-name="ocircumflex" unicode="&#xf4;" horiz-adv-x="576" 
d="M341 544l-53 52l-53 -52h-99l152 136l152 -136h-99zM288 488c68.667 0 127.167 -24.167 175.5 -72.5s72.5 -106.833 72.5 -175.5s-24.167 -127.167 -72.5 -175.5s-106.833 -72.5 -175.5 -72.5s-127.167 24.167 -175.5 72.5s-72.5 106.833 -72.5 175.5
s24.167 127.167 72.5 175.5s106.833 72.5 175.5 72.5zM288 88c41.333 0 77 15 107 45s45 65.667 45 107s-15 77 -45 107s-65.667 45 -107 45s-77 -15 -107 -45s-45 -65.667 -45 -107s15 -77 45 -107s65.667 -45 107 -45z" />
    <glyph glyph-name="otilde" unicode="&#xf5;" horiz-adv-x="576" 
d="M403 640l60.998 -20.9971c-24.667 -50 -60.667 -75 -108 -75c-17.333 0 -41.333 6 -72 18c-25.333 12 -47.5 17.167 -66.5 15.5s-33.833 -12.834 -44.5 -33.501l-61 23c26.667 48.667 63.334 73 110.001 73c16.667 0 39.334 -5.66699 68.001 -17
c26 -12.667 48.667 -18.334 68 -17.001s34.333 12.666 45 33.999zM287.998 488.003c68.667 0 127.167 -24.167 175.5 -72.5s72.5 -106.833 72.5 -175.5s-24.167 -127.167 -72.5 -175.5s-106.833 -72.5 -175.5 -72.5s-127.167 24.167 -175.5 72.5s-72.5 106.833 -72.5 175.5
s24.167 127.167 72.5 175.5s106.833 72.5 175.5 72.5zM287.998 88.0029c41.333 0 77 15 107 45s45 65.667 45 107s-15 77 -45 107s-65.667 45 -107 45s-77 -15 -107 -45s-45 -65.667 -45 -107s15 -77 45 -107s65.667 -45 107 -45z" />
    <glyph glyph-name="odieresis" unicode="&#xf6;" horiz-adv-x="576" 
d="M200 544c-15.333 0 -28.5 5.5 -39.5 16.5s-16.5 24.167 -16.5 39.5c0 16 5.5 29.333 16.5 40s24.167 16 39.5 16c16 0 29.333 -5.33301 40 -16s16 -24 16 -40c0 -15.333 -5.33301 -28.5 -16 -39.5s-24 -16.5 -40 -16.5zM376 544c-15.333 0 -28.5 5.5 -39.5 16.5
s-16.5 24.167 -16.5 39.5c0 16 5.5 29.333 16.5 40s24.167 16 39.5 16c16 0 29.333 -5.33301 40 -16s16 -24 16 -40c0 -15.333 -5.33301 -28.5 -16 -39.5s-24 -16.5 -40 -16.5zM288 488c68.667 0 127.167 -24.167 175.5 -72.5s72.5 -106.833 72.5 -175.5
s-24.167 -127.167 -72.5 -175.5s-106.833 -72.5 -175.5 -72.5s-127.167 24.167 -175.5 72.5s-72.5 106.833 -72.5 175.5s24.167 127.167 72.5 175.5s106.833 72.5 175.5 72.5zM288 88c41.333 0 77 15 107 45s45 65.667 45 107s-15 77 -45 107s-65.667 45 -107 45
s-77 -15 -107 -45s-45 -65.667 -45 -107s15 -77 45 -107s65.667 -45 107 -45z" />
    <glyph glyph-name="divide" unicode="&#xf7;" horiz-adv-x="480" 
d="M240 416c-20 0 -37 7 -51 21s-21 31 -21 51c0 20.667 7 37.834 21 51.501s31 20.5 51 20.5c20.667 0 37.834 -6.83301 51.501 -20.5s20.5 -30.834 20.5 -51.501c0 -20 -6.83301 -37 -20.5 -51s-30.834 -21 -51.501 -21zM56 336h368v-64h-368v64zM240 48
c-20 0 -37 7 -51 21s-21 31 -21 51c0 20.667 7 37.834 21 51.501s31 20.5 51 20.5c20.667 0 37.834 -6.83301 51.501 -20.5s20.5 -30.834 20.5 -51.501c0 -20 -6.83301 -37 -20.5 -51s-30.834 -21 -51.501 -21z" />
    <glyph glyph-name="oslash" unicode="&#xf8;" horiz-adv-x="576" 
d="M466 413c46.667 -48.667 70 -106.334 70 -173.001c0 -68.667 -24.167 -127.167 -72.5 -175.5s-106.833 -72.5 -175.5 -72.5c-53.333 0 -102 15.667 -146 47l-34 -39h-56l58 67c-46.667 48.667 -70 106.334 -70 173.001c0 68.667 24.167 127.167 72.5 175.5
s106.833 72.5 175.5 72.5c53.333 0 102 -15.667 146 -47l34 39h56zM136 240c0 -38 12.666 -71.333 37.999 -100l196 227c-25.333 16.667 -52.666 25 -81.999 25c-41.333 0 -77 -15 -107 -45s-45 -65.667 -45 -107zM287.999 88c41.333 0 77 15 107 45s45 65.667 45 107
c0 38 -12.667 71.333 -38 100l-196 -227c24.667 -16.667 52 -25 82 -25z" />
    <glyph glyph-name="ugrave" unicode="&#xf9;" horiz-adv-x="560" 
d="M328 544h-64l-128 128h112zM242 -8c-58 0 -103.499 18 -136.499 54s-49.5 88.667 -49.5 158v276h96v-268c0 -40.667 8.16699 -71.5 24.5 -92.5s44.166 -31.5 83.499 -31.5c32 0 62 11.833 90 35.5s42 54.5 42 92.5v264h96v-480h-96v56
c-37.333 -42.667 -87.333 -64 -150 -64z" />
    <glyph glyph-name="uacute" unicode="&#xfa;" horiz-adv-x="560" 
d="M216 544l80 128h112l-128 -128h-64zM242 -8c-58 0 -103.499 18 -136.499 54s-49.5 88.667 -49.5 158v276h96v-268c0 -40.667 8.16699 -71.5 24.5 -92.5s44.166 -31.5 83.499 -31.5c32 0 62 11.833 90 35.5s42 54.5 42 92.5v264h96v-480h-96v56
c-37.333 -42.667 -87.333 -64 -150 -64z" />
    <glyph glyph-name="ucircumflex" unicode="&#xfb;" horiz-adv-x="560" 
d="M325 544l-53 52l-53 -52h-99l152 136l152 -136h-99zM242 -8c-58 0 -103.499 18 -136.499 54s-49.5 88.667 -49.5 158v276h96v-268c0 -40.667 8.16699 -71.5 24.5 -92.5s44.166 -31.5 83.499 -31.5c32 0 62 11.833 90 35.5s42 54.5 42 92.5v264h96v-480h-96v56
c-37.333 -42.667 -87.333 -64 -150 -64z" />
    <glyph glyph-name="udieresis" unicode="&#xfc;" horiz-adv-x="560" 
d="M184 544c-15.333 0 -28.5 5.5 -39.5 16.5s-16.5 24.167 -16.5 39.5c0 16 5.5 29.333 16.5 40s24.167 16 39.5 16c16 0 29.333 -5.33301 40 -16s16 -24 16 -40c0 -15.333 -5.33301 -28.5 -16 -39.5s-24 -16.5 -40 -16.5zM360 544c-15.333 0 -28.5 5.5 -39.5 16.5
s-16.5 24.167 -16.5 39.5c0 16 5.5 29.333 16.5 40s24.167 16 39.5 16c16 0 29.333 -5.33301 40 -16s16 -24 16 -40c0 -15.333 -5.33301 -28.5 -16 -39.5s-24 -16.5 -40 -16.5zM242 -8c-58 0 -103.499 18 -136.499 54s-49.5 88.667 -49.5 158v276h96v-268
c0 -40.667 8.16699 -71.5 24.5 -92.5s44.166 -31.5 83.499 -31.5c32 0 62 11.833 90 35.5s42 54.5 42 92.5v264h96v-480h-96v56c-37.333 -42.667 -87.333 -64 -150 -64z" />
    <glyph glyph-name="yacute" unicode="&#xfd;" horiz-adv-x="512" 
d="M196 544l80 128h112l-128 -128h-64zM397 480h107l-325 -736h-105l128 287l-194 449h107l141 -332z" />
    <glyph glyph-name="thorn" unicode="&#xfe;" 
d="M328 488c69.333 0 126.666 -24 171.999 -72s68 -106.667 68 -176s-22.667 -128 -68 -176s-102.666 -72 -171.999 -72c-66.667 0 -120 26 -160 78v-326h-96v960h96v-294c40 52 93.333 78 160 78zM320 88c42 0 77.833 14.833 107.5 44.5s44.5 65.5 44.5 107.5
s-14.833 77.833 -44.5 107.5s-65.5 44.5 -107.5 44.5s-77.833 -14.833 -107.5 -44.5s-44.5 -65.5 -44.5 -107.5s14.833 -77.833 44.5 -107.5s65.5 -44.5 107.5 -44.5z" />
    <glyph glyph-name="ydieresis" unicode="&#xff;" horiz-adv-x="512" 
d="M168 544c-15.333 0 -28.5 5.5 -39.5 16.5s-16.5 24.167 -16.5 39.5c0 16 5.5 29.333 16.5 40s24.167 16 39.5 16c16 0 29.333 -5.33301 40 -16s16 -24 16 -40c0 -15.333 -5.33301 -28.5 -16 -39.5s-24 -16.5 -40 -16.5zM344 544c-15.333 0 -28.5 5.5 -39.5 16.5
s-16.5 24.167 -16.5 39.5c0 16 5.5 29.333 16.5 40s24.167 16 39.5 16c16 0 29.333 -5.33301 40 -16s16 -24 16 -40c0 -15.333 -5.33301 -28.5 -16 -39.5s-24 -16.5 -40 -16.5zM397 480h107l-325 -736h-105l128 287l-194 449h107l141 -332z" />
    <glyph glyph-name="Amacron" unicode="&#x100;" horiz-adv-x="656" 
d="M464 752h-272v56h272v-56zM544 0l-65 144h-302l-65 -144h-104l320 688l320 -688h-104zM221 240h214l-107 236z" />
    <glyph glyph-name="amacron" unicode="&#x101;" 
d="M456 560h-272v56h272v-56zM440 480h96v-480h-96v70c-40 -52 -93.333 -78 -160 -78c-69.333 0 -126.666 24 -171.999 72s-68 106.667 -68 176s22.667 128 68 176s102.666 72 171.999 72c66.667 0 120 -26 160 -78v70zM288 88c42 0 77.833 14.833 107.5 44.5
s44.5 65.5 44.5 107.5s-14.833 77.833 -44.5 107.5s-65.5 44.5 -107.5 44.5s-77.833 -14.833 -107.5 -44.5s-44.5 -65.5 -44.5 -107.5s14.833 -77.833 44.5 -107.5s65.5 -44.5 107.5 -44.5z" />
    <glyph glyph-name="Abreve" unicode="&#x102;" horiz-adv-x="656" 
d="M400 864h56c0 -35.333 -12.5 -65.5 -37.5 -90.5s-55.167 -37.5 -90.5 -37.5s-65.5 12.5 -90.5 37.5s-37.5 55.167 -37.5 90.5h56c0 -20 7 -37 21 -51s31 -21 51 -21s37 7 51 21s21 31 21 51zM544 0l-65 144h-302l-65 -144h-104l320 688l320 -688h-104zM221 240h214
l-107 236z" />
    <glyph glyph-name="abreve" unicode="&#x103;" 
d="M392 672h56c0 -35.333 -12.5 -65.5 -37.5 -90.5s-55.167 -37.5 -90.5 -37.5s-65.5 12.5 -90.5 37.5s-37.5 55.167 -37.5 90.5h56c0 -20 7 -37 21 -51s31 -21 51 -21s37 7 51 21s21 31 21 51zM440 480h96v-480h-96v70c-40 -52 -93.333 -78 -160 -78
c-69.333 0 -126.666 24 -171.999 72s-68 106.667 -68 176s22.667 128 68 176s102.666 72 171.999 72c66.667 0 120 -26 160 -78v70zM288 88c42 0 77.833 14.833 107.5 44.5s44.5 65.5 44.5 107.5s-14.833 77.833 -44.5 107.5s-65.5 44.5 -107.5 44.5
s-77.833 -14.833 -107.5 -44.5s-44.5 -65.5 -44.5 -107.5s14.833 -77.833 44.5 -107.5s65.5 -44.5 107.5 -44.5z" />
    <glyph glyph-name="Aogonek" unicode="&#x104;" horiz-adv-x="656" 
d="M664 -142l16 -50c-14.667 -10.667 -32.667 -16 -54 -16c-34.667 0 -62.334 11.667 -83.001 35s-31 53 -31 89c0 34.667 10.667 62.667 32 84l-65 144h-302l-65 -144h-104l320 688l320 -688c-20 0 -38.333 -7.5 -55 -22.5s-25 -35.5 -25 -61.5
c0 -30 10.333 -50.333 31 -61s42.334 -9.66699 65.001 3zM221 240h214l-107 236z" />
    <glyph glyph-name="aogonek" unicode="&#x105;" 
d="M552 -142l16 -50.001c-14.667 -10.667 -32.667 -16 -54 -16c-34.667 0 -62.334 11.667 -83.001 35s-31 53 -31 89s13.333 66.667 40 92v62c-40 -52 -93.333 -78 -160 -78c-69.333 0 -126.666 24 -171.999 72s-68 106.667 -68 176s22.667 128 68 176
s102.666 72 171.999 72c66.667 0 120 -26 160 -78v70h96v-480c-18.667 0 -36.667 -8.66699 -54 -26s-26 -36.666 -26 -57.999c0 -30 10.333 -50.333 31 -61s42.334 -9.66699 65.001 3zM288 87.999c42 0 77.833 14.833 107.5 44.5s44.5 65.5 44.5 107.5
s-14.833 77.833 -44.5 107.5s-65.5 44.5 -107.5 44.5s-77.833 -14.833 -107.5 -44.5s-44.5 -65.5 -44.5 -107.5s14.833 -77.833 44.5 -107.5s65.5 -44.5 107.5 -44.5z" />
    <glyph glyph-name="Cacute" unicode="&#x106;" horiz-adv-x="640" 
d="M328 736l80 128h112l-128 -128h-64zM384 88c70 0 128.334 24.332 175.001 72.999l41 -90c-27.333 -25.333 -59.833 -44.833 -97.5 -58.5s-75.167 -20.5 -112.5 -20.5c-96.667 0 -179.167 33.667 -247.5 101s-102.5 148.333 -102.5 243s34.167 175.667 102.5 243
s150.833 101 247.5 101c38 0 75.667 -6.66699 113 -20s69.666 -32.666 96.999 -57.999l-41 -90c-46.667 48 -105 72 -175 72c-68.667 0 -127.167 -24.167 -175.5 -72.5s-72.5 -106.833 -72.5 -175.5s24.167 -127.167 72.5 -175.5s106.833 -72.5 175.5 -72.5z" />
    <glyph glyph-name="cacute" unicode="&#x107;" horiz-adv-x="496" 
d="M232 544l80 128h112l-128 -128h-64zM40 240c0 70.667 23.332 129.667 69.999 177s108.667 71 186 71c66 0 119.333 -18.333 160 -55l-41 -89c-33.333 32 -72.666 48 -117.999 48c-44 0 -81.833 -14.833 -113.5 -44.5s-47.5 -65.167 -47.5 -106.5
c0 -42 15.667 -78 47 -108s69.333 -45 114 -45c46 0 85.333 16.333 118 49l41 -90c-38.667 -36.667 -92 -55 -160 -55c-78 0 -140.167 23.667 -186.5 71s-69.5 106.333 -69.5 177z" />
    <glyph glyph-name="Cdotaccent" unicode="&#x10a;" horiz-adv-x="640" 
d="M384 720c-20 0 -37 7 -51 21s-21 31 -21 51s7 37 21 51s31 21 51 21s37 -7 51 -21s21 -31 21 -51s-7 -37 -21 -51s-31 -21 -51 -21zM384 88c70 0 128.334 24.332 175.001 72.999l41 -90c-27.333 -25.333 -59.833 -44.833 -97.5 -58.5s-75.167 -20.5 -112.5 -20.5
c-96.667 0 -179.167 33.667 -247.5 101s-102.5 148.333 -102.5 243s34.167 175.667 102.5 243s150.833 101 247.5 101c38 0 75.667 -6.66699 113 -20s69.666 -32.666 96.999 -57.999l-41 -90c-46.667 48 -105 72 -175 72c-68.667 0 -127.167 -24.167 -175.5 -72.5
s-72.5 -106.833 -72.5 -175.5s24.167 -127.167 72.5 -175.5s106.833 -72.5 175.5 -72.5z" />
    <glyph glyph-name="cdotaccent" unicode="&#x10b;" horiz-adv-x="496" 
d="M288 528c-20 0 -37 7 -51 21s-21 31 -21 51s7 37 21 51s31 21 51 21s37 -7 51 -21s21 -31 21 -51s-7 -37 -21 -51s-31 -21 -51 -21zM40 240c0 70.667 23.332 129.667 69.999 177s108.667 71 186 71c66 0 119.333 -18.333 160 -55l-41 -89
c-33.333 32 -72.666 48 -117.999 48c-44 0 -81.833 -14.833 -113.5 -44.5s-47.5 -65.167 -47.5 -106.5c0 -42 15.667 -78 47 -108s69.333 -45 114 -45c46 0 85.333 16.333 118 49l41 -90c-38.667 -36.667 -92 -55 -160 -55c-78 0 -140.167 23.667 -186.5 71
s-69.5 106.333 -69.5 177z" />
    <glyph glyph-name="Ccaron" unicode="&#x10c;" horiz-adv-x="640" 
d="M421 864h99l-152 -136l-152 136h99l53 -52zM384 88c70 0 128.334 24.332 175.001 72.999l41 -90c-27.333 -25.333 -59.833 -44.833 -97.5 -58.5s-75.167 -20.5 -112.5 -20.5c-96.667 0 -179.167 33.667 -247.5 101s-102.5 148.333 -102.5 243s34.167 175.667 102.5 243
s150.833 101 247.5 101c38 0 75.667 -6.66699 113 -20s69.666 -32.666 96.999 -57.999l-41 -90c-46.667 48 -105 72 -175 72c-68.667 0 -127.167 -24.167 -175.5 -72.5s-72.5 -106.833 -72.5 -175.5s24.167 -127.167 72.5 -175.5s106.833 -72.5 175.5 -72.5z" />
    <glyph glyph-name="ccaron" unicode="&#x10d;" horiz-adv-x="496" 
d="M341 672h99l-152 -136l-152 136h99l53 -52zM40 240c0 70.667 23.332 129.667 69.999 177s108.667 71 186 71c66 0 119.333 -18.333 160 -55l-41 -89c-33.333 32 -72.666 48 -117.999 48c-44 0 -81.833 -14.833 -113.5 -44.5s-47.5 -65.167 -47.5 -106.5
c0 -42 15.667 -78 47 -108s69.333 -45 114 -45c46 0 85.333 16.333 118 49l41 -90c-38.667 -36.667 -92 -55 -160 -55c-78 0 -140.167 23.667 -186.5 71s-69.5 106.333 -69.5 177z" />
    <glyph glyph-name="Dcaron" unicode="&#x10e;" horiz-adv-x="656" 
d="M349 864h99l-152 -136l-152 136h99l53 -52zM273 672c108 0 192.167 -31.667 252.5 -95s90.5 -143.666 90.5 -240.999c0 -96.667 -30.667 -176.834 -92 -240.501s-145 -95.5 -251 -95.5h-201v672h201zM298 96c64.667 0 117.834 23.1689 159.501 69.502
s62.5 103.166 62.5 170.499s-20.833 124.166 -62.5 170.499s-94.834 69.5 -159.501 69.5h-130v-480h130z" />
    <glyph glyph-name="dcaron" unicode="&#x10f;" horiz-adv-x="736" 
d="M440 704h96v-704h-96v70c-40 -52 -93.333 -78 -160 -78c-69.333 0 -126.666 24 -171.999 72s-68 106.667 -68 176s22.667 128 68 176s102.666 72 171.999 72c66.667 0 120 -26 160 -78v294zM568 544l32 128h96l-80 -128h-48zM288 88c42 0 77.833 14.833 107.5 44.5
s44.5 65.5 44.5 107.5s-14.833 77.833 -44.5 107.5s-65.5 44.5 -107.5 44.5s-77.833 -14.833 -107.5 -44.5s-44.5 -65.5 -44.5 -107.5s14.833 -77.833 44.5 -107.5s65.5 -44.5 107.5 -44.5z" />
    <glyph glyph-name="Dcroat" unicode="&#x110;" horiz-adv-x="672" 
d="M289 672c108 0 192.167 -31.667 252.5 -95s90.5 -143.666 90.5 -240.999c0 -96.667 -30.667 -176.834 -92 -240.501s-145 -95.5 -251 -95.5h-201v304h-64v64h64v304h201zM314 96c64.667 0 117.834 23.1689 159.501 69.502s62.5 103.166 62.5 170.499
s-20.833 124.166 -62.5 170.499s-94.834 69.5 -159.501 69.5h-130v-208h64v-64h-64v-208h130z" />
    <glyph glyph-name="dcroat" unicode="&#x111;" horiz-adv-x="624" 
d="M600 608v-48h-64v-560h-96v70c-40 -52 -93.333 -78 -160 -78c-69.333 0 -126.666 24 -171.999 72s-68 106.667 -68 176s22.667 128 68 176s102.666 72 171.999 72c66.667 0 120 -26 160 -78v150h-64v48h64v96h96v-96h64zM288 88c42 0 77.833 14.833 107.5 44.5
s44.5 65.5 44.5 107.5s-14.833 77.833 -44.5 107.5s-65.5 44.5 -107.5 44.5s-77.833 -14.833 -107.5 -44.5s-44.5 -65.5 -44.5 -107.5s14.833 -77.833 44.5 -107.5s65.5 -44.5 107.5 -44.5z" />
    <glyph glyph-name="Emacron" unicode="&#x112;" horiz-adv-x="512" 
d="M392 752h-272v56h272v-56zM456 576h-288v-192h240v-96h-240v-192h288v-96h-384v672h384v-96z" />
    <glyph glyph-name="emacron" unicode="&#x113;" horiz-adv-x="544" 
d="M408 560h-272v56h272v-56zM504 238c0 -14.667 -0.99707 -28.667 -2.99707 -42h-363c7.33301 -36 25.166 -63 53.499 -81s62.5 -27 102.5 -27c52 0 100.667 16 146 48l32 -86c-46 -38.667 -106 -58 -180 -58c-80.667 0 -142.834 23.5 -186.501 70.5
s-65.5 106.167 -65.5 177.5c0 70.667 21.833 129.667 65.5 177s101.5 71 173.5 71c65.333 0 119.166 -22.667 161.499 -68s63.5 -106 63.5 -182zM138.003 284l268.001 0.00195312c-1.33301 27.333 -13 52.166 -35 74.499s-54 33.5 -96 33.5
c-40.667 0 -73.334 -11.333 -98.001 -34s-37.667 -47.334 -39 -74.001z" />
    <glyph glyph-name="Edotaccent" unicode="&#x116;" horiz-adv-x="512" 
d="M256 720c-20 0 -37 7 -51 21s-21 31 -21 51s7 37 21 51s31 21 51 21s37 -7 51 -21s21 -31 21 -51s-7 -37 -21 -51s-31 -21 -51 -21zM456 576h-288v-192h240v-96h-240v-192h288v-96h-384v672h384v-96z" />
    <glyph glyph-name="edotaccent" unicode="&#x117;" horiz-adv-x="544" 
d="M278 528c-20 0 -37 7 -51 21s-21 31 -21 51s7 37 21 51s31 21 51 21s37 -7 51 -21s21 -31 21 -51s-7 -37 -21 -51s-31 -21 -51 -21zM504 238c0 -14.667 -0.99707 -28.667 -2.99707 -42h-363c7.33301 -36 25.166 -63 53.499 -81s62.5 -27 102.5 -27
c52 0 100.667 16 146 48l32 -86c-46 -38.667 -106 -58 -180 -58c-80.667 0 -142.834 23.5 -186.501 70.5s-65.5 106.167 -65.5 177.5c0 70.667 21.833 129.667 65.5 177s101.5 71 173.5 71c65.333 0 119.166 -22.667 161.499 -68s63.5 -106 63.5 -182zM138.003 284
l268.001 0.00195312c-1.33301 27.333 -13 52.166 -35 74.499s-54 33.5 -96 33.5c-40.667 0 -73.334 -11.333 -98.001 -34s-37.667 -47.334 -39 -74.001z" />
    <glyph glyph-name="Eogonek" unicode="&#x118;" horiz-adv-x="512" 
d="M472 -142l16 -50c-14.667 -10.667 -32.667 -16 -54 -16c-34.667 0 -62.334 11.667 -83.001 35s-31 53 -31 89c0 34.667 10.667 62.667 32 84h-280v672h384v-96h-288v-192h240v-96h-240v-192h288v-96c-20 0 -38.333 -7.5 -55 -22.5s-25 -35.5 -25 -61.5
c0 -30 10.333 -50.333 31 -61s42.334 -9.66699 65.001 3z" />
    <glyph glyph-name="eogonek" unicode="&#x119;" horiz-adv-x="544" 
d="M504 238c0 -14.667 -0.99707 -28.666 -2.99707 -41.999h-363c7.33301 -36 25.166 -63 53.499 -81s62.5 -27 102.5 -27c52 0 100.667 16 146 48l32 -86c-35.333 -28.667 -80.333 -47 -135 -55c-16.667 -2.66699 -30.334 -11.834 -41.001 -27.501s-16 -32.834 -16 -51.501
c0 -30 10.333 -50.333 31 -61s42.334 -9.66699 65.001 3l16 -50c-14.667 -10.667 -32.667 -16 -54 -16c-34.667 0 -62.334 11.667 -83.001 35s-31 53 -31 89c0 30 9 56 27 78c-68 8 -120.167 34.833 -156.5 80.5s-54.5 100.834 -54.5 165.501
c0 70.667 21.833 129.667 65.5 177s101.5 71 173.5 71c65.333 0 119.166 -22.667 161.499 -68s63.5 -106 63.5 -182zM138.003 284.001l268.001 0.00195312c-1.33301 27.333 -13 52.166 -35 74.499s-54 33.5 -96 33.5c-40.667 0 -73.334 -11.333 -98.001 -34
s-37.667 -47.334 -39 -74.001z" />
    <glyph glyph-name="Ecaron" unicode="&#x11a;" horiz-adv-x="512" 
d="M309 864h99l-152 -136l-152 136h99l53 -52zM456 576h-288v-192h240v-96h-240v-192h288v-96h-384v672h384v-96z" />
    <glyph glyph-name="ecaron" unicode="&#x11b;" horiz-adv-x="544" 
d="M325 672h99l-152 -136l-152 136h99l53 -52zM504 238c0 -14.667 -0.99707 -28.667 -2.99707 -42h-363c7.33301 -36 25.166 -63 53.499 -81s62.5 -27 102.5 -27c52 0 100.667 16 146 48l32 -86c-46 -38.667 -106 -58 -180 -58c-80.667 0 -142.834 23.5 -186.501 70.5
s-65.5 106.167 -65.5 177.5c0 70.667 21.833 129.667 65.5 177s101.5 71 173.5 71c65.333 0 119.166 -22.667 161.499 -68s63.5 -106 63.5 -182zM138.003 284l268.001 0.00195312c-1.33301 27.333 -13 52.166 -35 74.499s-54 33.5 -96 33.5
c-40.667 0 -73.334 -11.333 -98.001 -34s-37.667 -47.334 -39 -74.001z" />
    <glyph glyph-name="Gbreve" unicode="&#x11e;" horiz-adv-x="752" 
d="M448 864h56c0 -35.333 -12.5 -65.5 -37.5 -90.5s-55.167 -37.5 -90.5 -37.5s-65.5 12.5 -90.5 37.5s-37.5 55.167 -37.5 90.5h56c0 -20 7 -37 21 -51s31 -21 51 -21s37 7 51 21s21 31 21 51zM710 367c1.33301 -12 2.00098 -22.334 2.00098 -31.001
c0 -96 -31.167 -177.333 -93.5 -244s-140.5 -100 -234.5 -100c-94.667 0 -175.667 33.667 -243 101s-101 148.333 -101 243s33.667 175.667 101 243s148.333 101 243 101c66 0 124.667 -16.833 176 -50.5s91.666 -79.5 120.999 -137.5l-97 -28
c-19.333 36.667 -46.5 65.834 -81.5 87.501s-74.5 32.5 -118.5 32.5c-68.667 0 -127.167 -24.167 -175.5 -72.5s-72.5 -106.833 -72.5 -175.5s24.167 -127.167 72.5 -175.5s106.833 -72.5 175.5 -72.5c59.333 0 109 17.167 149 51.5s65.667 78.5 77 132.5h-250v96z" />
    <glyph glyph-name="gbreve" unicode="&#x11f;" 
d="M392 672h56c0 -35.333 -12.5 -65.5 -37.5 -90.5s-55.167 -37.5 -90.5 -37.5s-65.5 12.5 -90.5 37.5s-37.5 55.167 -37.5 90.5h56c0 -20 7 -37 21 -51s31 -21 51 -21s37 7 51 21s21 31 21 51zM440 480l96 -0.000976562v-450c0 -97.333 -22.833 -170.666 -68.5 -219.999
s-108.167 -74 -187.5 -74c-80 0 -154.667 26.667 -224 80l48 86c18.667 -14 34 -25 46 -33s30.167 -16.167 54.5 -24.5s49.5 -12.5 75.5 -12.5c50 0 89.167 16 117.5 48s42.5 77.333 42.5 136v54c-40 -52 -93.333 -78 -160 -78c-69.333 0 -126.666 24 -171.999 72
s-68 106.667 -68 176s22.667 128 68 176s102.666 72 171.999 72c66.667 0 120 -26 160 -78v70zM288 87.999c42 0 77.833 14.833 107.5 44.5s44.5 65.5 44.5 107.5s-14.833 77.833 -44.5 107.5s-65.5 44.5 -107.5 44.5s-77.833 -14.833 -107.5 -44.5
s-44.5 -65.5 -44.5 -107.5s14.833 -77.833 44.5 -107.5s65.5 -44.5 107.5 -44.5z" />
    <glyph glyph-name="Gdotaccent" unicode="&#x120;" horiz-adv-x="752" 
d="M376 720c-20 0 -37 7 -51 21s-21 31 -21 51s7 37 21 51s31 21 51 21s37 -7 51 -21s21 -31 21 -51s-7 -37 -21 -51s-31 -21 -51 -21zM710 367c1.33301 -12 2.00098 -22.334 2.00098 -31.001c0 -96 -31.167 -177.333 -93.5 -244s-140.5 -100 -234.5 -100
c-94.667 0 -175.667 33.667 -243 101s-101 148.333 -101 243s33.667 175.667 101 243s148.333 101 243 101c66 0 124.667 -16.833 176 -50.5s91.666 -79.5 120.999 -137.5l-97 -28c-19.333 36.667 -46.5 65.834 -81.5 87.501s-74.5 32.5 -118.5 32.5
c-68.667 0 -127.167 -24.167 -175.5 -72.5s-72.5 -106.833 -72.5 -175.5s24.167 -127.167 72.5 -175.5s106.833 -72.5 175.5 -72.5c59.333 0 109 17.167 149 51.5s65.667 78.5 77 132.5h-250v96z" />
    <glyph glyph-name="gdotaccent" unicode="&#x121;" 
d="M304 528c-20 0 -37 7 -51 21s-21 31 -21 51s7 37 21 51s31 21 51 21s37 -7 51 -21s21 -31 21 -51s-7 -37 -21 -51s-31 -21 -51 -21zM440 480l96 -0.000976562v-450c0 -97.333 -22.833 -170.666 -68.5 -219.999s-108.167 -74 -187.5 -74c-80 0 -154.667 26.667 -224 80
l48 86c18.667 -14 34 -25 46 -33s30.167 -16.167 54.5 -24.5s49.5 -12.5 75.5 -12.5c50 0 89.167 16 117.5 48s42.5 77.333 42.5 136v54c-40 -52 -93.333 -78 -160 -78c-69.333 0 -126.666 24 -171.999 72s-68 106.667 -68 176s22.667 128 68 176s102.666 72 171.999 72
c66.667 0 120 -26 160 -78v70zM288 87.999c42 0 77.833 14.833 107.5 44.5s44.5 65.5 44.5 107.5s-14.833 77.833 -44.5 107.5s-65.5 44.5 -107.5 44.5s-77.833 -14.833 -107.5 -44.5s-44.5 -65.5 -44.5 -107.5s14.833 -77.833 44.5 -107.5s65.5 -44.5 107.5 -44.5z" />
    <glyph glyph-name="Gcommaaccent" unicode="&#x122;" horiz-adv-x="752" 
d="M710 367c1.33301 -12 2.00098 -22.334 2.00098 -31.001c0 -96 -31.167 -177.333 -93.5 -244s-140.5 -100 -234.5 -100c-94.667 0 -175.667 33.667 -243 101s-101 148.333 -101 243s33.667 175.667 101 243s148.333 101 243 101c66 0 124.667 -16.833 176 -50.5
s91.666 -79.5 120.999 -137.5l-97 -28c-19.333 36.667 -46.5 65.834 -81.5 87.501s-74.5 32.5 -118.5 32.5c-68.667 0 -127.167 -24.167 -175.5 -72.5s-72.5 -106.833 -72.5 -175.5s24.167 -127.167 72.5 -175.5s106.833 -72.5 175.5 -72.5c59.333 0 109 17.167 149 51.5
s65.667 78.5 77 132.5h-250v96zM304.001 -192.001l32 128h96l-80 -128h-48z" />
    <glyph glyph-name="gcommaaccent" unicode="&#x123;" 
d="M400 672l-32 -128h-96l80 128h48zM440 480l96 -0.000976562v-450c0 -97.333 -22.833 -170.666 -68.5 -219.999s-108.167 -74 -187.5 -74c-80 0 -154.667 26.667 -224 80l48 86c18.667 -14 34 -25 46 -33s30.167 -16.167 54.5 -24.5s49.5 -12.5 75.5 -12.5
c50 0 89.167 16 117.5 48s42.5 77.333 42.5 136v54c-40 -52 -93.333 -78 -160 -78c-69.333 0 -126.666 24 -171.999 72s-68 106.667 -68 176s22.667 128 68 176s102.666 72 171.999 72c66.667 0 120 -26 160 -78v70zM288 87.999c42 0 77.833 14.833 107.5 44.5
s44.5 65.5 44.5 107.5s-14.833 77.833 -44.5 107.5s-65.5 44.5 -107.5 44.5s-77.833 -14.833 -107.5 -44.5s-44.5 -65.5 -44.5 -107.5s14.833 -77.833 44.5 -107.5s65.5 -44.5 107.5 -44.5z" />
    <glyph glyph-name="Hbar" unicode="&#x126;" horiz-adv-x="656" 
d="M632 576v-48h-48v-528h-96v288h-320v-288h-96v528h-48v48h48v96h96v-96h320v96h96v-96h48zM488 384v144h-320v-144h320z" />
    <glyph glyph-name="hbar" unicode="&#x127;" horiz-adv-x="576" 
d="M334 488c60.667 0 106.832 -18.833 138.499 -56.5s47.5 -92.167 47.5 -163.5v-268h-96v268c0 40.667 -8.16699 71.5 -24.5 92.5s-44.166 31.5 -83.499 31.5c-32 0 -62 -11.833 -90 -35.5s-42 -54.5 -42 -92.5v-264h-96v560h-64v48h64v96h96v-96h64v-48h-64v-136
c37.333 42.667 87.333 64 150 64z" />
    <glyph glyph-name="Imacron" unicode="&#x12a;" horiz-adv-x="240" 
d="M256 752h-272v56h272v-56zM168 0h-96v672h96v-672z" />
    <glyph glyph-name="imacron" unicode="&#x12b;" horiz-adv-x="240" 
d="M256 560h-272v56h272v-56zM72 0v480h96v-480h-96z" />
    <glyph glyph-name="Iogonek" unicode="&#x12e;" horiz-adv-x="240" 
d="M184 -142l16 -50.001c-14.667 -10.667 -32.667 -16 -54 -16c-34.667 0 -62.334 11.667 -83.001 35s-31 53 -31 89s13.333 66.667 40 92v664h96v-672c-18.667 0 -36.667 -8.66699 -54 -26s-26 -36.666 -26 -57.999c0 -30 10.333 -50.333 31 -61s42.334 -9.66699 65.001 3z
" />
    <glyph glyph-name="iogonek" unicode="&#x12f;" horiz-adv-x="240" 
d="M120 560c-20 0 -37 7 -51 21s-21 31 -21 51s7 37 21 51s31 21 51 21s37 -7 51 -21s21 -31 21 -51s-7 -37 -21 -51s-31 -21 -51 -21zM184 -142l16 -50.001c-14.667 -10.667 -32.667 -16 -54 -16c-34.667 0 -62.334 11.667 -83.001 35s-31 53 -31 89s13.333 66.667 40 92
v472h96v-480c-18.667 0 -36.667 -8.66699 -54 -26s-26 -36.666 -26 -57.999c0 -30 10.333 -50.333 31 -61s42.334 -9.66699 65.001 3z" />
    <glyph glyph-name="Idotaccent" unicode="&#x130;" horiz-adv-x="240" 
d="M120 720c-20 0 -37 7 -51 21s-21 31 -21 51s7 37 21 51s31 21 51 21s37 -7 51 -21s21 -31 21 -51s-7 -37 -21 -51s-31 -21 -51 -21zM168 0h-96v672h96v-672z" />
    <glyph glyph-name="dotlessi" unicode="&#x131;" horiz-adv-x="240" 
d="M72 0v480h96v-480h-96z" />
    <glyph glyph-name="IJ" unicode="&#x132;" horiz-adv-x="704" 
d="M168 0h-96v672h96v-672zM552 672h96.001v-416c0 -88 -20.333 -154 -61 -198s-95 -66 -163 -66c-28 0 -55.833 6.33301 -83.5 19s-47.834 27 -60.501 43l48 82c22 -32 54 -48 96 -48c43.333 0 75.5 14.167 96.5 42.5s31.5 67.5 31.5 117.5v424z" />
    <glyph glyph-name="ij" unicode="&#x133;" horiz-adv-x="480" 
d="M120 560c-20 0 -37 7 -51 21s-21 31 -21 51s7 37 21 51s31 21 51 21s37 -7 51 -21s21 -31 21 -51s-7 -37 -21 -51s-31 -21 -51 -21zM360 560c-20 0 -37 7 -51 21s-21 31 -21 51s7 37 21 51s31 21 51 21s37 -7 51 -21s21 -31 21 -51s-7 -37 -21 -51s-31 -21 -51 -21zM72 0
v480h96v-480h-96zM312 -32l0.00195312 512.001h96v-498c0 -30 -2.33301 -57.167 -7 -81.5s-10.334 -44.5 -17.001 -60.5s-15.667 -30.333 -27 -43s-21.5 -22.334 -30.5 -29.001s-20.333 -12.5 -34 -17.5s-24.334 -8.16699 -32.001 -9.5l-28.5 -5l-24 88
c32.667 6.66699 58.167 20.667 76.5 42s27.5 55.333 27.5 102z" />
    <glyph glyph-name="Kcommaaccent" unicode="&#x136;" horiz-adv-x="592" 
d="M256 343l312 -343h-128l-272 296v-296h-96v672h96v-296l256 296h128zM200 -192l32 128h96l-80 -128h-48z" />
    <glyph glyph-name="kcommaaccent" unicode="&#x137;" horiz-adv-x="512" 
d="M248 248l256 -248h-128l-208 204v-204h-96v704h96v-420l192 196h128zM176 -192l32 128h96l-80 -128h-48z" />
    <glyph glyph-name="Lacute" unicode="&#x139;" horiz-adv-x="480" 
d="M72 736l80 128h112l-128 -128h-64zM168 96h272v-96h-368v672h96v-576z" />
    <glyph glyph-name="lacute" unicode="&#x13a;" horiz-adv-x="240" 
d="M72 768l80 128h112l-128 -128h-64zM72 704h96v-704h-96v704z" />
    <glyph glyph-name="Lcommaaccent" unicode="&#x13b;" horiz-adv-x="480" 
d="M168 96h272v-96h-368v672h96v-576zM168 -192l32 128h96l-80 -128h-48z" />
    <glyph glyph-name="lcommaaccent" unicode="&#x13c;" horiz-adv-x="240" 
d="M72 704h96v-704h-96v704zM40 -192l32 128h96l-80 -128h-48z" />
    <glyph glyph-name="Lcaron" unicode="&#x13d;" horiz-adv-x="496" 
d="M168 96h272v-96h-368v672h96v-576zM312 544l32 128h96l-80 -128h-48z" />
    <glyph glyph-name="lcaron" unicode="&#x13e;" horiz-adv-x="352" 
d="M72 704h96v-704h-96v704zM200 544l32 128h96l-80 -128h-48z" />
    <glyph glyph-name="Ldot" unicode="&#x13f;" horiz-adv-x="496" 
d="M168 96h272v-96h-368v672h96v-576zM384 304c-20 0 -37 7 -51 21s-21 31 -21 51c0 20.667 7 37.834 21 51.501s31 20.5 51 20.5c20.667 0 37.834 -6.83301 51.501 -20.5s20.5 -30.834 20.5 -51.501c0 -20 -6.83301 -37 -20.5 -51s-30.834 -21 -51.501 -21z" />
    <glyph glyph-name="ldot" unicode="&#x140;" horiz-adv-x="384" 
d="M72 704h96v-704h-96v704zM288 304c-20.667 0 -37.834 7 -51.501 21s-20.5 31 -20.5 51c0 20.667 6.83301 37.834 20.5 51.501s30.834 20.5 51.501 20.5s37.834 -6.83301 51.501 -20.5s20.5 -30.834 20.5 -51.501c0 -20 -6.83301 -37 -20.5 -51s-30.834 -21 -51.501 -21z
" />
    <glyph glyph-name="Lslash" unicode="&#x141;" horiz-adv-x="496" 
d="M184 96h272v-96h-368v306l-64 -18v48l64 18v318h96v-292l64 18v-48l-64 -18v-236z" />
    <glyph glyph-name="lslash" unicode="&#x142;" horiz-adv-x="272" 
d="M248 398v-48l-64 -18v-332h-96v306l-64 -18v48l64 18v350h96v-324z" />
    <glyph glyph-name="Nacute" unicode="&#x143;" horiz-adv-x="704" 
d="M280 736l80 128h112l-128 -128h-64zM632 -16l-464 476v-460h-96v688l464 -476v460h96v-688z" />
    <glyph glyph-name="nacute" unicode="&#x144;" horiz-adv-x="560" 
d="M208 544l80 128h112l-128 -128h-64zM318 488c58 0 103.499 -18 136.499 -54s49.5 -88.667 49.5 -158v-276h-96v268c0 40.667 -8.16699 71.5 -24.5 92.5s-44.166 31.5 -83.499 31.5c-32 0 -62 -11.833 -90 -35.5s-42 -54.5 -42 -92.5v-264h-96v480h96v-56
c37.333 42.667 87.333 64 150 64z" />
    <glyph glyph-name="Ncommaaccent" unicode="&#x145;" horiz-adv-x="704" 
d="M632 -16l-464 476v-460h-96v688l464 -476v460h96v-688zM272 -192l32 128h96l-80 -128h-48z" />
    <glyph glyph-name="ncommaaccent" unicode="&#x146;" horiz-adv-x="560" 
d="M318 488c58 0 103.499 -18 136.499 -54s49.5 -88.667 49.5 -158v-276h-96v268c0 40.667 -8.16699 71.5 -24.5 92.5s-44.166 31.5 -83.499 31.5c-32 0 -62 -11.833 -90 -35.5s-42 -54.5 -42 -92.5v-264h-96v480h96v-56c37.333 42.667 87.333 64 150 64zM199.999 -192
l32 128h96l-80 -128h-48z" />
    <glyph glyph-name="Ncaron" unicode="&#x147;" horiz-adv-x="704" 
d="M405 864h99l-152 -136l-152 136h99l53 -52zM632 -16l-464 476v-460h-96v688l464 -476v460h96v-688z" />
    <glyph glyph-name="ncaron" unicode="&#x148;" horiz-adv-x="560" 
d="M319 672h99l-152 -136l-152 136h99l53 -52zM318 488c58 0 103.499 -18 136.499 -54s49.5 -88.667 49.5 -158v-276h-96v268c0 40.667 -8.16699 71.5 -24.5 92.5s-44.166 31.5 -83.499 31.5c-32 0 -62 -11.833 -90 -35.5s-42 -54.5 -42 -92.5v-264h-96v480h96v-56
c37.333 42.667 87.333 64 150 64z" />
    <glyph glyph-name="Eng" unicode="&#x14a;" horiz-adv-x="704" 
d="M536 672l96.002 0.000976562v-690c0 -30 -2.33301 -57.167 -7 -81.5s-10.334 -44.5 -17.001 -60.5s-15.667 -30.333 -27 -43s-21.5 -22.334 -30.5 -29.001s-20.333 -12.5 -34 -17.5s-24.334 -8.16699 -32.001 -9.5l-28.5 -5l-24 88c32.667 6.66699 58.167 20.667 76.5 42
s27.5 55.333 27.5 102v114l-368 378v-460h-96v688l464 -476v460z" />
    <glyph glyph-name="eng" unicode="&#x14b;" horiz-adv-x="560" 
d="M318 488c58 0 103.501 -17.999 136.501 -53.999s49.5 -88.667 49.5 -158v-294c0 -30 -2.33301 -57.167 -7 -81.5s-10.334 -44.5 -17.001 -60.5s-15.667 -30.333 -27 -43s-21.5 -22.334 -30.5 -29.001s-20.333 -12.5 -34 -17.5s-24.334 -8.16699 -32.001 -9.5l-28.5 -5
l-24 88c32.667 6.66699 58.167 20.667 76.5 42s27.5 55.333 27.5 102v300c0 40.667 -8.16699 71.5 -24.5 92.5s-44.166 31.5 -83.499 31.5c-32 0 -62 -11.833 -90 -35.5s-42 -54.5 -42 -92.5v-264h-96v480h96v-56c37.333 42.667 87.333 64 150 64z" />
    <glyph glyph-name="Omacron" unicode="&#x14c;" horiz-adv-x="768" 
d="M520 752h-272v56h272v-56zM384 680c94.667 0 175.667 -33.667 243 -101s101 -148.333 101 -243s-33.667 -175.667 -101 -243s-148.333 -101 -243 -101s-175.667 33.667 -243 101s-101 148.333 -101 243s33.667 175.667 101 243s148.333 101 243 101zM384 88
c69.333 0 128 24 176 72s72 106.667 72 176s-24 128 -72 176s-106.667 72 -176 72s-128 -24 -176 -72s-72 -106.667 -72 -176s24 -128 72 -176s106.667 -72 176 -72z" />
    <glyph glyph-name="omacron" unicode="&#x14d;" horiz-adv-x="576" 
d="M424 560h-272v56h272v-56zM288 488c68.667 0 127.167 -24.167 175.5 -72.5s72.5 -106.833 72.5 -175.5s-24.167 -127.167 -72.5 -175.5s-106.833 -72.5 -175.5 -72.5s-127.167 24.167 -175.5 72.5s-72.5 106.833 -72.5 175.5s24.167 127.167 72.5 175.5
s106.833 72.5 175.5 72.5zM288 88c41.333 0 77 15 107 45s45 65.667 45 107s-15 77 -45 107s-65.667 45 -107 45s-77 -15 -107 -45s-45 -65.667 -45 -107s15 -77 45 -107s65.667 -45 107 -45z" />
    <glyph glyph-name="Ohungarumlaut" unicode="&#x150;" horiz-adv-x="768" 
d="M240 736l32 128h104l-80 -128h-56zM464 736l32 128h104l-80 -128h-56zM384 680c94.667 0 175.667 -33.667 243 -101s101 -148.333 101 -243s-33.667 -175.667 -101 -243s-148.333 -101 -243 -101s-175.667 33.667 -243 101s-101 148.333 -101 243s33.667 175.667 101 243
s148.333 101 243 101zM384 88c69.333 0 128 24 176 72s72 106.667 72 176s-24 128 -72 176s-106.667 72 -176 72s-128 -24 -176 -72s-72 -106.667 -72 -176s24 -128 72 -176s106.667 -72 176 -72z" />
    <glyph glyph-name="ohungarumlaut" unicode="&#x151;" horiz-adv-x="576" 
d="M144 544l32 128h104l-80 -128h-56zM368 544l32 128h104l-80 -128h-56zM288 488c68.667 0 127.167 -24.167 175.5 -72.5s72.5 -106.833 72.5 -175.5s-24.167 -127.167 -72.5 -175.5s-106.833 -72.5 -175.5 -72.5s-127.167 24.167 -175.5 72.5s-72.5 106.833 -72.5 175.5
s24.167 127.167 72.5 175.5s106.833 72.5 175.5 72.5zM288 88c41.333 0 77 15 107 45s45 65.667 45 107s-15 77 -45 107s-65.667 45 -107 45s-77 -15 -107 -45s-45 -65.667 -45 -107s15 -77 45 -107s65.667 -45 107 -45z" />
    <glyph glyph-name="OE" unicode="&#x152;" horiz-adv-x="1072" 
d="M1016 576h-288v-192h240v-96h-240v-192h288v-96h-384v98c-68.667 -70.667 -151.334 -106 -248.001 -106c-94.667 0 -175.667 33.667 -243 101s-101 148.333 -101 243s33.667 175.667 101 243s148.333 101 243 101c96.667 0 179.334 -35.333 248.001 -106v98h384v-96z
M384 88c69.333 0 128 24 176 72s72 106.667 72 176s-24 128 -72 176s-106.667 72 -176 72s-128 -24 -176 -72s-72 -106.667 -72 -176s24 -128 72 -176s106.667 -72 176 -72z" />
    <glyph glyph-name="oe" unicode="&#x153;" horiz-adv-x="944" 
d="M904 238c0 -14.667 -1.00098 -28.668 -3.00098 -42.001h-363c7.33301 -36 25.166 -63 53.499 -81s62.5 -27 102.5 -27c52 0 100.667 16 146 48l32 -86c-46 -38.667 -106 -58 -180 -58c-93.333 0 -162.666 32 -207.999 96c-23.333 -29.333 -52 -52.666 -86 -69.999
s-70.667 -26 -110 -26c-68.667 0 -127.167 24.167 -175.5 72.5s-72.5 106.833 -72.5 175.5s24.167 127.167 72.5 175.5s106.833 72.5 175.5 72.5c80.667 0 146.334 -32.333 197.001 -97c44.667 64.667 109.334 97 194.001 97c65.333 0 119.166 -22.667 161.499 -68
s63.5 -106 63.5 -182zM287.999 87.999c41.333 0 77 15 107 45s45 65.667 45 107s-15 77 -45 107s-65.667 45 -107 45s-77 -15 -107 -45s-45 -65.667 -45 -107s15 -77 45 -107s65.667 -45 107 -45zM537.999 283.999l268.001 0.00195312
c-1.33301 27.333 -13 52.166 -35 74.499s-54 33.5 -96 33.5c-40.667 0 -73.334 -11.333 -98.001 -34s-37.667 -47.334 -39 -74.001z" />
    <glyph glyph-name="Racute" unicode="&#x154;" horiz-adv-x="592" 
d="M200 736l80 128h112l-128 -128h-64zM552 0h-112l-167 232h-105v-232h-96v672h208c84.667 0 148.5 -19.333 191.5 -58s64.5 -91 64.5 -157c0 -52.667 -13.833 -98.5 -41.5 -137.5s-66.167 -65.167 -115.5 -78.5zM168 576v-247.999h143c38 0 69 10.167 93 30.5
s36 51.166 36 92.499c0 42 -11.833 73.333 -35.5 94s-54.167 31 -91.5 31h-145z" />
    <glyph glyph-name="racute" unicode="&#x155;" horiz-adv-x="400" 
d="M112 544l80 128h112l-128 -128h-64zM168 377c16.667 34.667 41.667 61.832 75 81.499s72.333 29.5 117 29.5v-105c-28 8.66699 -57.333 7.33398 -88 -3.99902c-69.333 -26.667 -104 -81.667 -104 -165v-214h-96v480h96v-103z" />
    <glyph glyph-name="Rcommaaccent" unicode="&#x156;" horiz-adv-x="592" 
d="M552 0h-112l-167 232h-105v-232h-96v672h208c84.667 0 148.5 -19.333 191.5 -58s64.5 -91 64.5 -157c0 -52.667 -13.833 -98.5 -41.5 -137.5s-66.167 -65.167 -115.5 -78.5zM168 576v-247.999h143c38 0 69 10.167 93 30.5s36 51.166 36 92.499
c0 42 -11.833 73.333 -35.5 94s-54.167 31 -91.5 31h-145zM200 -191.999l32 128h96l-80 -128h-48z" />
    <glyph glyph-name="rcommaaccent" unicode="&#x157;" horiz-adv-x="400" 
d="M168 377c16.667 34.667 41.667 61.832 75 81.499s72.333 29.5 117 29.5v-105c-28 8.66699 -57.333 7.33398 -88 -3.99902c-69.333 -26.667 -104 -81.667 -104 -165v-214h-96v480h96v-103zM48 -192.002l32 128h96l-80 -128h-48z" />
    <glyph glyph-name="Rcaron" unicode="&#x158;" horiz-adv-x="592" 
d="M317 864h99l-152 -136l-152 136h99l53 -52zM552 0h-112l-167 232h-105v-232h-96v672h208c84.667 0 148.5 -19.333 191.5 -58s64.5 -91 64.5 -157c0 -52.667 -13.833 -98.5 -41.5 -137.5s-66.167 -65.167 -115.5 -78.5zM168 576v-247.999h143c38 0 69 10.167 93 30.5
s36 51.166 36 92.499c0 42 -11.833 73.333 -35.5 94s-54.167 31 -91.5 31h-145z" />
    <glyph glyph-name="rcaron" unicode="&#x159;" horiz-adv-x="400" 
d="M261 672h99l-152 -136l-152 136h99l53 -52zM168 377c16.667 34.667 41.667 61.832 75 81.499s72.333 29.5 117 29.5v-105c-28 8.66699 -57.333 7.33398 -88 -3.99902c-69.333 -26.667 -104 -81.667 -104 -165v-214h-96v480h96v-103z" />
    <glyph glyph-name="Sacute" unicode="&#x15a;" horiz-adv-x="592" 
d="M248 736l80 128h112l-128 -128h-64zM311 392c83.333 -16 144.336 -38.8379 183.003 -68.5049s58 -71.834 58 -126.501c0 -60 -23 -109.167 -69 -147.5s-107.667 -57.5 -185 -57.5c-37.333 0 -72.5 4.83301 -105.5 14.5s-60.333 21.834 -82 36.501
s-37.5 26.334 -47.5 35.001s-17.667 16.334 -23 23.001l48 86c59.333 -66 130 -99 212 -99c50 0 88.5 9.33301 115.5 28s40.5 44.334 40.5 77.001c0 50.667 -51 85 -153 103c-88.667 15.333 -150.834 38.5 -186.501 69.5s-53.5 70.833 -53.5 119.5
c0 56.667 21.333 103.334 64 140.001s102 55 178 55c87.333 0 159.666 -26.667 216.999 -80l-46 -87c-48.667 47.333 -106.334 71 -173.001 71c-46 0 -81.5 -8.33301 -106.5 -25s-37.5 -40 -37.5 -70c0 -25.333 11.667 -45.166 35 -59.499s62.333 -26.833 117 -37.5z" />
    <glyph glyph-name="sacute" unicode="&#x15b;" horiz-adv-x="480" 
d="M184 544l80 128h112l-128 -128h-64zM265 296c116.667 -22.667 174.999 -71.3301 174.999 -145.997c0 -48.667 -16.667 -87.167 -50 -115.5s-80.666 -42.5 -141.999 -42.5c-46.667 0 -89.167 7.66699 -127.5 23s-65.166 30.333 -80.499 45l38 94
c18.667 -18.667 44.167 -34.167 76.5 -46.5s62.5 -18.833 90.5 -19.5c30 -0.666992 54 4 72 14s27 22.333 27 37c0 16.667 -7.66699 29.5 -23 38.5s-39 16.5 -71 22.5c-74.667 13.333 -125.667 31.666 -153 54.999s-41 55.333 -41 96s17.833 73.667 53.5 99
s82.834 38 141.501 38c59.333 0 117.333 -15.333 174 -46l-33 -90c-12.667 9.33301 -32.5 18.166 -59.5 26.499s-54.167 12.833 -81.5 13.5s-50.666 -2.33301 -69.999 -9s-29 -17.667 -29 -33c0 -8 2.5 -14.833 7.5 -20.5s12.667 -10.334 23 -14.001
s20.166 -6.66699 29.499 -9s21.666 -4.83301 36.999 -7.5c7.33301 -1.33301 12.666 -2.33301 15.999 -3z" />
    <glyph glyph-name="Scedilla" unicode="&#x15e;" horiz-adv-x="592" 
d="M552 197c0 -54.667 -19.8311 -100.834 -59.498 -138.501s-93.167 -59.5 -160.5 -65.5l-39 -41c37.333 8.66699 69.833 1.66699 97.5 -21s41.5 -53 41.5 -91c0 -41.333 -14.333 -75.666 -43 -102.999s-64.667 -41 -108 -41c-52.667 0 -93 21 -121 63l48 45
c16.667 -29.333 43.334 -44 80.001 -44c25.333 0 46.333 7.66699 63 23s25 34.666 25 57.999c0 20 -7 36.833 -21 50.5s-31 20.5 -51 20.5c-24.667 0 -47 -8 -67 -24l-32 48l56 58c-32 2.66699 -62.167 9.16699 -90.5 19.5s-51.666 22.166 -69.999 35.499
s-31.833 23.833 -40.5 31.5s-15.334 14.5 -20.001 20.5l48 86c59.333 -66 130 -99 212 -99c50 0 88.5 9.33301 115.5 28s40.5 44.334 40.5 77.001c0 50.667 -51 85 -153 103c-88.667 15.333 -150.834 38.5 -186.501 69.5s-53.5 70.833 -53.5 119.5
c0 56.667 21.333 103.334 64 140.001s102 55 178 55c87.333 0 159.666 -26.667 216.999 -80l-46 -87c-48.667 47.333 -106.334 71 -173.001 71c-46 0 -81.5 -8.33301 -106.5 -25s-37.5 -40 -37.5 -70c0 -25.333 11.667 -45.166 35 -59.499s62.333 -26.833 117 -37.5
c83.333 -16 144.333 -38.833 183 -68.5s58 -71.834 58 -126.501z" />
    <glyph glyph-name="scedilla" unicode="&#x15f;" horiz-adv-x="480" 
d="M440 150c0 -43.333 -13.333 -78.8291 -40 -106.496s-65 -44.167 -115 -49.5l-40 -42c37.333 8.66699 69.833 1.66699 97.5 -21s41.5 -53 41.5 -91c0 -41.333 -14.333 -75.666 -43 -102.999s-64.667 -41 -108 -41c-52.667 0 -93 21 -121 63l48 45
c16.667 -29.333 43.334 -44 80.001 -44c25.333 0 46.333 7.66699 63 23s25 34.666 25 57.999c0 20 -7 36.833 -21 50.5s-31 20.5 -51 20.5c-24.667 0 -47 -8 -67 -24l-32 48l55 58c-39.333 4 -74.833 13 -106.5 27s-53.5 27 -65.5 39l38 94
c18.667 -18.667 44.167 -34.167 76.5 -46.5s62.5 -18.833 90.5 -19.5c30 -0.666992 54 4 72 14s27 22.333 27 37c0 16.667 -7.66699 29.5 -23 38.5s-39 16.5 -71 22.5c-74.667 13.333 -125.667 31.666 -153 54.999s-41 55.333 -41 96s17.833 73.667 53.5 99
s82.834 38 141.501 38c59.333 0 117.333 -15.333 174 -46l-33 -90c-12.667 9.33301 -32.5 18.166 -59.5 26.499s-54.167 12.833 -81.5 13.5s-50.666 -2.33301 -69.999 -9s-29 -17.667 -29 -33c0 -8 2.5 -14.833 7.5 -20.5s12.667 -10.334 23 -14.001
s20.166 -6.66699 29.499 -9s21.666 -4.83301 36.999 -7.5c7.33301 -1.33301 12.666 -2.33301 15.999 -3c116.667 -22.667 175 -71.334 175 -146.001z" />
    <glyph glyph-name="Scaron" unicode="&#x160;" horiz-adv-x="592" 
d="M349 864h99l-152 -136l-152 136h99l53 -52zM311 392c83.333 -16 144.336 -38.8379 183.003 -68.5049s58 -71.834 58 -126.501c0 -60 -23 -109.167 -69 -147.5s-107.667 -57.5 -185 -57.5c-37.333 0 -72.5 4.83301 -105.5 14.5s-60.333 21.834 -82 36.501
s-37.5 26.334 -47.5 35.001s-17.667 16.334 -23 23.001l48 86c59.333 -66 130 -99 212 -99c50 0 88.5 9.33301 115.5 28s40.5 44.334 40.5 77.001c0 50.667 -51 85 -153 103c-88.667 15.333 -150.834 38.5 -186.501 69.5s-53.5 70.833 -53.5 119.5
c0 56.667 21.333 103.334 64 140.001s102 55 178 55c87.333 0 159.666 -26.667 216.999 -80l-46 -87c-48.667 47.333 -106.334 71 -173.001 71c-46 0 -81.5 -8.33301 -106.5 -25s-37.5 -40 -37.5 -70c0 -25.333 11.667 -45.166 35 -59.499s62.333 -26.833 117 -37.5z" />
    <glyph glyph-name="scaron" unicode="&#x161;" horiz-adv-x="480" 
d="M297 672h99l-152 -136l-152 136h99l53 -52zM265 296c116.667 -22.667 174.999 -71.3301 174.999 -145.997c0 -48.667 -16.667 -87.167 -50 -115.5s-80.666 -42.5 -141.999 -42.5c-46.667 0 -89.167 7.66699 -127.5 23s-65.166 30.333 -80.499 45l38 94
c18.667 -18.667 44.167 -34.167 76.5 -46.5s62.5 -18.833 90.5 -19.5c30 -0.666992 54 4 72 14s27 22.333 27 37c0 16.667 -7.66699 29.5 -23 38.5s-39 16.5 -71 22.5c-74.667 13.333 -125.667 31.666 -153 54.999s-41 55.333 -41 96s17.833 73.667 53.5 99
s82.834 38 141.501 38c59.333 0 117.333 -15.333 174 -46l-33 -90c-12.667 9.33301 -32.5 18.166 -59.5 26.499s-54.167 12.833 -81.5 13.5s-50.666 -2.33301 -69.999 -9s-29 -17.667 -29 -33c0 -8 2.5 -14.833 7.5 -20.5s12.667 -10.334 23 -14.001
s20.166 -6.66699 29.499 -9s21.666 -4.83301 36.999 -7.5c7.33301 -1.33301 12.666 -2.33301 15.999 -3z" />
    <glyph glyph-name="uni0162" unicode="&#x162;" horiz-adv-x="528" 
d="M312 0h-6.00098l-45 -48c37.333 8.66699 69.833 1.66699 97.5 -21s41.5 -53 41.5 -91c0 -41.333 -14.333 -75.666 -43 -102.999s-64.667 -41 -108 -41c-52.667 0 -93 21 -121 63l48 45c16.667 -29.333 43.334 -44 80.001 -44c25.333 0 46.333 7.66699 63 23
s25 34.666 25 57.999c0 20 -7 36.833 -21 50.5s-31 20.5 -51 20.5c-24.667 0 -47 -8 -67 -24l-32 48l61 64h-18v576h-176v96h448v-96h-176v-576z" />
    <glyph glyph-name="uni0163" unicode="&#x163;" horiz-adv-x="352" 
d="M181 -48c37.333 8.66699 69.832 1.66797 97.499 -20.999s41.5 -53 41.5 -91c0 -41.333 -14.333 -75.666 -43 -102.999s-64.667 -41 -108 -41c-52.667 0 -93 21 -121 63l48 45c16.667 -29.333 43.334 -44 80.001 -44c25.333 0 46.333 7.66699 63 23s25 34.666 25 57.999
c0 20 -7 36.833 -21 50.5s-31 20.5 -51 20.5c-24.667 0 -47 -8 -67 -24l-32 48l68 73c-38 23.333 -57 72.666 -57 147.999v227h-64v96h64v192h96v-192h96v-96h-96v-200c0 -46 6.33301 -73.667 19 -83c19.333 -14.667 45 -14 77 2v-97c-19.333 -9.33301 -43 -14 -71 -14h-7z
" />
    <glyph glyph-name="Tcaron" unicode="&#x164;" horiz-adv-x="528" 
d="M317 864h99l-152 -136l-152 136h99l53 -52zM40 672h448v-96h-176v-576h-96v576h-176v96z" />
    <glyph glyph-name="tcaron" unicode="&#x165;" horiz-adv-x="496" 
d="M104 157v227h-64v96h64v192h96v-192h96v-96h-96v-200c0 -46 6.33301 -73.667 19 -83c19.333 -14.667 45 -14 77 2v-97c-19.333 -9.33301 -43 -14 -71 -14c-80.667 0 -121 55 -121 165zM328 544l32 128h96l-80 -128h-48z" />
    <glyph glyph-name="Tbar" unicode="&#x166;" horiz-adv-x="528" 
d="M488 576h-176v-240h64v-48h-64v-288h-96v288h-64v48h64v240h-176v96h448v-96z" />
    <glyph glyph-name="tbar" unicode="&#x167;" horiz-adv-x="352" 
d="M296 384h-96v-88h96v-48h-96v-64c0 -46 6.33301 -73.667 19 -83c19.333 -14.667 45 -14 77 2v-97c-19.333 -9.33301 -43 -14 -71 -14c-80.667 0 -121 55 -121 165v91h-64v48h64v88h-64v96h64v192h96v-192h96v-96z" />
    <glyph glyph-name="Umacron" unicode="&#x16a;" horiz-adv-x="624" 
d="M448 752h-272v56h272v-56zM472 672h96v-376c0 -92.667 -21.5 -166.5 -64.5 -221.5s-106.833 -82.5 -191.5 -82.5c-86.667 0 -151 27.333 -193 82s-63 128.667 -63 222v376h96v-408c0 -52.667 14.167 -95.167 42.5 -127.5s67.5 -48.5 117.5 -48.5
c49.333 0 88.333 16.167 117 48.5s43 74.833 43 127.5v408z" />
    <glyph glyph-name="umacron" unicode="&#x16b;" horiz-adv-x="560" 
d="M412 560h-272v56h272v-56zM242 -8c-58 0 -103.499 18 -136.499 54s-49.5 88.667 -49.5 158v276h96v-268c0 -40.667 8.16699 -71.5 24.5 -92.5s44.166 -31.5 83.499 -31.5c32 0 62 11.833 90 35.5s42 54.5 42 92.5v264h96v-480h-96v56
c-37.333 -42.667 -87.333 -64 -150 -64z" />
    <glyph glyph-name="Uring" unicode="&#x16e;" horiz-adv-x="624" 
d="M312 944c30.667 0 57 -11 79 -33s33 -48.333 33 -79s-11 -57 -33 -79s-48.333 -33 -79 -33s-57 11 -79 33s-33 48.333 -33 79s11 57 33 79s48.333 33 79 33zM312 776c15.333 0 28.5 5.5 39.5 16.5s16.5 24.167 16.5 39.5s-5.5 28.5 -16.5 39.5s-24.167 16.5 -39.5 16.5
s-28.5 -5.5 -39.5 -16.5s-16.5 -24.167 -16.5 -39.5s5.5 -28.5 16.5 -39.5s24.167 -16.5 39.5 -16.5zM472 672h96v-376c0 -92.667 -21.5 -166.5 -64.5 -221.5s-106.833 -82.5 -191.5 -82.5c-86.667 0 -151 27.333 -193 82s-63 128.667 -63 222v376h96v-408
c0 -52.667 14.167 -95.167 42.5 -127.5s67.5 -48.5 117.5 -48.5c49.333 0 88.333 16.167 117 48.5s43 74.833 43 127.5v408z" />
    <glyph glyph-name="uring" unicode="&#x16f;" horiz-adv-x="560" 
d="M276 736c30.667 0 57 -11 79 -33s33 -48.333 33 -79s-11 -57 -33 -79s-48.333 -33 -79 -33s-57 11 -79 33s-33 48.333 -33 79s11 57 33 79s48.333 33 79 33zM276 568c15.333 0 28.5 5.5 39.5 16.5s16.5 24.167 16.5 39.5s-5.5 28.5 -16.5 39.5s-24.167 16.5 -39.5 16.5
s-28.5 -5.5 -39.5 -16.5s-16.5 -24.167 -16.5 -39.5s5.5 -28.5 16.5 -39.5s24.167 -16.5 39.5 -16.5zM242 -8c-58 0 -103.499 18 -136.499 54s-49.5 88.667 -49.5 158v276h96v-268c0 -40.667 8.16699 -71.5 24.5 -92.5s44.166 -31.5 83.499 -31.5c32 0 62 11.833 90 35.5
s42 54.5 42 92.5v264h96v-480h-96v56c-37.333 -42.667 -87.333 -64 -150 -64z" />
    <glyph glyph-name="Uhungarumlaut" unicode="&#x170;" horiz-adv-x="624" 
d="M160 736l32 128h104l-80 -128h-56zM384 736l32 128h104l-80 -128h-56zM472 672h96v-376c0 -92.667 -21.5 -166.5 -64.5 -221.5s-106.833 -82.5 -191.5 -82.5c-86.667 0 -151 27.333 -193 82s-63 128.667 -63 222v376h96v-408c0 -52.667 14.167 -95.167 42.5 -127.5
s67.5 -48.5 117.5 -48.5c49.333 0 88.333 16.167 117 48.5s43 74.833 43 127.5v408z" />
    <glyph glyph-name="uhungarumlaut" unicode="&#x171;" horiz-adv-x="560" 
d="M122 544l32 128h104l-80 -128h-56zM346 544l32 128h104l-80 -128h-56zM242 -8c-58 0 -103.499 18 -136.499 54s-49.5 88.667 -49.5 158v276h96v-268c0 -40.667 8.16699 -71.5 24.5 -92.5s44.166 -31.5 83.499 -31.5c32 0 62 11.833 90 35.5s42 54.5 42 92.5v264h96v-480
h-96v56c-37.333 -42.667 -87.333 -64 -150 -64z" />
    <glyph glyph-name="Uogonek" unicode="&#x172;" horiz-adv-x="624" 
d="M472 672h95.999v-376c0 -86 -18.667 -156 -56 -210s-92.666 -84.667 -165.999 -92c-13.333 -1.33301 -25 -9.66602 -35 -24.999s-15 -33 -15 -53c0 -30 10.333 -50.333 31 -61s42.334 -9.66699 65.001 3l16 -50c-14.667 -10.667 -32.667 -16 -54 -16
c-34.667 0 -62.334 11.667 -83.001 35s-31 53 -31 89c0 30 9 56.333 27 79c-71.333 9.33301 -124.333 40.666 -159 93.999s-52 122.333 -52 207v376h96v-408c0 -52.667 14.167 -95.167 42.5 -127.5s67.5 -48.5 117.5 -48.5c49.333 0 88.333 16.167 117 48.5
s43 74.833 43 127.5v408z" />
    <glyph glyph-name="uogonek" unicode="&#x173;" horiz-adv-x="560" 
d="M504 -142l16.001 -50.001c-14.667 -10.667 -32.667 -16 -54 -16c-34.667 0 -62.334 11.667 -83.001 35s-31 53 -31 89s13.333 66.667 40 92v48c-37.333 -42.667 -87.333 -64 -150 -64c-58 0 -103.5 18 -136.5 54s-49.5 88.667 -49.5 158v276h96v-268
c0 -40.667 8.16699 -71.5 24.5 -92.5s44.166 -31.5 83.499 -31.5c32 0 62 11.833 90 35.5s42 54.5 42 92.5v264h96v-480c-18.667 0 -36.667 -8.66699 -54 -26s-26 -36.666 -26 -57.999c0 -30 10.333 -50.333 31 -61s42.334 -9.66699 65.001 3z" />
    <glyph glyph-name="Wcircumflex" unicode="&#x174;" horiz-adv-x="960" 
d="M533 736l-53 52l-53 -52h-99l152 136l152 -136h-99zM840 672h104l-280 -688l-184 464l-184 -464l-280 688h104l176 -442l184 458l184 -458z" />
    <glyph glyph-name="wcircumflex" unicode="&#x175;" horiz-adv-x="752" 
d="M429 544l-53 52l-53 -52h-99l152 136l152 -136h-99zM632 480h104l-208 -496l-152 308l-152 -308l-208 496h104l112 -286l144 302l144 -302z" />
    <glyph glyph-name="Ycircumflex" unicode="&#x176;" horiz-adv-x="592" 
d="M349 736l-53 52l-53 -52h-99l152 136l152 -136h-99zM476 672h108l-240 -400v-272h-96v272l-240 400h108l180 -308z" />
    <glyph glyph-name="ycircumflex" unicode="&#x177;" horiz-adv-x="512" 
d="M309 544l-53 52l-53 -52h-99l152 136l152 -136h-99zM397 480h107l-325 -736h-105l128 287l-194 449h107l141 -332z" />
    <glyph glyph-name="Ydieresis" unicode="&#x178;" horiz-adv-x="592" 
d="M208 736c-15.333 0 -28.5 5.5 -39.5 16.5s-16.5 24.167 -16.5 39.5c0 16 5.5 29.333 16.5 40s24.167 16 39.5 16c16 0 29.333 -5.33301 40 -16s16 -24 16 -40c0 -15.333 -5.33301 -28.5 -16 -39.5s-24 -16.5 -40 -16.5zM384 736c-15.333 0 -28.5 5.5 -39.5 16.5
s-16.5 24.167 -16.5 39.5c0 16 5.5 29.333 16.5 40s24.167 16 39.5 16c16 0 29.333 -5.33301 40 -16s16 -24 16 -40c0 -15.333 -5.33301 -28.5 -16 -39.5s-24 -16.5 -40 -16.5zM476 672h108l-240 -400v-272h-96v272l-240 400h108l180 -308z" />
    <glyph glyph-name="Zacute" unicode="&#x179;" 
d="M248 736l80 128h112l-128 -128h-64zM552 0h-512l362 576h-346v96h512l-362 -576h346v-96z" />
    <glyph glyph-name="zacute" unicode="&#x17a;" horiz-adv-x="480" 
d="M184 544l80 128h112l-128 -128h-64zM424 0h-384l236 384h-220v96h384l-238 -384h222v-96z" />
    <glyph glyph-name="Zdotaccent" unicode="&#x17b;" 
d="M304 720c-20 0 -37 7 -51 21s-21 31 -21 51s7 37 21 51s31 21 51 21s37 -7 51 -21s21 -31 21 -51s-7 -37 -21 -51s-31 -21 -51 -21zM552 0h-512l362 576h-346v96h512l-362 -576h346v-96z" />
    <glyph glyph-name="zdotaccent" unicode="&#x17c;" horiz-adv-x="480" 
d="M240 528c-20 0 -37 7 -51 21s-21 31 -21 51s7 37 21 51s31 21 51 21s37 -7 51 -21s21 -31 21 -51s-7 -37 -21 -51s-31 -21 -51 -21zM424 0h-384l236 384h-220v96h384l-238 -384h222v-96z" />
    <glyph glyph-name="Zcaron" unicode="&#x17d;" 
d="M357 864h99l-152 -136l-152 136h99l53 -52zM552 0h-512l362 576h-346v96h512l-362 -576h346v-96z" />
    <glyph glyph-name="zcaron" unicode="&#x17e;" horiz-adv-x="480" 
d="M293 672h99l-152 -136l-152 136h99l53 -52zM424 0h-384l236 384h-220v96h384l-238 -384h222v-96z" />
    <glyph glyph-name="Aringacute" unicode="&#x1fa;" horiz-adv-x="656" 
d="M280 976l80 128h112l-128 -128h-64zM328 944c30.667 0 57 -11 79 -33s33 -48.333 33 -79s-11 -57 -33 -79s-48.333 -33 -79 -33s-57 11 -79 33s-33 48.333 -33 79s11 57 33 79s48.333 33 79 33zM328 776c15.333 0 28.5 5.5 39.5 16.5s16.5 24.167 16.5 39.5
s-5.5 28.5 -16.5 39.5s-24.167 16.5 -39.5 16.5s-28.5 -5.5 -39.5 -16.5s-16.5 -24.167 -16.5 -39.5s5.5 -28.5 16.5 -39.5s24.167 -16.5 39.5 -16.5zM544 0l-65 144h-302l-65 -144h-104l320 688l320 -688h-104zM221 240h214l-107 236z" />
    <glyph glyph-name="aringacute" unicode="&#x1fb;" 
d="M264 768l80 128h112l-128 -128h-64zM328 736c30.667 0 57 -11 79 -33s33 -48.333 33 -79s-11 -57 -33 -79s-48.333 -33 -79 -33s-57 11 -79 33s-33 48.333 -33 79s11 57 33 79s48.333 33 79 33zM328 568c15.333 0 28.5 5.5 39.5 16.5s16.5 24.167 16.5 39.5
s-5.5 28.5 -16.5 39.5s-24.167 16.5 -39.5 16.5s-28.5 -5.5 -39.5 -16.5s-16.5 -24.167 -16.5 -39.5s5.5 -28.5 16.5 -39.5s24.167 -16.5 39.5 -16.5zM440 480h96v-480h-96v70c-40 -52 -93.333 -78 -160 -78c-69.333 0 -126.666 24 -171.999 72s-68 106.667 -68 176
s22.667 128 68 176s102.666 72 171.999 72c66.667 0 120 -26 160 -78v70zM288 88c42 0 77.833 14.833 107.5 44.5s44.5 65.5 44.5 107.5s-14.833 77.833 -44.5 107.5s-65.5 44.5 -107.5 44.5s-77.833 -14.833 -107.5 -44.5s-44.5 -65.5 -44.5 -107.5
s14.833 -77.833 44.5 -107.5s65.5 -44.5 107.5 -44.5z" />
    <glyph glyph-name="AEacute" unicode="&#x1fc;" horiz-adv-x="800" 
d="M376 736l80 128h112l-128 -128h-64zM744 576h-288v-192h240v-96h-240v-192h288v-96h-384v144h-174l-74 -144h-104l352 672h384v-96zM236 240h124v240z" />
    <glyph glyph-name="aeacute" unicode="&#x1fd;" horiz-adv-x="880" 
d="M376 544l80 128h112l-128 -128h-64zM840 238c0 -14.667 -0.99707 -28.668 -2.99707 -42.001h-363c7.33301 -36 25.166 -63 53.499 -81s62.5 -27 102.5 -27c52 0 100.667 16 146 48l32 -86c-46 -38.667 -106 -58 -180 -58c-61.333 0 -113.333 15 -156 45v-37h-96v49
c-14.667 -18 -37.167 -32 -67.5 -42s-59.833 -15 -88.5 -15c-54 0 -97.5 14.667 -130.5 44s-49.5 68 -49.5 116c0 59.333 32.333 103.333 97 132c57.333 26 137 28 239 6c0 20.667 -4.33301 38.167 -13 52.5s-20.167 24.833 -34.5 31.5s-28 11.334 -41 14.001
s-26.833 4 -41.5 4c-52.667 0 -99.667 -15 -141 -45l-45 77c10 8 21.833 16 35.5 24s35.667 16.667 66 26s61.166 14 92.499 14c86.667 0 147 -26 181 -78c45.333 52 105.333 78 180 78c65.333 0 119.166 -22.667 161.499 -68s63.5 -106 63.5 -182zM474.003 283.999
l268.001 0.00195312c-1.33301 27.333 -13 52.166 -35 74.499s-54 33.5 -96 33.5c-40.667 0 -73.334 -11.333 -98.001 -34s-37.667 -47.334 -39 -74.001zM376.004 168.001v38.001c-76 16.667 -135 19.167 -177 7.5s-63 -32.834 -63 -63.501c0 -19.333 8.33301 -34.5 25 -45.5
s37 -16.5 61 -16.5c38 0 73.167 7.83301 105.5 23.5s48.5 34.5 48.5 56.5z" />
    <glyph glyph-name="Scommaaccent" unicode="&#x218;" horiz-adv-x="592" 
d="M311 392c83.333 -16 144.336 -38.8379 183.003 -68.5049s58 -71.834 58 -126.501c0 -60 -23 -109.167 -69 -147.5s-107.667 -57.5 -185 -57.5c-37.333 0 -72.5 4.83301 -105.5 14.5s-60.333 21.834 -82 36.501s-37.5 26.334 -47.5 35.001s-17.667 16.334 -23 23.001
l48 86c59.333 -66 130 -99 212 -99c50 0 88.5 9.33301 115.5 28s40.5 44.334 40.5 77.001c0 50.667 -51 85 -153 103c-88.667 15.333 -150.834 38.5 -186.501 69.5s-53.5 70.833 -53.5 119.5c0 56.667 21.333 103.334 64 140.001s102 55 178 55
c87.333 0 159.666 -26.667 216.999 -80l-46 -87c-48.667 47.333 -106.334 71 -173.001 71c-46 0 -81.5 -8.33301 -106.5 -25s-37.5 -40 -37.5 -70c0 -25.333 11.667 -45.166 35 -59.499s62.333 -26.833 117 -37.5zM216.003 -192.005l32 128h96l-80 -128h-48z" />
    <glyph glyph-name="scommaaccent" unicode="&#x219;" horiz-adv-x="480" 
d="M265 296c116.667 -22.667 174.999 -71.3301 174.999 -145.997c0 -48.667 -16.667 -87.167 -50 -115.5s-80.666 -42.5 -141.999 -42.5c-46.667 0 -89.167 7.66699 -127.5 23s-65.166 30.333 -80.499 45l38 94c18.667 -18.667 44.167 -34.167 76.5 -46.5
s62.5 -18.833 90.5 -19.5c30 -0.666992 54 4 72 14s27 22.333 27 37c0 16.667 -7.66699 29.5 -23 38.5s-39 16.5 -71 22.5c-74.667 13.333 -125.667 31.666 -153 54.999s-41 55.333 -41 96s17.833 73.667 53.5 99s82.834 38 141.501 38c59.333 0 117.333 -15.333 174 -46
l-33 -90c-12.667 9.33301 -32.5 18.166 -59.5 26.499s-54.167 12.833 -81.5 13.5s-50.666 -2.33301 -69.999 -9s-29 -17.667 -29 -33c0 -8 2.5 -14.833 7.5 -20.5s12.667 -10.334 23 -14.001s20.166 -6.66699 29.499 -9s21.666 -4.83301 36.999 -7.5
c7.33301 -1.33301 12.666 -2.33301 15.999 -3zM167.999 -191.996l32 128h96l-80 -128h-48z" />
    <glyph glyph-name="uni021A" unicode="&#x21a;" horiz-adv-x="528" 
d="M40 672h448v-96h-176v-576h-96v576h-176v96zM184 -192l32 128h96l-80 -128h-48z" />
    <glyph glyph-name="uni021B" unicode="&#x21b;" horiz-adv-x="352" 
d="M104 157v227h-64v96h64v192h96v-192h96v-96h-96v-200c0 -46 6.33301 -73.667 19 -83c19.333 -14.667 45 -14 77 2v-97c-19.333 -9.33301 -43 -14 -71 -14c-80.667 0 -121 55 -121 165zM104 -192l32 128h96l-80 -128h-48z" />
    <glyph glyph-name="circumflex" unicode="&#x2c6;" horiz-adv-x="816" 
d="M461 736l-53 52l-53 -52h-99l152 136l152 -136h-99z" />
    <glyph glyph-name="caron" unicode="&#x2c7;" horiz-adv-x="816" 
d="M461 864h99l-152 -136l-152 136h99l53 -52z" />
    <glyph glyph-name="breve" unicode="&#x2d8;" horiz-adv-x="816" 
d="M480 864h56c0 -35.333 -12.5 -65.5 -37.5 -90.5s-55.167 -37.5 -90.5 -37.5s-65.5 12.5 -90.5 37.5s-37.5 55.167 -37.5 90.5h56c0 -20 7 -37 21 -51s31 -21 51 -21s37 7 51 21s21 31 21 51z" />
    <glyph glyph-name="dotaccent" unicode="&#x2d9;" horiz-adv-x="816" 
d="M408 720c-20 0 -37 7 -51 21s-21 31 -21 51s7 37 21 51s31 21 51 21s37 -7 51 -21s21 -31 21 -51s-7 -37 -21 -51s-31 -21 -51 -21z" />
    <glyph glyph-name="ring" unicode="&#x2da;" horiz-adv-x="816" 
d="M408 944c30.667 0 57 -11 79 -33s33 -48.333 33 -79s-11 -57 -33 -79s-48.333 -33 -79 -33s-57 11 -79 33s-33 48.333 -33 79s11 57 33 79s48.333 33 79 33zM408 776c15.333 0 28.5 5.5 39.5 16.5s16.5 24.167 16.5 39.5s-5.5 28.5 -16.5 39.5s-24.167 16.5 -39.5 16.5
s-28.5 -5.5 -39.5 -16.5s-16.5 -24.167 -16.5 -39.5s5.5 -28.5 16.5 -39.5s24.167 -16.5 39.5 -16.5z" />
    <glyph glyph-name="ogonek" unicode="&#x2db;" horiz-adv-x="816" 
d="M372 0h104c-20 0 -38.333 -7.5 -55 -22.5s-25 -35.5 -25 -61.5c0 -30 10.333 -50.333 31 -61s42.334 -9.66699 65.001 3l16 -50c-14.667 -10.667 -32.667 -16 -54 -16c-34.667 0 -62.334 11.667 -83.001 35s-31 53 -31 89c0 34.667 10.667 62.667 32 84z" />
    <glyph glyph-name="tilde" unicode="&#x2dc;" horiz-adv-x="816" 
d="M523 832l60.998 -20.9971c-24.667 -50 -60.667 -75 -108 -75c-17.333 0 -41.333 6 -72 18c-25.333 12 -47.5 17.167 -66.5 15.5s-33.833 -12.834 -44.5 -33.501l-61 23c26.667 48.667 63.334 73 110.001 73c16.667 0 39.334 -5.66699 68.001 -17
c26 -12.667 48.667 -18.334 68 -17.001s34.333 12.666 45 33.999z" />
    <glyph glyph-name="hungarumlaut" unicode="&#x2dd;" horiz-adv-x="816" 
d="M244 736l32 128h104l-80 -128h-56zM468 736l32 128h104l-80 -128h-56z" />
    <glyph glyph-name="Alphatonos" unicode="&#x386;" horiz-adv-x="656" 
d="M544 0l-65 144h-302l-65 -144h-104l320 688l320 -688h-104zM40 544l32 128h96l-80 -128h-48zM221 240h214l-107 236z" />
    <glyph glyph-name="Epsilontonos" unicode="&#x388;" horiz-adv-x="640" 
d="M40 544l32 128h96l-80 -128h-48zM584 576h-288v-192h240v-96h-240v-192h288v-96h-384v672h384v-96z" />
    <glyph glyph-name="Etatonos" unicode="&#x389;" horiz-adv-x="784" 
d="M40 544l32 128h96l-80 -128h-48zM616 672h96v-672h-96v288h-320v-288h-96v672h96v-288h320v288z" />
    <glyph glyph-name="Iotatonos" unicode="&#x38a;" horiz-adv-x="368" 
d="M40 544l32 128h96l-80 -128h-48zM296 0h-96v672h96v-672z" />
    <glyph glyph-name="Omicrontonos" unicode="&#x38c;" horiz-adv-x="832" 
d="M448 680c94.667 0 175.667 -33.667 243 -101s101 -148.333 101 -243s-33.667 -175.667 -101 -243s-148.333 -101 -243 -101s-175.667 33.667 -243 101s-101 148.333 -101 243s33.667 175.667 101 243s148.333 101 243 101zM40 544l32 128h96l-80 -128h-48zM448 88
c69.333 0 128 24 176 72s72 106.667 72 176s-24 128 -72 176s-106.667 72 -176 72s-128 -24 -176 -72s-72 -106.667 -72 -176s24 -128 72 -176s106.667 -72 176 -72z" />
    <glyph glyph-name="Upsilontonos" unicode="&#x38e;" horiz-adv-x="784" 
d="M40 544l32 128h96l-80 -128h-48zM668 672h108l-240 -400v-272h-96v272l-240 400h108l180 -308z" />
    <glyph glyph-name="Omegatonos" unicode="&#x38f;" horiz-adv-x="816" 
d="M760 392c0 -109.333 -57.667 -208 -173 -296h173v-96h-288v112c25.333 16.667 47.333 32.667 66 48s38.5 34.5 59.5 57.5s37.333 48.667 49 77s17.5 58.166 17.5 89.499c0 62 -21.5 110.833 -64.5 146.5s-96.167 53.5 -159.5 53.5s-116.5 -17.833 -159.5 -53.5
s-64.5 -84.5 -64.5 -146.5c0 -31.333 5.83301 -61.166 17.5 -89.499s28 -54 49 -77s40.833 -42.167 59.5 -57.5s40.667 -31.333 66 -48v-112h-288v96h173c-115.333 88 -173 186.667 -173 296c0 35.333 6.5 69.833 19.5 103.5s32.167 64.334 57.5 92.001s59 50 101 67
s89.333 25.5 142 25.5s100 -8.5 142 -25.5s75.667 -39.333 101 -67s44.5 -58.334 57.5 -92.001s19.5 -68.167 19.5 -103.5zM40 544l32 128h96l-80 -128h-48z" />
    <glyph glyph-name="iotadieresistonos" unicode="&#x390;" horiz-adv-x="272" 
d="M88 544l32 128h96l-80 -128h-48zM0 544c-15.333 0 -28.5 5.5 -39.5 16.5s-16.5 24.167 -16.5 39.5c0 16 5.5 29.333 16.5 40s24.167 16 39.5 16c16 0 29.333 -5.33301 40 -16s16 -24 16 -40c0 -15.333 -5.33301 -28.5 -16 -39.5s-24 -16.5 -40 -16.5zM272 544
c-15.333 0 -28.5 5.5 -39.5 16.5s-16.5 24.167 -16.5 39.5c0 16 5.5 29.333 16.5 40s24.167 16 39.5 16c16 0 29.333 -5.33301 40 -16s16 -24 16 -40c0 -15.333 -5.33301 -28.5 -16 -39.5s-24 -16.5 -40 -16.5zM168 480v-336c0 -29.333 4.33301 -48.5 13 -57.5
s25.667 -11.167 51 -6.5v-80c-20 -5.33301 -41 -8 -63 -8c-64.667 0 -97 44.333 -97 133v355h96z" />
    <glyph glyph-name="Alpha" unicode="&#x391;" horiz-adv-x="656" 
d="M544 0l-65 144h-302l-65 -144h-104l320 688l320 -688h-104zM221 240h214l-107 236z" />
    <glyph glyph-name="Beta" unicode="&#x392;" horiz-adv-x="576" 
d="M424 361c37.333 -8.66699 65.334 -28.167 84.001 -58.5s28 -63.833 28 -100.5c0 -59.333 -19.5 -107.833 -58.5 -145.5s-91.5 -56.5 -157.5 -56.5h-248v672h201c73.333 0 130.166 -15 170.499 -45s60.5 -73.667 60.5 -131c0 -32.667 -7.66699 -61.167 -23 -85.5
s-34.333 -40.833 -57 -49.5zM168.001 576v-168h120c80 0 120 28 120 84s-40 84 -120 84h-120zM304.001 96c42.667 0 76 9 100 27s36 45 36 81s-12 63 -36 81s-57.333 27 -100 27h-136v-216h136z" />
    <glyph glyph-name="Gamma" unicode="&#x393;" horiz-adv-x="496" 
d="M456 576h-288v-576h-96v672h384v-96z" />
    <glyph glyph-name="uni0394" unicode="&#x394;" horiz-adv-x="656" 
d="M328 688l320 -688h-640zM156 96h344l-172 380z" />
    <glyph glyph-name="Epsilon" unicode="&#x395;" horiz-adv-x="512" 
d="M456 576h-288v-192h240v-96h-240v-192h288v-96h-384v672h384v-96z" />
    <glyph glyph-name="Zeta" unicode="&#x396;" 
d="M552 0h-512l362 576h-346v96h512l-362 -576h346v-96z" />
    <glyph glyph-name="Eta" unicode="&#x397;" horiz-adv-x="656" 
d="M488 672h96v-672h-96v288h-320v-288h-96v672h96v-288h320v288z" />
    <glyph glyph-name="Theta" unicode="&#x398;" horiz-adv-x="768" 
d="M384 680c94.667 0 175.667 -33.667 243 -101s101 -148.333 101 -243s-33.667 -175.667 -101 -243s-148.333 -101 -243 -101s-175.667 33.667 -243 101s-101 148.333 -101 243s33.667 175.667 101 243s148.333 101 243 101zM384 88c69.333 0 128 24 176 72
s72 106.667 72 176s-24 128 -72 176s-106.667 72 -176 72s-128 -24 -176 -72s-72 -106.667 -72 -176s24 -128 72 -176s106.667 -72 176 -72zM184 312v48h400v-48h-400z" />
    <glyph glyph-name="Iota" unicode="&#x399;" horiz-adv-x="240" 
d="M168 0h-96v672h96v-672z" />
    <glyph glyph-name="Kappa" unicode="&#x39a;" horiz-adv-x="592" 
d="M256 343l312 -343h-128l-272 296v-296h-96v672h96v-296l256 296h128z" />
    <glyph glyph-name="Lambda" unicode="&#x39b;" horiz-adv-x="656" 
d="M544 0l-216 476l-216 -476h-104l320 688l320 -688h-104z" />
    <glyph glyph-name="Mu" unicode="&#x39c;" horiz-adv-x="832" 
d="M416 -16l-214 414l-64 -398h-98l114 688l262 -508l262 508l114 -688h-98l-64 398z" />
    <glyph glyph-name="Nu" unicode="&#x39d;" horiz-adv-x="704" 
d="M632 -16l-464 476v-460h-96v688l464 -476v460h96v-688z" />
    <glyph glyph-name="Xi" unicode="&#x39e;" horiz-adv-x="576" 
d="M56 576v96h464v-96h-464zM104 288v96h368v-96h-368zM56 0v96h464v-96h-464z" />
    <glyph glyph-name="Omicron" unicode="&#x39f;" horiz-adv-x="768" 
d="M384 680c94.667 0 175.667 -33.667 243 -101s101 -148.333 101 -243s-33.667 -175.667 -101 -243s-148.333 -101 -243 -101s-175.667 33.667 -243 101s-101 148.333 -101 243s33.667 175.667 101 243s148.333 101 243 101zM384 88c69.333 0 128 24 176 72
s72 106.667 72 176s-24 128 -72 176s-106.667 72 -176 72s-128 -24 -176 -72s-72 -106.667 -72 -176s24 -128 72 -176s106.667 -72 176 -72z" />
    <glyph glyph-name="Pi" unicode="&#x3a0;" horiz-adv-x="656" 
d="M584 672v-672h-96v576h-320v-576h-96v672h512z" />
    <glyph glyph-name="Rho" unicode="&#x3a1;" horiz-adv-x="576" 
d="M280 672c84.667 0 148.5 -19.332 191.5 -57.999s64.5 -91 64.5 -157c0 -64.667 -20.333 -118.334 -61 -161.001s-95.667 -64 -165 -64h-142v-232h-96v672h208zM311 328.001c38 0 69 10.168 93 30.501s36 51.166 36 92.499s-13 72.5 -39 93.5s-58 31.5 -96 31.5h-137v-248
h143z" />
    <glyph glyph-name="Sigma" unicode="&#x3a3;" horiz-adv-x="576" 
d="M224 576l168 -240l-168 -240h280v-96h-464l232 336l-232 336h464v-96h-280z" />
    <glyph glyph-name="Tau" unicode="&#x3a4;" horiz-adv-x="528" 
d="M40 672h448v-96h-176v-576h-96v576h-176v96z" />
    <glyph glyph-name="Upsilon" unicode="&#x3a5;" horiz-adv-x="592" 
d="M476 672h108l-240 -400v-272h-96v272l-240 400h108l180 -308z" />
    <glyph glyph-name="Phi" unicode="&#x3a6;" horiz-adv-x="720" 
d="M680 352c0 -84.667 -27.333 -152.667 -82 -204s-118 -79.333 -190 -84v-64h-96v64c-72 4.66699 -135.333 32.667 -190 84s-82 119.333 -82 204c0 86 27.667 154.333 83 205s118.333 78.334 189 83.001v64h96v-64c70.667 -4.66699 133.667 -32.334 189 -83.001
s83 -119 83 -205zM312 156l0.000976562 392.001c-18.667 0 -37.834 -3.66699 -57.501 -11s-38.5 -18.333 -56.5 -33s-32.833 -35.334 -44.5 -62.001s-17.5 -56.667 -17.5 -90c0 -64.667 18.667 -113.5 56 -146.5s77.333 -49.5 120 -49.5zM408.001 156.001
c26 0 51.833 6 77.5 18s48.5 33.5 68.5 64.5s30 68.833 30 113.5c0 34 -5.66699 64.167 -17 90.5s-26.166 46.833 -44.499 61.5s-37.333 25.667 -57 33s-38.834 11 -57.501 11v-392z" />
    <glyph glyph-name="Chi" unicode="&#x3a7;" horiz-adv-x="656" 
d="M632 0h-116l-188 271l-188 -271h-116l244 347l-228 325h115l173 -250l173 250h115l-228 -325z" />
    <glyph glyph-name="Psi" unicode="&#x3a8;" horiz-adv-x="784" 
d="M616 672h96.002v-238c0 -50.667 -6.83301 -94.5 -20.5 -131.5s-33.334 -66.667 -59.001 -89s-54 -39.5 -85 -51.5s-66.833 -20.667 -107.5 -26v-136h-96v136c-40.667 5.33301 -76.5 14 -107.5 26s-59.333 29.167 -85 51.5s-45.334 52 -59.001 89
s-20.5 80.833 -20.5 131.5v238h96v-252c0 -64 16.667 -110.833 50 -140.5s75.333 -45.5 126 -47.5v440h96v-440c50.667 2 92.667 17.833 126 47.5s50 76.5 50 140.5v252z" />
    <glyph glyph-name="uni03A9" unicode="&#x3a9;" horiz-adv-x="752" 
d="M696 392c0 -109.333 -57.667 -208 -173 -296h173v-96h-288v112c25.333 16.667 47.333 32.667 66 48s38.5 34.5 59.5 57.5s37.333 48.667 49 77s17.5 58.166 17.5 89.499c0 62 -21.5 110.833 -64.5 146.5s-96.167 53.5 -159.5 53.5s-116.5 -17.833 -159.5 -53.5
s-64.5 -84.5 -64.5 -146.5c0 -31.333 5.83301 -61.166 17.5 -89.499s28 -54 49 -77s40.833 -42.167 59.5 -57.5s40.667 -31.333 66 -48v-112h-288v96h173c-115.333 88 -173 186.667 -173 296c0 35.333 6.5 69.833 19.5 103.5s32.167 64.334 57.5 92.001s59 50 101 67
s89.333 25.5 142 25.5s100 -8.5 142 -25.5s75.667 -39.333 101 -67s44.5 -58.334 57.5 -92.001s19.5 -68.167 19.5 -103.5z" />
    <glyph glyph-name="Iotadieresis" unicode="&#x3aa;" horiz-adv-x="240" 
d="M32 736c-15.333 0 -28.5 5.5 -39.5 16.5s-16.5 24.167 -16.5 39.5c0 16 5.5 29.333 16.5 40s24.167 16 39.5 16c16 0 29.333 -5.33301 40 -16s16 -24 16 -40c0 -15.333 -5.33301 -28.5 -16 -39.5s-24 -16.5 -40 -16.5zM208 736c-15.333 0 -28.5 5.5 -39.5 16.5
s-16.5 24.167 -16.5 39.5c0 16 5.5 29.333 16.5 40s24.167 16 39.5 16c16 0 29.333 -5.33301 40 -16s16 -24 16 -40c0 -15.333 -5.33301 -28.5 -16 -39.5s-24 -16.5 -40 -16.5zM168 0h-96v672h96v-672z" />
    <glyph glyph-name="Upsilondieresis" unicode="&#x3ab;" horiz-adv-x="592" 
d="M208 736c-15.333 0 -28.5 5.5 -39.5 16.5s-16.5 24.167 -16.5 39.5c0 16 5.5 29.333 16.5 40s24.167 16 39.5 16c16 0 29.333 -5.33301 40 -16s16 -24 16 -40c0 -15.333 -5.33301 -28.5 -16 -39.5s-24 -16.5 -40 -16.5zM384 736c-15.333 0 -28.5 5.5 -39.5 16.5
s-16.5 24.167 -16.5 39.5c0 16 5.5 29.333 16.5 40s24.167 16 39.5 16c16 0 29.333 -5.33301 40 -16s16 -24 16 -40c0 -15.333 -5.33301 -28.5 -16 -39.5s-24 -16.5 -40 -16.5zM476 672h108l-240 -400v-272h-96v272l-240 400h108l180 -308z" />
    <glyph glyph-name="alphatonos" unicode="&#x3ac;" horiz-adv-x="640" 
d="M280 544l32 128h96l-80 -128h-48zM536 144c0 -29.333 4.33203 -48.5 12.999 -57.5s25.667 -11.167 51 -6.5v-80c-20 -5.33301 -41 -8 -63 -8c-49.333 0 -79.666 25.333 -90.999 76c-42.667 -50.667 -98 -76 -166 -76c-69.333 0 -126.666 24 -171.999 72
s-68 106.667 -68 176s22.667 128 68 176s102.666 72 171.999 72c66.667 0 120 -26 160 -78v70h96v-336zM287.999 88c42 0 77.833 14.833 107.5 44.5s44.5 65.5 44.5 107.5s-14.833 77.833 -44.5 107.5s-65.5 44.5 -107.5 44.5s-77.833 -14.833 -107.5 -44.5
s-44.5 -65.5 -44.5 -107.5s14.833 -77.833 44.5 -107.5s65.5 -44.5 107.5 -44.5z" />
    <glyph glyph-name="epsilontonos" unicode="&#x3ad;" horiz-adv-x="480" 
d="M208 544l32 128h96l-80 -128h-48zM276 88c46.667 2 88.002 15.6689 124.002 41.002l40 -76c-46 -40.667 -105.667 -61 -179 -61c-60.667 0 -110 12.167 -148 36.5s-57 62.166 -57 113.499c0 23.333 6.83301 44.5 20.5 63.5s32.5 33.167 56.5 42.5
c-22.667 8.66699 -39.834 22.167 -51.501 40.5s-17.5 38.166 -17.5 59.499c0 46.667 17.167 81.667 51.5 105s79.833 35 136.5 35c68 0 129.333 -20.667 184 -62l-44 -76c-40.667 26.667 -84 40.667 -130 42c-32.667 0.666992 -57.834 -4.33301 -75.501 -15
s-26.5 -22.667 -26.5 -36c0 -18.667 13 -33.5 39 -44.5s63.667 -16.5 113 -16.5v-80c-48 0 -86.667 -4.83301 -116 -14.5s-44 -24.167 -44 -43.5s11.5 -33.5 34.5 -42.5s52.833 -12.833 89.5 -11.5z" />
    <glyph glyph-name="etatonos" unicode="&#x3ae;" horiz-adv-x="560" 
d="M224 544l32 128h96l-80 -128h-48zM318 488c58 0 103.499 -18 136.499 -54s49.5 -88.667 49.5 -158v-532h-96v524c0 40.667 -8.16699 71.5 -24.5 92.5s-44.166 31.5 -83.499 31.5c-32 0 -62 -11.833 -90 -35.5s-42 -54.5 -42 -92.5v-264h-96v480h96v-56
c37.333 42.667 87.333 64 150 64z" />
    <glyph glyph-name="iotatonos" unicode="&#x3af;" horiz-adv-x="272" 
d="M88 544l32 128h96l-80 -128h-48zM168 480v-336c0 -29.333 4.33301 -48.5 13 -57.5s25.667 -11.167 51 -6.5v-80c-20 -5.33301 -41 -8 -63 -8c-64.667 0 -97 44.333 -97 133v355h96z" />
    <glyph glyph-name="upsilondieresistonos" unicode="&#x3b0;" horiz-adv-x="544" 
d="M200 544l32 128h96l-80 -128h-48zM112 544c-15.333 0 -28.5 5.5 -39.5 16.5s-16.5 24.167 -16.5 39.5c0 16 5.5 29.333 16.5 40s24.167 16 39.5 16c16 0 29.333 -5.33301 40 -16s16 -24 16 -40c0 -15.333 -5.33301 -28.5 -16 -39.5s-24 -16.5 -40 -16.5zM384 544
c-15.333 0 -28.5 5.5 -39.5 16.5s-16.5 24.167 -16.5 39.5c0 16 5.5 29.333 16.5 40s24.167 16 39.5 16c16 0 29.333 -5.33301 40 -16s16 -24 16 -40c0 -15.333 -5.33301 -28.5 -16 -39.5s-24 -16.5 -40 -16.5zM440 480c32 -91.333 47.999 -167.334 47.999 -228.001
c0 -79.333 -19.5 -142.5 -58.5 -189.5s-91.5 -70.5 -157.5 -70.5c-70.667 0 -124.334 21.333 -161.001 64s-55 104 -55 184v240h96v-266c0 -40 11.333 -71 34 -93s51.334 -33 86.001 -33c38.667 0 68.334 13.833 89.001 41.5s31 63.834 31 108.501c0 68 -16 148.667 -48 242
h96z" />
    <glyph glyph-name="alpha" unicode="&#x3b1;" horiz-adv-x="640" 
d="M536 144c0 -29.333 4.33203 -48.5 12.999 -57.5s25.667 -11.167 51 -6.5v-80c-20 -5.33301 -41 -8 -63 -8c-49.333 0 -79.666 25.333 -90.999 76c-42.667 -50.667 -98 -76 -166 -76c-69.333 0 -126.666 24 -171.999 72s-68 106.667 -68 176s22.667 128 68 176
s102.666 72 171.999 72c66.667 0 120 -26 160 -78v70h96v-336zM287.999 88c42 0 77.833 14.833 107.5 44.5s44.5 65.5 44.5 107.5s-14.833 77.833 -44.5 107.5s-65.5 44.5 -107.5 44.5s-77.833 -14.833 -107.5 -44.5s-44.5 -65.5 -44.5 -107.5s14.833 -77.833 44.5 -107.5
s65.5 -44.5 107.5 -44.5z" />
    <glyph glyph-name="beta" unicode="&#x3b2;" horiz-adv-x="544" 
d="M369 384c40.667 -9.33301 73.3301 -30.9971 97.9971 -64.9971s37 -72.333 37 -115c0 -58 -19.667 -107.833 -59 -149.5s-94.666 -62.5 -165.999 -62.5c-48 0 -90.333 10.667 -127 32v-280h-96v744c0 41.333 6.83301 77.333 20.5 108s29 53 46 67s37.333 25.167 61 33.5
s40.834 13 51.501 14s21 1.5 31 1.5c62.667 0 110.5 -18.333 143.5 -55s49.5 -78.334 49.5 -125.001c0 -34.667 -9.66699 -65.334 -29 -92.001s-39.666 -45.334 -60.999 -56.001zM151.996 124.003c20 -14.667 44.502 -24.833 73.502 -30.5s57.167 -6.66699 84.5 -3
s50.5 15 69.5 34s28.5 44.167 28.5 75.5c0 24 -7.5 45.333 -22.5 64s-34.5 32 -58.5 40c-32.667 10.667 -80.334 16 -143.001 16v96c58 0 103.333 12.333 136 37c26.667 20.667 40 45.667 40 75c0 28 -9.83301 49.667 -29.5 65s-43.834 23 -72.501 23
c-30 0 -55.167 -10.667 -75.5 -32s-30.5 -48 -30.5 -80v-380z" />
    <glyph glyph-name="gamma" unicode="&#x3b3;" horiz-adv-x="496" 
d="M488 480l-192 -393v-343h-96v343l-192 393h104l136 -280l136 280h104z" />
    <glyph glyph-name="delta" unicode="&#x3b4;" horiz-adv-x="576" 
d="M428 445c33.333 -24 59.6631 -53.835 78.9961 -89.502s29 -74.167 29 -115.5c0 -68.667 -24.167 -127.167 -72.5 -175.5s-106.833 -72.5 -175.5 -72.5s-127.167 24.167 -175.5 72.5s-72.5 106.833 -72.5 175.5c0 50 13.667 95.5 41 136.5s63.333 71.167 108 90.5
c-25.333 16.667 -43.666 36.5 -54.999 59.5s-15.666 45.833 -12.999 68.5c3.33301 34 20.5 63.333 51.5 88s74.5 37 130.5 37c46 0 97 -10.667 153 -32l-16 -88c-66 25.333 -123.667 33.333 -173 24c-21.333 -4 -36.166 -12 -44.499 -24s-8.5 -25.167 -0.5 -39.5
s23.667 -27.166 47 -38.499c8.66699 -4 23.834 -10.333 45.501 -19s42 -17.667 61 -27s36.5 -19.666 52.5 -30.999zM287.997 87.998c41.333 0 77 15 107 45s45 65.667 45 107s-15 77 -45 107s-65.667 45 -107 45s-77 -15 -107 -45s-45 -65.667 -45 -107s15 -77 45 -107
s65.667 -45 107 -45z" />
    <glyph glyph-name="epsilon" unicode="&#x3b5;" horiz-adv-x="480" 
d="M276 88c46.667 2 88.002 15.6689 124.002 41.002l40 -76c-46 -40.667 -105.667 -61 -179 -61c-60.667 0 -110 12.167 -148 36.5s-57 62.166 -57 113.499c0 23.333 6.83301 44.5 20.5 63.5s32.5 33.167 56.5 42.5c-22.667 8.66699 -39.834 22.167 -51.501 40.5
s-17.5 38.166 -17.5 59.499c0 46.667 17.167 81.667 51.5 105s79.833 35 136.5 35c68 0 129.333 -20.667 184 -62l-44 -76c-40.667 26.667 -84 40.667 -130 42c-32.667 0.666992 -57.834 -4.33301 -75.501 -15s-26.5 -22.667 -26.5 -36c0 -18.667 13 -33.5 39 -44.5
s63.667 -16.5 113 -16.5v-80c-48 0 -86.667 -4.83301 -116 -14.5s-44 -24.167 -44 -43.5s11.5 -33.5 34.5 -42.5s52.833 -12.833 89.5 -11.5z" />
    <glyph glyph-name="zeta" unicode="&#x3b6;" horiz-adv-x="496" 
d="M456 576c-85.333 -52 -157.332 -112.165 -215.999 -180.498s-88 -129.5 -88 -183.5c0 -43.333 11 -75.5 33 -96.5s48.667 -33.167 80 -36.5s62.666 -5.5 93.999 -6.5s58 -8.16699 80 -21.5s33 -36.333 33 -69c0 -22 -5.33301 -48 -16 -78h-80
c7.33301 28 8.16602 49.667 2.49902 65s-19.834 23 -42.501 23c-44.667 0 -82.167 2.33301 -112.5 7s-59.166 13.667 -86.499 27s-47.666 33.666 -60.999 60.999s-20 62.333 -20 105c0 61.333 25.5 127.166 76.5 197.499s114.5 132.5 190.5 186.5h-219v96h352v-96z" />
    <glyph glyph-name="eta" unicode="&#x3b7;" horiz-adv-x="560" 
d="M318 488c58 0 103.499 -18 136.499 -54s49.5 -88.667 49.5 -158v-532h-96v524c0 40.667 -8.16699 71.5 -24.5 92.5s-44.166 31.5 -83.499 31.5c-32 0 -62 -11.833 -90 -35.5s-42 -54.5 -42 -92.5v-264h-96v480h96v-56c37.333 42.667 87.333 64 150 64z" />
    <glyph glyph-name="theta" unicode="&#x3b8;" horiz-adv-x="576" 
d="M288 680c71.333 0 127.833 -32.667 169.5 -98s62.5 -147.333 62.5 -246s-20.833 -180.667 -62.5 -246s-98.167 -98 -169.5 -98c-72 0 -128.667 32.667 -170 98s-62 147.333 -62 246s20.667 180.667 62 246s98 98 170 98zM288 584c-38.667 0 -70.167 -21.167 -94.5 -63.5
s-37.833 -95.833 -40.5 -160.5h270c-2.66699 64.667 -16.167 118.167 -40.5 160.5s-55.833 63.5 -94.5 63.5zM288 88c38.667 0 70.167 21.167 94.5 63.5s37.833 95.833 40.5 160.5h-270c2.66699 -64.667 16.167 -118.167 40.5 -160.5s55.833 -63.5 94.5 -63.5z" />
    <glyph glyph-name="iota" unicode="&#x3b9;" horiz-adv-x="272" 
d="M168 480v-336c0 -29.333 4.33301 -48.5 13 -57.5s25.667 -11.167 51 -6.5v-80c-20 -5.33301 -41 -8 -63 -8c-64.667 0 -97 44.333 -97 133v355h96z" />
    <glyph glyph-name="kappa" unicode="&#x3ba;" horiz-adv-x="512" 
d="M248 248l256 -248h-128l-208 204v-204h-96v480h96v-196l192 196h128z" />
    <glyph glyph-name="lambda" unicode="&#x3bb;" horiz-adv-x="592" 
d="M427 168c27.333 -72.667 68.998 -102.001 124.998 -88.001v-80c-13.333 -5.33301 -30.666 -8 -51.999 -8c-48.667 0 -86.5 17.333 -113.5 52s-52.833 88.334 -77.5 161.001l-41 121l-123 -326h-105l178 449l-39 95c-30 72 -71 101.333 -123 88v80
c13.333 5.33301 31.333 8 54 8c17.333 0 33.333 -3 48 -9s28.334 -15.5 41.001 -28.5s23.5 -25.667 32.5 -38s18.5 -29.333 28.5 -51s17.667 -39 23 -52l22 -55.5z" />
    <glyph glyph-name="uni03BC" unicode="&#x3bc;" horiz-adv-x="576" 
d="M408 480h96.001v-480h-96v56c-37.333 -42.667 -87.333 -64 -150 -64c-34.667 0 -64.667 6.33301 -90 19v-267h-96v736h96v-268c0 -40.667 8.16699 -71.5 24.5 -92.5s44.166 -31.5 83.499 -31.5c32 0 62 11.833 90 35.5s42 54.5 42 92.5v264z" />
    <glyph glyph-name="nu" unicode="&#x3bd;" horiz-adv-x="480" 
d="M240 -16l-232 496h104l128 -280l128 280h104z" />
    <glyph glyph-name="xi" unicode="&#x3be;" horiz-adv-x="528" 
d="M152 177c0 -25.333 10 -45.8291 30 -61.4961s49 -24.834 87 -27.501c5.33301 -0.666992 17.5 -1.33398 36.5 -2.00098s33.833 -1.5 44.5 -2.5s25 -2.66699 43 -5s32.5 -5.83301 43.5 -10.5s22.333 -10.667 34 -18s20.167 -16.833 25.5 -28.5s8 -24.834 8 -39.501
c0 -25.333 -5.33301 -51.333 -16 -78h-80c6.66699 31.333 3.83398 53.833 -8.49902 67.5s-44.5 20.5 -96.5 20.5c-86 0 -148.667 15.5 -188 46.5s-59 77.167 -59 138.5c0 36 11.833 69 35.5 99s55.167 54 94.5 72c-78 31.333 -116 88.666 -114 171.999
c1.33301 60.667 22.833 109.167 64.5 145.5s97.5 54.5 167.5 54.5c30.667 0 61.167 -6 91.5 -18s55.833 -27.333 76.5 -46l-32 -80c-40.667 32 -86 48 -136 48c-45.333 0 -79.333 -10.167 -102 -30.5s-34 -46.833 -34 -79.5c0 -42 21.167 -73.5 63.5 -94.5
s101.166 -31.5 176.499 -31.5v-88c-75.333 0 -136.833 -11 -184.5 -33s-71.5 -52 -71.5 -90z" />
    <glyph glyph-name="omicron" unicode="&#x3bf;" horiz-adv-x="576" 
d="M288 488c68.667 0 127.167 -24.167 175.5 -72.5s72.5 -106.833 72.5 -175.5s-24.167 -127.167 -72.5 -175.5s-106.833 -72.5 -175.5 -72.5s-127.167 24.167 -175.5 72.5s-72.5 106.833 -72.5 175.5s24.167 127.167 72.5 175.5s106.833 72.5 175.5 72.5zM288 88
c41.333 0 77 15 107 45s45 65.667 45 107s-15 77 -45 107s-65.667 45 -107 45s-77 -15 -107 -45s-45 -65.667 -45 -107s15 -77 45 -107s65.667 -45 107 -45z" />
    <glyph glyph-name="pi" unicode="&#x3c0;" 
d="M552 384h-80v-240c0 -29.333 4.33301 -48.5 13 -57.5s25.667 -11.167 51 -6.5v-80c-20 -5.33301 -41 -8 -63 -8c-64.667 0 -97 44.333 -97 133v259h-176v-384h-96v384h-64v96h512v-96z" />
    <glyph glyph-name="rho" unicode="&#x3c1;" 
d="M320 488c68.667 0 127.168 -24.167 175.501 -72.5s72.5 -106.833 72.5 -175.5c0 -68 -23.833 -126.333 -71.5 -175s-103.834 -73 -168.501 -73c-66 0 -119.333 21.667 -160 65v-313h-96v496c0 68.667 24.167 127.167 72.5 175.5s106.833 72.5 175.5 72.5zM320.001 88
c41.333 0 77 15 107 45s45 65.667 45 107s-15 77 -45 107s-65.667 45 -107 45s-77 -15 -107 -45s-45 -65.667 -45 -107s15 -77 45 -107s65.667 -45 107 -45z" />
    <glyph glyph-name="uni03C2" unicode="&#x3c2;" horiz-adv-x="528" 
d="M297 88c26.667 -0.666992 49.5 -2.33203 68.5 -4.99902s40.333 -7.33398 64 -14.001s42 -17.334 55 -32.001s19.5 -33 19.5 -55c0 -25.333 -5.33301 -51.333 -16 -78h-80c4 18.667 6.16699 34.5 6.5 47.5s-8 23 -25 30s-45.5 10.5 -85.5 10.5
c-82.667 0 -147.334 23.5 -194.001 70.5s-70 106.167 -70 177.5c0 70.667 23.333 129.667 70 177s108.667 71 186 71c66 0 119.333 -18.333 160 -55l-41 -89c-33.333 32 -72.666 48 -117.999 48c-44 0 -81.833 -14.833 -113.5 -44.5s-47.5 -65.167 -47.5 -106.5
c0 -43.333 14.167 -79.166 42.5 -107.499s67.833 -43.5 118.5 -45.5z" />
    <glyph glyph-name="sigma" unicode="&#x3c3;" 
d="M568 480v-96.001h-99c20.667 -15.333 37 -37.166 49 -65.499s18 -58.5 18 -90.5c0 -64 -24.333 -119.333 -73 -166s-107 -70 -175 -70c-68.667 0 -127.167 23.833 -175.5 71.5s-72.5 105.167 -72.5 172.5s24.167 124.833 72.5 172.5s106.833 71.5 175.5 71.5h280z
M288 87.999c41.333 0 77 14.5 107 43.5s45 63.833 45 104.5s-15 75.5 -45 104.5s-65.667 43.5 -107 43.5s-77 -14.5 -107 -43.5s-45 -63.833 -45 -104.5s15 -75.5 45 -104.5s65.667 -43.5 107 -43.5z" />
    <glyph glyph-name="tau" unicode="&#x3c4;" horiz-adv-x="464" 
d="M424 384h-144v-240c0 -29.333 4.33301 -48.5 13 -57.5s25.667 -11.167 51 -6.5v-80c-20 -5.33301 -41 -8 -63 -8c-64.667 0 -97 44.333 -97 133v259h-144v96h384v-96z" />
    <glyph glyph-name="upsilon" unicode="&#x3c5;" horiz-adv-x="544" 
d="M440 480c32 -91.333 47.999 -167.334 47.999 -228.001c0 -79.333 -19.5 -142.5 -58.5 -189.5s-91.5 -70.5 -157.5 -70.5c-70.667 0 -124.334 21.333 -161.001 64s-55 104 -55 184v240h96v-266c0 -40 11.333 -71 34 -93s51.334 -33 86.001 -33
c38.667 0 68.334 13.833 89.001 41.5s31 63.834 31 108.501c0 68 -16 148.667 -48 242h96z" />
    <glyph glyph-name="phi" unicode="&#x3c6;" horiz-adv-x="656" 
d="M376 512c70.667 -8 128.334 -35.667 173.001 -83s67 -106.333 67 -177s-22.333 -129.667 -67 -177s-102.334 -75 -173.001 -83v-248h-96v248c-70.667 8 -128.334 35.667 -173.001 83s-67 106.333 -67 177s22.333 129.667 67 177s102.334 75 173.001 83v192h96v-192z
M280 84v336c-42 -6 -76.5 -23.5 -103.5 -52.5s-40.5 -67.5 -40.5 -115.5s13.5 -86.5 40.5 -115.5s61.5 -46.5 103.5 -52.5zM520 252c0 48 -13.5 86.5 -40.5 115.5s-61.5 46.5 -103.5 52.5v-336c42 6 76.5 23.5 103.5 52.5s40.5 67.5 40.5 115.5z" />
    <glyph glyph-name="chi" unicode="&#x3c7;" horiz-adv-x="528" 
d="M321 255l183 -255h-114l-126 181l-126 -181h-114l183 255l-168 225h114l111 -158l111 158h114z" />
    <glyph glyph-name="psi" unicode="&#x3c8;" horiz-adv-x="720" 
d="M568 480h96v-218c0 -82.667 -22.833 -146.167 -68.5 -190.5s-108.167 -70.833 -187.5 -79.5v-248h-96v248c-79.333 8.66699 -141.833 35.167 -187.5 79.5s-68.5 107.833 -68.5 190.5v218h96v-222c0 -29.333 5 -55 15 -77s23.5 -39.167 40.5 -51.5s34 -21.833 51 -28.5
s34.833 -11 53.5 -13v392h96v-392c18.667 2 36.5 6.33301 53.5 13s34 16.167 51 28.5s30.5 29.5 40.5 51.5s15 47.667 15 77v222z" />
    <glyph glyph-name="omega" unicode="&#x3c9;" horiz-adv-x="720" 
d="M607 480c38 -81.333 56.9941 -160 56.9941 -236c0 -83.333 -17 -146.166 -51 -188.499s-78.333 -63.5 -133 -63.5c-19.333 0 -36.666 3.16699 -51.999 9.5s-27.166 13 -35.499 20s-19.166 17.5 -32.499 31.5c-13.333 -14 -24.166 -24.5 -32.499 -31.5
s-20.166 -13.667 -35.499 -20s-32.666 -9.5 -51.999 -9.5c-55.333 0 -99.833 21.167 -133.5 63.5s-50.5 105.166 -50.5 188.499c0 76 19 154.667 57 236h90c-34 -89.333 -51 -170 -51 -242c0 -46.667 8.16699 -83.334 24.5 -110.001s37.5 -40 63.5 -40c48 0 72 31.333 72 94
v234h96v-234c0 -62.667 24 -94 72 -94c26 0 47.167 13.333 63.5 40s24.5 63.334 24.5 110.001c0 72 -17 152.667 -51 242h90z" />
    <glyph glyph-name="iotadieresis" unicode="&#x3ca;" horiz-adv-x="272" 
d="M32 544c-15.333 0 -28.5 5.5 -39.5 16.5s-16.5 24.167 -16.5 39.5c0 16 5.5 29.333 16.5 40s24.167 16 39.5 16c16 0 29.333 -5.33301 40 -16s16 -24 16 -40c0 -15.333 -5.33301 -28.5 -16 -39.5s-24 -16.5 -40 -16.5zM208 544c-15.333 0 -28.5 5.5 -39.5 16.5
s-16.5 24.167 -16.5 39.5c0 16 5.5 29.333 16.5 40s24.167 16 39.5 16c16 0 29.333 -5.33301 40 -16s16 -24 16 -40c0 -15.333 -5.33301 -28.5 -16 -39.5s-24 -16.5 -40 -16.5zM168 480v-336c0 -29.333 4.33301 -48.5 13 -57.5s25.667 -11.167 51 -6.5v-80
c-20 -5.33301 -41 -8 -63 -8c-64.667 0 -97 44.333 -97 133v355h96z" />
    <glyph glyph-name="upsilondieresis" unicode="&#x3cb;" horiz-adv-x="544" 
d="M152 544c-15.333 0 -28.5 5.5 -39.5 16.5s-16.5 24.167 -16.5 39.5c0 16 5.5 29.333 16.5 40s24.167 16 39.5 16c16 0 29.333 -5.33301 40 -16s16 -24 16 -40c0 -15.333 -5.33301 -28.5 -16 -39.5s-24 -16.5 -40 -16.5zM328 544c-15.333 0 -28.5 5.5 -39.5 16.5
s-16.5 24.167 -16.5 39.5c0 16 5.5 29.333 16.5 40s24.167 16 39.5 16c16 0 29.333 -5.33301 40 -16s16 -24 16 -40c0 -15.333 -5.33301 -28.5 -16 -39.5s-24 -16.5 -40 -16.5zM440 480c32 -91.333 47.999 -167.334 47.999 -228.001c0 -79.333 -19.5 -142.5 -58.5 -189.5
s-91.5 -70.5 -157.5 -70.5c-70.667 0 -124.334 21.333 -161.001 64s-55 104 -55 184v240h96v-266c0 -40 11.333 -71 34 -93s51.334 -33 86.001 -33c38.667 0 68.334 13.833 89.001 41.5s31 63.834 31 108.501c0 68 -16 148.667 -48 242h96z" />
    <glyph glyph-name="omicrontonos" unicode="&#x3cc;" horiz-adv-x="576" 
d="M248 544l32 128h96l-80 -128h-48zM288 488c68.667 0 127.167 -24.167 175.5 -72.5s72.5 -106.833 72.5 -175.5s-24.167 -127.167 -72.5 -175.5s-106.833 -72.5 -175.5 -72.5s-127.167 24.167 -175.5 72.5s-72.5 106.833 -72.5 175.5s24.167 127.167 72.5 175.5
s106.833 72.5 175.5 72.5zM288 88c41.333 0 77 15 107 45s45 65.667 45 107s-15 77 -45 107s-65.667 45 -107 45s-77 -15 -107 -45s-45 -65.667 -45 -107s15 -77 45 -107s65.667 -45 107 -45z" />
    <glyph glyph-name="upsilontonos" unicode="&#x3cd;" horiz-adv-x="544" 
d="M200 544l32 128h96l-80 -128h-48zM440 480c32 -91.333 47.999 -167.334 47.999 -228.001c0 -79.333 -19.5 -142.5 -58.5 -189.5s-91.5 -70.5 -157.5 -70.5c-70.667 0 -124.334 21.333 -161.001 64s-55 104 -55 184v240h96v-266c0 -40 11.333 -71 34 -93
s51.334 -33 86.001 -33c38.667 0 68.334 13.833 89.001 41.5s31 63.834 31 108.501c0 68 -16 148.667 -48 242h96z" />
    <glyph glyph-name="omegatonos" unicode="&#x3ce;" horiz-adv-x="720" 
d="M320 544l32 128h96l-80 -128h-48zM607 480c38 -81.333 56.9941 -160 56.9941 -236c0 -83.333 -17 -146.166 -51 -188.499s-78.333 -63.5 -133 -63.5c-19.333 0 -36.666 3.16699 -51.999 9.5s-27.166 13 -35.499 20s-19.166 17.5 -32.499 31.5
c-13.333 -14 -24.166 -24.5 -32.499 -31.5s-20.166 -13.667 -35.499 -20s-32.666 -9.5 -51.999 -9.5c-55.333 0 -99.833 21.167 -133.5 63.5s-50.5 105.166 -50.5 188.499c0 76 19 154.667 57 236h90c-34 -89.333 -51 -170 -51 -242
c0 -46.667 8.16699 -83.334 24.5 -110.001s37.5 -40 63.5 -40c48 0 72 31.333 72 94v234h96v-234c0 -62.667 24 -94 72 -94c26 0 47.167 13.333 63.5 40s24.5 63.334 24.5 110.001c0 72 -17 152.667 -51 242h90z" />
    <glyph glyph-name="uni0401" unicode="&#x401;" horiz-adv-x="512" 
d="M168 736c-15.333 0 -28.5 5.5 -39.5 16.5s-16.5 24.167 -16.5 39.5c0 16 5.5 29.333 16.5 40s24.167 16 39.5 16c16 0 29.333 -5.33301 40 -16s16 -24 16 -40c0 -15.333 -5.33301 -28.5 -16 -39.5s-24 -16.5 -40 -16.5zM344 736c-15.333 0 -28.5 5.5 -39.5 16.5
s-16.5 24.167 -16.5 39.5c0 16 5.5 29.333 16.5 40s24.167 16 39.5 16c16 0 29.333 -5.33301 40 -16s16 -24 16 -40c0 -15.333 -5.33301 -28.5 -16 -39.5s-24 -16.5 -40 -16.5zM456 576h-288v-192h240v-96h-240v-192h288v-96h-384v672h384v-96z" />
    <glyph glyph-name="uni0402" unicode="&#x402;" horiz-adv-x="672" 
d="M416 400c68.667 0 119.167 -17.999 151.5 -53.999s48.5 -90 48.5 -162v-34c0 -30 -2.33301 -57.167 -7 -81.5s-10.334 -44.5 -17.001 -60.5s-15.667 -30.333 -27 -43s-21.5 -22.334 -30.5 -29.001s-20.333 -12.5 -34 -17.5s-24.334 -8.16699 -32.001 -9.5l-28.5 -5
l-24 88c32.667 6.66699 58.167 20.667 76.5 42s27.5 55.333 27.5 102v40c0 49.333 -9.16699 84.333 -27.5 105s-49.166 31 -92.499 31c-45.333 0 -90.666 -13.333 -135.999 -40v-272h-96v576h-128v96h416v-96h-192v-216c48 26.667 98.667 40 152 40z" />
    <glyph glyph-name="uni0403" unicode="&#x403;" horiz-adv-x="496" 
d="M168 736l80 128h112l-128 -128h-64zM456 576h-288v-576h-96v672h384v-96z" />
    <glyph glyph-name="uni0404" unicode="&#x404;" horiz-adv-x="640" 
d="M384 88c70 0 128.334 24.332 175.001 72.999l41 -90c-27.333 -25.333 -59.833 -44.833 -97.5 -58.5s-75.167 -20.5 -112.5 -20.5c-96.667 0 -179.167 33.667 -247.5 101s-102.5 148.333 -102.5 243s34.167 175.667 102.5 243s150.833 101 247.5 101
c38 0 75.667 -6.66699 113 -20s69.666 -32.666 96.999 -57.999l-41 -90c-46.667 48 -105 72 -175 72c-61.333 0 -115.166 -19.833 -161.499 -59.5s-74.166 -89.167 -83.499 -148.5h301v-80h-301c9.33301 -59.333 37.166 -108.833 83.499 -148.5s100.166 -59.5 161.499 -59.5
z" />
    <glyph glyph-name="uni0405" unicode="&#x405;" horiz-adv-x="592" 
d="M311 392c83.333 -16 144.336 -38.8379 183.003 -68.5049s58 -71.834 58 -126.501c0 -60 -23 -109.167 -69 -147.5s-107.667 -57.5 -185 -57.5c-37.333 0 -72.5 4.83301 -105.5 14.5s-60.333 21.834 -82 36.501s-37.5 26.334 -47.5 35.001s-17.667 16.334 -23 23.001
l48 86c59.333 -66 130 -99 212 -99c50 0 88.5 9.33301 115.5 28s40.5 44.334 40.5 77.001c0 50.667 -51 85 -153 103c-88.667 15.333 -150.834 38.5 -186.501 69.5s-53.5 70.833 -53.5 119.5c0 56.667 21.333 103.334 64 140.001s102 55 178 55
c87.333 0 159.666 -26.667 216.999 -80l-46 -87c-48.667 47.333 -106.334 71 -173.001 71c-46 0 -81.5 -8.33301 -106.5 -25s-37.5 -40 -37.5 -70c0 -25.333 11.667 -45.166 35 -59.499s62.333 -26.833 117 -37.5z" />
    <glyph glyph-name="uni0406" unicode="&#x406;" horiz-adv-x="240" 
d="M168 0h-96v672h96v-672z" />
    <glyph glyph-name="uni0407" unicode="&#x407;" horiz-adv-x="240" 
d="M32 736c-15.333 0 -28.5 5.5 -39.5 16.5s-16.5 24.167 -16.5 39.5c0 16 5.5 29.333 16.5 40s24.167 16 39.5 16c16 0 29.333 -5.33301 40 -16s16 -24 16 -40c0 -15.333 -5.33301 -28.5 -16 -39.5s-24 -16.5 -40 -16.5zM208 736c-15.333 0 -28.5 5.5 -39.5 16.5
s-16.5 24.167 -16.5 39.5c0 16 5.5 29.333 16.5 40s24.167 16 39.5 16c16 0 29.333 -5.33301 40 -16s16 -24 16 -40c0 -15.333 -5.33301 -28.5 -16 -39.5s-24 -16.5 -40 -16.5zM168 0h-96v672h96v-672z" />
    <glyph glyph-name="uni0408" unicode="&#x408;" horiz-adv-x="464" 
d="M312 672h96.001v-416c0 -88 -20.333 -154 -61 -198s-95 -66 -163 -66c-28 0 -55.833 6.33301 -83.5 19s-47.834 27 -60.501 43l48 82c22 -32 54 -48 96 -48c43.333 0 75.5 14.167 96.5 42.5s31.5 67.5 31.5 117.5v424z" />
    <glyph glyph-name="uni0409" unicode="&#x409;" horiz-adv-x="1024" 
d="M742 384c81.333 0 142.001 -17.335 182.001 -52.002s60 -81 60 -139c0 -58.667 -20.333 -105.5 -61 -140.5s-103 -52.5 -187 -52.5h-200v576h-256v-296c0 -36.667 -0.333008 -63.667 -1 -81s-2.66699 -39.166 -6 -65.499s-8.5 -46.333 -15.5 -60
s-17.333 -27.167 -31 -40.5s-30.834 -23.666 -51.501 -30.999c-38 -13.333 -77.667 -14 -119 -2v96c15.333 -5.33301 32 -7.33301 50 -6s32.333 5.33301 43 12c23.333 14.667 35 45.667 35 93v477h448v-288h110zM745.001 95.998c42.667 0 77.167 7.66699 103.5 23
s39.5 40 39.5 74c0 63.333 -48.667 95 -146 95h-110v-192h113z" />
    <glyph glyph-name="uni040A" unicode="&#x40a;" horiz-adv-x="976" 
d="M694 384c81.333 0 142 -17.333 182 -52s60 -81 60 -139c0 -58.667 -20.333 -105.5 -61 -140.5s-103 -52.5 -187 -52.5h-200v288h-320v-288h-96v672h96v-288h320v288h96v-288h110zM697 96c42.667 0 77.167 7.66699 103.5 23s39.5 40 39.5 74c0 63.333 -48.667 95 -146 95
h-110v-192h113z" />
    <glyph glyph-name="uni040B" unicode="&#x40b;" horiz-adv-x="672" 
d="M416 400c68.667 0 119.165 -18 151.498 -54s48.5 -90 48.5 -162v-184h-96v176c0 49.333 -9.16699 84.333 -27.5 105s-49.166 31 -92.499 31c-45.333 0 -90.666 -13.333 -135.999 -40v-272h-96v576h-128v96h416v-96h-192v-216c48 26.667 98.667 40 152 40z" />
    <glyph glyph-name="uni040C" unicode="&#x40c;" horiz-adv-x="592" 
d="M192 736l80 128h112l-128 -128h-64zM256 343l312 -343h-128l-272 296v-296h-96v672h96v-296l256 296h128z" />
    <glyph glyph-name="uni040E" unicode="&#x40e;" 
d="M384 864h56c0 -35.333 -12.5 -65.5 -37.5 -90.5s-55.167 -37.5 -90.5 -37.5s-65.5 12.5 -90.5 37.5s-37.5 55.167 -37.5 90.5h56c0 -20 7 -37 21 -51s31 -21 51 -21s37 7 51 21s21 31 21 51zM492 672h108l-380 -672h-108l150 258l-238 414h108l180 -329z" />
    <glyph glyph-name="uni040F" unicode="&#x40f;" horiz-adv-x="656" 
d="M488 672h96v-672h-208v-128h-96v128h-208v672h96v-576h320v576z" />
    <glyph glyph-name="uni0410" unicode="&#x410;" horiz-adv-x="656" 
d="M544 0l-65 144h-302l-65 -144h-104l320 688l320 -688h-104zM221 240h214l-107 236z" />
    <glyph glyph-name="uni0411" unicode="&#x411;" horiz-adv-x="592" 
d="M302 424c82 0 144.167 -18.833 186.5 -56.5s63.5 -89.167 63.5 -154.5c0 -66 -21.5 -118 -64.5 -156s-106.833 -57 -191.5 -57h-224v672h416v-96h-320v-152h134zM313 96c95.333 0 143 39 143 117c0 76.667 -48.667 115 -146 115h-142v-232h145z" />
    <glyph glyph-name="uni0412" unicode="&#x412;" horiz-adv-x="576" 
d="M424 361c37.333 -8.66699 65.334 -28.167 84.001 -58.5s28 -63.833 28 -100.5c0 -59.333 -19.5 -107.833 -58.5 -145.5s-91.5 -56.5 -157.5 -56.5h-248v672h201c73.333 0 130.166 -15 170.499 -45s60.5 -73.667 60.5 -131c0 -32.667 -7.66699 -61.167 -23 -85.5
s-34.333 -40.833 -57 -49.5zM168.001 576v-168h120c80 0 120 28 120 84s-40 84 -120 84h-120zM304.001 96c42.667 0 76 9 100 27s36 45 36 81s-12 63 -36 81s-57.333 27 -100 27h-136v-216h136z" />
    <glyph glyph-name="uni0413" unicode="&#x413;" horiz-adv-x="496" 
d="M456 576h-288v-576h-96v672h384v-96z" />
    <glyph glyph-name="uni0414" unicode="&#x414;" horiz-adv-x="752" 
d="M600 96l95.999 0.000976562v-224h-96v128h-464v-128h-96v224c15.333 8.66699 29 17.5 41 26.5s23 19.833 33 32.5s18.5 24.167 25.5 34.5s13.333 24.666 19 42.999l14 46.5c3.66699 12.667 6.83398 32.167 9.50098 58.5s4.66699 48 6 65s2.33301 43.167 3 78.5
s1 64.5 1 87.5v103.5h408v-576zM194.999 96.001l309.001 0.000976562v480h-216c0 -124 -6.33301 -223.833 -19 -299.5s-37.334 -135.834 -74.001 -180.501z" />
    <glyph glyph-name="uni0415" unicode="&#x415;" horiz-adv-x="512" 
d="M456 576h-288v-192h240v-96h-240v-192h288v-96h-384v672h384v-96z" />
    <glyph glyph-name="uni0416" unicode="&#x416;" horiz-adv-x="944" 
d="M611 353l309 -353h-128l-247 284l-25 -28v-256h-96v256l-25 28l-247 -284h-128l309 353l-293 319h128l256 -288v288h96v-288l256 288h128z" />
    <glyph glyph-name="uni0417" unicode="&#x417;" horiz-adv-x="560" 
d="M216 292l0.00195312 87.999c54 0 99.5 9 136.5 27s55.5 45 55.5 81c0 31.333 -12.667 55.166 -38 71.499s-59.333 24.5 -102 24.5c-64 0 -121.333 -24 -172 -72l-42 80c60 58.667 132.667 88 218 88c66.667 0 122 -17.167 166 -51.5s66 -81.166 66 -140.499
c0 -29.333 -7.83301 -57.333 -23.5 -84s-38.834 -46 -69.501 -58c34.667 -11.333 61.5 -30.666 80.5 -57.999s28.5 -59.333 28.5 -96c0 -62 -23.167 -110.833 -69.5 -146.5s-105.5 -53.5 -177.5 -53.5c-95.333 0 -173 30.667 -233 92l48 82c44 -52 104 -78 180 -78
c44 0 81 9.16699 111 27.5s45 43.833 45 76.5c0 20 -5.5 36.833 -16.5 50.5s-26.833 24 -47.5 31s-42.334 11.833 -65.001 14.5s-49 4 -79 4z" />
    <glyph glyph-name="uni0418" unicode="&#x418;" horiz-adv-x="704" 
d="M72 -16v688h96v-460l464 476v-688h-96v460z" />
    <glyph glyph-name="uni0419" unicode="&#x419;" horiz-adv-x="704" 
d="M424 864h56c0 -35.333 -12.5 -65.5 -37.5 -90.5s-55.167 -37.5 -90.5 -37.5s-65.5 12.5 -90.5 37.5s-37.5 55.167 -37.5 90.5h56c0 -20 7 -37 21 -51s31 -21 51 -21s37 7 51 21s21 31 21 51zM72 -16v688h96v-460l464 476v-688h-96v460z" />
    <glyph glyph-name="uni041A" unicode="&#x41a;" horiz-adv-x="592" 
d="M256 343l312 -343h-128l-272 296v-296h-96v672h96v-296l256 296h128z" />
    <glyph glyph-name="uni041B" unicode="&#x41b;" horiz-adv-x="704" 
d="M632 672l0.000976562 -672.002h-96v576h-256v-296c0 -36.667 -0.333008 -63.667 -1 -81s-2.66699 -39.166 -6 -65.499s-8.5 -46.333 -15.5 -60s-17.333 -27.167 -31 -40.5s-30.834 -23.666 -51.501 -30.999c-38 -13.333 -77.667 -14 -119 -2v96
c15.333 -5.33301 32 -7.33301 50 -6s32.333 5.33301 43 12c23.333 14.667 35 45.667 35 93v477h448z" />
    <glyph glyph-name="uni041C" unicode="&#x41c;" horiz-adv-x="832" 
d="M416 -16l-214 414l-64 -398h-98l114 688l262 -508l262 508l114 -688h-98l-64 398z" />
    <glyph glyph-name="uni041D" unicode="&#x41d;" horiz-adv-x="656" 
d="M488 672h96v-672h-96v288h-320v-288h-96v672h96v-288h320v288z" />
    <glyph glyph-name="uni041E" unicode="&#x41e;" horiz-adv-x="768" 
d="M384 680c94.667 0 175.667 -33.667 243 -101s101 -148.333 101 -243s-33.667 -175.667 -101 -243s-148.333 -101 -243 -101s-175.667 33.667 -243 101s-101 148.333 -101 243s33.667 175.667 101 243s148.333 101 243 101zM384 88c69.333 0 128 24 176 72
s72 106.667 72 176s-24 128 -72 176s-106.667 72 -176 72s-128 -24 -176 -72s-72 -106.667 -72 -176s24 -128 72 -176s106.667 -72 176 -72z" />
    <glyph glyph-name="uni041F" unicode="&#x41f;" horiz-adv-x="656" 
d="M584 672v-672h-96v576h-320v-576h-96v672h512z" />
    <glyph glyph-name="uni0420" unicode="&#x420;" horiz-adv-x="576" 
d="M280 672c84.667 0 148.5 -19.332 191.5 -57.999s64.5 -91 64.5 -157c0 -64.667 -20.333 -118.334 -61 -161.001s-95.667 -64 -165 -64h-142v-232h-96v672h208zM311 328.001c38 0 69 10.168 93 30.501s36 51.166 36 92.499s-13 72.5 -39 93.5s-58 31.5 -96 31.5h-137v-248
h143z" />
    <glyph glyph-name="uni0421" unicode="&#x421;" horiz-adv-x="640" 
d="M384 88c70 0 128.334 24.332 175.001 72.999l41 -90c-27.333 -25.333 -59.833 -44.833 -97.5 -58.5s-75.167 -20.5 -112.5 -20.5c-96.667 0 -179.167 33.667 -247.5 101s-102.5 148.333 -102.5 243s34.167 175.667 102.5 243s150.833 101 247.5 101
c38 0 75.667 -6.66699 113 -20s69.666 -32.666 96.999 -57.999l-41 -90c-46.667 48 -105 72 -175 72c-68.667 0 -127.167 -24.167 -175.5 -72.5s-72.5 -106.833 -72.5 -175.5s24.167 -127.167 72.5 -175.5s106.833 -72.5 175.5 -72.5z" />
    <glyph glyph-name="uni0422" unicode="&#x422;" horiz-adv-x="528" 
d="M40 672h448v-96h-176v-576h-96v576h-176v96z" />
    <glyph glyph-name="uni0423" unicode="&#x423;" 
d="M492 672h108l-380 -672h-108l150 258l-238 414h108l180 -329z" />
    <glyph glyph-name="uni0424" unicode="&#x424;" horiz-adv-x="784" 
d="M744 352c0 -82 -29.167 -150.5 -87.5 -205.5s-130.5 -82.5 -216.5 -82.5v-64h-96v64c-86 0 -158.167 27.5 -216.5 82.5s-87.5 123.5 -87.5 205.5c0 83.333 29.5 152.166 88.5 206.499s130.833 81.5 215.5 81.5v64h96v-64c84.667 0 156.5 -27.167 215.5 -81.5
s88.5 -123.166 88.5 -206.499zM344 156v392c-58.667 0 -108 -16.167 -148 -48.5s-60 -81.5 -60 -147.5c0 -66.667 19.833 -116 59.5 -148s89.167 -48 148.5 -48zM440 156c60 0 109.667 16 149 48s59 81.333 59 148s-19.667 116 -59 148s-89 48 -149 48v-392z" />
    <glyph glyph-name="uni0425" unicode="&#x425;" horiz-adv-x="656" 
d="M632 0h-116l-188 271l-188 -271h-116l244 347l-228 325h115l173 -250l173 250h115l-228 -325z" />
    <glyph glyph-name="uni0426" unicode="&#x426;" horiz-adv-x="736" 
d="M584 96h96v-224h-96v128h-512v672h96v-576h320v576h96v-576z" />
    <glyph glyph-name="uni0427" unicode="&#x427;" 
d="M280 232c-28 0 -54.501 3.66797 -79.501 11.001s-48.667 19 -71 35s-40.166 39.333 -53.499 70s-20 66.667 -20 108v216h96v-208c0 -48.667 13 -83.5 39 -104.5s63.667 -31.5 113 -31.5c23.333 0 46.333 2.66699 69 8s39.667 10.666 51 15.999l16 8v312h96v-672h-96v268
c-54 -24 -107.333 -36 -160 -36z" />
    <glyph glyph-name="uni0428" unicode="&#x428;" horiz-adv-x="896" 
d="M728 672h96v-672h-752v672h96v-576h232v576h96v-576h232v576z" />
    <glyph glyph-name="uni0429" unicode="&#x429;" horiz-adv-x="976" 
d="M824 96h96v-224h-96v128h-752v672h96v-576h232v576h96v-576h232v576h96v-576z" />
    <glyph glyph-name="uni042A" unicode="&#x42a;" horiz-adv-x="672" 
d="M382 424c82 0 144.167 -18.833 186.5 -56.5s63.5 -89.167 63.5 -154.5c0 -66 -21.5 -118 -64.5 -156s-106.833 -57 -191.5 -57h-208v576h-128v96h224v-248h118zM393 96c95.333 0 143 39 143 117c0 76.667 -48.667 115 -146 115h-126v-232h129z" />
    <glyph glyph-name="uni042B" unicode="&#x42b;" horiz-adv-x="800" 
d="M286 424c82 0 144.167 -18.833 186.5 -56.5s63.5 -89.167 63.5 -154.5c0 -66 -21.5 -118 -64.5 -156s-106.833 -57 -191.5 -57h-208v672h96v-248h118zM728 0h-96v672h96v-672zM297 96c95.333 0 143 39 143 117c0 76.667 -48.667 115 -146 115h-126v-232h129z" />
    <glyph glyph-name="uni042C" unicode="&#x42c;" horiz-adv-x="576" 
d="M286 424c82 0 144.167 -18.833 186.5 -56.5s63.5 -89.167 63.5 -154.5c0 -66 -21.5 -118 -64.5 -156s-106.833 -57 -191.5 -57h-208v672h96v-248h118zM297 96c95.333 0 143 39 143 117c0 76.667 -48.667 115 -146 115h-126v-232h129z" />
    <glyph glyph-name="uni042D" unicode="&#x42d;" horiz-adv-x="640" 
d="M256 88c61.333 0 115.167 19.834 161.5 59.501s74.166 89.167 83.499 148.5h-301v80h301c-9.33301 59.333 -37.166 108.833 -83.499 148.5s-100.166 59.5 -161.499 59.5c-70 0 -128.333 -24 -175 -72l-41 90c27.333 25.333 59.666 44.666 96.999 57.999s75 20 113 20
c96.667 0 179.167 -33.667 247.5 -101s102.5 -148.333 102.5 -243s-34.167 -175.667 -102.5 -243s-150.833 -101 -247.5 -101c-37.333 0 -74.833 6.83301 -112.5 20.5s-70.167 33.167 -97.5 58.5l41 90c46.667 -48.667 105 -73 175 -73z" />
    <glyph glyph-name="uni042E" unicode="&#x42e;" horiz-adv-x="1008" 
d="M624 680c94.667 0 175.667 -33.667 243 -101s101 -148.333 101 -243s-33.667 -175.667 -101 -243s-148.333 -101 -243 -101c-86.667 0 -162.167 28.333 -226.5 85s-102.5 127 -114.5 211h-115v-288h-96v672h96v-288h115c12 84 50.167 154.333 114.5 211
s139.833 85 226.5 85zM624 88c69.333 0 128 24 176 72s72 106.667 72 176s-24 128 -72 176s-106.667 72 -176 72s-128 -24 -176 -72s-72 -106.667 -72 -176s24 -128 72 -176s106.667 -72 176 -72z" />
    <glyph glyph-name="uni042F" unicode="&#x42f;" horiz-adv-x="592" 
d="M40 0l173 241c-49.333 13.333 -87.833 39.5 -115.5 78.5s-41.5 84.833 -41.5 137.5c0 66 21.5 118.333 64.5 157s106.833 58 191.5 58h208v-672h-96v232h-105l-167 -232h-112zM424 576l-145 -0.000976562c-37.333 0 -67.833 -10.333 -91.5 -31s-35.5 -52 -35.5 -94
c0 -41.333 12 -72.166 36 -92.499s55 -30.5 93 -30.5h143v248z" />
    <glyph glyph-name="uni0430" unicode="&#x430;" 
d="M440 480h96v-480h-96v70c-40 -52 -93.333 -78 -160 -78c-69.333 0 -126.666 24 -171.999 72s-68 106.667 -68 176s22.667 128 68 176s102.666 72 171.999 72c66.667 0 120 -26 160 -78v70zM288 88c42 0 77.833 14.833 107.5 44.5s44.5 65.5 44.5 107.5
s-14.833 77.833 -44.5 107.5s-65.5 44.5 -107.5 44.5s-77.833 -14.833 -107.5 -44.5s-44.5 -65.5 -44.5 -107.5s14.833 -77.833 44.5 -107.5s65.5 -44.5 107.5 -44.5z" />
    <glyph glyph-name="uni0431" unicode="&#x431;" horiz-adv-x="576" 
d="M288 488c68.667 0 127.167 -24.168 175.5 -72.501s72.5 -106.833 72.5 -175.5s-24.167 -127.167 -72.5 -175.5s-106.833 -72.5 -175.5 -72.5s-127.167 24.333 -175.5 73s-72.5 107.334 -72.5 176.001c0 123.333 57.333 231 172 323l38 29.5
c17.333 13.667 29 23.167 35 28.5l25 23c10.667 10 19 19.5 25 28.5s11.667 19.167 17 30.5h104c-8 -54 -43.667 -101 -107 -141l-31.5 -19.5c-15.667 -9.66699 -27.5 -17.167 -35.5 -22.5s-17.5 -12.333 -28.5 -21s-20.167 -16.667 -27.5 -24c18 8 38.667 12 62 12z
M288 87.999c41.333 0 77 15 107 45s45 65.667 45 107s-15 77 -45 107s-65.667 45 -107 45s-77 -15 -107 -45s-45 -65.667 -45 -107s15 -77 45 -107s65.667 -45 107 -45z" />
    <glyph glyph-name="uni0432" unicode="&#x432;" horiz-adv-x="528" 
d="M392 253c23.333 -5.33301 42.5 -17.833 57.5 -37.5s22.5 -42.167 22.5 -67.5c0 -98.667 -64 -148 -192 -148h-208v480h184c68 0 118.333 -12 151 -36s49 -56.667 49 -98c0 -46 -21.333 -77 -64 -93zM168 384v-96h115c51.333 0 77 16 77 48s-25.667 48 -77 48h-115z
M297 96c52.667 0 79 17.333 79 52s-26.333 52 -79 52h-129v-104h129z" />
    <glyph glyph-name="uni0433" unicode="&#x433;" horiz-adv-x="400" 
d="M168 384v-384h-96v480h288v-96h-192z" />
    <glyph glyph-name="uni0434" unicode="&#x434;" horiz-adv-x="656" 
d="M520 96l79.999 -0.000976562v-224h-96v128h-368v-128h-96v224c31.333 9.33301 56.833 24 76.5 44s34.334 47.833 44.001 83.5s16 72.334 19 110.001s4.5 86.5 4.5 146.5h336v-384zM196.999 95.999h227v288h-152c0 -144.667 -25 -240.667 -75 -288z" />
    <glyph glyph-name="uni0435" unicode="&#x435;" horiz-adv-x="544" 
d="M504 238c0 -14.667 -0.99707 -28.667 -2.99707 -42h-363c7.33301 -36 25.166 -63 53.499 -81s62.5 -27 102.5 -27c52 0 100.667 16 146 48l32 -86c-46 -38.667 -106 -58 -180 -58c-80.667 0 -142.834 23.5 -186.501 70.5s-65.5 106.167 -65.5 177.5
c0 70.667 21.833 129.667 65.5 177s101.5 71 173.5 71c65.333 0 119.166 -22.667 161.499 -68s63.5 -106 63.5 -182zM138.003 284l268.001 0.00195312c-1.33301 27.333 -13 52.166 -35 74.499s-54 33.5 -96 33.5c-40.667 0 -73.334 -11.333 -98.001 -34
s-37.667 -47.334 -39 -74.001z" />
    <glyph glyph-name="uni0436" unicode="&#x436;" horiz-adv-x="784" 
d="M522 258l238 -258h-128l-174 198l-18 -18v-180h-96v180l-18 18l-174 -198h-128l238 258l-222 222h128l176 -188v188h96v-188l176 188h128z" />
    <glyph glyph-name="uni0437" unicode="&#x437;" horiz-adv-x="480" 
d="M204 88c36.667 -1.33301 66.502 2.49805 89.502 11.498s34.5 23.167 34.5 42.5s-14.667 33.833 -44 43.5s-68 14.5 -116 14.5v80c49.333 0 87 5.5 113 16.5s39 25.833 39 44.5c0 13.333 -8.83301 25.333 -26.5 36s-42.834 15.667 -75.501 15
c-46 -1.33301 -89.333 -15.333 -130 -42l-44 76c54.667 41.333 116 62 184 62c56.667 0 102.167 -11.667 136.5 -35s51.5 -58.333 51.5 -105c0 -21.333 -5.83301 -41.166 -17.5 -59.499s-28.834 -31.833 -51.501 -40.5c24 -9.33301 42.833 -23.5 56.5 -42.5
s20.5 -40.167 20.5 -63.5c0 -51.333 -19 -89.166 -57 -113.499s-87.333 -36.5 -148 -36.5c-73.333 0 -133 20.333 -179 61l40 76c36 -25.333 77.333 -39 124 -41z" />
    <glyph glyph-name="uni0438" unicode="&#x438;" horiz-adv-x="576" 
d="M168 480v-290l336 306v-496h-96v290l-336 -306v496h96z" />
    <glyph glyph-name="uni0439" unicode="&#x439;" horiz-adv-x="576" 
d="M360 672h56c0 -35.333 -12.5 -65.5 -37.5 -90.5s-55.167 -37.5 -90.5 -37.5s-65.5 12.5 -90.5 37.5s-37.5 55.167 -37.5 90.5h56c0 -20 7 -37 21 -51s31 -21 51 -21s37 7 51 21s21 31 21 51zM168 480v-290l336 306v-496h-96v290l-336 -306v496h96z" />
    <glyph glyph-name="uni043A" unicode="&#x43a;" horiz-adv-x="512" 
d="M248 248l256 -248h-128l-208 204v-204h-96v480h96v-196l192 196h128z" />
    <glyph glyph-name="uni043B" unicode="&#x43b;" horiz-adv-x="592" 
d="M424 0v384h-176v-211c0 -120.667 -41.667 -181 -125 -181c-26.667 0 -49 2.66699 -67 8v80c64 -16 96 8 96 72v328h368v-480h-96z" />
    <glyph glyph-name="uni043C" unicode="&#x43c;" horiz-adv-x="672" 
d="M552 0l-52 264l-164 -264l-164 264l-52 -264h-96l107 496l205 -341l205 341l107 -496h-96z" />
    <glyph glyph-name="uni043D" unicode="&#x43d;" horiz-adv-x="576" 
d="M408 480h96v-480h-96v192h-240v-192h-96v480h96v-192h240v192z" />
    <glyph glyph-name="uni043E" unicode="&#x43e;" horiz-adv-x="576" 
d="M288 488c68.667 0 127.167 -24.167 175.5 -72.5s72.5 -106.833 72.5 -175.5s-24.167 -127.167 -72.5 -175.5s-106.833 -72.5 -175.5 -72.5s-127.167 24.167 -175.5 72.5s-72.5 106.833 -72.5 175.5s24.167 127.167 72.5 175.5s106.833 72.5 175.5 72.5zM288 88
c41.333 0 77 15 107 45s45 65.667 45 107s-15 77 -45 107s-65.667 45 -107 45s-77 -15 -107 -45s-45 -65.667 -45 -107s15 -77 45 -107s65.667 -45 107 -45z" />
    <glyph glyph-name="uni043F" unicode="&#x43f;" horiz-adv-x="576" 
d="M504 480v-480h-96v384h-240v-384h-96v480h432z" />
    <glyph glyph-name="uni0440" unicode="&#x440;" 
d="M328 488c69.333 0 126.666 -24 171.999 -72s68 -106.667 68 -176s-22.667 -128 -68 -176s-102.666 -72 -171.999 -72c-66.667 0 -120 26 -160 78v-326h-96v736h96v-70c40 52 93.333 78 160 78zM320 88c42 0 77.833 14.833 107.5 44.5s44.5 65.5 44.5 107.5
s-14.833 77.833 -44.5 107.5s-65.5 44.5 -107.5 44.5s-77.833 -14.833 -107.5 -44.5s-44.5 -65.5 -44.5 -107.5s14.833 -77.833 44.5 -107.5s65.5 -44.5 107.5 -44.5z" />
    <glyph glyph-name="uni0441" unicode="&#x441;" horiz-adv-x="496" 
d="M40 240c0 70.667 23.332 129.667 69.999 177s108.667 71 186 71c66 0 119.333 -18.333 160 -55l-41 -89c-33.333 32 -72.666 48 -117.999 48c-44 0 -81.833 -14.833 -113.5 -44.5s-47.5 -65.167 -47.5 -106.5c0 -42 15.667 -78 47 -108s69.333 -45 114 -45
c46 0 85.333 16.333 118 49l41 -90c-38.667 -36.667 -92 -55 -160 -55c-78 0 -140.167 23.667 -186.5 71s-69.5 106.333 -69.5 177z" />
    <glyph glyph-name="uni0442" unicode="&#x442;" horiz-adv-x="464" 
d="M40 480h384v-96h-144v-384h-96v384h-144v96z" />
    <glyph glyph-name="uni0443" unicode="&#x443;" horiz-adv-x="512" 
d="M397 480h107l-325 -736h-105l128 287l-194 449h107l141 -332z" />
    <glyph glyph-name="uni0444" unicode="&#x444;" horiz-adv-x="816" 
d="M558 488c62.667 0 114.667 -22.833 156 -68.5s62 -102.834 62 -171.501c0 -73.333 -20.667 -134.333 -62 -183s-93.333 -73 -156 -73c-39.333 0 -73.333 8 -102 24v-240h-96v240c-28.667 -16 -62.667 -24 -102 -24c-62.667 0 -114.667 24.333 -156 73
s-62 109.667 -62 183c0 68.667 20.667 125.834 62 171.501s93.333 68.5 156 68.5c39.333 0 73.333 -8 102 -24v240h96v-240c28.667 16 62.667 24 102 24zM267 88c62 0 92.999 28.334 92.999 85.001v146c0 22 -9.66699 39.667 -29 53s-40.666 20 -63.999 20
c-40 0 -71.833 -13.333 -95.5 -40s-35.5 -61.334 -35.5 -104.001c0 -47.333 11.833 -85.833 35.5 -115.5s55.5 -44.5 95.5 -44.5zM548.999 88.001c40 0 71.832 14.832 95.499 44.499s35.5 68.167 35.5 115.5c0 42.667 -11.833 77.334 -35.5 104.001s-55.5 40 -95.5 40
c-23.333 0 -44.666 -6.66699 -63.999 -20s-29 -31 -29 -53v-146c0 -56.667 31 -85 93 -85z" />
    <glyph glyph-name="uni0445" unicode="&#x445;" horiz-adv-x="528" 
d="M321 255l183 -255h-114l-126 181l-126 -181h-114l183 255l-168 225h114l111 -158l111 158h114z" />
    <glyph glyph-name="uni0446" unicode="&#x446;" horiz-adv-x="656" 
d="M504 96h96v-224h-96v128h-432v480h96v-384h240v384h96v-384z" />
    <glyph glyph-name="uni0447" unicode="&#x447;" horiz-adv-x="544" 
d="M248 160c-128 0 -191.999 64.002 -191.999 192.002v128h96v-118c0 -38.667 8.66699 -65.334 26 -80.001s43.333 -23.334 78 -26.001c37.333 -3.33301 77.333 1.66699 120 15v209h96v-480h-96v184c-38.667 -16 -81.334 -24 -128.001 -24z" />
    <glyph glyph-name="uni0448" unicode="&#x448;" horiz-adv-x="784" 
d="M616 480h96v-480h-640v480h96v-384h176v384h96v-384h176v384z" />
    <glyph glyph-name="uni0449" unicode="&#x449;" horiz-adv-x="864" 
d="M712 96h96v-224h-96v128h-640v480h96v-384h176v384h96v-384h176v384h96v-384z" />
    <glyph glyph-name="uni044A" unicode="&#x44a;" 
d="M360 320c67.333 0 118.833 -13.332 154.5 -39.999s53.5 -65.334 53.5 -116.001c0 -51.333 -18 -91.5 -54 -120.5s-87.333 -43.5 -154 -43.5h-192v384h-128v96h224v-160h96zM386 96.001c22.667 0 42.667 5.16699 60 15.5s26 26.5 26 48.5c0 22.667 -8.66699 39 -26 49
s-37.333 15 -60 15h-122v-128h122z" />
    <glyph glyph-name="uni044B" unicode="&#x44b;" horiz-adv-x="736" 
d="M72 0v480.001h96v-160h96c67.333 0 118.833 -13.333 154.5 -40s53.5 -65.334 53.5 -116.001c0 -51.333 -18 -91.5 -54 -120.5s-87.333 -43.5 -154 -43.5h-192zM568 0.000976562v480h96v-480h-96zM290 96.001c22.667 0 42.667 5.16699 60 15.5s26 26.5 26 48.5
c0 22.667 -8.66699 39 -26 49s-37.333 15 -60 15h-122v-128h122z" />
    <glyph glyph-name="uni044C" unicode="&#x44c;" horiz-adv-x="512" 
d="M72 0v480.001h96v-160h96c67.333 0 118.833 -13.333 154.5 -40s53.5 -65.334 53.5 -116.001c0 -51.333 -18 -91.5 -54 -120.5s-87.333 -43.5 -154 -43.5h-192zM290 96.001c22.667 0 42.667 5.16699 60 15.5s26 26.5 26 48.5c0 22.667 -8.66699 39 -26 49
s-37.333 15 -60 15h-122v-128h122z" />
    <glyph glyph-name="uni044D" unicode="&#x44d;" horiz-adv-x="496" 
d="M199 88c38 0 71.666 11.3311 100.999 33.998s48 51.334 56 86.001h-204v64h205c-8 34.667 -26.667 63.334 -56 86.001s-63.333 34 -102 34c-45.333 0 -84.666 -16 -117.999 -48l-41 89c40.667 36.667 94 55 160 55c77.333 0 139.333 -23.667 186 -71s70 -106.333 70 -177
s-23.167 -129.667 -69.5 -177s-108.5 -71 -186.5 -71c-68 0 -121.333 18.333 -160 55l41 90c32.667 -32.667 72 -49 118 -49z" />
    <glyph glyph-name="uni044E" unicode="&#x44e;" horiz-adv-x="816" 
d="M528 488c68.667 0 127.167 -24.167 175.5 -72.5s72.5 -106.833 72.5 -175.5s-24.167 -127.167 -72.5 -175.5s-106.833 -72.5 -175.5 -72.5c-61.333 0 -115.166 19.833 -161.499 59.5s-74.166 89.167 -83.499 148.5h-115v-200h-96v480h96v-200h115
c9.33301 59.333 37.166 108.833 83.499 148.5s100.166 59.5 161.499 59.5zM528 88c41.333 0 77 15 107 45s45 65.667 45 107s-15 77 -45 107s-65.667 45 -107 45s-77 -15 -107 -45s-45 -65.667 -45 -107s15 -77 45 -107s65.667 -45 107 -45z" />
    <glyph glyph-name="uni044F" unicode="&#x44f;" horiz-adv-x="528" 
d="M280 480h176v-480h-96v153h-48l-147 -153h-125l155 153c-31.333 0 -62.333 14.667 -93 44s-46 65 -46 107c0 58 19.333 101.833 58 131.5s94 44.5 166 44.5zM251 384c-29.333 0 -53.167 -6 -71.5 -18s-27.5 -29.667 -27.5 -53c0 -46.667 34.333 -70 103 -70h105v141h-109
z" />
    <glyph glyph-name="uni0451" unicode="&#x451;" horiz-adv-x="544" 
d="M184 544c-15.333 0 -28.5 5.5 -39.5 16.5s-16.5 24.167 -16.5 39.5c0 16 5.5 29.333 16.5 40s24.167 16 39.5 16c16 0 29.333 -5.33301 40 -16s16 -24 16 -40c0 -15.333 -5.33301 -28.5 -16 -39.5s-24 -16.5 -40 -16.5zM360 544c-15.333 0 -28.5 5.5 -39.5 16.5
s-16.5 24.167 -16.5 39.5c0 16 5.5 29.333 16.5 40s24.167 16 39.5 16c16 0 29.333 -5.33301 40 -16s16 -24 16 -40c0 -15.333 -5.33301 -28.5 -16 -39.5s-24 -16.5 -40 -16.5zM504 238c0 -14.667 -0.99707 -28.667 -2.99707 -42h-363c7.33301 -36 25.166 -63 53.499 -81
s62.5 -27 102.5 -27c52 0 100.667 16 146 48l32 -86c-46 -38.667 -106 -58 -180 -58c-80.667 0 -142.834 23.5 -186.501 70.5s-65.5 106.167 -65.5 177.5c0 70.667 21.833 129.667 65.5 177s101.5 71 173.5 71c65.333 0 119.166 -22.667 161.499 -68s63.5 -106 63.5 -182z
M138.003 284l268.001 0.00195312c-1.33301 27.333 -13 52.166 -35 74.499s-54 33.5 -96 33.5c-40.667 0 -73.334 -11.333 -98.001 -34s-37.667 -47.334 -39 -74.001z" />
    <glyph glyph-name="uni0452" unicode="&#x452;" horiz-adv-x="576" 
d="M334 488c60.667 0 106.834 -18.832 138.501 -56.499s47.5 -92.167 47.5 -163.5v-286c0 -30 -2.33301 -57.167 -7 -81.5s-10.334 -44.5 -17.001 -60.5s-15.667 -30.333 -27 -43s-21.5 -22.334 -30.5 -29.001s-20.333 -12.5 -34 -17.5s-24.334 -8.16699 -32.001 -9.5
l-28.5 -5l-24 88c32.667 6.66699 58.167 20.667 76.5 42s27.5 55.333 27.5 102v300c0 40.667 -8.16699 71.5 -24.5 92.5s-44.166 31.5 -83.499 31.5c-32 0 -62 -11.833 -90 -35.5s-42 -54.5 -42 -92.5v-264h-96v560h-64v48h64v96h96v-96h64v-48h-64v-136
c37.333 42.667 87.333 64 150 64z" />
    <glyph glyph-name="uni0453" unicode="&#x453;" horiz-adv-x="400" 
d="M128 544l80 128h112l-128 -128h-64zM168 384v-384h-96v480h288v-96h-192z" />
    <glyph glyph-name="uni0454" unicode="&#x454;" horiz-adv-x="496" 
d="M297 88c46 0 85.332 16.335 117.999 49.002l41 -90c-38.667 -36.667 -92 -55 -160 -55c-78 0 -140.167 23.667 -186.5 71s-69.5 106.333 -69.5 177s23.333 129.667 70 177s108.667 71 186 71c66 0 119.333 -18.333 160 -55l-41 -89c-33.333 32 -72.666 48 -117.999 48
c-38.667 0 -72.667 -11.333 -102 -34s-48 -51.334 -56 -86.001h205v-64h-204c8 -34.667 26.667 -63.334 56 -86.001s63 -34 101 -34z" />
    <glyph glyph-name="uni0455" unicode="&#x455;" horiz-adv-x="480" 
d="M265 296c116.667 -22.667 174.999 -71.3301 174.999 -145.997c0 -48.667 -16.667 -87.167 -50 -115.5s-80.666 -42.5 -141.999 -42.5c-46.667 0 -89.167 7.66699 -127.5 23s-65.166 30.333 -80.499 45l38 94c18.667 -18.667 44.167 -34.167 76.5 -46.5
s62.5 -18.833 90.5 -19.5c30 -0.666992 54 4 72 14s27 22.333 27 37c0 16.667 -7.66699 29.5 -23 38.5s-39 16.5 -71 22.5c-74.667 13.333 -125.667 31.666 -153 54.999s-41 55.333 -41 96s17.833 73.667 53.5 99s82.834 38 141.501 38c59.333 0 117.333 -15.333 174 -46
l-33 -90c-12.667 9.33301 -32.5 18.166 -59.5 26.499s-54.167 12.833 -81.5 13.5s-50.666 -2.33301 -69.999 -9s-29 -17.667 -29 -33c0 -8 2.5 -14.833 7.5 -20.5s12.667 -10.334 23 -14.001s20.166 -6.66699 29.499 -9s21.666 -4.83301 36.999 -7.5
c7.33301 -1.33301 12.666 -2.33301 15.999 -3z" />
    <glyph glyph-name="uni0456" unicode="&#x456;" horiz-adv-x="240" 
d="M120 560c-20 0 -37 7 -51 21s-21 31 -21 51s7 37 21 51s31 21 51 21s37 -7 51 -21s21 -31 21 -51s-7 -37 -21 -51s-31 -21 -51 -21zM72 0v480h96v-480h-96z" />
    <glyph glyph-name="uni0457" unicode="&#x457;" horiz-adv-x="240" 
d="M32 544c-15.333 0 -28.5 5.5 -39.5 16.5s-16.5 24.167 -16.5 39.5c0 16 5.5 29.333 16.5 40s24.167 16 39.5 16c16 0 29.333 -5.33301 40 -16s16 -24 16 -40c0 -15.333 -5.33301 -28.5 -16 -39.5s-24 -16.5 -40 -16.5zM208 544c-15.333 0 -28.5 5.5 -39.5 16.5
s-16.5 24.167 -16.5 39.5c0 16 5.5 29.333 16.5 40s24.167 16 39.5 16c16 0 29.333 -5.33301 40 -16s16 -24 16 -40c0 -15.333 -5.33301 -28.5 -16 -39.5s-24 -16.5 -40 -16.5zM72 0v480h96v-480h-96z" />
    <glyph glyph-name="uni0458" unicode="&#x458;" horiz-adv-x="240" 
d="M120 560c-20 0 -37 7 -51 21s-21 31 -21 51s7 37 21 51s31 21 51 21s37 -7 51 -21s21 -31 21 -51s-7 -37 -21 -51s-31 -21 -51 -21zM72 -32l0.00195312 512.001h96v-498c0 -30 -2.33301 -57.167 -7 -81.5s-10.334 -44.5 -17.001 -60.5s-15.667 -30.333 -27 -43
s-21.5 -22.334 -30.5 -29.001s-20.333 -12.5 -34 -17.5s-24.334 -8.16699 -32.001 -9.5l-28.5 -5l-24 88c32.667 6.66699 58.167 20.667 76.5 42s27.5 55.333 27.5 102z" />
    <glyph glyph-name="uni0459" unicode="&#x459;" horiz-adv-x="848" 
d="M600 304c138.667 0 208 -49.332 208 -147.999c0 -50.667 -17.833 -89.334 -53.5 -116.001s-87.167 -40 -154.5 -40h-176v384h-176v-211c0 -120.667 -41.667 -181 -125 -181c-26.667 0 -49 2.66699 -67 8v80c64 -16 96 8 96 72v328h368v-176h80zM622 96.001
c60 0 90 18.667 90 56s-30 56 -90 56h-102v-112h102z" />
    <glyph glyph-name="uni045A" unicode="&#x45a;" horiz-adv-x="832" 
d="M584 304c138.667 0 208 -49.332 208 -147.999c0 -50.667 -17.833 -89.334 -53.5 -116.001s-87.167 -40 -154.5 -40h-176v208h-240v-208h-96v480h96v-176h240v176h96v-176h80zM606 96.001c60 0 90 18.667 90 56s-30 56 -90 56h-102v-112h102z" />
    <glyph glyph-name="uni045B" unicode="&#x45b;" horiz-adv-x="576" 
d="M334 488c60.667 0 106.832 -18.833 138.499 -56.5s47.5 -92.167 47.5 -163.5v-268h-96v268c0 40.667 -8.16699 71.5 -24.5 92.5s-44.166 31.5 -83.499 31.5c-32 0 -62 -11.833 -90 -35.5s-42 -54.5 -42 -92.5v-264h-96v560h-64v48h64v96h96v-96h64v-48h-64v-136
c37.333 42.667 87.333 64 150 64z" />
    <glyph glyph-name="uni045C" unicode="&#x45c;" horiz-adv-x="512" 
d="M176 544l80 128h112l-128 -128h-64zM248 248l256 -248h-128l-208 204v-204h-96v480h96v-196l192 196h128z" />
    <glyph glyph-name="uni045E" unicode="&#x45e;" horiz-adv-x="512" 
d="M328 672h56c0 -35.333 -12.5 -65.5 -37.5 -90.5s-55.167 -37.5 -90.5 -37.5s-65.5 12.5 -90.5 37.5s-37.5 55.167 -37.5 90.5h56c0 -20 7 -37 21 -51s31 -21 51 -21s37 7 51 21s21 31 21 51zM397 480h107l-325 -736h-105l128 287l-194 449h107l141 -332z" />
    <glyph glyph-name="uni045F" unicode="&#x45f;" horiz-adv-x="576" 
d="M408 480h96v-480h-168v-128h-96v128h-168v480h96v-384h240v384z" />
    <glyph glyph-name="uni0462" unicode="&#x462;" 
d="M318 424c82 0 144.167 -18.833 186.5 -56.5s63.5 -89.167 63.5 -154.5c0 -66 -21.5 -118 -64.5 -156s-106.833 -57 -191.5 -57h-208v520h-80v80h80v104h96v-104h160v-80h-160v-96h118zM329 96c95.333 0 143 39 143 117c0 76.667 -48.667 115 -146 115h-126v-232h129z" />
    <glyph glyph-name="uni0463" unicode="&#x463;" horiz-adv-x="528" 
d="M280 320c67.333 0 118.833 -13.332 154.5 -39.999s53.5 -65.334 53.5 -116.001c0 -51.333 -18 -91.5 -54 -120.5s-87.333 -43.5 -154 -43.5h-192v400h-64v48h64v64h96v-64h64v-48h-64v-80h96zM306 96.001c22.667 0 42.667 5.16699 60 15.5s26 26.5 26 48.5
c0 22.667 -8.66699 39 -26 49s-37.333 15 -60 15h-122v-128h122z" />
    <glyph glyph-name="uni0472" unicode="&#x472;" horiz-adv-x="768" 
d="M384 680c94.667 0 175.667 -33.667 243 -101s101 -148.333 101 -243s-33.667 -175.667 -101 -243s-148.333 -101 -243 -101s-175.667 33.667 -243 101s-101 148.333 -101 243s33.667 175.667 101 243s148.333 101 243 101zM384 584
c-64.667 0 -120.333 -21.334 -167 -64.001s-73.334 -95.667 -80.001 -159c33.333 15.333 77 23 131 23c38.667 0 78.334 -6 119.001 -18c46 -14.667 92.333 -21 139 -19s80.667 13 102 33c-10 58.667 -37.833 107.334 -83.5 146.001s-99.167 58 -160.5 58zM384.001 87.999
c64 0 119.501 21.168 166.501 63.501s73.833 95.166 80.5 158.499c-32.667 -14.667 -75.334 -22 -128.001 -22c-40.667 0 -82.667 6.33301 -126 19c-46 14 -91.5 20.167 -136.5 18.5s-78.5 -12.5 -100.5 -32.5c10 -58.667 37.833 -107.5 83.5 -146.5
s99.167 -58.5 160.5 -58.5z" />
    <glyph glyph-name="uni0473" unicode="&#x473;" horiz-adv-x="576" 
d="M288 488c68.667 0 127.167 -24.167 175.5 -72.5s72.5 -106.833 72.5 -175.5s-24.167 -127.167 -72.5 -175.5s-106.833 -72.5 -175.5 -72.5s-127.167 24.167 -175.5 72.5s-72.5 106.833 -72.5 175.5s24.167 127.167 72.5 175.5s106.833 72.5 175.5 72.5zM288 392
c-34.667 0 -65.502 -10.667 -92.502 -32s-45.167 -48.333 -54.5 -81c18 6 38.667 9 62 9s52.333 -6 87 -18c32 -12.667 60.5 -18.5 85.5 -17.5s44.5 10.833 58.5 29.5c-9.33301 32 -27.666 58.333 -54.999 79s-57.666 31 -90.999 31zM287.998 88
c34.667 0 65.502 10.667 92.502 32s45.167 48.333 54.5 81c-17.333 -6 -37 -9 -59 -9c-24 0 -55 6.33301 -93 19c-31.333 12 -59.333 17.5 -84 16.5s-43.667 -10.833 -57 -29.5c9.33301 -32 27.666 -58.333 54.999 -79s57.666 -31 90.999 -31z" />
    <glyph glyph-name="uni0474" unicode="&#x474;" horiz-adv-x="672" 
d="M554 670c28.667 12 59.999 12.667 93.999 2v-96c-25.333 4.66699 -45.166 3.5 -59.499 -3.5s-27.833 -24.833 -40.5 -53.5l-236 -535l-304 688h104l200 -462l131 303c20.667 48 39.167 84 55.5 108s34.833 40.333 55.5 49z" />
    <glyph glyph-name="uni0475" unicode="&#x475;" horiz-adv-x="528" 
d="M451 488c14 0 31.667 -2.66895 53 -8.00195v-80c-24.667 6 -45 2.16699 -61 -11.5s-31.667 -37.167 -47 -70.5l-156 -334l-232 496h104l128 -280l33 70c4.66699 9.33301 11.334 23.833 20.001 43.5s15.667 34.834 21 45.501l20.5 39.5
c8.33301 15.667 16.166 27.834 23.499 36.501s15.833 17.667 25.5 27s20.167 16 31.5 20s23.333 6 36 6z" />
    <glyph glyph-name="uni0490" unicode="&#x490;" horiz-adv-x="496" 
d="M376 768h80v-192h-288v-576h-96v672h304v96z" />
    <glyph glyph-name="uni0491" unicode="&#x491;" horiz-adv-x="400" 
d="M280 576h80v-192h-192v-384h-96v480h208v96z" />
    <glyph glyph-name="uni0492" unicode="&#x492;" horiz-adv-x="512" 
d="M472 576h-288v-240h96v-48h-96v-288h-96v288h-64v48h64v336h384v-96z" />
    <glyph glyph-name="uni0493" unicode="&#x493;" horiz-adv-x="416" 
d="M376 384h-192v-144h96v-48h-96v-192h-96v192h-64v48h64v240h288v-96z" />
    <glyph glyph-name="uni0496" unicode="&#x496;" horiz-adv-x="944" 
d="M836 96h84v-192h-80v96h-48l-247 284l-25 -28v-256h-96v256l-25 28l-247 -284h-128l309 353l-293 319h128l256 -288v288h96v-288l256 288h128l-293 -319z" />
    <glyph glyph-name="uni0497" unicode="&#x497;" horiz-adv-x="784" 
d="M671 96h89v-192h-80v96h-48l-174 198l-18 -18v-180h-96v180l-18 18l-174 -198h-128l238 258l-222 222h128l176 -188v188h96v-188l176 188h128l-222 -222z" />
    <glyph glyph-name="uni049A" unicode="&#x49a;" horiz-adv-x="592" 
d="M481 96h87v-192h-80v96h-48l-272 296v-296h-96v672h96v-296l256 296h128l-296 -329z" />
    <glyph glyph-name="uni049B" unicode="&#x49b;" horiz-adv-x="528" 
d="M405 96h99v-192h-80v96h-48l-208 204v-204h-96v480h96v-196l192 196h128l-240 -232z" />
    <glyph glyph-name="uni04A2" unicode="&#x4a2;" horiz-adv-x="688" 
d="M584 96h80v-192h-80v96h-96v288h-320v-288h-96v672h96v-288h320v288h96v-576z" />
    <glyph glyph-name="uni04A3" unicode="&#x4a3;" 
d="M504 96h80v-192h-80v96h-96v192h-240v-192h-96v480h96v-192h240v192h96v-384z" />
    <glyph glyph-name="uni04AE" unicode="&#x4ae;" horiz-adv-x="592" 
d="M476 672h108l-240 -400v-272h-96v272l-240 400h108l180 -308z" />
    <glyph glyph-name="uni04AF" unicode="&#x4af;" horiz-adv-x="496" 
d="M488 480l-192 -393v-343h-96v343l-192 393h104l136 -280l136 280h104z" />
    <glyph glyph-name="uni04B0" unicode="&#x4b0;" horiz-adv-x="592" 
d="M344 272v-32h64v-48h-64v-192h-96v192h-64v48h64v32l-240 400h108l180 -308l180 308h108z" />
    <glyph glyph-name="uni04B1" unicode="&#x4b1;" horiz-adv-x="496" 
d="M296 87v-119h80v-48h-80v-176h-96v176h-80v48h80v119l-192 393h104l136 -280l136 280h104z" />
    <glyph glyph-name="uni04B2" unicode="&#x4b2;" horiz-adv-x="672" 
d="M564 96h84v-192h-80v96h-52l-188 271l-188 -271h-116l244 347l-228 325h115l173 -250l173 250h115l-228 -325z" />
    <glyph glyph-name="uni04B3" unicode="&#x4b3;" horiz-adv-x="544" 
d="M435 96h85v-192h-80v96h-50l-126 181l-126 -181h-114l183 255l-168 225h114l111 -158l111 158h114l-168 -225z" />
    <glyph glyph-name="uni04B6" unicode="&#x4b6;" horiz-adv-x="640" 
d="M536 96l79.999 0.000976562v-192h-80v96h-96v268c-54 -24 -107.333 -36 -160 -36c-28 0 -54.5 3.66699 -79.5 11s-48.667 19 -71 35s-40.166 39.333 -53.499 70s-20 66.667 -20 108v216h96v-208c0 -48.667 13 -83.5 39 -104.5s63.667 -31.5 113 -31.5
c23.333 0 46.333 2.66699 69 8s39.667 10.666 51 15.999l16 8v312h96v-576z" />
    <glyph glyph-name="uni04B7" unicode="&#x4b7;" horiz-adv-x="576" 
d="M472 96l80.001 0.00195312v-192h-80v96h-96v192c-38.667 -16 -81.334 -24 -128.001 -24c-128 0 -192 64 -192 192v120h96v-110c0 -38.667 8.66699 -65.334 26 -80.001s43.333 -23.334 78 -26.001c37.333 -3.33301 77.333 1.66699 120 15v201h96v-384z" />
    <glyph glyph-name="uni04BA" unicode="&#x4ba;" 
d="M328 440c28 0 54.501 -3.66797 79.501 -11.001s48.667 -19 71 -35s40.166 -39.333 53.499 -70s20 -66.667 20 -108v-216h-96v208c0 48.667 -13 83.5 -39 104.5s-63.667 31.5 -113 31.5c-23.333 0 -46.333 -2.66699 -69 -8s-39.667 -10.666 -51 -15.999l-16 -8v-312h-96
v672h96v-268c54 24 107.333 36 160 36z" />
    <glyph glyph-name="uni04BB" unicode="&#x4bb;" horiz-adv-x="560" 
d="M318 488c60.667 0 106.832 -18.833 138.499 -56.5s47.5 -92.167 47.5 -163.5v-268h-96v268c0 40.667 -8.16699 71.5 -24.5 92.5s-44.166 31.5 -83.499 31.5c-32 0 -62 -11.833 -90 -35.5s-42 -54.5 -42 -92.5v-264h-96v704h96v-280c37.333 42.667 87.333 64 150 64z" />
    <glyph glyph-name="uni04C0" unicode="&#x4c0;" horiz-adv-x="240" 
d="M168 0h-96v672h96v-672z" />
    <glyph glyph-name="uni04CF" unicode="&#x4cf;" horiz-adv-x="240" 
d="M72 0v480h96v-480h-96z" />
    <glyph glyph-name="uni04D8" unicode="&#x4d8;" horiz-adv-x="768" 
d="M40 336c0 9.33301 0.668945 22.667 2.00195 40h587c-9.33301 60 -37 109.667 -83 149s-100 59 -162 59c-48.667 0 -92.834 -12.5 -132.501 -37.5s-69.5 -58.167 -89.5 -99.5l-94 26c26.667 62 68.667 112 126 150s120.666 57 189.999 57
c94.667 0 175.667 -33.667 243 -101s101 -148.333 101 -243s-33.667 -175.667 -101 -243s-148.333 -101 -243 -101s-175.667 33.667 -243 101s-101 148.333 -101 243zM139.002 296.001c9.33301 -60 37 -109.667 83 -149s100 -59 162 -59s116 19.667 162 59s73.667 89 83 149
h-490z" />
    <glyph glyph-name="uni04D9" unicode="&#x4d9;" horiz-adv-x="544" 
d="M40 242c0 14.667 0.996094 28.666 2.99609 41.999h363c-9.33301 34.667 -26.166 61.334 -50.499 80.001s-53.166 28 -86.499 28c-50.667 0 -88.334 -16 -113.001 -48l-88 28c4 8.66699 10.333 18.5 19 29.5s20.834 23.5 36.501 37.5s36.334 25.667 62.001 35
s53.5 14 83.5 14c70 0 126.667 -24 170 -72s65 -106.667 65 -176c0 -70.667 -21.833 -129.667 -65.5 -177s-101.5 -71 -173.5 -71c-65.333 0 -119.166 22.667 -161.499 68s-63.5 106 -63.5 182zM405.996 195.999l-268.001 -0.00195312
c1.33301 -27.333 13 -52.166 35 -74.499s54 -33.5 96 -33.5c40.667 0 73.334 11.333 98.001 34s37.667 47.334 39 74.001z" />
    <glyph glyph-name="uni04E2" unicode="&#x4e2;" horiz-adv-x="704" 
d="M488 752h-272v56h272v-56zM72 -16v688h96v-460l464 476v-688h-96v460z" />
    <glyph glyph-name="uni04E3" unicode="&#x4e3;" horiz-adv-x="576" 
d="M424 560h-272v56h272v-56zM168 480v-290l336 306v-496h-96v290l-336 -306v496h96z" />
    <glyph glyph-name="uni04E8" unicode="&#x4e8;" horiz-adv-x="768" 
d="M384 680c94.667 0 175.667 -33.667 243 -101s101 -148.333 101 -243s-33.667 -175.667 -101 -243s-148.333 -101 -243 -101s-175.667 33.667 -243 101s-101 148.333 -101 243s33.667 175.667 101 243s148.333 101 243 101zM384 584c-64.667 0 -120.5 -21.333 -167.5 -64
s-73.5 -96 -79.5 -160h494c-6 64 -32.5 117.333 -79.5 160s-102.833 64 -167.5 64zM384 88c64.667 0 120.5 21.333 167.5 64s73.5 96 79.5 160h-494c6 -64 32.5 -117.333 79.5 -160s102.833 -64 167.5 -64z" />
    <glyph glyph-name="uni04E9" unicode="&#x4e9;" horiz-adv-x="576" 
d="M288 488c68.667 0 127.167 -24.167 175.5 -72.5s72.5 -106.833 72.5 -175.5s-24.167 -127.167 -72.5 -175.5s-106.833 -72.5 -175.5 -72.5s-127.167 24.167 -175.5 72.5s-72.5 106.833 -72.5 175.5s24.167 127.167 72.5 175.5s106.833 72.5 175.5 72.5zM288 392
c-36 0 -68 -11.5 -96 -34.5s-45.667 -51.5 -53 -85.5h298c-7.33301 34 -25 62.5 -53 85.5s-60 34.5 -96 34.5zM288 88c36 0 68 11.5 96 34.5s45.667 51.5 53 85.5h-298c7.33301 -34 25 -62.5 53 -85.5s60 -34.5 96 -34.5z" />
    <glyph glyph-name="uni04EE" unicode="&#x4ee;" 
d="M448 752h-272v56h272v-56zM492 672h108l-380 -672h-108l150 258l-238 414h108l180 -329z" />
    <glyph glyph-name="uni04EF" unicode="&#x4ef;" horiz-adv-x="512" 
d="M392 560h-272v56h272v-56zM397 480h107l-325 -736h-105l128 287l-194 449h107l141 -332z" />
    <glyph glyph-name="Wgrave" unicode="&#x1e80;" horiz-adv-x="960" 
d="M544 736h-64l-128 128h112zM840 672h104l-280 -688l-184 464l-184 -464l-280 688h104l176 -442l184 458l184 -458z" />
    <glyph glyph-name="wgrave" unicode="&#x1e81;" horiz-adv-x="752" 
d="M432 544h-64l-128 128h112zM632 480h104l-208 -496l-152 308l-152 -308l-208 496h104l112 -286l144 302l144 -302z" />
    <glyph glyph-name="Wacute" unicode="&#x1e82;" horiz-adv-x="960" 
d="M416 736l80 128h112l-128 -128h-64zM840 672h104l-280 -688l-184 464l-184 -464l-280 688h104l176 -442l184 458l184 -458z" />
    <glyph glyph-name="wacute" unicode="&#x1e83;" horiz-adv-x="752" 
d="M320 544l80 128h112l-128 -128h-64zM632 480h104l-208 -496l-152 308l-152 -308l-208 496h104l112 -286l144 302l144 -302z" />
    <glyph glyph-name="Wdieresis" unicode="&#x1e84;" horiz-adv-x="960" 
d="M392 736c-15.333 0 -28.5 5.5 -39.5 16.5s-16.5 24.167 -16.5 39.5c0 16 5.5 29.333 16.5 40s24.167 16 39.5 16c16 0 29.333 -5.33301 40 -16s16 -24 16 -40c0 -15.333 -5.33301 -28.5 -16 -39.5s-24 -16.5 -40 -16.5zM568 736c-15.333 0 -28.5 5.5 -39.5 16.5
s-16.5 24.167 -16.5 39.5c0 16 5.5 29.333 16.5 40s24.167 16 39.5 16c16 0 29.333 -5.33301 40 -16s16 -24 16 -40c0 -15.333 -5.33301 -28.5 -16 -39.5s-24 -16.5 -40 -16.5zM840 672h104l-280 -688l-184 464l-184 -464l-280 688h104l176 -442l184 458l184 -458z" />
    <glyph glyph-name="wdieresis" unicode="&#x1e85;" horiz-adv-x="752" 
d="M288 544c-15.333 0 -28.5 5.5 -39.5 16.5s-16.5 24.167 -16.5 39.5c0 16 5.5 29.333 16.5 40s24.167 16 39.5 16c16 0 29.333 -5.33301 40 -16s16 -24 16 -40c0 -15.333 -5.33301 -28.5 -16 -39.5s-24 -16.5 -40 -16.5zM464 544c-15.333 0 -28.5 5.5 -39.5 16.5
s-16.5 24.167 -16.5 39.5c0 16 5.5 29.333 16.5 40s24.167 16 39.5 16c16 0 29.333 -5.33301 40 -16s16 -24 16 -40c0 -15.333 -5.33301 -28.5 -16 -39.5s-24 -16.5 -40 -16.5zM632 480h104l-208 -496l-152 308l-152 -308l-208 496h104l112 -286l144 302l144 -302z" />
    <glyph glyph-name="Ygrave" unicode="&#x1ef2;" horiz-adv-x="592" 
d="M344 736h-64l-128 128h112zM476 672h108l-240 -400v-272h-96v272l-240 400h108l180 -308z" />
    <glyph glyph-name="ygrave" unicode="&#x1ef3;" horiz-adv-x="512" 
d="M316 544h-64l-128 128h112zM397 480h107l-325 -736h-105l128 287l-194 449h107l141 -332z" />
    <glyph glyph-name="endash" unicode="&#x2013;" horiz-adv-x="512" 
d="M456 224h-400v80h400v-80z" />
    <glyph glyph-name="emdash" unicode="&#x2014;" 
d="M552 224h-496v80h496v-80z" />
    <glyph glyph-name="quoteleft" unicode="&#x2018;" horiz-adv-x="256" 
d="M216 672l-48 -192h-128l112 192h64z" />
    <glyph glyph-name="quoteright" unicode="&#x2019;" horiz-adv-x="256" 
d="M40 480l48 192h128l-112 -192h-64z" />
    <glyph glyph-name="quotesinglbase" unicode="&#x201a;" horiz-adv-x="256" 
d="M40 -64l48 192h128l-112 -192h-64z" />
    <glyph glyph-name="quotedblleft" unicode="&#x201c;" horiz-adv-x="496" 
d="M216 672l-48 -192h-128l112 192h64zM456 672l-48 -192h-128l112 192h64z" />
    <glyph glyph-name="quotedblright" unicode="&#x201d;" horiz-adv-x="496" 
d="M40 480l48 192h128l-112 -192h-64zM280 480l48 192h128l-112 -192h-64z" />
    <glyph glyph-name="quotedblbase" unicode="&#x201e;" horiz-adv-x="496" 
d="M40 -64l48 192h128l-112 -192h-64zM280 -64l48 192h128l-112 -192h-64z" />
    <glyph glyph-name="dagger" unicode="&#x2020;" horiz-adv-x="656" 
d="M600 400h-224l-48 -672l-48 672h-224v80h224v288h96v-288h224v-80z" />
    <glyph glyph-name="daggerdbl" unicode="&#x2021;" horiz-adv-x="656" 
d="M600 400h-224v-144h224v-80h-232l-40 -448l-40 448h-232v80h224v144h-224v80h224v288h96v-288h224v-80z" />
    <glyph glyph-name="bullet" unicode="&#x2022;" horiz-adv-x="784" 
d="M392 448c31.333 0 57.833 -10.833 79.5 -32.5s32.5 -48.167 32.5 -79.5s-10.833 -57.833 -32.5 -79.5s-48.167 -32.5 -79.5 -32.5s-57.833 10.833 -79.5 32.5s-32.5 48.167 -32.5 79.5s10.833 57.833 32.5 79.5s48.167 32.5 79.5 32.5z" />
    <glyph glyph-name="ellipsis" unicode="&#x2026;" horiz-adv-x="800" 
d="M128 -8c-20 0 -37 7 -51 21s-21 31 -21 51c0 20.667 7 37.834 21 51.501s31 20.5 51 20.5c20.667 0 37.834 -6.83301 51.501 -20.5s20.5 -30.834 20.5 -51.501c0 -20 -6.83301 -37 -20.5 -51s-30.834 -21 -51.501 -21zM400 -8c-20 0 -37 7 -51 21s-21 31 -21 51
c0 20.667 7 37.834 21 51.501s31 20.5 51 20.5c20.667 0 37.834 -6.83301 51.501 -20.5s20.5 -30.834 20.5 -51.501c0 -20 -6.83301 -37 -20.5 -51s-30.834 -21 -51.501 -21zM672 -8c-20 0 -37 7 -51 21s-21 31 -21 51c0 20.667 7 37.834 21 51.501s31 20.5 51 20.5
c20.667 0 37.834 -6.83301 51.501 -20.5s20.5 -30.834 20.5 -51.501c0 -20 -6.83301 -37 -20.5 -51s-30.834 -21 -51.501 -21z" />
    <glyph glyph-name="perthousand" unicode="&#x2030;" horiz-adv-x="1152" 
d="M201 392c-40.667 0 -75 13.833 -103 41.5s-42 61.834 -42 102.501c0 40 14 74 42 102s62.333 42 103 42c40 0 73.833 -14 101.5 -42s41.5 -62 41.5 -102c0 -40.667 -13.833 -74.834 -41.5 -102.501s-61.5 -41.5 -101.5 -41.5zM190 0h-64l468 672h64zM200 456
c21.333 0 40 8 56 24s24 34.667 24 56s-8 40 -24 56s-34.667 24 -56 24s-40 -8 -56 -24s-24 -34.667 -24 -56s8 -40 24 -56s34.667 -24 56 -24zM585 -8c-40.667 0 -75 13.833 -103 41.5s-42 61.834 -42 102.501c0 40 14 74 42 102s62.333 42 103 42
c40 0 73.833 -14 101.5 -42s41.5 -62 41.5 -102c0 -40.667 -13.833 -74.834 -41.5 -102.501s-61.5 -41.5 -101.5 -41.5zM953 -8c-40.667 0 -75 13.833 -103 41.5s-42 61.834 -42 102.501c0 40 14 74 42 102s62.333 42 103 42c40 0 73.833 -14 101.5 -42s41.5 -62 41.5 -102
c0 -40.667 -13.833 -74.834 -41.5 -102.501s-61.5 -41.5 -101.5 -41.5zM584 56c21.333 0 40 8 56 24s24 34.667 24 56s-8 40 -24 56s-34.667 24 -56 24s-40 -8 -56 -24s-24 -34.667 -24 -56s8 -40 24 -56s34.667 -24 56 -24zM952 56c21.333 0 40 8 56 24s24 34.667 24 56
s-8 40 -24 56s-34.667 24 -56 24s-40 -8 -56 -24s-24 -34.667 -24 -56s8 -40 24 -56s34.667 -24 56 -24z" />
    <glyph glyph-name="guilsinglleft" unicode="&#x2039;" horiz-adv-x="392" 
d="M304 480l-160 -216l160 -216h-88l-160 216l160 216h88z" />
    <glyph glyph-name="guilsinglright" unicode="&#x203a;" horiz-adv-x="392" 
d="M88 480h88l160 -216l-160 -216h-88l160 216z" />
    <glyph glyph-name="fraction" unicode="&#x2044;" horiz-adv-x="228" 
d="M-88 0h-64l468 672h64z" />
    <glyph glyph-name="uni2070" unicode="&#x2070;" horiz-adv-x="360" 
d="M180 756c36.667 0 66.5 -16.5 89.5 -49.5s34.5 -73.833 34.5 -122.5s-11.5 -89.5 -34.5 -122.5s-52.833 -49.5 -89.5 -49.5s-66.5 16.5 -89.5 49.5s-34.5 73.833 -34.5 122.5s11.5 89.5 34.5 122.5s52.833 49.5 89.5 49.5zM180 460c20.667 0 38.5 12.167 53.5 36.5
s22.5 53.5 22.5 87.5c0 34.667 -7.33301 64 -22 88s-32.667 36 -54 36s-39.333 -12 -54 -36s-22 -53.333 -22 -88c0 -34 7.5 -63.167 22.5 -87.5s32.833 -36.5 53.5 -36.5z" />
    <glyph glyph-name="uni2074" unicode="&#x2074;" horiz-adv-x="344" 
d="M248 520h40v-48h-40v-56h-48v56h-176l224 288v-240zM200 520v111l-81 -111h81z" />
    <glyph glyph-name="uni2075" unicode="&#x2075;" horiz-adv-x="352" 
d="M187 640c29.333 0 54.8379 -9.83301 76.5049 -29.5s32.5 -46.5 32.5 -80.5s-11.833 -62.167 -35.5 -84.5s-51.834 -33.5 -84.501 -33.5s-60.334 10.167 -83.001 30.5s-35 44.833 -37 73.5l50 5c1.33301 -16 8.66602 -30.167 21.999 -42.5s29.333 -18.5 48 -18.5
c19.333 0 36.166 6.66699 50.499 20s21.5 29.333 21.5 48s-6 34 -18 46s-27.333 18 -46 18c-32.667 0 -56.334 -13.333 -71.001 -40h-49l30 200h170v-48h-129l-13 -86c18 14.667 39.667 22 65 22z" />
    <glyph glyph-name="uni2076" unicode="&#x2076;" horiz-adv-x="360" 
d="M190 651c33.333 0 60.667 -11 82 -33s32 -48.333 32 -79c0 -37.333 -11.667 -67.833 -35 -91.5s-53 -35.5 -89 -35.5c-36.667 0 -66.5 11.833 -89.5 35.5s-34.5 55.167 -34.5 94.5c0 37.333 9.83301 75.5 29.5 114.5s49.167 70.833 88.5 95.5h85
c-6.66699 -2 -15.5 -5.5 -26.5 -10.5s-28.333 -17.333 -52 -37s-41.5 -42.167 -53.5 -67.5c16.667 9.33301 37.667 14 63 14zM180.001 460c22 0 40.167 7 54.5 21s21.5 31.333 21.5 52s-6.83301 37.5 -20.5 50.5s-32.167 19.5 -55.5 19.5c-22 0 -40.167 -6.66699 -54.5 -20
s-21.5 -30 -21.5 -50s7.16699 -37.167 21.5 -51.5s32.5 -21.5 54.5 -21.5z" />
    <glyph glyph-name="uni2077" unicode="&#x2077;" horiz-adv-x="336" 
d="M72 752h240l-144 -336h-56l124 288h-164v48z" />
    </font>
</defs>
</svg>
