<?xml version="1.0" standalone="no"?>
<!DOCTYPE svg PUBLIC "-//W3C//DTD SVG 1.1//EN" "http://www.w3.org/Graphics/SVG/1.1/DTD/svg11.dtd" >
<svg>
<metadata>
Created by FontForge 20090914 at Tue Jun 23 18:46:38 2020
 By www-data
Copyright (c) Milos Mitrovic, 2016. All rights reserved.
</metadata>
<defs>
<font id="NoirPro-SemiBoldItalic" horiz-adv-x="608" >
  <font-face 
    font-family="NoirPro-SemiBoldItalic"
    font-weight="400"
    font-style="italic"
    font-stretch="normal"
    units-per-em="1000"
    panose-1="0 0 7 0 0 0 0 0 0 0"
    ascent="734"
    descent="-266"
    x-height="496"
    cap-height="672"
    bbox="-217 -304.004 1129.32 1120"
    underline-thickness="50"
    underline-position="-100"
    unicode-range="U+0020-U+25CA"
  />
<missing-glyph horiz-adv-x="528" 
d="M433 800v-1056h-335v1056h335zM352 729h-175v-35h69v-39h-70v-35h176v35h-70v39h70v35zM282 593h-106v-110h176v36h-70v74zM246 557v-38h-35v38h35zM352 455h-176v-35h70v-39h-70v-35h106v74h70v35zM352 391h-35v-69h-141v-36h176v105zM352 262h-106v-59h36v25h35v-50
h-106v84h-35v-119h176v119zM352 80h-176v-120h176v120zM317 45v-50h-106v50h106zM352 -64h-176v-35h74l-74 -49v-35h176v35h-108l74 49h34v35z" />
    <glyph glyph-name=".notdef" horiz-adv-x="528" 
d="M433 800v-1056h-335v1056h335zM352 729h-175v-35h69v-39h-70v-35h176v35h-70v39h70v35zM282 593h-106v-110h176v36h-70v74zM246 557v-38h-35v38h35zM352 455h-176v-35h70v-39h-70v-35h106v74h70v35zM352 391h-35v-69h-141v-36h176v105zM352 262h-106v-59h36v25h35v-50
h-106v84h-35v-119h176v119zM352 80h-176v-120h176v120zM317 45v-50h-106v50h106zM352 -64h-176v-35h74l-74 -49v-35h176v35h-108l74 49h34v35z" />
    <glyph glyph-name="space" unicode=" " horiz-adv-x="304" 
 />
    <glyph glyph-name="exclam" unicode="!" horiz-adv-x="304" 
d="M88 208l25 464h160l-89 -464h-96zM109 -16c-24.667 0 -44.501 8.5 -59.501 25.5s-20.833 37.833 -17.5 62.5s14.333 45.5 33 62.5s40.334 25.5 65.001 25.5s44.5 -8.5 59.5 -25.5s21.167 -37.833 18.5 -62.5s-13.667 -45.5 -33 -62.5s-41.333 -25.5 -66 -25.5z" />
    <glyph glyph-name="quotedbl" unicode="&#x22;" horiz-adv-x="448" 
d="M188 432h-112l13 240h144zM396 432h-112l13 240h144z" />
    <glyph glyph-name="numbersign" unicode="#" horiz-adv-x="720" 
d="M680 400h-125l-42 -144h101l-12 -96h-117l-46 -160h-112l46 160h-128l-46 -160h-112l46 160h-107l12 96h123l42 144h-99l12 96h115l50 176h112l-50 -176h128l50 176h112l-50 -176h109zM400 256l43 144h-128l-43 -144h128z" />
    <glyph glyph-name="dollar" unicode="$" horiz-adv-x="624" 
d="M576 202c-8 -60 -36.1719 -109.999 -84.5049 -149.999s-111.833 -62.333 -190.5 -67l-8 -65h-48l8 64c-30 1.33301 -59.167 6 -87.5 14s-52 17.5 -71 28.5s-35.667 21.667 -50 32s-24.833 19.166 -31.5 26.499l-10 11l88 128c56.667 -64 121.667 -96 195 -96
c80.667 0 123.334 21.333 128.001 64c2 16.667 -4.33301 30.167 -19 40.5s-42.667 19.166 -84 26.499c-89.333 15.333 -153.166 40 -191.499 74s-54.166 79.667 -47.499 137c7.33301 58 35.166 107.5 83.499 148.5s109.5 63.833 183.5 68.5l8 65h48l-8 -65
c92 -6 162.667 -34.333 212 -85l-86 -126c-1.33301 2 -3.5 4.5 -6.5 7.5s-9.5 8.33301 -19.5 16s-21 14.5 -33 20.5s-27.667 11.5 -47 16.5s-39.666 7.5 -60.999 7.5c-29.333 0 -54.666 -5 -75.999 -15s-33 -24 -35 -42c-2 -16 3.83301 -28.5 17.5 -37.5
s39.834 -17.833 78.501 -26.5c43.333 -9.33301 79 -19 107 -29s54.167 -23.167 78.5 -39.5s41.333 -37.166 51 -62.499s12.5 -55.333 8.5 -90z" />
    <glyph glyph-name="percent" unicode="%" horiz-adv-x="816" 
d="M213 368c-44.667 0 -80.667 15.5 -108 46.5s-38.333 68.833 -33 113.5c5.33301 44 25.5 81.667 60.5 113s74.833 47 119.5 47c44 0 79.667 -15.667 107 -47s38.333 -69 33 -113c-5.33301 -44.667 -25.5 -82.5 -60.5 -113.5s-74.5 -46.5 -118.5 -46.5zM181 0h-96l550 672
h96zM224 464c17.333 0 33.001 6.33301 47.001 19s22.333 27.667 25 45c2 17.333 -2.66699 32.333 -14 45s-25.666 19 -42.999 19s-33 -6.33301 -47 -19s-22 -27.667 -24 -45c-2.66699 -17.333 1.66602 -32.333 12.999 -45s25.666 -19 42.999 -19zM566.001 -16
c-44.667 0 -80.8311 15.5 -108.498 46.5s-38.834 68.833 -33.501 113.5c5.33301 44 25.666 81.667 60.999 113s75.333 47 120 47c44 0 79.5 -15.667 106.5 -47s37.833 -69 32.5 -113c-5.33301 -44.667 -25.333 -82.5 -60 -113.5s-74 -46.5 -118 -46.5zM577.004 80
c17.333 0 32.999 6.33301 46.999 19s22 27.667 24 45c2.66699 17.333 -1.66602 32.333 -12.999 45s-25.666 19 -42.999 19s-33 -6.33301 -47 -19s-22.333 -27.667 -25 -45c-2 -17.333 2.66699 -32.333 14 -45s25.666 -19 42.999 -19z" />
    <glyph glyph-name="ampersand" unicode="&#x26;" horiz-adv-x="832" 
d="M782 320l-193.998 -162.999l154 -157h-223l-53 57c-70 -48.667 -139.667 -73 -209 -73s-126.333 19.333 -171 58s-62.667 94 -54 166c5.33301 42.667 21.333 79.167 48 109.5s55.667 51.166 87 62.499c-22.667 24 -37.834 45.333 -45.501 64s-9.83398 39 -6.50098 61
c6 50.667 34.667 93.834 86 129.501s111.666 53.5 180.999 53.5c72 0 128.667 -17.333 170 -52s58.666 -79.334 51.999 -134.001c-3.33301 -26 -10.666 -48.833 -21.999 -68.5s-27.166 -36.167 -47.499 -49.5s-38.5 -23.5 -54.5 -30.5s-37 -14.833 -63 -23.5l79 -80l88 70
h198zM330.002 420.001c37.333 10 65.4971 20.832 84.4971 32.499s28.833 26.167 29.5 43.5c0.666992 16.667 -6.66602 30.334 -21.999 41.001s-35.333 16 -60 16c-23.333 0 -43.166 -5.33301 -59.499 -16s-25.166 -23 -26.499 -37c-1.33301 -11.333 1.66699 -22 9 -32
s22.333 -26 45 -48zM283.999 129c37.333 0 67 9.66602 89 28.999l-122 133c-34 -17.333 -52.667 -41.666 -56 -72.999c-3.33301 -23.333 3.66699 -44 21 -62s40 -27 68 -27z" />
    <glyph glyph-name="quotesingle" unicode="'" horiz-adv-x="240" 
d="M188 432h-112l13 240h144z" />
    <glyph glyph-name="parenleft" unicode="(" horiz-adv-x="352" 
d="M367 720c-101.333 -130.667 -160.999 -269.333 -178.999 -416c-18 -149.333 7.66699 -288 77 -416l-150 -48c-66.667 156 -90.334 310.667 -71.001 464c19.333 155.333 81 310 185 464z" />
    <glyph glyph-name="parenright" unicode=")" horiz-adv-x="352" 
d="M79 720l149.999 47.999c66.667 -156 90.334 -310.667 71.001 -464c-19.333 -155.333 -81 -310 -185 -464l-138 48c101.333 130.667 161 269.334 179 416.001c18 149.333 -7.66699 288 -77 416z" />
    <glyph glyph-name="asterisk" unicode="*" horiz-adv-x="432" 
d="M288 597l99 43l24 -85l-106 -32l56 -82l-80 -53l-48 86l-69 -86l-68 53l78 82l-99 32l44 85l90 -43l8 107h90z" />
    <glyph glyph-name="plus" unicode="+" horiz-adv-x="512" 
d="M466 352l-12 -96h-160l-19 -160h-96l19 160h-160l12 96h160l20 160h96l-20 -160h160z" />
    <glyph glyph-name="comma" unicode="," horiz-adv-x="320" 
d="M-25 -128l97 272h176l-161 -272h-112z" />
    <glyph glyph-name="hyphen" unicode="-" horiz-adv-x="400" 
d="M336 208h-304l14 112h304z" />
    <glyph glyph-name="period" unicode="." horiz-adv-x="272" 
d="M93 -16c-24.667 0 -44.501 8.5 -59.501 25.5s-20.833 37.833 -17.5 62.5s14.333 45.5 33 62.5s40.334 25.5 65.001 25.5s44.5 -8.5 59.5 -25.5s21.167 -37.833 18.5 -62.5s-13.667 -45.5 -33 -62.5s-41.333 -25.5 -66 -25.5z" />
    <glyph glyph-name="slash" unicode="/" horiz-adv-x="528" 
d="M109 -80h-112l422 832h112z" />
    <glyph glyph-name="zero" unicode="0" horiz-adv-x="656" 
d="M371 688c82 0 145.001 -34 189.001 -102s60 -151.333 48 -250s-48.333 -182 -109 -250s-132 -102 -214 -102c-82.667 0 -145.834 33.833 -189.501 101.5s-59.5 151.167 -47.5 250.5c12 98.667 48.333 182 109 250s132 102 214 102zM302.001 128
c33.333 0 64.166 20 92.499 60s46.166 89.333 53.499 148s1.83301 108 -16.5 148s-44.166 60 -77.499 60s-64.166 -20 -92.499 -60s-46.166 -89.333 -53.499 -148s-1.83301 -108 16.5 -148s44.166 -60 77.499 -60z" />
    <glyph glyph-name="one" unicode="1" horiz-adv-x="448" 
d="M97 608l314 80l-84 -688h-160l61 496l-148 -32z" />
    <glyph glyph-name="two" unicode="2" horiz-adv-x="656" 
d="M78 448c12.667 68.667 43.667 125.832 93 171.499s111 68.5 185 68.5c80.667 0 142.167 -21 184.5 -63s58.833 -101 49.5 -177c-5.33301 -42 -26.833 -87.167 -64.5 -135.5s-92.834 -104.5 -165.501 -168.5h224l-17 -144h-560l297 272c78.667 75.333 120.667 134 126 176
c4 30.667 -2.16699 54.334 -18.5 71.001s-38.166 25 -65.499 25s-51.833 -9.33301 -73.5 -28s-35.5 -46.667 -41.5 -84z" />
    <glyph glyph-name="three" unicode="3" horiz-adv-x="640" 
d="M498 355c27.333 -14 48.168 -34.001 62.501 -60.001s19.5 -55 15.5 -87c-7.33301 -58.667 -35.833 -110.667 -85.5 -156s-120.834 -68 -213.501 -68c-80 0 -142.833 20 -188.5 60s-64.5 94.667 -56.5 164l162 16c2.66699 -64 38.334 -96 107.001 -96
c29.333 0 55.166 6.83301 77.499 20.5s34.833 32.5 37.5 56.5c3.33301 25.333 -9.83398 43.5 -39.501 54.5s-66.834 16.5 -111.501 16.5l15 128c4 0 9.16699 0.166992 15.5 0.5s18 1.83301 35 4.5s32.167 6.33398 45.5 11.001s25.833 12.334 37.5 23.001s18.5 23 20.5 37
c2.66699 20 -3.83301 35.667 -19.5 47s-37.5 17 -65.5 17c-62 0 -100.333 -32 -115 -96l-154 16c14 68.667 46.167 123.167 96.5 163.5s112.5 60.5 186.5 60.5c82 0 142.833 -19.333 182.5 -58s56.5 -83.334 50.5 -134.001c-3.33301 -29.333 -14.166 -57 -32.499 -83
s-40.166 -45.333 -65.499 -58z" />
    <glyph glyph-name="four" unicode="4" horiz-adv-x="672" 
d="M536 272h80l-18 -144h-80l-15 -128h-160l15 128h-336l16 128l347 416h200zM376 272l29 238l-184 -238h155z" />
    <glyph glyph-name="five" unicode="5" horiz-adv-x="640" 
d="M357 448c70 0 126.667 -18.6719 170 -56.0049s61 -89.666 53 -156.999c-9.33301 -76.667 -41 -137.667 -95 -183s-123.333 -68 -208 -68c-82.667 0 -145.834 19 -189.501 57s-62.167 93.667 -55.5 167l162 10c-1.33301 -25.333 7.5 -46.666 26.5 -63.999
s43.5 -26 73.5 -26c31.333 0 59.166 9.33301 83.499 28s37.833 41.334 40.5 68.001c3.33301 28 -3.66699 51 -21 69s-43.666 27 -78.999 27c-51.333 0 -90.666 -16 -117.999 -48h-145l106 400h408l-17 -144h-279l-25 -102c12.667 6.66699 28 11.834 46 15.501
s33 5.83398 45 6.50098h18z" />
    <glyph glyph-name="six" unicode="6" horiz-adv-x="656" 
d="M37 247c1.33301 8.66699 2.66602 16.8369 3.99902 24.5039s5 22 11 43s13 40.833 21 59.5s20 41.667 36 69s34.167 52.833 54.5 76.5s46.166 49.167 77.499 76.5s66 52.666 104 75.999h245c-6 -2.66699 -13.833 -6.33398 -23.5 -11.001s-28.334 -14.834 -56.001 -30.501
s-53.5 -31.5 -77.5 -47.5s-49.333 -35.833 -76 -59.5s-47.667 -46.834 -63 -69.501c22.667 9.33301 56.334 14 101.001 14c68 0 120.5 -22.5 157.5 -67.5s51.5 -98.5 43.5 -160.5c-9.33301 -76 -42.666 -137.667 -99.999 -185s-127.666 -71 -210.999 -71
c-86.667 0 -152.167 23.667 -196.5 71s-61.5 111.333 -51.5 192zM328 336.003c-34.667 0 -64.667 -10.167 -90 -30.5s-39.666 -44.833 -42.999 -73.5s5 -53.167 25 -73.5s47.333 -30.5 82 -30.5s64.667 10 90 30s39.666 44.667 42.999 74s-5 54 -25 74s-47.333 30 -82 30z
" />
    <glyph glyph-name="seven" unicode="7" 
d="M89 672h560l-386 -672h-176l305 528h-320z" />
    <glyph glyph-name="eight" unicode="8" horiz-adv-x="640" 
d="M512 355c23.333 -12.667 40.832 -32.168 52.499 -58.501s15.5 -55.833 11.5 -88.5c-8 -64.667 -38.5 -118.167 -91.5 -160.5s-122.167 -63.5 -207.5 -63.5s-149.5 21.333 -192.5 64s-60.5 96 -52.5 160c4 32.667 15 62.167 33 88.5s40.333 45.833 67 58.5
c-18 15.333 -31.5 34.333 -40.5 57s-12.167 45.334 -9.5 68.001c7.33301 60 37.333 109.667 90 149s116.334 59 191.001 59c75.333 0 134.5 -19.833 177.5 -59.5s60.833 -89.167 53.5 -148.5c-6.66699 -49.333 -34 -91 -82 -125zM345.999 543.999
c-26.667 0 -50.167 -7 -70.5 -21s-31.833 -31 -34.5 -51s4.5 -37 21.5 -51s38.833 -21 65.5 -21s50.167 7 70.5 21s31.833 31 34.5 51s-4.5 37 -21.5 51s-38.833 21 -65.5 21zM293.999 127.999c31.333 0 59 8.5 83 25.5s37.333 37.833 40 62.5s-5.66602 45.5 -24.999 62.5
s-44.666 25.5 -75.999 25.5s-59 -8.5 -83 -25.5s-37.333 -37.833 -40 -62.5s5.66602 -45.5 24.999 -62.5s44.666 -25.5 75.999 -25.5z" />
    <glyph glyph-name="nine" unicode="9" horiz-adv-x="656" 
d="M619 425c-1.33301 -8.66699 -2.66602 -16.8369 -3.99902 -24.5039s-5 -22 -11 -43s-13 -40.833 -21 -59.5s-20 -41.667 -36 -69s-34.167 -52.833 -54.5 -76.5s-46.166 -49.167 -77.499 -76.5s-66 -52.666 -104 -75.999h-245c6 2.66699 13.833 6.33398 23.5 11.001
s28.334 14.834 56.001 30.501s53.5 31.5 77.5 47.5s49.333 35.833 76 59.5s47.667 46.834 63 69.501c-22.667 -9.33301 -56.334 -14 -101.001 -14c-68 0 -120.5 22.5 -157.5 67.5s-51.5 98.5 -43.5 160.5c9.33301 76 42.666 137.667 99.999 185s127.666 71 210.999 71
c86.667 0 152.167 -23.667 196.5 -71s61.5 -111.333 51.5 -192zM328 335.997c34.667 0 64.667 10.167 90 30.5s39.666 44.833 42.999 73.5s-5 53.167 -25 73.5s-47.333 30.5 -82 30.5s-64.667 -10 -90 -30s-39.666 -44.667 -42.999 -74s5 -54 25 -74s47.333 -30 82 -30z" />
    <glyph glyph-name="colon" unicode=":" horiz-adv-x="272" 
d="M136 336c-24.667 0 -44.5 8.5 -59.5 25.5s-20.833 37.833 -17.5 62.5c2.66699 24.667 13.667 45.5 33 62.5s41.333 25.5 66 25.5s44.5 -8.5 59.5 -25.5s20.833 -37.833 17.5 -62.5c-2.66699 -24.667 -13.667 -45.5 -33 -62.5s-41.333 -25.5 -66 -25.5zM93 -16
c-24.667 0 -44.501 8.5 -59.501 25.5s-20.833 37.833 -17.5 62.5s14.333 45.5 33 62.5s40.334 25.5 65.001 25.5s44.5 -8.5 59.5 -25.5s21.167 -37.833 18.5 -62.5s-13.667 -45.5 -33 -62.5s-41.333 -25.5 -66 -25.5z" />
    <glyph glyph-name="semicolon" unicode=";" horiz-adv-x="320" 
d="M184 336c-24.667 0 -44.5 8.5 -59.5 25.5s-20.833 37.833 -17.5 62.5c2.66699 24.667 13.667 45.5 33 62.5s41.333 25.5 66 25.5s44.5 -8.5 59.5 -25.5s20.833 -37.833 17.5 -62.5c-2.66699 -24.667 -13.667 -45.5 -33 -62.5s-41.333 -25.5 -66 -25.5zM-25 -128l97 272
h176l-161 -272h-112z" />
    <glyph glyph-name="less" unicode="&#x3c;" horiz-adv-x="544" 
d="M461 48l-422 216l10 80l475 216l-14 -112l-330 -144l294 -144z" />
    <glyph glyph-name="equal" unicode="=" horiz-adv-x="512" 
d="M60 432h416l-12 -96h-416zM40 272h416l-12 -96h-416z" />
    <glyph glyph-name="greater" unicode="&#x3e;" horiz-adv-x="544" 
d="M13 48l13 112l330 144l-294 144l14 112l421 -216l-10 -80z" />
    <glyph glyph-name="question" unicode="?" horiz-adv-x="560" 
d="M315 688c75.333 0 132.002 -19.001 170.002 -57.001s53.667 -83 47 -135c-4.66699 -36 -17 -68.333 -37 -97s-50 -57 -90 -85c-14.667 -10 -26.834 -19.5 -36.501 -28.5s-19.834 -22 -30.501 -39s-17.334 -35.167 -20.001 -54.5h-128c4 68 26.667 120.333 68 157
c7.33301 7.33301 19.333 17.833 36 31.5s29 24.334 37 32.001s16.167 17.834 24.5 30.501s13.166 25.667 14.499 39c2.66699 21.333 -3.66602 37.166 -18.999 47.499s-35.333 15.5 -60 15.5c-59.333 0 -113 -21.667 -161 -65l-51 112c68.667 64 147.334 96 236.001 96z
M250.002 159.999c24.667 0 44.499 -8.5 59.499 -25.5s21.167 -37.833 18.5 -62.5s-13.667 -45.5 -33 -62.5s-41.333 -25.5 -66 -25.5s-44.5 8.5 -59.5 25.5s-20.833 37.833 -17.5 62.5s14.333 45.5 33 62.5s40.334 25.5 65.001 25.5z" />
    <glyph glyph-name="at" unicode="@" horiz-adv-x="1080" 
d="M1031 330c-9.33301 -76.667 -38.665 -140.167 -87.998 -190.5s-109.666 -75.5 -180.999 -75.5c-40.667 0 -72 7 -94 21s-39.333 36.667 -52 68c-41.333 -48.667 -92 -73 -152 -73c-66.667 0 -114 21 -142 63s-35.667 93.667 -23 155c12 61.333 40.167 112.333 84.5 153
s97.166 61 158.499 61c26.667 0 50 -6.33301 70 -19s34 -27 42 -43l10 46h116l-52 -236c-2.66699 -15.333 -4.33398 -29.5 -5.00098 -42.5s3.66602 -24 12.999 -33s24 -13.5 44 -13.5c27.333 0 54.166 12 80.499 36s43.166 64 50.499 120
c11.333 93.333 -15.667 172.833 -81 238.5s-147.333 98.5 -246 98.5c-103.333 0 -196.166 -36.833 -278.499 -110.5s-130.166 -162.167 -143.499 -265.5c-12.667 -103.333 13.333 -191.833 78 -265.5s148.667 -110.5 252 -110.5c57.333 0 107.666 9.33301 150.999 28
l19 -114c-58 -22.667 -119.667 -34 -185 -34c-90 0 -170.333 22.167 -241 66.5s-123.5 104.5 -158.5 180.5s-46.833 159 -35.5 249c17.333 137.333 80.333 254.333 189 351s231.334 145 368.001 145c84 0 161 -20.333 231 -61s123.5 -96.167 160.5 -166.5
s50.5 -145.833 40.5 -226.5zM619.001 296c6 30 2.83008 57.5 -9.50293 82.5s-36.5 37.5 -72.5 37.5c-29.333 0 -55.666 -11.167 -78.999 -33.5s-39 -50.5 -47 -84.5c-7.33301 -31.333 -4.66602 -59.5 8.00098 -84.5s36.667 -37.5 72 -37.5c33.333 0 61.333 11.5 84 34.5
s37.334 51.5 44.001 85.5z" />
    <glyph glyph-name="A" unicode="A" horiz-adv-x="704" 
d="M487 0l-29 112h-268l-55 -112h-176l360 672h148l196 -672h-176zM263 256h158l-53 208z" />
    <glyph glyph-name="B" unicode="B" horiz-adv-x="640" 
d="M497 353c36 -12 61.832 -31.333 77.499 -58s21.5 -57.667 17.5 -93c-8 -59.333 -34.833 -107.833 -80.5 -145.5s-103.834 -56.5 -174.501 -56.5h-314l82 672h256c80.667 0 141.834 -14.167 183.501 -42.5s58.834 -72.833 51.501 -133.5
c-3.33301 -28.667 -14.5 -57 -33.5 -85s-40.833 -47.333 -65.5 -58zM247.999 528l-14 -112h96c64 0 98.333 19 103 57c2.66699 20 -3.5 34.167 -18.5 42.5s-38.5 12.5 -70.5 12.5h-96zM311.999 144c75.333 0 115.331 21.668 119.998 65.001
c2.66699 21.333 -5.16602 37.166 -23.499 47.499s-45.166 15.5 -80.499 15.5h-112l-16 -128h112z" />
    <glyph glyph-name="C" unicode="C" horiz-adv-x="656" 
d="M374 128c66 0 123.333 25.999 172 77.999l45 -141c-32 -25.333 -69.167 -45.166 -111.5 -59.499s-83.166 -21.5 -122.499 -21.5c-101.333 0 -183.833 34.5 -247.5 103.5s-89.5 151.833 -77.5 248.5c12 97.333 58.167 180.333 138.5 249s171.166 103 272.499 103
c40 0 79.5 -7 118.5 -21s70.833 -33.667 95.5 -59l-79 -142c-34.667 52 -85.334 78 -152.001 78c-57.333 0 -109 -20.333 -155 -61s-72.333 -89.667 -79 -147c-7.33301 -57.333 6.83398 -106.333 42.501 -147s82.167 -61 139.5 -61z" />
    <glyph glyph-name="D" unicode="D" horiz-adv-x="704" 
d="M360 672c111.333 0 194.167 -31.667 248.5 -95s75.5 -143.666 63.5 -240.999c-12 -96.667 -53.333 -176.834 -124 -240.501s-160.667 -95.5 -270 -95.5h-255l82 672h255zM306.001 144c48 0 92.667 19 134 57s65.333 83 72 135s-6 97 -38 135s-72 57 -120 57h-106
l-48 -384h106z" />
    <glyph glyph-name="E" unicode="E" horiz-adv-x="544" 
d="M520 528h-272l-15 -120h224l-18 -144h-224l-15 -120h272l-17 -144h-432l82 672h432z" />
    <glyph glyph-name="F" unicode="F" horiz-adv-x="528" 
d="M23 0l82 672h432l-17 -144h-272l-15 -120h224l-18 -144h-224l-32 -264h-160z" />
    <glyph glyph-name="G" unicode="G" horiz-adv-x="752" 
d="M722 400c1.33301 -24 0.661133 -45.332 -2.00586 -63.999c-12 -98 -54.167 -181.167 -126.5 -249.5s-156.5 -102.5 -252.5 -102.5c-97.333 0 -176.166 34.5 -236.499 103.5s-84.5 151.833 -72.5 248.5c12 97.333 56.667 180.333 134 249s164.333 103 261 103
c67.333 0 125.333 -17.333 174 -52s84.334 -81.334 107.001 -140.001l-150 -43c-30.667 60.667 -80 91 -148 91c-55.333 0 -103.666 -20.167 -144.999 -60.5s-65.666 -89.5 -72.999 -147.5s4.83398 -107.167 36.501 -147.5s74.834 -60.5 129.501 -60.5
c43.333 0 81.833 11.5 115.5 34.5s56.5 54.167 68.5 93.5h-216l18 144h378z" />
    <glyph glyph-name="H" unicode="H" horiz-adv-x="704" 
d="M521 672h160l-82 -672h-160l32 264h-256l-32 -264h-160l82 672h160l-32 -264h256z" />
    <glyph glyph-name="I" unicode="I" horiz-adv-x="288" 
d="M183 0h-160l82 672h160z" />
    <glyph glyph-name="J" unicode="J" horiz-adv-x="496" 
d="M329 672h160.003l-51 -416c-10.667 -89.333 -41.834 -157 -93.501 -203s-117.167 -69 -196.5 -69c-30.667 0 -60.167 5.83301 -88.5 17.5s-49.5 26.5 -63.5 44.5l87 120c17.333 -25.333 42.666 -38 75.999 -38c29.333 0 55.166 10.333 77.499 31s35.833 51 40.5 91z" />
    <glyph glyph-name="K" unicode="K" horiz-adv-x="656" 
d="M370 352l229 -352h-192l-189 288l-35 -288h-160l82 672h160l-31 -256l239 256h192z" />
    <glyph glyph-name="L" unicode="L" horiz-adv-x="512" 
d="M200 144h256l-17 -144h-416l82 672h160z" />
    <glyph glyph-name="M" unicode="M" horiz-adv-x="864" 
d="M793 672l-2 -672h-160l-1 384l-191 -384h-96l-97 384l-95 -384h-160l162 672h160l111 -400l209 400h160z" />
    <glyph glyph-name="N" unicode="N" horiz-adv-x="752" 
d="M569 672h160l-82 -672h-160l-253 416l-51 -416h-160l82 672h160l253 -416z" />
    <glyph glyph-name="O" unicode="O" horiz-adv-x="784" 
d="M435 688c99.333 0 180 -34.333 242 -103s87 -151.667 75 -249s-57.333 -180.333 -136 -249s-167.667 -103 -267 -103s-180 34.333 -242 103s-87 151.667 -75 249s57.333 180.333 136 249s167.667 103 267 103zM366 128c55.333 0 105.166 20.333 149.499 61
s69.833 89.667 76.5 147s-6.83301 106.333 -40.5 147s-78.167 61 -133.5 61s-105.166 -20.333 -149.499 -61s-69.833 -89.667 -76.5 -147s6.83301 -106.333 40.5 -147s78.167 -61 133.5 -61z" />
    <glyph glyph-name="P" unicode="P" horiz-adv-x="624" 
d="M377 672c84.667 0 146.168 -20.333 184.501 -61s53.166 -95 44.499 -163c-8 -64 -35.167 -118.667 -81.5 -164s-103.5 -68 -171.5 -68h-144l-26 -216h-160l82 672h272zM338.001 360c27.333 0 51.332 7.66699 71.999 23s32.334 35.666 35.001 60.999
c4 28.667 -2.16699 49.834 -18.5 63.501s-38.833 20.5 -67.5 20.5h-111l-21 -168h111z" />
    <glyph glyph-name="Q" unicode="Q" horiz-adv-x="784" 
d="M727 0h-176l-20 30c-58 -30.667 -118.667 -46 -182 -46c-99.333 0 -180 34.333 -242 103s-87 151.667 -75 249s57.333 180.333 136 249s167.667 103 267 103s180 -34.333 242 -103s87 -151.667 75 -249c-10 -84 -47 -158.667 -111 -224zM366 128
c30.667 0 60.332 6.66699 88.999 20l-79 124h144l31 -41c22 31.333 35.667 66.333 41 105c6.66699 57.333 -6.83301 106.333 -40.5 147s-78.167 61 -133.5 61s-105.166 -20.333 -149.499 -61s-69.833 -89.667 -76.5 -147s6.83301 -106.333 40.5 -147s78.167 -61 133.5 -61z
" />
    <glyph glyph-name="R" unicode="R" horiz-adv-x="656" 
d="M583 0l-184 -0.000976562l-124 216h-66l-26 -216h-160l82 672h272c84.667 0 146.167 -20.333 184.5 -61s53.166 -95 44.499 -163c-6 -48.667 -23.667 -92.667 -53 -132s-66.666 -67.666 -111.999 -84.999zM248 527.999l-21.001 -168h111c27.333 0 51.333 7.66699 72 23
s32.334 35.666 35.001 60.999c4 28.667 -2.16699 49.834 -18.5 63.501s-38.833 20.5 -67.5 20.5h-111z" />
    <glyph glyph-name="S" unicode="S" horiz-adv-x="624" 
d="M331 423c43.333 -9.33301 78.9951 -19 106.995 -29s54.167 -23.167 78.5 -39.5s41.333 -37.166 51 -62.499s12.5 -55.333 8.5 -90c-8 -64 -39.167 -116.333 -93.5 -157s-125.5 -61 -213.5 -61c-32 0 -63 3.83301 -93 11.5s-55 17 -75 28s-37.833 22 -53.5 33
s-26.834 20.167 -33.501 27.5l-11 12l88 128c56.667 -64 121.667 -96 195 -96c80.667 0 123.334 21.333 128.001 64c2 16.667 -4.33301 30.167 -19 40.5s-42.667 19.166 -84 26.499c-89.333 15.333 -153.166 40 -191.499 74s-54.166 79.667 -47.499 137
c8 61.333 38.667 113 92 155s120.333 63 201 63c16 0 34.167 -1.16699 54.5 -3.5s49.5 -10.5 87.5 -24.5s68.667 -33.333 92 -58l-86 -126c-1.33301 2 -3.5 4.5 -6.5 7.5s-9.5 8.33301 -19.5 16s-21 14.5 -33 20.5s-27.667 11.5 -47 16.5s-39.666 7.5 -60.999 7.5
c-29.333 0 -54.666 -5 -75.999 -15s-33 -24 -35 -42c-2 -16 3.83301 -28.5 17.5 -37.5s39.834 -17.833 78.501 -26.5z" />
    <glyph glyph-name="T" unicode="T" horiz-adv-x="576" 
d="M73 672h512l-17 -144h-176l-65 -528h-160l65 528h-176z" />
    <glyph glyph-name="U" unicode="U" horiz-adv-x="672" 
d="M505 672l160 0.000976562l-47 -384c-11.333 -90.667 -46 -164 -104 -220s-131.667 -84 -221 -84c-90.667 0 -158 28 -202 84s-60.333 129.333 -49 220l47 384h160l-49 -400c-5.33301 -44.667 1.66699 -79.834 21 -105.501s49 -38.5 89 -38.5c38 0 70.5 13 97.5 39
s43.167 61 48.5 105z" />
    <glyph glyph-name="V" unicode="V" horiz-adv-x="672" 
d="M231 0l-190 672h176l109 -416l211 416h176l-354 -672h-128z" />
    <glyph glyph-name="W" unicode="W" horiz-adv-x="1024" 
d="M625 672l69 -418l187 418h176l-326 -672h-144l-71 370l-161 -370h-144l-162 672h176l85 -418l171 418h144z" />
    <glyph glyph-name="X" unicode="X" horiz-adv-x="720" 
d="M466 352l197 -352h-192l-124 231l-180 -231h-192l283 352l-185 320h185l117 -212l169 212h185z" />
    <glyph glyph-name="Y" unicode="Y" horiz-adv-x="672" 
d="M525 672h188l-305 -400l-33 -272h-160l33 272l-207 400h188l117 -256z" />
    <glyph glyph-name="Z" unicode="Z" horiz-adv-x="624" 
d="M535 0h-544l365 528h-284l17 144h544l-365 -528h284z" />
    <glyph glyph-name="bracketleft" unicode="[" horiz-adv-x="352" 
d="M251 688l-92 -752h80l-18 -144h-224l128 1040h224l-18 -144h-80z" />
    <glyph glyph-name="backslash" unicode="\" horiz-adv-x="528" 
d="M317 -80l-218 832h112l218 -832h-112z" />
    <glyph glyph-name="bracketright" unicode="]" horiz-adv-x="352" 
d="M187 688h-80l18 144h224l-128 -1040h-224l18 144h80z" />
    <glyph glyph-name="asciicircum" unicode="^" horiz-adv-x="544" 
d="M62 448l207 256h96l145 -256h-112l-92 164l-132 -164h-112z" />
    <glyph glyph-name="underscore" unicode="_" horiz-adv-x="576" 
d="M485 -144h-512l14 112h512z" />
    <glyph glyph-name="grave" unicode="`" horiz-adv-x="800" 
d="M545 736h-96l-126 144h160z" />
    <glyph glyph-name="a" unicode="a" horiz-adv-x="640" 
d="M551 0l-160 -0.000976562c-4.66699 8.66699 -7.66699 22.334 -9 41.001c-45.333 -38 -96.333 -57 -153 -57c-66.667 0 -120.167 25.833 -160.5 77.5s-56.166 113.834 -47.499 186.501c9.33301 73.333 40.5 135.666 93.5 186.999s112.833 77 179.5 77
c55.333 0 100.666 -19.333 135.999 -58l6 42h160l-49 -400c-6 -48 -4.66699 -80 4 -96zM278 127.999c30.667 0 58.5 11.667 83.5 35s39.5 51.666 43.5 84.999s-3.5 61.666 -22.5 84.999s-43.833 35 -74.5 35s-58.5 -11.667 -83.5 -35s-39.5 -51.666 -43.5 -84.999
s3.5 -61.666 22.5 -84.999s43.833 -35 74.5 -35z" />
    <glyph glyph-name="b" unicode="b" horiz-adv-x="640" 
d="M390 512c66.667 0 120.168 -25.6689 160.501 -77.002s55.833 -113.666 46.5 -186.999s-40.333 -135.666 -93 -186.999s-112.334 -77 -179.001 -77c-56 0 -101.667 19.333 -137 58l-5 -42h-160l86 704h160l-31 -250c46 38.667 96.667 58 152 58zM310.001 127.998
c30.667 0 58.5 11.667 83.5 35s39.5 51.666 43.5 84.999s-3.5 61.666 -22.5 84.999s-43.833 35 -74.5 35s-58.5 -11.667 -83.5 -35s-39.5 -51.666 -43.5 -84.999s3.5 -61.666 22.5 -84.999s43.833 -35 74.5 -35z" />
    <glyph glyph-name="c" unicode="c" horiz-adv-x="528" 
d="M418 173l42.0029 -128c-47.333 -40.667 -112.333 -61 -195 -61c-84.667 0 -148.834 25.167 -192.501 75.5s-60.834 113.166 -51.501 188.499s42.166 138.166 98.499 188.499s126.5 75.5 210.5 75.5c81.333 0 141.333 -20.333 180 -61l-74 -129
c-30.667 30.667 -68.667 46 -114 46c-34.667 0 -65.834 -11.667 -93.501 -35s-43.5 -51.666 -47.5 -84.999s4.83301 -61.666 26.5 -84.999s49.834 -35 84.501 -35c45.333 0 87.333 15 126 45z" />
    <glyph glyph-name="d" unicode="d" horiz-adv-x="640" 
d="M551 0l-160 -0.000976562c-4.66699 8.66699 -7.66699 22.334 -9 41.001c-45.333 -38 -96.333 -57 -153 -57c-66.667 0 -120.167 25.833 -160.5 77.5s-56.166 113.834 -47.499 186.501c9.33301 73.333 40.5 135.666 93.5 186.999s112.833 77 179.5 77
c55.333 0 100.666 -19.333 135.999 -58l31 250h160l-74 -608c-6 -48 -4.66699 -80 4 -96zM278 127.999c30.667 0 58.5 11.667 83.5 35s39.5 51.666 43.5 84.999s-3.5 61.666 -22.5 84.999s-43.833 35 -74.5 35s-58.5 -11.667 -83.5 -35s-39.5 -51.666 -43.5 -84.999
s3.5 -61.666 22.5 -84.999s43.833 -35 74.5 -35z" />
    <glyph glyph-name="e" unicode="e" horiz-adv-x="576" 
d="M533 248c-0.666992 -10.667 -3.00098 -24.002 -7.00098 -40.002h-342c4 -24.667 15.667 -44.167 35 -58.5s45.333 -21.5 78 -21.5c48 0 97.667 10 149 30l29 -127c-6 -3.33301 -14.333 -7.66602 -25 -12.999s-33.167 -12.333 -67.5 -21s-69.833 -13 -106.5 -13
c-94.667 0 -163.167 24.667 -205.5 74s-58.833 112.666 -49.5 189.999c9.33301 76.667 40 139.834 92 189.501s120.333 74.5 205 74.5c78.667 0 136.834 -23.167 174.501 -69.5s51.167 -111.166 40.5 -194.499zM195.999 303.998h175.999c2 19.333 -3.66699 37.5 -17 54.5
s-33.666 25.5 -60.999 25.5c-24 0 -45.833 -8.66699 -65.5 -26s-30.5 -35.333 -32.5 -54z" />
    <glyph glyph-name="f" unicode="f" horiz-adv-x="416" 
d="M52 496l63.9971 0.000976562c4 32 9.33301 59.667 16 83s16.667 46.666 30 69.999s31.833 41 55.5 53s52.167 18 85.5 18c41.333 0 78 -5.33301 110 -16l-16 -128c-17.333 4 -32.666 6.16699 -45.999 6.5s-24.166 -1.5 -32.499 -5.5s-15.166 -8 -20.499 -12
s-9.5 -10.5 -12.5 -19.5s-5 -16.5 -6 -22.5s-2.16699 -15 -3.5 -27h112l-18 -144h-112l-43 -352h-160l43 352h-64z" />
    <glyph glyph-name="g" unicode="g" horiz-adv-x="640" 
d="M436 496l160.001 0.000976562l-55 -448c-12.667 -102.667 -48.334 -181.667 -107.001 -237s-132.334 -83 -221.001 -83c-41.333 0 -81.166 6.66699 -119.499 20s-66.166 26.666 -83.499 39.999l-27 20l76 128c55.333 -42.667 109.666 -64 162.999 -64
c42 0 77 13.667 105 41s44.667 63.333 50 108l3 21c-46 -38.667 -96.333 -58 -151 -58c-66.667 0 -120.167 25.833 -160.5 77.5s-56.166 113.834 -47.499 186.501c9.33301 73.333 40.5 135.666 93.5 186.999s112.833 77 179.5 77c55.333 0 100.666 -19.333 135.999 -58z
M278.001 128.001c30.667 0 58.5 11.667 83.5 35s39.5 51.666 43.5 84.999s-3.5 61.666 -22.5 84.999s-43.833 35 -74.5 35s-58.5 -11.667 -83.5 -35s-39.5 -51.666 -43.5 -84.999s3.5 -61.666 22.5 -84.999s43.833 -35 74.5 -35z" />
    <glyph glyph-name="h" unicode="h" 
d="M531 96c-6 -48 -4.66602 -79.999 4.00098 -95.999h-160c-8.66699 16 -10 48 -4 96l21 176c8 64 -14.667 96 -68 96c-9.33301 0 -19.333 -1.66699 -30 -5s-21.667 -8.83301 -33 -16.5s-21.333 -19.334 -30 -35.001s-14.334 -34.167 -17.001 -55.5l-31 -256h-160l86 704
h160l-31 -256c41.333 42.667 92 64 152 64c54 0 97.167 -19.5 129.5 -58.5s43.833 -94.167 34.5 -165.5z" />
    <glyph glyph-name="i" unicode="i" horiz-adv-x="288" 
d="M172 560c-26.667 0 -48.332 9.33301 -64.999 28s-23.334 41.334 -20.001 68.001s15.5 49.334 36.5 68.001s44.833 28 71.5 28s48.167 -9.33301 64.5 -28s22.833 -41.334 19.5 -68.001c-2.66699 -26.667 -14.5 -49.334 -35.5 -68.001s-44.833 -28 -71.5 -28zM244.002 496
l-49 -400c-6 -48 -4.66699 -80 4 -96h-160c-8.66699 16 -10 48 -4 96l49 400h160z" />
    <glyph glyph-name="j" unicode="j" horiz-adv-x="288" 
d="M172 560c-26.667 0 -48.332 9.33301 -64.999 28s-23.334 41.334 -20.001 68.001s15.5 49.334 36.5 68.001s44.833 28 71.5 28s48.167 -9.33301 64.5 -28s22.833 -41.334 19.5 -68.001c-2.66699 -26.667 -14.5 -49.334 -35.5 -68.001s-44.833 -28 -71.5 -28zM23.002 0
l60.999 495.998h160l-59 -480c-6.66699 -56.667 -18.667 -104.5 -36 -143.5s-38.833 -68.667 -64.5 -89s-52.5 -34.666 -80.5 -42.999s-59.667 -12.5 -95 -12.5l-14 144c32.667 0.666992 60.834 11.334 84.501 32.001s38.167 52.667 43.5 96z" />
    <glyph glyph-name="k" unicode="k" horiz-adv-x="592" 
d="M358 256l193 -256h-192l-152 196l-24 -196h-160l86 704h160l-48 -396l183 188h192z" />
    <glyph glyph-name="l" unicode="l" horiz-adv-x="288" 
d="M269 704l-74 -608c-6 -48 -4.66699 -80 4 -96h-160c-8.66699 16 -10 48 -4 96l74 608h160z" />
    <glyph glyph-name="m" unicode="m" horiz-adv-x="880" 
d="M803 96c-6 -48 -4.66113 -80.002 4.00586 -96.002h-160c-8.66699 16 -10 48 -4 96l21 176c4.66699 36.667 2.16699 61.834 -7.5 75.501s-24.5 20.5 -44.5 20.5c-20.667 0 -40.334 -8.5 -59.001 -25.5s-30.334 -45.833 -35.001 -86.5l-19 -160c-6 -48 -4.66699 -80 4 -96
h-160c-8.66699 16 -10 48 -4 96l21 176c4.66699 36.667 2.16699 61.834 -7.5 75.501s-24.5 20.5 -44.5 20.5c-20.667 0 -40.334 -8.5 -59.001 -25.5s-30.334 -45.833 -35.001 -86.5l-31 -256h-160l61 496h160l-6 -48c41.333 42.667 86.666 64 135.999 64
c57.333 0 99 -21.667 125 -65c43.333 43.333 97.666 65 162.999 65c54 0 97.167 -19.5 129.5 -58.5s43.833 -94.167 34.5 -165.5z" />
    <glyph glyph-name="n" unicode="n" 
d="M531 96c-6 -48 -4.66602 -79.999 4.00098 -95.999h-160c-8.66699 16 -10 48 -4 96l21 176c8 64 -14.667 96 -68 96c-9.33301 0 -19.333 -1.66699 -30 -5s-21.667 -8.83301 -33 -16.5s-21.333 -19.334 -30 -35.001s-14.334 -34.167 -17.001 -55.5l-31 -256h-160l61 496
h160l-6 -48c41.333 42.667 92 64 152 64c54 0 97.167 -19.5 129.5 -58.5s43.833 -94.167 34.5 -165.5z" />
    <glyph glyph-name="o" unicode="o" 
d="M326 512c78.667 0 140.502 -25.4971 185.502 -76.4971s62.833 -113.5 53.5 -187.5c-9.33301 -74.667 -42.5 -137.334 -99.5 -188.001s-125.167 -76 -204.5 -76c-82.667 0 -145.667 25.167 -189 75.5s-60.333 113.166 -51 188.499s41.666 138.166 96.999 188.499
s124.666 75.5 207.999 75.5zM278.002 128.003c30.667 0 58.5 11.667 83.5 35s39.5 51.666 43.5 84.999s-3.5 61.666 -22.5 84.999s-43.833 35 -74.5 35s-58.5 -11.667 -83.5 -35s-39.5 -51.666 -43.5 -84.999s3.5 -61.666 22.5 -84.999s43.833 -35 74.5 -35z" />
    <glyph glyph-name="p" unicode="p" horiz-adv-x="640" 
d="M390 512c66.667 0 120.168 -25.6689 160.501 -77.002s55.833 -113.666 46.5 -186.999s-40.333 -135.666 -93 -186.999s-112.334 -77 -179.001 -77c-56 0 -101.667 19.333 -137 58l-37 -298h-160l93 752h160l-6 -42c46 38.667 96.667 58 152 58zM310.001 127.998
c30.667 0 58.5 11.667 83.5 35s39.5 51.666 43.5 84.999s-3.5 61.666 -22.5 84.999s-43.833 35 -74.5 35s-58.5 -11.667 -83.5 -35s-39.5 -51.666 -43.5 -84.999s3.5 -61.666 22.5 -84.999s43.833 -35 74.5 -35z" />
    <glyph glyph-name="q" unicode="q" horiz-adv-x="640" 
d="M515 -160c-6 -48 -4.66699 -80 4 -96h-160c-8.66699 16 -10 48 -4 96l25 202c-46 -38.667 -96.333 -58 -151 -58c-66.667 0 -120.167 25.833 -160.5 77.5s-56.166 113.834 -47.499 186.501c9.33301 73.333 40.5 135.666 93.5 186.999s112.833 77 179.5 77
c55.333 0 100.666 -19.333 135.999 -58l6 42h160zM278 128c30.667 0 58.5 11.667 83.5 35s39.5 51.666 43.5 84.999s-3.5 61.666 -22.5 84.999s-43.833 35 -74.5 35s-58.5 -11.667 -83.5 -35s-39.5 -51.666 -43.5 -84.999s3.5 -61.666 22.5 -84.999s43.833 -35 74.5 -35z
" />
    <glyph glyph-name="r" unicode="r" horiz-adv-x="448" 
d="M231 391c40.667 74 109.668 114.333 207.001 121l-22 -176c-26.667 10 -58.667 10 -96 0c-26 -6.66699 -50.333 -23 -73 -49s-36.334 -57.333 -41.001 -94l-23 -193h-160l61 496h160z" />
    <glyph glyph-name="s" unicode="s" horiz-adv-x="544" 
d="M289 325c78 -8.66699 132.501 -25.9971 163.501 -51.9971s43.5 -63.667 37.5 -113c-6 -53.333 -32.167 -96 -78.5 -128s-111.833 -48 -196.5 -48c-42 0 -81.333 5.16699 -118 15.5s-62.667 20.5 -78 30.5l-23 16l59 130c16 -12.667 36.833 -23.5 62.5 -32.5
s47.167 -14.833 64.5 -17.5l27 -4c77.333 -7.33301 117.333 0.333984 120 23.001c0.666992 6 -0.333008 10.667 -3 14s-9 6.33301 -19 9s-19.667 4.66699 -29 6s-26 3.33301 -50 6c-40.667 5.33301 -74.334 14.166 -101.001 26.499s-45.334 27 -56.001 44
s-17.5 32.833 -20.5 47.5s-3.5 30 -1.5 46c6.66699 51.333 31.167 92.166 73.5 122.499s103.166 45.5 182.499 45.5c76.667 0 138.334 -13.667 185.001 -41l-53 -129c-47.333 24.667 -96 37 -146 37c-52 0 -78.667 -7 -80 -21
c-1.33301 -10.667 6.33398 -18.334 23.001 -23.001c8 -2.66699 22.333 -5.33398 43 -8.00098z" />
    <glyph glyph-name="t" unicode="t" horiz-adv-x="400" 
d="M72 141l26 211.001h-64l18 144h64l21 176h160l-21 -176h96l-18 -144h-96l-18 -144c-4.66699 -39.333 -2 -64.333 8 -75s36 -12.334 78 -5.00098l-15 -128c-32.667 -10.667 -70.667 -16 -114 -16c-48.667 0 -83 14.833 -103 44.5s-27.333 67.167 -22 112.5z" />
    <glyph glyph-name="u" unicode="u" 
d="M519 0l-160.001 -0.000976562c-6.66699 11.333 -9.33398 27 -8.00098 47c-40.667 -42 -92 -63 -154 -63c-54 0 -97.167 19.5 -129.5 58.5s-44.166 94.167 -35.499 165.5l36 288h160l-34 -272c-8 -64 14.667 -96 68 -96c9.33301 0 19.333 1.66699 30 5
s21.667 8.83301 33 16.5s21.333 19.334 30 35.001s14.334 34.167 17.001 55.5l32 256h160l-49 -400c-6 -48 -4.66699 -80 4 -96z" />
    <glyph glyph-name="v" unicode="v" horiz-adv-x="544" 
d="M167 0l-147 496h176l62 -272l130 272h176l-269 -496h-128z" />
    <glyph glyph-name="w" unicode="w" horiz-adv-x="784" 
d="M628 496h168l-229 -496h-128l-56 266l-120 -266h-128l-107 496h168l37 -282l115 282h128l45 -282z" />
    <glyph glyph-name="x" unicode="x" 
d="M391 264l160 -264h-192l-79 140l-113 -140h-192l224 264l-147 232h192l64 -124l96 124h192z" />
    <glyph glyph-name="y" unicode="y" horiz-adv-x="544" 
d="M388 496h176l-397 -752h-176l165 292l-136 460h176l62 -272z" />
    <glyph glyph-name="z" unicode="z" horiz-adv-x="528" 
d="M439 0h-448l251 352h-192l18 144h448l-252 -352h192z" />
    <glyph glyph-name="braceleft" unicode="{" horiz-adv-x="416" 
d="M244 -22c-3.33301 -25.333 0.500977 -47.832 11.501 -67.499s29.5 -32.5 55.5 -38.5l-92 -96c-92 31.333 -132.333 92 -121 182l28 234c3.33301 26.667 -4.33398 50.5 -23.001 71.5s-38.334 34.5 -59.001 40.5c22.667 6 45.834 19.667 69.501 41s37.167 45 40.5 71
l29 234c10.667 89.333 66 150 166 182l68 -96c-27.333 -6 -48.833 -18.833 -64.5 -38.5s-25.167 -42.167 -28.5 -67.5l-22 -180c-9.33301 -76 -40.333 -124.667 -93 -146c47.333 -20.667 66.333 -69.334 57 -146.001z" />
    <glyph glyph-name="bar" unicode="|" horiz-adv-x="224" 
d="M87 -256h-96l126 1024h96z" />
    <glyph glyph-name="braceright" unicode="}" horiz-adv-x="416" 
d="M84 -22l21.999 180c8.66699 76 39.667 124.667 93 146c-46.667 21.333 -65.667 70 -57 146l22 180c3.33301 26 -0.5 48.667 -11.5 68s-29.5 32 -55.5 38l92 96c92 -31.333 132.667 -92 122 -182l-29 -234c-3.33301 -26.667 4.33398 -50.5 23.001 -71.5
s38.334 -34.5 59.001 -40.5c-22.667 -6 -45.834 -19.667 -69.501 -41s-37.167 -45 -40.5 -71l-28 -234c-11.333 -89.333 -67 -150 -167 -182l-68 96c27.333 6 48.833 18.667 64.5 38s25.167 42 28.5 68z" />
    <glyph glyph-name="asciitilde" unicode="~" horiz-adv-x="560" 
d="M431 352l79 -32c-24 -36 -48 -61 -72 -75s-52 -21 -84 -21c-20 0 -57.667 10.333 -113 31c-27.333 12.667 -51 17 -71 13s-37.667 -18.667 -53 -44l-79 32c24 36 48 61 72 75s52 21 84 21c20 0 57.667 -10.667 113 -32c28 -12 51.667 -16.167 71 -12.5s37 18.5 53 44.5z
" />
    <glyph glyph-name="exclamdown" unicode="&#xa1;" horiz-adv-x="304" 
d="M174 512c24.667 0 44.5 -8.5 59.5 -25.5s20.833 -37.833 17.5 -62.5c-2.66699 -24.667 -13.667 -45.5 -33 -62.5s-41.333 -25.5 -66 -25.5s-44.5 8.5 -59.5 25.5s-20.833 37.833 -17.5 62.5c2.66699 24.667 13.667 45.5 33 62.5s41.333 25.5 66 25.5zM98 288h96l-25 -464
h-160z" />
    <glyph glyph-name="cent" unicode="&#xa2;" horiz-adv-x="528" 
d="M418 173l41.999 -128.002c-40 -35.333 -95.667 -55.333 -167 -60l-8 -65h-48l8 65c-78 4 -137 30.833 -177 80.5s-55.667 110.5 -47 182.5s39.334 132.833 92.001 182.5s118 76.5 196 80.5l8 65h48l-8 -65c68.667 -4.66699 119.667 -24.667 153 -60l-74 -129
c-30.667 30.667 -68.667 46 -114 46c-34.667 0 -65.834 -11.667 -93.501 -35s-43.5 -51.666 -47.5 -84.999s4.83301 -61.666 26.5 -84.999s49.834 -35 84.501 -35c45.333 0 87.333 15 126 45z" />
    <glyph glyph-name="sterling" unicode="&#xa3;" horiz-adv-x="624" 
d="M478 192l85.002 -94.0029c-48.667 -76 -107.667 -114 -177 -114c-40 0 -78 7.66699 -114 23c-82 34.667 -139 32.334 -171 -6.99902l-97 112c10 18.667 28.667 37.334 56 56.001c33.333 22 52.666 62 57.999 120h-92l12 96h65c-7.33301 36 -8.33301 73.333 -3 112
c6.66699 54.667 36 100.334 88 137.001s115.667 55 191 55c87.333 0 158.666 -26.667 213.999 -80l-84 -128c-33.333 42.667 -76.333 64 -129 64c-76.667 0 -118 -27 -124 -81c-2.66699 -19.333 0 -45.666 8 -78.999h142l-12 -96h-129
c-1.33301 -20.667 -6.5 -44.834 -15.5 -72.501s-18.167 -45.834 -27.5 -54.501c28 -15.333 58.833 -25.666 92.5 -30.999s66.167 -3 97.5 7s53.333 28.333 66 55z" />
    <glyph glyph-name="currency" unicode="&#xa4;" horiz-adv-x="526" 
d="M26 153l87.999 81c-13.333 27.333 -18 56 -14 86c4 30.667 16 59.334 36 86.001l-69 82l54 47l68 -81c30 17.333 60.667 26 92 26s59.333 -9 84 -27l88 82l44 -47l-91 -82c13.333 -25.333 18 -54 14 -86c-4 -32.667 -16 -61.334 -36 -86.001l72 -80l-53 -49l-73 80
c-28 -16.667 -57.667 -25 -89 -25s-59.666 8.33301 -84.999 25l-89 -80zM251.999 256c17.333 0 33.166 6.33301 47.499 19s22.5 27.667 24.5 45s-2.5 32.333 -13.5 45s-25.167 19 -42.5 19s-33.166 -6.33301 -47.499 -19s-22.5 -27.667 -24.5 -45s2.5 -32.333 13.5 -45
s25.167 -19 42.5 -19z" />
    <glyph glyph-name="yen" unicode="&#xa5;" horiz-adv-x="736" 
d="M745 672l-305 -400h96l-6 -48h-96l-8 -64h96l-6 -48h-96l-13 -112h-160l13 112h-96l6 48h96l8 64h-96l6 48h96l-207 400h188l117 -256l179 256h188z" />
    <glyph glyph-name="brokenbar" unicode="&#xa6;" horiz-adv-x="224" 
d="M170 416h-96l43 352h96zM87 -256h-96l44 352h96z" />
    <glyph glyph-name="section" unicode="&#xa7;" horiz-adv-x="656" 
d="M603 298c-6 -50.667 -26.665 -93.999 -61.998 -129.999c27.333 -32.667 37.666 -74.667 30.999 -126c-8 -64 -39 -116.333 -93 -157s-125.333 -61 -214 -61c-32 0 -63 3.83301 -93 11.5s-55 17 -75 28s-37.833 22 -53.5 33s-26.834 20.167 -33.501 27.5l-11 12l89 128
c56.667 -64 121.667 -96 195 -96c79.333 0 122 21.333 128 64c2 16.667 -4.5 30.167 -19.5 40.5s-43.167 19.166 -84.5 26.499c-88.667 15.333 -152.167 40 -190.5 74s-54.166 79.667 -47.499 137c6 50.667 27.667 94.667 65 132c-28.667 31.333 -40 72.666 -34 123.999
c8 61.333 38.667 113 92 155s120.333 63 201 63c16 0 34.167 -1.16699 54.5 -3.5s49.333 -10.5 87 -24.5s68.167 -33.333 91.5 -58l-85 -126c-1.33301 2 -3.5 4.5 -6.5 7.5s-9.66699 8.33301 -20 16s-21.333 14.5 -33 20.5s-27.334 11.5 -47.001 16.5s-40.167 7.5 -61.5 7.5
c-28.667 0 -53.667 -5 -75 -15s-33.333 -24 -36 -42c-1.33301 -16 4.66699 -28.5 18 -37.5s39.333 -17.833 78 -26.5c34 -7.33301 63 -14.666 87 -21.999s47.5 -17 70.5 -29s41 -25.333 54 -40s22.667 -33 29 -55s7.83301 -47 4.5 -75zM338.002 355.001
c-25.333 4 -48.334 9.00098 -69.001 15.001c-23.333 -10 -36 -24.333 -38 -43c-2 -16 3.83301 -28.5 17.5 -37.5s39.834 -17.833 78.501 -26.5c30.667 -6.66699 58 -13.667 82 -21c20 10.667 31 26 33 46c2 16.667 -4.5 30.167 -19.5 40.5s-43.167 19.166 -84.5 26.499z" />
    <glyph glyph-name="dieresis" unicode="&#xa8;" horiz-adv-x="800" 
d="M345 736c-20 0 -36.167 7 -48.5 21s-17.166 31 -14.499 51s11.834 37 27.501 51s33.5 21 53.5 21s36.167 -7 48.5 -21s17.166 -31 14.499 -51s-11.834 -37 -27.501 -51s-33.5 -21 -53.5 -21zM553 736c-20 0 -36.167 7 -48.5 21s-17.166 31 -14.499 51
s11.834 37 27.501 51s33.5 21 53.5 21s36.167 -7 48.5 -21s17.166 -31 14.499 -51s-11.834 -37 -27.501 -51s-33.5 -21 -53.5 -21z" />
    <glyph glyph-name="copyright" unicode="&#xa9;" horiz-adv-x="736" 
d="M341 120c-90 0 -162 31.167 -216 93.5s-75.333 137.833 -64 226.5c10.667 90.667 50.5 166.667 119.5 228s148.833 92 239.5 92s163 -30.667 217 -92s75.333 -137.333 64 -228c-10.667 -90.667 -50.667 -166.667 -120 -228s-149.333 -92 -240 -92zM350 192
c69.333 0 130.999 24.167 184.999 72.5s85.333 106.833 94 175.5s-8.16602 127.167 -50.499 175.5s-98.166 72.5 -167.499 72.5c-68.667 0 -130 -24 -184 -72s-85.333 -106.667 -94 -176s8.16602 -128 50.499 -176s97.833 -72 166.5 -72zM380.999 348
c28.667 0 54.3291 11.3311 76.9961 33.998l19 -62c-30 -24 -64.333 -36 -103 -36c-45.333 0 -82 15.333 -110 46s-39.333 67.334 -34 110.001c4.66699 42.667 24.834 79.334 60.501 110.001s76.167 46 121.5 46c38.667 0 70.334 -11.667 95.001 -35l-35 -63
c-16 22.667 -38.667 34 -68 34c-25.333 0 -48.166 -9 -68.499 -27s-31.833 -39.667 -34.5 -65c-3.33301 -25.333 2.83398 -47 18.501 -65s36.167 -27 61.5 -27z" />
    <glyph glyph-name="ordfeminine" unicode="&#xaa;" horiz-adv-x="368" 
d="M281 672l79.999 -0.00195312l-30 -248h-80l2 21c-22.667 -19.333 -47.667 -29 -75 -29c-33.333 0 -60.166 12.833 -80.499 38.5s-28.166 56.834 -23.499 93.501s20.167 67.834 46.5 93.501s56.166 38.5 89.499 38.5c28 0 51 -9.66699 69 -29zM202.999 487.998
c15.333 0 29.166 5.83301 41.499 17.5s19.5 25.834 21.5 42.501s-1.83301 30.834 -11.5 42.501s-22.167 17.5 -37.5 17.5s-29.166 -5.83301 -41.499 -17.5s-19.5 -25.834 -21.5 -42.501s1.83301 -30.834 11.5 -42.501s22.167 -17.5 37.5 -17.5z" />
    <glyph glyph-name="guillemotleft" unicode="&#xab;" horiz-adv-x="656" 
d="M356 496l-188 -224l133 -224h-128l-133 224l188 224h128zM596 496l-188 -224l133 -224h-128l-133 224l188 224h128z" />
    <glyph glyph-name="logicalnot" unicode="&#xac;" horiz-adv-x="640" 
d="M594 352l-30 -240h-96l18 144h-448l12 96h544z" />
    <glyph glyph-name="registered" unicode="&#xae;" horiz-adv-x="736" 
d="M341 120c-90 0 -162 31.167 -216 93.5s-75.333 137.833 -64 226.5c10.667 90.667 50.5 166.667 119.5 228s148.833 92 239.5 92s163 -30.667 217 -92s75.333 -137.333 64 -228c-10.667 -90.667 -50.667 -166.667 -120 -228s-149.333 -92 -240 -92zM350 192
c69.333 0 130.999 24.167 184.999 72.5s85.333 106.833 94 175.5s-8.16602 127.167 -50.499 175.5s-98.166 72.5 -167.499 72.5c-68.667 0 -130 -24 -184 -72s-85.333 -106.667 -94 -176s8.16602 -128 50.499 -176s97.833 -72 166.5 -72zM499.999 290h-82l-55 96h-30
l-12 -96h-71l37 300h121c38 0 65.5 -9 82.5 -27s23.833 -42.333 20.5 -73c-2.66699 -21.333 -10.5 -40.833 -23.5 -58.5s-29.833 -30.5 -50.5 -38.5zM349.999 526l-9 -75h50c12.667 0 23.5 3.33301 32.5 10s14.167 15.667 15.5 27c2.66699 25.333 -10.333 38 -39 38h-50z
" />
    <glyph glyph-name="macron" unicode="&#xaf;" horiz-adv-x="800" 
d="M603 752h-304l10 80h304z" />
    <glyph glyph-name="degree" unicode="&#xb0;" horiz-adv-x="416" 
d="M213 368c-44.667 0 -80.667 15.5 -108 46.5s-38.333 68.833 -33 113.5c5.33301 44 25.5 81.667 60.5 113s74.833 47 119.5 47c44 0 79.667 -15.667 107 -47s38.333 -69 33 -113c-5.33301 -44.667 -25.5 -82.5 -60.5 -113.5s-74.5 -46.5 -118.5 -46.5zM224 464
c17.333 0 33.001 6.33301 47.001 19s22.333 27.667 25 45c2 17.333 -2.66699 32.333 -14 45s-25.666 19 -42.999 19s-33 -6.33301 -47 -19s-22 -27.667 -24 -45c-2.66699 -17.333 1.66602 -32.333 12.999 -45s25.666 -19 42.999 -19z" />
    <glyph glyph-name="plusminus" unicode="&#xb1;" horiz-adv-x="512" 
d="M481 472l-12 -96h-160l-20 -160h-96l20 160h-160l12 96h160l19 160h96l-19 -160h160zM22 128h416l-11 -96h-416z" />
    <glyph glyph-name="uni00B2" unicode="&#xb2;" horiz-adv-x="376" 
d="M93 640c6 34.667 21.5 63.335 46.5 86.002s56.167 34 93.5 34c40 0 70.5 -10.5 91.5 -31.5s29.167 -50.5 24.5 -88.5c-4 -36.667 -42 -87.334 -114 -152.001h112l-9 -72h-280l149 136c39.333 38.667 60 68 62 88c2 15.333 -1 27.166 -9 35.499s-19 12.5 -33 12.5
c-13.333 0 -25.5 -4.66699 -36.5 -14s-17.833 -23.333 -20.5 -42z" />
    <glyph glyph-name="uni00B3" unicode="&#xb3;" horiz-adv-x="368" 
d="M304 594c30 -16 43 -40.6689 39 -74.002c-4 -30 -18.333 -56.167 -43 -78.5s-60.334 -33.5 -107.001 -33.5c-40 0 -71.5 10.167 -94.5 30.5s-32.167 47.5 -27.5 81.5l81 8c2 -32 20 -48 54 -48c14.667 0 27.334 3.33301 38.001 10s16.667 16.334 18 29.001
c3.33301 23.333 -21.667 35 -75 35l8 64h8c3.33301 0 9.16602 0.833008 17.499 2.5s15.833 3.66699 22.5 6s12.834 6 18.501 11s8.83398 11.167 9.50098 18.5c1.33301 10 -1.83398 17.833 -9.50098 23.5s-18.5 8.5 -32.5 8.5c-30.667 0 -50 -16 -58 -48l-77 8
c7.33301 34 23.666 61.167 48.999 81.5s56.333 30.5 93 30.5c41.333 0 71.833 -9.66699 91.5 -29s27.834 -41.666 24.501 -66.999c-1.33301 -14.667 -6.5 -28.5 -15.5 -41.5s-19.833 -22.5 -32.5 -28.5z" />
    <glyph glyph-name="acute" unicode="&#xb4;" horiz-adv-x="800" 
d="M353 736l98 144h160l-162 -144h-96z" />
    <glyph glyph-name="paragraph" unicode="&#xb6;" horiz-adv-x="736" 
d="M716 560l-96.001 0.000976562l-97 -788h-112l97 788h-144l-97 -788h-112l65 533c-50.667 0 -90.5 17.833 -119.5 53.5s-40.167 79.167 -33.5 130.5c6 51.333 27.833 94.666 65.5 129.999s81.834 53 132.501 53h464z" />
    <glyph glyph-name="periodcentered" unicode="&#xb7;" horiz-adv-x="272" 
d="M125 248c-24.667 0 -44.5 8.5 -59.5 25.5s-20.833 37.833 -17.5 62.5c2.66699 24.667 13.667 45.5 33 62.5s41.333 25.5 66 25.5s44.5 -8.5 59.5 -25.5s20.833 -37.833 17.5 -62.5c-2.66699 -24.667 -13.667 -45.5 -33 -62.5s-41.333 -25.5 -66 -25.5z" />
    <glyph glyph-name="cedilla" unicode="&#xb8;" horiz-adv-x="800" 
d="M331 0l93.001 -0.00195312l-54 -48c35.333 4 64.833 -4.5 88.5 -25.5s33.167 -49.833 28.5 -86.5c-5.33301 -41.333 -24.833 -75.666 -58.5 -102.999s-73.5 -41 -119.5 -41c-60.667 0 -100.667 21 -120 63l66 65c3.33301 -13.333 10.666 -24.666 21.999 -33.999
s25.333 -14 42 -14c26 0 47 6.33301 63 19s25 27.667 27 45c2.66699 17.333 -2 31 -14 41s-27.333 15 -46 15c-24.667 0 -43.667 -4.66699 -57 -14l-33 54z" />
    <glyph glyph-name="uni00B9" unicode="&#xb9;" horiz-adv-x="360" 
d="M144 728l157 40l-42 -344h-80l30 248l-74 -16z" />
    <glyph glyph-name="ordmasculine" unicode="&#xba;" horiz-adv-x="368" 
d="M226 680c39.333 0 70.332 -12.668 92.999 -38.001s31.667 -56.666 27 -93.999s-21.167 -68.666 -49.5 -93.999s-62.5 -38 -102.5 -38c-41.333 0 -72.833 12.667 -94.5 38s-30.167 56.666 -25.5 93.999c4.66699 38 20.834 69.5 48.501 94.5s62.167 37.5 103.5 37.5z
M202.999 487.999c15.333 0 29.166 5.83301 41.499 17.5s19.5 25.834 21.5 42.501s-1.83301 30.834 -11.5 42.501s-22.167 17.5 -37.5 17.5s-29.166 -5.83301 -41.499 -17.5s-19.5 -25.834 -21.5 -42.501s1.83301 -30.834 11.5 -42.501s22.167 -17.5 37.5 -17.5z" />
    <glyph glyph-name="guillemotright" unicode="&#xbb;" horiz-adv-x="656" 
d="M100 496h128l132 -224l-187 -224h-128l187 224zM340 496h128l132 -224l-187 -224h-128l187 224z" />
    <glyph glyph-name="onequarter" unicode="&#xbc;" horiz-adv-x="940" 
d="M133 640l157 40l-42 -344h-80l30 248l-74 -16zM239 0h-96l550 672h96zM827 136h40l-8 -72h-40l-8 -64h-80l8 64h-168l7 64l174 208h100zM747 136l15 119l-92 -119h77z" />
    <glyph glyph-name="onehalf" unicode="&#xbd;" horiz-adv-x="948" 
d="M133 640l157 40l-42 -344h-80l30 248l-74 -16zM239 0h-96l550 672h96zM614 224c6 34.667 21.5 63.335 46.5 86.002s56.167 34 93.5 34c40 0 70.5 -10.5 91.5 -31.5s29.167 -50.5 24.5 -88.5c-4 -36.667 -42 -87.334 -114 -152.001h112l-9 -72h-280l148 136
c40 38 61 67.333 63 88c2 15.333 -1 27.166 -9 35.499s-19 12.5 -33 12.5c-13.333 0 -25.5 -4.66699 -36.5 -14s-17.833 -23.333 -20.5 -42z" />
    <glyph glyph-name="threequarters" unicode="&#xbe;" horiz-adv-x="948" 
d="M294 514c30 -16 42.998 -40.6689 38.998 -74.002c-3.33301 -29.333 -17.5 -55.333 -42.5 -78s-60.833 -34 -107.5 -34c-40 0 -71.5 10.167 -94.5 30.5s-32.167 47.5 -27.5 81.5l81 8c2 -32 20 -48 54 -48c14.667 0 27.334 3.33301 38.001 10s17 16.334 19 29.001
c2.66699 23.333 -22.666 35 -75.999 35l8 64h8c3.33301 0 9.16602 0.833008 17.499 2.5s15.833 3.66699 22.5 6s12.834 6 18.501 11s8.83398 11.167 9.50098 18.5c1.33301 10 -1.83398 17.833 -9.50098 23.5s-18.5 8.5 -32.5 8.5c-31.333 0 -50.333 -16 -57 -48l-78 8
c7.33301 34 23.666 61.167 48.999 81.5s56.333 30.5 93 30.5c41.333 0 71.833 -9.66699 91.5 -29s27.834 -41.666 24.501 -66.999c-1.33301 -14.667 -6.5 -28.5 -15.5 -41.5s-19.833 -22.5 -32.5 -28.5zM246.998 -0.00195312h-96l550 672h96zM834.998 135.998h40l-8 -72h-40
l-8 -64h-80l8 64h-168l7 64l174 208h100zM754.998 135.998l15 119l-92 -119h77z" />
    <glyph glyph-name="questiondown" unicode="&#xbf;" horiz-adv-x="560" 
d="M288 336c-24.667 0 -44.5 8.5 -59.5 25.5s-20.833 37.833 -17.5 62.5c2.66699 24.667 13.667 45.5 33 62.5s41.333 25.5 66 25.5s44.5 -8.5 59.5 -25.5s20.833 -37.833 17.5 -62.5c-2.66699 -24.667 -13.667 -45.5 -33 -62.5s-41.333 -25.5 -66 -25.5zM223 -192
c-75.333 0 -131.836 18.999 -169.503 56.999s-53.167 83 -46.5 135c4.66699 36 17 68.333 37 97s49.667 57 89 85c14.667 10 26.834 19.5 36.501 28.5s19.834 22 30.501 39s17.334 35.167 20.001 54.5h128c-4 -68 -26.333 -120.333 -67 -157
c-7.33301 -6.66699 -19.666 -17 -36.999 -31s-29.833 -24.667 -37.5 -32s-15.667 -17.5 -24 -30.5s-13.166 -26.167 -14.499 -39.5c-2.66699 -21.333 3.66602 -37.166 18.999 -47.499s35.666 -15.5 60.999 -15.5c58 0 111.667 21.667 161 65l50 -112
c-27.333 -26 -61.5 -48.5 -102.5 -67.5s-85.5 -28.5 -133.5 -28.5z" />
    <glyph glyph-name="Agrave" unicode="&#xc0;" horiz-adv-x="704" 
d="M481 736h-96l-126 144h160zM487 0l-29 112h-268l-55 -112h-176l360 672h148l196 -672h-176zM263 256h158l-53 208z" />
    <glyph glyph-name="Aacute" unicode="&#xc1;" horiz-adv-x="704" 
d="M321 736l98 144h160l-162 -144h-96zM487 0l-29 112h-268l-55 -112h-176l360 672h148l196 -672h-176zM263 256h158l-53 208z" />
    <glyph glyph-name="Acircumflex" unicode="&#xc2;" horiz-adv-x="704" 
d="M449 736l-40 64l-56 -64h-128l162 144h64l126 -144h-128zM487 0l-29 112h-268l-55 -112h-176l360 672h148l196 -672h-176zM263 256h158l-53 208z" />
    <glyph glyph-name="Atilde" unicode="&#xc3;" horiz-adv-x="704" 
d="M534 848l77.999 -26.001c-36 -57.333 -79.333 -86 -130 -86c-25.333 0 -51.666 6 -78.999 18c-27.333 13.333 -50.5 19.333 -69.5 18s-36.167 -13.333 -51.5 -36l-78 26c36.667 57.333 80 86 130 86c22.667 0 49 -6 79 -18c27.333 -14 50.5 -20.167 69.5 -18.5
s36.167 13.834 51.5 36.501zM486.999 -0.000976562l-29 112h-268l-55 -112h-176l360 672h148l196 -672h-176zM262.999 255.999h158l-53 208z" />
    <glyph glyph-name="Adieresis" unicode="&#xc4;" horiz-adv-x="704" 
d="M297 736c-20 0 -36.167 7 -48.5 21s-17.166 31 -14.499 51s11.834 37 27.501 51s33.5 21 53.5 21s36.167 -7 48.5 -21s17.166 -31 14.499 -51s-11.834 -37 -27.501 -51s-33.5 -21 -53.5 -21zM505 736c-20 0 -36.167 7 -48.5 21s-17.166 31 -14.499 51
s11.834 37 27.501 51s33.5 21 53.5 21s36.167 -7 48.5 -21s17.166 -31 14.499 -51s-11.834 -37 -27.501 -51s-33.5 -21 -53.5 -21zM487 0l-29 112h-268l-55 -112h-176l360 672h148l196 -672h-176zM263 256h158l-53 208z" />
    <glyph glyph-name="Aring" unicode="&#xc5;" horiz-adv-x="704" 
d="M427 944c33.333 0 60.166 -11.667 80.499 -35s28.5 -51.666 24.5 -84.999s-19.167 -61.666 -45.5 -84.999s-56.166 -35 -89.499 -35s-60.166 11.667 -80.499 35s-28.5 51.666 -24.5 84.999s19.167 61.666 45.5 84.999s56.166 35 89.499 35zM406 774
c13.333 0 25.666 5 36.999 15s17.666 21.667 18.999 35s-2.33398 25 -11.001 35s-19.667 15 -33 15s-25.666 -5 -36.999 -15s-17.666 -21.667 -18.999 -35s2.33398 -25 11.001 -35s19.667 -15 33 -15zM487 0l-29 112h-268l-55 -112h-176l360 672h148l196 -672h-176zM263 256
h158l-53 208z" />
    <glyph glyph-name="AE" unicode="&#xc6;" horiz-adv-x="864" 
d="M840 528h-272l-15 -120h224l-18 -144h-224l-15 -120h272l-17 -144h-432l13 112h-158l-63 -112h-176l392 672h506zM281 256h93l26 208z" />
    <glyph glyph-name="Ccedilla" unicode="&#xc7;" horiz-adv-x="656" 
d="M591 65c-50.667 -42 -112.998 -68.001 -186.998 -78.001l-38 -35c35.333 4 64.833 -4.5 88.5 -25.5s33.167 -49.833 28.5 -86.5c-5.33301 -41.333 -24.833 -75.666 -58.5 -102.999s-73.5 -41 -119.5 -41c-60.667 0 -100.667 21 -120 63l66 65
c3.33301 -13.333 10.666 -24.666 21.999 -33.999s25.333 -14 42 -14c26 0 47 6.33301 63 19s25 27.667 27 45c2.66699 17.333 -2 31 -14 41s-27.333 15 -46 15c-24.667 0 -43.667 -4.66699 -57 -14l-33 54l57 51c-90 10.667 -161.833 49.167 -215.5 115.5
s-75.167 144.166 -64.5 233.499c12 97.333 58.167 180.333 138.5 249s171.166 103 272.499 103c40 0 79.5 -7 118.5 -21s70.833 -33.667 95.5 -59l-79 -142c-34.667 52 -85.334 78 -152.001 78c-57.333 0 -109 -20.333 -155 -61s-72.333 -89.667 -79 -147
c-7.33301 -57.333 6.83398 -106.333 42.501 -147s82.167 -61 139.5 -61c66 0 123.333 26 172 78z" />
    <glyph glyph-name="Egrave" unicode="&#xc8;" horiz-adv-x="544" 
d="M425 736h-96l-126 144h160zM520 528h-272l-15 -120h224l-18 -144h-224l-15 -120h272l-17 -144h-432l82 672h432z" />
    <glyph glyph-name="Eacute" unicode="&#xc9;" horiz-adv-x="544" 
d="M233 736l98 144h160l-162 -144h-96zM520 528h-272l-15 -120h224l-18 -144h-224l-15 -120h272l-17 -144h-432l82 672h432z" />
    <glyph glyph-name="Ecircumflex" unicode="&#xca;" horiz-adv-x="544" 
d="M369 736l-40 64l-56 -64h-128l162 144h64l126 -144h-128zM520 528h-272l-15 -120h224l-18 -144h-224l-15 -120h272l-17 -144h-432l82 672h432z" />
    <glyph glyph-name="Edieresis" unicode="&#xcb;" horiz-adv-x="544" 
d="M217 736c-20 0 -36.167 7 -48.5 21s-17.166 31 -14.499 51s11.834 37 27.501 51s33.5 21 53.5 21s36.167 -7 48.5 -21s17.166 -31 14.499 -51s-11.834 -37 -27.501 -51s-33.5 -21 -53.5 -21zM425 736c-20 0 -36.167 7 -48.5 21s-17.166 31 -14.499 51
s11.834 37 27.501 51s33.5 21 53.5 21s36.167 -7 48.5 -21s17.166 -31 14.499 -51s-11.834 -37 -27.501 -51s-33.5 -21 -53.5 -21zM520 528h-272l-15 -120h224l-18 -144h-224l-15 -120h272l-17 -144h-432l82 672h432z" />
    <glyph glyph-name="Igrave" unicode="&#xcc;" horiz-adv-x="288" 
d="M273 736h-96l-126 144h160zM23 0l82 672h160l-82 -672h-160z" />
    <glyph glyph-name="Iacute" unicode="&#xcd;" horiz-adv-x="288" 
d="M113 736l98 144h160l-162 -144h-96zM183 0h-160l82 672h160z" />
    <glyph glyph-name="Icircumflex" unicode="&#xce;" horiz-adv-x="288" 
d="M241 736l-40 64l-56 -64h-128l162 144h64l126 -144h-128zM183 0h-160l82 672h160z" />
    <glyph glyph-name="Idieresis" unicode="&#xcf;" horiz-adv-x="288" 
d="M89 736c-20 0 -36.167 7 -48.5 21s-17.166 31 -14.499 51s11.834 37 27.501 51s33.5 21 53.5 21s36.167 -7 48.5 -21s17.166 -31 14.499 -51s-11.834 -37 -27.501 -51s-33.5 -21 -53.5 -21zM297 736c-20 0 -36.167 7 -48.5 21s-17.166 31 -14.499 51s11.834 37 27.501 51
s33.5 21 53.5 21s36.167 -7 48.5 -21s17.166 -31 14.499 -51s-11.834 -37 -27.501 -51s-33.5 -21 -53.5 -21zM183 0h-160l82 672h160z" />
    <glyph glyph-name="Eth" unicode="&#xd0;" horiz-adv-x="720" 
d="M376 672c111.333 0 194.167 -31.667 248.5 -95s75.5 -143.666 63.5 -240.999c-12 -96.667 -53.333 -176.834 -124 -240.501s-160.667 -95.5 -270 -95.5h-255l35 288h-64l12 96h64l35 288h255zM322.001 144c48 0 92.667 19 134 57s65.333 83 72 135s-6 97 -38 135
s-72 57 -120 57h-106l-18 -144h64l-12 -96h-64l-18 -144h106z" />
    <glyph glyph-name="Ntilde" unicode="&#xd1;" horiz-adv-x="752" 
d="M558 848l77.999 -26.001c-36 -57.333 -79.333 -86 -130 -86c-25.333 0 -51.666 6 -78.999 18c-27.333 13.333 -50.5 19.333 -69.5 18s-36.167 -13.333 -51.5 -36l-78 26c36.667 57.333 80 86 130 86c22.667 0 49 -6 79 -18c27.333 -14 50.5 -20.167 69.5 -18.5
s36.167 13.834 51.5 36.501zM568.999 671.999h160l-82 -672h-160l-253 416l-51 -416h-160l82 672h160l253 -416z" />
    <glyph glyph-name="Ograve" unicode="&#xd2;" horiz-adv-x="784" 
d="M513 736h-96l-126 144h160zM435 688c99.333 0 180 -34.333 242 -103s87 -151.667 75 -249s-57.333 -180.333 -136 -249s-167.667 -103 -267 -103s-180 34.333 -242 103s-87 151.667 -75 249s57.333 180.333 136 249s167.667 103 267 103zM366 128
c55.333 0 105.166 20.333 149.499 61s69.833 89.667 76.5 147s-6.83301 106.333 -40.5 147s-78.167 61 -133.5 61s-105.166 -20.333 -149.499 -61s-69.833 -89.667 -76.5 -147s6.83301 -106.333 40.5 -147s78.167 -61 133.5 -61z" />
    <glyph glyph-name="Oacute" unicode="&#xd3;" horiz-adv-x="784" 
d="M369 736l98 144h160l-162 -144h-96zM435 688c99.333 0 180 -34.333 242 -103s87 -151.667 75 -249s-57.333 -180.333 -136 -249s-167.667 -103 -267 -103s-180 34.333 -242 103s-87 151.667 -75 249s57.333 180.333 136 249s167.667 103 267 103zM366 128
c55.333 0 105.166 20.333 149.499 61s69.833 89.667 76.5 147s-6.83301 106.333 -40.5 147s-78.167 61 -133.5 61s-105.166 -20.333 -149.499 -61s-69.833 -89.667 -76.5 -147s6.83301 -106.333 40.5 -147s78.167 -61 133.5 -61z" />
    <glyph glyph-name="Ocircumflex" unicode="&#xd4;" horiz-adv-x="784" 
d="M489 736l-40 64l-56 -64h-128l162 144h64l126 -144h-128zM435 688c99.333 0 180 -34.333 242 -103s87 -151.667 75 -249s-57.333 -180.333 -136 -249s-167.667 -103 -267 -103s-180 34.333 -242 103s-87 151.667 -75 249s57.333 180.333 136 249s167.667 103 267 103z
M366 128c55.333 0 105.166 20.333 149.499 61s69.833 89.667 76.5 147s-6.83301 106.333 -40.5 147s-78.167 61 -133.5 61s-105.166 -20.333 -149.499 -61s-69.833 -89.667 -76.5 -147s6.83301 -106.333 40.5 -147s78.167 -61 133.5 -61z" />
    <glyph glyph-name="Otilde" unicode="&#xd5;" horiz-adv-x="784" 
d="M574 848l77.999 -26.001c-36 -57.333 -79.333 -86 -130 -86c-25.333 0 -51.666 6 -78.999 18c-27.333 13.333 -50.5 19.333 -69.5 18s-36.167 -13.333 -51.5 -36l-78 26c36.667 57.333 80 86 130 86c22.667 0 49 -6 79 -18c27.333 -14 50.5 -20.167 69.5 -18.5
s36.167 13.834 51.5 36.501zM434.999 687.999c99.333 0 180 -34.333 242 -103s87 -151.667 75 -249s-57.333 -180.333 -136 -249s-167.667 -103 -267 -103s-180 34.333 -242 103s-87 151.667 -75 249s57.333 180.333 136 249s167.667 103 267 103zM365.999 127.999
c55.333 0 105.166 20.333 149.499 61s69.833 89.667 76.5 147s-6.83301 106.333 -40.5 147s-78.167 61 -133.5 61s-105.166 -20.333 -149.499 -61s-69.833 -89.667 -76.5 -147s6.83301 -106.333 40.5 -147s78.167 -61 133.5 -61z" />
    <glyph glyph-name="Odieresis" unicode="&#xd6;" horiz-adv-x="784" 
d="M337 736c-20 0 -36.167 7 -48.5 21s-17.166 31 -14.499 51s11.834 37 27.501 51s33.5 21 53.5 21s36.167 -7 48.5 -21s17.166 -31 14.499 -51s-11.834 -37 -27.501 -51s-33.5 -21 -53.5 -21zM545 736c-20 0 -36.167 7 -48.5 21s-17.166 31 -14.499 51
s11.834 37 27.501 51s33.5 21 53.5 21s36.167 -7 48.5 -21s17.166 -31 14.499 -51s-11.834 -37 -27.501 -51s-33.5 -21 -53.5 -21zM435 688c99.333 0 180 -34.333 242 -103s87 -151.667 75 -249s-57.333 -180.333 -136 -249s-167.667 -103 -267 -103s-180 34.333 -242 103
s-87 151.667 -75 249s57.333 180.333 136 249s167.667 103 267 103zM366 128c55.333 0 105.166 20.333 149.499 61s69.833 89.667 76.5 147s-6.83301 106.333 -40.5 147s-78.167 61 -133.5 61s-105.166 -20.333 -149.499 -61s-69.833 -89.667 -76.5 -147
s6.83301 -106.333 40.5 -147s78.167 -61 133.5 -61z" />
    <glyph glyph-name="multiply" unicode="&#xd7;" horiz-adv-x="478" 
d="M382 495l59 -68l-138 -123l108 -123l-76 -68l-108 123l-138 -123l-60 68l138 123l-108 123l77 68l107 -123z" />
    <glyph glyph-name="Oslash" unicode="&#xd8;" horiz-adv-x="784" 
d="M677 585c62 -68.667 87 -151.667 75 -249s-57.333 -180.333 -136 -249s-167.667 -103 -267 -103c-75.333 0 -141.666 21.333 -198.999 64l-47 -48h-80l84 87c-62 68.667 -87 151.667 -75 249s57.333 180.333 136 249s167.667 103 267 103
c75.333 0 141.666 -21.333 198.999 -64l47 48h80zM192 336c-6 -51.333 4 -95.667 30 -133l300 307c-28.667 22.667 -63.334 34 -104.001 34c-55.333 0 -105.166 -20.333 -149.499 -61s-69.833 -89.667 -76.5 -147zM366 127.999c55.333 0 105.166 20.334 149.499 61.001
s69.833 89.667 76.5 147c6 51.333 -4 95.666 -30 132.999l-300 -307c28.667 -22.667 63.334 -34 104.001 -34z" />
    <glyph glyph-name="Ugrave" unicode="&#xd9;" horiz-adv-x="672" 
d="M465 736h-96l-126 144h160zM505 672l160 0.000976562l-47 -384c-11.333 -90.667 -46 -164 -104 -220s-131.667 -84 -221 -84c-90.667 0 -158 28 -202 84s-60.333 129.333 -49 220l47 384h160l-49 -400c-5.33301 -44.667 1.66699 -79.834 21 -105.501s49 -38.5 89 -38.5
c38 0 70.5 13 97.5 39s43.167 61 48.5 105z" />
    <glyph glyph-name="Uacute" unicode="&#xda;" horiz-adv-x="672" 
d="M305 736l98 144h160l-162 -144h-96zM505 672l160 0.000976562l-47 -384c-11.333 -90.667 -46 -164 -104 -220s-131.667 -84 -221 -84c-90.667 0 -158 28 -202 84s-60.333 129.333 -49 220l47 384h160l-49 -400c-5.33301 -44.667 1.66699 -79.834 21 -105.501
s49 -38.5 89 -38.5c38 0 70.5 13 97.5 39s43.167 61 48.5 105z" />
    <glyph glyph-name="Ucircumflex" unicode="&#xdb;" horiz-adv-x="672" 
d="M433 736l-40 64l-56 -64h-128l162 144h64l126 -144h-128zM505 672l160 0.000976562l-47 -384c-11.333 -90.667 -46 -164 -104 -220s-131.667 -84 -221 -84c-90.667 0 -158 28 -202 84s-60.333 129.333 -49 220l47 384h160l-49 -400
c-5.33301 -44.667 1.66699 -79.834 21 -105.501s49 -38.5 89 -38.5c38 0 70.5 13 97.5 39s43.167 61 48.5 105z" />
    <glyph glyph-name="Udieresis" unicode="&#xdc;" horiz-adv-x="672" 
d="M281 736c-20 0 -36.167 7 -48.5 21s-17.166 31 -14.499 51s11.834 37 27.501 51s33.5 21 53.5 21s36.167 -7 48.5 -21s17.166 -31 14.499 -51s-11.834 -37 -27.501 -51s-33.5 -21 -53.5 -21zM489 736c-20 0 -36.167 7 -48.5 21s-17.166 31 -14.499 51
s11.834 37 27.501 51s33.5 21 53.5 21s36.167 -7 48.5 -21s17.166 -31 14.499 -51s-11.834 -37 -27.501 -51s-33.5 -21 -53.5 -21zM505 672l160 0.000976562l-47 -384c-11.333 -90.667 -46 -164 -104 -220s-131.667 -84 -221 -84c-90.667 0 -158 28 -202 84
s-60.333 129.333 -49 220l47 384h160l-49 -400c-5.33301 -44.667 1.66699 -79.834 21 -105.501s49 -38.5 89 -38.5c38 0 70.5 13 97.5 39s43.167 61 48.5 105z" />
    <glyph glyph-name="Yacute" unicode="&#xdd;" horiz-adv-x="672" 
d="M305 736l98 144h160l-162 -144h-96zM525 672h188l-305 -400l-33 -272h-160l33 272l-207 400h188l117 -256z" />
    <glyph glyph-name="Thorn" unicode="&#xde;" horiz-adv-x="624" 
d="M366 580c84.667 0 146 -20.333 184 -61s52.667 -95 44 -163c-8 -64 -35 -118.667 -81 -164s-103 -68 -171 -68h-144l-15 -124h-160l86 704h160l-15 -124h112zM327 268c27.333 0 51.168 7.49902 71.501 22.499s32.166 35.5 35.499 61.5
c3.33301 28.667 -3.16699 49.834 -19.5 63.501s-38.833 20.5 -67.5 20.5h-111l-20 -168h111z" />
    <glyph glyph-name="germandbls" unicode="&#xdf;" 
d="M167 0l61.002 495.998c2.66699 22.667 12.334 41.667 29.001 57s36.667 23 60 23c53.333 0 77 -26.667 71 -80c-3.33301 -23.333 -16.833 -42.5 -40.5 -57.5s-56.167 -22.5 -97.5 -22.5l-12 -96c59.333 0 102.5 -8 129.5 -24s38.5 -40 34.5 -72
c-2.66699 -24.667 -11 -44.667 -25 -60s-30 -25.166 -48 -29.499s-35.667 -7 -53 -8s-32 -0.5 -44 1.5l-17 4l-16 -132c22.667 -10.667 54 -16 94 -16c76 0 137.833 22.5 185.5 67.5s75.167 98.833 82.5 161.5c2.66699 23.333 0.666992 47.166 -6 71.499s-19 46 -37 65
s-39.333 30.5 -64 34.5c22 6.66699 42.667 23 62 49s30.666 52.333 33.999 79c7.33301 60 -6.5 109.667 -41.5 149s-92.5 59 -172.5 59c-10 0 -20.667 -0.666992 -32 -2s-27.333 -4.16602 -48 -8.49902s-40.334 -11.833 -59.001 -22.5s-37.334 -24 -56.001 -40
s-34.667 -37.667 -48 -65s-22 -58.666 -26 -93.999l-60 -488h160z" />
    <glyph glyph-name="agrave" unicode="&#xe0;" horiz-adv-x="640" 
d="M492 560h-96l-127 144h160zM551 0l-160 -0.000976562c-4.66699 8.66699 -7.66699 22.334 -9 41.001c-45.333 -38 -96.333 -57 -153 -57c-66.667 0 -120.167 25.833 -160.5 77.5s-56.166 113.834 -47.499 186.501c9.33301 73.333 40.5 135.666 93.5 186.999
s112.833 77 179.5 77c55.333 0 100.666 -19.333 135.999 -58l6 42h160l-49 -400c-6 -48 -4.66699 -80 4 -96zM278 127.999c30.667 0 58.5 11.667 83.5 35s39.5 51.666 43.5 84.999s-3.5 61.666 -22.5 84.999s-43.833 35 -74.5 35s-58.5 -11.667 -83.5 -35
s-39.5 -51.666 -43.5 -84.999s3.5 -61.666 22.5 -84.999s43.833 -35 74.5 -35z" />
    <glyph glyph-name="aacute" unicode="&#xe1;" horiz-adv-x="640" 
d="M300 560l97 144h160l-161 -144h-96zM551 0l-160 -0.000976562c-4.66699 8.66699 -7.66699 22.334 -9 41.001c-45.333 -38 -96.333 -57 -153 -57c-66.667 0 -120.167 25.833 -160.5 77.5s-56.166 113.834 -47.499 186.501c9.33301 73.333 40.5 135.666 93.5 186.999
s112.833 77 179.5 77c55.333 0 100.666 -19.333 135.999 -58l6 42h160l-49 -400c-6 -48 -4.66699 -80 4 -96zM278 127.999c30.667 0 58.5 11.667 83.5 35s39.5 51.666 43.5 84.999s-3.5 61.666 -22.5 84.999s-43.833 35 -74.5 35s-58.5 -11.667 -83.5 -35
s-39.5 -51.666 -43.5 -84.999s3.5 -61.666 22.5 -84.999s43.833 -35 74.5 -35z" />
    <glyph glyph-name="acircumflex" unicode="&#xe2;" horiz-adv-x="640" 
d="M412 560l-41 64l-55 -64h-128l161 144h64l127 -144h-128zM551 0l-160 -0.000976562c-4.66699 8.66699 -7.66699 22.334 -9 41.001c-45.333 -38 -96.333 -57 -153 -57c-66.667 0 -120.167 25.833 -160.5 77.5s-56.166 113.834 -47.499 186.501
c9.33301 73.333 40.5 135.666 93.5 186.999s112.833 77 179.5 77c55.333 0 100.666 -19.333 135.999 -58l6 42h160l-49 -400c-6 -48 -4.66699 -80 4 -96zM278 127.999c30.667 0 58.5 11.667 83.5 35s39.5 51.666 43.5 84.999s-3.5 61.666 -22.5 84.999s-43.833 35 -74.5 35
s-58.5 -11.667 -83.5 -35s-39.5 -51.666 -43.5 -84.999s3.5 -61.666 22.5 -84.999s43.833 -35 74.5 -35z" />
    <glyph glyph-name="atilde" unicode="&#xe3;" horiz-adv-x="640" 
d="M496 672l77.999 -26.001c-35.333 -57.333 -78.333 -86 -129 -86c-26.667 0 -53 6 -79 18c-27.333 13.333 -50.666 19.333 -69.999 18s-36.333 -13.333 -51 -36l-78 26c36 57.333 79 86 129 86c22.667 0 49 -6 79 -18c27.333 -14 50.5 -20.167 69.5 -18.5
s36.167 13.834 51.5 36.501zM550.999 -0.000976562l-160 -0.000976562c-4.66699 8.66699 -7.66699 22.334 -9 41.001c-45.333 -38 -96.333 -57 -153 -57c-66.667 0 -120.167 25.833 -160.5 77.5s-56.166 113.834 -47.499 186.501c9.33301 73.333 40.5 135.666 93.5 186.999
s112.833 77 179.5 77c55.333 0 100.666 -19.333 135.999 -58l6 42h160l-49 -400c-6 -48 -4.66699 -80 4 -96zM277.999 127.998c30.667 0 58.5 11.667 83.5 35s39.5 51.666 43.5 84.999s-3.5 61.666 -22.5 84.999s-43.833 35 -74.5 35s-58.5 -11.667 -83.5 -35
s-39.5 -51.666 -43.5 -84.999s3.5 -61.666 22.5 -84.999s43.833 -35 74.5 -35z" />
    <glyph glyph-name="adieresis" unicode="&#xe4;" horiz-adv-x="640" 
d="M260 560c-20 0 -36.333 7 -49 21s-17.667 31 -15 51s11.834 37 27.501 51s33.5 21 53.5 21s36.167 -7 48.5 -21s17.166 -31 14.499 -51s-11.667 -37 -27 -51s-33 -21 -53 -21zM468 560c-20 0 -36.333 7 -49 21s-17.667 31 -15 51s11.834 37 27.501 51s33.5 21 53.5 21
s36.167 -7 48.5 -21s17.166 -31 14.499 -51s-11.667 -37 -27 -51s-33 -21 -53 -21zM551 0l-160 -0.000976562c-4.66699 8.66699 -7.66699 22.334 -9 41.001c-45.333 -38 -96.333 -57 -153 -57c-66.667 0 -120.167 25.833 -160.5 77.5s-56.166 113.834 -47.499 186.501
c9.33301 73.333 40.5 135.666 93.5 186.999s112.833 77 179.5 77c55.333 0 100.666 -19.333 135.999 -58l6 42h160l-49 -400c-6 -48 -4.66699 -80 4 -96zM278 127.999c30.667 0 58.5 11.667 83.5 35s39.5 51.666 43.5 84.999s-3.5 61.666 -22.5 84.999s-43.833 35 -74.5 35
s-58.5 -11.667 -83.5 -35s-39.5 -51.666 -43.5 -84.999s3.5 -61.666 22.5 -84.999s43.833 -35 74.5 -35z" />
    <glyph glyph-name="aring" unicode="&#xe5;" horiz-adv-x="640" 
d="M397 768c33.333 0 60.333 -11.667 81 -35s28.667 -51.666 24 -84.999c-4 -33.333 -19 -61.666 -45 -84.999s-55.667 -35 -89 -35s-60.333 11.667 -81 35s-29 51.666 -25 84.999c4.66699 33.333 20 61.666 46 84.999s55.667 35 89 35zM376 598c13.333 0 25.667 5 37 15
s17.666 21.667 18.999 35c2 13.333 -1.5 25 -10.5 35s-20.167 15 -33.5 15s-25.5 -5 -36.5 -15s-17.5 -21.667 -19.5 -35c-1.33301 -13.333 2.33398 -25 11.001 -35s19.667 -15 33 -15zM551.001 0l-160 -0.000976562c-4.66699 8.66699 -7.66699 22.334 -9 41.001
c-45.333 -38 -96.333 -57 -153 -57c-66.667 0 -120.167 25.833 -160.5 77.5s-56.166 113.834 -47.499 186.501c9.33301 73.333 40.5 135.666 93.5 186.999s112.833 77 179.5 77c55.333 0 100.666 -19.333 135.999 -58l6 42h160l-49 -400c-6 -48 -4.66699 -80 4 -96z
M278.001 127.999c30.667 0 58.5 11.667 83.5 35s39.5 51.666 43.5 84.999s-3.5 61.666 -22.5 84.999s-43.833 35 -74.5 35s-58.5 -11.667 -83.5 -35s-39.5 -51.666 -43.5 -84.999s3.5 -61.666 22.5 -84.999s43.833 -35 74.5 -35z" />
    <glyph glyph-name="ae" unicode="&#xe6;" horiz-adv-x="896" 
d="M853 248c-0.666992 -10.667 -3.00098 -24.0049 -7.00098 -40.0049h-342c4 -24.667 15.667 -44.167 35 -58.5s45.333 -21.5 78 -21.5c48 0 97.667 10 149 30l29 -127c-6 -3.33301 -14.333 -7.66602 -25 -12.999s-33.167 -12.333 -67.5 -21s-69.833 -13 -106.5 -13
c-30.667 0 -68 5.33301 -112 16h-157l4 33c-39.333 -32.667 -89.333 -49 -150 -49c-56.667 0 -100.834 15.833 -132.501 47.5s-44.834 71.834 -39.501 120.501c9.33301 64.667 46 111.667 110 141c62 28.667 143.667 32.334 245 11.001c4 30 -5 50.167 -27 60.5
s-52.667 13.5 -92 9.5c-20.667 -2 -42.167 -6.16699 -64.5 -12.5s-39.166 -12.166 -50.499 -17.499l-18 -8l-34 112c8 4.66699 18.833 10.5 32.5 17.5s40.834 16.5 81.501 28.5s80 18 118 18c75.333 0 130.333 -14.667 165 -44c44 29.333 98.333 44 163 44
c78.667 0 136.834 -23.167 174.501 -69.5s51.167 -111.166 40.5 -194.499zM515.999 303.995h176c2 20 -3.5 38.333 -16.5 55s-33.5 25 -61.5 25c-24 0 -45.833 -8.66699 -65.5 -26s-30.5 -35.333 -32.5 -54zM345.999 159.995l8 64h-44c-44 0 -77.667 -6 -101 -18
s-36.333 -27.333 -39 -46c-2.66699 -19.333 3.83301 -34.833 19.5 -46.5s36.167 -17.5 61.5 -17.5c23.333 0 44.5 6 63.5 18s29.5 27.333 31.5 46z" />
    <glyph glyph-name="ccedilla" unicode="&#xe7;" horiz-adv-x="528" 
d="M460 45c-34 -29.333 -81.665 -48.3379 -142.998 -57.0049l-39 -36c35.333 4 64.833 -4.5 88.5 -25.5s33.167 -49.833 28.5 -86.5c-5.33301 -41.333 -24.833 -75.666 -58.5 -102.999s-73.5 -41 -119.5 -41c-60.667 0 -100.667 21 -120 63l66 65
c3.33301 -13.333 10.666 -24.666 21.999 -33.999s25.333 -14 42 -14c26 0 47 6.33301 63 19s25 27.667 27 45c2.66699 17.333 -2 31 -14 41s-27.333 15 -46 15c-24.667 0 -43.667 -4.66699 -57 -14l-33 54l56 50c-71.333 8.66699 -124.833 37.334 -160.5 86.001
s-49.5 107.334 -41.5 176.001c9.33301 75.333 42.166 138.166 98.499 188.499s126.5 75.5 210.5 75.5c81.333 0 141.333 -20.333 180 -61l-74 -129c-30.667 30.667 -68.667 46 -114 46c-34.667 0 -65.834 -11.667 -93.501 -35s-43.5 -51.666 -47.5 -84.999
s4.83301 -61.666 26.5 -84.999s49.834 -35 84.501 -35c45.333 0 87.333 15 126 45z" />
    <glyph glyph-name="egrave" unicode="&#xe8;" horiz-adv-x="576" 
d="M412 560h-96l-127 144h160zM533 248c-0.666992 -10.667 -3.00098 -24.002 -7.00098 -40.002h-342c4 -24.667 15.667 -44.167 35 -58.5s45.333 -21.5 78 -21.5c48 0 97.667 10 149 30l29 -127c-6 -3.33301 -14.333 -7.66602 -25 -12.999s-33.167 -12.333 -67.5 -21
s-69.833 -13 -106.5 -13c-94.667 0 -163.167 24.667 -205.5 74s-58.833 112.666 -49.5 189.999c9.33301 76.667 40 139.834 92 189.501s120.333 74.5 205 74.5c78.667 0 136.834 -23.167 174.501 -69.5s51.167 -111.166 40.5 -194.499zM195.999 303.998h175.999
c2 19.333 -3.66699 37.5 -17 54.5s-33.666 25.5 -60.999 25.5c-24 0 -45.833 -8.66699 -65.5 -26s-30.5 -35.333 -32.5 -54z" />
    <glyph glyph-name="eacute" unicode="&#xe9;" horiz-adv-x="576" 
d="M252 560l97 144h160l-161 -144h-96zM533 248c-0.666992 -10.667 -3.00098 -24.002 -7.00098 -40.002h-342c4 -24.667 15.667 -44.167 35 -58.5s45.333 -21.5 78 -21.5c48 0 97.667 10 149 30l29 -127c-6 -3.33301 -14.333 -7.66602 -25 -12.999
s-33.167 -12.333 -67.5 -21s-69.833 -13 -106.5 -13c-94.667 0 -163.167 24.667 -205.5 74s-58.833 112.666 -49.5 189.999c9.33301 76.667 40 139.834 92 189.501s120.333 74.5 205 74.5c78.667 0 136.834 -23.167 174.501 -69.5s51.167 -111.166 40.5 -194.499z
M195.999 303.998h175.999c2 19.333 -3.66699 37.5 -17 54.5s-33.666 25.5 -60.999 25.5c-24 0 -45.833 -8.66699 -65.5 -26s-30.5 -35.333 -32.5 -54z" />
    <glyph glyph-name="ecircumflex" unicode="&#xea;" horiz-adv-x="576" 
d="M364 560l-41 64l-55 -64h-128l161 144h64l127 -144h-128zM533 248c-0.666992 -10.667 -3.00098 -24.002 -7.00098 -40.002h-342c4 -24.667 15.667 -44.167 35 -58.5s45.333 -21.5 78 -21.5c48 0 97.667 10 149 30l29 -127c-6 -3.33301 -14.333 -7.66602 -25 -12.999
s-33.167 -12.333 -67.5 -21s-69.833 -13 -106.5 -13c-94.667 0 -163.167 24.667 -205.5 74s-58.833 112.666 -49.5 189.999c9.33301 76.667 40 139.834 92 189.501s120.333 74.5 205 74.5c78.667 0 136.834 -23.167 174.501 -69.5s51.167 -111.166 40.5 -194.499z
M195.999 303.998h175.999c2 19.333 -3.66699 37.5 -17 54.5s-33.666 25.5 -60.999 25.5c-24 0 -45.833 -8.66699 -65.5 -26s-30.5 -35.333 -32.5 -54z" />
    <glyph glyph-name="edieresis" unicode="&#xeb;" horiz-adv-x="576" 
d="M211 560c-20 0 -36.333 7 -49 21s-17.667 31 -15 51s11.834 37 27.501 51s33.5 21 53.5 21s36.167 -7 48.5 -21s17.166 -31 14.499 -51s-11.667 -37 -27 -51s-33 -21 -53 -21zM419 560c-20 0 -36.333 7 -49 21s-17.667 31 -15 51s11.834 37 27.501 51s33.5 21 53.5 21
s36.167 -7 48.5 -21s17.166 -31 14.499 -51s-11.667 -37 -27 -51s-33 -21 -53 -21zM533 248c-0.666992 -10.667 -3.00098 -24.002 -7.00098 -40.002h-342c4 -24.667 15.667 -44.167 35 -58.5s45.333 -21.5 78 -21.5c48 0 97.667 10 149 30l29 -127
c-6 -3.33301 -14.333 -7.66602 -25 -12.999s-33.167 -12.333 -67.5 -21s-69.833 -13 -106.5 -13c-94.667 0 -163.167 24.667 -205.5 74s-58.833 112.666 -49.5 189.999c9.33301 76.667 40 139.834 92 189.501s120.333 74.5 205 74.5c78.667 0 136.834 -23.167 174.501 -69.5
s51.167 -111.166 40.5 -194.499zM195.999 303.998h175.999c2 19.333 -3.66699 37.5 -17 54.5s-33.666 25.5 -60.999 25.5c-24 0 -45.833 -8.66699 -65.5 -26s-30.5 -35.333 -32.5 -54z" />
    <glyph glyph-name="igrave" unicode="&#xec;" horiz-adv-x="288" 
d="M252 560h-96l-127 144h160zM244 496l-49 -400c-6 -48 -4.66699 -80 4 -96h-160c-8.66699 16 -10 48 -4 96l49 400h160z" />
    <glyph glyph-name="iacute" unicode="&#xed;" horiz-adv-x="288" 
d="M92 560l97 144h160l-161 -144h-96zM244 496l-49 -400c-6 -48 -4.66699 -80 4 -96h-160c-8.66699 16 -10 48 -4 96l49 400h160z" />
    <glyph glyph-name="icircumflex" unicode="&#xee;" horiz-adv-x="288" 
d="M220 560l-41 64l-55 -64h-128l161 144h64l127 -144h-128zM244 496l-49 -400c-6 -48 -4.66699 -80 4 -96h-160c-8.66699 16 -10 48 -4 96l49 400h160z" />
    <glyph glyph-name="idieresis" unicode="&#xef;" horiz-adv-x="288" 
d="M68 560c-20 0 -36.333 7 -49 21s-17.667 31 -15 51s11.834 37 27.501 51s33.5 21 53.5 21s36.167 -7 48.5 -21s17.166 -31 14.499 -51s-11.667 -37 -27 -51s-33 -21 -53 -21zM276 560c-20 0 -36.333 7 -49 21s-17.667 31 -15 51s11.834 37 27.501 51s33.5 21 53.5 21
s36.167 -7 48.5 -21s17.166 -31 14.499 -51s-11.667 -37 -27 -51s-33 -21 -53 -21zM244 496l-49 -400c-6 -48 -4.66699 -80 4 -96h-160c-8.66699 16 -10 48 -4 96l49 400h160z" />
    <glyph glyph-name="eth" unicode="&#xf0;" 
d="M536 412c26.667 -51.333 36.333 -105.998 29 -163.998c-9.33301 -74.667 -42.5 -137.334 -99.5 -188.001s-125.167 -76 -204.5 -76c-82.667 0 -145.667 25.167 -189 75.5s-60.333 113.166 -51 188.499c8 67.333 34.833 125 80.5 173s103.5 77 173.5 87
c-21.333 20.667 -41 36 -59 46l-147 -50l9 79l76 27l-66 53l119 57l76 -66l179 59l-10 -80l-100 -33c45.333 -34 83.333 -65.833 114 -95.5s54 -60.5 70 -92.5zM277.999 128.002c30.667 0 58.5 11.667 83.5 35s39.5 51.666 43.5 84.999s-3.5 61.666 -22.5 84.999
s-43.833 35 -74.5 35s-58.5 -11.667 -83.5 -35s-39.5 -51.666 -43.5 -84.999s3.5 -61.666 22.5 -84.999s43.833 -35 74.5 -35z" />
    <glyph glyph-name="ntilde" unicode="&#xf1;" 
d="M464 672l77.999 -26.001c-35.333 -57.333 -78.333 -86 -129 -86c-26.667 0 -53 6 -79 18c-27.333 13.333 -50.666 19.333 -69.999 18s-36.333 -13.333 -51 -36l-78 26c36 57.333 79 86 129 86c22.667 0 49 -6 79 -18c27.333 -14 50.5 -20.167 69.5 -18.5
s36.167 13.834 51.5 36.501zM530.999 95.999c-6 -48 -4.66602 -79.999 4.00098 -95.999h-160c-8.66699 16 -10 48 -4 96l21 176c8 64 -14.667 96 -68 96c-9.33301 0 -19.333 -1.66699 -30 -5s-21.667 -8.83301 -33 -16.5s-21.333 -19.334 -30 -35.001
s-14.334 -34.167 -17.001 -55.5l-31 -256h-160l61 496h160l-6 -48c41.333 42.667 92 64 152 64c54 0 97.167 -19.5 129.5 -58.5s43.833 -94.167 34.5 -165.5z" />
    <glyph glyph-name="ograve" unicode="&#xf2;" 
d="M404 560h-96l-127 144h160zM326 512c78.667 0 140.502 -25.4971 185.502 -76.4971s62.833 -113.5 53.5 -187.5c-9.33301 -74.667 -42.5 -137.334 -99.5 -188.001s-125.167 -76 -204.5 -76c-82.667 0 -145.667 25.167 -189 75.5s-60.333 113.166 -51 188.499
s41.666 138.166 96.999 188.499s124.666 75.5 207.999 75.5zM278.002 128.003c30.667 0 58.5 11.667 83.5 35s39.5 51.666 43.5 84.999s-3.5 61.666 -22.5 84.999s-43.833 35 -74.5 35s-58.5 -11.667 -83.5 -35s-39.5 -51.666 -43.5 -84.999s3.5 -61.666 22.5 -84.999
s43.833 -35 74.5 -35z" />
    <glyph glyph-name="oacute" unicode="&#xf3;" 
d="M260 560l97 144h160l-161 -144h-96zM326 512c78.667 0 140.502 -25.4971 185.502 -76.4971s62.833 -113.5 53.5 -187.5c-9.33301 -74.667 -42.5 -137.334 -99.5 -188.001s-125.167 -76 -204.5 -76c-82.667 0 -145.667 25.167 -189 75.5s-60.333 113.166 -51 188.499
s41.666 138.166 96.999 188.499s124.666 75.5 207.999 75.5zM278.002 128.003c30.667 0 58.5 11.667 83.5 35s39.5 51.666 43.5 84.999s-3.5 61.666 -22.5 84.999s-43.833 35 -74.5 35s-58.5 -11.667 -83.5 -35s-39.5 -51.666 -43.5 -84.999s3.5 -61.666 22.5 -84.999
s43.833 -35 74.5 -35z" />
    <glyph glyph-name="ocircumflex" unicode="&#xf4;" 
d="M380 560l-41 64l-55 -64h-128l161 144h64l127 -144h-128zM326 512c78.667 0 140.502 -25.4971 185.502 -76.4971s62.833 -113.5 53.5 -187.5c-9.33301 -74.667 -42.5 -137.334 -99.5 -188.001s-125.167 -76 -204.5 -76c-82.667 0 -145.667 25.167 -189 75.5
s-60.333 113.166 -51 188.499s41.666 138.166 96.999 188.499s124.666 75.5 207.999 75.5zM278.002 128.003c30.667 0 58.5 11.667 83.5 35s39.5 51.666 43.5 84.999s-3.5 61.666 -22.5 84.999s-43.833 35 -74.5 35s-58.5 -11.667 -83.5 -35s-39.5 -51.666 -43.5 -84.999
s3.5 -61.666 22.5 -84.999s43.833 -35 74.5 -35z" />
    <glyph glyph-name="otilde" unicode="&#xf5;" 
d="M464 672l77.999 -26.001c-35.333 -57.333 -78.333 -86 -129 -86c-26.667 0 -53 6 -79 18c-27.333 13.333 -50.666 19.333 -69.999 18s-36.333 -13.333 -51 -36l-78 26c36 57.333 79 86 129 86c22.667 0 49 -6 79 -18c27.333 -14 50.5 -20.167 69.5 -18.5
s36.167 13.834 51.5 36.501zM325.999 511.999c78.667 0 140.502 -25.4971 185.502 -76.4971s62.833 -113.5 53.5 -187.5c-9.33301 -74.667 -42.5 -137.334 -99.5 -188.001s-125.167 -76 -204.5 -76c-82.667 0 -145.667 25.167 -189 75.5s-60.333 113.166 -51 188.499
s41.666 138.166 96.999 188.499s124.666 75.5 207.999 75.5zM278.001 128.002c30.667 0 58.5 11.667 83.5 35s39.5 51.666 43.5 84.999s-3.5 61.666 -22.5 84.999s-43.833 35 -74.5 35s-58.5 -11.667 -83.5 -35s-39.5 -51.666 -43.5 -84.999s3.5 -61.666 22.5 -84.999
s43.833 -35 74.5 -35z" />
    <glyph glyph-name="odieresis" unicode="&#xf6;" 
d="M228 560c-20 0 -36.333 7 -49 21s-17.667 31 -15 51s11.834 37 27.501 51s33.5 21 53.5 21s36.167 -7 48.5 -21s17.166 -31 14.499 -51s-11.667 -37 -27 -51s-33 -21 -53 -21zM436 560c-20 0 -36.333 7 -49 21s-17.667 31 -15 51s11.834 37 27.501 51s33.5 21 53.5 21
s36.167 -7 48.5 -21s17.166 -31 14.499 -51s-11.667 -37 -27 -51s-33 -21 -53 -21zM326 512c78.667 0 140.502 -25.4971 185.502 -76.4971s62.833 -113.5 53.5 -187.5c-9.33301 -74.667 -42.5 -137.334 -99.5 -188.001s-125.167 -76 -204.5 -76
c-82.667 0 -145.667 25.167 -189 75.5s-60.333 113.166 -51 188.499s41.666 138.166 96.999 188.499s124.666 75.5 207.999 75.5zM278.002 128.003c30.667 0 58.5 11.667 83.5 35s39.5 51.666 43.5 84.999s-3.5 61.666 -22.5 84.999s-43.833 35 -74.5 35
s-58.5 -11.667 -83.5 -35s-39.5 -51.666 -43.5 -84.999s3.5 -61.666 22.5 -84.999s43.833 -35 74.5 -35z" />
    <glyph glyph-name="divide" unicode="&#xf7;" horiz-adv-x="512" 
d="M266 416c-24.667 0 -44.501 8.5 -59.501 25.5s-20.833 37.833 -17.5 62.5s14.333 45.5 33 62.5s40.334 25.5 65.001 25.5s44.5 -8.5 59.5 -25.5s21.167 -37.833 18.5 -62.5s-13.667 -45.5 -33 -62.5s-41.333 -25.5 -66 -25.5zM49.999 352h416l-12 -96h-416zM216.999 16
c-24.667 0 -44.501 8.5 -59.501 25.5s-20.833 37.833 -17.5 62.5s14.333 45.5 33 62.5s40.334 25.5 65.001 25.5s44.5 -8.5 59.5 -25.5s21.167 -37.833 18.5 -62.5c-3.33301 -24.667 -14.5 -45.5 -33.5 -62.5s-40.833 -25.5 -65.5 -25.5z" />
    <glyph glyph-name="oslash" unicode="&#xf8;" 
d="M516 431c42 -50 58.335 -110.998 49.002 -182.998c-9.33301 -74.667 -42.5 -137.334 -99.5 -188.001s-125.167 -76 -204.5 -76c-59.333 0 -109.333 13.667 -150 41l-25 -25h-80l63 63c-41.333 49.333 -57.333 111 -48 185c9.33301 75.333 41.666 138.166 96.999 188.499
s124.666 75.5 207.999 75.5c57.333 0 106.333 -14.333 147 -43l28 27h80zM181.002 248.002c-2.66699 -22 0.333008 -43.001 9 -63.001l169 169c-15.333 9.33301 -32.333 14 -51 14c-30.667 0 -58.5 -11.667 -83.5 -35s-39.5 -51.666 -43.5 -84.999zM278.002 128.001
c30.667 0 58.5 11.668 83.5 35.001s39.5 51.666 43.5 84.999c3.33301 24 0.333008 45 -9 63l-169 -169c15.333 -9.33301 32.333 -14 51 -14z" />
    <glyph glyph-name="ugrave" unicode="&#xf9;" 
d="M396 560h-96l-127 144h160zM519 0l-160.001 -0.000976562c-6.66699 11.333 -9.33398 27 -8.00098 47c-40.667 -42 -92 -63 -154 -63c-54 0 -97.167 19.5 -129.5 58.5s-44.166 94.167 -35.499 165.5l36 288h160l-34 -272c-8 -64 14.667 -96 68 -96
c9.33301 0 19.333 1.66699 30 5s21.667 8.83301 33 16.5s21.333 19.334 30 35.001s14.334 34.167 17.001 55.5l32 256h160l-49 -400c-6 -48 -4.66699 -80 4 -96z" />
    <glyph glyph-name="uacute" unicode="&#xfa;" 
d="M252 560l97 144h160l-161 -144h-96zM519 0l-160.001 -0.000976562c-6.66699 11.333 -9.33398 27 -8.00098 47c-40.667 -42 -92 -63 -154 -63c-54 0 -97.167 19.5 -129.5 58.5s-44.166 94.167 -35.499 165.5l36 288h160l-34 -272c-8 -64 14.667 -96 68 -96
c9.33301 0 19.333 1.66699 30 5s21.667 8.83301 33 16.5s21.333 19.334 30 35.001s14.334 34.167 17.001 55.5l32 256h160l-49 -400c-6 -48 -4.66699 -80 4 -96z" />
    <glyph glyph-name="ucircumflex" unicode="&#xfb;" 
d="M372 560l-41 64l-55 -64h-128l161 144h64l127 -144h-128zM519 0l-160.001 -0.000976562c-6.66699 11.333 -9.33398 27 -8.00098 47c-40.667 -42 -92 -63 -154 -63c-54 0 -97.167 19.5 -129.5 58.5s-44.166 94.167 -35.499 165.5l36 288h160l-34 -272
c-8 -64 14.667 -96 68 -96c9.33301 0 19.333 1.66699 30 5s21.667 8.83301 33 16.5s21.333 19.334 30 35.001s14.334 34.167 17.001 55.5l32 256h160l-49 -400c-6 -48 -4.66699 -80 4 -96z" />
    <glyph glyph-name="udieresis" unicode="&#xfc;" 
d="M228 560c-20 0 -36.333 7 -49 21s-17.667 31 -15 51s11.834 37 27.501 51s33.5 21 53.5 21s36.167 -7 48.5 -21s17.166 -31 14.499 -51s-11.667 -37 -27 -51s-33 -21 -53 -21zM436 560c-20 0 -36.333 7 -49 21s-17.667 31 -15 51s11.834 37 27.501 51s33.5 21 53.5 21
s36.167 -7 48.5 -21s17.166 -31 14.499 -51s-11.667 -37 -27 -51s-33 -21 -53 -21zM519 0l-160.001 -0.000976562c-6.66699 11.333 -9.33398 27 -8.00098 47c-40.667 -42 -92 -63 -154 -63c-54 0 -97.167 19.5 -129.5 58.5s-44.166 94.167 -35.499 165.5l36 288h160
l-34 -272c-8 -64 14.667 -96 68 -96c9.33301 0 19.333 1.66699 30 5s21.667 8.83301 33 16.5s21.333 19.334 30 35.001s14.334 34.167 17.001 55.5l32 256h160l-49 -400c-6 -48 -4.66699 -80 4 -96z" />
    <glyph glyph-name="yacute" unicode="&#xfd;" horiz-adv-x="544" 
d="M220 560l97 144h160l-161 -144h-96zM388 496h176l-397 -752h-176l165 292l-136 460h176l62 -272z" />
    <glyph glyph-name="thorn" unicode="&#xfe;" horiz-adv-x="640" 
d="M390 512c66.667 0 120.168 -25.6689 160.501 -77.002s55.833 -113.666 46.5 -186.999s-40.333 -135.666 -93 -186.999s-112.334 -77 -179.001 -77c-56 0 -101.667 19.333 -137 58l-37 -298h-160l118 960h160l-31 -250c46 38.667 96.667 58 152 58zM310.001 127.998
c30.667 0 58.5 11.667 83.5 35s39.5 51.666 43.5 84.999s-3.5 61.666 -22.5 84.999s-43.833 35 -74.5 35s-58.5 -11.667 -83.5 -35s-39.5 -51.666 -43.5 -84.999s3.5 -61.666 22.5 -84.999s43.833 -35 74.5 -35z" />
    <glyph glyph-name="ydieresis" unicode="&#xff;" horiz-adv-x="544" 
d="M196 560c-20 0 -36.333 7 -49 21s-17.667 31 -15 51s11.834 37 27.501 51s33.5 21 53.5 21s36.167 -7 48.5 -21s17.166 -31 14.499 -51s-11.667 -37 -27 -51s-33 -21 -53 -21zM404 560c-20 0 -36.333 7 -49 21s-17.667 31 -15 51s11.834 37 27.501 51s33.5 21 53.5 21
s36.167 -7 48.5 -21s17.166 -31 14.499 -51s-11.667 -37 -27 -51s-33 -21 -53 -21zM388 496h176l-397 -752h-176l165 292l-136 460h176l62 -272z" />
    <glyph glyph-name="Amacron" unicode="&#x100;" horiz-adv-x="704" 
d="M555 752h-304l10 80h304zM487 0l-29 112h-268l-55 -112h-176l360 672h148l196 -672h-176zM263 256h158l-53 208z" />
    <glyph glyph-name="amacron" unicode="&#x101;" horiz-adv-x="640" 
d="M517 576h-304l10 80h304zM551 0l-160 -0.000976562c-4.66699 8.66699 -7.66699 22.334 -9 41.001c-45.333 -38 -96.333 -57 -153 -57c-66.667 0 -120.167 25.833 -160.5 77.5s-56.166 113.834 -47.499 186.501c9.33301 73.333 40.5 135.666 93.5 186.999
s112.833 77 179.5 77c55.333 0 100.666 -19.333 135.999 -58l6 42h160l-49 -400c-6 -48 -4.66699 -80 4 -96zM278 127.999c30.667 0 58.5 11.667 83.5 35s39.5 51.666 43.5 84.999s-3.5 61.666 -22.5 84.999s-43.833 35 -74.5 35s-58.5 -11.667 -83.5 -35
s-39.5 -51.666 -43.5 -84.999s3.5 -61.666 22.5 -84.999s43.833 -35 74.5 -35z" />
    <glyph glyph-name="Abreve" unicode="&#x102;" horiz-adv-x="704" 
d="M483 880h80.002c-4.66699 -40 -22.834 -74 -54.501 -102s-67.5 -42 -107.5 -42s-72.167 14 -96.5 42s-34.166 62 -29.499 102h80c-2.66699 -17.333 1.66602 -32.333 12.999 -45s25.666 -19 42.999 -19s33 6.33301 47 19s22.333 27.667 25 45zM487.002 0l-29 112h-268
l-55 -112h-176l360 672h148l196 -672h-176zM263.002 256h158l-53 208z" />
    <glyph glyph-name="abreve" unicode="&#x103;" horiz-adv-x="640" 
d="M445 704h80.001c-5.33301 -40 -23.5 -74 -54.5 -102s-66.5 -42 -106.5 -42s-72.333 14 -97 42s-34.667 62 -30 102h80c-2 -17.333 2.5 -32.333 13.5 -45s25.167 -19 42.5 -19s33.166 6.33301 47.499 19s22.5 27.667 24.5 45zM551.001 0l-160 -0.000976562
c-4.66699 8.66699 -7.66699 22.334 -9 41.001c-45.333 -38 -96.333 -57 -153 -57c-66.667 0 -120.167 25.833 -160.5 77.5s-56.166 113.834 -47.499 186.501c9.33301 73.333 40.5 135.666 93.5 186.999s112.833 77 179.5 77c55.333 0 100.666 -19.333 135.999 -58l6 42h160
l-49 -400c-6 -48 -4.66699 -80 4 -96zM278.001 127.999c30.667 0 58.5 11.667 83.5 35s39.5 51.666 43.5 84.999s-3.5 61.666 -22.5 84.999s-43.833 35 -74.5 35s-58.5 -11.667 -83.5 -35s-39.5 -51.666 -43.5 -84.999s3.5 -61.666 22.5 -84.999s43.833 -35 74.5 -35z" />
    <glyph glyph-name="Aogonek" unicode="&#x104;" horiz-adv-x="704" 
d="M513 -74c-4 -32.667 5.66797 -53.5 29.001 -62.5s47.666 -6.16699 72.999 8.5l8 -64c-21.333 -10.667 -43.333 -16 -66 -16c-39.333 0 -69 11.5 -89 34.5s-28 52.833 -24 89.5c2 14.667 7.16699 30.5 15.5 47.5s17.5 29.167 27.5 36.5l-29 112h-268l-55 -112h-176
l360 672h148l196 -672h-48c-22.667 0 -44.5 -5.83301 -65.5 -17.5s-33.167 -30.5 -36.5 -56.5zM263.001 256h158l-53 208z" />
    <glyph glyph-name="aogonek" unicode="&#x105;" horiz-adv-x="640" 
d="M401 -74c-4 -32.667 5.66699 -53.5 29 -62.5s47.666 -6.16699 72.999 8.5l8 -64c-21.333 -10.667 -43.333 -16 -66 -16c-39.333 0 -69 11.5 -89 34.5s-28 52.833 -24 89.5c6 43.333 24 76.333 54 99c-1.33301 5.33301 -2.66602 14 -3.99902 26
c-45.333 -38 -96.333 -57 -153 -57c-66.667 0 -120.167 25.833 -160.5 77.5s-56.166 113.834 -47.499 186.501c9.33301 73.333 40.5 135.666 93.5 186.999s112.833 77 179.5 77c55.333 0 100.666 -19.333 135.999 -58l6 42h160l-49 -400c-6 -48 -4.66699 -80 4 -96h-48
c-22.667 0 -44.5 -5.83301 -65.5 -17.5s-33.167 -30.5 -36.5 -56.5zM278 128c30.667 0 58.5 11.667 83.5 35s39.5 51.666 43.5 84.999s-3.5 61.666 -22.5 84.999s-43.833 35 -74.5 35s-58.5 -11.667 -83.5 -35s-39.5 -51.666 -43.5 -84.999s3.5 -61.666 22.5 -84.999
s43.833 -35 74.5 -35z" />
    <glyph glyph-name="Cacute" unicode="&#x106;" horiz-adv-x="656" 
d="M369 736l98 144h160l-162 -144h-96zM374 128c66 0 123.333 25.999 172 77.999l45 -141c-32 -25.333 -69.167 -45.166 -111.5 -59.499s-83.166 -21.5 -122.499 -21.5c-101.333 0 -183.833 34.5 -247.5 103.5s-89.5 151.833 -77.5 248.5
c12 97.333 58.167 180.333 138.5 249s171.166 103 272.499 103c40 0 79.5 -7 118.5 -21s70.833 -33.667 95.5 -59l-79 -142c-34.667 52 -85.334 78 -152.001 78c-57.333 0 -109 -20.333 -155 -61s-72.333 -89.667 -79 -147c-7.33301 -57.333 6.83398 -106.333 42.501 -147
s82.167 -61 139.5 -61z" />
    <glyph glyph-name="cacute" unicode="&#x107;" horiz-adv-x="528" 
d="M268 560l97 144h160l-161 -144h-96zM418 173l42.0029 -128c-47.333 -40.667 -112.333 -61 -195 -61c-84.667 0 -148.834 25.167 -192.501 75.5s-60.834 113.166 -51.501 188.499s42.166 138.166 98.499 188.499s126.5 75.5 210.5 75.5c81.333 0 141.333 -20.333 180 -61
l-74 -129c-30.667 30.667 -68.667 46 -114 46c-34.667 0 -65.834 -11.667 -93.501 -35s-43.5 -51.666 -47.5 -84.999s4.83301 -61.666 26.5 -84.999s49.834 -35 84.501 -35c45.333 0 87.333 15 126 45z" />
    <glyph glyph-name="Cdotaccent" unicode="&#x10a;" horiz-adv-x="656" 
d="M439 720c-24 0 -43.5 8.66699 -58.5 26s-21.167 38 -18.5 62s13.834 44.667 33.501 62s41.5 26 65.5 26s43.5 -8.66699 58.5 -26s21.167 -38 18.5 -62s-13.834 -44.667 -33.501 -62s-41.5 -26 -65.5 -26zM374 128c66 0 123.333 25.999 172 77.999l45 -141
c-32 -25.333 -69.167 -45.166 -111.5 -59.499s-83.166 -21.5 -122.499 -21.5c-101.333 0 -183.833 34.5 -247.5 103.5s-89.5 151.833 -77.5 248.5c12 97.333 58.167 180.333 138.5 249s171.166 103 272.499 103c40 0 79.5 -7 118.5 -21s70.833 -33.667 95.5 -59l-79 -142
c-34.667 52 -85.334 78 -152.001 78c-57.333 0 -109 -20.333 -155 -61s-72.333 -89.667 -79 -147c-7.33301 -57.333 6.83398 -106.333 42.501 -147s82.167 -61 139.5 -61z" />
    <glyph glyph-name="cdotaccent" unicode="&#x10b;" horiz-adv-x="528" 
d="M338 544c-24 0 -43.6689 8.66699 -59.002 26s-21.666 38 -18.999 62s13.834 44.667 33.501 62s41.5 26 65.5 26s43.667 -8.66699 59 -26s21.333 -38 18 -62s-14.5 -44.667 -33.5 -62s-40.5 -26 -64.5 -26zM417.998 173l42.0029 -128
c-47.333 -40.667 -112.333 -61 -195 -61c-84.667 0 -148.834 25.167 -192.501 75.5s-60.834 113.166 -51.501 188.499s42.166 138.166 98.499 188.499s126.5 75.5 210.5 75.5c81.333 0 141.333 -20.333 180 -61l-74 -129c-30.667 30.667 -68.667 46 -114 46
c-34.667 0 -65.834 -11.667 -93.501 -35s-43.5 -51.666 -47.5 -84.999s4.83301 -61.666 26.5 -84.999s49.834 -35 84.501 -35c45.333 0 87.333 15 126 45z" />
    <glyph glyph-name="Ccaron" unicode="&#x10c;" horiz-adv-x="656" 
d="M499 880h128l-162 -144h-64l-126 144h128l40 -64zM374 128c66 0 123.333 25.999 172 77.999l45 -141c-32 -25.333 -69.167 -45.166 -111.5 -59.499s-83.166 -21.5 -122.499 -21.5c-101.333 0 -183.833 34.5 -247.5 103.5s-89.5 151.833 -77.5 248.5
c12 97.333 58.167 180.333 138.5 249s171.166 103 272.499 103c40 0 79.5 -7 118.5 -21s70.833 -33.667 95.5 -59l-79 -142c-34.667 52 -85.334 78 -152.001 78c-57.333 0 -109 -20.333 -155 -61s-72.333 -89.667 -79 -147c-7.33301 -57.333 6.83398 -106.333 42.501 -147
s82.167 -61 139.5 -61z" />
    <glyph glyph-name="ccaron" unicode="&#x10d;" horiz-adv-x="528" 
d="M397 704h128l-161 -144h-64l-127 144h128l40 -64zM418 173l42.0029 -128c-47.333 -40.667 -112.333 -61 -195 -61c-84.667 0 -148.834 25.167 -192.501 75.5s-60.834 113.166 -51.501 188.499s42.166 138.166 98.499 188.499s126.5 75.5 210.5 75.5
c81.333 0 141.333 -20.333 180 -61l-74 -129c-30.667 30.667 -68.667 46 -114 46c-34.667 0 -65.834 -11.667 -93.501 -35s-43.5 -51.666 -47.5 -84.999s4.83301 -61.666 26.5 -84.999s49.834 -35 84.501 -35c45.333 0 87.333 15 126 45z" />
    <glyph glyph-name="Dcaron" unicode="&#x10e;" horiz-adv-x="704" 
d="M427 880h128l-162 -144h-64l-126 144h128l40 -64zM360 672c111.333 0 194.167 -31.667 248.5 -95s75.5 -143.666 63.5 -240.999c-12 -96.667 -53.333 -176.834 -124 -240.501s-160.667 -95.5 -270 -95.5h-255l82 672h255zM306.001 144c48 0 92.667 19 134 57
s65.333 83 72 135s-6 97 -38 135s-72 57 -120 57h-106l-48 -384h106z" />
    <glyph glyph-name="dcaron" unicode="&#x10f;" horiz-adv-x="800" 
d="M551 0l-160 -0.000976562c-4.66699 8.66699 -7.66699 22.334 -9 41.001c-45.333 -38 -96.333 -57 -153 -57c-66.667 0 -120.167 25.833 -160.5 77.5s-56.166 113.834 -47.499 186.501c9.33301 73.333 40.5 135.666 93.5 186.999s112.833 77 179.5 77
c55.333 0 100.666 -19.333 135.999 -58l31 250h160l-74 -608c-6 -48 -4.66699 -80 4 -96zM632 527.999l49 144h128l-97 -144h-80zM278 127.999c30.667 0 58.5 11.667 83.5 35s39.5 51.666 43.5 84.999s-3.5 61.666 -22.5 84.999s-43.833 35 -74.5 35
s-58.5 -11.667 -83.5 -35s-39.5 -51.666 -43.5 -84.999s3.5 -61.666 22.5 -84.999s43.833 -35 74.5 -35z" />
    <glyph glyph-name="Dcroat" unicode="&#x110;" horiz-adv-x="720" 
d="M376 672c111.333 0 194.167 -31.667 248.5 -95s75.5 -143.666 63.5 -240.999c-12 -96.667 -53.333 -176.834 -124 -240.501s-160.667 -95.5 -270 -95.5h-255l35 288h-64l12 96h64l35 288h255zM322.001 144c48 0 92.667 19 134 57s65.333 83 72 135s-6 97 -38 135
s-72 57 -120 57h-106l-18 -144h64l-12 -96h-64l-18 -144h106z" />
    <glyph glyph-name="dcroat" unicode="&#x111;" horiz-adv-x="656" 
d="M666 544l-64 -0.000976562l-55 -448c-6 -48 -4.66699 -80 4 -96h-160c-4.66699 8.66699 -7.66699 22.334 -9 41.001c-45.333 -38 -96.333 -57 -153 -57c-66.667 0 -120.167 25.833 -160.5 77.5s-56.166 113.834 -47.499 186.501
c9.33301 73.333 40.5 135.666 93.5 186.999s112.833 77 179.5 77c55.333 0 100.666 -19.333 135.999 -58l12 90h-64l9 80h64l10 80h160l-10 -80h64zM278 127.999c30.667 0 58.5 11.667 83.5 35s39.5 51.666 43.5 84.999s-3.5 61.666 -22.5 84.999s-43.833 35 -74.5 35
s-58.5 -11.667 -83.5 -35s-39.5 -51.666 -43.5 -84.999s3.5 -61.666 22.5 -84.999s43.833 -35 74.5 -35z" />
    <glyph glyph-name="Emacron" unicode="&#x112;" horiz-adv-x="544" 
d="M475 752h-304l10 80h304zM520 528h-272l-15 -120h224l-18 -144h-224l-15 -120h272l-17 -144h-432l82 672h432z" />
    <glyph glyph-name="emacron" unicode="&#x113;" horiz-adv-x="576" 
d="M469 576h-304l10 80h304zM533 248c-0.666992 -10.667 -3.00098 -24.002 -7.00098 -40.002h-342c4 -24.667 15.667 -44.167 35 -58.5s45.333 -21.5 78 -21.5c48 0 97.667 10 149 30l29 -127c-6 -3.33301 -14.333 -7.66602 -25 -12.999s-33.167 -12.333 -67.5 -21
s-69.833 -13 -106.5 -13c-94.667 0 -163.167 24.667 -205.5 74s-58.833 112.666 -49.5 189.999c9.33301 76.667 40 139.834 92 189.501s120.333 74.5 205 74.5c78.667 0 136.834 -23.167 174.501 -69.5s51.167 -111.166 40.5 -194.499zM195.999 303.998h175.999
c2 19.333 -3.66699 37.5 -17 54.5s-33.666 25.5 -60.999 25.5c-24 0 -45.833 -8.66699 -65.5 -26s-30.5 -35.333 -32.5 -54z" />
    <glyph glyph-name="Edotaccent" unicode="&#x116;" horiz-adv-x="544" 
d="M319 720c-24 0 -43.498 8.66699 -58.498 26s-21.167 38 -18.5 62c3.33301 24 14.666 44.667 33.999 62s41 26 65 26s43.5 -8.66699 58.5 -26s21.167 -38 18.5 -62s-13.834 -44.667 -33.501 -62s-41.5 -26 -65.5 -26zM520.002 528h-272l-15 -120h224l-18 -144h-224
l-15 -120h272l-17 -144h-432l82 672h432z" />
    <glyph glyph-name="edotaccent" unicode="&#x117;" horiz-adv-x="576" 
d="M322 544c-24 0 -43.6689 8.66699 -59.002 26s-21.666 38 -18.999 62s13.834 44.667 33.501 62s41.5 26 65.5 26s43.5 -8.66699 58.5 -26s21.167 -38 18.5 -62c-3.33301 -24 -14.5 -44.667 -33.5 -62s-40.5 -26 -64.5 -26zM532.998 248
c-0.666992 -10.667 -3.00098 -24.002 -7.00098 -40.002h-342c4 -24.667 15.667 -44.167 35 -58.5s45.333 -21.5 78 -21.5c48 0 97.667 10 149 30l29 -127c-6 -3.33301 -14.333 -7.66602 -25 -12.999s-33.167 -12.333 -67.5 -21s-69.833 -13 -106.5 -13
c-94.667 0 -163.167 24.667 -205.5 74s-58.833 112.666 -49.5 189.999c9.33301 76.667 40 139.834 92 189.501s120.333 74.5 205 74.5c78.667 0 136.834 -23.167 174.501 -69.5s51.167 -111.166 40.5 -194.499zM195.997 303.998h175.999c2 19.333 -3.66699 37.5 -17 54.5
s-33.666 25.5 -60.999 25.5c-24 0 -45.833 -8.66699 -65.5 -26s-30.5 -35.333 -32.5 -54z" />
    <glyph glyph-name="Eogonek" unicode="&#x118;" horiz-adv-x="544" 
d="M455 -128l8.00098 -64c-21.333 -10.667 -43.333 -16 -66 -16c-39.333 0 -69 11.5 -89 34.5s-28 52.833 -24 89.5c2 14.667 7.16699 30.5 15.5 47.5s17.5 29.167 27.5 36.5h-304l82 672h432l-17 -144h-272l-15 -120h224l-18 -144h-224l-15 -120h272l-17 -144
c-22.667 0 -44.5 -5.83301 -65.5 -17.5s-33.167 -30.5 -36.5 -56.5c-4 -32.667 5.66699 -53.5 29 -62.5s47.666 -6.16699 72.999 8.5z" />
    <glyph glyph-name="eogonek" unicode="&#x119;" horiz-adv-x="576" 
d="M533 248c-0.666992 -10.667 -3.00098 -24 -7.00098 -40h-342c4 -24.667 15.667 -44.167 35 -58.5s45.333 -21.5 78 -21.5c48 0 97.667 10 149 30l29 -127c-38.667 -23.333 -89.667 -38.333 -153 -45c-12.667 -3.33301 -23.667 -10.5 -33 -21.5
s-14.666 -23.833 -15.999 -38.5c-4 -32.667 5.66699 -53.5 29 -62.5s47.666 -6.16699 72.999 8.5l8 -64c-21.333 -10.667 -43.333 -16 -66 -16c-39.333 0 -69 11.5 -89 34.5s-28 52.833 -24 89.5c3.33301 25.333 13 48.666 29 69.999
c-80 7.33301 -137.5 35.166 -172.5 83.499s-48.167 107.833 -39.5 178.5c9.33301 76.667 40 139.834 92 189.501s120.333 74.5 205 74.5c78.667 0 136.834 -23.167 174.501 -69.5s51.167 -111.166 40.5 -194.499zM195.999 304h175.999c2 19.333 -3.66699 37.5 -17 54.5
s-33.666 25.5 -60.999 25.5c-24 0 -45.833 -8.66699 -65.5 -26s-30.5 -35.333 -32.5 -54z" />
    <glyph glyph-name="Ecaron" unicode="&#x11a;" horiz-adv-x="544" 
d="M387 880h128l-162 -144h-64l-126 144h128l40 -64zM520 528h-272l-15 -120h224l-18 -144h-224l-15 -120h272l-17 -144h-432l82 672h432z" />
    <glyph glyph-name="ecaron" unicode="&#x11b;" horiz-adv-x="576" 
d="M381 704h128l-161 -144h-64l-127 144h128l40 -64zM533 248c-0.666992 -10.667 -3.00098 -24.002 -7.00098 -40.002h-342c4 -24.667 15.667 -44.167 35 -58.5s45.333 -21.5 78 -21.5c48 0 97.667 10 149 30l29 -127c-6 -3.33301 -14.333 -7.66602 -25 -12.999
s-33.167 -12.333 -67.5 -21s-69.833 -13 -106.5 -13c-94.667 0 -163.167 24.667 -205.5 74s-58.833 112.666 -49.5 189.999c9.33301 76.667 40 139.834 92 189.501s120.333 74.5 205 74.5c78.667 0 136.834 -23.167 174.501 -69.5s51.167 -111.166 40.5 -194.499z
M195.999 303.998h175.999c2 19.333 -3.66699 37.5 -17 54.5s-33.666 25.5 -60.999 25.5c-24 0 -45.833 -8.66699 -65.5 -26s-30.5 -35.333 -32.5 -54z" />
    <glyph glyph-name="Gbreve" unicode="&#x11e;" horiz-adv-x="752" 
d="M507 880h80.002c-4.66699 -40 -22.834 -74 -54.501 -102s-67.5 -42 -107.5 -42s-72.167 14 -96.5 42s-34.166 62 -29.499 102h80c-2.66699 -17.333 1.66602 -32.333 12.999 -45s25.666 -19 42.999 -19s33 6.33301 47 19s22.333 27.667 25 45zM722.002 400
c1.33301 -24 0.661133 -45.332 -2.00586 -63.999c-12 -98 -54.167 -181.167 -126.5 -249.5s-156.5 -102.5 -252.5 -102.5c-97.333 0 -176.166 34.5 -236.499 103.5s-84.5 151.833 -72.5 248.5c12 97.333 56.667 180.333 134 249s164.333 103 261 103
c67.333 0 125.333 -17.333 174 -52s84.334 -81.334 107.001 -140.001l-150 -43c-30.667 60.667 -80 91 -148 91c-55.333 0 -103.666 -20.167 -144.999 -60.5s-65.666 -89.5 -72.999 -147.5s4.83398 -107.167 36.501 -147.5s74.834 -60.5 129.501 -60.5
c43.333 0 81.833 11.5 115.5 34.5s56.5 54.167 68.5 93.5h-216l18 144h378z" />
    <glyph glyph-name="gbreve" unicode="&#x11f;" horiz-adv-x="640" 
d="M445 704h80.001c-5.33301 -40 -23.5 -74 -54.5 -102s-66.5 -42 -106.5 -42s-72.333 14 -97 42s-34.667 62 -30 102h80c-2 -17.333 2.5 -32.333 13.5 -45s25.167 -19 42.5 -19s33.166 6.33301 47.499 19s22.5 27.667 24.5 45zM436.001 496l160.001 0.000976562l-55 -448
c-12.667 -102.667 -48.334 -181.667 -107.001 -237s-132.334 -83 -221.001 -83c-41.333 0 -81.166 6.66699 -119.499 20s-66.166 26.666 -83.499 39.999l-27 20l76 128c55.333 -42.667 109.666 -64 162.999 -64c42 0 77 13.667 105 41s44.667 63.333 50 108l3 21
c-46 -38.667 -96.333 -58 -151 -58c-66.667 0 -120.167 25.833 -160.5 77.5s-56.166 113.834 -47.499 186.501c9.33301 73.333 40.5 135.666 93.5 186.999s112.833 77 179.5 77c55.333 0 100.666 -19.333 135.999 -58zM278.002 128.001c30.667 0 58.5 11.667 83.5 35
s39.5 51.666 43.5 84.999s-3.5 61.666 -22.5 84.999s-43.833 35 -74.5 35s-58.5 -11.667 -83.5 -35s-39.5 -51.666 -43.5 -84.999s3.5 -61.666 22.5 -84.999s43.833 -35 74.5 -35z" />
    <glyph glyph-name="Gdotaccent" unicode="&#x120;" horiz-adv-x="752" 
d="M423 720c-24 0 -43.5 8.66699 -58.5 26s-21.167 38 -18.5 62s13.834 44.667 33.501 62s41.5 26 65.5 26s43.5 -8.66699 58.5 -26s21.167 -38 18.5 -62s-13.834 -44.667 -33.501 -62s-41.5 -26 -65.5 -26zM722 400c1.33301 -24 0.661133 -45.332 -2.00586 -63.999
c-12 -98 -54.167 -181.167 -126.5 -249.5s-156.5 -102.5 -252.5 -102.5c-97.333 0 -176.166 34.5 -236.499 103.5s-84.5 151.833 -72.5 248.5c12 97.333 56.667 180.333 134 249s164.333 103 261 103c67.333 0 125.333 -17.333 174 -52s84.334 -81.334 107.001 -140.001
l-150 -43c-30.667 60.667 -80 91 -148 91c-55.333 0 -103.666 -20.167 -144.999 -60.5s-65.666 -89.5 -72.999 -147.5s4.83398 -107.167 36.501 -147.5s74.834 -60.5 129.501 -60.5c43.333 0 81.833 11.5 115.5 34.5s56.5 54.167 68.5 93.5h-216l18 144h378z" />
    <glyph glyph-name="gdotaccent" unicode="&#x121;" horiz-adv-x="640" 
d="M346 544c-24 0 -43.6689 8.66699 -59.002 26s-21.666 38 -18.999 62s13.834 44.667 33.501 62s41.5 26 65.5 26s43.5 -8.66699 58.5 -26s21.167 -38 18.5 -62c-3.33301 -24 -14.5 -44.667 -33.5 -62s-40.5 -26 -64.5 -26zM435.998 496l160.001 0.000976562l-55 -448
c-12.667 -102.667 -48.334 -181.667 -107.001 -237s-132.334 -83 -221.001 -83c-41.333 0 -81.166 6.66699 -119.499 20s-66.166 26.666 -83.499 39.999l-27 20l76 128c55.333 -42.667 109.666 -64 162.999 -64c42 0 77 13.667 105 41s44.667 63.333 50 108l3 21
c-46 -38.667 -96.333 -58 -151 -58c-66.667 0 -120.167 25.833 -160.5 77.5s-56.166 113.834 -47.499 186.501c9.33301 73.333 40.5 135.666 93.5 186.999s112.833 77 179.5 77c55.333 0 100.666 -19.333 135.999 -58zM277.999 128.001c30.667 0 58.5 11.667 83.5 35
s39.5 51.666 43.5 84.999s-3.5 61.666 -22.5 84.999s-43.833 35 -74.5 35s-58.5 -11.667 -83.5 -35s-39.5 -51.666 -43.5 -84.999s3.5 -61.666 22.5 -84.999s43.833 -35 74.5 -35z" />
    <glyph glyph-name="Gcommaaccent" unicode="&#x122;" horiz-adv-x="752" 
d="M722 400c1.33301 -24 0.661133 -45.332 -2.00586 -63.999c-12 -98 -54.167 -181.167 -126.5 -249.5s-156.5 -102.5 -252.5 -102.5c-97.333 0 -176.166 34.5 -236.499 103.5s-84.5 151.833 -72.5 248.5c12 97.333 56.667 180.333 134 249s164.333 103 261 103
c67.333 0 125.333 -17.333 174 -52s84.334 -81.334 107.001 -140.001l-150 -43c-30.667 60.667 -80 91 -148 91c-55.333 0 -103.666 -20.167 -144.999 -60.5s-65.666 -89.5 -72.999 -147.5s4.83398 -107.167 36.501 -147.5s74.834 -60.5 129.501 -60.5
c43.333 0 81.833 11.5 115.5 34.5s56.5 54.167 68.5 93.5h-216l18 144h378zM220.995 -207.999l50 144h128l-98 -144h-80z" />
    <glyph glyph-name="gcommaaccent" unicode="&#x123;" horiz-adv-x="640" 
d="M477 704l-49 -144h-128l97 144h80zM436 496l160.001 0.000976562l-55 -448c-12.667 -102.667 -48.334 -181.667 -107.001 -237s-132.334 -83 -221.001 -83c-41.333 0 -81.166 6.66699 -119.499 20s-66.166 26.666 -83.499 39.999l-27 20l76 128
c55.333 -42.667 109.666 -64 162.999 -64c42 0 77 13.667 105 41s44.667 63.333 50 108l3 21c-46 -38.667 -96.333 -58 -151 -58c-66.667 0 -120.167 25.833 -160.5 77.5s-56.166 113.834 -47.499 186.501c9.33301 73.333 40.5 135.666 93.5 186.999s112.833 77 179.5 77
c55.333 0 100.666 -19.333 135.999 -58zM278.001 128.001c30.667 0 58.5 11.667 83.5 35s39.5 51.666 43.5 84.999s-3.5 61.666 -22.5 84.999s-43.833 35 -74.5 35s-58.5 -11.667 -83.5 -35s-39.5 -51.666 -43.5 -84.999s3.5 -61.666 22.5 -84.999s43.833 -35 74.5 -35z" />
    <glyph glyph-name="Hbar" unicode="&#x126;" horiz-adv-x="704" 
d="M719 592l-9 -80h-48l-63 -512h-160l32 264h-256l-32 -264h-160l63 512h-48l9 80h48l10 80h160l-10 -80h256l10 80h160l-10 -80h48zM489 408l13 104h-256l-13 -104h256z" />
    <glyph glyph-name="hbar" unicode="&#x127;" horiz-adv-x="624" 
d="M547 96c-6 -48 -4.66602 -79.999 4.00098 -95.999h-160c-8.66699 16 -10 48 -4 96l21 176c8 64 -14.667 96 -68 96c-9.33301 0 -19.333 -1.66699 -30 -5s-21.667 -8.83301 -33 -16.5s-21.333 -19.334 -30 -35.001s-14.334 -34.167 -17.001 -55.5l-31 -256h-160l67 544
h-64l9 80h64l10 80h160l-10 -80h64l-9 -80h-64l-12 -96c41.333 42.667 92 64 152 64c54 0 97.167 -19.5 129.5 -58.5s43.833 -94.167 34.5 -165.5z" />
    <glyph glyph-name="Imacron" unicode="&#x12a;" horiz-adv-x="288" 
d="M347 752h-304l10 80h304zM183 0h-160l82 672h160z" />
    <glyph glyph-name="imacron" unicode="&#x12b;" horiz-adv-x="288" 
d="M325 576h-304l10 80h304zM244 496l-49 -400c-6 -48 -4.66699 -80 4 -96h-160c-8.66699 16 -10 48 -4 96l49 400h160z" />
    <glyph glyph-name="Iogonek" unicode="&#x12e;" horiz-adv-x="288" 
d="M183 -128l8.00098 -64c-21.333 -10.667 -43.333 -16 -66 -16c-39.333 0 -69 11.5 -89 34.5s-28 52.833 -24 89.5c2 14.667 7.16699 30.5 15.5 47.5s17.5 29.167 27.5 36.5h-32l82 672h160l-82 -672c-22.667 0 -44.5 -5.83301 -65.5 -17.5s-33.167 -30.5 -36.5 -56.5
c-4 -32.667 5.66699 -53.5 29 -62.5s47.666 -6.16699 72.999 8.5z" />
    <glyph glyph-name="iogonek" unicode="&#x12f;" horiz-adv-x="288" 
d="M172 560c-26.667 0 -48.332 9.33301 -64.999 28s-23.334 41.334 -20.001 68.001s15.5 49.334 36.5 68.001s44.833 28 71.5 28s48.167 -9.33301 64.5 -28s22.833 -41.334 19.5 -68.001c-2.66699 -26.667 -14.5 -49.334 -35.5 -68.001s-44.833 -28 -71.5 -28zM183.002 -128
l8.00098 -64c-21.333 -10.667 -43.333 -16 -66 -16c-39.333 0 -69 11.5 -89 34.5s-28 52.833 -24 89.5c2 14.667 7.16699 30.5 15.5 47.5s17.5 29.167 27.5 36.5h-16c-8.66699 16 -10 48 -4 96l49 400h160l-49 -400c-6 -48 -4.66699 -80 4 -96h-16
c-22.667 0 -44.5 -5.83301 -65.5 -17.5s-33.167 -30.5 -36.5 -56.5c-4 -32.667 5.66699 -53.5 29 -62.5s47.666 -6.16699 72.999 8.5z" />
    <glyph glyph-name="Idotaccent" unicode="&#x130;" horiz-adv-x="288" 
d="M191 720c-24 0 -43.498 8.66699 -58.498 26s-21.167 38 -18.5 62c3.33301 24 14.666 44.667 33.999 62s41 26 65 26s43.5 -8.66699 58.5 -26s21.167 -38 18.5 -62s-13.834 -44.667 -33.501 -62s-41.5 -26 -65.5 -26zM183.002 0h-160l82 672h160z" />
    <glyph glyph-name="dotlessi" unicode="&#x131;" horiz-adv-x="288" 
d="M244 496l-49 -400c-6 -48 -4.66699 -80 4 -96h-160c-8.66699 16 -10 48 -4 96l49 400h160z" />
    <glyph glyph-name="IJ" unicode="&#x132;" horiz-adv-x="784" 
d="M183 0h-160l82 672h160zM617 672h160.003l-51 -416c-10.667 -89.333 -41.834 -157 -93.501 -203s-117.167 -69 -196.5 -69c-30.667 0 -60.167 5.83301 -88.5 17.5s-49.5 26.5 -63.5 44.5l87 120c17.333 -25.333 42.666 -38 75.999 -38c29.333 0 55.166 10.333 77.499 31
s35.833 51 40.5 91z" />
    <glyph glyph-name="ij" unicode="&#x133;" horiz-adv-x="576" 
d="M172 560c-26.667 0 -48.332 9.33301 -64.999 28s-23.334 41.334 -20.001 68.001s15.5 49.334 36.5 68.001s44.833 28 71.5 28s48.167 -9.33301 64.5 -28s22.833 -41.334 19.5 -68.001c-2.66699 -26.667 -14.5 -49.334 -35.5 -68.001s-44.833 -28 -71.5 -28zM460.002 560
c-26.667 0 -48.332 9.33301 -64.999 28s-23.334 41.334 -20.001 68.001s15.5 49.334 36.5 68.001s44.833 28 71.5 28s48.167 -9.33301 64.5 -28s22.833 -41.334 19.5 -68.001c-2.66699 -26.667 -14.5 -49.334 -35.5 -68.001s-44.833 -28 -71.5 -28zM244.004 496l-49 -400
c-6 -48 -4.66699 -80 4 -96h-160c-8.66699 16 -10 48 -4 96l49 400h160zM311.004 0l60.999 495.998h160l-59 -480c-6.66699 -56.667 -18.667 -104.5 -36 -143.5s-38.833 -68.667 -64.5 -89s-52.5 -34.666 -80.5 -42.999s-59.667 -12.5 -95 -12.5l-14 144
c32.667 0.666992 60.834 11.334 84.501 32.001s38.167 52.667 43.5 96z" />
    <glyph glyph-name="Kcommaaccent" unicode="&#x136;" horiz-adv-x="656" 
d="M370 352l229 -352h-192l-189 288l-35 -288h-160l82 672h160l-31 -256l239 256h192zM157 -208l50 144h128l-98 -144h-80z" />
    <glyph glyph-name="kcommaaccent" unicode="&#x137;" horiz-adv-x="592" 
d="M358 256l193 -256h-192l-152 196l-24 -196h-160l86 704h160l-48 -396l183 188h192zM133 -208l50 144h128l-98 -144h-80z" />
    <glyph glyph-name="Lacute" unicode="&#x139;" horiz-adv-x="512" 
d="M113 736l98 144h160l-162 -144h-96zM200 144h256l-17 -144h-416l82 672h160z" />
    <glyph glyph-name="lacute" unicode="&#x13a;" horiz-adv-x="288" 
d="M117 768l98 144h160l-162 -144h-96zM269 704l-74 -608c-6 -48 -4.66699 -80 4 -96h-160c-8.66699 16 -10 48 -4 96l74 608h160z" />
    <glyph glyph-name="Lcommaaccent" unicode="&#x13b;" horiz-adv-x="512" 
d="M200 144h256l-17 -144h-416l82 672h160zM101 -208l50 144h128l-98 -144h-80z" />
    <glyph glyph-name="lcommaaccent" unicode="&#x13c;" horiz-adv-x="288" 
d="M269 704l-74 -608c-6 -48 -4.66699 -80 4 -96h-160c-8.66699 16 -10 48 -4 96l74 608h160zM-19 -208l50 144h128l-98 -144h-80z" />
    <glyph glyph-name="Lcaron" unicode="&#x13d;" horiz-adv-x="528" 
d="M200 144h256l-17 -144h-416l82 672h160zM360 528l49 144h128l-97 -144h-80z" />
    <glyph glyph-name="lcaron" unicode="&#x13e;" horiz-adv-x="432" 
d="M269 704l-74 -608c-6 -48 -4.66699 -80 4 -96h-160c-8.66699 16 -10 48 -4 96l74 608h160zM280 528l49 144h128l-97 -144h-80z" />
    <glyph glyph-name="Ldot" unicode="&#x13f;" horiz-adv-x="528" 
d="M200 144h256l-17 -144h-416l82 672h160zM402 288c-24.667 0 -44.5 8.5 -59.5 25.5s-20.833 37.833 -17.5 62.5c2.66699 24.667 13.667 45.5 33 62.5s41.333 25.5 66 25.5s44.5 -8.5 59.5 -25.5s20.833 -37.833 17.5 -62.5c-2.66699 -24.667 -13.667 -45.5 -33 -62.5
s-41.333 -25.5 -66 -25.5z" />
    <glyph glyph-name="ldot" unicode="&#x140;" horiz-adv-x="464" 
d="M269 704l-74 -608c-6 -48 -4.66699 -80 4 -96h-160c-8.66699 16 -10 48 -4 96l74 608h160zM354 288c-24.667 0 -44.5 8.5 -59.5 25.5s-20.833 37.833 -17.5 62.5c2.66699 24.667 13.667 45.5 33 62.5s41.333 25.5 66 25.5s44.5 -8.5 59.5 -25.5
s20.833 -37.833 17.5 -62.5c-2.66699 -24.667 -13.667 -45.5 -33 -62.5s-41.333 -25.5 -66 -25.5z" />
    <glyph glyph-name="Lslash" unicode="&#x141;" horiz-adv-x="528" 
d="M216 144h256l-17 -144h-416l35 290l-66 -18l10 80l66 18l37 302h160l-31 -258l66 18l-10 -80l-66 -18z" />
    <glyph glyph-name="lslash" unicode="&#x142;" horiz-adv-x="320" 
d="M306 351l-66 -18l-29 -237c-6 -48 -4.66699 -80 4 -96h-160c-8.66699 16 -10 48 -4 96l23 194l-66 -18l10 80l66 18l41 334h160l-36 -291l67 18z" />
    <glyph glyph-name="Nacute" unicode="&#x143;" horiz-adv-x="752" 
d="M345 736l98 144h160l-162 -144h-96zM569 672h160l-82 -672h-160l-253 416l-51 -416h-160l82 672h160l253 -416z" />
    <glyph glyph-name="nacute" unicode="&#x144;" 
d="M244 560l97 144h160l-161 -144h-96zM531 96c-6 -48 -4.66602 -79.999 4.00098 -95.999h-160c-8.66699 16 -10 48 -4 96l21 176c8 64 -14.667 96 -68 96c-9.33301 0 -19.333 -1.66699 -30 -5s-21.667 -8.83301 -33 -16.5s-21.333 -19.334 -30 -35.001
s-14.334 -34.167 -17.001 -55.5l-31 -256h-160l61 496h160l-6 -48c41.333 42.667 92 64 152 64c54 0 97.167 -19.5 129.5 -58.5s43.833 -94.167 34.5 -165.5z" />
    <glyph glyph-name="Ncommaaccent" unicode="&#x145;" horiz-adv-x="752" 
d="M569 672h160l-82 -672h-160l-253 416l-51 -416h-160l82 672h160l253 -416zM213 -208l50 144h128l-98 -144h-80z" />
    <glyph glyph-name="ncommaaccent" unicode="&#x146;" 
d="M531 96c-6 -48 -4.66602 -79.999 4.00098 -95.999h-160c-8.66699 16 -10 48 -4 96l21 176c8 64 -14.667 96 -68 96c-9.33301 0 -19.333 -1.66699 -30 -5s-21.667 -8.83301 -33 -16.5s-21.333 -19.334 -30 -35.001s-14.334 -34.167 -17.001 -55.5l-31 -256h-160l61 496
h160l-6 -48c41.333 42.667 92 64 152 64c54 0 97.167 -19.5 129.5 -58.5s43.833 -94.167 34.5 -165.5zM149.001 -207.999l50 144h128l-98 -144h-80z" />
    <glyph glyph-name="Ncaron" unicode="&#x147;" horiz-adv-x="752" 
d="M491 880h128l-162 -144h-64l-126 144h128l40 -64zM569 672h160l-82 -672h-160l-253 416l-51 -416h-160l82 672h160l253 -416z" />
    <glyph glyph-name="ncaron" unicode="&#x148;" 
d="M381 704h128l-161 -144h-64l-127 144h128l40 -64zM531 96c-6 -48 -4.66602 -79.999 4.00098 -95.999h-160c-8.66699 16 -10 48 -4 96l21 176c8 64 -14.667 96 -68 96c-9.33301 0 -19.333 -1.66699 -30 -5s-21.667 -8.83301 -33 -16.5s-21.333 -19.334 -30 -35.001
s-14.334 -34.167 -17.001 -55.5l-31 -256h-160l61 496h160l-6 -48c41.333 42.667 92 64 152 64c54 0 97.167 -19.5 129.5 -58.5s43.833 -94.167 34.5 -165.5z" />
    <glyph glyph-name="Eng" unicode="&#x14a;" horiz-adv-x="752" 
d="M569 672l159.999 -0.00195312l-80 -656c-6.66699 -56.667 -18.667 -104.5 -36 -143.5s-38.833 -68.667 -64.5 -89s-52.5 -34.666 -80.5 -42.999s-59.667 -12.5 -95 -12.5l-14 144c32.667 0.666992 60.834 11.334 84.501 32.001s38.167 52.667 43.5 96l-253 416l-51 -416
h-160l82 672h160l253 -416z" />
    <glyph glyph-name="eng" unicode="&#x14b;" 
d="M390 512c54 0 97.167 -19.501 129.5 -58.501s43.833 -94.167 34.5 -165.5l-33 -272c-6.66699 -56.667 -18.667 -104.5 -36 -143.5s-38.833 -68.667 -64.5 -89s-52.5 -34.666 -80.5 -42.999s-59.667 -12.5 -95 -12.5l-14 144c32.667 0.666992 60.834 11.334 84.501 32.001
s38.167 52.667 43.5 96l33 272c8 64 -14.667 96 -68 96c-9.33301 0 -19.333 -1.66699 -30 -5s-21.667 -8.83301 -33 -16.5s-21.333 -19.334 -30 -35.001s-14.334 -34.167 -17.001 -55.5l-31 -256h-160l61 496h160l-6 -48c41.333 42.667 92 64 152 64z" />
    <glyph glyph-name="Omacron" unicode="&#x14c;" horiz-adv-x="784" 
d="M595 752h-304l10 80h304zM435 688c99.333 0 180 -34.333 242 -103s87 -151.667 75 -249s-57.333 -180.333 -136 -249s-167.667 -103 -267 -103s-180 34.333 -242 103s-87 151.667 -75 249s57.333 180.333 136 249s167.667 103 267 103zM366 128
c55.333 0 105.166 20.333 149.499 61s69.833 89.667 76.5 147s-6.83301 106.333 -40.5 147s-78.167 61 -133.5 61s-105.166 -20.333 -149.499 -61s-69.833 -89.667 -76.5 -147s6.83301 -106.333 40.5 -147s78.167 -61 133.5 -61z" />
    <glyph glyph-name="omacron" unicode="&#x14d;" 
d="M485 576h-304l10 80h304zM326 512c78.667 0 140.502 -25.4971 185.502 -76.4971s62.833 -113.5 53.5 -187.5c-9.33301 -74.667 -42.5 -137.334 -99.5 -188.001s-125.167 -76 -204.5 -76c-82.667 0 -145.667 25.167 -189 75.5s-60.333 113.166 -51 188.499
s41.666 138.166 96.999 188.499s124.666 75.5 207.999 75.5zM278.002 128.003c30.667 0 58.5 11.667 83.5 35s39.5 51.666 43.5 84.999s-3.5 61.666 -22.5 84.999s-43.833 35 -74.5 35s-58.5 -11.667 -83.5 -35s-39.5 -51.666 -43.5 -84.999s3.5 -61.666 22.5 -84.999
s43.833 -35 74.5 -35z" />
    <glyph glyph-name="Ohungarumlaut" unicode="&#x150;" horiz-adv-x="784" 
d="M281 736l50 144h128l-98 -144h-80zM505 736l50 144h128l-98 -144h-80zM435 688c99.333 0 180 -34.333 242 -103s87 -151.667 75 -249s-57.333 -180.333 -136 -249s-167.667 -103 -267 -103s-180 34.333 -242 103s-87 151.667 -75 249s57.333 180.333 136 249
s167.667 103 267 103zM366 128c55.333 0 105.166 20.333 149.499 61s69.833 89.667 76.5 147s-6.83301 106.333 -40.5 147s-78.167 61 -133.5 61s-105.166 -20.333 -149.499 -61s-69.833 -89.667 -76.5 -147s6.83301 -106.333 40.5 -147s78.167 -61 133.5 -61z" />
    <glyph glyph-name="ohungarumlaut" unicode="&#x151;" 
d="M172 560l49 144h128l-97 -144h-80zM396 560l49 144h128l-97 -144h-80zM326 512c78.667 0 140.502 -25.4971 185.502 -76.4971s62.833 -113.5 53.5 -187.5c-9.33301 -74.667 -42.5 -137.334 -99.5 -188.001s-125.167 -76 -204.5 -76c-82.667 0 -145.667 25.167 -189 75.5
s-60.333 113.166 -51 188.499s41.666 138.166 96.999 188.499s124.666 75.5 207.999 75.5zM278.002 128.003c30.667 0 58.5 11.667 83.5 35s39.5 51.666 43.5 84.999s-3.5 61.666 -22.5 84.999s-43.833 35 -74.5 35s-58.5 -11.667 -83.5 -35s-39.5 -51.666 -43.5 -84.999
s3.5 -61.666 22.5 -84.999s43.833 -35 74.5 -35z" />
    <glyph glyph-name="OE" unicode="&#x152;" horiz-adv-x="1104" 
d="M1080 528h-272l-15 -120h224l-18 -144h-224l-15 -120h272l-17 -144h-432l8 67c-73.333 -55.333 -154 -83 -242 -83c-99.333 0 -180 34.333 -242 103s-87 151.667 -75 249s57.333 180.333 136 249s167.667 103 267 103c87.333 0 161.333 -27.667 222 -83l8 67h432z
M366 128c55.333 0 105.166 20.333 149.499 61s69.833 89.667 76.5 147s-6.83301 106.333 -40.5 147s-78.167 61 -133.5 61s-105.166 -20.333 -149.499 -61s-69.833 -89.667 -76.5 -147s6.83301 -106.333 40.5 -147s78.167 -61 133.5 -61z" />
    <glyph glyph-name="oe" unicode="&#x153;" horiz-adv-x="960" 
d="M917 248c-0.666992 -10.667 -3 -24 -7 -40h-342c4 -24.667 15.667 -44.167 35 -58.5s45.333 -21.5 78 -21.5c48 0 97.667 10 149 30l29 -127c-6 -3.33301 -14.333 -7.66602 -25 -12.999s-33.167 -12.333 -67.5 -21s-69.833 -13 -106.5 -13
c-89.333 0 -156.666 23.333 -201.999 70c-55.333 -46.667 -121 -70 -197 -70c-82.667 0 -145.667 25.167 -189 75.5s-60.333 113.166 -51 188.499s41.666 138.166 96.999 188.499s124.666 75.5 207.999 75.5c72 0 131.333 -22.667 178 -68c52 45.333 118 68 198 68
c78.667 0 136.834 -23.167 174.501 -69.5s51.167 -111.166 40.5 -194.499zM580 304h176c2 20 -3.5 38.333 -16.5 55s-33.5 25 -61.5 25c-24 0 -45.833 -8.66699 -65.5 -26s-30.5 -35.333 -32.5 -54zM278 128c30.667 0 58.5 11.667 83.5 35s39.5 51.666 43.5 84.999
s-3.5 61.666 -22.5 84.999s-43.833 35 -74.5 35s-58.5 -11.667 -83.5 -35s-39.5 -51.666 -43.5 -84.999s3.5 -61.666 22.5 -84.999s43.833 -35 74.5 -35z" />
    <glyph glyph-name="Racute" unicode="&#x154;" horiz-adv-x="656" 
d="M257 736l98 144h160l-162 -144h-96zM583 0l-184 -0.000976562l-124 216h-66l-26 -216h-160l82 672h272c84.667 0 146.167 -20.333 184.5 -61s53.166 -95 44.499 -163c-6 -48.667 -23.667 -92.667 -53 -132s-66.666 -67.666 -111.999 -84.999zM248 527.999l-21.001 -168
h111c27.333 0 51.333 7.66699 72 23s32.334 35.666 35.001 60.999c4 28.667 -2.16699 49.834 -18.5 63.501s-38.833 20.5 -67.5 20.5h-111z" />
    <glyph glyph-name="racute" unicode="&#x155;" horiz-adv-x="448" 
d="M148 560l97 144h160l-161 -144h-96zM231 391c40.667 74 109.668 114.333 207.001 121l-22 -176c-26.667 10 -58.667 10 -96 0c-26 -6.66699 -50.333 -23 -73 -49s-36.334 -57.333 -41.001 -94l-23 -193h-160l61 496h160z" />
    <glyph glyph-name="Rcommaaccent" unicode="&#x156;" horiz-adv-x="656" 
d="M583 0l-184 -0.000976562l-124 216h-66l-26 -216h-160l82 672h272c84.667 0 146.167 -20.333 184.5 -61s53.166 -95 44.499 -163c-6 -48.667 -23.667 -92.667 -53 -132s-66.666 -67.666 -111.999 -84.999zM248 527.999l-21.001 -168h111c27.333 0 51.333 7.66699 72 23
s32.334 35.666 35.001 60.999c4 28.667 -2.16699 49.834 -18.5 63.501s-38.833 20.5 -67.5 20.5h-111zM148.999 -208.001l50 144h128l-98 -144h-80z" />
    <glyph glyph-name="rcommaaccent" unicode="&#x157;" horiz-adv-x="448" 
d="M231 391c40.667 74 109.668 114.333 207.001 121l-22 -176c-26.667 10 -58.667 10 -96 0c-26 -6.66699 -50.333 -23 -73 -49s-36.334 -57.333 -41.001 -94l-23 -193h-160l61 496h160zM-18.999 -208l50 144h128l-98 -144h-80z" />
    <glyph glyph-name="Rcaron" unicode="&#x158;" horiz-adv-x="656" 
d="M403 880h128l-162 -144h-64l-126 144h128l40 -64zM583 0l-184 -0.000976562l-124 216h-66l-26 -216h-160l82 672h272c84.667 0 146.167 -20.333 184.5 -61s53.166 -95 44.499 -163c-6 -48.667 -23.667 -92.667 -53 -132s-66.666 -67.666 -111.999 -84.999zM248 527.999
l-21.001 -168h111c27.333 0 51.333 7.66699 72 23s32.334 35.666 35.001 60.999c4 28.667 -2.16699 49.834 -18.5 63.501s-38.833 20.5 -67.5 20.5h-111z" />
    <glyph glyph-name="rcaron" unicode="&#x159;" horiz-adv-x="448" 
d="M317 704h128l-161 -144h-64l-127 144h128l40 -64zM231 391c40.667 74 109.668 114.333 207.001 121l-22 -176c-26.667 10 -58.667 10 -96 0c-26 -6.66699 -50.333 -23 -73 -49s-36.334 -57.333 -41.001 -94l-23 -193h-160l61 496h160z" />
    <glyph glyph-name="Sacute" unicode="&#x15a;" horiz-adv-x="624" 
d="M289 736l98 144h160l-162 -144h-96zM331 423c43.333 -9.33301 78.9951 -19 106.995 -29s54.167 -23.167 78.5 -39.5s41.333 -37.166 51 -62.499s12.5 -55.333 8.5 -90c-8 -64 -39.167 -116.333 -93.5 -157s-125.5 -61 -213.5 -61c-32 0 -63 3.83301 -93 11.5
s-55 17 -75 28s-37.833 22 -53.5 33s-26.834 20.167 -33.501 27.5l-11 12l88 128c56.667 -64 121.667 -96 195 -96c80.667 0 123.334 21.333 128.001 64c2 16.667 -4.33301 30.167 -19 40.5s-42.667 19.166 -84 26.499c-89.333 15.333 -153.166 40 -191.499 74
s-54.166 79.667 -47.499 137c8 61.333 38.667 113 92 155s120.333 63 201 63c16 0 34.167 -1.16699 54.5 -3.5s49.5 -10.5 87.5 -24.5s68.667 -33.333 92 -58l-86 -126c-1.33301 2 -3.5 4.5 -6.5 7.5s-9.5 8.33301 -19.5 16s-21 14.5 -33 20.5s-27.667 11.5 -47 16.5
s-39.666 7.5 -60.999 7.5c-29.333 0 -54.666 -5 -75.999 -15s-33 -24 -35 -42c-2 -16 3.83301 -28.5 17.5 -37.5s39.834 -17.833 78.501 -26.5z" />
    <glyph glyph-name="sacute" unicode="&#x15b;" horiz-adv-x="544" 
d="M228 560l97 144h160l-161 -144h-96zM289 325c78 -8.66699 132.501 -25.9971 163.501 -51.9971s43.5 -63.667 37.5 -113c-6 -53.333 -32.167 -96 -78.5 -128s-111.833 -48 -196.5 -48c-42 0 -81.333 5.16699 -118 15.5s-62.667 20.5 -78 30.5l-23 16l59 130
c16 -12.667 36.833 -23.5 62.5 -32.5s47.167 -14.833 64.5 -17.5l27 -4c77.333 -7.33301 117.333 0.333984 120 23.001c0.666992 6 -0.333008 10.667 -3 14s-9 6.33301 -19 9s-19.667 4.66699 -29 6s-26 3.33301 -50 6c-40.667 5.33301 -74.334 14.166 -101.001 26.499
s-45.334 27 -56.001 44s-17.5 32.833 -20.5 47.5s-3.5 30 -1.5 46c6.66699 51.333 31.167 92.166 73.5 122.499s103.166 45.5 182.499 45.5c76.667 0 138.334 -13.667 185.001 -41l-53 -129c-47.333 24.667 -96 37 -146 37c-52 0 -78.667 -7 -80 -21
c-1.33301 -10.667 6.33398 -18.334 23.001 -23.001c8 -2.66699 22.333 -5.33398 43 -8.00098z" />
    <glyph glyph-name="Scedilla" unicode="&#x15e;" horiz-adv-x="624" 
d="M576 202c-7.33301 -58 -33.6719 -106.669 -79.0049 -146.002s-105.666 -62.666 -180.999 -69.999l-38 -34c35.333 4 64.833 -4.5 88.5 -25.5s33.167 -49.833 28.5 -86.5c-5.33301 -41.333 -24.833 -75.666 -58.5 -102.999s-73.5 -41 -119.5 -41
c-60.667 0 -100.667 21 -120 63l66 65c3.33301 -13.333 10.666 -24.666 21.999 -33.999s25.333 -14 42 -14c26 0 47 6.33301 63 19s25 27.667 27 45c2.66699 17.333 -2 31 -14 41s-27.333 15 -46 15c-24.667 0 -43.667 -4.66699 -57 -14l-33 54l57 51
c-42.667 4.66699 -82.334 16.167 -119.001 34.5s-63 35.166 -79 50.499l-23 24l88 128c56.667 -64 121.667 -96 195 -96c80.667 0 123.334 21.333 128.001 64c2 16.667 -4.33301 30.167 -19 40.5s-42.667 19.166 -84 26.499c-89.333 15.333 -153.166 40 -191.499 74
s-54.166 79.667 -47.499 137c8 61.333 38.667 113 92 155s120.333 63 201 63c16 0 34.167 -1.16699 54.5 -3.5s49.5 -10.5 87.5 -24.5s68.667 -33.333 92 -58l-86 -126c-1.33301 2 -3.5 4.5 -6.5 7.5s-9.5 8.33301 -19.5 16s-21 14.5 -33 20.5s-27.667 11.5 -47 16.5
s-39.666 7.5 -60.999 7.5c-29.333 0 -54.666 -5 -75.999 -15s-33 -24 -35 -42c-2 -16 3.83301 -28.5 17.5 -37.5s39.834 -17.833 78.501 -26.5c43.333 -9.33301 79 -19 107 -29s54.167 -23.167 78.5 -39.5s41.333 -37.166 51 -62.499s12.5 -55.333 8.5 -90z" />
    <glyph glyph-name="scedilla" unicode="&#x15f;" horiz-adv-x="544" 
d="M490 160c-5.33301 -44.667 -25.165 -82.332 -59.498 -112.999s-82.833 -50 -145.5 -58l-39 -37c35.333 4 64.833 -4.5 88.5 -25.5s33.167 -49.833 28.5 -86.5c-5.33301 -41.333 -24.833 -75.666 -58.5 -102.999s-73.5 -41 -119.5 -41c-60.667 0 -100.667 21 -120 63
l66 65c3.33301 -13.333 10.666 -24.666 21.999 -33.999s25.333 -14 42 -14c26 0 47 6.33301 63 19s25 27.667 27 45c2.66699 17.333 -2 31 -14 41s-27.333 15 -46 15c-24.667 0 -43.667 -4.66699 -57 -14l-33 54l54 49c-37.333 2 -72 8.16699 -104 18.5s-55 19.833 -69 28.5
l-20 14l59 130c16 -12.667 36.833 -23.5 62.5 -32.5s47.167 -14.833 64.5 -17.5l27 -4c77.333 -7.33301 117.333 0.333984 120 23.001c0.666992 6 -0.333008 10.667 -3 14s-9 6.33301 -19 9s-19.667 4.66699 -29 6s-26 3.33301 -50 6
c-40.667 5.33301 -74.334 14.166 -101.001 26.499s-45.334 27 -56.001 44s-17.5 32.833 -20.5 47.5s-3.5 30 -1.5 46c6.66699 51.333 31.167 92.166 73.5 122.499s103.166 45.5 182.499 45.5c76.667 0 138.334 -13.667 185.001 -41l-53 -129c-47.333 24.667 -96 37 -146 37
c-52 0 -78.667 -7 -80 -21c-1.33301 -10.667 6.33398 -18.334 23.001 -23.001c8 -2.66699 22.333 -5.33398 43 -8.00098l12 -2c78 -8.66699 132.5 -26 163.5 -52s43.5 -63.667 37.5 -113z" />
    <glyph glyph-name="Scaron" unicode="&#x160;" horiz-adv-x="624" 
d="M427 880h128l-162 -144h-64l-126 144h128l40 -64zM331 423c43.333 -9.33301 78.9951 -19 106.995 -29s54.167 -23.167 78.5 -39.5s41.333 -37.166 51 -62.499s12.5 -55.333 8.5 -90c-8 -64 -39.167 -116.333 -93.5 -157s-125.5 -61 -213.5 -61
c-32 0 -63 3.83301 -93 11.5s-55 17 -75 28s-37.833 22 -53.5 33s-26.834 20.167 -33.501 27.5l-11 12l88 128c56.667 -64 121.667 -96 195 -96c80.667 0 123.334 21.333 128.001 64c2 16.667 -4.33301 30.167 -19 40.5s-42.667 19.166 -84 26.499
c-89.333 15.333 -153.166 40 -191.499 74s-54.166 79.667 -47.499 137c8 61.333 38.667 113 92 155s120.333 63 201 63c16 0 34.167 -1.16699 54.5 -3.5s49.5 -10.5 87.5 -24.5s68.667 -33.333 92 -58l-86 -126c-1.33301 2 -3.5 4.5 -6.5 7.5s-9.5 8.33301 -19.5 16
s-21 14.5 -33 20.5s-27.667 11.5 -47 16.5s-39.666 7.5 -60.999 7.5c-29.333 0 -54.666 -5 -75.999 -15s-33 -24 -35 -42c-2 -16 3.83301 -28.5 17.5 -37.5s39.834 -17.833 78.501 -26.5z" />
    <glyph glyph-name="scaron" unicode="&#x161;" horiz-adv-x="544" 
d="M365 704h128l-161 -144h-64l-127 144h128l40 -64zM289 325c78 -8.66699 132.501 -25.9971 163.501 -51.9971s43.5 -63.667 37.5 -113c-6 -53.333 -32.167 -96 -78.5 -128s-111.833 -48 -196.5 -48c-42 0 -81.333 5.16699 -118 15.5s-62.667 20.5 -78 30.5l-23 16l59 130
c16 -12.667 36.833 -23.5 62.5 -32.5s47.167 -14.833 64.5 -17.5l27 -4c77.333 -7.33301 117.333 0.333984 120 23.001c0.666992 6 -0.333008 10.667 -3 14s-9 6.33301 -19 9s-19.667 4.66699 -29 6s-26 3.33301 -50 6c-40.667 5.33301 -74.334 14.166 -101.001 26.499
s-45.334 27 -56.001 44s-17.5 32.833 -20.5 47.5s-3.5 30 -1.5 46c6.66699 51.333 31.167 92.166 73.5 122.499s103.166 45.5 182.499 45.5c76.667 0 138.334 -13.667 185.001 -41l-53 -129c-47.333 24.667 -96 37 -146 37c-52 0 -78.667 -7 -80 -21
c-1.33301 -10.667 6.33398 -18.334 23.001 -23.001c8 -2.66699 22.333 -5.33398 43 -8.00098z" />
    <glyph glyph-name="uni0162" unicode="&#x162;" horiz-adv-x="576" 
d="M327 0l-26.999 -0.00195312l-54 -48c35.333 4 64.833 -4.5 88.5 -25.5s33.167 -49.833 28.5 -86.5c-5.33301 -41.333 -24.833 -75.666 -58.5 -102.999s-73.5 -41 -119.5 -41c-60.667 0 -100.667 21 -120 63l66 65c3.33301 -13.333 10.666 -24.666 21.999 -33.999
s25.333 -14 42 -14c26 0 47 6.33301 63 19s25 27.667 27 45c2.66699 17.333 -2 31 -14 41s-27.333 15 -46 15c-24.667 0 -43.667 -4.66699 -57 -14l-33 54l72 64h-40l65 528h-176l17 144h512l-17 -144h-176z" />
    <glyph glyph-name="uni0163" unicode="&#x163;" horiz-adv-x="400" 
d="M354 352l-95.998 -0.000976562l-18 -144c-4.66699 -39.333 -2 -64.333 8 -75s36 -12.334 78 -5.00098l-15 -128c-29.333 -10 -63 -15.333 -101 -16l-36 -32c35.333 4 64.833 -4.5 88.5 -25.5s33.167 -49.833 28.5 -86.5c-5.33301 -41.333 -24.833 -75.666 -58.5 -102.999
s-73.5 -41 -119.5 -41c-60.667 0 -100.667 21 -120 63l66 65c3.33301 -13.333 10.666 -24.666 21.999 -33.999s25.333 -14 42 -14c26 0 47 6.33301 63 19s25 27.667 27 45c2.66699 17.333 -2 31 -14 41s-27.333 15 -46 15c-24.667 0 -43.667 -4.66699 -57 -14l-33 54l68 61
c-48.667 23.333 -68.334 71.333 -59.001 144l26 211h-64l18 144h64l21 176h160l-21 -176h96z" />
    <glyph glyph-name="Tcaron" unicode="&#x164;" horiz-adv-x="576" 
d="M403 880h128l-162 -144h-64l-126 144h128l40 -64zM73 672h512l-17 -144h-176l-65 -528h-160l65 528h-176z" />
    <glyph glyph-name="tcaron" unicode="&#x165;" horiz-adv-x="576" 
d="M72 141l26 211.001h-64l18 144h64l21 176h160l-21 -176h96l-18 -144h-96l-18 -144c-4.66699 -39.333 -2 -64.333 8 -75s36 -12.334 78 -5.00098l-15 -128c-32.667 -10.667 -70.667 -16 -114 -16c-48.667 0 -83 14.833 -103 44.5s-27.333 67.167 -22 112.5zM408 528.001
l49 144h128l-97 -144h-80z" />
    <glyph glyph-name="Tbar" unicode="&#x166;" horiz-adv-x="576" 
d="M568 528h-176l-22 -176h64l-10 -80h-64l-33 -272h-160l33 272h-64l10 80h64l22 176h-176l17 144h512z" />
    <glyph glyph-name="tbar" unicode="&#x167;" horiz-adv-x="400" 
d="M354 352l-96 0.000976562l-5 -40h96l-10 -80h-96l-3 -24c-4.66699 -39.333 -2 -64.333 8 -75s36 -12.334 78 -5.00098l-15 -128c-32.667 -10.667 -70.667 -16 -114 -16c-48.667 0 -83 14.833 -103 44.5s-27.333 67.167 -22 112.5l11 91h-64l10 80h64l5 40h-64l18 144h64
l21 176h160l-21 -176h96z" />
    <glyph glyph-name="Umacron" unicode="&#x16a;" horiz-adv-x="672" 
d="M539 752h-304l10 80h304zM505 672l160 0.000976562l-47 -384c-11.333 -90.667 -46 -164 -104 -220s-131.667 -84 -221 -84c-90.667 0 -158 28 -202 84s-60.333 129.333 -49 220l47 384h160l-49 -400c-5.33301 -44.667 1.66699 -79.834 21 -105.501s49 -38.5 89 -38.5
c38 0 70.5 13 97.5 39s43.167 61 48.5 105z" />
    <glyph glyph-name="umacron" unicode="&#x16b;" 
d="M485 576h-304l10 80h304zM519 0l-160.001 -0.000976562c-6.66699 11.333 -9.33398 27 -8.00098 47c-40.667 -42 -92 -63 -154 -63c-54 0 -97.167 19.5 -129.5 58.5s-44.166 94.167 -35.499 165.5l36 288h160l-34 -272c-8 -64 14.667 -96 68 -96
c9.33301 0 19.333 1.66699 30 5s21.667 8.83301 33 16.5s21.333 19.334 30 35.001s14.334 34.167 17.001 55.5l32 256h160l-49 -400c-6 -48 -4.66699 -80 4 -96z" />
    <glyph glyph-name="Uring" unicode="&#x16e;" horiz-adv-x="672" 
d="M411 944c33.333 0 60.166 -11.667 80.499 -35s28.5 -51.666 24.5 -84.999s-19.167 -61.666 -45.5 -84.999s-56.166 -35 -89.499 -35s-60.166 11.667 -80.499 35s-28.5 51.666 -24.5 84.999s19.167 61.666 45.5 84.999s56.166 35 89.499 35zM390 774
c13.333 0 25.666 5 36.999 15s17.666 21.667 18.999 35s-2.33398 25 -11.001 35s-19.667 15 -33 15s-25.666 -5 -36.999 -15s-17.666 -21.667 -18.999 -35s2.33398 -25 11.001 -35s19.667 -15 33 -15zM505 672l160 0.000976562l-47 -384c-11.333 -90.667 -46 -164 -104 -220
s-131.667 -84 -221 -84c-90.667 0 -158 28 -202 84s-60.333 129.333 -49 220l47 384h160l-49 -400c-5.33301 -44.667 1.66699 -79.834 21 -105.501s49 -38.5 89 -38.5c38 0 70.5 13 97.5 39s43.167 61 48.5 105z" />
    <glyph glyph-name="uring" unicode="&#x16f;" 
d="M357 768c33.333 0 60.333 -11.667 81 -35s28.667 -51.666 24 -84.999c-4 -33.333 -19 -61.666 -45 -84.999s-55.667 -35 -89 -35s-60.333 11.667 -81 35s-29 51.666 -25 84.999c4.66699 33.333 20 61.666 46 84.999s55.667 35 89 35zM336 598c13.333 0 25.667 5 37 15
s17.666 21.667 18.999 35c2 13.333 -1.5 25 -10.5 35s-20.167 15 -33.5 15s-25.5 -5 -36.5 -15s-17.5 -21.667 -19.5 -35c-1.33301 -13.333 2.33398 -25 11.001 -35s19.667 -15 33 -15zM519.001 0l-160.001 -0.000976562c-6.66699 11.333 -9.33398 27 -8.00098 47
c-40.667 -42 -92 -63 -154 -63c-54 0 -97.167 19.5 -129.5 58.5s-44.166 94.167 -35.499 165.5l36 288h160l-34 -272c-8 -64 14.667 -96 68 -96c9.33301 0 19.333 1.66699 30 5s21.667 8.83301 33 16.5s21.333 19.334 30 35.001s14.334 34.167 17.001 55.5l32 256h160
l-49 -400c-6 -48 -4.66699 -80 4 -96z" />
    <glyph glyph-name="Uhungarumlaut" unicode="&#x170;" horiz-adv-x="672" 
d="M221 736l50 144h128l-98 -144h-80zM445 736l50 144h128l-98 -144h-80zM505 672l160 0.000976562l-47 -384c-11.333 -90.667 -46 -164 -104 -220s-131.667 -84 -221 -84c-90.667 0 -158 28 -202 84s-60.333 129.333 -49 220l47 384h160l-49 -400
c-5.33301 -44.667 1.66699 -79.834 21 -105.501s49 -38.5 89 -38.5c38 0 70.5 13 97.5 39s43.167 61 48.5 105z" />
    <glyph glyph-name="uhungarumlaut" unicode="&#x171;" 
d="M156 560l49 144h128l-97 -144h-80zM380 560l49 144h128l-97 -144h-80zM519 0l-160.001 -0.000976562c-6.66699 11.333 -9.33398 27 -8.00098 47c-40.667 -42 -92 -63 -154 -63c-54 0 -97.167 19.5 -129.5 58.5s-44.166 94.167 -35.499 165.5l36 288h160l-34 -272
c-8 -64 14.667 -96 68 -96c9.33301 0 19.333 1.66699 30 5s21.667 8.83301 33 16.5s21.333 19.334 30 35.001s14.334 34.167 17.001 55.5l32 256h160l-49 -400c-6 -48 -4.66699 -80 4 -96z" />
    <glyph glyph-name="Uogonek" unicode="&#x172;" horiz-adv-x="672" 
d="M505 672l159.999 0.00390625l-47 -384c-9.33301 -79.333 -37.666 -146 -84.999 -200s-107.666 -87 -180.999 -99c-38 -10 -59 -31 -63 -63c-4 -32.667 5.66699 -53.5 29 -62.5s47.666 -6.16699 72.999 8.5l8 -64c-21.333 -10.667 -43.333 -16 -66 -16
c-39.333 0 -69 11.5 -89 34.5s-28 52.833 -24 89.5c4 27.333 14 50.666 30 69.999c-76.667 9.33301 -133 41.166 -169 95.499s-49 123.166 -39 206.499l47 384h160l-49 -400c-5.33301 -44.667 1.66699 -79.834 21 -105.501s49 -38.5 89 -38.5c38 0 70.5 13 97.5 39
s43.167 61 48.5 105z" />
    <glyph glyph-name="uogonek" unicode="&#x173;" 
d="M369 -74c-4 -32.667 5.66699 -53.501 29 -62.501s47.666 -6.16699 72.999 8.5l8 -64c-21.333 -10.667 -43.333 -16 -66 -16c-39.333 0 -69 11.5 -89 34.5s-28 52.833 -24 89.5c5.33301 38.667 23.666 69.667 54.999 93c-2.66699 7.33301 -4 20 -4 38
c-40.667 -42 -92 -63 -154 -63c-54 0 -97.167 19.5 -129.5 58.5s-44.166 94.167 -35.499 165.5l36 288h160l-34 -272c-8 -64 14.667 -96 68 -96c9.33301 0 19.333 1.66699 30 5s21.667 8.83301 33 16.5s21.333 19.334 30 35.001s14.334 34.167 17.001 55.5l32 256h160
l-49 -400c-6 -48 -4.66699 -80 4 -96h-48c-22.667 0 -44.5 -5.83301 -65.5 -17.5s-33.167 -30.5 -36.5 -56.5z" />
    <glyph glyph-name="Wcircumflex" unicode="&#x174;" horiz-adv-x="1024" 
d="M609 736l-40 64l-56 -64h-128l162 144h64l126 -144h-128zM625 672l69 -418l187 418h176l-326 -672h-144l-71 370l-161 -370h-144l-162 672h176l85 -418l171 418h144z" />
    <glyph glyph-name="wcircumflex" unicode="&#x175;" horiz-adv-x="784" 
d="M468 560l-41 64l-55 -64h-128l161 144h64l127 -144h-128zM628 496h168l-229 -496h-128l-56 266l-120 -266h-128l-107 496h168l37 -282l115 282h128l45 -282z" />
    <glyph glyph-name="Ycircumflex" unicode="&#x176;" horiz-adv-x="672" 
d="M433 736l-40 64l-56 -64h-128l162 144h64l126 -144h-128zM525 672h188l-305 -400l-33 -272h-160l33 272l-207 400h188l117 -256z" />
    <glyph glyph-name="ycircumflex" unicode="&#x177;" horiz-adv-x="544" 
d="M348 560l-41 64l-55 -64h-128l161 144h64l127 -144h-128zM388 496h176l-397 -752h-176l165 292l-136 460h176l62 -272z" />
    <glyph glyph-name="Ydieresis" unicode="&#x178;" horiz-adv-x="672" 
d="M281 736c-20 0 -36.167 7 -48.5 21s-17.166 31 -14.499 51s11.834 37 27.501 51s33.5 21 53.5 21s36.167 -7 48.5 -21s17.166 -31 14.499 -51s-11.834 -37 -27.501 -51s-33.5 -21 -53.5 -21zM489 736c-20 0 -36.167 7 -48.5 21s-17.166 31 -14.499 51
s11.834 37 27.501 51s33.5 21 53.5 21s36.167 -7 48.5 -21s17.166 -31 14.499 -51s-11.834 -37 -27.501 -51s-33.5 -21 -53.5 -21zM525 672h188l-305 -400l-33 -272h-160l33 272l-207 400h188l117 -256z" />
    <glyph glyph-name="Zacute" unicode="&#x179;" horiz-adv-x="624" 
d="M281 736l98 144h160l-162 -144h-96zM535 0h-544l365 528h-284l17 144h544l-365 -528h284z" />
    <glyph glyph-name="zacute" unicode="&#x17a;" horiz-adv-x="528" 
d="M220 560l97 144h160l-161 -144h-96zM439 0h-448l251 352h-192l18 144h448l-252 -352h192z" />
    <glyph glyph-name="Zdotaccent" unicode="&#x17b;" horiz-adv-x="624" 
d="M359 720c-24 0 -43.498 8.66699 -58.498 26s-21.167 38 -18.5 62c3.33301 24 14.666 44.667 33.999 62s41 26 65 26s43.5 -8.66699 58.5 -26s21.167 -38 18.5 -62s-13.834 -44.667 -33.501 -62s-41.5 -26 -65.5 -26zM535.002 0h-544l365 528h-284l17 144h544l-365 -528
h284z" />
    <glyph glyph-name="zdotaccent" unicode="&#x17c;" horiz-adv-x="528" 
d="M290 544c-24 0 -43.667 8.66699 -59 26s-21.666 38 -18.999 62c3.33301 24 14.666 44.667 33.999 62s41 26 65 26s43.5 -8.66699 58.5 -26s21.167 -38 18.5 -62c-3.33301 -24 -14.5 -44.667 -33.5 -62s-40.5 -26 -64.5 -26zM439 0h-448l251 352h-192l18 144h448
l-252 -352h192z" />
    <glyph glyph-name="Zcaron" unicode="&#x17d;" horiz-adv-x="624" 
d="M427 880h128l-162 -144h-64l-126 144h128l40 -64zM535 0h-544l365 528h-284l17 144h544l-365 -528h284z" />
    <glyph glyph-name="zcaron" unicode="&#x17e;" horiz-adv-x="528" 
d="M357 704h128l-161 -144h-64l-127 144h128l40 -64zM439 0h-448l251 352h-192l18 144h448l-252 -352h192z" />
    <glyph glyph-name="Aringacute" unicode="&#x1fa;" horiz-adv-x="704" 
d="M351 976l97 144h160l-161 -144h-96zM427 944c33.333 0 60.166 -11.667 80.499 -35s28.5 -51.666 24.5 -84.999s-19.167 -61.666 -45.5 -84.999s-56.166 -35 -89.499 -35s-60.166 11.667 -80.499 35s-28.5 51.666 -24.5 84.999s19.167 61.666 45.5 84.999
s56.166 35 89.499 35zM406 774c13.333 0 25.666 5 36.999 15s17.666 21.667 18.999 35s-2.33398 25 -11.001 35s-19.667 15 -33 15s-25.666 -5 -36.999 -15s-17.666 -21.667 -18.999 -35s2.33398 -25 11.001 -35s19.667 -15 33 -15zM487 0l-29 112h-268l-55 -112h-176
l360 672h148l196 -672h-176zM263 256h158l-53 208z" />
    <glyph glyph-name="aringacute" unicode="&#x1fb;" horiz-adv-x="640" 
d="M329 800l98 144h160l-162 -144h-96zM397 768c33.333 0 60.333 -11.667 81 -35s28.667 -51.666 24 -84.999c-4 -33.333 -19 -61.666 -45 -84.999s-55.667 -35 -89 -35s-60.333 11.667 -81 35s-29 51.666 -25 84.999c4.66699 33.333 20 61.666 46 84.999s55.667 35 89 35z
M376 598c13.333 0 25.667 5 37 15s17.666 21.667 18.999 35c2 13.333 -1.5 25 -10.5 35s-20.167 15 -33.5 15s-25.5 -5 -36.5 -15s-17.5 -21.667 -19.5 -35c-1.33301 -13.333 2.33398 -25 11.001 -35s19.667 -15 33 -15zM551.001 0l-160 -0.000976562
c-4.66699 8.66699 -7.66699 22.334 -9 41.001c-45.333 -38 -96.333 -57 -153 -57c-66.667 0 -120.167 25.833 -160.5 77.5s-56.166 113.834 -47.499 186.501c9.33301 73.333 40.5 135.666 93.5 186.999s112.833 77 179.5 77c55.333 0 100.666 -19.333 135.999 -58l6 42h160
l-49 -400c-6 -48 -4.66699 -80 4 -96zM278.001 127.999c30.667 0 58.5 11.667 83.5 35s39.5 51.666 43.5 84.999s-3.5 61.666 -22.5 84.999s-43.833 35 -74.5 35s-58.5 -11.667 -83.5 -35s-39.5 -51.666 -43.5 -84.999s3.5 -61.666 22.5 -84.999s43.833 -35 74.5 -35z" />
    <glyph glyph-name="AEacute" unicode="&#x1fc;" horiz-adv-x="864" 
d="M425 736l98 144h160l-162 -144h-96zM840 528h-272l-15 -120h224l-18 -144h-224l-15 -120h272l-17 -144h-432l13 112h-158l-63 -112h-176l392 672h506zM281 256h93l26 208z" />
    <glyph glyph-name="aeacute" unicode="&#x1fd;" horiz-adv-x="896" 
d="M396 560l97 144h160l-161 -144h-96zM853 248c-0.666992 -10.667 -3.00098 -24.0049 -7.00098 -40.0049h-342c4 -24.667 15.667 -44.167 35 -58.5s45.333 -21.5 78 -21.5c48 0 97.667 10 149 30l29 -127c-6 -3.33301 -14.333 -7.66602 -25 -12.999
s-33.167 -12.333 -67.5 -21s-69.833 -13 -106.5 -13c-30.667 0 -68 5.33301 -112 16h-157l4 33c-39.333 -32.667 -89.333 -49 -150 -49c-56.667 0 -100.834 15.833 -132.501 47.5s-44.834 71.834 -39.501 120.501c9.33301 64.667 46 111.667 110 141
c62 28.667 143.667 32.334 245 11.001c4 30 -5 50.167 -27 60.5s-52.667 13.5 -92 9.5c-20.667 -2 -42.167 -6.16699 -64.5 -12.5s-39.166 -12.166 -50.499 -17.499l-18 -8l-34 112c8 4.66699 18.833 10.5 32.5 17.5s40.834 16.5 81.501 28.5s80 18 118 18
c75.333 0 130.333 -14.667 165 -44c44 29.333 98.333 44 163 44c78.667 0 136.834 -23.167 174.501 -69.5s51.167 -111.166 40.5 -194.499zM515.999 303.995h176c2 20 -3.5 38.333 -16.5 55s-33.5 25 -61.5 25c-24 0 -45.833 -8.66699 -65.5 -26s-30.5 -35.333 -32.5 -54z
M345.999 159.995l8 64h-44c-44 0 -77.667 -6 -101 -18s-36.333 -27.333 -39 -46c-2.66699 -19.333 3.83301 -34.833 19.5 -46.5s36.167 -17.5 61.5 -17.5c23.333 0 44.5 6 63.5 18s29.5 27.333 31.5 46z" />
    <glyph glyph-name="Scommaaccent" unicode="&#x218;" horiz-adv-x="624" 
d="M331 423c43.333 -9.33301 78.9951 -19 106.995 -29s54.167 -23.167 78.5 -39.5s41.333 -37.166 51 -62.499s12.5 -55.333 8.5 -90c-8 -64 -39.167 -116.333 -93.5 -157s-125.5 -61 -213.5 -61c-32 0 -63 3.83301 -93 11.5s-55 17 -75 28s-37.833 22 -53.5 33
s-26.834 20.167 -33.501 27.5l-11 12l88 128c56.667 -64 121.667 -96 195 -96c80.667 0 123.334 21.333 128.001 64c2 16.667 -4.33301 30.167 -19 40.5s-42.667 19.166 -84 26.499c-89.333 15.333 -153.166 40 -191.499 74s-54.166 79.667 -47.499 137
c8 61.333 38.667 113 92 155s120.333 63 201 63c16 0 34.167 -1.16699 54.5 -3.5s49.5 -10.5 87.5 -24.5s68.667 -33.333 92 -58l-86 -126c-1.33301 2 -3.5 4.5 -6.5 7.5s-9.5 8.33301 -19.5 16s-21 14.5 -33 20.5s-27.667 11.5 -47 16.5s-39.666 7.5 -60.999 7.5
c-29.333 0 -54.666 -5 -75.999 -15s-33 -24 -35 -42c-2 -16 3.83301 -28.5 17.5 -37.5s39.834 -17.833 78.501 -26.5zM156.995 -208l50 144h128l-98 -144h-80z" />
    <glyph glyph-name="scommaaccent" unicode="&#x219;" horiz-adv-x="544" 
d="M289 325c78 -8.66699 132.501 -25.9971 163.501 -51.9971s43.5 -63.667 37.5 -113c-6 -53.333 -32.167 -96 -78.5 -128s-111.833 -48 -196.5 -48c-42 0 -81.333 5.16699 -118 15.5s-62.667 20.5 -78 30.5l-23 16l59 130c16 -12.667 36.833 -23.5 62.5 -32.5
s47.167 -14.833 64.5 -17.5l27 -4c77.333 -7.33301 117.333 0.333984 120 23.001c0.666992 6 -0.333008 10.667 -3 14s-9 6.33301 -19 9s-19.667 4.66699 -29 6s-26 3.33301 -50 6c-40.667 5.33301 -74.334 14.166 -101.001 26.499s-45.334 27 -56.001 44
s-17.5 32.833 -20.5 47.5s-3.5 30 -1.5 46c6.66699 51.333 31.167 92.166 73.5 122.499s103.166 45.5 182.499 45.5c76.667 0 138.334 -13.667 185.001 -41l-53 -129c-47.333 24.667 -96 37 -146 37c-52 0 -78.667 -7 -80 -21
c-1.33301 -10.667 6.33398 -18.334 23.001 -23.001c8 -2.66699 22.333 -5.33398 43 -8.00098zM109.001 -207.997l50 144h128l-98 -144h-80z" />
    <glyph glyph-name="uni021A" unicode="&#x21a;" horiz-adv-x="576" 
d="M73 672h512l-17 -144h-176l-65 -528h-160l65 528h-176zM125 -208l50 144h128l-98 -144h-80z" />
    <glyph glyph-name="uni021B" unicode="&#x21b;" horiz-adv-x="400" 
d="M72 141l26 211.001h-64l18 144h64l21 176h160l-21 -176h96l-18 -144h-96l-18 -144c-4.66699 -39.333 -2 -64.333 8 -75s36 -12.334 78 -5.00098l-15 -128c-32.667 -10.667 -70.667 -16 -114 -16c-48.667 0 -83 14.833 -103 44.5s-27.333 67.167 -22 112.5zM37 -207.999
l50 144h128l-98 -144h-80z" />
    <glyph glyph-name="circumflex" unicode="&#x2c6;" horiz-adv-x="800" 
d="M497 736l-40 64l-56 -64h-128l162 144h64l126 -144h-128z" />
    <glyph glyph-name="caron" unicode="&#x2c7;" horiz-adv-x="800" 
d="M515 880h128l-162 -144h-64l-126 144h128l40 -64z" />
    <glyph glyph-name="breve" unicode="&#x2d8;" horiz-adv-x="800" 
d="M531 880h80.002c-4.66699 -40 -22.834 -74 -54.501 -102s-67.5 -42 -107.5 -42s-72.167 14 -96.5 42s-34.166 62 -29.499 102h80c-2.66699 -17.333 1.66602 -32.333 12.999 -45s25.666 -19 42.999 -19s33 6.33301 47 19s22.333 27.667 25 45z" />
    <glyph glyph-name="dotaccent" unicode="&#x2d9;" horiz-adv-x="800" 
d="M447 720c-24 0 -43.498 8.66699 -58.498 26s-21.167 38 -18.5 62c3.33301 24 14.666 44.667 33.999 62s41 26 65 26s43.5 -8.66699 58.5 -26s21.167 -38 18.5 -62s-13.834 -44.667 -33.501 -62s-41.5 -26 -65.5 -26z" />
    <glyph glyph-name="ring" unicode="&#x2da;" horiz-adv-x="800" 
d="M475 944c33.333 0 60.166 -11.667 80.499 -35s28.5 -51.666 24.5 -84.999s-19.167 -61.666 -45.5 -84.999s-56.166 -35 -89.499 -35s-60.166 11.667 -80.499 35s-28.5 51.666 -24.5 84.999s19.167 61.666 45.5 84.999s56.166 35 89.499 35zM454 774
c13.333 0 25.666 5 36.999 15s17.666 21.667 18.999 35s-2.33398 25 -11.001 35s-19.667 15 -33 15s-25.666 -5 -36.999 -15s-17.666 -21.667 -18.999 -35s2.33398 -25 11.001 -35s19.667 -15 33 -15z" />
    <glyph glyph-name="ogonek" unicode="&#x2db;" horiz-adv-x="800" 
d="M311 0h128.001c-22.667 0 -44.5 -5.83301 -65.5 -17.5s-33.167 -30.5 -36.5 -56.5c-4 -32.667 5.66699 -53.5 29 -62.5s47.666 -6.16699 72.999 8.5l8 -64c-21.333 -10.667 -43.333 -16 -66 -16c-39.333 0 -69 11.5 -89 34.5s-28 52.833 -24 89.5
c2 14.667 7.16699 30.5 15.5 47.5s17.5 29.167 27.5 36.5z" />
    <glyph glyph-name="tilde" unicode="&#x2dc;" horiz-adv-x="800" 
d="M582 848l77.999 -26.001c-36 -57.333 -79.333 -86 -130 -86c-25.333 0 -51.666 6 -78.999 18c-27.333 13.333 -50.5 19.333 -69.5 18s-36.167 -13.333 -51.5 -36l-78 26c36.667 57.333 80 86 130 86c22.667 0 49 -6 79 -18c27.333 -14 50.5 -20.167 69.5 -18.5
s36.167 13.834 51.5 36.501z" />
    <glyph glyph-name="hungarumlaut" unicode="&#x2dd;" horiz-adv-x="800" 
d="M273 736l50 144h128l-98 -144h-80zM497 736l50 144h128l-98 -144h-80z" />
    <glyph glyph-name="Alphatonos" unicode="&#x386;" horiz-adv-x="720" 
d="M503 0l-29 112h-268l-55 -112h-176l360 672h148l196 -672h-176zM56 528l49 144h128l-97 -144h-80zM279 256h158l-53 208z" />
    <glyph glyph-name="Epsilontonos" unicode="&#x388;" horiz-adv-x="704" 
d="M56 528l49 144h128l-97 -144h-80zM680 528h-272l-15 -120h224l-18 -144h-224l-15 -120h272l-17 -144h-432l82 672h432z" />
    <glyph glyph-name="Etatonos" unicode="&#x389;" horiz-adv-x="864" 
d="M56 528l49 144h128l-97 -144h-80zM681 672h160l-82 -672h-160l32 264h-256l-32 -264h-160l82 672h160l-32 -264h256z" />
    <glyph glyph-name="Iotatonos" unicode="&#x38a;" horiz-adv-x="448" 
d="M56 528l49 144h128l-97 -144h-80zM343 0h-160l82 672h160z" />
    <glyph glyph-name="Omicrontonos" unicode="&#x38c;" horiz-adv-x="880" 
d="M531 688c99.333 0 180 -34.333 242 -103s87 -151.667 75 -249s-57.333 -180.333 -136 -249s-167.667 -103 -267 -103s-180 34.333 -242 103s-87 151.667 -75 249s57.333 180.333 136 249s167.667 103 267 103zM56 528l49 144h128l-97 -144h-80zM462 128
c55.333 0 105.166 20.333 149.499 61s69.833 89.667 76.5 147s-6.83301 106.333 -40.5 147s-78.167 61 -133.5 61s-105.166 -20.333 -149.499 -61s-69.833 -89.667 -76.5 -147s6.83301 -106.333 40.5 -147s78.167 -61 133.5 -61z" />
    <glyph glyph-name="Upsilontonos" unicode="&#x38e;" horiz-adv-x="896" 
d="M56 528l49 144h128l-97 -144h-80zM749 672h188l-305 -400l-33 -272h-160l33 272l-207 400h188l117 -256z" />
    <glyph glyph-name="Omegatonos" unicode="&#x38f;" horiz-adv-x="864" 
d="M822 384c-5.33301 -43.333 -23.1689 -87.665 -53.502 -132.998s-66.833 -81 -109.5 -107h133l-17 -144h-304l19 160c104 64 161.333 138.667 172 224c5.33301 44.667 -7.16699 82.5 -37.5 113.5s-69.833 46.5 -118.5 46.5s-92.167 -15.5 -130.5 -46.5
s-60.166 -68.833 -65.499 -113.5c-6 -47.333 1.33301 -88.833 22 -124.5s52 -68.834 94 -99.501l-19 -160h-304l17 144h133c-36.667 26 -64.334 61.667 -83.001 107s-25.334 89.666 -20.001 132.999c10.667 87.333 49.834 159.833 117.501 217.5s152.834 86.5 255.501 86.5
s180.834 -28.833 234.501 -86.5s75.167 -130.167 64.5 -217.5zM55.9971 528.001l49 144h128l-97 -144h-80z" />
    <glyph glyph-name="iotadieresistonos" unicode="&#x390;" horiz-adv-x="320" 
d="M4 560c-20 0 -36.333 7 -49 21s-17.667 31 -15 51s11.834 37 27.501 51s33.5 21 53.5 21s36.167 -7 48.5 -21s17.166 -31 14.499 -51s-11.667 -37 -27 -51s-33 -21 -53 -21zM108 560l49 144h128l-97 -144h-80zM356 560c-20 0 -36.333 7 -49 21s-17.667 31 -15 51
s11.834 37 27.501 51s33.5 21 53.5 21s36.167 -7 48.5 -21s17.166 -31 14.499 -51s-11.667 -37 -27 -51s-33 -21 -53 -21zM244 496l-37.999 -304c-3.33301 -29.333 -1 -48.5 7 -57.5s24.333 -11.167 49 -6.5l-15 -128c-32 -10.667 -62.667 -16 -92 -16
c-50.667 0 -83.834 15.5 -99.501 46.5s-19.5 78.5 -11.5 142.5l40 323h160z" />
    <glyph glyph-name="Alpha" unicode="&#x391;" horiz-adv-x="704" 
d="M487 0l-29 112h-268l-55 -112h-176l360 672h148l196 -672h-176zM263 256h158l-53 208z" />
    <glyph glyph-name="Beta" unicode="&#x392;" horiz-adv-x="640" 
d="M497 353c36 -12 61.832 -31.333 77.499 -58s21.5 -57.667 17.5 -93c-8 -59.333 -34.833 -107.833 -80.5 -145.5s-103.834 -56.5 -174.501 -56.5h-314l82 672h256c80.667 0 141.834 -14.167 183.501 -42.5s58.834 -72.833 51.501 -133.5
c-3.33301 -28.667 -14.5 -57 -33.5 -85s-40.833 -47.333 -65.5 -58zM247.999 528l-14 -112h96c64 0 98.333 19 103 57c2.66699 20 -3.5 34.167 -18.5 42.5s-38.5 12.5 -70.5 12.5h-96zM311.999 144c75.333 0 115.331 21.668 119.998 65.001
c2.66699 21.333 -5.16602 37.166 -23.499 47.499s-45.166 15.5 -80.499 15.5h-112l-16 -128h112z" />
    <glyph glyph-name="Gamma" unicode="&#x393;" horiz-adv-x="528" 
d="M520 528h-272l-65 -528h-160l82 672h432z" />
    <glyph glyph-name="uni0394" unicode="&#x394;" horiz-adv-x="704" 
d="M467 672l196 -672h-704l360 672h148zM207 144h242l-81 320z" />
    <glyph glyph-name="Epsilon" unicode="&#x395;" horiz-adv-x="544" 
d="M520 528h-272l-15 -120h224l-18 -144h-224l-15 -120h272l-17 -144h-432l82 672h432z" />
    <glyph glyph-name="Zeta" unicode="&#x396;" horiz-adv-x="624" 
d="M535 0h-544l365 528h-284l17 144h544l-365 -528h284z" />
    <glyph glyph-name="Eta" unicode="&#x397;" horiz-adv-x="704" 
d="M521 672h160l-82 -672h-160l32 264h-256l-32 -264h-160l82 672h160l-32 -264h256z" />
    <glyph glyph-name="Theta" unicode="&#x398;" horiz-adv-x="784" 
d="M435 688c99.333 0 180 -34.333 242 -103s87 -151.667 75 -249s-57.333 -180.333 -136 -249s-167.667 -103 -267 -103s-180 34.333 -242 103s-87 151.667 -75 249s57.333 180.333 136 249s167.667 103 267 103zM366 128c55.333 0 105.166 20.333 149.499 61
s69.833 89.667 76.5 147s-6.83301 106.333 -40.5 147s-78.167 61 -133.5 61s-105.166 -20.333 -149.499 -61s-69.833 -89.667 -76.5 -147s6.83301 -106.333 40.5 -147s78.167 -61 133.5 -61zM235 296l10 80h304l-10 -80h-304z" />
    <glyph glyph-name="Iota" unicode="&#x399;" horiz-adv-x="288" 
d="M183 0h-160l82 672h160z" />
    <glyph glyph-name="Kappa" unicode="&#x39a;" horiz-adv-x="656" 
d="M370 352l229 -352h-192l-189 288l-35 -288h-160l82 672h160l-31 -256l239 256h192z" />
    <glyph glyph-name="Lambda" unicode="&#x39b;" horiz-adv-x="704" 
d="M487 0l-119 464l-233 -464h-176l360 672h148l196 -672h-176z" />
    <glyph glyph-name="Mu" unicode="&#x39c;" horiz-adv-x="864" 
d="M793 672l-2 -672h-160l-1 384l-191 -384h-96l-97 384l-95 -384h-160l162 672h160l111 -400l209 400h160z" />
    <glyph glyph-name="Nu" unicode="&#x39d;" horiz-adv-x="752" 
d="M569 672h160l-82 -672h-160l-253 416l-51 -416h-160l82 672h160l253 -416z" />
    <glyph glyph-name="Xi" unicode="&#x39e;" horiz-adv-x="592" 
d="M72 528l17 144h496l-17 -144h-496zM87 264l18 144h400l-18 -144h-400zM7 0l17 144h496l-17 -144h-496z" />
    <glyph glyph-name="Omicron" unicode="&#x39f;" horiz-adv-x="784" 
d="M435 688c99.333 0 180 -34.333 242 -103s87 -151.667 75 -249s-57.333 -180.333 -136 -249s-167.667 -103 -267 -103s-180 34.333 -242 103s-87 151.667 -75 249s57.333 180.333 136 249s167.667 103 267 103zM366 128c55.333 0 105.166 20.333 149.499 61
s69.833 89.667 76.5 147s-6.83301 106.333 -40.5 147s-78.167 61 -133.5 61s-105.166 -20.333 -149.499 -61s-69.833 -89.667 -76.5 -147s6.83301 -106.333 40.5 -147s78.167 -61 133.5 -61z" />
    <glyph glyph-name="Pi" unicode="&#x3a0;" horiz-adv-x="704" 
d="M681 672l-82 -672h-160l65 528h-256l-65 -528h-160l82 672h576z" />
    <glyph glyph-name="Rho" unicode="&#x3a1;" horiz-adv-x="624" 
d="M377 672c84.667 0 146.168 -20.333 184.501 -61s53.166 -95 44.499 -163c-8 -64 -35.167 -118.667 -81.5 -164s-103.5 -68 -171.5 -68h-144l-26 -216h-160l82 672h272zM338.001 360c27.333 0 51.332 7.66699 71.999 23s32.334 35.666 35.001 60.999
c4 28.667 -2.16699 49.834 -18.5 63.501s-38.833 20.5 -67.5 20.5h-111l-21 -168h111z" />
    <glyph glyph-name="Sigma" unicode="&#x3a3;" horiz-adv-x="624" 
d="M290 528l142 -192l-190 -192h294l-17 -144h-496l17 144l200 192l-152 192l17 144h496l-17 -144h-294z" />
    <glyph glyph-name="Tau" unicode="&#x3a4;" horiz-adv-x="576" 
d="M73 672h512l-17 -144h-176l-65 -528h-160l65 528h-176z" />
    <glyph glyph-name="Upsilon" unicode="&#x3a5;" horiz-adv-x="672" 
d="M525 672h188l-305 -400l-33 -272h-160l33 272l-207 400h188l117 -256z" />
    <glyph glyph-name="Phi" unicode="&#x3a6;" horiz-adv-x="768" 
d="M738 352c-9.33301 -79.333 -45.666 -147.166 -108.999 -203.499s-129.333 -84.5 -198 -84.5l-8 -64h-160l8 64c-68.667 0 -127.667 28.167 -177 84.5s-69.333 124.166 -60 203.499c10 80.667 46.833 148.834 110.5 204.501s129.167 83.5 196.5 83.5l8 64h160l-8 -64
c67.333 0 126.166 -27.833 176.499 -83.5s70.5 -123.834 60.5 -204.501zM288 208l36 288c-26.667 0 -53.5 -12.333 -80.5 -37s-43.5 -60.334 -49.5 -107.001c-6 -47.333 1.5 -83.166 22.5 -107.499s44.833 -36.5 71.5 -36.5zM448 208c26.667 0 53.5 12.1689 80.5 36.502
s43.5 60.166 49.5 107.499s-1.5 83.166 -22.5 107.499s-44.833 36.5 -71.5 36.5z" />
    <glyph glyph-name="Chi" unicode="&#x3a7;" horiz-adv-x="720" 
d="M466 352l197 -352h-192l-124 231l-180 -231h-192l283 352l-185 320h185l117 -212l169 212h185z" />
    <glyph glyph-name="Psi" unicode="&#x3a8;" horiz-adv-x="864" 
d="M681 672h160.006l-29 -238c-6.66699 -52 -19.834 -96.833 -39.501 -134.5s-45 -67.334 -76 -89.001s-63 -38.167 -96 -49.5s-70.833 -19.666 -113.5 -24.999l-16 -136h-160l16 136c-32.667 4 -61.667 9.83301 -87 17.5s-49.833 18.834 -73.5 33.501
s-42.834 32.667 -57.501 54s-25.167 48.333 -31.5 81s-6.83301 70 -1.5 112l29 238h160l-33 -268c-4.66699 -42 4.66602 -72.5 27.999 -91.5s51.666 -29.833 84.999 -32.5l48 392h160l-48 -392c15.333 1.33301 30.166 4.16602 44.499 8.49902s28.666 11 42.999 20
s26.5 21.667 36.5 38s16.333 35.5 19 57.5z" />
    <glyph glyph-name="uni03A9" unicode="&#x3a9;" horiz-adv-x="768" 
d="M726 384c-5.33301 -43.333 -23.1689 -87.665 -53.502 -132.998s-66.833 -81 -109.5 -107h133l-17 -144h-304l19 160c104 64 161.333 138.667 172 224c5.33301 44.667 -7.16699 82.5 -37.5 113.5s-69.833 46.5 -118.5 46.5s-92.167 -15.5 -130.5 -46.5
s-60.166 -68.833 -65.499 -113.5c-6 -47.333 1.33301 -88.833 22 -124.5s52 -68.834 94 -99.501l-19 -160h-304l17 144h133c-36.667 26 -64.334 61.667 -83.001 107s-25.334 89.666 -20.001 132.999c10.667 87.333 49.834 159.833 117.501 217.5s152.834 86.5 255.501 86.5
s180.834 -28.833 234.501 -86.5s75.167 -130.167 64.5 -217.5z" />
    <glyph glyph-name="Iotadieresis" unicode="&#x3aa;" horiz-adv-x="288" 
d="M89 736c-20 0 -36.167 7 -48.5 21s-17.166 31 -14.499 51s11.834 37 27.501 51s33.5 21 53.5 21s36.167 -7 48.5 -21s17.166 -31 14.499 -51s-11.834 -37 -27.501 -51s-33.5 -21 -53.5 -21zM297 736c-20 0 -36.167 7 -48.5 21s-17.166 31 -14.499 51s11.834 37 27.501 51
s33.5 21 53.5 21s36.167 -7 48.5 -21s17.166 -31 14.499 -51s-11.834 -37 -27.501 -51s-33.5 -21 -53.5 -21zM183 0h-160l82 672h160z" />
    <glyph glyph-name="Upsilondieresis" unicode="&#x3ab;" horiz-adv-x="672" 
d="M281 736c-20 0 -36.167 7 -48.5 21s-17.166 31 -14.499 51s11.834 37 27.501 51s33.5 21 53.5 21s36.167 -7 48.5 -21s17.166 -31 14.499 -51s-11.834 -37 -27.501 -51s-33.5 -21 -53.5 -21zM489 736c-20 0 -36.167 7 -48.5 21s-17.166 31 -14.499 51
s11.834 37 27.501 51s33.5 21 53.5 21s36.167 -7 48.5 -21s17.166 -31 14.499 -51s-11.834 -37 -27.501 -51s-33.5 -21 -53.5 -21zM525 672h188l-305 -400l-33 -272h-160l33 272l-207 400h188l117 -256z" />
    <glyph glyph-name="alphatonos" unicode="&#x3ac;" horiz-adv-x="672" 
d="M316 560l49 144h128l-97 -144h-80zM558 192c-3.33301 -29.333 -1.16797 -48.333 6.49902 -57s24.167 -11 49.5 -7l-15 -128c-33.333 -10.667 -62.666 -16 -87.999 -16c-56 0 -92 19 -108 57c-46.667 -38 -104.667 -57 -174 -57c-66.667 0 -120.167 25.833 -160.5 77.5
s-56.166 113.834 -47.499 186.501c9.33301 73.333 40.5 135.666 93.5 186.999s112.833 77 179.5 77c55.333 0 100.666 -19.333 135.999 -58l6 42h160zM277.998 128c30.667 0 58.5 11.667 83.5 35s39.5 51.666 43.5 84.999s-3.5 61.666 -22.5 84.999s-43.833 35 -74.5 35
s-58.5 -11.667 -83.5 -35s-39.5 -51.666 -43.5 -84.999s3.5 -61.666 22.5 -84.999s43.833 -35 74.5 -35z" />
    <glyph glyph-name="epsilontonos" unicode="&#x3ad;" horiz-adv-x="528" 
d="M244 560l49 144h128l-97 -144h-80zM298 128c49.333 0 94.665 10.666 135.998 31.999l26 -115c-61.333 -40.667 -133.333 -61 -216 -61c-73.333 0 -129.833 14.333 -169.5 43s-56.167 69.667 -49.5 123c2.66699 23.333 12.667 45.833 30 67.5s37.666 37.167 60.999 46.5
c-20 8.66699 -35.167 22 -45.5 40s-14.166 37.333 -11.499 58c6 48.667 31.167 85.834 75.5 111.501s103.5 38.5 177.5 38.5c32.667 0 66.834 -5.33301 102.501 -16s66.167 -26 91.5 -46l-59 -122c-38.667 26.667 -83 40 -133 40c-28.667 0 -52 -3.5 -70 -10.5
s-27.667 -16.5 -29 -28.5c-2 -14.667 9.83301 -25.167 35.5 -31.5s62.834 -9.5 111.501 -9.5l-10 -80c-106 0 -161 -14 -165 -42c-3.33301 -25.333 33.667 -38 111 -38z" />
    <glyph glyph-name="etatonos" unicode="&#x3ae;" 
d="M260 560l49 144h128l-97 -144h-80zM499 -160c-6 -48 -4.66602 -79.999 4.00098 -95.999h-160c-8.66699 16 -10 48 -4 96l53 432c8 64 -14.667 96 -68 96c-9.33301 0 -19.333 -1.66699 -30 -5s-21.667 -8.83301 -33 -16.5s-21.333 -19.334 -30 -35.001
s-14.334 -34.167 -17.001 -55.5l-31 -256h-160l61 496h160l-6 -48c41.333 42.667 92 64 152 64c54 0 97.167 -19.5 129.5 -58.5s43.833 -94.167 34.5 -165.5z" />
    <glyph glyph-name="iotatonos" unicode="&#x3af;" horiz-adv-x="320" 
d="M108 560l49 144h128l-97 -144h-80zM244 496l-37.999 -304c-3.33301 -29.333 -1 -48.5 7 -57.5s24.333 -11.167 49 -6.5l-15 -128c-32 -10.667 -62.667 -16 -92 -16c-50.667 0 -83.834 15.5 -99.501 46.5s-19.5 78.5 -11.5 142.5l40 323h160z" />
    <glyph glyph-name="upsilondieresistonos" unicode="&#x3b0;" 
d="M140 560c-20 0 -36.333 7 -49 21s-17.667 31 -15 51s11.834 37 27.501 51s33.5 21 53.5 21s36.167 -7 48.5 -21s17.166 -31 14.499 -51s-11.667 -37 -27 -51s-33 -21 -53 -21zM244 560l49 144h128l-97 -144h-80zM492 560c-20 0 -36.333 7 -49 21s-17.667 31 -15 51
s11.834 37 27.501 51s33.5 21 53.5 21s36.167 -7 48.5 -21s17.166 -31 14.499 -51s-11.667 -37 -27 -51s-33 -21 -53 -21zM532 496c20.667 -86.667 27.667 -159.998 21 -219.998c-11.333 -88.667 -42.666 -159.5 -93.999 -212.5s-117.333 -79.5 -198 -79.5
c-84 0 -144.833 23.667 -182.5 71s-51.5 111.666 -41.5 192.999l31 248h160l-33 -266c-4 -34.667 2.5 -60.334 19.5 -77.001s38.167 -25 63.5 -25c28 0 52.667 12.5 74 37.5s34.333 57.167 39 96.5c9.33301 72.667 5.66602 150.667 -11.001 234h152z" />
    <glyph glyph-name="alpha" unicode="&#x3b1;" horiz-adv-x="672" 
d="M558 192c-3.33301 -29.333 -1.16797 -48.333 6.49902 -57s24.167 -11 49.5 -7l-15 -128c-33.333 -10.667 -62.666 -16 -87.999 -16c-56 0 -92 19 -108 57c-46.667 -38 -104.667 -57 -174 -57c-66.667 0 -120.167 25.833 -160.5 77.5s-56.166 113.834 -47.499 186.501
c9.33301 73.333 40.5 135.666 93.5 186.999s112.833 77 179.5 77c55.333 0 100.666 -19.333 135.999 -58l6 42h160zM277.998 128c30.667 0 58.5 11.667 83.5 35s39.5 51.666 43.5 84.999s-3.5 61.666 -22.5 84.999s-43.833 35 -74.5 35s-58.5 -11.667 -83.5 -35
s-39.5 -51.666 -43.5 -84.999s3.5 -61.666 22.5 -84.999s43.833 -35 74.5 -35z" />
    <glyph glyph-name="beta" unicode="&#x3b2;" 
d="M454 384c24.667 -4 45.9971 -15.499 63.9971 -34.499s30.333 -40.667 37 -65s8.66699 -48.166 6 -71.499c-7.33301 -62.667 -34.833 -116.5 -82.5 -161.5s-109.5 -67.5 -185.5 -67.5c-50.667 0 -92 10.667 -124 32l-34 -272h-160l92 744
c4 35.333 12.667 66.666 26 93.999s29.333 49 48 65s37.334 29.333 56.001 40s38.334 18.167 59.001 22.5s36.667 7.16602 48 8.49902s22 2 32 2c80 0 137.5 -19.667 172.5 -59s48.833 -89 41.5 -149c-3.33301 -26.667 -14.666 -53 -33.999 -79s-40 -42.333 -62 -49z
M184.997 148.001c12.667 -8 29.832 -14.333 51.499 -19s44.334 -6.16699 68.001 -4.5s44.834 11 63.501 28s30 40.833 34 71.5c4 32 -7.5 56 -34.5 72s-70.167 24 -129.5 24l12 96c41.333 0 73.833 7.5 97.5 22.5s37.167 34.167 40.5 57.5c6 53.333 -17.667 80 -71 80
c-23.333 0 -43.333 -7.66699 -60 -23s-26.334 -34.333 -29.001 -57z" />
    <glyph glyph-name="gamma" unicode="&#x3b3;" horiz-adv-x="544" 
d="M564 496l-249 -458l-36 -294h-160l36 294l-135 458h176l62 -272l130 272h176z" />
    <glyph glyph-name="delta" unicode="&#x3b4;" 
d="M565 248c-9.33301 -74.667 -42.5029 -137.332 -99.5029 -187.999s-125.167 -76 -204.5 -76c-82.667 0 -145.667 25.167 -189 75.5s-60.333 113.166 -51 188.499c6 48.667 22.167 93 48.5 133s60.5 71.333 102.5 94c-39.333 32 -53.666 72 -42.999 120
c6.66699 32 32 60.833 76 86.5s95 38.5 153 38.5c64.667 0 125 -10.667 181 -32l-32 -136c-27.333 10.667 -59.166 18.167 -95.499 22.5s-65.833 4.83301 -88.5 1.5c-14.667 -2 -24.667 -6.33301 -30 -13s-5.5 -13.167 -0.5 -19.5s13.167 -10.833 24.5 -13.5
c93.333 -21.333 160.333 -55 201 -101s56.334 -106.333 47.001 -181zM277.997 128.002c30.667 0 58.501 11.668 83.501 35.001s39.5 51.666 43.5 84.999c3.33301 30 -3.33398 55 -20.001 75s-41.667 40 -75 60l-19 11c-65.333 -32.667 -102 -81.334 -110 -146.001
c-4 -33.333 3.5 -61.666 22.5 -84.999s43.833 -35 74.5 -35z" />
    <glyph glyph-name="epsilon" unicode="&#x3b5;" horiz-adv-x="528" 
d="M298 128c49.333 0 94.665 10.666 135.998 31.999l26 -115c-61.333 -40.667 -133.333 -61 -216 -61c-73.333 0 -129.833 14.333 -169.5 43s-56.167 69.667 -49.5 123c2.66699 23.333 12.667 45.833 30 67.5s37.666 37.167 60.999 46.5c-20 8.66699 -35.167 22 -45.5 40
s-14.166 37.333 -11.499 58c6 48.667 31.167 85.834 75.5 111.501s103.5 38.5 177.5 38.5c32.667 0 66.834 -5.33301 102.501 -16s66.167 -26 91.5 -46l-59 -122c-38.667 26.667 -83 40 -133 40c-28.667 0 -52 -3.5 -70 -10.5s-27.667 -16.5 -29 -28.5
c-2 -14.667 9.83301 -25.167 35.5 -31.5s62.834 -9.5 111.501 -9.5l-10 -80c-106 0 -161 -14 -165 -42c-3.33301 -25.333 33.667 -38 111 -38z" />
    <glyph glyph-name="zeta" unicode="&#x3b6;" horiz-adv-x="544" 
d="M536 528c-84.667 -40.667 -161.665 -92.834 -230.998 -156.501s-106.333 -114.167 -111 -151.5c-3.33301 -27.333 2 -48.333 16 -63s32.667 -23.167 56 -25.5l76 -7.5c27.333 -2.66699 52.666 -6 75.999 -10s41.666 -15 54.999 -33s18 -43 14 -75
c-3.33301 -28.667 -12.666 -62.667 -27.999 -102h-128c12 28 14.167 48.333 6.5 61s-30.5 19 -68.5 19c-84 0 -147 16.5 -189 49.5s-58.667 85.833 -50 158.5c7.33301 60.667 38.666 120.334 93.999 179.001s124.333 111 207 157h-211l17 144h416z" />
    <glyph glyph-name="eta" unicode="&#x3b7;" 
d="M499 -160c-6 -48 -4.66602 -79.999 4.00098 -95.999h-160c-8.66699 16 -10 48 -4 96l53 432c8 64 -14.667 96 -68 96c-9.33301 0 -19.333 -1.66699 -30 -5s-21.667 -8.83301 -33 -16.5s-21.333 -19.334 -30 -35.001s-14.334 -34.167 -17.001 -55.5l-31 -256h-160l61 496
h160l-6 -48c41.333 42.667 92 64 152 64c54 0 97.167 -19.5 129.5 -58.5s43.833 -94.167 34.5 -165.5z" />
    <glyph glyph-name="theta" unicode="&#x3b8;" horiz-adv-x="624" 
d="M355 688c54 0 99.333 -16 136 -48s62 -74.333 76 -127s17 -111.667 9 -177c-12.667 -100.667 -46.834 -184.5 -102.501 -251.5s-123.834 -100.5 -204.501 -100.5c-82 0 -142.5 33.5 -181.5 100.5s-52.167 150.833 -39.5 251.5s46.834 184.5 102.501 251.5
s123.834 100.5 204.501 100.5zM338 544c-28.667 0 -53.834 -15.5 -75.501 -46.5s-37.5 -71.5 -47.5 -121.5h204c2.66699 50 -3.16602 90.5 -17.499 121.5s-35.5 46.5 -63.5 46.5zM286 128c28.667 0 53.834 15.5 75.501 46.5s37.5 71.5 47.5 121.5h-204
c-2.66699 -50 3.16602 -90.5 17.499 -121.5s35.5 -46.5 63.5 -46.5z" />
    <glyph glyph-name="iota" unicode="&#x3b9;" horiz-adv-x="320" 
d="M244 496l-37.999 -304c-3.33301 -29.333 -1 -48.5 7 -57.5s24.333 -11.167 49 -6.5l-15 -128c-32 -10.667 -62.667 -16 -92 -16c-50.667 0 -83.834 15.5 -99.501 46.5s-19.5 78.5 -11.5 142.5l40 323h160z" />
    <glyph glyph-name="kappa" unicode="&#x3ba;" horiz-adv-x="592" 
d="M358 256l193 -256h-192l-152 196l-24 -196h-160l61 496h160l-23 -188l183 188h192z" />
    <glyph glyph-name="lambda" unicode="&#x3bb;" horiz-adv-x="624" 
d="M471 216c9.33301 -38.667 21.002 -64.666 35.002 -77.999s34 -16.666 60 -9.99902l-15 -128c-27.333 -10.667 -54 -16 -80 -16c-19.333 0 -36.5 3.66699 -51.5 11s-27.667 17 -38 29s-20 29 -29 51s-16.667 43.833 -23 65.5s-13.5 50.167 -21.5 85.5l-10 46l-131 -272
h-176l258 475c-11.333 48.667 -25 79.5 -41 92.5s-38.333 15.833 -67 8.5l16 128c24.667 10.667 50.667 16 78 16c14 0 26.667 -1.33301 38 -4s21.666 -7.33398 30.999 -14.001s17.666 -13.334 24.999 -20.001s14.333 -16.5 21 -29.5s12.167 -24.167 16.5 -33.5
s9 -23 14 -41l12 -44c3 -11.333 7.16699 -28 12.5 -50z" />
    <glyph glyph-name="uni03BC" unicode="&#x3bc;" horiz-adv-x="624" 
d="M531 96c-6 -48 -4.66699 -80.001 4 -96.001h-160c-6.66699 11.333 -9.33398 27 -8.00098 47c-40.667 -42 -92 -63 -154 -63c-11.333 0 -22 1 -32 3l-30 -243h-160l93 752h160l-34 -272c-8 -64 14.667 -96 68 -96c9.33301 0 19.333 1.66699 30 5s21.667 8.83301 33 16.5
s21.333 19.334 30 35.001s14.334 34.167 17.001 55.5l32 256h160z" />
    <glyph glyph-name="nu" unicode="&#x3bd;" horiz-adv-x="544" 
d="M167 0l-147 496h176l62 -272l130 272h176l-269 -496h-128z" />
    <glyph glyph-name="xi" unicode="&#x3be;" horiz-adv-x="560" 
d="M191 198c-2.66699 -20.667 2.66992 -36.9971 16.0029 -48.9971s33.333 -19 60 -21c7.33301 -0.666992 20.833 -1.33398 40.5 -2.00098s35.5 -1.66699 47.5 -3s27.167 -3.33301 45.5 -6s33 -7 44 -13s21.833 -13.5 32.5 -22.5s18.167 -21 22.5 -36
s5.16602 -32.167 2.49902 -51.5c-3.33301 -31.333 -12.333 -61.333 -27 -90h-128c11.333 28 12.166 48.333 2.49902 61s-33.834 19 -72.501 19c-97.333 0 -165 16.5 -203 49.5s-53 82.5 -45 148.5c8.66699 71.333 59.334 126.666 152.001 165.999
c-75.333 31.333 -106.666 88.666 -93.999 171.999c9.33301 64 37.666 113.333 84.999 148s110.333 52 189 52c35.333 0 70.666 -6 105.999 -18s63.333 -27.333 84 -46l-70 -120c-41.333 26.667 -88 40 -140 40c-68.667 0 -105.667 -21 -111 -63c-4 -30 14.833 -55 56.5 -75
s98.5 -30 170.5 -30l-16 -128c-75.333 0 -134.833 -6 -178.5 -18s-67.5 -33.333 -71.5 -64z" />
    <glyph glyph-name="omicron" unicode="&#x3bf;" 
d="M326 512c78.667 0 140.502 -25.4971 185.502 -76.4971s62.833 -113.5 53.5 -187.5c-9.33301 -74.667 -42.5 -137.334 -99.5 -188.001s-125.167 -76 -204.5 -76c-82.667 0 -145.667 25.167 -189 75.5s-60.333 113.166 -51 188.499s41.666 138.166 96.999 188.499
s124.666 75.5 207.999 75.5zM278.002 128.003c30.667 0 58.5 11.667 83.5 35s39.5 51.666 43.5 84.999s-3.5 61.666 -22.5 84.999s-43.833 35 -74.5 35s-58.5 -11.667 -83.5 -35s-39.5 -51.666 -43.5 -84.999s3.5 -61.666 22.5 -84.999s43.833 -35 74.5 -35z" />
    <glyph glyph-name="pi" unicode="&#x3c0;" horiz-adv-x="656" 
d="M530 352l-20 -159.999c-3.33301 -29.333 -1 -48.5 7 -57.5s24.333 -11.167 49 -6.5l-15 -128c-27.333 -10.667 -54 -16 -80 -16c-50.667 0 -84.5 15.667 -101.5 47s-21.5 78.666 -13.5 141.999l22 179h-120l-43 -352h-160l43 352h-64l18 144h576l-18 -144h-80z" />
    <glyph glyph-name="rho" unicode="&#x3c1;" horiz-adv-x="640" 
d="M358 512c78.667 0 140.502 -25.498 185.502 -76.498s62.833 -113.5 53.5 -187.5c-9.33301 -74.667 -40.833 -137.334 -94.5 -188.001s-118.167 -76 -193.5 -76c-50 0 -91.333 10.333 -124 31l-34 -271h-160l62 504c9.33301 75.333 41.666 138.166 96.999 188.499
s124.666 75.5 207.999 75.5zM310.002 128.002c30.667 0 58.5 11.667 83.5 35s39.5 51.666 43.5 84.999s-3.5 61.666 -22.5 84.999s-43.833 35 -74.5 35s-58.5 -11.667 -83.5 -35s-39.5 -51.666 -43.5 -84.999s3.5 -61.666 22.5 -84.999s43.833 -35 74.5 -35z" />
    <glyph glyph-name="uni03C2" unicode="&#x3c2;" horiz-adv-x="560" 
d="M291 128c10.667 -1.33301 27.5059 -3.3291 50.5059 -5.99609s40.667 -4.83398 53 -6.50098s27.166 -5.33398 44.499 -11.001s30.166 -12.334 38.499 -20.001s15.333 -18.5 21 -32.5s7.16699 -30.667 4.5 -50c-2.66699 -25.333 -12 -58 -28 -98h-128
c10 29.333 9.5 50 -1.5 62s-37.833 18 -80.5 18c-84.667 0 -148.834 25.167 -192.501 75.5s-60.834 113.166 -51.501 188.499s42.166 138.166 98.499 188.499s126.5 75.5 210.5 75.5c81.333 0 141.333 -20.333 180 -61l-74 -129c-30.667 30.667 -68.667 46 -114 46
c-34.667 0 -65.834 -11.667 -93.501 -35s-43.5 -51.666 -47.5 -84.999c-4.66699 -38 3 -66 23 -84s49 -30 87 -36z" />
    <glyph glyph-name="sigma" unicode="&#x3c3;" horiz-adv-x="640" 
d="M628 496l-18.001 -143.999h-69c20 -40 27 -82.667 21 -128c-8 -64.667 -40.5 -120.834 -97.5 -168.501s-124.833 -71.5 -203.5 -71.5c-82.667 0 -145.667 24.333 -189 73s-60.666 109.667 -51.999 183c9.33301 73.333 41.5 134.333 96.5 183s124.167 73 207.5 73h304z
M277.999 128.001c31.333 0 59.334 11 84.001 33s38.667 48.333 42 79c4 30.667 -3.5 57 -22.5 79s-44.167 33 -75.5 33c-30.667 0 -58.334 -10.833 -83.001 -32.5s-39 -48.167 -43 -79.5c-3.33301 -31.333 4.5 -57.833 23.5 -79.5s43.833 -32.5 74.5 -32.5z" />
    <glyph glyph-name="tau" unicode="&#x3c4;" horiz-adv-x="512" 
d="M338 352l-19.999 -160c-3.33301 -29.333 -1 -48.5 7 -57.5s24.333 -11.167 49 -6.5l-15 -128c-28 -10.667 -58.667 -16 -92 -16c-50.667 0 -83.834 15.5 -99.501 46.5s-19.5 78.5 -11.5 142.5l22 179h-144l18 144h448l-18 -144h-144z" />
    <glyph glyph-name="upsilon" unicode="&#x3c5;" 
d="M532 496c20.667 -86.667 27.667 -159.998 21 -219.998c-11.333 -88.667 -42.666 -159.5 -93.999 -212.5s-117.333 -79.5 -198 -79.5c-84 0 -144.833 23.667 -182.5 71s-51.5 111.666 -41.5 192.999l31 248h160l-33 -266c-4 -34.667 2.5 -60.334 19.5 -77.001
s38.167 -25 63.5 -25c28 0 52.667 12.5 74 37.5s34.333 57.167 39 96.5c9.33301 72.667 5.66602 150.667 -11.001 234h152z" />
    <glyph glyph-name="phi" unicode="&#x3c6;" horiz-adv-x="768" 
d="M486 512c82 -8 144.666 -35.333 187.999 -82s60.333 -107.334 51 -182.001c-8.66699 -74.667 -40.5 -135.334 -95.5 -182.001s-124.5 -74 -208.5 -82l-30 -240h-160l30 240c-82 8 -144.667 35.333 -188 82s-60.666 107.334 -51.999 182.001
c9.33301 74.667 41.5 135.334 96.5 182.001s124.5 74 208.5 82l23 192h160zM277.999 128l30 240c-34 -5.33301 -62.667 -18 -86 -38s-37 -47.333 -41 -82s3 -62 21 -82s43.333 -32.667 76 -38zM564.999 248c4 34.667 -3 62 -21 82s-43.333 32.667 -76 38l-30 -240
c34 5.33301 62.667 18 86 38s37 47.333 41 82z" />
    <glyph glyph-name="chi" unicode="&#x3c7;" 
d="M391 264l160 -264h-192l-79 140l-113 -140h-192l224 264l-147 232h192l64 -124l96 124h192z" />
    <glyph glyph-name="psi" unicode="&#x3c8;" horiz-adv-x="800" 
d="M612 496h160.001l-29 -230c-10 -84 -41.833 -150 -95.5 -198s-123.834 -76 -210.501 -84l-30 -240h-160l30 240c-84.667 8 -148 36 -190 84s-58 114 -48 198l29 230h160l-29 -234c-5.33301 -41.333 1.66699 -72.833 21 -94.5s44 -34.834 74 -39.501l46 368h160l-46 -368
c31.333 4.66699 59.333 17.834 84 39.501s39.667 53.167 45 94.5z" />
    <glyph glyph-name="omega" unicode="&#x3c9;" horiz-adv-x="832" 
d="M747 496c27.333 -81.333 36.665 -160 27.998 -236c-11.333 -89.333 -39 -157.666 -83 -204.999s-99.667 -71 -167 -71c-35.333 0 -64.166 5.16699 -86.499 15.5s-41.5 28.166 -57.5 53.499c-22 -25.333 -45.333 -43.166 -70 -53.499s-54.667 -15.5 -90 -15.5
c-68.667 0 -119 23.5 -151 70.5s-42.333 115.5 -31 205.5c8.66699 76 37.334 154.667 86.001 236h152c-44 -92.667 -70.333 -173.334 -79 -242.001c-4.66699 -39.333 -2 -70.166 8 -92.499s26 -33.5 48 -33.5c38 0 61 34 69 102l25 202h160l-25 -202
c-8 -68 6.33301 -102 43 -102c22 0 41 11.167 57 33.5s26.333 53.166 31 92.499c8 68 1.66699 148.667 -19 242h152z" />
    <glyph glyph-name="iotadieresis" unicode="&#x3ca;" horiz-adv-x="320" 
d="M68 560c-20 0 -36.333 7 -49 21s-17.667 31 -15 51s11.834 37 27.501 51s33.5 21 53.5 21s36.167 -7 48.5 -21s17.166 -31 14.499 -51s-11.667 -37 -27 -51s-33 -21 -53 -21zM276 560c-20 0 -36.333 7 -49 21s-17.667 31 -15 51s11.834 37 27.501 51s33.5 21 53.5 21
s36.167 -7 48.5 -21s17.166 -31 14.499 -51s-11.667 -37 -27 -51s-33 -21 -53 -21zM244 496l-37.999 -304c-3.33301 -29.333 -1 -48.5 7 -57.5s24.333 -11.167 49 -6.5l-15 -128c-32 -10.667 -62.667 -16 -92 -16c-50.667 0 -83.834 15.5 -99.501 46.5
s-19.5 78.5 -11.5 142.5l40 323h160z" />
    <glyph glyph-name="upsilondieresis" unicode="&#x3cb;" 
d="M196 560c-20 0 -36.333 7 -49 21s-17.667 31 -15 51s11.834 37 27.501 51s33.5 21 53.5 21s36.167 -7 48.5 -21s17.166 -31 14.499 -51s-11.667 -37 -27 -51s-33 -21 -53 -21zM404 560c-20 0 -36.333 7 -49 21s-17.667 31 -15 51s11.834 37 27.501 51s33.5 21 53.5 21
s36.167 -7 48.5 -21s17.166 -31 14.499 -51s-11.667 -37 -27 -51s-33 -21 -53 -21zM532 496c20.667 -86.667 27.667 -159.998 21 -219.998c-11.333 -88.667 -42.666 -159.5 -93.999 -212.5s-117.333 -79.5 -198 -79.5c-84 0 -144.833 23.667 -182.5 71
s-51.5 111.666 -41.5 192.999l31 248h160l-33 -266c-4 -34.667 2.5 -60.334 19.5 -77.001s38.167 -25 63.5 -25c28 0 52.667 12.5 74 37.5s34.333 57.167 39 96.5c9.33301 72.667 5.66602 150.667 -11.001 234h152z" />
    <glyph glyph-name="omicrontonos" unicode="&#x3cc;" 
d="M276 560l49 144h128l-97 -144h-80zM326 512c78.667 0 140.502 -25.4971 185.502 -76.4971s62.833 -113.5 53.5 -187.5c-9.33301 -74.667 -42.5 -137.334 -99.5 -188.001s-125.167 -76 -204.5 -76c-82.667 0 -145.667 25.167 -189 75.5s-60.333 113.166 -51 188.499
s41.666 138.166 96.999 188.499s124.666 75.5 207.999 75.5zM278.002 128.003c30.667 0 58.5 11.667 83.5 35s39.5 51.666 43.5 84.999s-3.5 61.666 -22.5 84.999s-43.833 35 -74.5 35s-58.5 -11.667 -83.5 -35s-39.5 -51.666 -43.5 -84.999s3.5 -61.666 22.5 -84.999
s43.833 -35 74.5 -35z" />
    <glyph glyph-name="upsilontonos" unicode="&#x3cd;" 
d="M244 560l49 144h128l-97 -144h-80zM532 496c20.667 -86.667 27.667 -159.998 21 -219.998c-11.333 -88.667 -42.666 -159.5 -93.999 -212.5s-117.333 -79.5 -198 -79.5c-84 0 -144.833 23.667 -182.5 71s-51.5 111.666 -41.5 192.999l31 248h160l-33 -266
c-4 -34.667 2.5 -60.334 19.5 -77.001s38.167 -25 63.5 -25c28 0 52.667 12.5 74 37.5s34.333 57.167 39 96.5c9.33301 72.667 5.66602 150.667 -11.001 234h152z" />
    <glyph glyph-name="omegatonos" unicode="&#x3ce;" horiz-adv-x="832" 
d="M388 560l49 144h128l-97 -144h-80zM747 496c27.333 -81.333 36.665 -160 27.998 -236c-11.333 -89.333 -39 -157.666 -83 -204.999s-99.667 -71 -167 -71c-35.333 0 -64.166 5.16699 -86.499 15.5s-41.5 28.166 -57.5 53.499c-22 -25.333 -45.333 -43.166 -70 -53.499
s-54.667 -15.5 -90 -15.5c-68.667 0 -119 23.5 -151 70.5s-42.333 115.5 -31 205.5c8.66699 76 37.334 154.667 86.001 236h152c-44 -92.667 -70.333 -173.334 -79 -242.001c-4.66699 -39.333 -2 -70.166 8 -92.499s26 -33.5 48 -33.5c38 0 61 34 69 102l25 202h160
l-25 -202c-8 -68 6.33301 -102 43 -102c22 0 41 11.167 57 33.5s26.333 53.166 31 92.499c8 68 1.66699 148.667 -19 242h152z" />
    <glyph glyph-name="uni0401" unicode="&#x401;" horiz-adv-x="544" 
d="M217 736c-20 0 -36.167 7 -48.5 21s-17.166 31 -14.499 51s11.834 37 27.501 51s33.5 21 53.5 21s36.167 -7 48.5 -21s17.166 -31 14.499 -51s-11.834 -37 -27.501 -51s-33.5 -21 -53.5 -21zM425 736c-20 0 -36.167 7 -48.5 21s-17.166 31 -14.499 51
s11.834 37 27.501 51s33.5 21 53.5 21s36.167 -7 48.5 -21s17.166 -31 14.499 -51s-11.834 -37 -27.501 -51s-33.5 -21 -53.5 -21zM520 528h-272l-15 -120h224l-18 -144h-224l-15 -120h272l-17 -144h-432l82 672h432z" />
    <glyph glyph-name="uni0402" unicode="&#x402;" horiz-adv-x="720" 
d="M482 416c132.667 0 190.665 -70.6689 173.998 -212.002l-2 -12c-6.66699 -56.667 -18.667 -104.5 -36 -143.5s-38.666 -68.667 -63.999 -89s-52 -34.666 -80 -42.999s-59.667 -12.5 -95 -12.5l-14 144c32.667 0.666992 60.667 11.334 84 32.001s37.666 52.667 42.999 96
l1 8c4 32 -1 54.667 -15 68s-37.333 20 -70 20c-11.333 0 -25.166 -2 -41.499 -6s-29.833 -8 -40.5 -12l-17 -6l-30 -248h-160l65 528h-128l17 144h480l-17 -144h-192l-20 -156c44.667 29.333 97.334 44 158.001 44z" />
    <glyph glyph-name="uni0403" unicode="&#x403;" horiz-adv-x="528" 
d="M209 736l98 144h160l-162 -144h-96zM520 528h-272l-65 -528h-160l82 672h432z" />
    <glyph glyph-name="uni0404" unicode="&#x404;" horiz-adv-x="656" 
d="M374 128c66 0 123.334 26.001 172.001 78.001l45 -141c-32 -25.333 -69.167 -45.166 -111.5 -59.499s-83.166 -21.5 -122.499 -21.5c-101.333 0 -183.833 34.5 -247.5 103.5s-89.5 151.833 -77.5 248.5c12 97.333 58.167 180.333 138.5 249s171.166 103 272.499 103
c40 0 79.5 -7 118.5 -21s70.833 -33.667 95.5 -59l-79 -142c-34.667 52 -85.334 78 -152.001 78c-46 0 -88.833 -13.333 -128.5 -40s-68.834 -61.334 -87.501 -104.001h262l-16 -128h-262c8.66699 -42.667 29.334 -77.334 62.001 -104.001s72 -40 118 -40z" />
    <glyph glyph-name="uni0405" unicode="&#x405;" horiz-adv-x="624" 
d="M331 423c43.333 -9.33301 78.9951 -19 106.995 -29s54.167 -23.167 78.5 -39.5s41.333 -37.166 51 -62.499s12.5 -55.333 8.5 -90c-8 -64 -39.167 -116.333 -93.5 -157s-125.5 -61 -213.5 -61c-32 0 -63 3.83301 -93 11.5s-55 17 -75 28s-37.833 22 -53.5 33
s-26.834 20.167 -33.501 27.5l-11 12l88 128c56.667 -64 121.667 -96 195 -96c80.667 0 123.334 21.333 128.001 64c2 16.667 -4.33301 30.167 -19 40.5s-42.667 19.166 -84 26.499c-89.333 15.333 -153.166 40 -191.499 74s-54.166 79.667 -47.499 137
c8 61.333 38.667 113 92 155s120.333 63 201 63c16 0 34.167 -1.16699 54.5 -3.5s49.5 -10.5 87.5 -24.5s68.667 -33.333 92 -58l-86 -126c-1.33301 2 -3.5 4.5 -6.5 7.5s-9.5 8.33301 -19.5 16s-21 14.5 -33 20.5s-27.667 11.5 -47 16.5s-39.666 7.5 -60.999 7.5
c-29.333 0 -54.666 -5 -75.999 -15s-33 -24 -35 -42c-2 -16 3.83301 -28.5 17.5 -37.5s39.834 -17.833 78.501 -26.5z" />
    <glyph glyph-name="uni0406" unicode="&#x406;" horiz-adv-x="288" 
d="M183 0h-160l82 672h160z" />
    <glyph glyph-name="uni0407" unicode="&#x407;" horiz-adv-x="288" 
d="M89 736c-20 0 -36.167 7 -48.5 21s-17.166 31 -14.499 51s11.834 37 27.501 51s33.5 21 53.5 21s36.167 -7 48.5 -21s17.166 -31 14.499 -51s-11.834 -37 -27.501 -51s-33.5 -21 -53.5 -21zM297 736c-20 0 -36.167 7 -48.5 21s-17.166 31 -14.499 51s11.834 37 27.501 51
s33.5 21 53.5 21s36.167 -7 48.5 -21s17.166 -31 14.499 -51s-11.834 -37 -27.501 -51s-33.5 -21 -53.5 -21zM183 0h-160l82 672h160z" />
    <glyph glyph-name="uni0408" unicode="&#x408;" horiz-adv-x="496" 
d="M329 672h160.003l-51 -416c-10.667 -89.333 -41.834 -157 -93.501 -203s-117.167 -69 -196.5 -69c-30.667 0 -60.167 5.83301 -88.5 17.5s-49.5 26.5 -63.5 44.5l87 120c17.333 -25.333 42.666 -38 75.999 -38c29.333 0 55.166 10.333 77.499 31s35.833 51 40.5 91z" />
    <glyph glyph-name="uni0409" unicode="&#x409;" horiz-adv-x="1072" 
d="M793 408c85.333 0 147.165 -17.667 185.498 -53s53.5 -84.333 45.5 -147c-8 -66.667 -35.5 -118 -82.5 -154s-113.167 -54 -198.5 -54h-256l65 528h-192l-32 -256c-9.33301 -80 -26.166 -141.667 -50.499 -185s-66.166 -73 -125.499 -89
c-41.333 -11.333 -90 -13.333 -146 -6l17 144c43.333 -4 75.333 0 96 12c24.667 14.667 39.667 43.667 45 87l53 437h512l-32 -264h96zM750.999 144c70 0 107.668 20 113.001 60c2.66699 24 -4.83301 40 -22.5 48s-42.834 12 -75.501 12h-87l-15 -120h87z" />
    <glyph glyph-name="uni040A" unicode="&#x40a;" horiz-adv-x="1024" 
d="M745 408c85.333 0 147.167 -17.667 185.5 -53s53.5 -84.333 45.5 -147c-8 -66.667 -35.5 -118 -82.5 -154s-113.167 -54 -198.5 -54h-256l32 264h-256l-32 -264h-160l82 672h160l-32 -264h256l32 264h160l-32 -264h96zM703.001 144c70 0 107.668 20 113.001 60
c2.66699 24 -4.83301 40 -22.5 48s-42.834 12 -75.501 12h-87l-15 -120h87z" />
    <glyph glyph-name="uni040B" unicode="&#x40b;" horiz-adv-x="720" 
d="M482 416c132.667 0 190.665 -70.667 173.998 -212l-25 -204h-160l22 184c4 32 -1 54.667 -15 68s-37.333 20 -70 20c-11.333 0 -25.166 -2 -41.499 -6s-29.833 -8 -40.5 -12l-17 -6l-30 -248h-160l65 528h-128l17 144h480l-17 -144h-192l-20 -156
c44.667 29.333 97.334 44 158.001 44z" />
    <glyph glyph-name="uni040C" unicode="&#x40c;" horiz-adv-x="656" 
d="M265 736l98 144h160l-162 -144h-96zM370 352l229 -352h-192l-189 288l-35 -288h-160l82 672h160l-31 -256l239 256h192z" />
    <glyph glyph-name="uni040E" unicode="&#x40e;" horiz-adv-x="640" 
d="M459 880h80.002c-4.66699 -40 -22.834 -74 -54.501 -102s-67.5 -42 -107.5 -42s-72.167 14 -96.5 42s-34.166 62 -29.499 102h80c-2.66699 -17.333 1.66602 -32.333 12.999 -45s25.666 -19 42.999 -19s33 6.33301 47 19s22.333 27.667 25 45zM501.002 672h180l-426 -672
h-180l150 234l-168 438h180l99 -267z" />
    <glyph glyph-name="uni040F" unicode="&#x40f;" horiz-adv-x="704" 
d="M521 672h160l-82 -672h-208l-16 -128h-160l16 128h-208l82 672h160l-65 -528h256z" />
    <glyph glyph-name="uni0410" unicode="&#x410;" horiz-adv-x="704" 
d="M487 0l-29 112h-268l-55 -112h-176l360 672h148l196 -672h-176zM263 256h158l-53 208z" />
    <glyph glyph-name="uni0411" unicode="&#x411;" horiz-adv-x="640" 
d="M365 440c84 0 145.169 -20 183.502 -60s53.5 -92 45.5 -156c-8.66699 -68 -36.834 -122.333 -84.501 -163s-113.834 -61 -198.501 -61h-288l82 672h480l-17 -144h-320l-11 -88h128zM319.002 144c70 0 108.333 25.333 115 76c2.66699 24.667 -5.33301 43.5 -24 56.5
s-42.667 19.5 -72 19.5h-119l-19 -152h119z" />
    <glyph glyph-name="uni0412" unicode="&#x412;" horiz-adv-x="640" 
d="M497 353c36 -12 61.832 -31.333 77.499 -58s21.5 -57.667 17.5 -93c-8 -59.333 -34.833 -107.833 -80.5 -145.5s-103.834 -56.5 -174.501 -56.5h-314l82 672h256c80.667 0 141.834 -14.167 183.501 -42.5s58.834 -72.833 51.501 -133.5
c-3.33301 -28.667 -14.5 -57 -33.5 -85s-40.833 -47.333 -65.5 -58zM247.999 528l-14 -112h96c64 0 98.333 19 103 57c2.66699 20 -3.5 34.167 -18.5 42.5s-38.5 12.5 -70.5 12.5h-96zM311.999 144c75.333 0 115.331 21.668 119.998 65.001
c2.66699 21.333 -5.16602 37.166 -23.499 47.499s-45.166 15.5 -80.499 15.5h-112l-16 -128h112z" />
    <glyph glyph-name="uni0413" unicode="&#x413;" horiz-adv-x="528" 
d="M520 528h-272l-65 -528h-160l82 672h432z" />
    <glyph glyph-name="uni0414" unicode="&#x414;" horiz-adv-x="784" 
d="M632 144h95.999l-33 -272h-160l16 128h-400l-16 -128h-160l33 272c24 6.66699 44.833 15.5 62.5 26.5s33.5 27 47.5 48s25.833 43.167 35.5 66.5s18.834 55.833 27.501 97.5s16.167 83.5 22.5 125.5s13.5 96.667 21.5 164h472zM236.999 144h235l48 384h-160
c-12.667 -101.333 -28 -181.5 -46 -240.5s-43.667 -106.833 -77 -143.5z" />
    <glyph glyph-name="uni0415" unicode="&#x415;" horiz-adv-x="544" 
d="M520 528h-272l-15 -120h224l-18 -144h-224l-15 -120h272l-17 -144h-432l82 672h432z" />
    <glyph glyph-name="uni0416" unicode="&#x416;" horiz-adv-x="1024" 
d="M728 340l239 -340h-192l-191 272l-33 -272h-160l33 272l-257 -272h-192l321 340l-223 332h192l175 -272l33 272h160l-33 -272l241 272h192z" />
    <glyph glyph-name="uni0417" unicode="&#x417;" 
d="M201 276l14.001 120c50.667 0 96.167 6.16699 136.5 18.5s62.166 32.166 65.499 59.499c2.66699 19.333 -2.66602 34.5 -15.999 45.5s-27.333 17.833 -42 20.5s-31 4 -49 4c-58.667 0 -118.334 -18.667 -179.001 -56l-53 112c36.667 28 79.334 49.667 128.001 65
s95.667 23 141 23c74 0 133 -18 177 -54s62.333 -84.667 55 -146c-8 -62.667 -42 -108.667 -102 -138c28.667 -9.33301 50.667 -27.666 66 -54.999s20.666 -59 15.999 -95c-8 -63.333 -39 -115.166 -93 -155.499s-124.667 -60.5 -212 -60.5c-50 0 -97.667 8.5 -143 25.5
s-82.333 39.167 -111 66.5l86 114c18 -17.333 42.167 -32 72.5 -44s63.5 -18 99.5 -18c88 0 135 22.333 141 67c3.33301 29.333 -14.167 50.166 -52.5 62.499s-86.833 18.5 -145.5 18.5z" />
    <glyph glyph-name="uni0418" unicode="&#x418;" horiz-adv-x="752" 
d="M265 672l-51 -416l355 416h160l-82 -672h-160l51 416l-355 -416h-160l82 672h160z" />
    <glyph glyph-name="uni0419" unicode="&#x419;" horiz-adv-x="752" 
d="M507 880h80.002c-4.66699 -40 -22.834 -74 -54.501 -102s-67.5 -42 -107.5 -42s-72.167 14 -96.5 42s-34.166 62 -29.499 102h80c-2.66699 -17.333 1.66602 -32.333 12.999 -45s25.666 -19 42.999 -19s33 6.33301 47 19s22.333 27.667 25 45zM265.002 672l-51 -416
l355 416h160l-82 -672h-160l51 416l-355 -416h-160l82 672h160z" />
    <glyph glyph-name="uni041A" unicode="&#x41a;" horiz-adv-x="656" 
d="M370 352l229 -352h-192l-189 288l-35 -288h-160l82 672h160l-31 -256l239 256h192z" />
    <glyph glyph-name="uni041B" unicode="&#x41b;" horiz-adv-x="752" 
d="M729 672l-82.002 -672h-160l65 528h-192l-32 -256c-9.33301 -80 -26.166 -141.667 -50.499 -185s-66.166 -73 -125.499 -89c-41.333 -11.333 -90 -13.333 -146 -6l17 144c43.333 -4 75.333 0 96 12c24.667 14.667 39.667 43.667 45 87l53 437h512z" />
    <glyph glyph-name="uni041C" unicode="&#x41c;" horiz-adv-x="864" 
d="M793 672l-2 -672h-160l-1 384l-191 -384h-96l-97 384l-95 -384h-160l162 672h160l111 -400l209 400h160z" />
    <glyph glyph-name="uni041D" unicode="&#x41d;" horiz-adv-x="704" 
d="M521 672h160l-82 -672h-160l32 264h-256l-32 -264h-160l82 672h160l-32 -264h256z" />
    <glyph glyph-name="uni041E" unicode="&#x41e;" horiz-adv-x="784" 
d="M435 688c99.333 0 180 -34.333 242 -103s87 -151.667 75 -249s-57.333 -180.333 -136 -249s-167.667 -103 -267 -103s-180 34.333 -242 103s-87 151.667 -75 249s57.333 180.333 136 249s167.667 103 267 103zM366 128c55.333 0 105.166 20.333 149.499 61
s69.833 89.667 76.5 147s-6.83301 106.333 -40.5 147s-78.167 61 -133.5 61s-105.166 -20.333 -149.499 -61s-69.833 -89.667 -76.5 -147s6.83301 -106.333 40.5 -147s78.167 -61 133.5 -61z" />
    <glyph glyph-name="uni041F" unicode="&#x41f;" horiz-adv-x="704" 
d="M681 672l-82 -672h-160l65 528h-256l-65 -528h-160l82 672h576z" />
    <glyph glyph-name="uni0420" unicode="&#x420;" horiz-adv-x="624" 
d="M377 672c84.667 0 146.168 -20.333 184.501 -61s53.166 -95 44.499 -163c-8 -64 -35.167 -118.667 -81.5 -164s-103.5 -68 -171.5 -68h-144l-26 -216h-160l82 672h272zM338.001 360c27.333 0 51.332 7.66699 71.999 23s32.334 35.666 35.001 60.999
c4 28.667 -2.16699 49.834 -18.5 63.501s-38.833 20.5 -67.5 20.5h-111l-21 -168h111z" />
    <glyph glyph-name="uni0421" unicode="&#x421;" horiz-adv-x="656" 
d="M374 128c66 0 123.333 25.999 172 77.999l45 -141c-32 -25.333 -69.167 -45.166 -111.5 -59.499s-83.166 -21.5 -122.499 -21.5c-101.333 0 -183.833 34.5 -247.5 103.5s-89.5 151.833 -77.5 248.5c12 97.333 58.167 180.333 138.5 249s171.166 103 272.499 103
c40 0 79.5 -7 118.5 -21s70.833 -33.667 95.5 -59l-79 -142c-34.667 52 -85.334 78 -152.001 78c-57.333 0 -109 -20.333 -155 -61s-72.333 -89.667 -79 -147c-7.33301 -57.333 6.83398 -106.333 42.501 -147s82.167 -61 139.5 -61z" />
    <glyph glyph-name="uni0422" unicode="&#x422;" horiz-adv-x="576" 
d="M73 672h512l-17 -144h-176l-65 -528h-160l65 528h-176z" />
    <glyph glyph-name="uni0423" unicode="&#x423;" horiz-adv-x="640" 
d="M501 672h180l-426 -672h-180l150 234l-168 438h180l99 -267z" />
    <glyph glyph-name="uni0424" unicode="&#x424;" horiz-adv-x="832" 
d="M802 352c-10 -82 -47.501 -150.5 -112.501 -205.5s-140.5 -82.5 -226.5 -82.5l-8 -64h-160l8 64c-86 0 -154.833 27.5 -206.5 82.5s-72.5 123.5 -62.5 205.5c10.667 83.333 48.667 152.166 114 206.499s140.333 81.5 225 81.5l8 64h160l-8 -64
c84.667 0 153.334 -27.167 206.001 -81.5s73.667 -123.166 63 -206.499zM319.999 208l35.999 288.001c-38 0 -73 -12 -105 -36s-51 -60 -57 -108c-6 -48.667 3.83301 -84.834 29.5 -108.501s57.834 -35.5 96.501 -35.5zM479.998 208.001
c38.667 0 73.834 11.832 105.501 35.499s50.5 59.834 56.5 108.501c6 48 -3.83301 84 -29.5 108s-57.834 36 -96.501 36z" />
    <glyph glyph-name="uni0425" unicode="&#x425;" horiz-adv-x="720" 
d="M466 352l197 -352h-192l-124 231l-180 -231h-192l283 352l-185 320h185l117 -212l169 212h185z" />
    <glyph glyph-name="uni0426" unicode="&#x426;" horiz-adv-x="784" 
d="M616 144h96l-33 -272h-160l16 128h-512l82 672h160l-65 -528h256l65 528h160z" />
    <glyph glyph-name="uni0427" unicode="&#x427;" horiz-adv-x="656" 
d="M256 208c-69.333 0 -121.5 20.6689 -156.5 62.002s-47.5 100.666 -37.5 177.999l27 224h160l-25 -208c-10 -74.667 20 -112 90 -112c13.333 0 30.333 2.66699 51 8s38 10.666 52 15.999l21 8l35 288h160l-82 -672h-160l30 244c-57.333 -24 -112.333 -36 -165 -36z" />
    <glyph glyph-name="uni0428" unicode="&#x428;" horiz-adv-x="928" 
d="M745 672h160l-82 -672h-800l82 672h160l-65 -528h160l65 528h160l-65 -528h160z" />
    <glyph glyph-name="uni0429" unicode="&#x429;" horiz-adv-x="1008" 
d="M840 144h96l-33 -272h-160l16 128h-736l82 672h160l-65 -528h160l65 528h160l-65 -528h160l65 528h160z" />
    <glyph glyph-name="uni042A" unicode="&#x42a;" horiz-adv-x="720" 
d="M445 440c84 0 145.169 -20 183.502 -60s53.5 -92 45.5 -156c-8.66699 -68 -36.834 -122.333 -84.501 -163s-113.834 -61 -198.501 -61h-272l65 528h-128l17 144h288l-28 -232h112zM399.002 144c70 0 108.333 25.333 115 76c2.66699 24.667 -5.33301 43.5 -24 56.5
s-42.667 19.5 -72 19.5h-103l-19 -152h103z" />
    <glyph glyph-name="uni042B" unicode="&#x42b;" horiz-adv-x="896" 
d="M349 440c84 0 145.169 -20 183.502 -60s53.5 -92 45.5 -156c-8.66699 -68 -36.834 -122.333 -84.501 -163s-113.834 -61 -198.501 -61h-272l82 672h160l-28 -232h112zM791.002 0h-160l82 672h160zM303.002 144c70 0 108.333 25.333 115 76
c2.66699 24.667 -5.33301 43.5 -24 56.5s-42.667 19.5 -72 19.5h-103l-19 -152h103z" />
    <glyph glyph-name="uni042C" unicode="&#x42c;" horiz-adv-x="624" 
d="M349 440c84 0 145.169 -20 183.502 -60s53.5 -92 45.5 -156c-8.66699 -68 -36.834 -122.333 -84.501 -163s-113.834 -61 -198.501 -61h-272l82 672h160l-28 -232h112zM303.002 144c70 0 108.333 25.333 115 76c2.66699 24.667 -5.33301 43.5 -24 56.5
s-42.667 19.5 -72 19.5h-103l-19 -152h103z" />
    <glyph glyph-name="uni042D" unicode="&#x42d;" horiz-adv-x="656" 
d="M230 128c46 0 88.832 13.332 128.499 39.999s68.834 61.334 87.501 104.001h-262l16 128h262c-8.66699 42.667 -29.334 77.334 -62.001 104.001s-72 40 -118 40c-66.667 0 -124 -26 -172 -78l-45 142c31.333 25.333 68.166 45 110.499 59s83.5 21 123.5 21
c101.333 0 183.833 -34.5 247.5 -103.5s89.5 -151.833 77.5 -248.5c-12 -97.333 -58.167 -180.333 -138.5 -249s-171.166 -103 -272.499 -103c-39.333 0 -78.666 7.16699 -117.999 21.5s-71.333 34.166 -96 59.499l79 141c35.333 -52 86 -78 152 -78z" />
    <glyph glyph-name="uni042E" unicode="&#x42e;" horiz-adv-x="1072" 
d="M723 688c99.333 0 179.999 -34.333 241.999 -103s87 -151.667 75 -249s-57.333 -180.333 -136 -249s-167.667 -103 -267 -103c-86 0 -158.667 26.5 -218 79.5s-92.666 119.833 -99.999 200.5h-104l-32 -264h-160l82 672h160l-32 -264h104
c26.667 80.667 76.167 147.5 148.5 200.5s151.5 79.5 237.5 79.5zM653.999 128c55.333 0 105.166 20.333 149.499 61s69.833 89.667 76.5 147s-6.83301 106.333 -40.5 147s-78.167 61 -133.5 61s-105.166 -20.333 -149.499 -61s-69.833 -89.667 -76.5 -147
s6.83301 -106.333 40.5 -147s78.167 -61 133.5 -61z" />
    <glyph glyph-name="uni042F" unicode="&#x42f;" horiz-adv-x="656" 
d="M-9 0l197.997 231.001c-41.333 17.333 -71.666 45.666 -90.999 84.999s-26 83.333 -20 132c8.66699 68 36.834 122.333 84.501 163s113.834 61 198.501 61h272l-82 -672h-160l26 216h-66l-176 -216h-184zM455.997 528.001l-110.999 0.000976562
c-28.667 0 -52.834 -6.83301 -72.501 -20.5s-31.5 -34.834 -35.5 -63.501c-2.66699 -26 4.33301 -46.5 21 -61.5s38.667 -22.5 66 -22.5h111z" />
    <glyph glyph-name="uni0430" unicode="&#x430;" horiz-adv-x="640" 
d="M551 0l-160 -0.000976562c-4.66699 8.66699 -7.66699 22.334 -9 41.001c-45.333 -38 -96.333 -57 -153 -57c-66.667 0 -120.167 25.833 -160.5 77.5s-56.166 113.834 -47.499 186.501c9.33301 73.333 40.5 135.666 93.5 186.999s112.833 77 179.5 77
c55.333 0 100.666 -19.333 135.999 -58l6 42h160l-49 -400c-6 -48 -4.66699 -80 4 -96zM278 127.999c30.667 0 58.5 11.667 83.5 35s39.5 51.666 43.5 84.999s-3.5 61.666 -22.5 84.999s-43.833 35 -74.5 35s-58.5 -11.667 -83.5 -35s-39.5 -51.666 -43.5 -84.999
s3.5 -61.666 22.5 -84.999s43.833 -35 74.5 -35z" />
    <glyph glyph-name="uni0431" unicode="&#x431;" 
d="M565 248c-9.33301 -74.667 -42.498 -137.331 -99.498 -187.998s-125.167 -76 -204.5 -76c-82.667 0 -145.667 25.167 -189 75.5s-60.333 113.166 -51 188.499c15.333 127.333 80.333 232.666 195 315.999l35.5 25.5c16.333 11.667 27.333 19.667 33 24l25.5 20
c11.333 9 19.833 16.5 25.5 22.5s12 13.167 19 21.5s13.167 17.166 18.5 26.499h168c-14.667 -54.667 -61.334 -101.667 -140.001 -141c-35.333 -18 -62 -35 -80 -51c81.333 0 144.666 -25.167 189.999 -75.5s63.333 -113.166 54 -188.499zM278.002 128.003
c30.667 0 58.5 11.667 83.5 35s39.5 51.666 43.5 84.999s-3.5 61.666 -22.5 84.999s-43.833 35 -74.5 35s-58.5 -11.667 -83.5 -35s-39.5 -51.666 -43.5 -84.999s3.5 -61.666 22.5 -84.999s43.833 -35 74.5 -35z" />
    <glyph glyph-name="uni0432" unicode="&#x432;" horiz-adv-x="576" 
d="M439 261c21.333 -6 38.501 -18.8311 51.501 -38.498s18.167 -41.834 15.5 -66.501c-7.33301 -56.667 -32.5 -96.834 -75.5 -120.501s-104.167 -35.5 -183.5 -35.5h-224l61 496h208c78 0 136 -11 174 -33s54 -57.667 48 -107c-2.66699 -21.333 -11.334 -41 -26.001 -59
s-31 -30 -49 -36zM228.001 368.002l-9 -71.999h78c33.333 0 51.666 12 54.999 36c1.33301 13.333 -2.66699 22.666 -12 27.999s-20.666 8 -33.999 8h-78zM291.001 128.003c14 0 26.5 3.5 37.5 10.5s17.167 16.833 18.5 29.5c2 13.333 -1.66699 23.333 -11 30s-21 10 -35 10
h-93l-10 -80h93z" />
    <glyph glyph-name="uni0433" unicode="&#x433;" horiz-adv-x="448" 
d="M226 352l-43 -352h-160l61 496h352l-18 -144h-192z" />
    <glyph glyph-name="uni0434" unicode="&#x434;" horiz-adv-x="704" 
d="M552 144l79.999 0.000976562l-33 -272h-160l16 128h-304l-16 -128h-160l33 272c30 2.66699 55.833 12.5 77.5 29.5s39.5 42 53.5 75s25.333 68.667 34 107s16.334 85.166 23.001 140.499h400zM240.999 144.001h150.999l26 208h-104
c-11.333 -98 -35.666 -167.333 -72.999 -208z" />
    <glyph glyph-name="uni0435" unicode="&#x435;" horiz-adv-x="576" 
d="M533 248c-0.666992 -10.667 -3.00098 -24.002 -7.00098 -40.002h-342c4 -24.667 15.667 -44.167 35 -58.5s45.333 -21.5 78 -21.5c48 0 97.667 10 149 30l29 -127c-6 -3.33301 -14.333 -7.66602 -25 -12.999s-33.167 -12.333 -67.5 -21s-69.833 -13 -106.5 -13
c-94.667 0 -163.167 24.667 -205.5 74s-58.833 112.666 -49.5 189.999c9.33301 76.667 40 139.834 92 189.501s120.333 74.5 205 74.5c78.667 0 136.834 -23.167 174.501 -69.5s51.167 -111.166 40.5 -194.499zM195.999 303.998h175.999c2 19.333 -3.66699 37.5 -17 54.5
s-33.666 25.5 -60.999 25.5c-24 0 -45.833 -8.66699 -65.5 -26s-30.5 -35.333 -32.5 -54z" />
    <glyph glyph-name="uni0436" unicode="&#x436;" horiz-adv-x="896" 
d="M662 256l177 -256h-192l-136 200l-24 -200h-160l24 200l-184 -200h-192l239 256l-162 240h192l120 -192l24 192h160l-24 -192l168 192h192z" />
    <glyph glyph-name="uni0437" unicode="&#x437;" horiz-adv-x="528" 
d="M178 128c77.333 0 117.666 12.668 120.999 38.001c4 28 -47.667 42 -155 42l10 80c101.333 0 153.666 13.667 156.999 41c1.33301 12 -6 21.5 -22 28.5s-38.333 10.5 -67 10.5c-51.333 0 -99 -13.333 -143 -40l-29 122c30 19.333 64.333 34.5 103 45.5
s74.334 16.5 107.001 16.5c74 0 129.833 -12.833 167.5 -38.5s53.5 -62.834 47.5 -111.501c-2.66699 -20.667 -11.334 -40 -26.001 -58s-33 -31.333 -55 -40c21.333 -9.33301 37.833 -24.833 49.5 -46.5s16.167 -44.167 13.5 -67.5
c-6.66699 -53.333 -33.167 -94.333 -79.5 -123s-106.166 -43 -179.499 -43c-82.667 0 -150 20.333 -202 61l54 115c36.667 -21.333 79.334 -32 128.001 -32z" />
    <glyph glyph-name="uni0438" unicode="&#x438;" horiz-adv-x="640" 
d="M547 96c-6 -48 -4.66699 -80 4 -96h-160c-8.66699 16 -10 48 -4 96l22 184l-226 -280h-160l61 496h160l-35 -280l227 280h160z" />
    <glyph glyph-name="uni0439" unicode="&#x439;" horiz-adv-x="640" 
d="M429 704h80.001c-5.33301 -40 -23.5 -74 -54.5 -102s-66.5 -42 -106.5 -42s-72.333 14 -97 42s-34.667 62 -30 102h80c-2 -17.333 2.5 -32.333 13.5 -45s25.167 -19 42.5 -19s33.166 6.33301 47.499 19s22.5 27.667 24.5 45zM547.001 96c-6 -48 -4.66699 -80 4 -96h-160
c-8.66699 16 -10 48 -4 96l22 184l-226 -280h-160l61 496h160l-35 -280l227 280h160z" />
    <glyph glyph-name="uni043A" unicode="&#x43a;" horiz-adv-x="592" 
d="M358 256l193 -256h-192l-152 196l-24 -196h-160l61 496h160l-23 -188l183 188h192z" />
    <glyph glyph-name="uni043B" unicode="&#x43b;" horiz-adv-x="640" 
d="M547 96c-6 -48 -4.66797 -80 3.99902 -96h-160c-8.66699 16 -10 48 -4 96l31 256h-120l-20 -163c-8.66699 -69.333 -27 -120.833 -55 -154.5s-68 -50.5 -120 -50.5c-32 0 -64 5.33301 -96 16l15 128c62.667 -16 97.334 5.33301 104.001 64l38 304h432z" />
    <glyph glyph-name="uni043C" unicode="&#x43c;" horiz-adv-x="752" 
d="M539 0l-12 252l-120 -252h-144l-58 252l-74 -252h-156l152 496h156l76 -297l150 297h156l30 -496h-156z" />
    <glyph glyph-name="uni043D" unicode="&#x43d;" horiz-adv-x="624" 
d="M531 96c-6 -48 -4.66699 -80 4 -96h-160c-8.66699 16 -10 48 -4 96l9 80h-176l-21 -176h-160l61 496h160l-22 -176h176l22 176h160z" />
    <glyph glyph-name="uni043E" unicode="&#x43e;" 
d="M326 512c78.667 0 140.502 -25.4971 185.502 -76.4971s62.833 -113.5 53.5 -187.5c-9.33301 -74.667 -42.5 -137.334 -99.5 -188.001s-125.167 -76 -204.5 -76c-82.667 0 -145.667 25.167 -189 75.5s-60.333 113.166 -51 188.499s41.666 138.166 96.999 188.499
s124.666 75.5 207.999 75.5zM278.002 128.003c30.667 0 58.5 11.667 83.5 35s39.5 51.666 43.5 84.999s-3.5 61.666 -22.5 84.999s-43.833 35 -74.5 35s-58.5 -11.667 -83.5 -35s-39.5 -51.666 -43.5 -84.999s3.5 -61.666 22.5 -84.999s43.833 -35 74.5 -35z" />
    <glyph glyph-name="uni043F" unicode="&#x43f;" horiz-adv-x="624" 
d="M531 96c-6 -48 -4.66699 -80 4 -96h-160c-8.66699 16 -10 48 -4 96l31 256h-176l-43 -352h-160l61 496h496z" />
    <glyph glyph-name="uni0440" unicode="&#x440;" horiz-adv-x="640" 
d="M390 512c66.667 0 120.168 -25.6689 160.501 -77.002s55.833 -113.666 46.5 -186.999s-40.333 -135.666 -93 -186.999s-112.334 -77 -179.001 -77c-56 0 -101.667 19.333 -137 58l-37 -298h-160l93 752h160l-6 -42c46 38.667 96.667 58 152 58zM310.001 127.998
c30.667 0 58.5 11.667 83.5 35s39.5 51.666 43.5 84.999s-3.5 61.666 -22.5 84.999s-43.833 35 -74.5 35s-58.5 -11.667 -83.5 -35s-39.5 -51.666 -43.5 -84.999s3.5 -61.666 22.5 -84.999s43.833 -35 74.5 -35z" />
    <glyph glyph-name="uni0441" unicode="&#x441;" horiz-adv-x="528" 
d="M418 173l42.0029 -128c-47.333 -40.667 -112.333 -61 -195 -61c-84.667 0 -148.834 25.167 -192.501 75.5s-60.834 113.166 -51.501 188.499s42.166 138.166 98.499 188.499s126.5 75.5 210.5 75.5c81.333 0 141.333 -20.333 180 -61l-74 -129
c-30.667 30.667 -68.667 46 -114 46c-34.667 0 -65.834 -11.667 -93.501 -35s-43.5 -51.666 -47.5 -84.999s4.83301 -61.666 26.5 -84.999s49.834 -35 84.501 -35c45.333 0 87.333 15 126 45z" />
    <glyph glyph-name="uni0442" unicode="&#x442;" horiz-adv-x="512" 
d="M52 496h448l-18 -144h-144l-43 -352h-160l43 352h-144z" />
    <glyph glyph-name="uni0443" unicode="&#x443;" horiz-adv-x="544" 
d="M388 496h176l-397 -752h-176l165 292l-136 460h176l62 -272z" />
    <glyph glyph-name="uni0444" unicode="&#x444;" horiz-adv-x="960" 
d="M710 512c66.667 0 120.168 -25.6689 160.501 -77.002s55.833 -113.666 46.5 -186.999s-40.333 -135.666 -93 -186.999s-112.334 -77 -179.001 -77c-42 0 -83.667 8.66699 -125 26l-27 -218h-160l27 218c-46 -17.333 -89.667 -26 -131 -26
c-66.667 0 -120.167 25.833 -160.5 77.5s-56.166 113.834 -47.499 186.501c9.33301 73.333 40.5 135.666 93.5 186.999s112.833 77 179.5 77c41.333 0 82.666 -8.66699 123.999 -26l27 218h160l-27 -218c46 17.333 90 26 132 26zM270.001 127.998
c31.333 0 57.8301 10.8291 79.4971 32.4961s34.834 50.834 39.501 87.501s-1.16602 65.834 -17.499 87.501s-40.166 32.5 -71.499 32.5c-28.667 0 -54.667 -11.667 -78 -35s-37 -51.666 -41 -84.999s2.66699 -61.666 20 -84.999s40.333 -35 69 -35zM637.998 127.994
c28.667 0 54.6699 11.6709 78.0029 35.0039s37 51.666 41 84.999s-2.66699 61.666 -20 84.999s-40.333 35 -69 35c-31.333 0 -57.833 -10.833 -79.5 -32.5s-34.834 -50.834 -39.501 -87.501s1.16602 -65.834 17.499 -87.501s40.166 -32.5 71.499 -32.5z" />
    <glyph glyph-name="uni0445" unicode="&#x445;" 
d="M391 264l160 -264h-192l-79 140l-113 -140h-192l224 264l-147 232h192l64 -124l96 124h192z" />
    <glyph glyph-name="uni0446" unicode="&#x446;" horiz-adv-x="704" 
d="M536 144h96l-33 -272h-160l16 128h-432l61 496h160l-44 -352h176l44 352h160z" />
    <glyph glyph-name="uni0447" unicode="&#x447;" horiz-adv-x="592" 
d="M499 96c-6 -48 -4.66992 -80 3.99707 -96h-160c-8.66699 16 -10 48 -4 96l9 80c-51.333 -16 -97.666 -24 -138.999 -24c-55.333 0 -97.666 16.333 -126.999 49s-40 83 -32 151l18 144h160l-16 -126c-3.33301 -26 0.333984 -44.833 11.001 -56.5
s29.334 -17.5 56.001 -17.5c33.333 0 61.666 3.66699 84.999 11l24 189h160z" />
    <glyph glyph-name="uni0448" unicode="&#x448;" horiz-adv-x="864" 
d="M660 496h160l-61 -496h-736l61 496h160l-44 -352h128l44 352h160l-44 -352h128z" />
    <glyph glyph-name="uni0449" unicode="&#x449;" horiz-adv-x="944" 
d="M776 144h96l-33 -272h-160l16 128h-672l61 496h160l-44 -352h128l44 352h160l-44 -352h128l44 352h160z" />
    <glyph glyph-name="uni044A" unicode="&#x44a;" horiz-adv-x="656" 
d="M392 336c74 0 129.5 -13.167 166.5 -39.5s52.167 -67.833 45.5 -124.5c-7.33301 -57.333 -33 -100.333 -77 -129s-102.667 -43 -176 -43h-232l43 352h-128l18 144h288l-20 -160h72zM379 128c16.667 0 31.1689 3.5 43.502 10.5s19.166 16.833 20.499 29.5
c2 13.333 -2.33301 23.333 -13 30s-24.334 10 -41.001 10h-85l-10 -80h85z" />
    <glyph glyph-name="uni044B" unicode="&#x44b;" horiz-adv-x="832" 
d="M23 0l61 496h160l-20 -160h72c74 0 129.5 -13.167 166.5 -39.5s52.167 -67.833 45.5 -124.5c-7.33301 -57.333 -33 -100.333 -77 -129s-102.667 -43 -176 -43h-232zM788 496l-49 -400c-6 -48 -4.66699 -80 4 -96h-160c-8.66699 16 -10 48 -4 96l49 400h160zM283 128
c16.667 0 31.1689 3.5 43.502 10.5s19.166 16.833 20.499 29.5c2 13.333 -2.33301 23.333 -13 30s-24.334 10 -41.001 10h-85l-10 -80h85z" />
    <glyph glyph-name="uni044C" unicode="&#x44c;" horiz-adv-x="560" 
d="M23 0l61 496h160l-20 -160h72c74 0 129.5 -13.167 166.5 -39.5s52.167 -67.833 45.5 -124.5c-7.33301 -57.333 -33 -100.333 -77 -129s-102.667 -43 -176 -43h-232zM283 128c16.667 0 31.1689 3.5 43.502 10.5s19.166 16.833 20.499 29.5
c2 13.333 -2.33301 23.333 -13 30s-24.334 10 -41.001 10h-85l-10 -80h85z" />
    <glyph glyph-name="uni044D" unicode="&#x44d;" horiz-adv-x="528" 
d="M184 128c28.667 0 55.332 8.16504 79.999 24.498s42.334 37.5 53.001 63.5h-172l8 64h171c-4 26 -16.167 47.167 -36.5 63.5s-44.833 24.5 -73.5 24.5c-44.667 0 -86.667 -15.333 -126 -46l-42 129c50 40.667 115.333 61 196 61c84 0 147.833 -25.167 191.5 -75.5
s60.834 -113.166 51.501 -188.499s-41.833 -138.166 -97.5 -188.499s-125.834 -75.5 -210.501 -75.5c-82.667 0 -143 20.333 -181 61l74 128c32 -30 70 -45 114 -45z" />
    <glyph glyph-name="uni044E" unicode="&#x44e;" horiz-adv-x="896" 
d="M614 512c78.667 0 140.5 -25.4971 185.5 -76.4971s62.833 -113.5 53.5 -187.5c-9.33301 -74.667 -42.5 -137.334 -99.5 -188.001s-125.167 -76 -204.5 -76c-68 0 -123 17.667 -165 53s-67 81.666 -75 138.999h-105l-21 -176h-160l61 496h160l-22 -176h105
c22 57.333 58.167 103.666 108.5 138.999s109.833 53 178.5 53zM566 128.003c30.667 0 58.5 11.667 83.5 35s39.5 51.666 43.5 84.999s-3.5 61.666 -22.5 84.999s-43.833 35 -74.5 35s-58.5 -11.667 -83.5 -35s-39.5 -51.666 -43.5 -84.999s3.5 -61.666 22.5 -84.999
s43.833 -35 74.5 -35z" />
    <glyph glyph-name="uni044F" unicode="&#x44f;" horiz-adv-x="592" 
d="M499 96c-6 -48 -4.66699 -80 4 -96h-160c-8.66699 16 -10 48 -4 96l7 64l-163 -160h-192l181 173c-34 5.33301 -62 22 -84 50s-30.667 60.333 -26 97c14.667 117.333 102 176 262 176h224zM271 272l89 -0.00195312l12 96h-89c-14.667 0 -28 -4.16699 -40 -12.5
s-19 -20.166 -21 -35.499s2 -27.166 12 -35.499s22.333 -12.5 37 -12.5z" />
    <glyph glyph-name="uni0451" unicode="&#x451;" horiz-adv-x="576" 
d="M211 560c-20 0 -36.333 7 -49 21s-17.667 31 -15 51s11.834 37 27.501 51s33.5 21 53.5 21s36.167 -7 48.5 -21s17.166 -31 14.499 -51s-11.667 -37 -27 -51s-33 -21 -53 -21zM419 560c-20 0 -36.333 7 -49 21s-17.667 31 -15 51s11.834 37 27.501 51s33.5 21 53.5 21
s36.167 -7 48.5 -21s17.166 -31 14.499 -51s-11.667 -37 -27 -51s-33 -21 -53 -21zM533 248c-0.666992 -10.667 -3.00098 -24.002 -7.00098 -40.002h-342c4 -24.667 15.667 -44.167 35 -58.5s45.333 -21.5 78 -21.5c48 0 97.667 10 149 30l29 -127
c-6 -3.33301 -14.333 -7.66602 -25 -12.999s-33.167 -12.333 -67.5 -21s-69.833 -13 -106.5 -13c-94.667 0 -163.167 24.667 -205.5 74s-58.833 112.666 -49.5 189.999c9.33301 76.667 40 139.834 92 189.501s120.333 74.5 205 74.5c78.667 0 136.834 -23.167 174.501 -69.5
s51.167 -111.166 40.5 -194.499zM195.999 303.998h175.999c2 19.333 -3.66699 37.5 -17 54.5s-33.666 25.5 -60.999 25.5c-24 0 -45.833 -8.66699 -65.5 -26s-30.5 -35.333 -32.5 -54z" />
    <glyph glyph-name="uni0452" unicode="&#x452;" horiz-adv-x="624" 
d="M406 512c54 0 97.165 -19.5 129.498 -58.5s43.833 -94.167 34.5 -165.5l-35 -288c-8 -53.333 -20.667 -98.5 -38 -135.5s-38.666 -65 -63.999 -84s-51.666 -32.5 -78.999 -40.5s-58.333 -12 -93 -12l-14 144c32.667 0.666992 60.834 11.334 84.501 32.001
s38.167 52.667 43.5 96l33 272c8 64 -14.667 96 -68 96c-9.33301 0 -19.333 -1.66699 -30 -5s-21.667 -8.83301 -33 -16.5s-21.333 -19.334 -30 -35.001s-14.334 -34.167 -17.001 -55.5l-31 -256h-160l67 544h-64l9 80h64l10 80h160l-10 -80h64l-9 -80h-64l-12 -96
c41.333 42.667 92 64 152 64z" />
    <glyph glyph-name="uni0453" unicode="&#x453;" horiz-adv-x="448" 
d="M156 560l97 144h160l-161 -144h-96zM226 352l-43 -352h-160l61 496h352l-18 -144h-192z" />
    <glyph glyph-name="uni0454" unicode="&#x454;" horiz-adv-x="528" 
d="M292 128c45.333 0 87.3369 15.002 126.004 45.002l42 -128c-47.333 -40.667 -112.333 -61 -195 -61c-84.667 0 -148.834 25.167 -192.501 75.5s-60.834 113.166 -51.501 188.499s42.166 138.166 98.499 188.499s126.5 75.5 210.5 75.5c81.333 0 141.333 -20.333 180 -61
l-74 -129c-30.667 30.667 -68.667 46 -114 46c-28.667 0 -55.334 -8.33301 -80.001 -25s-42 -37.667 -52 -63h171l-8 -64h-172c4.66699 -26 17.167 -47.167 37.5 -63.5s44.833 -24.5 73.5 -24.5z" />
    <glyph glyph-name="uni0455" unicode="&#x455;" horiz-adv-x="544" 
d="M289 325c78 -8.66699 132.501 -25.9971 163.501 -51.9971s43.5 -63.667 37.5 -113c-6 -53.333 -32.167 -96 -78.5 -128s-111.833 -48 -196.5 -48c-42 0 -81.333 5.16699 -118 15.5s-62.667 20.5 -78 30.5l-23 16l59 130c16 -12.667 36.833 -23.5 62.5 -32.5
s47.167 -14.833 64.5 -17.5l27 -4c77.333 -7.33301 117.333 0.333984 120 23.001c0.666992 6 -0.333008 10.667 -3 14s-9 6.33301 -19 9s-19.667 4.66699 -29 6s-26 3.33301 -50 6c-40.667 5.33301 -74.334 14.166 -101.001 26.499s-45.334 27 -56.001 44
s-17.5 32.833 -20.5 47.5s-3.5 30 -1.5 46c6.66699 51.333 31.167 92.166 73.5 122.499s103.166 45.5 182.499 45.5c76.667 0 138.334 -13.667 185.001 -41l-53 -129c-47.333 24.667 -96 37 -146 37c-52 0 -78.667 -7 -80 -21
c-1.33301 -10.667 6.33398 -18.334 23.001 -23.001c8 -2.66699 22.333 -5.33398 43 -8.00098z" />
    <glyph glyph-name="uni0456" unicode="&#x456;" horiz-adv-x="288" 
d="M172 560c-26.667 0 -48.332 9.33301 -64.999 28s-23.334 41.334 -20.001 68.001s15.5 49.334 36.5 68.001s44.833 28 71.5 28s48.167 -9.33301 64.5 -28s22.833 -41.334 19.5 -68.001c-2.66699 -26.667 -14.5 -49.334 -35.5 -68.001s-44.833 -28 -71.5 -28zM244.002 496
l-49 -400c-6 -48 -4.66699 -80 4 -96h-160c-8.66699 16 -10 48 -4 96l49 400h160z" />
    <glyph glyph-name="uni0457" unicode="&#x457;" horiz-adv-x="288" 
d="M68 560c-20 0 -36.333 7 -49 21s-17.667 31 -15 51s11.834 37 27.501 51s33.5 21 53.5 21s36.167 -7 48.5 -21s17.166 -31 14.499 -51s-11.667 -37 -27 -51s-33 -21 -53 -21zM276 560c-20 0 -36.333 7 -49 21s-17.667 31 -15 51s11.834 37 27.501 51s33.5 21 53.5 21
s36.167 -7 48.5 -21s17.166 -31 14.499 -51s-11.667 -37 -27 -51s-33 -21 -53 -21zM244 496l-49 -400c-6 -48 -4.66699 -80 4 -96h-160c-8.66699 16 -10 48 -4 96l49 400h160z" />
    <glyph glyph-name="uni0458" unicode="&#x458;" horiz-adv-x="288" 
d="M172 560c-26.667 0 -48.332 9.33301 -64.999 28s-23.334 41.334 -20.001 68.001s15.5 49.334 36.5 68.001s44.833 28 71.5 28s48.167 -9.33301 64.5 -28s22.833 -41.334 19.5 -68.001c-2.66699 -26.667 -14.5 -49.334 -35.5 -68.001s-44.833 -28 -71.5 -28zM23.002 0
l60.999 495.998h160l-59 -480c-6.66699 -56.667 -18.667 -104.5 -36 -143.5s-38.833 -68.667 -64.5 -89s-52.5 -34.666 -80.5 -42.999s-59.667 -12.5 -95 -12.5l-14 144c32.667 0.666992 60.834 11.334 84.501 32.001s38.167 52.667 43.5 96z" />
    <glyph glyph-name="uni0459" unicode="&#x459;" horiz-adv-x="896" 
d="M632 336c74 0 129.499 -13.167 166.499 -39.5s52.167 -67.833 45.5 -124.5c-7.33301 -57.333 -33 -100.333 -77 -129s-102.667 -43 -176 -43h-216l43 352h-120l-20 -163c-8.66699 -69.333 -27 -120.833 -55 -154.5s-68 -50.5 -120 -50.5c-32 0 -64 5.33301 -96 16l15 128
c62.667 -16 97.334 5.33301 104.001 64l38 304h432l-20 -160h56zM618.999 128c16.667 0 31.1689 3.5 43.502 10.5s19.166 16.833 20.499 29.5c2 13.333 -2.33301 23.333 -13 30s-24.334 10 -41.001 10h-69l-10 -80h69z" />
    </font>
</defs>
</svg>
